<svg width="275" height="237" viewBox="0 0 275 237" fill="none" xmlns="http://www.w3.org/2000/svg">
<g filter="url(#filter0_dd_781_34382)">
<path d="M1.51343 17.5137C1.51343 8.67711 8.67687 1.51367 17.5134 1.51367H257.513C266.35 1.51367 273.513 8.67712 273.513 17.5137V217.514C273.513 226.35 266.35 233.514 257.513 233.514H17.5134C8.67687 233.514 1.51343 226.35 1.51343 217.514V17.5137Z" fill="white"/>
</g>
<rect x="17.5134" y="21.5393" width="16" height="16.0358" rx="8" fill="#6868F7"/>
<rect x="17.5134" y="21.5393" width="16" height="16.0358" rx="8" stroke="#CED4DA"/>
<rect x="18.0134" y="22.0137" width="15" height="15.0358" rx="3.5" fill="white" stroke="#DEE2E6"/>
<rect x="17.5134" y="21.5396" width="16" height="16" rx="4" fill="#6868F7"/>
<path d="M29.8212 26.3315C29.5649 26.0607 29.1494 26.0607 28.8931 26.3315L24.2947 31.1896L22.5087 29.3028C22.2524 29.032 21.8369 29.032 21.5806 29.3028C21.3244 29.5735 21.3244 30.0125 21.5806 30.2832L23.8306 32.6603C24.0869 32.931 24.5024 32.931 24.7587 32.6603L29.8212 27.312C30.0775 27.0412 30.0775 26.6022 29.8212 26.3315Z" fill="white"/>
<path d="M43.164 34.5137H41.8714L45.61 24.3319H46.8827L50.6214 34.5137H49.3288L46.2862 25.9426H46.2066L43.164 34.5137ZM43.6413 30.5364H48.8515V31.6301H43.6413V30.5364ZM55.1306 37.5364C54.5639 37.5364 54.0766 37.4635 53.669 37.3176C53.2613 37.1751 52.9216 36.9862 52.6498 36.7509C52.3813 36.5189 52.1675 36.2703 52.0085 36.0051L52.9431 35.3489C53.0492 35.4881 53.1834 35.6472 53.3458 35.8262C53.5082 36.0085 53.7303 36.1659 54.012 36.2985C54.297 36.4344 54.6699 36.5023 55.1306 36.5023C55.7471 36.5023 56.2559 36.3532 56.6569 36.0549C57.0579 35.7566 57.2585 35.2892 57.2585 34.6529V33.1017H57.159C57.0729 33.2409 56.9502 33.4133 56.7911 33.6188C56.6354 33.821 56.41 34.0016 56.115 34.1607C55.8233 34.3165 55.4289 34.3944 54.9318 34.3944C54.3153 34.3944 53.7618 34.2485 53.2712 33.9569C52.784 33.6652 52.3979 33.2409 52.1129 32.6841C51.8311 32.1273 51.6903 31.4512 51.6903 30.6557C51.6903 29.8735 51.8278 29.1924 52.1029 28.6124C52.378 28.0291 52.7608 27.5783 53.2514 27.2601C53.7419 26.9386 54.3086 26.7779 54.9516 26.7779C55.4488 26.7779 55.8432 26.8607 56.1349 27.0265C56.4299 27.1889 56.6552 27.3745 56.811 27.5833C56.9701 27.7888 57.0927 27.9578 57.1789 28.0904H57.2982V26.8773H58.4318V34.7324C58.4318 35.3887 58.2826 35.9223 57.9843 36.3333C57.6893 36.7476 57.2916 37.0508 56.7911 37.2431C56.294 37.4386 55.7405 37.5364 55.1306 37.5364ZM55.0908 33.3404C55.5615 33.3404 55.9592 33.2327 56.284 33.0172C56.6088 32.8018 56.8558 32.4919 57.0248 32.0875C57.1938 31.6832 57.2783 31.1993 57.2783 30.6358C57.2783 30.0856 57.1955 29.6001 57.0298 29.1792C56.864 28.7582 56.6188 28.4284 56.294 28.1898C55.9692 27.9512 55.5681 27.8319 55.0908 27.8319C54.5937 27.8319 54.1794 27.9578 53.8479 28.2097C53.5198 28.4616 53.2729 28.7997 53.1072 29.2239C52.9448 29.6481 52.8636 30.1188 52.8636 30.6358C52.8636 31.1661 52.9464 31.6351 53.1121 32.0428C53.2812 32.4471 53.5298 32.7653 53.8579 32.9973C54.1893 33.226 54.6003 33.3404 55.0908 33.3404ZM63.6619 37.5364C63.0951 37.5364 62.6079 37.4635 62.2002 37.3176C61.7925 37.1751 61.4528 36.9862 61.181 36.7509C60.9126 36.5189 60.6988 36.2703 60.5397 36.0051L61.4744 35.3489C61.5804 35.4881 61.7147 35.6472 61.8771 35.8262C62.0395 36.0085 62.2615 36.1659 62.5433 36.2985C62.8283 36.4344 63.2012 36.5023 63.6619 36.5023C64.2783 36.5023 64.7871 36.3532 65.1881 36.0549C65.5892 35.7566 65.7897 35.2892 65.7897 34.6529V33.1017H65.6903C65.6041 33.2409 65.4815 33.4133 65.3224 33.6188C65.1666 33.821 64.9412 34.0016 64.6462 34.1607C64.3546 34.3165 63.9602 34.3944 63.463 34.3944C62.8465 34.3944 62.293 34.2485 61.8025 33.9569C61.3153 33.6652 60.9291 33.2409 60.6441 32.6841C60.3624 32.1273 60.2215 31.4512 60.2215 30.6557C60.2215 29.8735 60.3591 29.1924 60.6342 28.6124C60.9093 28.0291 61.2921 27.5783 61.7826 27.2601C62.2731 26.9386 62.8399 26.7779 63.4829 26.7779C63.98 26.7779 64.3745 26.8607 64.6661 27.0265C64.9611 27.1889 65.1865 27.3745 65.3423 27.5833C65.5014 27.7888 65.624 27.9578 65.7102 28.0904H65.8295V26.8773H66.963V34.7324C66.963 35.3887 66.8139 35.9223 66.5156 36.3333C66.2206 36.7476 65.8229 37.0508 65.3224 37.2431C64.8252 37.4386 64.2717 37.5364 63.6619 37.5364ZM63.6221 33.3404C64.0927 33.3404 64.4905 33.2327 64.8153 33.0172C65.1401 32.8018 65.387 32.4919 65.556 32.0875C65.7251 31.6832 65.8096 31.1993 65.8096 30.6358C65.8096 30.0856 65.7267 29.6001 65.561 29.1792C65.3953 28.7582 65.15 28.4284 64.8252 28.1898C64.5004 27.9512 64.0994 27.8319 63.6221 27.8319C63.1249 27.8319 62.7106 27.9578 62.3792 28.2097C62.0511 28.4616 61.8041 28.7997 61.6384 29.2239C61.476 29.6481 61.3948 30.1188 61.3948 30.6358C61.3948 31.1661 61.4777 31.6351 61.6434 32.0428C61.8124 32.4471 62.061 32.7653 62.3891 32.9973C62.7206 33.226 63.1316 33.3404 63.6221 33.3404ZM69.1107 34.5137V26.8773H70.2443V28.0307H70.3238C70.463 27.6529 70.7149 27.3463 71.0795 27.111C71.4441 26.8757 71.855 26.758 72.3124 26.758C72.3986 26.758 72.5063 26.7596 72.6356 26.763C72.7648 26.7663 72.8626 26.7712 72.9289 26.7779V27.9711C72.8891 27.9611 72.798 27.9462 72.6555 27.9263C72.5163 27.9031 72.3688 27.8915 72.213 27.8915C71.8418 27.8915 71.5104 27.9694 71.2187 28.1252C70.9303 28.2776 70.7016 28.4898 70.5326 28.7615C70.3669 29.03 70.284 29.3366 70.284 29.6813V34.5137H69.1107ZM77.289 34.6728C76.5532 34.6728 75.9185 34.5104 75.3849 34.1855C74.8546 33.8574 74.4452 33.4 74.1569 32.8134C73.8719 32.2234 73.7293 31.5373 73.7293 30.7551C73.7293 29.973 73.8719 29.2836 74.1569 28.687C74.4452 28.0871 74.8463 27.6197 75.36 27.285C75.8771 26.9469 76.4803 26.7779 77.1697 26.7779C77.5674 26.7779 77.9602 26.8442 78.3479 26.9767C78.7357 27.1093 79.0887 27.3248 79.4069 27.623C79.7251 27.918 79.9786 28.3091 80.1675 28.7963C80.3565 29.2836 80.4509 29.8835 80.4509 30.5961V31.0932H74.5646V30.079H79.2577C79.2577 29.6481 79.1716 29.2637 78.9992 28.9256C78.8302 28.5875 78.5882 28.3207 78.2734 28.1252C77.9618 27.9296 77.5939 27.8319 77.1697 27.8319C76.7023 27.8319 76.298 27.9479 75.9566 28.1799C75.6185 28.4086 75.3584 28.7069 75.1761 29.0748C74.9938 29.4426 74.9026 29.8371 74.9026 30.258V30.9341C74.9026 31.5108 75.0021 31.9997 75.2009 32.4007C75.4031 32.7985 75.6832 33.1017 76.0411 33.3105C76.3991 33.516 76.815 33.6188 77.289 33.6188C77.5972 33.6188 77.8756 33.5757 78.1242 33.4895C78.3761 33.4 78.5932 33.2675 78.7755 33.0918C78.9578 32.9128 79.0987 32.6908 79.1981 32.4256L80.3316 32.7438C80.2123 33.1283 80.0118 33.4663 79.73 33.758C79.4483 34.0463 79.1003 34.2717 78.686 34.4341C78.2717 34.5932 77.806 34.6728 77.289 34.6728ZM85.3181 37.5364C84.7514 37.5364 84.2641 37.4635 83.8565 37.3176C83.4488 37.1751 83.1091 36.9862 82.8373 36.7509C82.5688 36.5189 82.355 36.2703 82.196 36.0051L83.1306 35.3489C83.2367 35.4881 83.3709 35.6472 83.5333 35.8262C83.6957 36.0085 83.9178 36.1659 84.1995 36.2985C84.4845 36.4344 84.8574 36.5023 85.3181 36.5023C85.9346 36.5023 86.4434 36.3532 86.8444 36.0549C87.2454 35.7566 87.446 35.2892 87.446 34.6529V33.1017H87.3465C87.2604 33.2409 87.1377 33.4133 86.9786 33.6188C86.8229 33.821 86.5975 34.0016 86.3025 34.1607C86.0108 34.3165 85.6164 34.3944 85.1193 34.3944C84.5028 34.3944 83.9493 34.2485 83.4587 33.9569C82.9715 33.6652 82.5854 33.2409 82.3004 32.6841C82.0186 32.1273 81.8778 31.4512 81.8778 30.6557C81.8778 29.8735 82.0153 29.1924 82.2904 28.6124C82.5655 28.0291 82.9483 27.5783 83.4389 27.2601C83.9294 26.9386 84.4961 26.7779 85.1391 26.7779C85.6363 26.7779 86.0307 26.8607 86.3224 27.0265C86.6174 27.1889 86.8427 27.3745 86.9985 27.5833C87.1576 27.7888 87.2802 27.9578 87.3664 28.0904H87.4857V26.8773H88.6193V34.7324C88.6193 35.3887 88.4701 35.9223 88.1718 36.3333C87.8768 36.7476 87.4791 37.0508 86.9786 37.2431C86.4815 37.4386 85.928 37.5364 85.3181 37.5364ZM85.2783 33.3404C85.749 33.3404 86.1467 33.2327 86.4715 33.0172C86.7963 32.8018 87.0433 32.4919 87.2123 32.0875C87.3813 31.6832 87.4658 31.1993 87.4658 30.6358C87.4658 30.0856 87.383 29.6001 87.2173 29.1792C87.0515 28.7582 86.8063 28.4284 86.4815 28.1898C86.1567 27.9512 85.7556 27.8319 85.2783 27.8319C84.7812 27.8319 84.3669 27.9578 84.0354 28.2097C83.7073 28.4616 83.4604 28.7997 83.2947 29.2239C83.1323 29.6481 83.0511 30.1188 83.0511 30.6358C83.0511 31.1661 83.1339 31.6351 83.2996 32.0428C83.4687 32.4471 83.7173 32.7653 84.0454 32.9973C84.3768 33.226 84.7878 33.3404 85.2783 33.3404ZM93.0141 34.6926C92.5302 34.6926 92.0911 34.6015 91.6967 34.4192C91.3023 34.2336 90.989 33.9668 90.757 33.6188C90.525 33.2675 90.409 32.8432 90.409 32.3461C90.409 31.9086 90.4952 31.5539 90.6675 31.2821C90.8399 31.007 91.0702 30.7916 91.3586 30.6358C91.647 30.4801 91.9651 30.3641 92.3131 30.2878C92.6645 30.2083 93.0175 30.1453 93.3721 30.0989C93.8361 30.0392 94.2123 29.9945 94.5006 29.9647C94.7923 29.9315 95.0044 29.8768 95.137 29.8006C95.2729 29.7244 95.3408 29.5918 95.3408 29.4029V29.3631C95.3408 28.8726 95.2066 28.4914 94.9381 28.2196C94.673 27.9479 94.2703 27.812 93.73 27.812C93.1699 27.812 92.7308 27.9346 92.4126 28.1799C92.0944 28.4251 91.8707 28.687 91.7414 28.9654L90.6278 28.5676C90.8266 28.1036 91.0918 27.7424 91.4232 27.4838C91.758 27.222 92.1226 27.0397 92.517 26.937C92.9147 26.8309 93.3058 26.7779 93.6903 26.7779C93.9355 26.7779 94.2173 26.8077 94.5354 26.8674C94.8569 26.9237 95.1668 27.0414 95.4651 27.2203C95.7667 27.3993 96.017 27.6694 96.2158 28.0307C96.4147 28.392 96.5141 28.8759 96.5141 29.4824V34.5137H95.3408V33.4796H95.2812C95.2016 33.6453 95.0691 33.8226 94.8835 34.0115C94.6979 34.2005 94.4509 34.3612 94.1427 34.4938C93.8345 34.6264 93.4583 34.6926 93.0141 34.6926ZM93.1931 33.6387C93.6571 33.6387 94.0482 33.5475 94.3664 33.3652C94.6879 33.1829 94.9299 32.9476 95.0923 32.6593C95.258 32.3709 95.3408 32.0676 95.3408 31.7495V30.6756C95.2911 30.7353 95.1818 30.79 95.0127 30.8397C94.847 30.8861 94.6548 30.9275 94.436 30.964C94.2206 30.9971 94.0101 31.0269 93.8046 31.0534C93.6024 31.0766 93.4384 31.0965 93.3124 31.1131C93.0075 31.1529 92.7225 31.2175 92.4573 31.307C92.1955 31.3932 91.9834 31.5241 91.821 31.6998C91.6619 31.8721 91.5823 32.1074 91.5823 32.4057C91.5823 32.8134 91.7331 33.1216 92.0347 33.3304C92.3397 33.5359 92.7258 33.6387 93.1931 33.6387ZM101.977 26.8773V27.8716H98.0193V26.8773H101.977ZM99.1727 25.0478H100.346V32.3262C100.346 32.6576 100.394 32.9062 100.49 33.0719C100.59 33.2343 100.716 33.3437 100.868 33.4C101.024 33.4531 101.188 33.4796 101.36 33.4796C101.489 33.4796 101.596 33.473 101.678 33.4597C101.761 33.4431 101.828 33.4299 101.877 33.4199L102.116 34.4739C102.036 34.5037 101.925 34.5336 101.783 34.5634C101.64 34.5965 101.46 34.6131 101.241 34.6131C100.909 34.6131 100.585 34.5418 100.266 34.3993C99.9516 34.2568 99.6897 34.0397 99.4809 33.748C99.2754 33.4564 99.1727 33.0885 99.1727 32.6444V25.0478ZM106.861 34.6728C106.125 34.6728 105.491 34.5104 104.957 34.1855C104.427 33.8574 104.018 33.4 103.729 32.8134C103.444 32.2234 103.302 31.5373 103.302 30.7551C103.302 29.973 103.444 29.2836 103.729 28.687C104.018 28.0871 104.419 27.6197 104.932 27.285C105.449 26.9469 106.053 26.7779 106.742 26.7779C107.14 26.7779 107.532 26.8442 107.92 26.9767C108.308 27.1093 108.661 27.3248 108.979 27.623C109.297 27.918 109.551 28.3091 109.74 28.7963C109.929 29.2836 110.023 29.8835 110.023 30.5961V31.0932H104.137V30.079H108.83C108.83 29.6481 108.744 29.2637 108.571 28.9256C108.402 28.5875 108.161 28.3207 107.846 28.1252C107.534 27.9296 107.166 27.8319 106.742 27.8319C106.275 27.8319 105.87 27.9479 105.529 28.1799C105.191 28.4086 104.931 28.7069 104.748 29.0748C104.566 29.4426 104.475 29.8371 104.475 30.258V30.9341C104.475 31.5108 104.574 31.9997 104.773 32.4007C104.975 32.7985 105.255 33.1017 105.613 33.3105C105.971 33.516 106.387 33.6188 106.861 33.6188C107.17 33.6188 107.448 33.5757 107.696 33.4895C107.948 33.4 108.165 33.2675 108.348 33.0918C108.53 32.9128 108.671 32.6908 108.77 32.4256L109.904 32.7438C109.785 33.1283 109.584 33.4663 109.302 33.758C109.021 34.0463 108.673 34.2717 108.258 34.4341C107.844 34.5932 107.378 34.6728 106.861 34.6728ZM114.692 34.6728C114.055 34.6728 113.493 34.512 113.006 34.1905C112.519 33.8657 112.138 33.4083 111.863 32.8184C111.588 32.2251 111.45 31.5241 111.45 30.7154C111.45 29.9133 111.588 29.2173 111.863 28.6273C112.138 28.0373 112.521 27.5816 113.011 27.2601C113.502 26.9386 114.068 26.7779 114.711 26.7779C115.209 26.7779 115.601 26.8607 115.89 27.0265C116.181 27.1889 116.403 27.3745 116.556 27.5833C116.712 27.7888 116.833 27.9578 116.919 28.0904H117.018V24.3319H118.192V34.5137H117.058V33.3404H116.919C116.833 33.4796 116.71 33.6552 116.551 33.8674C116.392 34.0762 116.165 34.2634 115.87 34.4292C115.575 34.5916 115.182 34.6728 114.692 34.6728ZM114.851 33.6188C115.321 33.6188 115.719 33.4962 116.044 33.2509C116.369 33.0023 116.616 32.6593 116.785 32.2218C116.954 31.781 117.038 31.2722 117.038 30.6955C117.038 30.1254 116.955 29.6266 116.79 29.199C116.624 28.7682 116.379 28.4334 116.054 28.1948C115.729 27.9528 115.328 27.8319 114.851 27.8319C114.353 27.8319 113.939 27.9595 113.608 28.2147C113.28 28.4666 113.033 28.8096 112.867 29.2438C112.705 29.6747 112.623 30.1586 112.623 30.6955C112.623 31.2391 112.706 31.7329 112.872 32.177C113.041 32.6178 113.29 32.9692 113.618 33.231C113.949 33.4895 114.36 33.6188 114.851 33.6188Z" fill="#151531"/>
<rect x="17.5134" y="77.5393" width="16" height="16.0358" rx="8" fill="#6868F7"/>
<rect x="17.5134" y="77.5393" width="16" height="16.0358" rx="8" stroke="#CED4DA"/>
<rect x="18.0134" y="78.0137" width="15" height="15.0358" rx="3.5" fill="white" stroke="#DEE2E6"/>
<rect x="18.0134" y="78.0396" width="15" height="15" rx="3.5" fill="white" stroke="#DEE2E6"/>
<path d="M50.8202 80.3319V90.5137H49.6271L44.0788 82.5194H43.9793V90.5137H42.7464V80.3319H43.9396L49.5077 88.3461H49.6072V80.3319H50.8202ZM56.2306 90.6728C55.5412 90.6728 54.9363 90.5087 54.4159 90.1806C53.8989 89.8525 53.4945 89.3934 53.2029 88.8034C52.9145 88.2135 52.7704 87.5241 52.7704 86.7353C52.7704 85.9398 52.9145 85.2454 53.2029 84.6522C53.4945 84.0589 53.8989 83.5982 54.4159 83.2701C54.9363 82.9419 55.5412 82.7779 56.2306 82.7779C56.92 82.7779 57.5232 82.9419 58.0402 83.2701C58.5606 83.5982 58.965 84.0589 59.2533 84.6522C59.545 85.2454 59.6908 85.9398 59.6908 86.7353C59.6908 87.5241 59.545 88.2135 59.2533 88.8034C58.965 89.3934 58.5606 89.8525 58.0402 90.1806C57.5232 90.5087 56.92 90.6728 56.2306 90.6728ZM56.2306 89.6188C56.7543 89.6188 57.1851 89.4846 57.5232 89.2161C57.8613 88.9476 58.1115 88.5946 58.2739 88.1571C58.4363 87.7196 58.5175 87.2457 58.5175 86.7353C58.5175 86.2248 58.4363 85.7492 58.2739 85.3084C58.1115 84.8676 57.8613 84.5113 57.5232 84.2395C57.1851 83.9677 56.7543 83.8319 56.2306 83.8319C55.7069 83.8319 55.276 83.9677 54.938 84.2395C54.5999 84.5113 54.3497 84.8676 54.1873 85.3084C54.0249 85.7492 53.9436 86.2248 53.9436 86.7353C53.9436 87.2457 54.0249 87.7196 54.1873 88.1571C54.3497 88.5946 54.5999 88.9476 54.938 89.2161C55.276 89.4846 55.7069 89.6188 56.2306 89.6188ZM67.4527 82.8773L64.6288 90.5137H63.4357L60.6118 82.8773H61.8845L63.9925 88.9625H64.072L66.18 82.8773H67.4527ZM76.4985 80.3319V90.5137H75.2656V81.6245H75.2059L72.7201 83.275V82.0222L75.2656 80.3319H76.4985ZM79.1881 88.4256V87.4114L83.6626 80.3319H84.3984V81.9029H83.9012L80.5205 87.2523V87.3319H86.5461V88.4256H79.1881ZM83.9808 90.5137V88.1174V87.6451V80.3319H85.1541V90.5137H83.9808ZM96.7416 84.8759V85.9696H92.287V84.8759H96.7416ZM110.976 80.3319V90.5137H109.783L104.235 82.5194H104.136V90.5137H102.903V80.3319H104.096L109.664 88.3461H109.763V80.3319H110.976ZM116.387 90.6728C115.697 90.6728 115.093 90.5087 114.572 90.1806C114.055 89.8525 113.651 89.3934 113.359 88.8034C113.071 88.2135 112.927 87.5241 112.927 86.7353C112.927 85.9398 113.071 85.2454 113.359 84.6522C113.651 84.0589 114.055 83.5982 114.572 83.2701C115.093 82.9419 115.697 82.7779 116.387 82.7779C117.076 82.7779 117.679 82.9419 118.196 83.2701C118.717 83.5982 119.121 84.0589 119.41 84.6522C119.701 85.2454 119.847 85.9398 119.847 86.7353C119.847 87.5241 119.701 88.2135 119.41 88.8034C119.121 89.3934 118.717 89.8525 118.196 90.1806C117.679 90.5087 117.076 90.6728 116.387 90.6728ZM116.387 89.6188C116.911 89.6188 117.341 89.4846 117.679 89.2161C118.018 88.9476 118.268 88.5946 118.43 88.1571C118.593 87.7196 118.674 87.2457 118.674 86.7353C118.674 86.2248 118.593 85.7492 118.43 85.3084C118.268 84.8676 118.018 84.5113 117.679 84.2395C117.341 83.9677 116.911 83.8319 116.387 83.8319C115.863 83.8319 115.432 83.9677 115.094 84.2395C114.756 84.5113 114.506 84.8676 114.344 85.3084C114.181 85.7492 114.1 86.2248 114.1 86.7353C114.1 87.2457 114.181 87.7196 114.344 88.1571C114.506 88.5946 114.756 88.9476 115.094 89.2161C115.432 89.4846 115.863 89.6188 116.387 89.6188ZM127.609 82.8773L124.785 90.5137H123.592L120.768 82.8773H122.041L124.149 88.9625H124.228L126.336 82.8773H127.609ZM133.075 90.5137V89.6188L136.436 85.9398C136.83 85.5089 137.155 85.1344 137.41 84.8162C137.666 84.4947 137.855 84.1931 137.977 83.9114C138.103 83.6264 138.166 83.3281 138.166 83.0165C138.166 82.6586 138.08 82.3487 137.908 82.0868C137.739 81.825 137.507 81.6228 137.212 81.4803C136.917 81.3378 136.585 81.2665 136.217 81.2665C135.826 81.2665 135.485 81.3477 135.193 81.5101C134.905 81.6692 134.681 81.8929 134.522 82.1813C134.366 82.4696 134.288 82.8077 134.288 83.1955H133.115C133.115 82.5989 133.253 82.0752 133.528 81.6245C133.803 81.1737 134.177 80.8224 134.651 80.5705C135.128 80.3186 135.664 80.1926 136.257 80.1926C136.854 80.1926 137.382 80.3186 137.843 80.5705C138.304 80.8224 138.665 81.1621 138.927 81.5897C139.189 82.0172 139.32 82.4928 139.32 83.0165C139.32 83.391 139.252 83.7573 139.116 84.1152C138.983 84.4699 138.751 84.8659 138.42 85.3034C138.092 85.7376 137.636 86.2679 137.052 86.8944L134.766 89.3404V89.4199H139.499V90.5137H133.075ZM144.873 90.6529C144.124 90.6529 143.486 90.449 142.959 90.0414C142.432 89.6304 142.029 89.0355 141.751 88.2566C141.472 87.4744 141.333 86.5298 141.333 85.4228C141.333 84.3224 141.472 83.3828 141.751 82.6039C142.032 81.8217 142.437 81.2251 142.964 80.8141C143.494 80.3998 144.13 80.1926 144.873 80.1926C145.615 80.1926 146.25 80.3998 146.777 80.8141C147.307 81.2251 147.712 81.8217 147.99 82.6039C148.272 83.3828 148.413 84.3224 148.413 85.4228C148.413 86.5298 148.273 87.4744 147.995 88.2566C147.717 89.0355 147.314 89.6304 146.787 90.0414C146.26 90.449 145.622 90.6529 144.873 90.6529ZM144.873 89.5591C145.615 89.5591 146.192 89.2012 146.603 88.4853C147.014 87.7694 147.219 86.7485 147.219 85.4228C147.219 84.5411 147.125 83.7904 146.936 83.1706C146.75 82.5508 146.482 82.0785 146.131 81.7537C145.783 81.4289 145.363 81.2665 144.873 81.2665C144.137 81.2665 143.562 81.6294 143.148 82.3553C142.733 83.0778 142.526 84.1003 142.526 85.4228C142.526 86.3044 142.619 87.0534 142.805 87.6699C142.99 88.2864 143.257 88.7554 143.605 89.0769C143.956 89.3984 144.379 89.5591 144.873 89.5591Z" fill="#151531"/>
<rect x="17.5134" y="117.539" width="16" height="16.0358" rx="8" fill="#6868F7"/>
<rect x="17.5134" y="117.539" width="16" height="16.0358" rx="8" stroke="#CED4DA"/>
<rect x="18.0134" y="118.014" width="15" height="15.0358" rx="3.5" fill="white" stroke="#DEE2E6"/>
<rect x="18.0134" y="118.04" width="15" height="15" rx="3.5" fill="white" stroke="#DEE2E6"/>
<path d="M50.8202 120.332V130.514H49.6271L44.0788 122.519H43.9793V130.514H42.7464V120.332H43.9396L49.5077 128.346H49.6072V120.332H50.8202ZM56.2306 130.673C55.5412 130.673 54.9363 130.509 54.4159 130.181C53.8989 129.852 53.4945 129.393 53.2029 128.803C52.9145 128.213 52.7704 127.524 52.7704 126.735C52.7704 125.94 52.9145 125.245 53.2029 124.652C53.4945 124.059 53.8989 123.598 54.4159 123.27C54.9363 122.942 55.5412 122.778 56.2306 122.778C56.92 122.778 57.5232 122.942 58.0402 123.27C58.5606 123.598 58.965 124.059 59.2533 124.652C59.545 125.245 59.6908 125.94 59.6908 126.735C59.6908 127.524 59.545 128.213 59.2533 128.803C58.965 129.393 58.5606 129.852 58.0402 130.181C57.5232 130.509 56.92 130.673 56.2306 130.673ZM56.2306 129.619C56.7543 129.619 57.1851 129.485 57.5232 129.216C57.8613 128.948 58.1115 128.595 58.2739 128.157C58.4363 127.72 58.5175 127.246 58.5175 126.735C58.5175 126.225 58.4363 125.749 58.2739 125.308C58.1115 124.868 57.8613 124.511 57.5232 124.24C57.1851 123.968 56.7543 123.832 56.2306 123.832C55.7069 123.832 55.276 123.968 54.938 124.24C54.5999 124.511 54.3497 124.868 54.1873 125.308C54.0249 125.749 53.9436 126.225 53.9436 126.735C53.9436 127.246 54.0249 127.72 54.1873 128.157C54.3497 128.595 54.5999 128.948 54.938 129.216C55.276 129.485 55.7069 129.619 56.2306 129.619ZM67.4527 122.877L64.6288 130.514H63.4357L60.6118 122.877H61.8845L63.9925 128.963H64.072L66.18 122.877H67.4527ZM72.919 130.514V129.619L76.2798 125.94C76.6742 125.509 76.999 125.134 77.2542 124.816C77.5094 124.495 77.6983 124.193 77.821 123.911C77.9469 123.626 78.0099 123.328 78.0099 123.017C78.0099 122.659 77.9237 122.349 77.7514 122.087C77.5823 121.825 77.3503 121.623 77.0553 121.48C76.7604 121.338 76.4289 121.267 76.061 121.267C75.6699 121.267 75.3285 121.348 75.0369 121.51C74.7485 121.669 74.5248 121.893 74.3657 122.181C74.2099 122.47 74.132 122.808 74.132 123.195H72.9587C72.9587 122.599 73.0963 122.075 73.3714 121.624C73.6465 121.174 74.021 120.822 74.495 120.57C74.9722 120.319 75.5075 120.193 76.1008 120.193C76.6974 120.193 77.226 120.319 77.6867 120.57C78.1474 120.822 78.5087 121.162 78.7705 121.59C79.0324 122.017 79.1633 122.493 79.1633 123.017C79.1633 123.391 79.0953 123.757 78.9595 124.115C78.8269 124.47 78.5949 124.866 78.2634 125.303C77.9353 125.738 77.4796 126.268 76.8962 126.894L74.6093 129.34V129.42H79.3423V130.514H72.919ZM84.9751 120.332V130.514H83.7421V121.624H83.6825L81.1967 123.275V122.022L83.7421 120.332H84.9751ZM96.2357 124.876V125.97H91.7812V124.876H96.2357ZM110.471 120.332V130.514H109.277L103.729 122.519H103.63V130.514H102.397V120.332H103.59L109.158 128.346H109.258V120.332H110.471ZM115.881 130.673C115.192 130.673 114.587 130.509 114.066 130.181C113.549 129.852 113.145 129.393 112.853 128.803C112.565 128.213 112.421 127.524 112.421 126.735C112.421 125.94 112.565 125.245 112.853 124.652C113.145 124.059 113.549 123.598 114.066 123.27C114.587 122.942 115.192 122.778 115.881 122.778C116.57 122.778 117.174 122.942 117.691 123.27C118.211 123.598 118.615 124.059 118.904 124.652C119.195 125.245 119.341 125.94 119.341 126.735C119.341 127.524 119.195 128.213 118.904 128.803C118.615 129.393 118.211 129.852 117.691 130.181C117.174 130.509 116.57 130.673 115.881 130.673ZM115.881 129.619C116.405 129.619 116.836 129.485 117.174 129.216C117.512 128.948 117.762 128.595 117.924 128.157C118.087 127.72 118.168 127.246 118.168 126.735C118.168 126.225 118.087 125.749 117.924 125.308C117.762 124.868 117.512 124.511 117.174 124.24C116.836 123.968 116.405 123.832 115.881 123.832C115.357 123.832 114.926 123.968 114.588 124.24C114.25 124.511 114 124.868 113.838 125.308C113.675 125.749 113.594 126.225 113.594 126.735C113.594 127.246 113.675 127.72 113.838 128.157C114 128.595 114.25 128.948 114.588 129.216C114.926 129.485 115.357 129.619 115.881 129.619ZM127.103 122.877L124.279 130.514H123.086L120.262 122.877H121.535L123.643 128.963H123.722L125.83 122.877H127.103ZM132.569 130.514V129.619L135.93 125.94C136.325 125.509 136.649 125.134 136.905 124.816C137.16 124.495 137.349 124.193 137.471 123.911C137.597 123.626 137.66 123.328 137.66 123.017C137.66 122.659 137.574 122.349 137.402 122.087C137.233 121.825 137.001 121.623 136.706 121.48C136.411 121.338 136.079 121.267 135.711 121.267C135.32 121.267 134.979 121.348 134.687 121.51C134.399 121.669 134.175 121.893 134.016 122.181C133.86 122.47 133.782 122.808 133.782 123.195H132.609C132.609 122.599 132.747 122.075 133.022 121.624C133.297 121.174 133.671 120.822 134.145 120.57C134.623 120.319 135.158 120.193 135.751 120.193C136.348 120.193 136.876 120.319 137.337 120.57C137.798 120.822 138.159 121.162 138.421 121.59C138.683 122.017 138.814 122.493 138.814 123.017C138.814 123.391 138.746 123.757 138.61 124.115C138.477 124.47 138.245 124.866 137.914 125.303C137.586 125.738 137.13 126.268 136.547 126.894L134.26 129.34V129.42H138.993V130.514H132.569ZM141.364 130.514L145.918 121.505V121.426H140.668V120.332H147.191V121.485L142.657 130.514H141.364Z" fill="#151531"/>
<rect x="17.5134" y="157.539" width="16" height="16.0358" rx="8" fill="#6868F7"/>
<rect x="17.5134" y="157.539" width="16" height="16.0358" rx="8" stroke="#CED4DA"/>
<rect x="18.0134" y="158.014" width="15" height="15.0358" rx="3.5" fill="white" stroke="#DEE2E6"/>
<rect x="18.0134" y="158.04" width="15" height="15" rx="3.5" fill="white" stroke="#DEE2E6"/>
<path d="M50.8202 160.332V170.514H49.6271L44.0788 162.519H43.9793V170.514H42.7464V160.332H43.9396L49.5077 168.346H49.6072V160.332H50.8202ZM56.2306 170.673C55.5412 170.673 54.9363 170.509 54.4159 170.181C53.8989 169.852 53.4945 169.393 53.2029 168.803C52.9145 168.213 52.7704 167.524 52.7704 166.735C52.7704 165.94 52.9145 165.245 53.2029 164.652C53.4945 164.059 53.8989 163.598 54.4159 163.27C54.9363 162.942 55.5412 162.778 56.2306 162.778C56.92 162.778 57.5232 162.942 58.0402 163.27C58.5606 163.598 58.965 164.059 59.2533 164.652C59.545 165.245 59.6908 165.94 59.6908 166.735C59.6908 167.524 59.545 168.213 59.2533 168.803C58.965 169.393 58.5606 169.852 58.0402 170.181C57.5232 170.509 56.92 170.673 56.2306 170.673ZM56.2306 169.619C56.7543 169.619 57.1851 169.485 57.5232 169.216C57.8613 168.948 58.1115 168.595 58.2739 168.157C58.4363 167.72 58.5175 167.246 58.5175 166.735C58.5175 166.225 58.4363 165.749 58.2739 165.308C58.1115 164.868 57.8613 164.511 57.5232 164.24C57.1851 163.968 56.7543 163.832 56.2306 163.832C55.7069 163.832 55.276 163.968 54.938 164.24C54.5999 164.511 54.3497 164.868 54.1873 165.308C54.0249 165.749 53.9436 166.225 53.9436 166.735C53.9436 167.246 54.0249 167.72 54.1873 168.157C54.3497 168.595 54.5999 168.948 54.938 169.216C55.276 169.485 55.7069 169.619 56.2306 169.619ZM67.4527 162.877L64.6288 170.514H63.4357L60.6118 162.877H61.8845L63.9925 168.963H64.072L66.18 162.877H67.4527ZM72.919 170.514V169.619L76.2798 165.94C76.6742 165.509 76.999 165.134 77.2542 164.816C77.5094 164.495 77.6983 164.193 77.821 163.911C77.9469 163.626 78.0099 163.328 78.0099 163.017C78.0099 162.659 77.9237 162.349 77.7514 162.087C77.5823 161.825 77.3503 161.623 77.0553 161.48C76.7604 161.338 76.4289 161.267 76.061 161.267C75.6699 161.267 75.3285 161.348 75.0369 161.51C74.7485 161.669 74.5248 161.893 74.3657 162.181C74.2099 162.47 74.132 162.808 74.132 163.195H72.9587C72.9587 162.599 73.0963 162.075 73.3714 161.624C73.6465 161.174 74.021 160.822 74.495 160.57C74.9722 160.319 75.5075 160.193 76.1008 160.193C76.6974 160.193 77.226 160.319 77.6867 160.57C78.1474 160.822 78.5087 161.162 78.7705 161.59C79.0324 162.017 79.1633 162.493 79.1633 163.017C79.1633 163.391 79.0953 163.757 78.9595 164.115C78.8269 164.47 78.5949 164.866 78.2634 165.303C77.9353 165.738 77.4796 166.268 76.8962 166.894L74.6093 169.34V169.42H79.3423V170.514H72.919ZM84.6569 170.653C83.9741 170.653 83.3709 170.532 82.8472 170.29C82.3269 170.045 81.9209 169.708 81.6292 169.281C81.3375 168.85 81.1934 168.359 81.1967 167.809C81.1934 167.378 81.2779 166.981 81.4502 166.616C81.6226 166.248 81.8579 165.941 82.1562 165.696C82.4578 165.448 82.7942 165.29 83.1654 165.224V165.164C82.6782 165.038 82.2904 164.765 82.0021 164.344C81.7137 163.92 81.5712 163.437 81.5745 162.897C81.5712 162.38 81.7021 161.918 81.9673 161.51C82.2324 161.102 82.597 160.781 83.061 160.546C83.5283 160.31 84.0603 160.193 84.6569 160.193C85.2469 160.193 85.7738 160.31 86.2379 160.546C86.7019 160.781 87.0665 161.102 87.3316 161.51C87.6001 161.918 87.736 162.38 87.7393 162.897C87.736 163.437 87.5885 163.92 87.2968 164.344C87.0085 164.765 86.6256 165.038 86.1484 165.164V165.224C86.5163 165.29 86.8477 165.448 87.1427 165.696C87.4377 165.941 87.673 166.248 87.8487 166.616C88.0243 166.981 88.1138 167.378 88.1171 167.809C88.1138 168.359 87.9647 168.85 87.6697 169.281C87.378 169.708 86.972 170.045 86.4516 170.29C85.9346 170.532 85.3363 170.653 84.6569 170.653ZM84.6569 169.559C85.1176 169.559 85.5153 169.485 85.8501 169.335C86.1848 169.186 86.4434 168.976 86.6256 168.704C86.8079 168.432 86.9007 168.114 86.9041 167.749C86.9007 167.365 86.8013 167.025 86.6058 166.73C86.4102 166.435 86.1434 166.203 85.8053 166.034C85.4706 165.865 85.0878 165.781 84.6569 165.781C84.2227 165.781 83.8349 165.865 83.4935 166.034C83.1555 166.203 82.8887 166.435 82.6931 166.73C82.5009 167.025 82.4064 167.365 82.4097 167.749C82.4064 168.114 82.4943 168.432 82.6732 168.704C82.8555 168.976 83.1157 169.186 83.4538 169.335C83.7918 169.485 84.1929 169.559 84.6569 169.559ZM84.6569 164.727C85.0215 164.727 85.3446 164.654 85.6264 164.508C85.9114 164.362 86.1351 164.158 86.2975 163.896C86.4599 163.635 86.5428 163.328 86.5461 162.977C86.5428 162.632 86.4616 162.332 86.3025 162.077C86.1434 161.818 85.923 161.619 85.6413 161.48C85.3595 161.338 85.0314 161.267 84.6569 161.267C84.2757 161.267 83.9426 161.338 83.6576 161.48C83.3726 161.619 83.1522 161.818 82.9964 162.077C82.8406 162.332 82.7644 162.632 82.7677 162.977C82.7644 163.328 82.8423 163.635 83.0014 163.896C83.1638 164.158 83.3875 164.362 83.6725 164.508C83.9576 164.654 84.2857 164.727 84.6569 164.727ZM98.3549 164.876V165.97H93.9003V164.876H98.3549ZM107.658 170.514H104.516V160.332H107.797C108.785 160.332 109.63 160.536 110.333 160.943C111.035 161.348 111.574 161.929 111.948 162.688C112.323 163.444 112.51 164.349 112.51 165.403C112.51 166.463 112.321 167.377 111.943 168.142C111.566 168.905 111.015 169.491 110.293 169.902C109.57 170.31 108.692 170.514 107.658 170.514ZM105.749 169.42H107.578C108.42 169.42 109.118 169.258 109.671 168.933C110.225 168.608 110.638 168.146 110.909 167.546C111.181 166.946 111.317 166.231 111.317 165.403C111.317 164.581 111.183 163.873 110.914 163.28C110.646 162.683 110.245 162.226 109.711 161.908C109.178 161.586 108.513 161.426 107.718 161.426H105.749V169.42ZM117.621 170.673C116.885 170.673 116.251 170.51 115.717 170.186C115.187 169.857 114.777 169.4 114.489 168.813C114.204 168.223 114.061 167.537 114.061 166.755C114.061 165.973 114.204 165.284 114.489 164.687C114.777 164.087 115.178 163.62 115.692 163.285C116.209 162.947 116.812 162.778 117.502 162.778C117.899 162.778 118.292 162.844 118.68 162.977C119.068 163.109 119.421 163.325 119.739 163.623C120.057 163.918 120.311 164.309 120.5 164.796C120.688 165.284 120.783 165.883 120.783 166.596V167.093H114.897V166.079H119.59C119.59 165.648 119.504 165.264 119.331 164.926C119.162 164.588 118.92 164.321 118.605 164.125C118.294 163.93 117.926 163.832 117.502 163.832C117.034 163.832 116.63 163.948 116.289 164.18C115.951 164.409 115.69 164.707 115.508 165.075C115.326 165.443 115.235 165.837 115.235 166.258V166.934C115.235 167.511 115.334 168 115.533 168.401C115.735 168.798 116.015 169.102 116.373 169.311C116.731 169.516 117.147 169.619 117.621 169.619C117.929 169.619 118.208 169.576 118.456 169.49C118.708 169.4 118.925 169.267 119.108 169.092C119.29 168.913 119.431 168.691 119.53 168.426L120.664 168.744C120.544 169.128 120.344 169.466 120.062 169.758C119.78 170.046 119.432 170.272 119.018 170.434C118.604 170.593 118.138 170.673 117.621 170.673ZM125.67 170.673C124.954 170.673 124.338 170.504 123.821 170.166C123.304 169.828 122.906 169.362 122.627 168.769C122.349 168.175 122.21 167.498 122.21 166.735C122.21 165.96 122.352 165.275 122.637 164.682C122.926 164.085 123.327 163.62 123.84 163.285C124.358 162.947 124.961 162.778 125.65 162.778C126.187 162.778 126.671 162.877 127.102 163.076C127.533 163.275 127.886 163.553 128.161 163.911C128.436 164.269 128.607 164.687 128.673 165.164H127.5C127.41 164.816 127.211 164.508 126.903 164.24C126.598 163.968 126.187 163.832 125.67 163.832C125.213 163.832 124.812 163.951 124.467 164.19C124.126 164.425 123.859 164.758 123.666 165.189C123.478 165.617 123.383 166.119 123.383 166.695C123.383 167.285 123.476 167.799 123.662 168.237C123.85 168.674 124.116 169.014 124.457 169.256C124.802 169.498 125.206 169.619 125.67 169.619C125.975 169.619 126.252 169.566 126.5 169.46C126.749 169.354 126.959 169.201 127.132 169.002C127.304 168.803 127.427 168.565 127.5 168.286H128.673C128.607 168.737 128.443 169.143 128.181 169.504C127.922 169.862 127.579 170.147 127.152 170.36C126.727 170.568 126.233 170.673 125.67 170.673ZM137.627 170.653C136.878 170.653 136.24 170.449 135.713 170.041C135.186 169.63 134.783 169.035 134.505 168.257C134.226 167.474 134.087 166.53 134.087 165.423C134.087 164.322 134.226 163.383 134.505 162.604C134.786 161.822 135.191 161.225 135.718 160.814C136.248 160.4 136.884 160.193 137.627 160.193C138.369 160.193 139.004 160.4 139.531 160.814C140.061 161.225 140.465 161.822 140.744 162.604C141.026 163.383 141.166 164.322 141.166 165.423C141.166 166.53 141.027 167.474 140.749 168.257C140.47 169.035 140.068 169.63 139.541 170.041C139.014 170.449 138.376 170.653 137.627 170.653ZM137.627 169.559C138.369 169.559 138.946 169.201 139.357 168.485C139.768 167.769 139.973 166.749 139.973 165.423C139.973 164.541 139.879 163.79 139.69 163.171C139.504 162.551 139.236 162.079 138.885 161.754C138.537 161.429 138.117 161.267 137.627 161.267C136.891 161.267 136.316 161.629 135.902 162.355C135.487 163.078 135.28 164.1 135.28 165.423C135.28 166.304 135.373 167.053 135.559 167.67C135.744 168.286 136.011 168.755 136.359 169.077C136.71 169.398 137.133 169.559 137.627 169.559ZM142.817 168.426V167.411L147.291 160.332H148.027V161.903H147.53L144.149 167.252V167.332H150.175V168.426H142.817ZM147.61 170.514V168.117V167.645V160.332H148.783V170.514H147.61Z" fill="#151531"/>
<rect x="17.5134" y="197.539" width="16" height="16.0358" rx="8" fill="#6868F7"/>
<rect x="17.5134" y="197.539" width="16" height="16.0358" rx="8" stroke="#CED4DA"/>
<rect x="18.0134" y="198.014" width="15" height="15.0358" rx="3.5" fill="white" stroke="#DEE2E6"/>
<rect x="18.0134" y="198.04" width="15" height="15" rx="3.5" fill="white" stroke="#DEE2E6"/>
<path d="M45.8884 210.514H42.7464V200.332H46.0276C47.0153 200.332 47.8605 200.536 48.5631 200.943C49.2658 201.348 49.8044 201.929 50.1789 202.688C50.5534 203.444 50.7407 204.349 50.7407 205.403C50.7407 206.463 50.5518 207.377 50.1739 208.142C49.7961 208.905 49.2459 209.491 48.5234 209.902C47.8008 210.31 46.9225 210.514 45.8884 210.514ZM43.9793 209.42H45.8089C46.6507 209.42 47.3484 209.258 47.9019 208.933C48.4554 208.608 48.8681 208.146 49.1398 207.546C49.4116 206.946 49.5475 206.231 49.5475 205.403C49.5475 204.581 49.4133 203.873 49.1448 203.28C48.8764 202.683 48.4753 202.226 47.9417 201.908C47.4081 201.586 46.7435 201.426 45.9481 201.426H43.9793V209.42ZM55.8515 210.673C55.1157 210.673 54.481 210.51 53.9474 210.186C53.4171 209.857 53.0077 209.4 52.7194 208.813C52.4344 208.223 52.2918 207.537 52.2918 206.755C52.2918 205.973 52.4344 205.284 52.7194 204.687C53.0077 204.087 53.4088 203.62 53.9225 203.285C54.4396 202.947 55.0428 202.778 55.7322 202.778C56.1299 202.778 56.5227 202.844 56.9104 202.977C57.2982 203.109 57.6512 203.325 57.9694 203.623C58.2876 203.918 58.5411 204.309 58.73 204.796C58.919 205.284 59.0134 205.883 59.0134 206.596V207.093H53.1271V206.079H57.8202C57.8202 205.648 57.7341 205.264 57.5617 204.926C57.3927 204.588 57.1507 204.321 56.8359 204.125C56.5243 203.93 56.1564 203.832 55.7322 203.832C55.2648 203.832 54.8605 203.948 54.5191 204.18C54.181 204.409 53.9209 204.707 53.7386 205.075C53.5563 205.443 53.4651 205.837 53.4651 206.258V206.934C53.4651 207.511 53.5646 208 53.7634 208.401C53.9656 208.798 54.2457 209.102 54.6036 209.311C54.9616 209.516 55.3775 209.619 55.8515 209.619C56.1597 209.619 56.4381 209.576 56.6867 209.49C56.9386 209.4 57.1557 209.267 57.338 209.092C57.5203 208.913 57.6612 208.691 57.7606 208.426L58.8941 208.744C58.7748 209.128 58.5743 209.466 58.2925 209.758C58.0108 210.046 57.6628 210.272 57.2485 210.434C56.8342 210.593 56.3685 210.673 55.8515 210.673ZM63.9005 210.673C63.1846 210.673 62.5681 210.504 62.0511 210.166C61.534 209.828 61.1363 209.362 60.8579 208.769C60.5795 208.175 60.4403 207.498 60.4403 206.735C60.4403 205.96 60.5828 205.275 60.8678 204.682C61.1562 204.085 61.5572 203.62 62.071 203.285C62.588 202.947 63.1912 202.778 63.8806 202.778C64.4175 202.778 64.9014 202.877 65.3323 203.076C65.7632 203.275 66.1162 203.553 66.3913 203.911C66.6664 204.269 66.8371 204.687 66.9033 205.164H65.73C65.6406 204.816 65.4417 204.508 65.1335 204.24C64.8285 203.968 64.4175 203.832 63.9005 203.832C63.4431 203.832 63.0421 203.951 62.6974 204.19C62.356 204.425 62.0892 204.758 61.897 205.189C61.708 205.617 61.6136 206.119 61.6136 206.695C61.6136 207.285 61.7064 207.799 61.892 208.237C62.0809 208.674 62.3461 209.014 62.6874 209.256C63.0321 209.498 63.4365 209.619 63.9005 209.619C64.2054 209.619 64.4822 209.566 64.7308 209.46C64.9793 209.354 65.1898 209.201 65.3621 209.002C65.5345 208.803 65.6571 208.565 65.73 208.286H66.9033C66.8371 208.737 66.673 209.143 66.4112 209.504C66.1526 209.862 65.8096 210.147 65.382 210.36C64.9578 210.568 64.4639 210.673 63.9005 210.673ZM75.8572 210.653C75.1081 210.653 74.4701 210.449 73.9431 210.041C73.4161 209.63 73.0134 209.035 72.735 208.257C72.4566 207.474 72.3174 206.53 72.3174 205.423C72.3174 204.322 72.4566 203.383 72.735 202.604C73.0167 201.822 73.4211 201.225 73.9481 200.814C74.4784 200.4 75.1148 200.193 75.8572 200.193C76.5996 200.193 77.2343 200.4 77.7613 200.814C78.2916 201.225 78.696 201.822 78.9744 202.604C79.2561 203.383 79.397 204.322 79.397 205.423C79.397 206.53 79.2577 207.474 78.9793 208.257C78.7009 209.035 78.2982 209.63 77.7712 210.041C77.2443 210.449 76.6062 210.653 75.8572 210.653ZM75.8572 209.559C76.5996 209.559 77.1763 209.201 77.5873 208.485C77.9983 207.769 78.2038 206.749 78.2038 205.423C78.2038 204.541 78.1093 203.79 77.9204 203.171C77.7348 202.551 77.4663 202.079 77.115 201.754C76.767 201.429 76.3477 201.267 75.8572 201.267C75.1214 201.267 74.5463 201.629 74.132 202.355C73.7177 203.078 73.5106 204.1 73.5106 205.423C73.5106 206.304 73.6034 207.053 73.789 207.67C73.9746 208.286 74.2414 208.755 74.5894 209.077C74.9407 209.398 75.3633 209.559 75.8572 209.559ZM84.468 210.653C83.8846 210.653 83.3593 210.537 82.892 210.305C82.4246 210.073 82.0501 209.755 81.7684 209.35C81.4867 208.946 81.3326 208.485 81.306 207.968H82.4992C82.5456 208.429 82.7544 208.81 83.1256 209.112C83.5002 209.41 83.9476 209.559 84.468 209.559C84.8856 209.559 85.2568 209.461 85.5816 209.266C85.9097 209.07 86.1666 208.802 86.3522 208.46C86.5411 208.116 86.6356 207.726 86.6356 207.292C86.6356 206.848 86.5378 206.452 86.3423 206.104C86.15 205.753 85.8849 205.476 85.5468 205.274C85.2087 205.071 84.8226 204.969 84.3884 204.965C84.0769 204.962 83.757 205.01 83.4289 205.11C83.1008 205.206 82.8307 205.33 82.6185 205.482L81.4651 205.343L82.0816 200.332H87.3714V201.426H83.1157L82.7577 204.428H82.8174C83.0262 204.263 83.288 204.125 83.6029 204.016C83.9178 203.906 84.2459 203.852 84.5873 203.852C85.2104 203.852 85.7656 204.001 86.2528 204.299C86.7433 204.594 87.1278 204.999 87.4062 205.512C87.6879 206.026 87.8288 206.613 87.8288 207.272C87.8288 207.922 87.6829 208.502 87.3913 209.012C87.1029 209.519 86.7052 209.92 86.1981 210.215C85.691 210.507 85.1143 210.653 84.468 210.653ZM98.1361 204.876V205.97H93.6816V204.876H98.1361ZM107.439 210.514H104.297V200.332H107.578C108.566 200.332 109.411 200.536 110.114 200.943C110.817 201.348 111.355 201.929 111.73 202.688C112.104 203.444 112.291 204.349 112.291 205.403C112.291 206.463 112.103 207.377 111.725 208.142C111.347 208.905 110.797 209.491 110.074 209.902C109.352 210.31 108.473 210.514 107.439 210.514ZM105.53 209.42H107.36C108.202 209.42 108.899 209.258 109.453 208.933C110.006 208.608 110.419 208.146 110.691 207.546C110.962 206.946 111.098 206.231 111.098 205.403C111.098 204.581 110.964 203.873 110.696 203.28C110.427 202.683 110.026 202.226 109.492 201.908C108.959 201.586 108.294 201.426 107.499 201.426H105.53V209.42ZM117.402 210.673C116.666 210.673 116.032 210.51 115.498 210.186C114.968 209.857 114.559 209.4 114.27 208.813C113.985 208.223 113.843 207.537 113.843 206.755C113.843 205.973 113.985 205.284 114.27 204.687C114.559 204.087 114.96 203.62 115.473 203.285C115.99 202.947 116.594 202.778 117.283 202.778C117.681 202.778 118.073 202.844 118.461 202.977C118.849 203.109 119.202 203.325 119.52 203.623C119.838 203.918 120.092 204.309 120.281 204.796C120.47 205.284 120.564 205.883 120.564 206.596V207.093H114.678V206.079H119.371C119.371 205.648 119.285 205.264 119.113 204.926C118.943 204.588 118.702 204.321 118.387 204.125C118.075 203.93 117.707 203.832 117.283 203.832C116.816 203.832 116.411 203.948 116.07 204.18C115.732 204.409 115.472 204.707 115.289 205.075C115.107 205.443 115.016 205.837 115.016 206.258V206.934C115.016 207.511 115.115 208 115.314 208.401C115.516 208.798 115.796 209.102 116.154 209.311C116.512 209.516 116.928 209.619 117.402 209.619C117.711 209.619 117.989 209.576 118.238 209.49C118.489 209.4 118.706 209.267 118.889 209.092C119.071 208.913 119.212 208.691 119.311 208.426L120.445 208.744C120.326 209.128 120.125 209.466 119.843 209.758C119.562 210.046 119.214 210.272 118.799 210.434C118.385 210.593 117.919 210.673 117.402 210.673ZM125.451 210.673C124.735 210.673 124.119 210.504 123.602 210.166C123.085 209.828 122.687 209.362 122.409 208.769C122.13 208.175 121.991 207.498 121.991 206.735C121.991 205.96 122.134 205.275 122.419 204.682C122.707 204.085 123.108 203.62 123.622 203.285C124.139 202.947 124.742 202.778 125.431 202.778C125.968 202.778 126.452 202.877 126.883 203.076C127.314 203.275 127.667 203.553 127.942 203.911C128.217 204.269 128.388 204.687 128.454 205.164H127.281C127.191 204.816 126.992 204.508 126.684 204.24C126.379 203.968 125.968 203.832 125.451 203.832C124.994 203.832 124.593 203.951 124.248 204.19C123.907 204.425 123.64 204.758 123.448 205.189C123.259 205.617 123.164 206.119 123.164 206.695C123.164 207.285 123.257 207.799 123.443 208.237C123.632 208.674 123.897 209.014 124.238 209.256C124.583 209.498 124.987 209.619 125.451 209.619C125.756 209.619 126.033 209.566 126.282 209.46C126.53 209.354 126.741 209.201 126.913 209.002C127.085 208.803 127.208 208.565 127.281 208.286H128.454C128.388 208.737 128.224 209.143 127.962 209.504C127.703 209.862 127.36 210.147 126.933 210.36C126.509 210.568 126.015 210.673 125.451 210.673ZM137.666 200.332V210.514H136.434V201.624H136.374L133.888 203.275V202.022L136.434 200.332H137.666ZM144.174 200.332V210.514H142.941V201.624H142.882L140.396 203.275V202.022L142.941 200.332H144.174Z" fill="#151531"/>
<line x1="17.5134" y1="57.0137" x2="257.513" y2="57.0137" stroke="#E9ECEF"/>
<defs>
<filter id="filter0_dd_781_34382" x="0.513428" y="0.513672" width="274" height="236" filterUnits="userSpaceOnUse" color-interpolation-filters="sRGB">
<feFlood flood-opacity="0" result="BackgroundImageFix"/>
<feColorMatrix in="SourceAlpha" type="matrix" values="0 0 0 0 0 0 0 0 0 0 0 0 0 0 0 0 0 0 127 0" result="hardAlpha"/>
<feOffset/>
<feGaussianBlur stdDeviation="0.5"/>
<feColorMatrix type="matrix" values="0 0 0 0 0.0509804 0 0 0 0 0.0745098 0 0 0 0 0.105882 0 0 0 0.25 0"/>
<feBlend mode="normal" in2="BackgroundImageFix" result="effect1_dropShadow_781_34382"/>
<feColorMatrix in="SourceAlpha" type="matrix" values="0 0 0 0 0 0 0 0 0 0 0 0 0 0 0 0 0 0 127 0" result="hardAlpha"/>
<feOffset dy="2"/>
<feGaussianBlur stdDeviation="0.5"/>
<feColorMatrix type="matrix" values="0 0 0 0 0.0509804 0 0 0 0 0.0745098 0 0 0 0 0.105882 0 0 0 0.05 0"/>
<feBlend mode="normal" in2="effect1_dropShadow_781_34382" result="effect2_dropShadow_781_34382"/>
<feBlend mode="normal" in="SourceGraphic" in2="effect2_dropShadow_781_34382" result="shape"/>
</filter>
</defs>
</svg>
