<svg width="322" height="324" viewBox="0 0 322 324" fill="none" xmlns="http://www.w3.org/2000/svg">
<g filter="url(#filter0_dd_781_34359)">
<rect x="1.00024" y="1" width="320" height="320" rx="20" fill="white"/>
<path d="M26.2787 43V31.3636H30.4264C31.3279 31.3636 32.076 31.5189 32.6707 31.8295C33.2692 32.1402 33.7162 32.5701 34.0116 33.1193C34.3071 33.6648 34.4548 34.2955 34.4548 35.0114C34.4548 35.7235 34.3052 36.3504 34.0059 36.892C33.7105 37.4299 33.2635 37.8485 32.665 38.1477C32.0703 38.447 31.3222 38.5966 30.4207 38.5966H27.2787V37.0852H30.2616C30.8298 37.0852 31.2919 37.0038 31.648 36.8409C32.0078 36.678 32.2711 36.4413 32.4377 36.1307C32.6044 35.8201 32.6877 35.447 32.6877 35.0114C32.6877 34.572 32.6025 34.1913 32.4321 33.8693C32.2654 33.5473 32.0021 33.3011 31.6423 33.1307C31.2862 32.9564 30.8184 32.8693 30.2389 32.8693H28.0343V43H26.2787ZM32.023 37.75L34.898 43H32.898L30.0798 37.75H32.023ZM40.1068 43.1761C39.2469 43.1761 38.5064 42.9924 37.8852 42.625C37.2678 42.2538 36.7905 41.733 36.4534 41.0625C36.12 40.3883 35.9534 39.5985 35.9534 38.6932C35.9534 37.7992 36.12 37.0114 36.4534 36.3295C36.7905 35.6477 37.2602 35.1155 37.8625 34.733C38.4685 34.3504 39.1769 34.1591 39.9875 34.1591C40.4799 34.1591 40.9572 34.2405 41.4193 34.4034C41.8814 34.5663 42.2962 34.822 42.6636 35.1705C43.031 35.5189 43.3208 35.9716 43.5329 36.5284C43.745 37.0814 43.8511 37.7538 43.8511 38.5455V39.1477H36.9136V37.875H42.1863C42.1863 37.428 42.0954 37.0322 41.9136 36.6875C41.7318 36.339 41.4761 36.0644 41.1466 35.8636C40.8208 35.6629 40.4382 35.5625 39.9988 35.5625C39.5216 35.5625 39.1049 35.6799 38.7488 35.9148C38.3966 36.1458 38.1238 36.4489 37.9306 36.8239C37.7412 37.1951 37.6466 37.5985 37.6466 38.0341V39.0284C37.6466 39.6117 37.7488 40.108 37.9534 40.517C38.1617 40.9261 38.4515 41.2386 38.8227 41.4545C39.1939 41.6667 39.6276 41.7727 40.1238 41.7727C40.4458 41.7727 40.7394 41.7273 41.0045 41.6364C41.2697 41.5417 41.4988 41.4015 41.692 41.2159C41.8852 41.0303 42.0329 40.8011 42.1352 40.5284L43.7431 40.8182C43.6144 41.2917 43.3833 41.7064 43.05 42.0625C42.7204 42.4148 42.3056 42.6894 41.8056 42.8864C41.3094 43.0795 40.7431 43.1761 40.1068 43.1761ZM49.8099 34.2727V35.6364H45.0429V34.2727H49.8099ZM46.3213 32.1818H48.0201V40.4375C48.0201 40.767 48.0694 41.0152 48.1679 41.1818C48.2663 41.3447 48.3932 41.4564 48.5485 41.517C48.7076 41.5739 48.88 41.6023 49.0656 41.6023C49.2019 41.6023 49.3213 41.5928 49.4235 41.5739C49.5258 41.5549 49.6054 41.5398 49.6622 41.5284L49.969 42.9318C49.8705 42.9697 49.7304 43.0076 49.5485 43.0455C49.3667 43.0871 49.1394 43.1098 48.8667 43.1136C48.4198 43.1212 48.0031 43.0417 47.6167 42.875C47.2304 42.7083 46.9179 42.4508 46.6792 42.1023C46.4406 41.7538 46.3213 41.3163 46.3213 40.7898V32.1818ZM55.3568 43.1761C54.4969 43.1761 53.7564 42.9924 53.1352 42.625C52.5178 42.2538 52.0405 41.733 51.7034 41.0625C51.37 40.3883 51.2034 39.5985 51.2034 38.6932C51.2034 37.7992 51.37 37.0114 51.7034 36.3295C52.0405 35.6477 52.5102 35.1155 53.1125 34.733C53.7185 34.3504 54.4269 34.1591 55.2375 34.1591C55.7299 34.1591 56.2072 34.2405 56.6693 34.4034C57.1314 34.5663 57.5462 34.822 57.9136 35.1705C58.281 35.5189 58.5708 35.9716 58.7829 36.5284C58.995 37.0814 59.1011 37.7538 59.1011 38.5455V39.1477H52.1636V37.875H57.4363C57.4363 37.428 57.3454 37.0322 57.1636 36.6875C56.9818 36.339 56.7261 36.0644 56.3966 35.8636C56.0708 35.6629 55.6882 35.5625 55.2488 35.5625C54.7716 35.5625 54.3549 35.6799 53.9988 35.9148C53.6466 36.1458 53.3738 36.4489 53.1806 36.8239C52.9912 37.1951 52.8966 37.5985 52.8966 38.0341V39.0284C52.8966 39.6117 52.9988 40.108 53.2034 40.517C53.4117 40.9261 53.7015 41.2386 54.0727 41.4545C54.4439 41.6667 54.8776 41.7727 55.3738 41.7727C55.6958 41.7727 55.9894 41.7273 56.2545 41.6364C56.5197 41.5417 56.7488 41.4015 56.942 41.2159C57.1352 41.0303 57.2829 40.8011 57.3852 40.5284L58.9931 40.8182C58.8644 41.2917 58.6333 41.7064 58.3 42.0625C57.9704 42.4148 57.5556 42.6894 57.0556 42.8864C56.5594 43.0795 55.9931 43.1761 55.3568 43.1761ZM62.6849 37.8182V43H60.986V34.2727H62.6167V35.6932H62.7247C62.9254 35.2311 63.2398 34.8598 63.6679 34.5795C64.0997 34.2992 64.6432 34.1591 65.2985 34.1591C65.8932 34.1591 66.4141 34.2841 66.861 34.5341C67.308 34.7803 67.6546 35.1477 67.9008 35.6364C68.147 36.125 68.2701 36.7292 68.2701 37.4489V43H66.5713V37.6534C66.5713 37.0208 66.4065 36.5265 66.0769 36.1705C65.7474 35.8106 65.2948 35.6307 64.719 35.6307C64.3251 35.6307 63.9747 35.7159 63.6679 35.8864C63.3648 36.0568 63.1243 36.3068 62.9463 36.6364C62.772 36.9621 62.6849 37.3561 62.6849 37.8182ZM74.6224 34.2727V35.6364H69.8554V34.2727H74.6224ZM71.1338 32.1818H72.8326V40.4375C72.8326 40.767 72.8819 41.0152 72.9804 41.1818C73.0788 41.3447 73.2057 41.4564 73.361 41.517C73.5201 41.5739 73.6925 41.6023 73.8781 41.6023C74.0144 41.6023 74.1338 41.5928 74.236 41.5739C74.3383 41.5549 74.4179 41.5398 74.4747 41.5284L74.7815 42.9318C74.683 42.9697 74.5429 43.0076 74.361 43.0455C74.1792 43.0871 73.9519 43.1098 73.6792 43.1136C73.2323 43.1212 72.8156 43.0417 72.4292 42.875C72.0429 42.7083 71.7304 42.4508 71.4917 42.1023C71.2531 41.7538 71.1338 41.3163 71.1338 40.7898V32.1818ZM76.5017 43V34.2727H78.2005V43H76.5017ZM77.3596 32.9261C77.0642 32.9261 76.8104 32.8277 76.5983 32.6307C76.3899 32.4299 76.2858 32.1913 76.2858 31.9148C76.2858 31.6345 76.3899 31.3958 76.5983 31.1989C76.8104 30.9981 77.0642 30.8977 77.3596 30.8977C77.6551 30.8977 77.907 30.9981 78.1153 31.1989C78.3274 31.3958 78.4335 31.6345 78.4335 31.9148C78.4335 32.1913 78.3274 32.4299 78.1153 32.6307C77.907 32.8277 77.6551 32.9261 77.3596 32.9261ZM84.1622 43.1761C83.344 43.1761 82.63 42.9886 82.0201 42.6136C81.4103 42.2386 80.9368 41.714 80.5997 41.0398C80.2626 40.3655 80.094 39.5777 80.094 38.6761C80.094 37.7708 80.2626 36.9792 80.5997 36.3011C80.9368 35.6231 81.4103 35.0966 82.0201 34.7216C82.63 34.3466 83.344 34.1591 84.1622 34.1591C84.9804 34.1591 85.6944 34.3466 86.3042 34.7216C86.9141 35.0966 87.3876 35.6231 87.7247 36.3011C88.0618 36.9792 88.2304 37.7708 88.2304 38.6761C88.2304 39.5777 88.0618 40.3655 87.7247 41.0398C87.3876 41.714 86.9141 42.2386 86.3042 42.6136C85.6944 42.9886 84.9804 43.1761 84.1622 43.1761ZM84.1679 41.75C84.6982 41.75 85.1376 41.6098 85.486 41.3295C85.8345 41.0492 86.0921 40.6761 86.2588 40.2102C86.4292 39.7443 86.5144 39.2311 86.5144 38.6705C86.5144 38.1136 86.4292 37.6023 86.2588 37.1364C86.0921 36.6667 85.8345 36.2898 85.486 36.0057C85.1376 35.7216 84.6982 35.5795 84.1679 35.5795C83.6338 35.5795 83.1906 35.7216 82.8383 36.0057C82.4898 36.2898 82.2304 36.6667 82.0599 37.1364C81.8932 37.6023 81.8099 38.1136 81.8099 38.6705C81.8099 39.2311 81.8932 39.7443 82.0599 40.2102C82.2304 40.6761 82.4898 41.0492 82.8383 41.3295C83.1906 41.6098 83.6338 41.75 84.1679 41.75ZM91.8255 37.8182V43H90.1267V34.2727H91.7573V35.6932H91.8653C92.0661 35.2311 92.3805 34.8598 92.8085 34.5795C93.2403 34.2992 93.7839 34.1591 94.4392 34.1591C95.0339 34.1591 95.5547 34.2841 96.0017 34.5341C96.4486 34.7803 96.7952 35.1477 97.0414 35.6364C97.2876 36.125 97.4108 36.7292 97.4108 37.4489V43H95.7119V37.6534C95.7119 37.0208 95.5471 36.5265 95.2176 36.1705C94.888 35.8106 94.4354 35.6307 93.8596 35.6307C93.4657 35.6307 93.1153 35.7159 92.8085 35.8864C92.5055 36.0568 92.2649 36.3068 92.0869 36.6364C91.9126 36.9621 91.8255 37.3561 91.8255 37.8182ZM107.6 43.1761C106.755 43.1761 106.028 42.9848 105.418 42.6023C104.812 42.2159 104.346 41.6837 104.02 41.0057C103.694 40.3277 103.531 39.5511 103.531 38.6761C103.531 37.7898 103.698 37.0076 104.031 36.3295C104.365 35.6477 104.835 35.1155 105.441 34.733C106.047 34.3504 106.761 34.1591 107.583 34.1591C108.246 34.1591 108.836 34.2822 109.355 34.5284C109.874 34.7708 110.293 35.1117 110.611 35.5511C110.933 35.9905 111.124 36.5038 111.185 37.0909H109.531C109.441 36.6818 109.232 36.3295 108.906 36.0341C108.585 35.7386 108.153 35.5909 107.611 35.5909C107.138 35.5909 106.723 35.7159 106.367 35.9659C106.014 36.2121 105.74 36.5644 105.543 37.0227C105.346 37.4773 105.247 38.0152 105.247 38.6364C105.247 39.2727 105.344 39.822 105.537 40.2841C105.73 40.7462 106.003 41.1042 106.355 41.358C106.711 41.6117 107.13 41.7386 107.611 41.7386C107.933 41.7386 108.225 41.6799 108.486 41.5625C108.751 41.4413 108.973 41.2689 109.151 41.0455C109.333 40.822 109.46 40.553 109.531 40.2386H111.185C111.124 40.803 110.941 41.3068 110.634 41.75C110.327 42.1932 109.916 42.5417 109.401 42.7955C108.889 43.0492 108.289 43.1761 107.6 43.1761ZM116.678 43.1761C115.86 43.1761 115.146 42.9886 114.536 42.6136C113.926 42.2386 113.452 41.714 113.115 41.0398C112.778 40.3655 112.61 39.5777 112.61 38.6761C112.61 37.7708 112.778 36.9792 113.115 36.3011C113.452 35.6231 113.926 35.0966 114.536 34.7216C115.146 34.3466 115.86 34.1591 116.678 34.1591C117.496 34.1591 118.21 34.3466 118.82 34.7216C119.43 35.0966 119.903 35.6231 120.24 36.3011C120.577 36.9792 120.746 37.7708 120.746 38.6761C120.746 39.5777 120.577 40.3655 120.24 41.0398C119.903 41.714 119.43 42.2386 118.82 42.6136C118.21 42.9886 117.496 43.1761 116.678 43.1761ZM116.683 41.75C117.214 41.75 117.653 41.6098 118.002 41.3295C118.35 41.0492 118.608 40.6761 118.774 40.2102C118.945 39.7443 119.03 39.2311 119.03 38.6705C119.03 38.1136 118.945 37.6023 118.774 37.1364C118.608 36.6667 118.35 36.2898 118.002 36.0057C117.653 35.7216 117.214 35.5795 116.683 35.5795C116.149 35.5795 115.706 35.7216 115.354 36.0057C115.005 36.2898 114.746 36.6667 114.576 37.1364C114.409 37.6023 114.326 38.1136 114.326 38.6705C114.326 39.2311 114.409 39.7443 114.576 40.2102C114.746 40.6761 115.005 41.0492 115.354 41.3295C115.706 41.6098 116.149 41.75 116.683 41.75ZM124.341 37.8182V43H122.642V31.3636H124.318V35.6932H124.426C124.631 35.2235 124.943 34.8504 125.364 34.5739C125.784 34.2973 126.334 34.1591 127.012 34.1591C127.61 34.1591 128.133 34.2822 128.58 34.5284C129.031 34.7746 129.379 35.142 129.625 35.6307C129.875 36.1155 130 36.7216 130 37.4489V43H128.301V37.6534C128.301 37.0133 128.137 36.517 127.807 36.1648C127.478 35.8087 127.019 35.6307 126.432 35.6307C126.031 35.6307 125.671 35.7159 125.353 35.8864C125.038 36.0568 124.79 36.3068 124.608 36.6364C124.43 36.9621 124.341 37.3561 124.341 37.8182ZM135.943 43.1761C135.125 43.1761 134.411 42.9886 133.801 42.6136C133.192 42.2386 132.718 41.714 132.381 41.0398C132.044 40.3655 131.875 39.5777 131.875 38.6761C131.875 37.7708 132.044 36.9792 132.381 36.3011C132.718 35.6231 133.192 35.0966 133.801 34.7216C134.411 34.3466 135.125 34.1591 135.943 34.1591C136.762 34.1591 137.476 34.3466 138.085 34.7216C138.695 35.0966 139.169 35.6231 139.506 36.3011C139.843 36.9792 140.012 37.7708 140.012 38.6761C140.012 39.5777 139.843 40.3655 139.506 41.0398C139.169 41.714 138.695 42.2386 138.085 42.6136C137.476 42.9886 136.762 43.1761 135.943 43.1761ZM135.949 41.75C136.479 41.75 136.919 41.6098 137.267 41.3295C137.616 41.0492 137.873 40.6761 138.04 40.2102C138.21 39.7443 138.296 39.2311 138.296 38.6705C138.296 38.1136 138.21 37.6023 138.04 37.1364C137.873 36.6667 137.616 36.2898 137.267 36.0057C136.919 35.7216 136.479 35.5795 135.949 35.5795C135.415 35.5795 134.972 35.7216 134.62 36.0057C134.271 36.2898 134.012 36.6667 133.841 37.1364C133.674 37.6023 133.591 38.1136 133.591 38.6705C133.591 39.2311 133.674 39.7443 133.841 40.2102C134.012 40.6761 134.271 41.0492 134.62 41.3295C134.972 41.6098 135.415 41.75 135.949 41.75ZM141.908 43V34.2727H143.55V35.6591H143.641C143.8 35.1894 144.08 34.8201 144.482 34.5511C144.887 34.2784 145.345 34.142 145.857 34.142C145.963 34.142 146.088 34.1458 146.232 34.1534C146.38 34.161 146.495 34.1705 146.578 34.1818V35.8068C146.51 35.7879 146.389 35.767 146.215 35.7443C146.04 35.7178 145.866 35.7045 145.692 35.7045C145.29 35.7045 144.933 35.7898 144.618 35.9602C144.308 36.1269 144.061 36.3598 143.88 36.6591C143.698 36.9545 143.607 37.2917 143.607 37.6705V43H141.908ZM152.638 34.2727V35.6364H147.871V34.2727H152.638ZM149.149 32.1818H150.848V40.4375C150.848 40.767 150.897 41.0152 150.996 41.1818C151.094 41.3447 151.221 41.4564 151.377 41.517C151.536 41.5739 151.708 41.6023 151.894 41.6023C152.03 41.6023 152.149 41.5928 152.252 41.5739C152.354 41.5549 152.433 41.5398 152.49 41.5284L152.797 42.9318C152.699 42.9697 152.558 43.0076 152.377 43.0455C152.195 43.0871 151.968 43.1098 151.695 43.1136C151.248 43.1212 150.831 43.0417 150.445 42.875C150.058 42.7083 149.746 42.4508 149.507 42.1023C149.269 41.7538 149.149 41.3163 149.149 40.7898V32.1818ZM160.916 36.4034L159.377 36.6761C159.312 36.4792 159.21 36.2917 159.07 36.1136C158.933 35.9356 158.748 35.7898 158.513 35.6761C158.278 35.5625 157.985 35.5057 157.632 35.5057C157.151 35.5057 156.75 35.6136 156.428 35.8295C156.106 36.0417 155.945 36.3163 155.945 36.6534C155.945 36.9451 156.053 37.1799 156.269 37.358C156.485 37.536 156.833 37.6818 157.314 37.7955L158.701 38.1136C159.504 38.2992 160.102 38.5852 160.496 38.9716C160.89 39.358 161.087 39.8598 161.087 40.4773C161.087 41 160.935 41.4659 160.632 41.875C160.333 42.2803 159.915 42.5985 159.377 42.8295C158.843 43.0606 158.223 43.1761 157.519 43.1761C156.541 43.1761 155.744 42.9678 155.127 42.5511C154.509 42.1307 154.13 41.5341 153.99 40.7614L155.632 40.5114C155.735 40.9394 155.945 41.2633 156.263 41.483C156.581 41.6989 156.996 41.8068 157.507 41.8068C158.064 41.8068 158.509 41.6913 158.843 41.4602C159.176 41.2254 159.343 40.9394 159.343 40.6023C159.343 40.3295 159.24 40.1004 159.036 39.9148C158.835 39.7292 158.526 39.589 158.11 39.4943L156.632 39.1705C155.818 38.9848 155.216 38.6894 154.826 38.2841C154.439 37.8788 154.246 37.3655 154.246 36.7443C154.246 36.2292 154.39 35.7784 154.678 35.392C154.966 35.0057 155.363 34.7045 155.871 34.4886C156.379 34.2689 156.96 34.1591 157.615 34.1591C158.558 34.1591 159.301 34.3636 159.843 34.7727C160.384 35.178 160.742 35.7216 160.916 36.4034Z" fill="#0D131B"/>
<g filter="url(#filter1_dd_781_34359)">
<path d="M24.5134 69.5137C24.5134 65.0954 28.0951 61.5137 32.5134 61.5137H288.513C292.932 61.5137 296.513 65.0954 296.513 69.5137V89.5137C296.513 93.9319 292.932 97.5137 288.513 97.5137H32.5134C28.0952 97.5137 24.5134 93.9319 24.5134 89.5137V69.5137Z" fill="white"/>
</g>
<path d="M42.164 84.5137H40.8714L44.61 74.3319H45.8827L49.6214 84.5137H48.3288L45.2862 75.9426H45.2066L42.164 84.5137ZM42.6413 80.5364H47.8515V81.6301H42.6413V80.5364ZM54.1306 87.5364C53.5639 87.5364 53.0766 87.4635 52.669 87.3176C52.2613 87.1751 51.9216 86.9862 51.6498 86.7509C51.3813 86.5189 51.1675 86.2703 51.0085 86.0051L51.9431 85.3489C52.0492 85.4881 52.1834 85.6472 52.3458 85.8262C52.5082 86.0085 52.7303 86.1659 53.012 86.2985C53.297 86.4344 53.6699 86.5023 54.1306 86.5023C54.7471 86.5023 55.2559 86.3532 55.6569 86.0549C56.0579 85.7566 56.2585 85.2892 56.2585 84.6529V83.1017H56.159C56.0729 83.2409 55.9502 83.4133 55.7911 83.6188C55.6354 83.821 55.41 84.0016 55.115 84.1607C54.8233 84.3165 54.4289 84.3944 53.9318 84.3944C53.3153 84.3944 52.7618 84.2485 52.2712 83.9569C51.784 83.6652 51.3979 83.2409 51.1129 82.6841C50.8311 82.1273 50.6903 81.4512 50.6903 80.6557C50.6903 79.8735 50.8278 79.1924 51.1029 78.6124C51.378 78.0291 51.7608 77.5783 52.2514 77.2601C52.7419 76.9386 53.3086 76.7779 53.9516 76.7779C54.4488 76.7779 54.8432 76.8607 55.1349 77.0265C55.4299 77.1889 55.6552 77.3745 55.811 77.5833C55.9701 77.7888 56.0927 77.9578 56.1789 78.0904H56.2982V76.8773H57.4318V84.7324C57.4318 85.3887 57.2826 85.9223 56.9843 86.3333C56.6893 86.7476 56.2916 87.0508 55.7911 87.2431C55.294 87.4386 54.7405 87.5364 54.1306 87.5364ZM54.0908 83.3404C54.5615 83.3404 54.9592 83.2327 55.284 83.0172C55.6088 82.8018 55.8558 82.4919 56.0248 82.0875C56.1938 81.6832 56.2783 81.1993 56.2783 80.6358C56.2783 80.0856 56.1955 79.6001 56.0298 79.1792C55.864 78.7582 55.6188 78.4284 55.294 78.1898C54.9692 77.9512 54.5681 77.8319 54.0908 77.8319C53.5937 77.8319 53.1794 77.9578 52.8479 78.2097C52.5198 78.4616 52.2729 78.7997 52.1072 79.2239C51.9448 79.6481 51.8636 80.1188 51.8636 80.6358C51.8636 81.1661 51.9464 81.6351 52.1121 82.0428C52.2812 82.4471 52.5298 82.7653 52.8579 82.9973C53.1893 83.226 53.6003 83.3404 54.0908 83.3404ZM62.6619 87.5364C62.0951 87.5364 61.6079 87.4635 61.2002 87.3176C60.7925 87.1751 60.4528 86.9862 60.181 86.7509C59.9126 86.5189 59.6988 86.2703 59.5397 86.0051L60.4744 85.3489C60.5804 85.4881 60.7147 85.6472 60.8771 85.8262C61.0395 86.0085 61.2615 86.1659 61.5433 86.2985C61.8283 86.4344 62.2012 86.5023 62.6619 86.5023C63.2783 86.5023 63.7871 86.3532 64.1881 86.0549C64.5892 85.7566 64.7897 85.2892 64.7897 84.6529V83.1017H64.6903C64.6041 83.2409 64.4815 83.4133 64.3224 83.6188C64.1666 83.821 63.9412 84.0016 63.6462 84.1607C63.3546 84.3165 62.9602 84.3944 62.463 84.3944C61.8465 84.3944 61.293 84.2485 60.8025 83.9569C60.3153 83.6652 59.9291 83.2409 59.6441 82.6841C59.3624 82.1273 59.2215 81.4512 59.2215 80.6557C59.2215 79.8735 59.3591 79.1924 59.6342 78.6124C59.9093 78.0291 60.2921 77.5783 60.7826 77.2601C61.2731 76.9386 61.8399 76.7779 62.4829 76.7779C62.98 76.7779 63.3745 76.8607 63.6661 77.0265C63.9611 77.1889 64.1865 77.3745 64.3423 77.5833C64.5014 77.7888 64.624 77.9578 64.7102 78.0904H64.8295V76.8773H65.963V84.7324C65.963 85.3887 65.8139 85.9223 65.5156 86.3333C65.2206 86.7476 64.8229 87.0508 64.3224 87.2431C63.8252 87.4386 63.2717 87.5364 62.6619 87.5364ZM62.6221 83.3404C63.0927 83.3404 63.4905 83.2327 63.8153 83.0172C64.1401 82.8018 64.387 82.4919 64.556 82.0875C64.7251 81.6832 64.8096 81.1993 64.8096 80.6358C64.8096 80.0856 64.7267 79.6001 64.561 79.1792C64.3953 78.7582 64.15 78.4284 63.8252 78.1898C63.5004 77.9512 63.0994 77.8319 62.6221 77.8319C62.1249 77.8319 61.7106 77.9578 61.3792 78.2097C61.0511 78.4616 60.8041 78.7997 60.6384 79.2239C60.476 79.6481 60.3948 80.1188 60.3948 80.6358C60.3948 81.1661 60.4777 81.6351 60.6434 82.0428C60.8124 82.4471 61.061 82.7653 61.3891 82.9973C61.7206 83.226 62.1316 83.3404 62.6221 83.3404ZM68.1107 84.5137V76.8773H69.2443V78.0307H69.3238C69.463 77.6529 69.7149 77.3463 70.0795 77.111C70.4441 76.8757 70.855 76.758 71.3124 76.758C71.3986 76.758 71.5063 76.7596 71.6356 76.763C71.7648 76.7663 71.8626 76.7712 71.9289 76.7779V77.9711C71.8891 77.9611 71.798 77.9462 71.6555 77.9263C71.5163 77.9031 71.3688 77.8915 71.213 77.8915C70.8418 77.8915 70.5104 77.9694 70.2187 78.1252C69.9303 78.2776 69.7016 78.4898 69.5326 78.7615C69.3669 79.03 69.284 79.3366 69.284 79.6813V84.5137H68.1107ZM76.289 84.6728C75.5532 84.6728 74.9185 84.5104 74.3849 84.1855C73.8546 83.8574 73.4452 83.4 73.1569 82.8134C72.8719 82.2234 72.7293 81.5373 72.7293 80.7551C72.7293 79.973 72.8719 79.2836 73.1569 78.687C73.4452 78.0871 73.8463 77.6197 74.36 77.285C74.8771 76.9469 75.4803 76.7779 76.1697 76.7779C76.5674 76.7779 76.9602 76.8442 77.3479 76.9767C77.7357 77.1093 78.0887 77.3248 78.4069 77.623C78.7251 77.918 78.9786 78.3091 79.1675 78.7963C79.3565 79.2836 79.4509 79.8835 79.4509 80.5961V81.0932H73.5646V80.079H78.2577C78.2577 79.6481 78.1716 79.2637 77.9992 78.9256C77.8302 78.5875 77.5882 78.3207 77.2734 78.1252C76.9618 77.9296 76.5939 77.8319 76.1697 77.8319C75.7023 77.8319 75.298 77.9479 74.9566 78.1799C74.6185 78.4086 74.3584 78.7069 74.1761 79.0748C73.9938 79.4426 73.9026 79.8371 73.9026 80.258V80.9341C73.9026 81.5108 74.0021 81.9997 74.2009 82.4007C74.4031 82.7985 74.6832 83.1017 75.0411 83.3105C75.3991 83.516 75.815 83.6188 76.289 83.6188C76.5972 83.6188 76.8756 83.5757 77.1242 83.4895C77.3761 83.4 77.5932 83.2675 77.7755 83.0918C77.9578 82.9128 78.0987 82.6908 78.1981 82.4256L79.3316 82.7438C79.2123 83.1283 79.0118 83.4663 78.73 83.758C78.4483 84.0463 78.1003 84.2717 77.686 84.4341C77.2717 84.5932 76.806 84.6728 76.289 84.6728ZM84.3181 87.5364C83.7514 87.5364 83.2641 87.4635 82.8565 87.3176C82.4488 87.1751 82.1091 86.9862 81.8373 86.7509C81.5688 86.5189 81.355 86.2703 81.196 86.0051L82.1306 85.3489C82.2367 85.4881 82.3709 85.6472 82.5333 85.8262C82.6957 86.0085 82.9178 86.1659 83.1995 86.2985C83.4845 86.4344 83.8574 86.5023 84.3181 86.5023C84.9346 86.5023 85.4434 86.3532 85.8444 86.0549C86.2454 85.7566 86.446 85.2892 86.446 84.6529V83.1017H86.3465C86.2604 83.2409 86.1377 83.4133 85.9786 83.6188C85.8229 83.821 85.5975 84.0016 85.3025 84.1607C85.0108 84.3165 84.6164 84.3944 84.1193 84.3944C83.5028 84.3944 82.9493 84.2485 82.4587 83.9569C81.9715 83.6652 81.5854 83.2409 81.3004 82.6841C81.0186 82.1273 80.8778 81.4512 80.8778 80.6557C80.8778 79.8735 81.0153 79.1924 81.2904 78.6124C81.5655 78.0291 81.9483 77.5783 82.4389 77.2601C82.9294 76.9386 83.4961 76.7779 84.1391 76.7779C84.6363 76.7779 85.0307 76.8607 85.3224 77.0265C85.6174 77.1889 85.8427 77.3745 85.9985 77.5833C86.1576 77.7888 86.2802 77.9578 86.3664 78.0904H86.4857V76.8773H87.6193V84.7324C87.6193 85.3887 87.4701 85.9223 87.1718 86.3333C86.8768 86.7476 86.4791 87.0508 85.9786 87.2431C85.4815 87.4386 84.928 87.5364 84.3181 87.5364ZM84.2783 83.3404C84.749 83.3404 85.1467 83.2327 85.4715 83.0172C85.7963 82.8018 86.0433 82.4919 86.2123 82.0875C86.3813 81.6832 86.4658 81.1993 86.4658 80.6358C86.4658 80.0856 86.383 79.6001 86.2173 79.1792C86.0515 78.7582 85.8063 78.4284 85.4815 78.1898C85.1567 77.9512 84.7556 77.8319 84.2783 77.8319C83.7812 77.8319 83.3669 77.9578 83.0354 78.2097C82.7073 78.4616 82.4604 78.7997 82.2947 79.2239C82.1323 79.6481 82.0511 80.1188 82.0511 80.6358C82.0511 81.1661 82.1339 81.6351 82.2996 82.0428C82.4687 82.4471 82.7173 82.7653 83.0454 82.9973C83.3768 83.226 83.7878 83.3404 84.2783 83.3404ZM92.0141 84.6926C91.5302 84.6926 91.0911 84.6015 90.6967 84.4192C90.3023 84.2336 89.989 83.9668 89.757 83.6188C89.525 83.2675 89.409 82.8432 89.409 82.3461C89.409 81.9086 89.4952 81.5539 89.6675 81.2821C89.8399 81.007 90.0702 80.7916 90.3586 80.6358C90.647 80.4801 90.9651 80.3641 91.3131 80.2878C91.6645 80.2083 92.0175 80.1453 92.3721 80.0989C92.8361 80.0392 93.2123 79.9945 93.5006 79.9647C93.7923 79.9315 94.0044 79.8768 94.137 79.8006C94.2729 79.7244 94.3408 79.5918 94.3408 79.4029V79.3631C94.3408 78.8726 94.2066 78.4914 93.9381 78.2196C93.673 77.9479 93.2703 77.812 92.73 77.812C92.1699 77.812 91.7308 77.9346 91.4126 78.1799C91.0944 78.4251 90.8707 78.687 90.7414 78.9654L89.6278 78.5676C89.8266 78.1036 90.0918 77.7424 90.4232 77.4838C90.758 77.222 91.1226 77.0397 91.517 76.937C91.9147 76.8309 92.3058 76.7779 92.6903 76.7779C92.9355 76.7779 93.2173 76.8077 93.5354 76.8674C93.8569 76.9237 94.1668 77.0414 94.4651 77.2203C94.7667 77.3993 95.017 77.6694 95.2158 78.0307C95.4147 78.392 95.5141 78.8759 95.5141 79.4824V84.5137H94.3408V83.4796H94.2812C94.2016 83.6453 94.0691 83.8226 93.8835 84.0115C93.6979 84.2005 93.4509 84.3612 93.1427 84.4938C92.8345 84.6264 92.4583 84.6926 92.0141 84.6926ZM92.1931 83.6387C92.6571 83.6387 93.0482 83.5475 93.3664 83.3652C93.6879 83.1829 93.9299 82.9476 94.0923 82.6593C94.258 82.3709 94.3408 82.0676 94.3408 81.7495V80.6756C94.2911 80.7353 94.1818 80.79 94.0127 80.8397C93.847 80.8861 93.6548 80.9275 93.436 80.964C93.2206 80.9971 93.0101 81.0269 92.8046 81.0534C92.6024 81.0766 92.4384 81.0965 92.3124 81.1131C92.0075 81.1529 91.7225 81.2175 91.4573 81.307C91.1955 81.3932 90.9834 81.5241 90.821 81.6998C90.6619 81.8721 90.5823 82.1074 90.5823 82.4057C90.5823 82.8134 90.7331 83.1216 91.0347 83.3304C91.3397 83.5359 91.7258 83.6387 92.1931 83.6387ZM100.977 76.8773V77.8716H97.0193V76.8773H100.977ZM98.1727 75.0478H99.346V82.3262C99.346 82.6576 99.3941 82.9062 99.4902 83.0719C99.5896 83.2343 99.7155 83.3437 99.868 83.4C100.024 83.4531 100.188 83.4796 100.36 83.4796C100.489 83.4796 100.596 83.473 100.678 83.4597C100.761 83.4431 100.828 83.4299 100.877 83.4199L101.116 84.4739C101.036 84.5037 100.925 84.5336 100.783 84.5634C100.64 84.5965 100.46 84.6131 100.241 84.6131C99.9094 84.6131 99.5846 84.5418 99.2664 84.3993C98.9516 84.2568 98.6897 84.0397 98.4809 83.748C98.2754 83.4564 98.1727 83.0885 98.1727 82.6444V75.0478ZM105.861 84.6728C105.125 84.6728 104.491 84.5104 103.957 84.1855C103.427 83.8574 103.018 83.4 102.729 82.8134C102.444 82.2234 102.302 81.5373 102.302 80.7551C102.302 79.973 102.444 79.2836 102.729 78.687C103.018 78.0871 103.419 77.6197 103.932 77.285C104.449 76.9469 105.053 76.7779 105.742 76.7779C106.14 76.7779 106.532 76.8442 106.92 76.9767C107.308 77.1093 107.661 77.3248 107.979 77.623C108.297 77.918 108.551 78.3091 108.74 78.7963C108.929 79.2836 109.023 79.8835 109.023 80.5961V81.0932H103.137V80.079H107.83C107.83 79.6481 107.744 79.2637 107.571 78.9256C107.402 78.5875 107.161 78.3207 106.846 78.1252C106.534 77.9296 106.166 77.8319 105.742 77.8319C105.275 77.8319 104.87 77.9479 104.529 78.1799C104.191 78.4086 103.931 78.7069 103.748 79.0748C103.566 79.4426 103.475 79.8371 103.475 80.258V80.9341C103.475 81.5108 103.574 81.9997 103.773 82.4007C103.975 82.7985 104.255 83.1017 104.613 83.3105C104.971 83.516 105.387 83.6188 105.861 83.6188C106.17 83.6188 106.448 83.5757 106.696 83.4895C106.948 83.4 107.165 83.2675 107.348 83.0918C107.53 82.9128 107.671 82.6908 107.77 82.4256L108.904 82.7438C108.785 83.1283 108.584 83.4663 108.302 83.758C108.021 84.0463 107.673 84.2717 107.258 84.4341C106.844 84.5932 106.378 84.6728 105.861 84.6728ZM113.692 84.6728C113.055 84.6728 112.493 84.512 112.006 84.1905C111.519 83.8657 111.138 83.4083 110.863 82.8184C110.588 82.2251 110.45 81.5241 110.45 80.7154C110.45 79.9133 110.588 79.2173 110.863 78.6273C111.138 78.0373 111.521 77.5816 112.011 77.2601C112.502 76.9386 113.068 76.7779 113.711 76.7779C114.209 76.7779 114.601 76.8607 114.89 77.0265C115.181 77.1889 115.403 77.3745 115.556 77.5833C115.712 77.7888 115.833 77.9578 115.919 78.0904H116.018V74.3319H117.192V84.5137H116.058V83.3404H115.919C115.833 83.4796 115.71 83.6552 115.551 83.8674C115.392 84.0762 115.165 84.2634 114.87 84.4292C114.575 84.5916 114.182 84.6728 113.692 84.6728ZM113.851 83.6188C114.321 83.6188 114.719 83.4962 115.044 83.2509C115.369 83.0023 115.616 82.6593 115.785 82.2218C115.954 81.781 116.038 81.2722 116.038 80.6955C116.038 80.1254 115.955 79.6266 115.79 79.199C115.624 78.7682 115.379 78.4334 115.054 78.1948C114.729 77.9528 114.328 77.8319 113.851 77.8319C113.353 77.8319 112.939 77.9595 112.608 78.2147C112.28 78.4666 112.033 78.8096 111.867 79.2438C111.705 79.6747 111.623 80.1586 111.623 80.6955C111.623 81.2391 111.706 81.7329 111.872 82.177C112.041 82.6178 112.29 82.9692 112.618 83.231C112.949 83.4895 113.36 83.6188 113.851 83.6188Z" fill="#151531"/>
<path d="M283.264 77.6387L279.514 81.3887L275.764 77.6387" stroke="black" stroke-width="1.5" stroke-linecap="round" stroke-linejoin="round"/>
</g>
<defs>
<filter id="filter0_dd_781_34359" x="0.000244141" y="0" width="322" height="324" filterUnits="userSpaceOnUse" color-interpolation-filters="sRGB">
<feFlood flood-opacity="0" result="BackgroundImageFix"/>
<feColorMatrix in="SourceAlpha" type="matrix" values="0 0 0 0 0 0 0 0 0 0 0 0 0 0 0 0 0 0 127 0" result="hardAlpha"/>
<feOffset/>
<feGaussianBlur stdDeviation="0.5"/>
<feColorMatrix type="matrix" values="0 0 0 0 0.0509804 0 0 0 0 0.0745098 0 0 0 0 0.105882 0 0 0 0.25 0"/>
<feBlend mode="normal" in2="BackgroundImageFix" result="effect1_dropShadow_781_34359"/>
<feColorMatrix in="SourceAlpha" type="matrix" values="0 0 0 0 0 0 0 0 0 0 0 0 0 0 0 0 0 0 127 0" result="hardAlpha"/>
<feOffset dy="2"/>
<feGaussianBlur stdDeviation="0.5"/>
<feColorMatrix type="matrix" values="0 0 0 0 0.0509804 0 0 0 0 0.0745098 0 0 0 0 0.105882 0 0 0 0.05 0"/>
<feBlend mode="normal" in2="effect1_dropShadow_781_34359" result="effect2_dropShadow_781_34359"/>
<feBlend mode="normal" in="SourceGraphic" in2="effect2_dropShadow_781_34359" result="shape"/>
</filter>
<filter id="filter1_dd_781_34359" x="23.5134" y="60.5137" width="274" height="40" filterUnits="userSpaceOnUse" color-interpolation-filters="sRGB">
<feFlood flood-opacity="0" result="BackgroundImageFix"/>
<feColorMatrix in="SourceAlpha" type="matrix" values="0 0 0 0 0 0 0 0 0 0 0 0 0 0 0 0 0 0 127 0" result="hardAlpha"/>
<feOffset/>
<feGaussianBlur stdDeviation="0.5"/>
<feColorMatrix type="matrix" values="0 0 0 0 0.0509804 0 0 0 0 0.0745098 0 0 0 0 0.105882 0 0 0 0.25 0"/>
<feBlend mode="normal" in2="BackgroundImageFix" result="effect1_dropShadow_781_34359"/>
<feColorMatrix in="SourceAlpha" type="matrix" values="0 0 0 0 0 0 0 0 0 0 0 0 0 0 0 0 0 0 127 0" result="hardAlpha"/>
<feOffset dy="2"/>
<feGaussianBlur stdDeviation="0.5"/>
<feColorMatrix type="matrix" values="0 0 0 0 0.0509804 0 0 0 0 0.0745098 0 0 0 0 0.105882 0 0 0 0.05 0"/>
<feBlend mode="normal" in2="effect1_dropShadow_781_34359" result="effect2_dropShadow_781_34359"/>
<feBlend mode="normal" in="SourceGraphic" in2="effect2_dropShadow_781_34359" result="shape"/>
</filter>
</defs>
</svg>
