<svg width="322" height="324" viewBox="0 0 322 324" fill="none" xmlns="http://www.w3.org/2000/svg">
<g id="Active users" filter="url(#filter0_dd_781_34230)">
<rect x="1" y="1" width="320" height="320" rx="20" fill="white"/>
<path id="Description" d="M35.9432 35.1477H34.1705C34.1023 34.7689 33.9754 34.4356 33.7898 34.1477C33.6042 33.8598 33.3769 33.6155 33.108 33.4148C32.839 33.214 32.5379 33.0625 32.2045 32.9602C31.875 32.858 31.5246 32.8068 31.1534 32.8068C30.483 32.8068 29.8826 32.9754 29.3523 33.3125C28.8258 33.6496 28.4091 34.1439 28.1023 34.7955C27.7992 35.447 27.6477 36.2424 27.6477 37.1818C27.6477 38.1288 27.7992 38.928 28.1023 39.5795C28.4091 40.2311 28.8277 40.7235 29.358 41.0568C29.8883 41.3902 30.4848 41.5568 31.1477 41.5568C31.5152 41.5568 31.8636 41.5076 32.1932 41.4091C32.5265 41.3068 32.8277 41.1572 33.0966 40.9602C33.3655 40.7633 33.5928 40.5227 33.7784 40.2386C33.9678 39.9508 34.0985 39.6212 34.1705 39.25L35.9432 39.2557C35.8485 39.8277 35.6648 40.3542 35.392 40.8352C35.1231 41.3125 34.7765 41.7254 34.3523 42.0739C33.9318 42.4186 33.4508 42.6856 32.9091 42.875C32.3674 43.0644 31.7765 43.1591 31.1364 43.1591C30.1288 43.1591 29.2311 42.9205 28.4432 42.4432C27.6553 41.9621 27.0341 41.2746 26.5795 40.3807C26.1288 39.4867 25.9034 38.4205 25.9034 37.1818C25.9034 35.9394 26.1307 34.8731 26.5852 33.983C27.0398 33.089 27.661 32.4034 28.4489 31.9261C29.2367 31.4451 30.1326 31.2045 31.1364 31.2045C31.7538 31.2045 32.3295 31.2936 32.8636 31.4716C33.4015 31.6458 33.8845 31.9034 34.3125 32.2443C34.7405 32.5814 35.0947 32.9943 35.375 33.483C35.6553 33.9678 35.8447 34.5227 35.9432 35.1477ZM41.5838 43.1761C40.7656 43.1761 40.0516 42.9886 39.4418 42.6136C38.8319 42.2386 38.3584 41.714 38.0213 41.0398C37.6842 40.3655 37.5156 39.5777 37.5156 38.6761C37.5156 37.7708 37.6842 36.9792 38.0213 36.3011C38.3584 35.6231 38.8319 35.0966 39.4418 34.7216C40.0516 34.3466 40.7656 34.1591 41.5838 34.1591C42.402 34.1591 43.116 34.3466 43.7259 34.7216C44.3357 35.0966 44.8092 35.6231 45.1463 36.3011C45.4834 36.9792 45.652 37.7708 45.652 38.6761C45.652 39.5777 45.4834 40.3655 45.1463 41.0398C44.8092 41.714 44.3357 42.2386 43.7259 42.6136C43.116 42.9886 42.402 43.1761 41.5838 43.1761ZM41.5895 41.75C42.1198 41.75 42.5592 41.6098 42.9077 41.3295C43.2562 41.0492 43.5137 40.6761 43.6804 40.2102C43.8509 39.7443 43.9361 39.2311 43.9361 38.6705C43.9361 38.1136 43.8509 37.6023 43.6804 37.1364C43.5137 36.6667 43.2562 36.2898 42.9077 36.0057C42.5592 35.7216 42.1198 35.5795 41.5895 35.5795C41.0554 35.5795 40.6122 35.7216 40.2599 36.0057C39.9115 36.2898 39.652 36.6667 39.4815 37.1364C39.3149 37.6023 39.2315 38.1136 39.2315 38.6705C39.2315 39.2311 39.3149 39.7443 39.4815 40.2102C39.652 40.6761 39.9115 41.0492 40.2599 41.3295C40.6122 41.6098 41.0554 41.75 41.5895 41.75ZM47.5483 43V34.2727H49.179V35.6932H49.2869C49.4688 35.2121 49.7661 34.8371 50.179 34.5682C50.5919 34.2955 51.0862 34.1591 51.6619 34.1591C52.2453 34.1591 52.7339 34.2955 53.1278 34.5682C53.5256 34.8409 53.8191 35.2159 54.0085 35.6932H54.0994C54.3078 35.2273 54.6392 34.8561 55.0938 34.5795C55.5483 34.2992 56.09 34.1591 56.7188 34.1591C57.5104 34.1591 58.1562 34.4072 58.6562 34.9034C59.16 35.3996 59.4119 36.1477 59.4119 37.1477V43H57.7131V37.3068C57.7131 36.7159 57.5521 36.2879 57.2301 36.0227C56.9081 35.7576 56.5237 35.625 56.0767 35.625C55.5237 35.625 55.0938 35.7955 54.7869 36.1364C54.4801 36.4735 54.3267 36.9072 54.3267 37.4375V43H52.6335V37.1989C52.6335 36.7254 52.4858 36.3447 52.1903 36.0568C51.8949 35.7689 51.5104 35.625 51.0369 35.625C50.715 35.625 50.4176 35.7102 50.1449 35.8807C49.8759 36.0473 49.6581 36.2803 49.4915 36.5795C49.3286 36.8788 49.2472 37.2254 49.2472 37.6193V43H47.5483ZM61.6889 46.2727V34.2727H63.348V35.6875H63.4901C63.5885 35.5057 63.7306 35.2955 63.9162 35.0568C64.1018 34.8182 64.3594 34.6098 64.6889 34.4318C65.0185 34.25 65.4541 34.1591 65.9957 34.1591C66.7003 34.1591 67.3291 34.3371 67.8821 34.6932C68.4351 35.0492 68.8688 35.5625 69.1832 36.233C69.5014 36.9034 69.6605 37.7102 69.6605 38.6534C69.6605 39.5966 69.5033 40.4053 69.1889 41.0795C68.8745 41.75 68.4427 42.267 67.8935 42.6307C67.3442 42.9905 66.7173 43.1705 66.0128 43.1705C65.4825 43.1705 65.0488 43.0814 64.7116 42.9034C64.3783 42.7254 64.117 42.517 63.9276 42.2784C63.7382 42.0398 63.5923 41.8277 63.4901 41.642H63.3878V46.2727H61.6889ZM63.3537 38.6364C63.3537 39.25 63.4427 39.7879 63.6207 40.25C63.7988 40.7121 64.0563 41.0739 64.3935 41.3352C64.7306 41.5928 65.1435 41.7216 65.6321 41.7216C66.1397 41.7216 66.5639 41.5871 66.9048 41.3182C67.2457 41.0455 67.5033 40.6761 67.6776 40.2102C67.8556 39.7443 67.9446 39.2197 67.9446 38.6364C67.9446 38.0606 67.8575 37.5436 67.6832 37.0852C67.5128 36.6269 67.2552 36.2652 66.9105 36C66.5696 35.7348 66.1435 35.6023 65.6321 35.6023C65.1397 35.6023 64.723 35.7292 64.3821 35.983C64.045 36.2367 63.7893 36.5909 63.6151 37.0455C63.4408 37.5 63.3537 38.0303 63.3537 38.6364ZM74.1037 43.1932C73.5507 43.1932 73.0507 43.0909 72.6037 42.8864C72.1567 42.678 71.8026 42.3769 71.5412 41.983C71.2836 41.589 71.1548 41.1061 71.1548 40.5341C71.1548 40.0417 71.2495 39.6364 71.4389 39.3182C71.6283 39 71.884 38.7481 72.206 38.5625C72.5279 38.3769 72.8878 38.2367 73.2855 38.142C73.6832 38.0473 74.0885 37.9754 74.5014 37.9261C75.0241 37.8655 75.4484 37.8163 75.7741 37.7784C76.0999 37.7367 76.3366 37.6705 76.4844 37.5795C76.6321 37.4886 76.706 37.3409 76.706 37.1364V37.0966C76.706 36.6004 76.5658 36.2159 76.2855 35.9432C76.009 35.6705 75.5961 35.5341 75.0469 35.5341C74.4749 35.5341 74.0241 35.661 73.6946 35.9148C73.3688 36.1648 73.1435 36.4432 73.0185 36.75L71.4219 36.3864C71.6113 35.8561 71.8878 35.428 72.2514 35.1023C72.6188 34.7727 73.0412 34.5341 73.5185 34.3864C73.9957 34.2348 74.4976 34.1591 75.0241 34.1591C75.3726 34.1591 75.742 34.2008 76.1321 34.2841C76.526 34.3636 76.8935 34.5114 77.2344 34.7273C77.5791 34.9432 77.8613 35.2519 78.081 35.6534C78.3007 36.0511 78.4105 36.5682 78.4105 37.2045V43H76.7514V41.8068H76.6832C76.5734 42.0265 76.4086 42.2424 76.1889 42.4545C75.9692 42.6667 75.687 42.8428 75.3423 42.983C74.9976 43.1231 74.5848 43.1932 74.1037 43.1932ZM74.473 41.8295C74.9427 41.8295 75.3442 41.7367 75.6776 41.5511C76.0147 41.3655 76.2704 41.1231 76.4446 40.8239C76.6226 40.5208 76.7116 40.197 76.7116 39.8523V38.7273C76.651 38.7879 76.5336 38.8447 76.3594 38.8977C76.1889 38.947 75.9938 38.9905 75.7741 39.0284C75.5545 39.0625 75.3404 39.0947 75.1321 39.125C74.9238 39.1515 74.7495 39.1742 74.6094 39.1932C74.2798 39.2348 73.9787 39.3049 73.706 39.4034C73.437 39.5019 73.2211 39.6439 73.0582 39.8295C72.8991 40.0114 72.8196 40.2538 72.8196 40.5568C72.8196 40.9773 72.9749 41.2955 73.2855 41.5114C73.5961 41.7235 73.992 41.8295 74.473 41.8295ZM82.3722 37.8182V43H80.6733V34.2727H82.304V35.6932H82.4119C82.6127 35.2311 82.9271 34.8598 83.3551 34.5795C83.7869 34.2992 84.3305 34.1591 84.9858 34.1591C85.5805 34.1591 86.1013 34.2841 86.5483 34.5341C86.9953 34.7803 87.3419 35.1477 87.5881 35.6364C87.8343 36.125 87.9574 36.7292 87.9574 37.4489V43H86.2585V37.6534C86.2585 37.0208 86.0938 36.5265 85.7642 36.1705C85.4347 35.8106 84.982 35.6307 84.4062 35.6307C84.0123 35.6307 83.6619 35.7159 83.3551 35.8864C83.0521 36.0568 82.8116 36.3068 82.6335 36.6364C82.4593 36.9621 82.3722 37.3561 82.3722 37.8182ZM90.9972 46.2727C90.7434 46.2727 90.5123 46.2519 90.304 46.2102C90.0956 46.1723 89.9403 46.1307 89.8381 46.0852L90.2472 44.6932C90.5578 44.7765 90.8343 44.8125 91.0767 44.8011C91.3191 44.7898 91.5331 44.6989 91.7188 44.5284C91.9081 44.358 92.0748 44.0795 92.2188 43.6932L92.429 43.1136L89.2358 34.2727H91.054L93.2642 41.0455H93.3551L95.5653 34.2727H97.3892L93.7926 44.1648C93.6259 44.6193 93.4138 45.0038 93.1562 45.3182C92.8987 45.6364 92.5919 45.875 92.2358 46.0341C91.8797 46.1932 91.4669 46.2727 90.9972 46.2727ZM103.22 43V34.2727H104.862V35.6591H104.953C105.112 35.1894 105.393 34.8201 105.794 34.5511C106.199 34.2784 106.658 34.142 107.169 34.142C107.275 34.142 107.4 34.1458 107.544 34.1534C107.692 34.161 107.807 34.1705 107.891 34.1818V35.8068C107.822 35.7879 107.701 35.767 107.527 35.7443C107.353 35.7178 107.179 35.7045 107.004 35.7045C106.603 35.7045 106.245 35.7898 105.93 35.9602C105.62 36.1269 105.374 36.3598 105.192 36.6591C105.01 36.9545 104.919 37.2917 104.919 37.6705V43H103.22ZM112.81 43.1761C111.95 43.1761 111.209 42.9924 110.588 42.625C109.971 42.2538 109.493 41.733 109.156 41.0625C108.823 40.3883 108.656 39.5985 108.656 38.6932C108.656 37.7992 108.823 37.0114 109.156 36.3295C109.493 35.6477 109.963 35.1155 110.565 34.733C111.171 34.3504 111.88 34.1591 112.69 34.1591C113.183 34.1591 113.66 34.2405 114.122 34.4034C114.584 34.5663 114.999 34.822 115.366 35.1705C115.734 35.5189 116.024 35.9716 116.236 36.5284C116.448 37.0814 116.554 37.7538 116.554 38.5455V39.1477H109.616V37.875H114.889C114.889 37.428 114.798 37.0322 114.616 36.6875C114.435 36.339 114.179 36.0644 113.849 35.8636C113.524 35.6629 113.141 35.5625 112.702 35.5625C112.224 35.5625 111.808 35.6799 111.452 35.9148C111.099 36.1458 110.827 36.4489 110.634 36.8239C110.444 37.1951 110.349 37.5985 110.349 38.0341V39.0284C110.349 39.6117 110.452 40.108 110.656 40.517C110.865 40.9261 111.154 41.2386 111.526 41.4545C111.897 41.6667 112.33 41.7727 112.827 41.7727C113.149 41.7727 113.442 41.7273 113.707 41.6364C113.973 41.5417 114.202 41.4015 114.395 41.2159C114.588 41.0303 114.736 40.8011 114.838 40.5284L116.446 40.8182C116.317 41.2917 116.086 41.7064 115.753 42.0625C115.423 42.4148 115.009 42.6894 114.509 42.8864C114.012 43.0795 113.446 43.1761 112.81 43.1761ZM122.513 34.2727V35.6364H117.746V34.2727H122.513ZM119.024 32.1818H120.723V40.4375C120.723 40.767 120.772 41.0152 120.871 41.1818C120.969 41.3447 121.096 41.4564 121.251 41.517C121.411 41.5739 121.583 41.6023 121.768 41.6023C121.905 41.6023 122.024 41.5928 122.126 41.5739C122.229 41.5549 122.308 41.5398 122.365 41.5284L122.672 42.9318C122.573 42.9697 122.433 43.0076 122.251 43.0455C122.07 43.0871 121.842 43.1098 121.57 43.1136C121.123 43.1212 120.706 43.0417 120.32 42.875C119.933 42.7083 119.621 42.4508 119.382 42.1023C119.143 41.7538 119.024 41.3163 119.024 40.7898V32.1818ZM128.06 43.1761C127.2 43.1761 126.459 42.9924 125.838 42.625C125.221 42.2538 124.743 41.733 124.406 41.0625C124.073 40.3883 123.906 39.5985 123.906 38.6932C123.906 37.7992 124.073 37.0114 124.406 36.3295C124.743 35.6477 125.213 35.1155 125.815 34.733C126.421 34.3504 127.13 34.1591 127.94 34.1591C128.433 34.1591 128.91 34.2405 129.372 34.4034C129.834 34.5663 130.249 34.822 130.616 35.1705C130.984 35.5189 131.274 35.9716 131.486 36.5284C131.698 37.0814 131.804 37.7538 131.804 38.5455V39.1477H124.866V37.875H130.139C130.139 37.428 130.048 37.0322 129.866 36.6875C129.685 36.339 129.429 36.0644 129.099 35.8636C128.774 35.6629 128.391 35.5625 127.952 35.5625C127.474 35.5625 127.058 35.6799 126.702 35.9148C126.349 36.1458 126.077 36.4489 125.884 36.8239C125.694 37.1951 125.599 37.5985 125.599 38.0341V39.0284C125.599 39.6117 125.702 40.108 125.906 40.517C126.115 40.9261 126.404 41.2386 126.776 41.4545C127.147 41.6667 127.58 41.7727 128.077 41.7727C128.399 41.7727 128.692 41.7273 128.957 41.6364C129.223 41.5417 129.452 41.4015 129.645 41.2159C129.838 41.0303 129.986 40.8011 130.088 40.5284L131.696 40.8182C131.567 41.2917 131.336 41.7064 131.003 42.0625C130.673 42.4148 130.259 42.6894 129.759 42.8864C129.262 43.0795 128.696 43.1761 128.06 43.1761ZM135.388 37.8182V43H133.689V34.2727H135.32V35.6932H135.428C135.628 35.2311 135.943 34.8598 136.371 34.5795C136.803 34.2992 137.346 34.1591 138.001 34.1591C138.596 34.1591 139.117 34.2841 139.564 34.5341C140.011 34.7803 140.357 35.1477 140.604 35.6364C140.85 36.125 140.973 36.7292 140.973 37.4489V43H139.274V37.6534C139.274 37.0208 139.109 36.5265 138.78 36.1705C138.45 35.8106 137.998 35.6307 137.422 35.6307C137.028 35.6307 136.678 35.7159 136.371 35.8864C136.068 36.0568 135.827 36.3068 135.649 36.6364C135.475 36.9621 135.388 37.3561 135.388 37.8182ZM147.325 34.2727V35.6364H142.558V34.2727H147.325ZM143.837 32.1818H145.536V40.4375C145.536 40.767 145.585 41.0152 145.683 41.1818C145.782 41.3447 145.909 41.4564 146.064 41.517C146.223 41.5739 146.395 41.6023 146.581 41.6023C146.717 41.6023 146.837 41.5928 146.939 41.5739C147.041 41.5549 147.121 41.5398 147.178 41.5284L147.484 42.9318C147.386 42.9697 147.246 43.0076 147.064 43.0455C146.882 43.0871 146.655 43.1098 146.382 43.1136C145.935 43.1212 145.518 43.0417 145.132 42.875C144.746 42.7083 144.433 42.4508 144.195 42.1023C143.956 41.7538 143.837 41.3163 143.837 40.7898V32.1818ZM149.205 43V34.2727H150.903V43H149.205ZM150.062 32.9261C149.767 32.9261 149.513 32.8277 149.301 32.6307C149.093 32.4299 148.989 32.1913 148.989 31.9148C148.989 31.6345 149.093 31.3958 149.301 31.1989C149.513 30.9981 149.767 30.8977 150.062 30.8977C150.358 30.8977 150.61 30.9981 150.818 31.1989C151.03 31.3958 151.136 31.6345 151.136 31.9148C151.136 32.1913 151.03 32.4299 150.818 32.6307C150.61 32.8277 150.358 32.9261 150.062 32.9261ZM156.865 43.1761C156.047 43.1761 155.333 42.9886 154.723 42.6136C154.113 42.2386 153.64 41.714 153.303 41.0398C152.965 40.3655 152.797 39.5777 152.797 38.6761C152.797 37.7708 152.965 36.9792 153.303 36.3011C153.64 35.6231 154.113 35.0966 154.723 34.7216C155.333 34.3466 156.047 34.1591 156.865 34.1591C157.683 34.1591 158.397 34.3466 159.007 34.7216C159.617 35.0966 160.09 35.6231 160.428 36.3011C160.765 36.9792 160.933 37.7708 160.933 38.6761C160.933 39.5777 160.765 40.3655 160.428 41.0398C160.09 41.714 159.617 42.2386 159.007 42.6136C158.397 42.9886 157.683 43.1761 156.865 43.1761ZM156.871 41.75C157.401 41.75 157.84 41.6098 158.189 41.3295C158.537 41.0492 158.795 40.6761 158.962 40.2102C159.132 39.7443 159.217 39.2311 159.217 38.6705C159.217 38.1136 159.132 37.6023 158.962 37.1364C158.795 36.6667 158.537 36.2898 158.189 36.0057C157.84 35.7216 157.401 35.5795 156.871 35.5795C156.337 35.5795 155.893 35.7216 155.541 36.0057C155.193 36.2898 154.933 36.6667 154.763 37.1364C154.596 37.6023 154.513 38.1136 154.513 38.6705C154.513 39.2311 154.596 39.7443 154.763 40.2102C154.933 40.6761 155.193 41.0492 155.541 41.3295C155.893 41.6098 156.337 41.75 156.871 41.75ZM164.528 37.8182V43H162.83V34.2727H164.46V35.6932H164.568C164.769 35.2311 165.083 34.8598 165.511 34.5795C165.943 34.2992 166.487 34.1591 167.142 34.1591C167.737 34.1591 168.258 34.2841 168.705 34.5341C169.152 34.7803 169.498 35.1477 169.744 35.6364C169.991 36.125 170.114 36.7292 170.114 37.4489V43H168.415V37.6534C168.415 37.0208 168.25 36.5265 167.92 36.1705C167.591 35.8106 167.138 35.6307 166.562 35.6307C166.169 35.6307 165.818 35.7159 165.511 35.8864C165.208 36.0568 164.968 36.3068 164.79 36.6364C164.616 36.9621 164.528 37.3561 164.528 37.8182Z" fill="#0D131B"/>
<path id="Number" d="M36.1605 94.358C34.5582 94.358 33.1179 94.0511 31.8395 93.4375C30.5696 92.8153 29.5554 91.9631 28.7969 90.8807C28.0384 89.7983 27.6335 88.5625 27.5824 87.1733H31.4176C31.5114 88.2983 32.0099 89.223 32.9134 89.9474C33.8168 90.6719 34.8991 91.0341 36.1605 91.0341C37.1662 91.0341 38.0568 90.804 38.8324 90.3438C39.6165 89.875 40.2301 89.2315 40.6733 88.4134C41.125 87.5952 41.3509 86.6619 41.3509 85.6136C41.3509 84.5483 41.1207 83.598 40.6605 82.7628C40.2003 81.9276 39.5653 81.2713 38.7557 80.794C37.9545 80.3168 37.0341 80.0739 35.9943 80.0653C35.2017 80.0653 34.4048 80.2017 33.6037 80.4744C32.8026 80.7472 32.1548 81.1051 31.6605 81.5483L28.0426 81.0114L29.5128 67.8182H43.9077V71.206H32.7983L31.9673 78.5312H32.1207C32.6321 78.0369 33.3097 77.6236 34.1534 77.2912C35.0057 76.9588 35.9176 76.7926 36.8892 76.7926C38.483 76.7926 39.902 77.1719 41.1463 77.9304C42.3991 78.6889 43.3835 79.7244 44.0994 81.0369C44.8239 82.3409 45.1818 83.8409 45.1733 85.5369C45.1818 87.233 44.7983 88.7457 44.0227 90.0753C43.2557 91.4048 42.1903 92.4531 40.8267 93.2202C39.4716 93.9787 37.9162 94.358 36.1605 94.358ZM58.9577 94.4347C56.9379 94.4261 55.212 93.8935 53.7802 92.8366C52.3484 91.7798 51.2532 90.2415 50.4947 88.2216C49.7362 86.2017 49.3569 83.7685 49.3569 80.9219C49.3569 78.0838 49.7362 75.6591 50.4947 73.6477C51.2617 71.6364 52.3612 70.1023 53.793 69.0455C55.2333 67.9886 56.9549 67.4602 58.9577 67.4602C60.9606 67.4602 62.6779 67.9929 64.1097 69.0582C65.5415 70.1151 66.6367 71.6491 67.3952 73.6605C68.1623 75.6634 68.5458 78.0838 68.5458 80.9219C68.5458 83.777 68.1665 86.2145 67.408 88.2344C66.6495 90.2457 65.5543 91.7841 64.1225 92.8494C62.6907 93.9063 60.9691 94.4347 58.9577 94.4347ZM58.9577 91.0213C60.7305 91.0213 62.1154 90.1562 63.1126 88.4261C64.1183 86.696 64.6211 84.1946 64.6211 80.9219C64.6211 78.7486 64.391 76.9119 63.9308 75.4119C63.479 73.9034 62.8271 72.7614 61.9748 71.9858C61.131 71.2017 60.1254 70.8097 58.9577 70.8097C57.1935 70.8097 55.8086 71.679 54.8029 73.4176C53.7972 75.1562 53.2901 77.6577 53.2816 80.9219C53.2816 83.1037 53.5075 84.9489 53.9592 86.4574C54.4194 87.9574 55.0714 89.0952 55.9151 89.8707C56.7589 90.6378 57.7731 91.0213 58.9577 91.0213ZM86.7472 89.0909V87.7102C86.7472 86.7216 86.9517 85.8182 87.3608 85C87.7784 84.1733 88.3835 83.5128 89.1761 83.0185C89.9773 82.5156 90.9446 82.2642 92.0781 82.2642C93.2372 82.2642 94.2088 82.5114 94.9929 83.0057C95.777 83.5 96.3693 84.1605 96.7699 84.9872C97.179 85.8139 97.3835 86.7216 97.3835 87.7102V89.0909C97.3835 90.0795 97.179 90.9872 96.7699 91.8139C96.3608 92.6321 95.7599 93.2926 94.9673 93.7955C94.1832 94.2898 93.2202 94.5369 92.0781 94.5369C90.9276 94.5369 89.956 94.2898 89.1634 93.7955C88.3707 93.2926 87.7699 92.6321 87.3608 91.8139C86.9517 90.9872 86.7472 90.0795 86.7472 89.0909ZM89.7259 87.7102V89.0909C89.7259 89.8239 89.9006 90.4886 90.25 91.0852C90.5994 91.6818 91.2088 91.9801 92.0781 91.9801C92.9389 91.9801 93.5398 91.6818 93.8807 91.0852C94.2216 90.4886 94.392 89.8239 94.392 89.0909V87.7102C94.392 86.9773 94.2259 86.3125 93.8935 85.7159C93.5696 85.1193 92.9645 84.821 92.0781 84.821C91.2259 84.821 90.6207 85.1193 90.2628 85.7159C89.9048 86.3125 89.7259 86.9773 89.7259 87.7102ZM73.5795 74.108V72.7273C73.5795 71.7386 73.7841 70.831 74.1932 70.0043C74.6108 69.1776 75.2159 68.517 76.0085 68.0227C76.8097 67.5284 77.777 67.2812 78.9105 67.2812C80.0696 67.2812 81.0412 67.5284 81.8253 68.0227C82.6094 68.517 83.2017 69.1776 83.6023 70.0043C84.0028 70.831 84.2031 71.7386 84.2031 72.7273V74.108C84.2031 75.0966 83.9986 76.0043 83.5895 76.831C83.1889 77.6491 82.5923 78.3097 81.7997 78.8125C81.0156 79.3068 80.0526 79.554 78.9105 79.554C77.7514 79.554 76.7756 79.3068 75.983 78.8125C75.1989 78.3097 74.6023 77.6491 74.1932 76.831C73.7841 76.0043 73.5795 75.0966 73.5795 74.108ZM76.571 72.7273V74.108C76.571 74.8409 76.7415 75.5057 77.0824 76.1023C77.4318 76.6989 78.0412 76.9972 78.9105 76.9972C79.7628 76.9972 80.3594 76.6989 80.7003 76.1023C81.0497 75.5057 81.2244 74.8409 81.2244 74.108V72.7273C81.2244 71.9943 81.0582 71.3295 80.7259 70.733C80.3935 70.1364 79.7884 69.8381 78.9105 69.8381C78.0582 69.8381 77.4531 70.1364 77.0952 70.733C76.7457 71.3295 76.571 71.9943 76.571 72.7273ZM74.794 94L92.794 67.8182H95.8494L77.8494 94H74.794Z" fill="#0D131B"/>
<g id="Group 2793">
<g id="Group 2596">
<g id="Group 2590">
<g id="Group 2584">
<rect id="Rectangle 1391" x="25" y="284.131" width="36" height="12.8696" rx="2" fill="#6868F7"/>
<rect id="Rectangle 1392" x="25" y="269.116" width="36" height="12.8696" rx="2" fill="#6868F7"/>
<rect id="Rectangle 1393" x="25" y="254.102" width="36" height="12.8696" rx="2" fill="#6868F7"/>
<rect id="Rectangle 1394" x="25" y="239.087" width="36" height="12.8696" rx="2" fill="#6868F7"/>
<rect id="Rectangle 1395" x="25" y="224.073" width="36" height="12.8696" rx="2" fill="#6868F7"/>
<rect id="Rectangle 1396" x="25" y="209.058" width="36" height="12.8696" rx="2" fill="#6868F7"/>
<rect id="Rectangle 1397" x="25" y="194.043" width="36" height="12.8696" rx="2" fill="#6868F7"/>
<rect id="Rectangle 1398" x="25" y="179.029" width="36" height="12.8696" rx="2" fill="#6868F7"/>
<rect id="Rectangle 1399" x="25" y="164.015" width="36" height="12.8696" rx="2" fill="#6868F7"/>
<rect id="Rectangle 1400" x="25" y="149" width="36" height="12.8696" rx="2" fill="#6868F7"/>
</g>
</g>
</g>
<g id="Group 2598">
<g id="Group 2590_2">
<g id="Group 2584_2">
<rect id="Rectangle 1391_2" x="72" y="284.13" width="36" height="12.8692" rx="2" fill="#8686F9"/>
<rect id="Rectangle 1392_2" x="72" y="269.116" width="36" height="12.8692" rx="2" fill="#8686F9"/>
<rect id="Rectangle 1393_2" x="72" y="254.102" width="36" height="12.8692" rx="2" fill="#8686F9"/>
<rect id="Rectangle 1394_2" x="72" y="239.087" width="36" height="12.8692" rx="2" fill="#8686F9"/>
<rect id="Rectangle 1395_2" x="72" y="224.073" width="36" height="12.8692" rx="2" fill="#A4A4FA"/>
<rect id="Rectangle 1396_2" x="72" y="209.058" width="36" height="12.8692" rx="2" fill="#8686F9"/>
<rect id="Rectangle 1397_2" x="72" y="194.043" width="36" height="12.8692" rx="2" fill="#8686F9"/>
<rect id="Rectangle 1398_2" x="72" y="179.029" width="36" height="12.8692" rx="2" fill="#8686F9"/>
<rect id="Rectangle 1399_2" x="72" y="164.015" width="36" height="12.8692" rx="2" fill="#C3C3FC"/>
</g>
</g>
</g>
<g id="Group 3353">
<g id="Group 2599">
<g id="Group 2590_3">
<g id="Group 2584_3">
<rect id="Rectangle 1391_3" x="119" y="284.13" width="36" height="12.8692" rx="2" fill="#8686F9"/>
</g>
</g>
</g>
<g id="Group 2795">
<g id="Group 2590_4">
<g id="Group 2584_4">
<rect id="Rectangle 1391_4" x="119" y="269.116" width="36" height="12.8692" rx="2" fill="#A4A4FA"/>
</g>
</g>
</g>
<g id="Group 2796">
<g id="Group 2590_5">
<g id="Group 2584_5">
<rect id="Rectangle 1391_5" x="119" y="254.102" width="36" height="12.8692" rx="2" fill="#A4A4FA"/>
</g>
</g>
</g>
<g id="Group 2797">
<g id="Group 2590_6">
<g id="Group 2584_6">
<rect id="Rectangle 1391_6" x="119" y="239.087" width="36" height="12.8692" rx="2" fill="#A4A4FA"/>
</g>
</g>
</g>
<g id="Group 2798">
<g id="Group 2590_7">
<g id="Group 2584_7">
<rect id="Rectangle 1391_7" x="119" y="224.073" width="36" height="12.8692" rx="2" fill="#8686F9"/>
</g>
</g>
</g>
<g id="Group 2799">
<g id="Group 2590_8">
<g id="Group 2584_8">
<rect id="Rectangle 1391_8" x="119" y="209.058" width="36" height="12.8692" rx="2" fill="#A4A4FA"/>
</g>
</g>
</g>
<g id="Group 2800">
<g id="Group 2590_9">
<g id="Group 2584_9">
<rect id="Rectangle 1391_9" x="119" y="194.043" width="36" height="12.8692" rx="2" fill="#8686F9"/>
</g>
</g>
</g>
<g id="Group 2801">
<g id="Group 2590_10">
<g id="Group 2584_10">
<rect id="Rectangle 1391_10" x="119" y="179.029" width="36" height="12.8692" rx="2" fill="#C3C3FC"/>
</g>
</g>
</g>
</g>
<g id="Group 2600">
<g id="Group 2590_11">
<g id="Group 2584_11">
<rect id="Rectangle 1391_11" x="166" y="284.131" width="36" height="12.8692" rx="2" fill="#C3C3FC"/>
<rect id="Rectangle 1392_3" x="166" y="269.116" width="36" height="12.8692" rx="2" fill="#8686F9"/>
<rect id="Rectangle 1393_3" x="166" y="254.102" width="36" height="12.8692" rx="2" fill="#C3C3FC"/>
<rect id="Rectangle 1394_3" x="166" y="239.087" width="36" height="12.8692" rx="2" fill="#8686F9"/>
<rect id="Rectangle 1395_3" x="166" y="224.073" width="36" height="12.8692" rx="2" fill="#8686F9"/>
<rect id="Rectangle 1396_3" x="166" y="209.058" width="36" height="12.8692" rx="2" fill="#8686F9"/>
<rect id="Rectangle 1397_3" x="166" y="194.043" width="36" height="12.8692" rx="2" fill="#C3C3FC"/>
</g>
</g>
</g>
<g id="Group 3352">
<g id="Group 2601">
<g id="Group 2590_12">
<g id="Group 2584_12">
<rect id="Rectangle 1391_12" x="213" y="284.13" width="36" height="12.8692" rx="2" fill="#8686F9"/>
</g>
</g>
</g>
<g id="Group 2802">
<g id="Group 2590_13">
<g id="Group 2584_13">
<rect id="Rectangle 1391_13" x="213" y="269.116" width="36" height="12.8692" rx="2" fill="#E1E1FD"/>
</g>
</g>
</g>
<g id="Group 2803">
<g id="Group 2590_14">
<g id="Group 2584_14">
<rect id="Rectangle 1391_14" x="213" y="254.102" width="36" height="12.8692" rx="2" fill="#8686F9"/>
</g>
</g>
</g>
<g id="Group 2804">
<g id="Group 2590_15">
<g id="Group 2584_15">
<rect id="Rectangle 1391_15" x="213" y="239.087" width="36" height="12.8692" rx="2" fill="#C3C3FC"/>
</g>
</g>
</g>
<g id="Group 2805">
<g id="Group 2590_16">
<g id="Group 2584_16">
<rect id="Rectangle 1391_16" x="213" y="224.073" width="36" height="12.8692" rx="2" fill="#8686F9"/>
</g>
</g>
</g>
<g id="Group 2806">
<g id="Group 2590_17">
<g id="Group 2584_17">
<rect id="Rectangle 1391_17" x="213" y="209.058" width="36" height="12.8692" rx="2" fill="#C3C3FC"/>
</g>
</g>
</g>
</g>
<g id="Group 2597">
<g id="Group 2590_18">
<g id="Group 2584_18">
<rect id="Rectangle 1391_18" x="261" y="284.131" width="36" height="12.8692" rx="2" fill="#F0F0FE"/>
<rect id="Rectangle 1392_4" x="261" y="269.116" width="36" height="12.8692" rx="2" fill="#F0F0FE"/>
<rect id="Rectangle 1393_4" x="261" y="254.102" width="36" height="12.8692" rx="2" fill="#F0F0FE"/>
<rect id="Rectangle 1394_4" x="261" y="239.087" width="36" height="12.8692" rx="2" fill="#F0F0FE"/>
<rect id="Rectangle 1395_4" x="261" y="224.073" width="36" height="12.8692" rx="2" fill="#F0F0FE"/>
</g>
</g>
</g>
</g>
</g>
<defs>
<filter id="filter0_dd_781_34230" x="0" y="0" width="322" height="324" filterUnits="userSpaceOnUse" color-interpolation-filters="sRGB">
<feFlood flood-opacity="0" result="BackgroundImageFix"/>
<feColorMatrix in="SourceAlpha" type="matrix" values="0 0 0 0 0 0 0 0 0 0 0 0 0 0 0 0 0 0 127 0" result="hardAlpha"/>
<feOffset/>
<feGaussianBlur stdDeviation="0.5"/>
<feColorMatrix type="matrix" values="0 0 0 0 0.0509804 0 0 0 0 0.0745098 0 0 0 0 0.105882 0 0 0 0.25 0"/>
<feBlend mode="normal" in2="BackgroundImageFix" result="effect1_dropShadow_781_34230"/>
<feColorMatrix in="SourceAlpha" type="matrix" values="0 0 0 0 0 0 0 0 0 0 0 0 0 0 0 0 0 0 127 0" result="hardAlpha"/>
<feOffset dy="2"/>
<feGaussianBlur stdDeviation="0.5"/>
<feColorMatrix type="matrix" values="0 0 0 0 0.0509804 0 0 0 0 0.0745098 0 0 0 0 0.105882 0 0 0 0.05 0"/>
<feBlend mode="normal" in2="effect1_dropShadow_781_34230" result="effect2_dropShadow_781_34230"/>
<feBlend mode="normal" in="SourceGraphic" in2="effect2_dropShadow_781_34230" result="shape"/>
</filter>
</defs>
</svg>
