<svg width="962" height="394" viewBox="0 -1 962 394" fill="none" xmlns="http://www.w3.org/2000/svg">
<g id="DAU">
<g id="BG" filter="url(#filter0_dd_781_34167)">
<path d="M1 21C1 9.9543 9.95431 1 21 1H941C952.046 1 961 9.95431 961 21V391H1V21Z" fill="white"/>
</g>
<g id="Group 260">
<g id="Grid">
<g clip-path="url(#clip0_781_34167)">
<g id="Group 4704">
<g id="row">
<line id="Line 38" y1="-0.5" x2="373" y2="-0.5" transform="matrix(3.58943e-08 1 1 -5.32307e-08 758.99 122)" stroke="#DEE2E6" stroke-dasharray="4 4"/>
</g>
<g id="row_2">
<line id="Line 38_2" y1="-0.5" x2="373" y2="-0.5" transform="matrix(3.58943e-08 1 1 -5.32307e-08 843.994 122)" stroke="#DEE2E6" stroke-dasharray="4 4"/>
</g>
<g id="row_3">
<line id="Line 38_3" y1="-0.5" x2="373" y2="-0.5" transform="matrix(3.58943e-08 1 1 -5.32307e-08 673.038 122)" stroke="#DEE2E6" stroke-dasharray="4 4"/>
</g>
<g id="row_4">
<line id="Line 38_4" y1="-0.5" x2="373" y2="-0.5" transform="matrix(3.58943e-08 1 1 -5.32307e-08 588.978 122)" stroke="#DEE2E6" stroke-dasharray="4 4"/>
</g>
<g id="row_5">
<line id="Line 38_5" y1="-0.5" x2="373" y2="-0.5" transform="matrix(3.58943e-08 1 1 -5.32307e-08 503.027 122)" stroke="#DEE2E6" stroke-dasharray="4 4"/>
</g>
<g id="row_6">
<line id="Line 38_6" y1="-0.5" x2="373" y2="-0.5" transform="matrix(3.58943e-08 1 1 -5.32307e-08 418.022 122)" stroke="#DEE2E6" stroke-dasharray="4 4"/>
</g>
<g id="row_7">
<line id="Line 38_7" y1="-0.5" x2="373" y2="-0.5" transform="matrix(3.82474e-08 1 1 -4.99558e-08 335.023 122)" stroke="#DEE2E6" stroke-dasharray="4 4"/>
</g>
<g id="row_8">
<line id="Line 38_8" y1="-0.5" x2="373" y2="-0.5" transform="matrix(3.82474e-08 1 1 -4.99558e-08 248.72 122)" stroke="#DEE2E6" stroke-dasharray="4 4"/>
</g>
<g id="row_9">
<line id="Line 38_9" y1="-0.5" x2="373" y2="-0.5" transform="matrix(3.82474e-08 1 1 -4.99558e-08 163.324 122)" stroke="#DEE2E6" stroke-dasharray="4 4"/>
</g>
<g id="lines">
<line id="Line" y1="-0.5" x2="851" y2="-0.5" transform="matrix(-1 0 0 1 929 345.8)" stroke="#E9ECEF"/>
<line id="Line_2" y1="-0.5" x2="851" y2="-0.5" transform="matrix(-1 0 0 1 929 271.2)" stroke="#E9ECEF"/>
<line id="Line_3" y1="-0.5" x2="851" y2="-0.5" transform="matrix(-1 0 0 1 929 196.6)" stroke="#E9ECEF"/>
</g>
<g id="graphs">
<path id="glare" d="M141.704 131H78.9219V447H929.078L928.577 299.475L882.171 278.869C856.616 267.521 828.966 261.658 801.005 261.658H783.635C767.121 261.658 750.684 263.914 734.78 268.362L719.803 272.551C689.57 281.007 657.353 278.851 628.516 266.441C602.736 255.347 574.177 252.417 546.682 258.045L537.928 259.837C516.361 264.252 494.131 264.328 472.534 260.06L418.584 249.4L385.918 241.676C352.484 233.771 321.651 217.386 296.389 194.101L288.014 186.381C262.291 162.67 230.797 146.122 196.678 138.388L185.918 135.949C171.41 132.66 156.58 131 141.704 131Z" fill="url(#paint0_linear_781_34167)" fill-opacity="0.1"/>
<path id="line" d="M78 131H140.766C155.652 131 170.49 132.662 185.007 135.954L195.736 138.388C229.865 146.129 261.366 162.69 287.091 186.417L295.459 194.135C320.721 217.435 351.562 233.833 385.006 241.746L417.654 249.47L471.602 260.136C493.198 264.406 515.428 264.33 536.995 259.913L545.745 258.121C573.241 252.489 601.802 255.421 627.58 266.521V266.521C656.415 278.937 688.635 281.095 718.868 272.634L733.842 268.443C749.745 263.992 766.182 261.736 782.696 261.736H798.992C827.644 261.736 855.961 267.892 882.027 279.787L927.624 300.596" stroke="#6868F7" stroke-width="2"/>
</g>
</g>
</g>
<path d="M930 130C930 125.029 925.971 121 921 121H86C81.0294 121 77 125.029 77 130H79C79 126.134 82.134 123 86 123H921C924.866 123 928 126.134 928 130H930ZM78 391H929H78ZM930 391V130C930 125.029 925.971 121 921 121V123C924.866 123 928 126.134 928 130V391H930ZM86 121C81.0294 121 77 125.029 77 130V391H79V130C79 126.134 82.134 123 86 123V121Z" fill="#E9ECEF" mask="url(#path-2-inside-1_781_34167)"/>
</g>
<circle id="Ellipse 51" cx="335" cy="222" r="7" fill="white" stroke="#6868F7" stroke-width="2"/>
<g id="Group 4619">
<g id="Rectangle 7366" filter="url(#filter1_dd_781_34167)">
<rect x="161" y="230" width="174" height="128" rx="20" fill="#0D131B"/>
</g>
<g id="Rectangle 7367" filter="url(#filter2_dd_781_34167)">
<rect x="177" y="306" width="142" height="36" rx="8" fill="#343A40"/>
</g>
<path id="Titre " d="M180.082 263L177.298 252.818H178.551L180.679 261.111H180.778L182.946 252.818H184.338L186.506 261.111H186.605L188.733 252.818H189.986L187.202 263H185.929L183.682 254.886H183.602L181.355 263H180.082ZM190.626 260.912V259.898L195.1 252.818H195.836V254.389H195.339L191.958 259.739V259.818H197.984V260.912H190.626ZM195.419 263V260.604V260.131V252.818H196.592V263H195.419Z" fill="#868E96"/>
<path id="Titre _2" d="M178.372 287L182.926 277.991V277.912H177.676V276.818H184.199V277.972L179.665 287H178.372ZM189.097 287.139C188.514 287.139 187.988 287.023 187.521 286.791C187.054 286.559 186.679 286.241 186.398 285.837C186.116 285.432 185.962 284.972 185.935 284.455H187.128C187.175 284.915 187.384 285.296 187.755 285.598C188.129 285.896 188.577 286.045 189.097 286.045C189.515 286.045 189.886 285.948 190.211 285.752C190.539 285.557 190.796 285.288 190.981 284.947C191.17 284.602 191.265 284.213 191.265 283.778C191.265 283.334 191.167 282.938 190.971 282.59C190.779 282.239 190.514 281.962 190.176 281.76C189.838 281.558 189.452 281.455 189.018 281.452C188.706 281.448 188.386 281.496 188.058 281.596C187.73 281.692 187.46 281.816 187.248 281.969L186.094 281.83L186.711 276.818H192.001V277.912H187.745L187.387 280.915H187.447C187.655 280.749 187.917 280.612 188.232 280.502C188.547 280.393 188.875 280.338 189.216 280.338C189.84 280.338 190.395 280.487 190.882 280.786C191.372 281.08 191.757 281.485 192.035 281.999C192.317 282.512 192.458 283.099 192.458 283.759C192.458 284.408 192.312 284.988 192.02 285.499C191.732 286.006 191.334 286.407 190.827 286.702C190.32 286.993 189.743 287.139 189.097 287.139ZM199.623 285.091V284.554C199.623 284.183 199.699 283.843 199.852 283.535C200.008 283.223 200.233 282.975 200.528 282.789C200.826 282.6 201.188 282.506 201.612 282.506C202.043 282.506 202.404 282.6 202.696 282.789C202.987 282.975 203.208 283.223 203.357 283.535C203.506 283.843 203.581 284.183 203.581 284.554V285.091C203.581 285.462 203.504 285.804 203.352 286.115C203.203 286.423 202.981 286.672 202.686 286.861C202.394 287.046 202.036 287.139 201.612 287.139C201.181 287.139 200.818 287.046 200.523 286.861C200.228 286.672 200.004 286.423 199.852 286.115C199.699 285.804 199.623 285.462 199.623 285.091ZM200.637 284.554V285.091C200.637 285.399 200.71 285.676 200.856 285.921C201.002 286.163 201.254 286.284 201.612 286.284C201.96 286.284 202.205 286.163 202.348 285.921C202.493 285.676 202.566 285.399 202.566 285.091V284.554C202.566 284.246 202.497 283.971 202.358 283.729C202.218 283.483 201.97 283.361 201.612 283.361C201.264 283.361 201.014 283.483 200.861 283.729C200.712 283.971 200.637 284.246 200.637 284.554ZM194.552 279.264V278.727C194.552 278.356 194.628 278.016 194.781 277.708C194.937 277.397 195.162 277.148 195.457 276.962C195.755 276.773 196.117 276.679 196.541 276.679C196.972 276.679 197.333 276.773 197.625 276.962C197.916 277.148 198.137 277.397 198.286 277.708C198.435 278.016 198.51 278.356 198.51 278.727V279.264C198.51 279.635 198.433 279.977 198.281 280.288C198.132 280.597 197.91 280.845 197.615 281.034C197.323 281.22 196.965 281.312 196.541 281.312C196.11 281.312 195.747 281.22 195.452 281.034C195.157 280.845 194.933 280.597 194.781 280.288C194.628 279.977 194.552 279.635 194.552 279.264ZM195.566 278.727V279.264C195.566 279.572 195.639 279.849 195.785 280.094C195.931 280.336 196.183 280.457 196.541 280.457C196.889 280.457 197.134 280.336 197.277 280.094C197.422 279.849 197.495 279.572 197.495 279.264V278.727C197.495 278.419 197.426 278.144 197.287 277.902C197.147 277.657 196.899 277.534 196.541 277.534C196.193 277.534 195.943 277.657 195.79 277.902C195.641 278.144 195.566 278.419 195.566 278.727ZM194.93 287L201.93 276.818H203.064L196.064 287H194.93ZM209.765 287V279.364H210.899V280.517H210.978C211.118 280.139 211.369 279.833 211.734 279.597C212.099 279.362 212.51 279.244 212.967 279.244C213.053 279.244 213.161 279.246 213.29 279.249C213.419 279.253 213.517 279.258 213.583 279.264V280.457C213.544 280.447 213.453 280.433 213.31 280.413C213.171 280.389 213.023 280.378 212.868 280.378C212.496 280.378 212.165 280.456 211.873 280.612C211.585 280.764 211.356 280.976 211.187 281.248C211.021 281.516 210.939 281.823 210.939 282.168V287H209.765ZM217.944 287.159C217.208 287.159 216.573 286.997 216.039 286.672C215.509 286.344 215.1 285.886 214.811 285.3C214.526 284.71 214.384 284.024 214.384 283.241C214.384 282.459 214.526 281.77 214.811 281.173C215.1 280.573 215.501 280.106 216.015 279.771C216.532 279.433 217.135 279.264 217.824 279.264C218.222 279.264 218.615 279.33 219.002 279.463C219.39 279.596 219.743 279.811 220.061 280.109C220.38 280.404 220.633 280.795 220.822 281.283C221.011 281.77 221.105 282.37 221.105 283.082V283.58H215.219V282.565H219.912C219.912 282.134 219.826 281.75 219.654 281.412C219.485 281.074 219.243 280.807 218.928 280.612C218.616 280.416 218.248 280.318 217.824 280.318C217.357 280.318 216.953 280.434 216.611 280.666C216.273 280.895 216.013 281.193 215.831 281.561C215.648 281.929 215.557 282.323 215.557 282.744V283.42C215.557 283.997 215.657 284.486 215.855 284.887C216.058 285.285 216.338 285.588 216.696 285.797C217.054 286.002 217.47 286.105 217.944 286.105C218.252 286.105 218.53 286.062 218.779 285.976C219.031 285.886 219.248 285.754 219.43 285.578C219.612 285.399 219.753 285.177 219.853 284.912L220.986 285.23C220.867 285.615 220.666 285.953 220.385 286.244C220.103 286.533 219.755 286.758 219.341 286.92C218.926 287.08 218.461 287.159 217.944 287.159ZM226.211 279.364V280.358H222.254V279.364H226.211ZM223.407 277.534H224.581V284.812C224.581 285.144 224.629 285.393 224.725 285.558C224.824 285.721 224.95 285.83 225.103 285.886C225.258 285.939 225.422 285.966 225.595 285.966C225.724 285.966 225.83 285.959 225.913 285.946C225.996 285.929 226.062 285.916 226.112 285.906L226.35 286.96C226.271 286.99 226.16 287.02 226.017 287.05C225.875 287.083 225.694 287.099 225.475 287.099C225.144 287.099 224.819 287.028 224.501 286.886C224.186 286.743 223.924 286.526 223.716 286.234C223.51 285.943 223.407 285.575 223.407 285.131V277.534ZM231.096 287.159C230.36 287.159 229.725 286.997 229.192 286.672C228.661 286.344 228.252 285.886 227.964 285.3C227.679 284.71 227.536 284.024 227.536 283.241C227.536 282.459 227.679 281.77 227.964 281.173C228.252 280.573 228.653 280.106 229.167 279.771C229.684 279.433 230.287 279.264 230.977 279.264C231.374 279.264 231.767 279.33 232.155 279.463C232.543 279.596 232.896 279.811 233.214 280.109C233.532 280.404 233.786 280.795 233.974 281.283C234.163 281.77 234.258 282.37 234.258 283.082V283.58H228.371V282.565H233.065C233.065 282.134 232.978 281.75 232.806 281.412C232.637 281.074 232.395 280.807 232.08 280.612C231.769 280.416 231.401 280.318 230.977 280.318C230.509 280.318 230.105 280.434 229.763 280.666C229.425 280.895 229.165 281.193 228.983 281.561C228.801 281.929 228.71 282.323 228.71 282.744V283.42C228.71 283.997 228.809 284.486 229.008 284.887C229.21 285.285 229.49 285.588 229.848 285.797C230.206 286.002 230.622 286.105 231.096 286.105C231.404 286.105 231.683 286.062 231.931 285.976C232.183 285.886 232.4 285.754 232.582 285.578C232.765 285.399 232.906 285.177 233.005 284.912L234.138 285.23C234.019 285.615 233.819 285.953 233.537 286.244C233.255 286.533 232.907 286.758 232.493 286.92C232.079 287.08 231.613 287.159 231.096 287.159ZM237.216 282.406V287H236.043V279.364H237.176V280.557H237.276C237.455 280.169 237.726 279.857 238.091 279.622C238.455 279.384 238.926 279.264 239.503 279.264C240.02 279.264 240.472 279.37 240.86 279.582C241.248 279.791 241.549 280.109 241.765 280.537C241.98 280.961 242.088 281.498 242.088 282.148V287H240.915V282.227C240.915 281.627 240.759 281.16 240.447 280.825C240.136 280.487 239.708 280.318 239.165 280.318C238.79 280.318 238.455 280.399 238.161 280.562C237.869 280.724 237.638 280.961 237.469 281.273C237.3 281.584 237.216 281.962 237.216 282.406ZM247.553 279.364V280.358H243.596V279.364H247.553ZM244.749 277.534H245.922V284.812C245.922 285.144 245.97 285.393 246.067 285.558C246.166 285.721 246.292 285.83 246.444 285.886C246.6 285.939 246.764 285.966 246.937 285.966C247.066 285.966 247.172 285.959 247.255 285.946C247.338 285.929 247.404 285.916 247.454 285.906L247.692 286.96C247.613 286.99 247.502 287.02 247.359 287.05C247.217 287.083 247.036 287.099 246.817 287.099C246.486 287.099 246.161 287.028 245.843 286.886C245.528 286.743 245.266 286.526 245.057 286.234C244.852 285.943 244.749 285.575 244.749 285.131V277.534ZM249.318 287V279.364H250.491V287H249.318ZM249.915 278.091C249.686 278.091 249.489 278.013 249.323 277.857C249.161 277.701 249.079 277.514 249.079 277.295C249.079 277.077 249.161 276.889 249.323 276.734C249.489 276.578 249.686 276.5 249.915 276.5C250.143 276.5 250.339 276.578 250.501 276.734C250.667 276.889 250.75 277.077 250.75 277.295C250.75 277.514 250.667 277.701 250.501 277.857C250.339 278.013 250.143 278.091 249.915 278.091ZM255.743 287.159C255.053 287.159 254.448 286.995 253.928 286.667C253.411 286.339 253.007 285.88 252.715 285.29C252.426 284.7 252.282 284.01 252.282 283.222C252.282 282.426 252.426 281.732 252.715 281.138C253.007 280.545 253.411 280.085 253.928 279.756C254.448 279.428 255.053 279.264 255.743 279.264C256.432 279.264 257.035 279.428 257.552 279.756C258.073 280.085 258.477 280.545 258.765 281.138C259.057 281.732 259.203 282.426 259.203 283.222C259.203 284.01 259.057 284.7 258.765 285.29C258.477 285.88 258.073 286.339 257.552 286.667C257.035 286.995 256.432 287.159 255.743 287.159ZM255.743 286.105C256.266 286.105 256.697 285.971 257.035 285.702C257.373 285.434 257.623 285.081 257.786 284.643C257.948 284.206 258.029 283.732 258.029 283.222C258.029 282.711 257.948 282.236 257.786 281.795C257.623 281.354 257.373 280.998 257.035 280.726C256.697 280.454 256.266 280.318 255.743 280.318C255.219 280.318 254.788 280.454 254.45 280.726C254.112 280.998 253.862 281.354 253.699 281.795C253.537 282.236 253.456 282.711 253.456 283.222C253.456 283.732 253.537 284.206 253.699 284.643C253.862 285.081 254.112 285.434 254.45 285.702C254.788 285.971 255.219 286.105 255.743 286.105ZM262.167 282.406V287H260.994V279.364H262.127V280.557H262.227C262.406 280.169 262.677 279.857 263.042 279.622C263.407 279.384 263.877 279.264 264.454 279.264C264.971 279.264 265.423 279.37 265.811 279.582C266.199 279.791 266.501 280.109 266.716 280.537C266.932 280.961 267.039 281.498 267.039 282.148V287H265.866V282.227C265.866 281.627 265.71 281.16 265.399 280.825C265.087 280.487 264.66 280.318 264.116 280.318C263.741 280.318 263.407 280.399 263.112 280.562C262.82 280.724 262.59 280.961 262.421 281.273C262.252 281.584 262.167 281.962 262.167 282.406Z" fill="white"/>
<path id="Titre _3" d="M195.164 318.818L197.998 327.111H198.112L200.946 318.818H202.606L198.942 329H197.167L193.503 318.818H195.164ZM203.957 329V321.364H205.444V329H203.957ZM204.708 320.185C204.449 320.185 204.227 320.099 204.042 319.927C203.86 319.751 203.768 319.542 203.768 319.3C203.768 319.055 203.86 318.846 204.042 318.674C204.227 318.498 204.449 318.411 204.708 318.411C204.967 318.411 205.187 318.498 205.369 318.674C205.555 318.846 205.648 319.055 205.648 319.3C205.648 319.542 205.555 319.751 205.369 319.927C205.187 320.099 204.967 320.185 204.708 320.185ZM210.735 329.154C209.982 329.154 209.334 328.993 208.791 328.672C208.251 328.347 207.833 327.891 207.538 327.305C207.246 326.715 207.101 326.024 207.101 325.232C207.101 324.449 207.246 323.76 207.538 323.163C207.833 322.567 208.244 322.101 208.771 321.766C209.301 321.432 209.921 321.264 210.63 321.264C211.061 321.264 211.479 321.335 211.883 321.478C212.288 321.621 212.651 321.844 212.972 322.149C213.294 322.454 213.547 322.85 213.733 323.337C213.918 323.821 214.011 324.41 214.011 325.102V325.629H207.941V324.516H212.554C212.554 324.125 212.475 323.778 212.316 323.477C212.157 323.172 211.933 322.931 211.645 322.756C211.36 322.58 211.025 322.492 210.64 322.492C210.223 322.492 209.858 322.595 209.547 322.8C209.238 323.003 209 323.268 208.831 323.596C208.665 323.921 208.582 324.274 208.582 324.655V325.525C208.582 326.035 208.672 326.469 208.851 326.827C209.033 327.185 209.286 327.459 209.611 327.648C209.936 327.833 210.316 327.926 210.75 327.926C211.031 327.926 211.288 327.886 211.52 327.807C211.752 327.724 211.953 327.601 212.122 327.439C212.291 327.277 212.42 327.076 212.51 326.837L213.917 327.091C213.804 327.505 213.602 327.868 213.31 328.18C213.022 328.488 212.659 328.728 212.221 328.901C211.787 329.07 211.292 329.154 210.735 329.154ZM217.302 329L215.055 321.364H216.591L218.088 326.972H218.162L219.664 321.364H221.2L222.691 326.947H222.766L224.253 321.364H225.789L223.547 329H222.03L220.479 323.487H220.365L218.814 329H217.302ZM234.121 329.154C233.382 329.154 232.746 328.987 232.212 328.652C231.682 328.314 231.274 327.848 230.989 327.255C230.704 326.662 230.562 325.982 230.562 325.217C230.562 324.441 230.707 323.757 230.999 323.163C231.291 322.567 231.702 322.101 232.232 321.766C232.762 321.432 233.387 321.264 234.106 321.264C234.686 321.264 235.203 321.372 235.657 321.587C236.111 321.799 236.478 322.098 236.756 322.482C237.038 322.867 237.205 323.316 237.258 323.83H235.812C235.732 323.472 235.55 323.163 235.265 322.905C234.983 322.646 234.605 322.517 234.131 322.517C233.717 322.517 233.354 322.626 233.042 322.845C232.734 323.061 232.494 323.369 232.321 323.77C232.149 324.168 232.063 324.638 232.063 325.182C232.063 325.739 232.147 326.219 232.316 326.624C232.486 327.028 232.724 327.341 233.032 327.563C233.344 327.785 233.71 327.896 234.131 327.896C234.413 327.896 234.668 327.845 234.897 327.742C235.129 327.636 235.323 327.485 235.478 327.29C235.638 327.094 235.749 326.859 235.812 326.584H237.258C237.205 327.078 237.044 327.518 236.776 327.906C236.508 328.294 236.148 328.599 235.697 328.821C235.25 329.043 234.724 329.154 234.121 329.154ZM242.065 329.154C241.349 329.154 240.724 328.99 240.19 328.662C239.657 328.334 239.242 327.875 238.947 327.285C238.652 326.695 238.505 326.005 238.505 325.217C238.505 324.424 238.652 323.732 238.947 323.138C239.242 322.545 239.657 322.085 240.19 321.756C240.724 321.428 241.349 321.264 242.065 321.264C242.78 321.264 243.405 321.428 243.939 321.756C244.472 322.085 244.887 322.545 245.182 323.138C245.477 323.732 245.624 324.424 245.624 325.217C245.624 326.005 245.477 326.695 245.182 327.285C244.887 327.875 244.472 328.334 243.939 328.662C243.405 328.99 242.78 329.154 242.065 329.154ZM242.07 327.906C242.534 327.906 242.918 327.784 243.223 327.538C243.528 327.293 243.753 326.967 243.899 326.559C244.048 326.151 244.123 325.702 244.123 325.212C244.123 324.724 244.048 324.277 243.899 323.869C243.753 323.458 243.528 323.129 243.223 322.88C242.918 322.631 242.534 322.507 242.07 322.507C241.602 322.507 241.214 322.631 240.906 322.88C240.601 323.129 240.374 323.458 240.225 323.869C240.079 324.277 240.006 324.724 240.006 325.212C240.006 325.702 240.079 326.151 240.225 326.559C240.374 326.967 240.601 327.293 240.906 327.538C241.214 327.784 241.602 327.906 242.07 327.906ZM247.283 329V321.364H248.71V322.607H248.805C248.964 322.186 249.224 321.857 249.585 321.622C249.947 321.384 250.379 321.264 250.883 321.264C251.393 321.264 251.821 321.384 252.166 321.622C252.514 321.861 252.77 322.189 252.936 322.607H253.016C253.198 322.199 253.488 321.874 253.886 321.632C254.283 321.387 254.757 321.264 255.308 321.264C256 321.264 256.565 321.481 257.003 321.915C257.444 322.35 257.664 323.004 257.664 323.879V329H256.178V324.018C256.178 323.501 256.037 323.127 255.755 322.895C255.473 322.663 255.137 322.547 254.746 322.547C254.262 322.547 253.886 322.696 253.617 322.994C253.349 323.289 253.215 323.669 253.215 324.133V329H251.733V323.924C251.733 323.51 251.604 323.177 251.345 322.925C251.087 322.673 250.75 322.547 250.336 322.547C250.054 322.547 249.794 322.621 249.555 322.771C249.32 322.916 249.13 323.12 248.984 323.382C248.841 323.644 248.77 323.947 248.77 324.292V329H247.283ZM259.657 331.864V321.364H261.108V322.602H261.233C261.319 322.442 261.443 322.259 261.605 322.05C261.768 321.841 261.993 321.659 262.282 321.503C262.57 321.344 262.951 321.264 263.425 321.264C264.041 321.264 264.592 321.42 265.076 321.732C265.559 322.043 265.939 322.492 266.214 323.079C266.492 323.665 266.632 324.371 266.632 325.197C266.632 326.022 266.494 326.73 266.219 327.32C265.944 327.906 265.566 328.359 265.085 328.677C264.605 328.992 264.056 329.149 263.44 329.149C262.976 329.149 262.596 329.071 262.301 328.915C262.01 328.76 261.781 328.577 261.615 328.369C261.45 328.16 261.322 327.974 261.233 327.812H261.143V331.864H259.657ZM261.113 325.182C261.113 325.719 261.191 326.189 261.347 326.594C261.503 326.998 261.728 327.315 262.023 327.543C262.318 327.769 262.679 327.881 263.107 327.881C263.551 327.881 263.922 327.764 264.22 327.528C264.519 327.29 264.744 326.967 264.897 326.559C265.052 326.151 265.13 325.692 265.13 325.182C265.13 324.678 265.054 324.226 264.902 323.825C264.752 323.424 264.527 323.107 264.225 322.875C263.927 322.643 263.554 322.527 263.107 322.527C262.676 322.527 262.311 322.638 262.013 322.86C261.718 323.082 261.494 323.392 261.342 323.79C261.189 324.187 261.113 324.652 261.113 325.182ZM270.519 329.169C270.036 329.169 269.598 329.08 269.207 328.901C268.816 328.718 268.506 328.455 268.277 328.11C268.052 327.765 267.939 327.343 267.939 326.842C267.939 326.411 268.022 326.057 268.188 325.778C268.353 325.5 268.577 325.28 268.859 325.117C269.141 324.955 269.456 324.832 269.804 324.749C270.152 324.666 270.506 324.603 270.867 324.56C271.325 324.507 271.696 324.464 271.981 324.431C272.266 324.395 272.473 324.337 272.603 324.257C272.732 324.178 272.796 324.048 272.796 323.869V323.835C272.796 323.4 272.674 323.064 272.429 322.825C272.187 322.587 271.825 322.467 271.345 322.467C270.844 322.467 270.45 322.578 270.161 322.8C269.876 323.019 269.679 323.263 269.57 323.531L268.173 323.213C268.339 322.749 268.581 322.375 268.899 322.089C269.22 321.801 269.59 321.592 270.007 321.463C270.425 321.33 270.864 321.264 271.325 321.264C271.63 321.264 271.953 321.301 272.294 321.374C272.639 321.443 272.96 321.572 273.259 321.761C273.56 321.95 273.807 322.22 274 322.572C274.192 322.92 274.288 323.372 274.288 323.929V329H272.836V327.956H272.777C272.68 328.148 272.536 328.337 272.344 328.523C272.152 328.708 271.905 328.862 271.603 328.985C271.302 329.108 270.94 329.169 270.519 329.169ZM270.843 327.976C271.254 327.976 271.605 327.895 271.897 327.732C272.192 327.57 272.415 327.358 272.568 327.096C272.724 326.831 272.801 326.547 272.801 326.246V325.261C272.748 325.314 272.646 325.364 272.493 325.411C272.344 325.454 272.173 325.492 271.981 325.525C271.789 325.555 271.602 325.583 271.419 325.609C271.237 325.633 271.085 325.652 270.962 325.669C270.674 325.705 270.41 325.767 270.171 325.853C269.936 325.939 269.747 326.063 269.605 326.226C269.465 326.385 269.396 326.597 269.396 326.862C269.396 327.23 269.532 327.509 269.804 327.697C270.075 327.883 270.422 327.976 270.843 327.976ZM277.754 324.466V329H276.268V321.364H277.695V322.607H277.789C277.965 322.202 278.24 321.877 278.614 321.632C278.992 321.387 279.468 321.264 280.041 321.264C280.562 321.264 281.017 321.374 281.408 321.592C281.8 321.808 282.103 322.129 282.318 322.557C282.534 322.984 282.641 323.513 282.641 324.143V329H281.155V324.322C281.155 323.768 281.011 323.336 280.722 323.024C280.434 322.709 280.038 322.552 279.534 322.552C279.189 322.552 278.883 322.626 278.614 322.776C278.349 322.925 278.139 323.143 277.983 323.432C277.831 323.717 277.754 324.062 277.754 324.466ZM284.635 329V321.364H286.122V329H284.635ZM285.386 320.185C285.127 320.185 284.905 320.099 284.72 319.927C284.537 319.751 284.446 319.542 284.446 319.3C284.446 319.055 284.537 318.846 284.72 318.674C284.905 318.498 285.127 318.411 285.386 318.411C285.644 318.411 285.865 318.498 286.047 318.674C286.233 318.846 286.325 319.055 286.325 319.3C286.325 319.542 286.233 319.751 286.047 319.927C285.865 320.099 285.644 320.185 285.386 320.185ZM291.413 329.154C290.66 329.154 290.012 328.993 289.469 328.672C288.928 328.347 288.511 327.891 288.216 327.305C287.924 326.715 287.778 326.024 287.778 325.232C287.778 324.449 287.924 323.76 288.216 323.163C288.511 322.567 288.922 322.101 289.449 321.766C289.979 321.432 290.599 321.264 291.308 321.264C291.739 321.264 292.157 321.335 292.561 321.478C292.965 321.621 293.328 321.844 293.65 322.149C293.971 322.454 294.225 322.85 294.41 323.337C294.596 323.821 294.689 324.41 294.689 325.102V325.629H288.619V324.516H293.232C293.232 324.125 293.153 323.778 292.994 323.477C292.834 323.172 292.611 322.931 292.322 322.756C292.037 322.58 291.703 322.492 291.318 322.492C290.9 322.492 290.536 322.595 290.224 322.8C289.916 323.003 289.677 323.268 289.508 323.596C289.343 323.921 289.26 324.274 289.26 324.655V325.525C289.26 326.035 289.349 326.469 289.528 326.827C289.711 327.185 289.964 327.459 290.289 327.648C290.614 327.833 290.993 327.926 291.427 327.926C291.709 327.926 291.966 327.886 292.198 327.807C292.43 327.724 292.631 327.601 292.8 327.439C292.969 327.277 293.098 327.076 293.187 326.837L294.594 327.091C294.482 327.505 294.28 327.868 293.988 328.18C293.699 328.488 293.337 328.728 292.899 328.901C292.465 329.07 291.969 329.154 291.413 329.154ZM302.06 323.228L300.713 323.467C300.657 323.294 300.567 323.13 300.445 322.974C300.325 322.819 300.163 322.691 299.957 322.592C299.752 322.492 299.495 322.442 299.187 322.442C298.766 322.442 298.415 322.537 298.133 322.726C297.851 322.911 297.71 323.152 297.71 323.447C297.71 323.702 297.805 323.907 297.994 324.063C298.183 324.219 298.488 324.347 298.908 324.446L300.122 324.724C300.824 324.887 301.348 325.137 301.693 325.475C302.037 325.813 302.21 326.252 302.21 326.793C302.21 327.25 302.077 327.658 301.812 328.016C301.55 328.37 301.184 328.649 300.713 328.851C300.246 329.053 299.704 329.154 299.087 329.154C298.232 329.154 297.535 328.972 296.994 328.607C296.454 328.239 296.123 327.717 296 327.041L297.437 326.822C297.526 327.197 297.71 327.48 297.989 327.673C298.267 327.862 298.63 327.956 299.078 327.956C299.565 327.956 299.954 327.855 300.246 327.653C300.537 327.447 300.683 327.197 300.683 326.902C300.683 326.663 300.594 326.463 300.415 326.3C300.239 326.138 299.969 326.015 299.604 325.933L298.312 325.649C297.599 325.487 297.072 325.228 296.731 324.874C296.393 324.519 296.224 324.07 296.224 323.526C296.224 323.076 296.35 322.681 296.602 322.343C296.854 322.005 297.202 321.741 297.646 321.553C298.09 321.36 298.599 321.264 299.172 321.264C299.997 321.264 300.647 321.443 301.121 321.801C301.595 322.156 301.908 322.631 302.06 323.228Z" fill="white"/>
</g>
<g id="Y Axis value">
<path id="100" d="M37.3935 125.273V134H36.3366V126.381H36.2855L34.1548 127.795V126.722L36.3366 125.273H37.3935ZM42.75 134.119C42.108 134.119 41.5611 133.945 41.1094 133.595C40.6577 133.243 40.3125 132.733 40.0739 132.065C39.8352 131.395 39.7159 130.585 39.7159 129.636C39.7159 128.693 39.8352 127.888 40.0739 127.22C40.3153 126.55 40.6619 126.038 41.1136 125.686C41.5682 125.331 42.1136 125.153 42.75 125.153C43.3864 125.153 43.9304 125.331 44.3821 125.686C44.8366 126.038 45.1832 126.55 45.4219 127.22C45.6634 127.888 45.7841 128.693 45.7841 129.636C45.7841 130.585 45.6648 131.395 45.4261 132.065C45.1875 132.733 44.8423 133.243 44.3906 133.595C43.9389 133.945 43.392 134.119 42.75 134.119ZM42.75 133.182C43.3864 133.182 43.8807 132.875 44.233 132.261C44.5852 131.648 44.7614 130.773 44.7614 129.636C44.7614 128.881 44.6804 128.237 44.5185 127.706C44.3594 127.175 44.1293 126.77 43.8281 126.491C43.5298 126.213 43.1705 126.074 42.75 126.074C42.1193 126.074 41.6264 126.385 41.2713 127.007C40.9162 127.626 40.7386 128.503 40.7386 129.636C40.7386 130.392 40.8182 131.034 40.9773 131.562C41.1364 132.091 41.3651 132.493 41.6634 132.768C41.9645 133.044 42.3267 133.182 42.75 133.182ZM50.25 134.119C49.608 134.119 49.0611 133.945 48.6094 133.595C48.1577 133.243 47.8125 132.733 47.5739 132.065C47.3352 131.395 47.2159 130.585 47.2159 129.636C47.2159 128.693 47.3352 127.888 47.5739 127.22C47.8153 126.55 48.1619 126.038 48.6136 125.686C49.0682 125.331 49.6136 125.153 50.25 125.153C50.8864 125.153 51.4304 125.331 51.8821 125.686C52.3366 126.038 52.6832 126.55 52.9219 127.22C53.1634 127.888 53.2841 128.693 53.2841 129.636C53.2841 130.585 53.1648 131.395 52.9261 132.065C52.6875 132.733 52.3423 133.243 51.8906 133.595C51.4389 133.945 50.892 134.119 50.25 134.119ZM50.25 133.182C50.8864 133.182 51.3807 132.875 51.733 132.261C52.0852 131.648 52.2614 130.773 52.2614 129.636C52.2614 128.881 52.1804 128.237 52.0185 127.706C51.8594 127.175 51.6293 126.77 51.3281 126.491C51.0298 126.213 50.6705 126.074 50.25 126.074C49.6193 126.074 49.1264 126.385 48.7713 127.007C48.4162 127.626 48.2386 128.503 48.2386 129.636C48.2386 130.392 48.3182 131.034 48.4773 131.562C48.6364 132.091 48.8651 132.493 49.1634 132.768C49.4645 133.044 49.8267 133.182 50.25 133.182Z" fill="#868E96"/>
<path id="80" d="M42.8043 200.119C42.2191 200.119 41.7021 200.016 41.2532 199.808C40.8072 199.598 40.4592 199.31 40.2092 198.943C39.9592 198.574 39.8356 198.153 39.8384 197.682C39.8356 197.312 39.908 196.972 40.0558 196.659C40.2035 196.344 40.4052 196.081 40.6609 195.871C40.9194 195.658 41.2077 195.523 41.5259 195.466V195.415C41.1083 195.307 40.7759 195.072 40.5288 194.712C40.2816 194.348 40.1594 193.935 40.1623 193.472C40.1594 193.028 40.2717 192.632 40.4989 192.283C40.7262 191.933 41.0387 191.658 41.4364 191.456C41.837 191.254 42.293 191.153 42.8043 191.153C43.31 191.153 43.7617 191.254 44.1594 191.456C44.5572 191.658 44.8697 191.933 45.0969 192.283C45.3271 192.632 45.4435 193.028 45.4464 193.472C45.4435 193.935 45.3171 194.348 45.0671 194.712C44.82 195.072 44.4918 195.307 44.0827 195.415V195.466C44.3981 195.523 44.6822 195.658 44.935 195.871C45.1879 196.081 45.3896 196.344 45.5401 196.659C45.6907 196.972 45.7674 197.312 45.7702 197.682C45.7674 198.153 45.6396 198.574 45.3867 198.943C45.1367 199.31 44.7887 199.598 44.3427 199.808C43.8995 200.016 43.3867 200.119 42.8043 200.119ZM42.8043 199.182C43.1992 199.182 43.5401 199.118 43.8271 198.99C44.114 198.862 44.3356 198.682 44.4918 198.449C44.6481 198.216 44.7276 197.943 44.7305 197.631C44.7276 197.301 44.6424 197.01 44.4748 196.757C44.3072 196.504 44.0785 196.305 43.7887 196.161C43.5018 196.016 43.1737 195.943 42.8043 195.943C42.4322 195.943 42.0998 196.016 41.8072 196.161C41.5174 196.305 41.2887 196.504 41.1211 196.757C40.9563 197.01 40.8754 197.301 40.8782 197.631C40.8754 197.943 40.9506 198.216 41.104 198.449C41.2603 198.682 41.4833 198.862 41.7731 198.99C42.0629 199.118 42.4066 199.182 42.8043 199.182ZM42.8043 195.04C43.1168 195.04 43.3938 194.977 43.6353 194.852C43.8796 194.727 44.0714 194.553 44.2106 194.328C44.3498 194.104 44.4208 193.841 44.4237 193.54C44.4208 193.244 44.3512 192.987 44.2148 192.768C44.0785 192.547 43.8896 192.376 43.6481 192.257C43.4066 192.135 43.1254 192.074 42.8043 192.074C42.4776 192.074 42.1921 192.135 41.9478 192.257C41.7035 192.376 41.5146 192.547 41.381 192.768C41.2475 192.987 41.1822 193.244 41.185 193.54C41.1822 193.841 41.2489 194.104 41.3853 194.328C41.5245 194.553 41.7163 194.727 41.9606 194.852C42.2049 194.977 42.4862 195.04 42.8043 195.04ZM50.25 200.119C49.608 200.119 49.0611 199.945 48.6094 199.595C48.1577 199.243 47.8125 198.733 47.5739 198.065C47.3352 197.395 47.2159 196.585 47.2159 195.636C47.2159 194.693 47.3352 193.888 47.5739 193.22C47.8153 192.55 48.1619 192.038 48.6136 191.686C49.0682 191.331 49.6136 191.153 50.25 191.153C50.8864 191.153 51.4304 191.331 51.8821 191.686C52.3366 192.038 52.6832 192.55 52.9219 193.22C53.1634 193.888 53.2841 194.693 53.2841 195.636C53.2841 196.585 53.1648 197.395 52.9261 198.065C52.6875 198.733 52.3423 199.243 51.8906 199.595C51.4389 199.945 50.892 200.119 50.25 200.119ZM50.25 199.182C50.8864 199.182 51.3807 198.875 51.733 198.261C52.0852 197.648 52.2614 196.773 52.2614 195.636C52.2614 194.881 52.1804 194.237 52.0185 193.706C51.8594 193.175 51.6293 192.77 51.3281 192.491C51.0298 192.213 50.6705 192.074 50.25 192.074C49.6193 192.074 49.1264 192.385 48.7713 193.007C48.4162 193.626 48.2386 194.503 48.2386 195.636C48.2386 196.392 48.3182 197.034 48.4773 197.562C48.6364 198.091 48.8651 198.493 49.1634 198.768C49.4645 199.044 49.8267 199.182 50.25 199.182Z" fill="#868E96"/>
<path id="60" d="M42.8129 275.119C42.4549 275.114 42.0969 275.045 41.739 274.915C41.381 274.784 41.0543 274.564 40.7589 274.254C40.4634 273.942 40.2262 273.52 40.0472 272.989C39.8683 272.455 39.7788 271.784 39.7788 270.977C39.7788 270.205 39.8512 269.52 39.9961 268.923C40.141 268.324 40.3512 267.82 40.6268 267.411C40.9023 266.999 41.2347 266.686 41.6239 266.473C42.016 266.26 42.4577 266.153 42.9492 266.153C43.4379 266.153 43.8725 266.251 44.2532 266.447C44.6367 266.641 44.9492 266.911 45.1907 267.257C45.4322 267.604 45.5884 268.003 45.6594 268.455H44.6197C44.5231 268.062 44.3356 267.737 44.0572 267.479C43.7788 267.22 43.4094 267.091 42.9492 267.091C42.2731 267.091 41.7404 267.385 41.3512 267.973C40.9648 268.561 40.7702 269.386 40.7674 270.449H40.8356C40.9947 270.207 41.1836 270.001 41.4023 269.831C41.6239 269.658 41.8683 269.524 42.1353 269.43C42.4023 269.337 42.685 269.29 42.9833 269.29C43.4833 269.29 43.9407 269.415 44.3555 269.665C44.7702 269.912 45.1026 270.254 45.3526 270.692C45.6026 271.126 45.7276 271.625 45.7276 272.188C45.7276 272.727 45.6069 273.222 45.3654 273.67C45.1239 274.116 44.7844 274.472 44.3469 274.736C43.9123 274.997 43.4009 275.125 42.8129 275.119ZM42.8129 274.182C43.1708 274.182 43.4918 274.092 43.7759 273.913C44.0629 273.734 44.2887 273.494 44.4535 273.193C44.6211 272.892 44.7049 272.557 44.7049 272.188C44.7049 271.827 44.6239 271.499 44.462 271.203C44.3029 270.905 44.0827 270.668 43.8015 270.491C43.5231 270.315 43.2049 270.227 42.8469 270.227C42.5771 270.227 42.3256 270.281 42.0927 270.389C41.8597 270.494 41.6552 270.639 41.479 270.824C41.3058 271.009 41.1694 271.22 41.07 271.459C40.9705 271.695 40.9208 271.943 40.9208 272.205C40.9208 272.551 41.0018 272.875 41.1637 273.176C41.3285 273.477 41.5529 273.72 41.837 273.905C42.1239 274.089 42.4492 274.182 42.8129 274.182ZM50.25 275.119C49.608 275.119 49.0611 274.945 48.6094 274.595C48.1577 274.243 47.8125 273.733 47.5739 273.065C47.3352 272.395 47.2159 271.585 47.2159 270.636C47.2159 269.693 47.3352 268.888 47.5739 268.22C47.8153 267.55 48.1619 267.038 48.6136 266.686C49.0682 266.331 49.6136 266.153 50.25 266.153C50.8864 266.153 51.4304 266.331 51.8821 266.686C52.3366 267.038 52.6832 267.55 52.9219 268.22C53.1634 268.888 53.2841 269.693 53.2841 270.636C53.2841 271.585 53.1648 272.395 52.9261 273.065C52.6875 273.733 52.3423 274.243 51.8906 274.595C51.4389 274.945 50.892 275.119 50.25 275.119ZM50.25 274.182C50.8864 274.182 51.3807 273.875 51.733 273.261C52.0852 272.648 52.2614 271.773 52.2614 270.636C52.2614 269.881 52.1804 269.237 52.0185 268.706C51.8594 268.175 51.6293 267.77 51.3281 267.491C51.0298 267.213 50.6705 267.074 50.25 267.074C49.6193 267.074 49.1264 267.385 48.7713 268.007C48.4162 268.626 48.2386 269.503 48.2386 270.636C48.2386 271.392 48.3182 272.034 48.4773 272.562C48.6364 273.091 48.8651 273.493 49.1634 273.768C49.4645 274.044 49.8267 274.182 50.25 274.182Z" fill="#868E96"/>
<path id="40" d="M39.4996 347.21V346.341L43.3349 340.273H43.9656V341.619H43.5394L40.6417 346.205V346.273H45.8065V347.21H39.4996ZM43.6076 349V346.946V346.541V340.273H44.6133V349H43.6076ZM50.25 349.119C49.608 349.119 49.0611 348.945 48.6094 348.595C48.1577 348.243 47.8125 347.733 47.5739 347.065C47.3352 346.395 47.2159 345.585 47.2159 344.636C47.2159 343.693 47.3352 342.888 47.5739 342.22C47.8153 341.55 48.1619 341.038 48.6136 340.686C49.0682 340.331 49.6136 340.153 50.25 340.153C50.8864 340.153 51.4304 340.331 51.8821 340.686C52.3366 341.038 52.6832 341.55 52.9219 342.22C53.1634 342.888 53.2841 343.693 53.2841 344.636C53.2841 345.585 53.1648 346.395 52.9261 347.065C52.6875 347.733 52.3423 348.243 51.8906 348.595C51.4389 348.945 50.892 349.119 50.25 349.119ZM50.25 348.182C50.8864 348.182 51.3807 347.875 51.733 347.261C52.0852 346.648 52.2614 345.773 52.2614 344.636C52.2614 343.881 52.1804 343.237 52.0185 342.706C51.8594 342.175 51.6293 341.77 51.3281 341.491C51.0298 341.213 50.6705 341.074 50.25 341.074C49.6193 341.074 49.1264 341.385 48.7713 342.007C48.4162 342.626 48.2386 343.503 48.2386 344.636C48.2386 345.392 48.3182 346.034 48.4773 346.562C48.6364 347.091 48.8651 347.493 49.1634 347.768C49.4645 348.044 49.8267 348.182 50.25 348.182Z" fill="#868E96"/>
</g>
</g>
<g id="Header">
<mask id="path-28-inside-2_781_34167" fill="white">
<path d="M1 90C1 89.4477 1.44772 89 2 89H960C960.552 89 961 89.4477 961 90H1Z"/>
</mask>
<path d="M1 90C1 89.4477 1.44772 89 2 89H960C960.552 89 961 89.4477 961 90H1Z" fill="white"/>
<path d="M1 89H961H1ZM961 91H1V90C1 89.7348 1.10536 89.4804 1.29289 89.2929C1.48043 89.1054 1.73478 89 2 89V89H1H960C960.265 89 960.52 89.1054 960.707 89.2929C960.895 89.4804 961 89.7348 961 90V91ZM1 90V89V90ZM961 89V90V89Z" fill="#E9ECEF" mask="url(#path-28-inside-2_781_34167)"/>
</g>
<path id="Titre _4" d="M46.679 42.1847H44.4631C44.3778 41.7112 44.2192 41.2945 43.9872 40.9347C43.7552 40.5748 43.4711 40.2694 43.1349 40.0185C42.7988 39.7675 42.4223 39.5781 42.0057 39.4503C41.5938 39.3224 41.1558 39.2585 40.6918 39.2585C39.8537 39.2585 39.1032 39.4692 38.4403 39.8906C37.7822 40.312 37.2614 40.9299 36.8778 41.7443C36.4991 42.5587 36.3097 43.553 36.3097 44.7273C36.3097 45.911 36.4991 46.91 36.8778 47.7244C37.2614 48.5388 37.7846 49.1544 38.4474 49.571C39.1103 49.9877 39.8561 50.196 40.6847 50.196C41.1439 50.196 41.5795 50.1345 41.9915 50.0114C42.4081 49.8835 42.7846 49.6965 43.1207 49.4503C43.4569 49.2041 43.741 48.9034 43.973 48.5483C44.2098 48.1884 44.3731 47.7765 44.4631 47.3125L46.679 47.3196C46.5606 48.0346 46.331 48.6927 45.9901 49.294C45.6539 49.8906 45.2206 50.4067 44.6903 50.8423C44.1648 51.2732 43.5634 51.607 42.8864 51.8438C42.2093 52.0805 41.4706 52.1989 40.6705 52.1989C39.411 52.1989 38.2888 51.9006 37.304 51.304C36.3191 50.7027 35.5426 49.8433 34.9744 48.7259C34.411 47.6084 34.1293 46.2756 34.1293 44.7273C34.1293 43.1742 34.4134 41.8414 34.9815 40.7287C35.5497 39.6113 36.3262 38.7543 37.3111 38.1577C38.2959 37.5563 39.4157 37.2557 40.6705 37.2557C41.4422 37.2557 42.1619 37.367 42.8295 37.5895C43.5019 37.8073 44.1056 38.1293 44.6406 38.5554C45.1757 38.9768 45.6184 39.4929 45.9688 40.1037C46.3191 40.7098 46.5559 41.4034 46.679 42.1847ZM53.7298 52.2202C52.707 52.2202 51.8145 51.9858 51.0522 51.517C50.2899 51.0483 49.698 50.3925 49.2766 49.5497C48.8552 48.7069 48.6445 47.7221 48.6445 46.5952C48.6445 45.4635 48.8552 44.474 49.2766 43.6264C49.698 42.7789 50.2899 42.1207 51.0522 41.652C51.8145 41.1832 52.707 40.9489 53.7298 40.9489C54.7525 40.9489 55.645 41.1832 56.4073 41.652C57.1696 42.1207 57.7615 42.7789 58.1829 43.6264C58.6043 44.474 58.815 45.4635 58.815 46.5952C58.815 47.7221 58.6043 48.7069 58.1829 49.5497C57.7615 50.3925 57.1696 51.0483 56.4073 51.517C55.645 51.9858 54.7525 52.2202 53.7298 52.2202ZM53.7369 50.4375C54.3997 50.4375 54.949 50.2623 55.3846 49.9119C55.8202 49.5616 56.1422 49.0952 56.3505 48.5128C56.5636 47.9304 56.6701 47.2888 56.6701 46.5881C56.6701 45.892 56.5636 45.2528 56.3505 44.6705C56.1422 44.0833 55.8202 43.6122 55.3846 43.2571C54.949 42.902 54.3997 42.7244 53.7369 42.7244C53.0692 42.7244 52.5153 42.902 52.0749 43.2571C51.6393 43.6122 51.315 44.0833 51.1019 44.6705C50.8936 45.2528 50.7894 45.892 50.7894 46.5881C50.7894 47.2888 50.8936 47.9304 51.1019 48.5128C51.315 49.0952 51.6393 49.5616 52.0749 49.9119C52.5153 50.2623 53.0692 50.4375 53.7369 50.4375ZM61.1854 52V41.0909H63.2237V42.8665H63.3587C63.5859 42.2652 63.9576 41.7964 64.4737 41.4602C64.9898 41.1193 65.6077 40.9489 66.3274 40.9489C67.0566 40.9489 67.6674 41.1193 68.1598 41.4602C68.657 41.8011 69.0239 42.2699 69.2607 42.8665H69.3743C69.6347 42.2841 70.049 41.8201 70.6172 41.4744C71.1854 41.1241 71.8625 40.9489 72.6484 40.9489C73.638 40.9489 74.4453 41.259 75.0703 41.8793C75.7 42.4995 76.0149 43.4347 76.0149 44.6847V52H73.8913V44.8835C73.8913 44.1449 73.6901 43.6098 73.2876 43.2784C72.8852 42.947 72.4046 42.7812 71.8459 42.7812C71.1546 42.7812 70.6172 42.9943 70.2337 43.4205C69.8501 43.8419 69.6584 44.384 69.6584 45.0469V52H67.5419V44.7486C67.5419 44.1567 67.3572 43.6809 66.9879 43.321C66.6186 42.9612 66.138 42.7812 65.5462 42.7812C65.1437 42.7812 64.772 42.8878 64.4311 43.1009C64.0949 43.3092 63.8227 43.6004 63.6143 43.9744C63.4107 44.3485 63.3089 44.7817 63.3089 45.2741V52H61.1854ZM78.8612 56.0909V41.0909H80.935V42.8594H81.1126C81.2357 42.6321 81.4132 42.3693 81.6452 42.071C81.8772 41.7727 82.1992 41.5123 82.6112 41.2898C83.0231 41.0625 83.5676 40.9489 84.2447 40.9489C85.1254 40.9489 85.9113 41.1714 86.6026 41.6165C87.2939 42.0616 87.8361 42.7031 88.229 43.5412C88.6268 44.3793 88.8256 45.3878 88.8256 46.5668C88.8256 47.7457 88.6291 48.7566 88.2362 49.5994C87.8432 50.4375 87.3034 51.0838 86.6168 51.5384C85.9303 51.9882 85.1467 52.2131 84.266 52.2131C83.6031 52.2131 83.061 52.1018 82.6396 51.8793C82.2229 51.6567 81.8962 51.3963 81.6594 51.098C81.4227 50.7997 81.2404 50.5346 81.1126 50.3026H80.9847V56.0909H78.8612ZM80.9421 46.5455C80.9421 47.3125 81.0534 47.9848 81.2759 48.5625C81.4985 49.1402 81.8204 49.5923 82.2418 49.919C82.6632 50.241 83.1793 50.402 83.7901 50.402C84.4246 50.402 84.9549 50.2339 85.381 49.8977C85.8072 49.5568 86.1291 49.0952 86.3469 48.5128C86.5695 47.9304 86.6808 47.2746 86.6808 46.5455C86.6808 45.8258 86.5719 45.1795 86.354 44.6065C86.141 44.0336 85.819 43.5814 85.3881 43.25C84.962 42.9186 84.4293 42.7528 83.7901 42.7528C83.1746 42.7528 82.6538 42.9115 82.2276 43.2287C81.8062 43.5459 81.4866 43.9886 81.2688 44.5568C81.051 45.125 80.9421 45.7879 80.9421 46.5455ZM94.3796 52.2415C93.6883 52.2415 93.0633 52.1136 92.5046 51.858C91.9459 51.5975 91.5032 51.2211 91.1765 50.7287C90.8545 50.2363 90.6935 49.6326 90.6935 48.9176C90.6935 48.3021 90.8119 47.7955 91.0487 47.3977C91.2854 47 91.605 46.6851 92.0075 46.4531C92.4099 46.2211 92.8597 46.0459 93.3569 45.9276C93.854 45.8092 94.3607 45.7192 94.8768 45.6577C95.5302 45.5819 96.0605 45.5204 96.4677 45.473C96.8749 45.4209 97.1708 45.3381 97.3555 45.2244C97.5401 45.1108 97.6325 44.9261 97.6325 44.6705V44.6207C97.6325 44.0005 97.4573 43.5199 97.1069 43.179C96.7612 42.8381 96.2451 42.6676 95.5586 42.6676C94.8436 42.6676 94.2802 42.8262 93.8683 43.1435C93.4611 43.456 93.1793 43.804 93.0231 44.1875L91.0273 43.733C91.2641 43.0701 91.6097 42.535 92.0643 42.1278C92.5236 41.7159 93.0515 41.4176 93.6481 41.233C94.2447 41.0436 94.872 40.9489 95.5302 40.9489C95.9658 40.9489 96.4274 41.0009 96.9151 41.1051C97.4076 41.2045 97.8668 41.3892 98.293 41.6591C98.7238 41.929 99.0766 42.3149 99.3512 42.8168C99.6258 43.3139 99.7631 43.9602 99.7631 44.7557V52H97.6893V50.5085H97.604C97.4667 50.7831 97.2608 51.053 96.9862 51.3182C96.7115 51.5833 96.3588 51.8035 95.9279 51.9787C95.497 52.1539 94.9809 52.2415 94.3796 52.2415ZM94.8413 50.5369C95.4284 50.5369 95.9303 50.4209 96.3469 50.1889C96.7683 49.9569 97.088 49.6539 97.3058 49.2798C97.5283 48.901 97.6396 48.4962 97.6396 48.0653V46.6591C97.5638 46.7348 97.417 46.8059 97.1992 46.8722C96.9862 46.9337 96.7423 46.9882 96.4677 47.0355C96.1931 47.0781 95.9255 47.1184 95.6651 47.1562C95.4047 47.1894 95.1869 47.2178 95.0117 47.2415C94.5998 47.2936 94.2234 47.3812 93.8825 47.5043C93.5463 47.6274 93.2764 47.8049 93.0728 48.0369C92.8739 48.2642 92.7745 48.5672 92.7745 48.946C92.7745 49.4716 92.9686 49.8693 93.3569 50.1392C93.7451 50.4044 94.2399 50.5369 94.8413 50.5369ZM104.715 45.5227V52H102.592V41.0909H104.63V42.8665H104.765C105.016 42.2888 105.409 41.8248 105.944 41.4744C106.484 41.1241 107.163 40.9489 107.982 40.9489C108.726 40.9489 109.377 41.1051 109.935 41.4176C110.494 41.7254 110.927 42.1847 111.235 42.7955C111.543 43.4062 111.697 44.1615 111.697 45.0611V52H109.573V45.3168C109.573 44.526 109.367 43.9081 108.955 43.4631C108.543 43.0133 107.978 42.7884 107.258 42.7884C106.765 42.7884 106.327 42.8949 105.944 43.108C105.565 43.321 105.264 43.6335 105.042 44.0455C104.824 44.4527 104.715 44.9451 104.715 45.5227ZM115.496 56.0909C115.179 56.0909 114.89 56.0649 114.63 56.0128C114.37 55.9654 114.175 55.9134 114.048 55.8565L114.559 54.1165C114.947 54.2206 115.293 54.2656 115.596 54.2514C115.899 54.2372 116.166 54.1236 116.398 53.9105C116.635 53.6974 116.844 53.3494 117.023 52.8665L117.286 52.142L113.295 41.0909H115.567L118.33 49.5568H118.444L121.207 41.0909H123.487L118.991 53.456C118.782 54.0241 118.517 54.5047 118.195 54.8977C117.873 55.2955 117.49 55.5938 117.045 55.7926C116.6 55.9915 116.084 56.0909 115.496 56.0909ZM130.775 52V41.0909H132.828V42.8239H132.941C133.14 42.2367 133.491 41.7751 133.993 41.4389C134.499 41.098 135.072 40.9276 135.711 40.9276C135.844 40.9276 136 40.9323 136.18 40.9418C136.365 40.9512 136.509 40.9631 136.613 40.9773V43.0085C136.528 42.9848 136.377 42.9588 136.159 42.9304C135.941 42.8973 135.723 42.8807 135.505 42.8807C135.003 42.8807 134.556 42.9872 134.163 43.2003C133.775 43.4086 133.467 43.6998 133.24 44.0739C133.012 44.4432 132.899 44.8646 132.899 45.3381V52H130.775ZM142.762 52.2202C141.687 52.2202 140.762 51.9905 139.985 51.5312C139.213 51.0672 138.617 50.4162 138.195 49.5781C137.779 48.7353 137.57 47.7481 137.57 46.6165C137.57 45.4991 137.779 44.5142 138.195 43.6619C138.617 42.8097 139.204 42.1444 139.957 41.6662C140.714 41.188 141.6 40.9489 142.613 40.9489C143.228 40.9489 143.825 41.0507 144.403 41.2543C144.98 41.4579 145.499 41.7775 145.958 42.2131C146.417 42.6487 146.78 43.2145 147.045 43.9105C147.31 44.6018 147.442 45.4422 147.442 46.4318V47.1847H138.771V45.5938H145.362C145.362 45.035 145.248 44.5402 145.021 44.1094C144.793 43.6738 144.474 43.3305 144.062 43.0795C143.655 42.8286 143.176 42.7031 142.627 42.7031C142.031 42.7031 141.51 42.8499 141.065 43.1435C140.624 43.4323 140.283 43.8111 140.042 44.2798C139.805 44.7438 139.687 45.2481 139.687 45.7926V47.0355C139.687 47.7647 139.815 48.3849 140.07 48.8963C140.331 49.4077 140.693 49.7983 141.157 50.0682C141.621 50.3333 142.163 50.4659 142.783 50.4659C143.186 50.4659 143.553 50.4091 143.884 50.2955C144.216 50.1771 144.502 50.0019 144.744 49.7699C144.985 49.5379 145.17 49.2514 145.298 48.9105L147.308 49.2727C147.147 49.8646 146.858 50.383 146.441 50.8281C146.029 51.2685 145.511 51.6117 144.886 51.858C144.265 52.0994 143.558 52.2202 142.762 52.2202ZM154.891 41.0909V42.7955H148.932V41.0909H154.891ZM150.53 38.4773H152.654V48.7969C152.654 49.2088 152.715 49.5189 152.838 49.7273C152.962 49.9309 153.12 50.0705 153.314 50.1463C153.513 50.2173 153.729 50.2528 153.961 50.2528C154.131 50.2528 154.28 50.241 154.408 50.2173C154.536 50.1937 154.635 50.1747 154.706 50.1605L155.09 51.9148C154.967 51.9621 154.792 52.0095 154.564 52.0568C154.337 52.1089 154.053 52.1373 153.712 52.142C153.153 52.1515 152.632 52.0521 152.15 51.8438C151.667 51.6354 151.276 51.3134 150.978 50.8778C150.679 50.4422 150.53 49.8954 150.53 49.2372V38.4773ZM161.825 52.2202C160.75 52.2202 159.824 51.9905 159.048 51.5312C158.276 51.0672 157.679 50.4162 157.258 49.5781C156.841 48.7353 156.633 47.7481 156.633 46.6165C156.633 45.4991 156.841 44.5142 157.258 43.6619C157.679 42.8097 158.266 42.1444 159.019 41.6662C159.777 41.188 160.662 40.9489 161.675 40.9489C162.291 40.9489 162.888 41.0507 163.465 41.2543C164.043 41.4579 164.561 41.7775 165.021 42.2131C165.48 42.6487 165.842 43.2145 166.107 43.9105C166.372 44.6018 166.505 45.4422 166.505 46.4318V47.1847H157.833V45.5938H164.424C164.424 45.035 164.31 44.5402 164.083 44.1094C163.856 43.6738 163.536 43.3305 163.124 43.0795C162.717 42.8286 162.239 42.7031 161.69 42.7031C161.093 42.7031 160.572 42.8499 160.127 43.1435C159.687 43.4323 159.346 43.8111 159.104 44.2798C158.868 44.7438 158.749 45.2481 158.749 45.7926V47.0355C158.749 47.7647 158.877 48.3849 159.133 48.8963C159.393 49.4077 159.755 49.7983 160.219 50.0682C160.683 50.3333 161.226 50.4659 161.846 50.4659C162.248 50.4659 162.615 50.4091 162.947 50.2955C163.278 50.1771 163.565 50.0019 163.806 49.7699C164.048 49.5379 164.232 49.2514 164.36 48.9105L166.37 49.2727C166.209 49.8646 165.92 50.383 165.504 50.8281C165.092 51.2685 164.573 51.6117 163.948 51.858C163.328 52.0994 162.62 52.2202 161.825 52.2202ZM170.985 45.5227V52H168.861V41.0909H170.9V42.8665H171.034C171.285 42.2888 171.678 41.8248 172.213 41.4744C172.753 41.1241 173.433 40.9489 174.252 40.9489C174.995 40.9489 175.646 41.1051 176.205 41.4176C176.764 41.7254 177.197 42.1847 177.505 42.7955C177.812 43.4062 177.966 44.1615 177.966 45.0611V52H175.843V45.3168C175.843 44.526 175.637 43.9081 175.225 43.4631C174.813 43.0133 174.247 42.7884 173.527 42.7884C173.035 42.7884 172.597 42.8949 172.213 43.108C171.835 43.321 171.534 43.6335 171.311 44.0455C171.094 44.4527 170.985 44.9451 170.985 45.5227ZM185.907 41.0909V42.7955H179.948V41.0909H185.907ZM181.546 38.4773H183.669V48.7969C183.669 49.2088 183.731 49.5189 183.854 49.7273C183.977 49.9309 184.136 50.0705 184.33 50.1463C184.529 50.2173 184.744 50.2528 184.976 50.2528C185.147 50.2528 185.296 50.241 185.424 50.2173C185.551 50.1937 185.651 50.1747 185.722 50.1605L186.105 51.9148C185.982 51.9621 185.807 52.0095 185.58 52.0568C185.353 52.1089 185.069 52.1373 184.728 52.142C184.169 52.1515 183.648 52.0521 183.165 51.8438C182.682 51.6354 182.292 51.3134 181.993 50.8778C181.695 50.4422 181.546 49.8954 181.546 49.2372V38.4773ZM188.256 52V41.0909H190.379V52H188.256ZM189.328 39.4077C188.959 39.4077 188.642 39.2846 188.376 39.0384C188.116 38.7874 187.986 38.4891 187.986 38.1435C187.986 37.7931 188.116 37.4948 188.376 37.2486C188.642 36.9976 188.959 36.8722 189.328 36.8722C189.697 36.8722 190.012 36.9976 190.273 37.2486C190.538 37.4948 190.67 37.7931 190.67 38.1435C190.67 38.4891 190.538 38.7874 190.273 39.0384C190.012 39.2846 189.697 39.4077 189.328 39.4077ZM197.831 52.2202C196.809 52.2202 195.916 51.9858 195.154 51.517C194.391 51.0483 193.8 50.3925 193.378 49.5497C192.957 48.7069 192.746 47.7221 192.746 46.5952C192.746 45.4635 192.957 44.474 193.378 43.6264C193.8 42.7789 194.391 42.1207 195.154 41.652C195.916 41.1832 196.809 40.9489 197.831 40.9489C198.854 40.9489 199.747 41.1832 200.509 41.652C201.271 42.1207 201.863 42.7789 202.284 43.6264C202.706 44.474 202.917 45.4635 202.917 46.5952C202.917 47.7221 202.706 48.7069 202.284 49.5497C201.863 50.3925 201.271 51.0483 200.509 51.517C199.747 51.9858 198.854 52.2202 197.831 52.2202ZM197.838 50.4375C198.501 50.4375 199.051 50.2623 199.486 49.9119C199.922 49.5616 200.244 49.0952 200.452 48.5128C200.665 47.9304 200.772 47.2888 200.772 46.5881C200.772 45.892 200.665 45.2528 200.452 44.6705C200.244 44.0833 199.922 43.6122 199.486 43.2571C199.051 42.902 198.501 42.7244 197.838 42.7244C197.171 42.7244 196.617 42.902 196.176 43.2571C195.741 43.6122 195.417 44.0833 195.203 44.6705C194.995 45.2528 194.891 45.892 194.891 46.5881C194.891 47.2888 194.995 47.9304 195.203 48.5128C195.417 49.0952 195.741 49.5616 196.176 49.9119C196.617 50.2623 197.171 50.4375 197.838 50.4375ZM207.411 45.5227V52H205.287V41.0909H207.325V42.8665H207.46C207.711 42.2888 208.104 41.8248 208.639 41.4744C209.179 41.1241 209.858 40.9489 210.678 40.9489C211.421 40.9489 212.072 41.1051 212.631 41.4176C213.189 41.7254 213.623 42.1847 213.93 42.7955C214.238 43.4062 214.392 44.1615 214.392 45.0611V52H212.268V45.3168C212.268 44.526 212.063 43.9081 211.651 43.4631C211.239 43.0133 210.673 42.7884 209.953 42.7884C209.461 42.7884 209.023 42.8949 208.639 43.108C208.26 43.321 207.96 43.6335 207.737 44.0455C207.519 44.4527 207.411 44.9451 207.411 45.5227Z" fill="#0D131B"/>
</g>
<defs>
<filter id="filter0_dd_781_34167" x="0" y="0" width="962" height="394" filterUnits="userSpaceOnUse" color-interpolation-filters="sRGB">
<feFlood flood-opacity="0" result="BackgroundImageFix"/>
<feColorMatrix in="SourceAlpha" type="matrix" values="0 0 0 0 0 0 0 0 0 0 0 0 0 0 0 0 0 0 127 0" result="hardAlpha"/>
<feOffset/>
<feGaussianBlur stdDeviation="0.5"/>
<feColorMatrix type="matrix" values="0 0 0 0 0.0509804 0 0 0 0 0.0745098 0 0 0 0 0.105882 0 0 0 0.25 0"/>
<feBlend mode="normal" in2="BackgroundImageFix" result="effect1_dropShadow_781_34167"/>
<feColorMatrix in="SourceAlpha" type="matrix" values="0 0 0 0 0 0 0 0 0 0 0 0 0 0 0 0 0 0 127 0" result="hardAlpha"/>
<feOffset dy="2"/>
<feGaussianBlur stdDeviation="0.5"/>
<feColorMatrix type="matrix" values="0 0 0 0 0.0509804 0 0 0 0 0.0745098 0 0 0 0 0.105882 0 0 0 0.05 0"/>
<feBlend mode="normal" in2="effect1_dropShadow_781_34167" result="effect2_dropShadow_781_34167"/>
<feBlend mode="normal" in="SourceGraphic" in2="effect2_dropShadow_781_34167" result="shape"/>
</filter>
<filter id="filter1_dd_781_34167" x="151" y="222" width="194" height="148" filterUnits="userSpaceOnUse" color-interpolation-filters="sRGB">
<feFlood flood-opacity="0" result="BackgroundImageFix"/>
<feColorMatrix in="SourceAlpha" type="matrix" values="0 0 0 0 0 0 0 0 0 0 0 0 0 0 0 0 0 0 127 0" result="hardAlpha"/>
<feOffset dy="2"/>
<feGaussianBlur stdDeviation="5"/>
<feColorMatrix type="matrix" values="0 0 0 0 0.0509804 0 0 0 0 0.0745098 0 0 0 0 0.105882 0 0 0 0.1 0"/>
<feBlend mode="normal" in2="BackgroundImageFix" result="effect1_dropShadow_781_34167"/>
<feColorMatrix in="SourceAlpha" type="matrix" values="0 0 0 0 0 0 0 0 0 0 0 0 0 0 0 0 0 0 127 0" result="hardAlpha"/>
<feOffset/>
<feGaussianBlur stdDeviation="1"/>
<feColorMatrix type="matrix" values="0 0 0 0 0.0509804 0 0 0 0 0.0745098 0 0 0 0 0.105882 0 0 0 0.2 0"/>
<feBlend mode="normal" in2="effect1_dropShadow_781_34167" result="effect2_dropShadow_781_34167"/>
<feBlend mode="normal" in="SourceGraphic" in2="effect2_dropShadow_781_34167" result="shape"/>
</filter>
<filter id="filter2_dd_781_34167" x="176" y="305" width="144" height="40" filterUnits="userSpaceOnUse" color-interpolation-filters="sRGB">
<feFlood flood-opacity="0" result="BackgroundImageFix"/>
<feColorMatrix in="SourceAlpha" type="matrix" values="0 0 0 0 0 0 0 0 0 0 0 0 0 0 0 0 0 0 127 0" result="hardAlpha"/>
<feOffset/>
<feGaussianBlur stdDeviation="0.5"/>
<feColorMatrix type="matrix" values="0 0 0 0 0.0509804 0 0 0 0 0.0745098 0 0 0 0 0.105882 0 0 0 0.25 0"/>
<feBlend mode="normal" in2="BackgroundImageFix" result="effect1_dropShadow_781_34167"/>
<feColorMatrix in="SourceAlpha" type="matrix" values="0 0 0 0 0 0 0 0 0 0 0 0 0 0 0 0 0 0 127 0" result="hardAlpha"/>
<feOffset dy="2"/>
<feGaussianBlur stdDeviation="0.5"/>
<feColorMatrix type="matrix" values="0 0 0 0 0.0509804 0 0 0 0 0.0745098 0 0 0 0 0.105882 0 0 0 0.05 0"/>
<feBlend mode="normal" in2="effect1_dropShadow_781_34167" result="effect2_dropShadow_781_34167"/>
<feBlend mode="normal" in="SourceGraphic" in2="effect2_dropShadow_781_34167" result="shape"/>
</filter>
<linearGradient id="paint0_linear_781_34167" x1="503.75" y1="264.579" x2="503.96" y2="446.833" gradientUnits="userSpaceOnUse">
<stop stop-color="#6868F7"/>
<stop offset="1" stop-color="#6868F7" stop-opacity="0"/>
</linearGradient>
<clipPath id="clip0_781_34167">
<path d="M929 130C929 125.582 925.418 122 921 122H86C81.5817 122 78 125.582 78 130V391H929V130Z" fill="white"/>
</clipPath>
</defs>
</svg>
