<svg width="225" height="226" viewBox="0 0 225 226" fill="none" xmlns="http://www.w3.org/2000/svg">
<path d="M79.4556 181.759C75.6145 185.444 69.3376 181.853 70.5672 176.674L76.393 152.138C77.2596 148.488 74.1904 145.107 70.4741 145.617L45.4924 149.044C40.219 149.768 37.2512 143.173 41.2902 139.706L60.425 123.281C63.2713 120.838 62.7762 116.299 59.4701 114.527L37.2407 102.611C32.5496 100.097 34.0254 93.0171 39.3304 92.5864L64.4686 90.5454C68.2075 90.2418 70.4752 86.2778 68.8418 82.9009L57.8606 60.1981C55.5429 55.4064 60.8983 50.5458 65.4436 53.3159L86.977 66.4393C90.1803 68.3915 94.3451 66.5174 95.0084 62.8251L99.467 38.0076C100.408 32.7686 107.598 31.9839 109.647 36.8965L119.356 60.1705C120.8 63.6326 125.27 64.5643 127.977 61.9672L146.174 44.5088C150.015 40.8237 156.292 44.4148 155.063 49.5936L149.237 74.1272C148.371 77.7767 151.44 81.1581 155.156 80.6486L180.147 77.2223C185.42 76.4993 188.388 83.0945 184.348 86.561L165.209 102.988C162.362 105.431 162.857 109.972 166.164 111.743L188.389 123.652C193.081 126.166 191.606 133.246 186.3 133.677L161.168 135.717C157.429 136.021 155.161 139.985 156.795 143.362L167.776 166.065C170.094 170.856 164.738 175.717 160.193 172.947L138.659 159.823C135.456 157.871 131.291 159.745 130.628 163.437L126.166 188.265C125.224 193.504 118.035 194.288 115.986 189.376L106.276 166.099C104.832 162.637 100.362 161.705 97.6548 164.302L79.4556 181.759Z" fill="white"/>
<path d="M139.529 81.9108C146.678 94.3998 151.713 107.985 154.431 122.116C154.967 125.043 155.123 128.662 152.668 130.376C151.453 131.051 150.085 131.401 148.695 131.393L122.433 133.469C117.396 133.885 111.398 133.843 108.49 129.711C106.813 127.324 106.719 124.228 106.49 121.325C106.126 114.833 104.417 108.488 101.473 102.69C98.4955 96.8701 93.6232 92.2383 87.6596 89.5591C76.5627 84.886 61.256 87.4577 52.5992 95.881C42.709 105.461 39.8768 124.115 22.5838 123.513C19.2167 123.395 12.8929 120.144 11.1928 117.241C7.86287 111.552 10.3804 104.325 13.2797 98.4058C19.8173 85.0757 28.3138 72.3752 40.0932 63.3189C57.3948 50.0134 82.0307 46.6718 102.913 52.1704C119.699 56.5869 130.262 67.8159 139.348 81.9258" fill="#DEE1FD"/>
<circle cx="124.249" cy="138.604" r="6.35996" fill="#EBF490"/>
<circle cx="143.329" cy="154.505" r="6.35996" fill="#EBF490"/>
<circle cx="156.844" cy="131.45" r="6.35996" fill="#EBF490"/>
<circle cx="136.969" cy="121.91" r="6.35996" fill="#EBF490"/>
<circle cx="109.144" cy="117.14" r="6.35996" fill="#EBF490"/>
<circle cx="89.269" cy="140.989" r="6.35996" fill="#EBF490"/>
</svg>
