<svg width="395" height="395" viewBox="0 0 395 395" fill="none" xmlns="http://www.w3.org/2000/svg">
<g clip-path="url(#clip0_1604_10904)">
<path d="M197.177 394.391C144.894 394.333 94.7687 373.538 57.7972 336.57C20.8256 299.602 0.0267793 249.479 -0.0371094 197.196C0.0267793 144.913 20.8256 94.7894 57.7972 57.8214C94.7687 20.8533 144.894 0.0589658 197.177 0C249.459 0.0589752 299.582 20.8539 336.55 57.8225C373.519 94.7911 394.314 144.914 394.373 197.196C394.314 249.477 373.519 299.6 336.55 336.569C299.582 373.538 249.459 394.332 197.177 394.391ZM197.177 51.9913C158.678 52.0356 121.769 67.3474 94.5444 94.5684C67.32 121.789 52.0034 158.697 51.9542 197.196C52.0034 235.694 67.32 272.602 94.5444 299.823C121.769 327.044 158.678 342.356 197.177 342.4C235.674 342.356 272.582 327.043 299.803 299.822C327.025 272.6 342.337 235.693 342.381 197.196C342.337 158.699 327.025 121.791 299.803 94.5695C272.582 67.348 235.674 52.0356 197.177 51.9913Z" fill="#E9EC92"/>
<path d="M223.6 34.9827L226.199 21.3164L228.446 21.762L225.847 35.4097L223.6 34.9827ZM225.141 35.2797L225.512 33.4229L229.431 34.1657C229.725 34.2395 230.033 34.2478 230.331 34.19C230.629 34.1323 230.911 34.0099 231.157 33.8314C231.605 33.4979 231.911 33.0069 232.011 32.4574C232.104 32.0981 232.104 31.7211 232.011 31.3618C231.901 31.0041 231.696 30.6832 231.417 30.4334C231.097 30.1661 230.714 29.9869 230.303 29.9134L226.385 29.1708L226.756 27.2211L230.34 27.9081C230.842 28.0258 231.368 27.9599 231.826 27.7224C232.038 27.588 232.217 27.4085 232.352 27.1966C232.487 26.9848 232.574 26.746 232.606 26.4969C232.673 26.2544 232.684 25.9999 232.639 25.7523C232.594 25.5048 232.494 25.2705 232.345 25.0671C232.008 24.6738 231.54 24.4164 231.027 24.3429L227.425 23.6559L227.796 21.7991L231.51 22.5047C232.317 22.6209 233.079 22.9475 233.72 23.4517C234.229 23.8575 234.615 24.3978 234.834 25.0115C235.038 25.609 235.077 26.2507 234.945 26.8683C234.853 27.578 234.519 28.234 233.998 28.7252C233.431 29.232 232.739 29.5781 231.993 29.7278L232.308 29.0594C233.039 29.5134 233.636 30.1544 234.035 30.9162C234.387 31.6628 234.491 32.5018 234.332 33.3115C234.199 33.9964 233.892 34.6357 233.441 35.1683C232.939 35.7104 232.296 36.1025 231.584 36.301C230.743 36.5086 229.863 36.5086 229.022 36.301L225.141 35.2797Z" fill="#231F20"/>
<path d="M235.224 37.3038L238.789 23.8604L240.999 24.4544L237.433 37.898L235.224 37.3038ZM236.746 37.7123L237.266 35.6884L244.805 37.6937L244.267 39.6991L236.746 37.7123ZM238.306 31.8075L238.826 29.9507L245.696 31.8075L245.176 33.6644L238.306 31.8075ZM239.773 26.237L240.311 24.2316L247.739 26.1999L247.2 28.2239L239.773 26.237Z" fill="#231F20"/>
<path d="M252.975 42.6144L255.389 36.0412L257.543 36.8396L255.11 43.3942L252.975 42.6144ZM255.203 37.5081L252.994 27.7969L255.482 28.7067L257.134 36.4125L255.983 35.9855L262.259 31.2134L264.71 32.1047L256.689 38.0465L255.203 37.5081Z" fill="#231F20"/>
<path d="M265.88 48.1848C265.01 47.7846 264.228 47.2167 263.578 46.5136C262.959 45.8265 262.479 45.0256 262.166 44.1555C261.846 43.289 261.701 42.3675 261.739 41.4445C261.782 40.4878 262.009 39.5483 262.408 38.6778C262.813 37.8165 263.381 37.0411 264.079 36.394C264.752 35.7703 265.54 35.2845 266.4 34.9642C267.252 34.6337 268.161 34.4759 269.074 34.5C270.025 34.541 270.958 34.768 271.822 35.1684C272.688 35.5573 273.465 36.1198 274.106 36.821C274.724 37.5012 275.204 38.2961 275.517 39.1606C275.834 40.0279 275.979 40.9487 275.944 41.8715C275.902 42.8282 275.675 43.7678 275.276 44.6383C274.876 45.5082 274.307 46.2907 273.604 46.9408C272.932 47.5645 272.143 48.0501 271.283 48.3704C270.432 48.7009 269.523 48.8587 268.61 48.8347C267.665 48.8045 266.737 48.5834 265.88 48.1848ZM266.753 46.1794C267.533 46.5525 268.398 46.7127 269.26 46.6436C270.079 46.5557 270.857 46.2405 271.506 45.7338C272.224 45.1837 272.792 44.4622 273.159 43.6355C273.431 43.0488 273.607 42.4217 273.679 41.7787C273.725 41.1498 273.643 40.518 273.438 39.9219C273.239 39.3433 272.923 38.8123 272.509 38.3622C272.056 37.8845 271.513 37.4996 270.912 37.2294C270.139 36.8544 269.28 36.6941 268.424 36.7652C267.61 36.8587 266.834 37.1663 266.177 37.6566C265.46 38.1955 264.897 38.9124 264.543 39.7362C264.248 40.3606 264.072 41.0343 264.023 41.7231C263.961 42.3508 264.038 42.9846 264.246 43.5799C264.438 44.1613 264.755 44.6936 265.175 45.1396C265.631 45.5772 266.167 45.9238 266.753 46.1608V46.1794Z" fill="#231F20"/>
<path d="M278.395 54.6097C277.529 54.1332 276.805 53.4346 276.297 52.5857C275.811 51.7785 275.554 50.8541 275.554 49.9118C275.545 48.925 275.809 47.9548 276.316 47.108L280.586 39.6807L282.573 40.8134L278.302 48.2408C277.986 48.7688 277.813 49.3705 277.801 49.9861C277.796 50.5438 277.951 51.0914 278.246 51.5644C278.554 52.0481 278.975 52.4497 279.472 52.7343C279.969 53.0241 280.531 53.1838 281.106 53.1985C281.658 53.2005 282.199 53.046 282.666 52.7528C283.177 52.4294 283.598 51.9823 283.891 51.453L288.162 44.0257L290.149 45.1583L285.86 52.5857C285.386 53.4432 284.694 54.1605 283.854 54.6653C283.044 55.125 282.131 55.374 281.199 55.3895C280.212 55.3782 279.246 55.1094 278.395 54.6097Z" fill="#231F20"/>
<path d="M285.228 58.4162L293.027 46.9038L294.884 48.1664L287.085 59.6974L285.228 58.4162ZM289.833 54.4054L290.891 52.8457L293.807 54.8139C294.275 55.1813 294.869 55.3482 295.459 55.2781C295.738 55.2351 296.003 55.129 296.235 54.9682C296.467 54.8073 296.658 54.5958 296.796 54.3497C296.955 54.1297 297.069 53.8798 297.129 53.615C297.19 53.3502 297.197 53.0759 297.149 52.8085C297.088 52.5147 296.965 52.2373 296.789 51.9941C296.613 51.751 296.388 51.5476 296.128 51.3973L293.213 49.4291L294.327 47.7766L297.335 49.8191C298.01 50.2494 298.566 50.8434 298.95 51.5459C299.298 52.1681 299.459 52.8771 299.415 53.5884C299.376 54.3076 299.138 55.002 298.727 55.5938C298.321 56.2135 297.757 56.7135 297.093 57.0422C296.445 57.3208 295.732 57.417 295.032 57.3206C294.244 57.2053 293.493 56.9065 292.841 56.448L289.833 54.4054ZM291.542 62.6869L290.891 54.9625L293.101 55.501L293.937 64.3023L291.542 62.6869Z" fill="#231F20"/>
<path d="M297.446 67.3661C296.655 66.8009 296.017 66.048 295.589 65.1751C295.212 64.3472 295.016 63.4482 295.014 62.5383L297.186 62.2599C297.14 62.8935 297.241 63.5293 297.483 64.1167C297.767 64.7654 298.223 65.324 298.802 65.7321C299.291 66.157 299.902 66.4168 300.547 66.4748C300.804 66.4994 301.063 66.4557 301.298 66.3481C301.533 66.2405 301.735 66.0729 301.884 65.8621C302.147 65.5507 302.292 65.1559 302.293 64.748C302.28 64.3469 302.178 63.9538 301.995 63.5967C301.791 63.1832 301.555 62.7859 301.29 62.4083C301.011 61.9998 300.751 61.5727 300.491 61.1271C300.242 60.702 300.049 60.2464 299.916 59.7717C299.804 59.2828 299.804 58.775 299.916 58.2862C300.059 57.695 300.331 57.1431 300.714 56.6708C301.152 56.0682 301.77 55.6197 302.478 55.3896C303.17 55.1944 303.903 55.1944 304.595 55.3896C305.359 55.5872 306.073 55.9413 306.693 56.4294C307.362 56.917 307.908 57.5524 308.29 58.2862C308.628 58.956 308.818 59.6905 308.847 60.4401L306.675 60.7187C306.65 60.1859 306.524 59.6628 306.303 59.1775C306.086 58.7119 305.754 58.3093 305.338 58.0076C304.908 57.6273 304.368 57.3932 303.796 57.3392C303.568 57.3255 303.341 57.3713 303.136 57.4723C302.93 57.5732 302.755 57.7257 302.627 57.9148C302.385 58.1989 302.259 58.5634 302.274 58.9361C302.317 59.3212 302.437 59.6937 302.627 60.0316C302.831 60.4451 303.067 60.8425 303.332 61.22C303.611 61.6471 303.871 62.0741 304.112 62.5197C304.367 62.9531 304.555 63.4227 304.669 63.9124C304.781 64.4137 304.781 64.9336 304.669 65.435C304.51 66.0535 304.219 66.6302 303.815 67.1248C303.484 67.5781 303.056 67.9506 302.56 68.2143C302.065 68.478 301.516 68.6261 300.955 68.6474C299.671 68.6463 298.429 68.1927 297.446 67.3661Z" fill="#231F20"/>
<path d="M303.017 71.414L312.301 61.0156L314.009 62.5197L304.725 72.918L303.017 71.414ZM304.186 72.4538L305.579 70.894L311.41 76.056L310.017 77.6157L304.186 72.4538ZM308.234 67.8859L309.571 66.3819L314.882 71.1168L313.563 72.6024L308.234 67.8859ZM311.948 63.6152L313.322 62.0554L319.078 67.1433L317.704 68.7029L311.948 63.6152Z" fill="#231F20"/>
<path d="M311.261 78.9339L321.158 69.167L322.773 70.7824L312.876 80.568L311.261 78.9339ZM312.375 80.0666L313.861 78.5997L318.967 83.7617L317.481 85.2286L312.375 80.0666Z" fill="#231F20"/>
<path d="M318.595 86.473L329.087 77.356L330.591 79.0642L320.099 88.1812L318.595 86.473ZM324.166 83.7435L325.726 82.3693L330.368 87.717L328.789 89.0911L324.166 83.7435ZM328.585 79.8998L330.164 78.5258L335.01 84.0963L333.45 85.4517L328.585 79.8998Z" fill="#231F20"/>
<path d="M327.824 97.3721L339.225 89.3691L340.135 90.6875L335.66 100.882L335.066 100.027L346.207 99.3033L347.135 100.603L335.734 108.587L334.434 106.731L342.53 101.049L342.716 101.55L334.471 102.089L333.562 100.789L336.867 93.2314L337.275 93.5656L329.18 99.2475L327.824 97.3721Z" fill="#231F20"/>
<path d="M339.93 116.256C339.455 115.429 339.158 114.512 339.058 113.564C338.948 112.649 339.018 111.722 339.262 110.834C339.517 109.946 339.939 109.114 340.506 108.383C341.094 107.628 341.826 106.997 342.66 106.527C343.49 106.054 344.405 105.751 345.352 105.635C346.26 105.519 347.181 105.582 348.063 105.821C348.949 106.056 349.781 106.46 350.515 107.009C351.276 107.591 351.909 108.324 352.371 109.163C352.86 109.979 353.164 110.892 353.263 111.837C353.372 112.745 353.302 113.666 353.058 114.548C352.803 115.437 352.381 116.269 351.814 116.999C351.232 117.76 350.499 118.392 349.66 118.856C348.836 119.342 347.918 119.652 346.968 119.766C346.054 119.881 345.127 119.818 344.238 119.58C343.359 119.334 342.534 118.924 341.806 118.373C341.044 117.801 340.406 117.081 339.93 116.256ZM341.787 115.142C342.196 115.909 342.806 116.551 343.551 116.999C344.27 117.404 345.086 117.603 345.91 117.575C346.812 117.545 347.693 117.29 348.472 116.832C349.065 116.495 349.594 116.055 350.032 115.532C350.433 115.061 350.73 114.51 350.904 113.917C351.089 113.316 351.14 112.682 351.053 112.06C350.972 111.404 350.757 110.772 350.422 110.203C349.995 109.418 349.35 108.773 348.565 108.346C347.856 107.934 347.045 107.728 346.225 107.752C345.329 107.784 344.454 108.039 343.681 108.495C343.085 108.836 342.552 109.275 342.103 109.795C341.707 110.279 341.405 110.833 341.212 111.429C341.033 112.03 340.982 112.663 341.063 113.285C341.178 113.953 341.438 114.587 341.824 115.142H341.787Z" fill="#231F20"/>
<path d="M344.312 123.907L356.939 118.058L357.886 120.119L345.278 125.968L344.312 123.907ZM347.525 130.814L350.96 123.87L352.557 125.466L348.732 133.432L347.525 130.814ZM350.329 122.848L352.037 122.05L353.522 125.244C353.629 125.519 353.789 125.77 353.993 125.984C354.197 126.197 354.441 126.368 354.711 126.488C354.965 126.601 355.24 126.659 355.518 126.659C355.797 126.659 356.072 126.601 356.326 126.488C356.829 126.264 357.223 125.85 357.422 125.336C357.519 125.054 357.556 124.755 357.531 124.457C357.505 124.16 357.417 123.871 357.273 123.61L355.788 120.397L357.644 119.562L359.186 122.867C359.526 123.586 359.691 124.375 359.669 125.169C359.643 125.885 359.418 126.58 359.018 127.175C358.609 127.768 358.044 128.237 357.385 128.53C356.728 128.87 355.984 129.006 355.249 128.92C354.568 128.831 353.925 128.554 353.392 128.122C352.781 127.619 352.293 126.984 351.963 126.265L350.329 122.848Z" fill="#231F20"/>
<path d="M349.159 134.565L362.157 129.607L362.974 131.742L349.976 136.7L349.159 134.565ZM349.734 136.032L351.591 135.289L354.377 142.568L352.52 143.31L349.734 136.032ZM355.416 133.859L357.273 133.154L359.817 139.801L357.961 140.507L355.416 133.859ZM360.764 131.817L362.714 131.074L365.462 138.26L363.512 139.003L360.764 131.817Z" fill="#231F20"/>
<path d="M350.774 145.687L353.597 146.207L354.005 146.839C353.845 146.81 353.689 146.76 353.541 146.69C353.479 146.663 353.423 146.622 353.378 146.57C353.333 146.519 353.3 146.459 353.281 146.393C353.236 146.239 353.223 146.077 353.242 145.917C353.261 145.758 353.312 145.604 353.392 145.465C353.473 145.301 353.588 145.158 353.729 145.042C353.87 144.927 354.034 144.843 354.21 144.796C354.391 144.717 354.587 144.677 354.785 144.677C354.983 144.677 355.179 144.717 355.361 144.796C355.543 144.877 355.707 144.997 355.838 145.148C355.97 145.299 356.067 145.477 356.122 145.669C356.187 145.851 356.21 146.046 356.191 146.238C356.171 146.431 356.11 146.617 356.011 146.783C355.926 146.967 355.803 147.13 355.649 147.262C355.495 147.393 355.314 147.49 355.12 147.544C354.928 147.61 354.727 147.641 354.525 147.637C354.202 147.628 353.879 147.597 353.56 147.544L350.533 146.969L350.774 145.687Z" fill="#231F20"/>
<path d="M355.75 153.727L369.287 150.552L369.825 152.762L356.27 155.956L355.75 153.727ZM356.122 155.25L358.146 154.786L358.981 158.332C359.164 159.189 359.568 159.982 360.151 160.635C360.708 161.239 361.421 161.676 362.212 161.897C363.077 162.121 363.985 162.121 364.849 161.897C365.704 161.71 366.497 161.308 367.152 160.728C367.761 160.172 368.205 159.459 368.433 158.667C368.657 157.827 368.657 156.944 368.433 156.104L367.579 152.558L369.621 152.075L370.476 155.696C370.694 156.627 370.738 157.59 370.605 158.537C370.462 159.43 370.147 160.288 369.677 161.062C369.202 161.841 368.57 162.511 367.82 163.03C367.061 163.586 366.195 163.978 365.276 164.181C364.358 164.402 363.405 164.44 362.472 164.293C361.587 164.151 360.74 163.829 359.984 163.346C359.217 162.863 358.554 162.232 358.034 161.489C357.484 160.706 357.093 159.823 356.883 158.889L356.122 155.25Z" fill="#231F20"/>
<path d="M359.613 173.818C359.465 172.877 359.516 171.916 359.762 170.996C360 170.102 360.41 169.263 360.968 168.526C361.521 167.78 362.215 167.149 363.011 166.669C363.839 166.183 364.753 165.861 365.703 165.722C366.645 165.584 367.604 165.634 368.526 165.871C369.414 166.105 370.252 166.502 370.996 167.041C371.736 167.586 372.366 168.267 372.852 169.046C373.345 169.863 373.661 170.774 373.781 171.72C373.929 172.661 373.878 173.622 373.632 174.542C373.397 175.428 372.993 176.26 372.443 176.993C371.883 177.74 371.183 178.371 370.383 178.85C369.563 179.34 368.654 179.662 367.709 179.797C366.761 179.936 365.796 179.885 364.868 179.649C363.978 179.419 363.139 179.022 362.398 178.479C361.667 177.924 361.039 177.245 360.541 176.474C360.052 175.662 359.736 174.758 359.613 173.818ZM361.767 173.465C361.87 174.328 362.21 175.144 362.751 175.824C363.263 176.467 363.945 176.956 364.719 177.235C365.571 177.534 366.483 177.616 367.374 177.476C368.025 177.373 368.653 177.16 369.231 176.845C369.774 176.536 370.253 176.126 370.642 175.638C371.017 175.16 371.289 174.61 371.441 174.023C371.583 173.414 371.614 172.785 371.534 172.166C371.429 171.313 371.095 170.504 370.568 169.826C370.055 169.182 369.374 168.694 368.6 168.415C367.755 168.115 366.848 168.032 365.963 168.173C365.281 168.268 364.622 168.482 364.014 168.805C363.46 169.097 362.973 169.502 362.584 169.993C362.212 170.48 361.941 171.035 361.785 171.627C361.66 172.233 361.654 172.857 361.767 173.465Z" fill="#231F20"/>
<path d="M361.21 192.609C361.166 191.654 361.318 190.7 361.656 189.805C361.986 188.957 362.478 188.182 363.104 187.521C363.742 186.862 364.506 186.338 365.351 185.98C366.226 185.603 367.165 185.395 368.117 185.368C369.071 185.328 370.023 185.473 370.921 185.795C371.78 186.1 372.569 186.573 373.242 187.187C373.913 187.803 374.461 188.54 374.858 189.36C375.258 190.236 375.479 191.183 375.508 192.145C375.558 193.145 375.4 194.144 375.043 195.079C374.704 195.901 374.22 196.656 373.614 197.307L371.998 195.822C372.444 195.39 372.787 194.863 373.001 194.28C373.246 193.622 373.354 192.921 373.317 192.219C373.304 191.577 373.158 190.945 372.889 190.362C372.645 189.804 372.277 189.309 371.813 188.914C371.351 188.501 370.806 188.191 370.215 188.004C369.562 187.795 368.877 187.701 368.192 187.726C367.511 187.75 366.84 187.888 366.205 188.134C365.622 188.368 365.092 188.715 364.645 189.155C364.221 189.583 363.892 190.096 363.679 190.659C363.46 191.253 363.36 191.884 363.382 192.516C363.395 193.252 363.552 193.978 363.847 194.652C364.115 195.211 364.494 195.71 364.961 196.119L363.457 197.716C362.786 197.097 362.243 196.353 361.86 195.524C361.448 194.607 361.227 193.615 361.21 192.609Z" fill="#231F20"/>
<path d="M361.581 197.957L375.229 204.27V205.867L361.098 210.936L361.21 208.467L372.648 204.512V205.347L361.507 200.371L361.581 197.957ZM364.143 200.891H366.13L365.815 208.318H363.828L364.143 200.891Z" fill="#231F20"/>
<path d="M359.947 219.794L366.52 215.671L367.04 217.881L359.613 222.653L359.947 219.794ZM360.857 212.218L374.653 213.87L374.393 216.136L360.578 214.483L360.857 212.218ZM366.427 214.464L368.284 214.687L367.876 218.178C367.761 218.769 367.881 219.382 368.21 219.886C368.387 220.105 368.606 220.286 368.855 220.417C369.104 220.548 369.378 220.626 369.658 220.648C370.2 220.717 370.747 220.57 371.181 220.239C371.412 220.05 371.602 219.816 371.739 219.551C371.877 219.286 371.958 218.996 371.979 218.698L372.388 215.189L374.356 215.411L373.929 219.125C373.857 219.924 373.582 220.691 373.131 221.353C372.728 221.939 372.177 222.407 371.534 222.709C370.87 223.006 370.136 223.109 369.417 223.006C368.68 222.939 367.977 222.662 367.393 222.207C366.84 221.772 366.427 221.185 366.205 220.518C365.94 219.768 365.863 218.964 365.982 218.178L366.427 214.464Z" fill="#231F20"/>
<path d="M359.074 225.383L361.136 225.772L359.669 233.423L357.626 233.033L359.074 225.383ZM359.372 223.841L373.038 226.441L372.611 228.688L358.945 226.088L359.372 223.841ZM365.072 226.515L367.04 226.887L365.703 233.887L363.735 233.515L365.072 226.515ZM370.642 227.592L372.685 227.982L371.255 235.539L369.194 235.149L370.642 227.592Z" fill="#231F20"/>
<path d="M356.363 238.529L369.677 242.577L369.212 244.081L358.425 246.847L358.722 245.863L366.149 254.163L365.685 255.686L352.371 251.638L353.04 249.447L362.51 252.325L362.231 252.789L356.66 246.625L357.124 245.102L365.109 243.059V243.579L355.658 240.701L356.363 238.529Z" fill="#231F20"/>
<path d="M348.936 259.697C349.3 258.808 349.837 258 350.515 257.32C351.173 256.677 351.948 256.166 352.798 255.816C353.655 255.471 354.568 255.288 355.491 255.277C356.449 255.277 357.397 255.473 358.276 255.853C359.167 256.204 359.976 256.735 360.653 257.413C361.296 258.067 361.812 258.835 362.176 259.678C362.529 260.519 362.718 261.421 362.732 262.333C362.747 263.285 362.557 264.228 362.176 265.1C361.829 265.988 361.297 266.792 360.616 267.458C359.968 268.105 359.198 268.616 358.35 268.962C357.494 269.307 356.581 269.49 355.658 269.501C354.702 269.499 353.756 269.309 352.873 268.944C351.984 268.579 351.176 268.043 350.496 267.365C349.846 266.716 349.329 265.947 348.973 265.1C348.605 264.262 348.409 263.359 348.398 262.445C348.393 261.502 348.576 260.568 348.936 259.697ZM350.979 260.476C350.63 261.276 350.508 262.156 350.626 263.02C350.742 263.834 351.083 264.599 351.61 265.23C352.195 265.916 352.942 266.446 353.783 266.771C354.406 267.038 355.073 267.189 355.751 267.217C356.384 267.238 357.016 267.131 357.607 266.901C358.174 266.678 358.687 266.336 359.111 265.898C359.576 265.431 359.943 264.876 360.189 264.264C360.549 263.468 360.684 262.588 360.578 261.721C360.454 260.909 360.114 260.146 359.594 259.511C359.02 258.821 358.279 258.29 357.441 257.97C356.811 257.7 356.138 257.549 355.454 257.524C354.821 257.493 354.188 257.594 353.597 257.821C353.027 258.049 352.508 258.39 352.074 258.824C351.6 259.294 351.227 259.856 350.979 260.476Z" fill="#231F20"/>
<path d="M342.14 274.607L349.734 273.029L349.456 275.275L340.822 277.132L342.14 274.607ZM345.631 267.811L357.998 274.161L356.958 276.204L344.572 269.854L345.631 267.811ZM350.161 271.915L351.833 272.769L350.236 275.888C349.934 276.404 349.842 277.015 349.976 277.596C350.059 277.865 350.197 278.114 350.383 278.325C350.568 278.536 350.797 278.706 351.053 278.822C351.293 278.951 351.556 279.03 351.827 279.056C352.098 279.081 352.372 279.052 352.631 278.971C352.913 278.877 353.171 278.724 353.389 278.522C353.607 278.321 353.779 278.075 353.894 277.801L355.509 274.644L357.273 275.554L355.621 278.785C355.279 279.523 354.755 280.162 354.098 280.642C353.52 281.057 352.84 281.308 352.13 281.366C351.407 281.402 350.689 281.241 350.05 280.902C349.383 280.579 348.817 280.077 348.416 279.453C348.056 278.848 347.876 278.152 347.896 277.448C347.915 276.657 348.119 275.881 348.491 275.183L350.161 271.915Z" fill="#231F20"/>
<path d="M339.374 279.565L341.23 280.642L337.219 287.308L335.363 286.231L339.374 279.565ZM340.191 278.209L352.093 285.395L350.923 287.364L339.002 280.178L340.191 278.209ZM344.61 282.703L346.318 283.743L342.604 289.833L340.896 288.793L344.61 282.703ZM349.493 285.674L351.35 286.751L347.376 293.324L345.519 292.247L349.493 285.674Z" fill="#231F20"/>
<path d="M333.246 288.923C333.352 288.759 333.491 288.618 333.654 288.509C333.817 288.401 334 288.327 334.193 288.292C334.576 288.224 334.969 288.311 335.288 288.533C335.61 288.75 335.837 289.083 335.92 289.462C335.957 289.651 335.956 289.846 335.914 290.035C335.873 290.224 335.792 290.402 335.678 290.557C335.581 290.725 335.446 290.869 335.286 290.978C335.125 291.088 334.942 291.16 334.75 291.189C334.561 291.227 334.365 291.225 334.176 291.183C333.988 291.142 333.81 291.061 333.654 290.947C333.493 290.842 333.355 290.705 333.246 290.546C333.138 290.387 333.062 290.208 333.023 290.019C332.976 289.831 332.972 289.636 333.011 289.446C333.049 289.256 333.129 289.078 333.246 288.923Z" fill="#231F20"/>
<path d="M323.2 302.571L324.704 303.871L322.086 306.898C321.869 307.11 321.705 307.37 321.605 307.656C321.505 307.943 321.472 308.249 321.51 308.55C321.567 309.108 321.84 309.622 322.272 309.98C322.551 310.218 322.881 310.39 323.237 310.481C323.595 310.584 323.975 310.584 324.333 310.481C324.729 310.338 325.08 310.095 325.354 309.776L327.972 306.749L329.458 308.067L327.062 310.816C326.702 311.185 326.49 311.674 326.468 312.19C326.476 312.442 326.541 312.69 326.657 312.915C326.772 313.139 326.936 313.336 327.137 313.489C327.314 313.668 327.53 313.805 327.768 313.888C328.006 313.972 328.26 314.001 328.511 313.972C329.017 313.873 329.471 313.596 329.792 313.192L332.187 310.444L333.691 311.744L331.259 314.548C330.768 315.171 330.13 315.662 329.402 315.978C328.81 316.203 328.168 316.261 327.545 316.145C326.943 316.018 326.381 315.744 325.911 315.346C325.389 314.896 325.025 314.291 324.871 313.619C324.712 312.877 324.764 312.105 325.02 311.391L325.429 312.004C324.67 312.407 323.816 312.593 322.959 312.542C322.14 312.486 321.363 312.159 320.749 311.614C320.225 311.16 319.828 310.578 319.598 309.924C319.402 309.232 319.402 308.499 319.598 307.808C319.813 306.963 320.234 306.184 320.824 305.542L323.2 302.571ZM324.221 301.383L334.731 310.519L333.227 312.245L322.736 303.11L324.221 301.383Z" fill="#231F20"/>
<path d="M315.253 311.447L316.72 312.914L311.149 318.484L309.664 316.999L315.253 311.447ZM319.561 315.754L320.991 317.184L315.959 322.198L314.529 320.786L319.561 315.754ZM316.367 310.333L326.19 320.174L324.575 321.789L314.752 311.948L316.367 310.333ZM323.609 319.802L325.076 321.288L319.728 326.71L318.243 325.243L323.609 319.802Z" fill="#231F20"/>
<path d="M302.849 322.996L307.306 328.381L305.542 329.829L301.085 324.444L302.849 322.996ZM306.155 327.471L315.643 330.442L313.619 332.132L306.192 329.699L307.139 328.919L308.123 336.737L306.117 338.408L304.873 328.567L306.155 327.471Z" fill="#231F20"/>
<path d="M291.597 331.389C292.378 330.837 293.262 330.445 294.196 330.238C295.098 330.062 296.025 330.062 296.926 330.238C297.835 330.399 298.705 330.733 299.489 331.222C300.301 331.733 301.001 332.403 301.549 333.19C302.113 333.966 302.505 334.852 302.701 335.79C302.877 336.691 302.877 337.618 302.701 338.52C302.55 339.42 302.229 340.283 301.754 341.063C301.249 341.869 300.586 342.564 299.804 343.106C299.025 343.651 298.149 344.042 297.223 344.257C296.322 344.433 295.395 344.433 294.493 344.257C293.584 344.096 292.714 343.762 291.931 343.273C291.13 342.754 290.437 342.086 289.888 341.305C289.327 340.526 288.929 339.642 288.719 338.705C288.543 337.804 288.543 336.877 288.719 335.976C288.866 335.074 289.188 334.21 289.666 333.432C290.169 332.631 290.825 331.937 291.597 331.389ZM292.897 333.246C292.185 333.701 291.613 334.344 291.244 335.103C290.904 335.852 290.782 336.683 290.891 337.498C291.003 338.395 291.349 339.247 291.894 339.968C292.273 340.533 292.759 341.018 293.324 341.398C293.842 341.745 294.422 341.99 295.032 342.122C295.644 342.247 296.276 342.247 296.889 342.122C297.558 341.982 298.191 341.704 298.746 341.305C299.451 340.843 300.021 340.202 300.398 339.448C300.729 338.696 300.851 337.868 300.751 337.053C300.635 336.166 300.296 335.323 299.767 334.602C299.371 334.039 298.881 333.549 298.319 333.153C297.806 332.794 297.224 332.548 296.61 332.429C295.999 332.294 295.365 332.294 294.754 332.429C294.091 332.54 293.459 332.786 292.897 333.153V333.246Z" fill="#231F20"/>
<path d="M279.75 339.002C280.598 338.492 281.565 338.216 282.554 338.204C283.497 338.186 284.427 338.423 285.247 338.891C286.101 339.38 286.808 340.092 287.289 340.952L291.634 348.379L289.666 349.53L285.321 342.103C285.026 341.569 284.598 341.121 284.077 340.803C283.593 340.521 283.04 340.379 282.48 340.395C281.908 340.411 281.352 340.578 280.865 340.877C280.363 341.157 279.941 341.56 279.639 342.047C279.361 342.525 279.226 343.073 279.249 343.625C279.261 344.229 279.434 344.819 279.75 345.334L284.096 352.761L282.127 353.912L277.782 346.485C277.265 345.648 276.989 344.684 276.984 343.7C276.973 342.767 277.217 341.849 277.69 341.044C278.179 340.19 278.891 339.484 279.75 339.002Z" fill="#231F20"/>
<path d="M266.177 346.355L273.177 349.66L271.618 351.276L263.578 347.562L266.177 346.355ZM274.199 349.01L275.016 350.718L271.859 352.241C271.308 352.474 270.865 352.905 270.615 353.448C270.522 353.715 270.487 353.999 270.513 354.281C270.538 354.563 270.624 354.836 270.763 355.082C270.872 355.328 271.03 355.55 271.228 355.732C271.427 355.914 271.66 356.053 271.915 356.14C272.198 356.235 272.499 356.269 272.796 356.24C273.094 356.211 273.381 356.121 273.642 355.973L276.817 354.432L277.69 356.289L274.422 357.886C273.709 358.246 272.918 358.424 272.119 358.406C271.406 358.398 270.709 358.186 270.114 357.793C269.51 357.392 269.029 356.833 268.721 356.178C268.378 355.521 268.23 354.78 268.294 354.042C268.364 353.36 268.635 352.713 269.074 352.185C269.562 351.555 270.2 351.057 270.931 350.737L274.199 349.01ZM273.029 343.013L279.101 355.528L277.04 356.53L270.986 344.015L273.029 343.013Z" fill="#231F20"/>
<path d="M259.121 349.177C260.004 348.773 260.975 348.6 261.943 348.676C262.848 348.766 263.722 349.052 264.506 349.512L263.652 351.536C263.095 351.161 262.46 350.919 261.795 350.83C261.097 350.771 260.395 350.886 259.752 351.164C259.143 351.381 258.612 351.776 258.23 352.297C258.079 352.511 257.987 352.76 257.961 353.02C257.935 353.28 257.976 353.543 258.081 353.782C258.229 354.161 258.496 354.48 258.842 354.692C259.199 354.88 259.592 354.987 259.994 355.008C260.458 355.036 260.923 355.036 261.386 355.008C261.869 355.008 262.37 355.008 262.89 355.008C263.385 355.004 263.879 355.067 264.357 355.194C264.838 355.317 265.284 355.553 265.657 355.881C266.103 356.298 266.447 356.812 266.66 357.385C266.95 358.07 267.028 358.827 266.883 359.557C266.718 360.258 266.365 360.9 265.861 361.414C265.302 361.978 264.631 362.421 263.893 362.714C263.113 363.042 262.269 363.188 261.424 363.141C260.671 363.09 259.937 362.881 259.269 362.528L260.124 360.504C260.601 360.761 261.125 360.918 261.665 360.968C262.174 361.006 262.684 360.917 263.15 360.708C263.686 360.525 264.153 360.182 264.487 359.724C264.614 359.531 264.69 359.309 264.709 359.079C264.729 358.849 264.691 358.618 264.599 358.406C264.462 358.056 264.205 357.767 263.874 357.589C263.523 357.436 263.144 357.353 262.761 357.348C262.297 357.32 261.832 357.32 261.368 357.348H259.864C259.362 357.331 258.863 357.256 258.378 357.125C257.881 356.974 257.424 356.714 257.041 356.363C256.593 355.916 256.245 355.378 256.02 354.785C255.794 354.273 255.687 353.716 255.706 353.157C255.725 352.597 255.871 352.05 256.131 351.554C256.799 350.419 257.864 349.572 259.121 349.177Z" fill="#231F20"/>
<path d="M251.452 352.316L252.121 354.284L244.694 356.735L244.044 354.748L251.452 352.316ZM253.309 358.109L253.941 359.966L247.2 362.194L246.569 360.337L253.309 358.109ZM255.166 363.531L255.816 365.518L248.519 367.932L247.869 365.945L255.166 363.531ZM252.957 351.814L257.32 365.017L255.148 365.741L250.784 352.539L252.957 351.814Z" fill="#231F20"/>
<path d="M240.701 355.658L241.221 357.682L234.165 359.539L233.645 357.533L240.701 355.658ZM242.205 355.268L245.696 368.73L243.468 369.306L239.996 355.825L242.205 355.268Z" fill="#231F20"/>
<path d="M231.677 363.939L232.067 365.982L225.104 367.3L224.714 365.257L231.677 363.939ZM232.754 369.695L233.144 371.738L225.865 373.13L225.475 371.088L232.754 369.695ZM232.104 357.793L234.685 371.459L232.457 371.886L229.858 358.22L232.104 357.793Z" fill="#231F20"/>
<path d="M217.992 360.3L219.144 374.152L217.565 374.282L211.011 365.295H212.032L207.074 375.266L205.496 375.396L204.326 361.544L206.61 361.34L207.427 371.199H206.907L210.621 363.772L212.218 363.642L217.082 370.308L216.581 370.494L215.746 360.634L217.992 360.3Z" fill="#231F20"/>
<path d="M195.58 361.247C196.532 361.261 197.473 361.463 198.347 361.841C199.185 362.216 199.943 362.753 200.575 363.419C201.228 364.08 201.733 364.871 202.06 365.74C202.415 366.625 202.586 367.573 202.562 368.526C202.568 369.486 202.365 370.436 201.968 371.311C201.601 372.151 201.078 372.913 200.427 373.558C199.778 374.199 199.008 374.704 198.161 375.043C197.278 375.401 196.329 375.572 195.376 375.544C194.423 375.539 193.481 375.337 192.609 374.95C191.773 374.578 191.017 374.049 190.381 373.39C189.745 372.727 189.247 371.945 188.914 371.088C188.559 370.197 188.389 369.243 188.413 368.284C188.41 367.326 188.606 366.378 188.989 365.499C189.365 364.66 189.894 363.898 190.548 363.252C191.201 362.612 191.97 362.101 192.813 361.748C193.691 361.392 194.633 361.221 195.58 361.247ZM195.58 363.438C194.711 363.396 193.848 363.602 193.092 364.032C192.38 364.44 191.795 365.038 191.402 365.759C190.968 366.55 190.745 367.438 190.753 368.34C190.731 369.022 190.838 369.703 191.068 370.345C191.28 370.927 191.601 371.463 192.015 371.924C192.437 372.37 192.941 372.729 193.501 372.982C194.091 373.224 194.72 373.356 195.357 373.372C196.218 373.393 197.07 373.188 197.827 372.778C198.534 372.371 199.118 371.781 199.517 371.069C199.95 370.279 200.174 369.39 200.167 368.488C200.188 367.8 200.08 367.114 199.851 366.464C199.644 365.875 199.322 365.332 198.904 364.868C198.48 364.429 197.976 364.076 197.418 363.828C196.839 363.571 196.213 363.439 195.58 363.438Z" fill="#231F20"/>
<path d="M184.644 366.929L184.458 368.786L180.967 368.47C180.674 368.42 180.373 368.428 180.083 368.495C179.793 368.562 179.519 368.686 179.277 368.86C179.059 369.038 178.881 369.261 178.756 369.515C178.631 369.768 178.562 370.045 178.553 370.327C178.52 370.595 178.543 370.866 178.62 371.125C178.696 371.384 178.825 371.624 178.999 371.831C179.192 372.057 179.431 372.241 179.7 372.369C179.968 372.497 180.261 372.566 180.559 372.574L184.086 372.908L183.901 374.876L180.28 374.542C179.482 374.491 178.71 374.242 178.033 373.818C177.426 373.437 176.943 372.889 176.64 372.239C176.326 371.587 176.198 370.861 176.269 370.141C176.325 369.405 176.582 368.698 177.012 368.099C177.439 367.533 178.019 367.101 178.683 366.854C179.426 366.588 180.219 366.493 181.004 366.576L184.644 366.929ZM179.073 360.486L183.362 366.947L181.171 367.523L176.195 360.226L179.073 360.486ZM186.668 361.191L185.386 375.043L183.121 374.839L184.384 360.987L186.668 361.191Z" fill="#231F20"/>
<path d="M171.646 371.46L171.312 373.502L163.717 372.277L164.051 370.216L171.646 371.46ZM172.556 365.796L172.24 367.783L165.221 366.65L165.537 364.664L172.556 365.796ZM173.521 359.78L173.206 361.841L165.518 360.597L165.834 358.536L173.521 359.78ZM175.081 360.04L172.853 373.762L170.606 373.391L172.815 359.669L175.081 360.04Z" fill="#231F20"/>
<path d="M164.645 355.862L162.789 358.053H162.027C162.126 357.923 162.245 357.81 162.38 357.719C162.511 357.665 162.658 357.665 162.789 357.719C162.946 357.752 163.094 357.819 163.222 357.915C163.35 358.011 163.456 358.134 163.531 358.276C163.632 358.427 163.699 358.598 163.728 358.777C163.757 358.957 163.747 359.141 163.698 359.316C163.665 359.511 163.592 359.698 163.483 359.864C163.374 360.03 163.233 360.172 163.067 360.281C162.903 360.394 162.719 360.472 162.524 360.51C162.329 360.549 162.128 360.547 161.934 360.504C161.743 360.461 161.562 360.379 161.402 360.264C161.243 360.149 161.108 360.004 161.006 359.836C160.895 359.668 160.82 359.479 160.784 359.281C160.749 359.083 160.755 358.88 160.802 358.684C160.841 358.487 160.917 358.298 161.025 358.127C161.194 357.85 161.38 357.584 161.582 357.329L163.587 355.008L164.645 355.862Z" fill="#231F20"/>
<path d="M153.728 355.695L153.115 357.682L149.624 356.623C148.795 356.336 147.906 356.266 147.043 356.419C146.244 356.598 145.511 356.997 144.926 357.57C144.3 358.2 143.846 358.98 143.607 359.836C143.33 360.674 143.279 361.571 143.459 362.435C143.636 363.237 144.027 363.975 144.592 364.571C145.199 365.194 145.962 365.643 146.802 365.87L150.292 366.929L149.698 368.934L146.133 367.857C145.214 367.585 144.356 367.137 143.607 366.539C142.896 365.978 142.308 365.276 141.881 364.478C141.446 363.692 141.175 362.827 141.082 361.934C140.992 360.996 141.087 360.05 141.361 359.149C141.623 358.246 142.065 357.406 142.66 356.679C143.233 355.982 143.941 355.407 144.74 354.989C145.535 354.567 146.406 354.308 147.303 354.228C148.254 354.145 149.212 354.246 150.125 354.525L153.728 355.695ZM155.231 356.141L151.202 369.454L149.011 368.804L153.04 355.491L155.231 356.141Z" fill="#231F20"/>
<path d="M135.902 349.4C136.787 349.751 137.59 350.283 138.26 350.96C138.914 351.612 139.432 352.389 139.783 353.244C140.154 354.086 140.343 354.997 140.339 355.918C140.352 356.879 140.169 357.833 139.801 358.721C139.453 359.609 138.928 360.418 138.26 361.098C137.609 361.742 136.848 362.263 136.013 362.639C135.175 363.006 134.272 363.201 133.358 363.215C132.404 363.232 131.456 363.055 130.572 362.695C129.687 362.344 128.885 361.813 128.215 361.135C127.567 360.492 127.05 359.729 126.692 358.889C126.34 358.034 126.151 357.12 126.135 356.196C126.122 355.235 126.306 354.281 126.673 353.392C127.029 352.504 127.56 351.696 128.233 351.016C128.871 350.356 129.635 349.832 130.48 349.474C131.317 349.106 132.22 348.911 133.135 348.899C134.083 348.864 135.027 349.035 135.902 349.4ZM135.104 351.443C134.309 351.1 133.434 350.984 132.578 351.108C131.765 351.239 131.002 351.585 130.368 352.111C129.691 352.707 129.168 353.459 128.846 354.302C128.585 354.927 128.44 355.594 128.419 356.27C128.397 356.904 128.504 357.536 128.734 358.127C128.976 358.689 129.323 359.199 129.756 359.631C130.228 360.08 130.783 360.434 131.39 360.671C132.185 361.011 133.057 361.133 133.915 361.024C134.722 360.893 135.479 360.546 136.106 360.021C136.782 359.439 137.305 358.699 137.629 357.867C137.899 357.233 138.044 356.552 138.056 355.862C138.087 355.229 137.986 354.597 137.759 354.005C137.531 353.436 137.182 352.923 136.737 352.501C136.266 352.038 135.703 351.677 135.085 351.443H135.104Z" fill="#231F20"/>
<path d="M118.8 341.342C119.657 341.802 120.409 342.434 121.01 343.198C121.579 343.913 122.002 344.734 122.254 345.612C122.499 346.494 122.568 347.415 122.458 348.323C122.353 349.268 122.063 350.183 121.604 351.016C121.138 351.873 120.507 352.63 119.747 353.244C119.053 353.826 118.252 354.267 117.389 354.544C116.52 354.819 115.605 354.92 114.697 354.841C113.74 354.749 112.812 354.464 111.967 354.005C111.076 353.558 110.29 352.925 109.665 352.148C109.112 351.446 108.696 350.646 108.439 349.79L110.537 349.159C110.691 349.759 110.976 350.317 111.373 350.793C111.818 351.338 112.375 351.781 113.007 352.093C113.577 352.417 114.21 352.613 114.864 352.668C115.49 352.749 116.126 352.679 116.72 352.464C117.309 352.264 117.852 351.949 118.317 351.536C118.824 351.074 119.245 350.528 119.561 349.92C119.879 349.341 120.099 348.714 120.211 348.063C120.306 347.444 120.268 346.811 120.1 346.207C119.949 345.62 119.67 345.075 119.283 344.61C118.874 344.111 118.369 343.701 117.797 343.403C117.158 343.036 116.45 342.802 115.718 342.716C115.089 342.669 114.457 342.751 113.861 342.957L113.23 340.859C114.105 340.583 115.026 340.482 115.941 340.562C116.936 340.633 117.907 340.898 118.8 341.342Z" fill="#231F20"/>
<path d="M114.047 339.021L101.717 347.637L100.381 346.782L103.11 331.928L105.19 333.265L102.85 345.148L102.145 344.684L112.004 337.647L114.047 339.021ZM110.221 339.764L109.145 341.435L102.943 337.443L104.02 335.771L110.221 339.764Z" fill="#231F20"/>
<path d="M97.2608 334.954L96.1284 336.458L93.3245 334.341C92.8661 333.95 92.2738 333.75 91.6717 333.784C91.3962 333.825 91.132 333.921 90.8956 334.068C90.6592 334.215 90.4556 334.409 90.2977 334.638C90.127 334.85 90.0012 335.094 89.9277 335.356C89.8543 335.618 89.8349 335.892 89.8706 336.161C89.9173 336.458 90.0258 336.742 90.1889 336.995C90.352 337.247 90.5661 337.463 90.8176 337.628L93.6401 339.763L92.4333 341.342L89.4808 339.151C88.8233 338.672 88.299 338.032 87.958 337.294C87.6462 336.648 87.5178 335.928 87.5868 335.214C87.6721 334.498 87.9477 333.819 88.3851 333.246C88.8198 332.646 89.411 332.177 90.0937 331.89C90.7549 331.631 91.4764 331.566 92.1731 331.705C92.9496 331.879 93.6788 332.221 94.3087 332.707L97.2608 334.954ZM102.07 331.24L93.6772 342.381L91.8204 341.007L100.213 329.866L102.07 331.24ZM95.9797 326.654L96.2209 334.397L94.0671 333.747L93.6772 324.909L95.9797 326.654Z" fill="#231F20"/>
<path d="M83.9103 331.946L82.5362 333.525L76.7241 328.474L78.0986 326.896L83.9103 331.946ZM87.6239 327.62L86.3057 329.143L80.9392 324.482L82.2579 322.959L87.6239 327.62ZM92.8046 324.055L83.6872 334.546L81.9605 333.042L91.0779 322.551L92.8046 324.055ZM91.616 323.015L90.2605 324.593L84.3745 319.487L85.7485 317.909L91.616 323.015Z" fill="#231F20"/>
<path d="M81.5893 314.065L71.3953 323.535L70.3182 322.365L73.3451 311.651L74.0505 312.412L63.1511 314.659L62.074 313.489L72.2494 304.02L73.8093 305.691L66.5674 312.431L66.3076 311.967L74.4032 310.296L75.4803 311.465L73.2336 319.413L72.7879 319.134L80.0294 312.394L81.5893 314.065Z" fill="#231F20"/>
<path d="M66.9941 297.001C67.5817 297.755 68.0115 298.62 68.2571 299.545C68.4827 300.443 68.5329 301.376 68.4053 302.293C68.2746 303.202 67.9721 304.078 67.5141 304.874C67.0453 305.703 66.4137 306.43 65.6572 307.009C64.905 307.6 64.0393 308.03 63.1136 308.272C62.2306 308.509 61.3099 308.572 60.4027 308.457C59.4963 308.349 58.6195 308.065 57.8215 307.622C56.9913 307.154 56.265 306.522 55.6863 305.765C55.1044 305.016 54.6808 304.157 54.4419 303.24C54.2013 302.351 54.1447 301.422 54.2751 300.51C54.4079 299.596 54.7101 298.714 55.1663 297.911C55.64 297.084 56.2708 296.359 57.0232 295.775C57.782 295.195 58.6455 294.766 59.5668 294.513C60.4562 294.276 61.3834 294.213 62.2967 294.327C63.2037 294.444 64.0796 294.734 64.8775 295.181C65.704 295.631 66.4253 296.251 66.9941 297.001ZM65.286 298.375C64.7795 297.67 64.0842 297.123 63.2804 296.797C62.5154 296.488 61.6801 296.398 60.8669 296.537C59.9771 296.692 59.1405 297.069 58.4344 297.632C57.8914 298.049 57.4262 298.558 57.0603 299.136C56.7336 299.662 56.5185 300.25 56.4288 300.863C56.3343 301.482 56.3659 302.114 56.5218 302.72C56.706 303.347 57.0085 303.933 57.413 304.447C57.9194 305.144 58.6064 305.689 59.4 306.025C60.1605 306.325 60.9881 306.415 61.7953 306.285C62.6794 306.129 63.5094 305.752 64.2089 305.189C64.7572 304.773 65.2285 304.264 65.6015 303.685C65.9336 303.158 66.1608 302.572 66.2701 301.958C66.3582 301.338 66.3202 300.707 66.1586 300.102C66.006 299.477 65.7281 298.889 65.3417 298.375H65.286Z" fill="#231F20"/>
<path d="M55.8169 291.931L54.2384 292.971L52.3816 290C52.0841 289.481 51.599 289.096 51.0261 288.923C50.7549 288.857 50.4721 288.852 50.1988 288.91C49.9255 288.968 49.6686 289.087 49.4476 289.257C49.2141 289.397 49.0116 289.582 48.852 289.802C48.6924 290.023 48.579 290.273 48.5192 290.539C48.4621 290.831 48.4658 291.131 48.5296 291.422C48.5935 291.713 48.7162 291.987 48.8905 292.228L50.7473 295.199L49.0764 296.276L47.108 293.231C46.6593 292.565 46.379 291.801 46.2911 291.003C46.225 290.289 46.3532 289.57 46.6624 288.923C46.9828 288.279 47.4784 287.738 48.0922 287.363C48.7016 286.946 49.4158 286.708 50.1535 286.676C50.8595 286.662 51.5549 286.848 52.1585 287.215C52.8422 287.629 53.4158 288.202 53.83 288.886L55.8169 291.931ZM61.6286 290.074L49.949 297.613L48.7051 295.756L60.3846 288.218L61.6286 290.074ZM57.4879 283.668L55.0553 291.096L53.1985 289.722L55.8722 281.31L57.4879 283.668Z" fill="#231F20"/>
<path d="M44.2482 284.504L42.3914 285.506L38.6777 278.766L40.5346 277.764L44.2482 284.504ZM55.3892 280.159L43.2088 286.881L42.1131 284.875L54.294 278.172L55.3892 280.159ZM49.2992 281.737L47.4424 282.703L44.0071 276.482L45.771 275.517L49.2992 281.737ZM54.6281 278.785L52.7713 279.806L49.0576 272.973L50.9144 271.97L54.6281 278.785Z" fill="#231F20"/>
<path d="M49.5774 268.814C49.6546 268.993 49.6944 269.186 49.6944 269.38C49.6944 269.575 49.6546 269.768 49.5774 269.947C49.5118 270.127 49.4108 270.292 49.28 270.433C49.1492 270.573 48.9915 270.685 48.8163 270.764C48.6374 270.841 48.4444 270.881 48.2496 270.881C48.0548 270.881 47.8622 270.841 47.6834 270.764C47.4998 270.705 47.3305 270.609 47.1866 270.481C47.0426 270.353 46.9274 270.196 46.8479 270.021C46.7708 269.842 46.731 269.649 46.731 269.455C46.731 269.26 46.7708 269.067 46.8479 268.888C46.9858 268.527 47.2587 268.234 47.6091 268.071C47.9599 267.893 48.3668 267.86 48.7419 267.978C48.9346 268.047 49.1096 268.157 49.2542 268.302C49.3987 268.446 49.5091 268.621 49.5774 268.814Z" fill="#231F20"/>
<path d="M42.7261 253.235L40.8693 253.866L39.5877 250.152C39.5044 249.859 39.3586 249.588 39.1598 249.357C38.961 249.126 38.7142 248.941 38.4367 248.815C37.9175 248.612 37.3402 248.612 36.821 248.815C36.4645 248.928 36.1442 249.133 35.8926 249.41C35.6345 249.678 35.4552 250.012 35.3731 250.375C35.3002 250.786 35.3383 251.209 35.4842 251.601L36.7657 255.314L34.9089 255.946L33.776 252.436C33.6363 251.939 33.3193 251.509 32.8848 251.229C32.6585 251.122 32.4109 251.066 32.1604 251.066C31.9099 251.066 31.6627 251.122 31.4364 251.229C31.1933 251.297 30.9678 251.417 30.7755 251.581C30.5831 251.744 30.4283 251.947 30.3221 252.176C30.1462 252.662 30.1462 253.194 30.3221 253.68L31.5108 257.134L29.6539 257.784L28.4653 254.256C28.1729 253.5 28.0772 252.682 28.1869 251.879C28.293 251.233 28.5756 250.629 29.0038 250.134C29.4079 249.673 29.9269 249.327 30.508 249.131C31.1644 248.909 31.8757 248.909 32.5321 249.131C33.2542 249.366 33.897 249.797 34.3889 250.375H33.6459C33.6799 249.511 33.9429 248.672 34.4075 247.943C34.8559 247.278 35.5073 246.777 36.2644 246.513C36.9209 246.286 37.6265 246.241 38.3066 246.383C39.0095 246.531 39.6545 246.879 40.1634 247.386C40.776 247.997 41.2287 248.749 41.4817 249.577L42.7261 253.235ZM43.2461 254.72L30.081 259.214L29.3384 257.041L42.5031 252.548L43.2461 254.72Z" fill="#231F20"/>
<path d="M27.6668 245.009L25.6432 245.548L23.6748 238.12L25.6985 237.582L27.6668 245.009ZM39.4951 243.524L26.0516 247.07L25.4573 244.861L38.9007 241.314L39.4951 243.524ZM33.2001 243.524L31.2504 244.025L29.3935 237.155L31.3433 236.635L33.2001 243.524ZM39.0866 241.964L37.0811 242.503L35.0941 234.964L37.0997 234.425L39.0866 241.964Z" fill="#231F20"/>
<path d="M29.8209 226.032L22.4861 232.754L22.0591 230.155L27.9269 224.881L28.1309 226.088L20.8709 223.006L20.4438 220.443L29.5607 224.473L29.8209 226.032ZM35.3914 225.438L28.4836 226.589L28.1124 224.324L35.0197 223.191L35.3914 225.438Z" fill="#231F20"/>
<path d="M33.7758 211.586C33.8614 212.539 33.7542 213.499 33.4602 214.409C33.1713 215.285 32.7176 216.098 32.1234 216.804C31.518 217.502 30.7872 218.082 29.9692 218.512C29.1239 218.96 28.1941 219.226 27.2397 219.292C26.2885 219.383 25.3287 219.282 24.4172 218.995C23.5418 218.713 22.7286 218.265 22.0219 217.677C21.3154 217.101 20.7342 216.387 20.3137 215.578C19.8656 214.739 19.594 213.816 19.5154 212.867C19.4298 211.921 19.537 210.967 19.8309 210.064C20.1055 209.185 20.5537 208.37 21.1492 207.668C21.7595 206.975 22.4893 206.396 23.3034 205.96C24.1547 205.527 25.0814 205.262 26.0329 205.18C26.9902 205.09 27.9561 205.191 28.8739 205.477C29.7494 205.759 30.5621 206.207 31.2689 206.796C31.965 207.381 32.5449 208.093 32.9774 208.894C33.4232 209.728 33.6947 210.644 33.7758 211.586ZM31.6034 211.828C31.5412 210.961 31.2461 210.127 30.7493 209.414C30.2747 208.752 29.6343 208.227 28.8925 207.891C28.0594 207.545 27.1517 207.418 26.2555 207.52C25.6104 207.58 24.9814 207.756 24.3987 208.04C23.8311 208.303 23.3249 208.683 22.9131 209.154C22.507 209.61 22.2031 210.148 22.0219 210.732C21.8389 211.333 21.776 211.964 21.8365 212.589C21.8896 213.443 22.1788 214.266 22.6719 214.966C23.1294 215.643 23.7747 216.172 24.5288 216.488C25.3549 216.836 26.2566 216.964 27.1467 216.86C27.8365 216.817 28.5114 216.64 29.1337 216.34C29.6937 216.072 30.1979 215.7 30.6192 215.244C31.0119 214.778 31.3141 214.243 31.5105 213.666C31.6637 213.034 31.6953 212.379 31.6034 211.735V211.828Z" fill="#231F20"/>
<path d="M33.1629 197.27C33.1806 198.254 32.9442 199.226 32.4761 200.092C32.0468 200.919 31.4061 201.617 30.6192 202.116C29.7684 202.613 28.8009 202.876 27.8154 202.877L19.1994 203.026V200.742L27.7968 200.593C28.4077 200.601 29.0097 200.447 29.5421 200.148C30.0264 199.869 30.4199 199.457 30.675 198.959C30.9475 198.452 31.0819 197.882 31.0649 197.307C31.0676 196.726 30.9137 196.155 30.6192 195.654C30.336 195.185 29.9318 194.8 29.4492 194.54C28.9091 194.268 28.308 194.14 27.7039 194.169L19.0884 194.299V192.015L27.7225 191.866C28.7069 191.847 29.6795 192.084 30.5449 192.553C31.3555 192.985 32.0354 193.626 32.5132 194.41C32.9912 195.285 33.2159 196.275 33.1629 197.27Z" fill="#231F20"/>
<path d="M33.0704 189.564L19.1995 188.525L19.3667 186.259L33.2372 187.28L33.0704 189.564ZM27.2955 187.559L25.4386 187.41L25.6984 183.919C25.7696 183.323 25.6175 182.721 25.2713 182.23C25.0896 182.018 24.8651 181.847 24.6122 181.728C24.3593 181.61 24.0836 181.547 23.8044 181.543C23.5325 181.516 23.2582 181.544 22.997 181.623C22.7357 181.703 22.493 181.833 22.2821 182.007C22.061 182.206 21.8836 182.45 21.7621 182.722C21.6406 182.993 21.5773 183.288 21.5763 183.585L21.3165 187.113L19.3296 186.965L19.5898 183.251C19.6344 182.449 19.8766 181.671 20.2952 180.986C20.6604 180.371 21.1958 179.874 21.8365 179.556C22.4805 179.237 23.2 179.102 23.9159 179.166C24.6564 179.199 25.3721 179.444 25.9772 179.872C26.5509 180.283 26.9953 180.85 27.2583 181.506C27.5482 182.249 27.6563 183.051 27.5738 183.845L27.2955 187.559ZM33.6271 181.988L27.2397 186.389L26.6268 184.217L33.8501 179.11L33.6271 181.988Z" fill="#231F20"/>
<path d="M34.7228 174.449C34.6102 175.412 34.273 176.334 33.7386 177.142C33.2066 177.9 32.5158 178.534 31.7145 178.999L30.3962 177.253C30.9741 176.973 31.4818 176.567 31.8818 176.065C32.2866 175.521 32.5424 174.881 32.6243 174.208C32.7441 173.581 32.6665 172.932 32.4017 172.351C32.2911 172.117 32.1218 171.915 31.9103 171.766C31.6989 171.616 31.4527 171.523 31.195 171.497C30.7932 171.435 30.382 171.507 30.0249 171.701C29.6851 171.911 29.3991 172.197 29.1894 172.537C28.9206 172.918 28.6843 173.322 28.4836 173.744C28.2794 174.189 28.0382 174.617 27.7782 175.062C27.5344 175.496 27.2348 175.895 26.887 176.25C26.5349 176.595 26.1098 176.855 25.6431 177.012C25.0451 177.214 24.4041 177.252 23.7862 177.123C23.0407 177.044 22.3388 176.733 21.7807 176.232C21.2527 175.728 20.879 175.084 20.7036 174.375C20.4908 173.614 20.4464 172.816 20.5735 172.036C20.6735 171.191 20.973 170.383 21.4466 169.677C21.8573 169.046 22.4024 168.513 23.0432 168.118L24.3615 169.975C23.9054 170.254 23.5083 170.62 23.1919 171.051C22.9066 171.479 22.7283 171.97 22.6719 172.481C22.5604 173.038 22.6255 173.616 22.8578 174.134C22.9601 174.338 23.1124 174.514 23.3007 174.644C23.489 174.774 23.7069 174.854 23.9345 174.876C24.3004 174.951 24.6811 174.878 24.993 174.672C25.3117 174.447 25.5777 174.156 25.7727 173.818C26.0285 173.432 26.2582 173.028 26.46 172.611C26.6828 172.166 26.924 171.738 27.1839 171.293C27.4367 170.856 27.7563 170.461 28.1309 170.123C28.5015 169.761 28.9536 169.494 29.4492 169.343C30.061 169.21 30.6943 169.21 31.306 169.343C31.8673 169.396 32.4086 169.58 32.8859 169.88C33.3632 170.179 33.7631 170.587 34.0541 171.07C34.6371 172.094 34.8719 173.28 34.7228 174.449Z" fill="#231F20"/>
<path d="M35.5212 167.784L21.9109 164.943L22.3751 162.714L35.9854 165.555L35.5212 167.784ZM24.2687 163.847L22.2264 163.42L23.8044 155.881L25.8471 156.308L24.2687 163.847ZM29.8392 164.998L27.8713 164.59L29.3196 157.627L31.2875 158.035L29.8392 164.998ZM35.8 166.243L33.7573 165.815L35.3543 158.202L37.3966 158.629L35.8 166.243Z" fill="#231F20"/>
<path d="M37.9165 156.772L24.5288 153.059L25.1417 150.868L38.5294 154.581L37.9165 156.772ZM38.3435 155.25L36.338 154.693L38.1948 147.692L40.2004 148.249L38.3435 155.25Z" fill="#231F20"/>
<path d="M40.8132 146.708L27.6853 142.103L28.4464 139.949L41.5558 144.554L40.8132 146.708ZM30.1736 141.305L28.2053 140.618L30.6564 133.618L32.6243 134.323L30.1736 141.305ZM35.7441 143.255L33.7758 142.568L36.1154 135.883L38.0838 136.57L35.7441 143.255Z" fill="#231F20"/>
<path d="M45.7151 133.246L33.1443 127.304L33.8129 125.875L44.9539 124.723L44.5083 125.652L38.3807 116.368L39.0493 114.938L51.6201 120.88L50.6546 122.941L41.7045 118.726L42.0572 118.317L46.5877 125.206L45.9195 126.636L37.6939 127.509L37.805 126.97L46.7364 131.204L45.7151 133.246Z" fill="#231F20"/>
<path d="M56.1509 113.397C55.676 114.211 55.045 114.924 54.294 115.495C53.5565 116.04 52.7164 116.432 51.8243 116.646C50.9264 116.872 49.9933 116.923 49.0762 116.795C48.1279 116.661 47.2176 116.332 46.4025 115.829C45.5775 115.361 44.8568 114.729 44.2854 113.972C43.7346 113.242 43.3369 112.409 43.1159 111.521C42.8752 110.638 42.8182 109.716 42.9486 108.81C43.067 107.861 43.3902 106.949 43.8956 106.136C44.368 105.32 44.9994 104.606 45.7524 104.038C46.4963 103.503 47.3341 103.113 48.2221 102.887C49.1213 102.667 50.0544 102.623 50.9702 102.757C51.9153 102.893 52.824 103.215 53.644 103.704C54.4615 104.182 55.1803 104.813 55.761 105.561C56.3143 106.299 56.7178 107.137 56.9492 108.03C57.171 108.916 57.2279 109.835 57.1165 110.741C56.9759 111.682 56.6475 112.585 56.1509 113.397ZM54.294 112.301C54.7447 111.562 54.9882 110.716 54.9994 109.85C54.9973 109.032 54.7729 108.229 54.3498 107.529C53.8929 106.767 53.2552 106.129 52.493 105.672C51.9215 105.323 51.2929 105.078 50.6361 104.948C50.0241 104.817 49.3913 104.817 48.7793 104.948C48.1807 105.082 47.6171 105.341 47.1265 105.709C46.602 106.104 46.1657 106.603 45.8453 107.176C45.3842 107.898 45.1336 108.734 45.1214 109.59C45.1153 110.415 45.3402 111.226 45.771 111.93C46.2215 112.697 46.8607 113.336 47.6278 113.787C48.1965 114.141 48.8262 114.386 49.4847 114.511C50.0977 114.632 50.7285 114.632 51.3415 114.511C51.9412 114.37 52.5047 114.104 52.9943 113.731C53.4844 113.336 53.8939 112.85 54.2011 112.301H54.294Z" fill="#231F20"/>
<path d="M60.6255 105.747L49.2991 97.6694L50.6174 95.8126L61.9438 103.89L60.6255 105.747ZM56.7264 101.049L55.1851 99.9533L57.2273 97.0752C57.4158 96.8464 57.5574 96.5826 57.6435 96.299C57.7295 96.0154 57.7583 95.7175 57.7287 95.4226C57.6924 95.1439 57.5934 94.8772 57.439 94.6424C57.2847 94.4076 57.0789 94.2109 56.8375 94.0671C56.4014 93.7411 55.8543 93.6009 55.3152 93.6772C55.0224 93.7352 54.7446 93.8523 54.4988 94.0216C54.2529 94.1908 54.0441 94.4086 53.8854 94.6613L51.8241 97.5394L50.2089 96.3882L52.3069 93.4358C52.7889 92.767 53.4261 92.2254 54.1637 91.8575C54.795 91.5374 55.4998 91.39 56.2064 91.4303C56.9318 91.4964 57.625 91.7598 58.2115 92.1917C58.8221 92.6084 59.3044 93.1871 59.6041 93.8628C59.8788 94.5129 59.9628 95.228 59.8458 95.924C59.7089 96.7047 59.3909 97.4423 58.9173 98.0778L56.7264 101.049ZM65.045 99.5262L57.3017 99.9904L57.9146 97.8179L66.716 97.1866L65.045 99.5262Z" fill="#231F20"/>
<path d="M67.4957 96.3139L56.7632 87.494L58.2116 85.73L68.9441 94.5499L67.4957 96.3139ZM59.363 87.6054L57.7474 86.2685L62.6311 80.3452L64.2463 81.6636L59.363 87.6054ZM63.7821 91.2262L62.2412 89.9636L66.7532 84.3931L68.2945 85.6743L63.7821 91.2262ZM68.4985 95.1071L66.8833 93.7887L71.8409 87.7725L73.438 89.0909L68.4985 95.1071Z" fill="#231F20"/>
<path d="M76.3526 89.4065L75.4056 86.7141L75.7402 86.0271C75.8103 86.1786 75.8479 86.343 75.8512 86.5099C75.8583 86.5804 75.8505 86.6516 75.8281 86.7188C75.8057 86.786 75.7696 86.8476 75.7216 86.8998C75.6094 87.0118 75.476 87.1007 75.3294 87.1612C75.1829 87.2217 75.0256 87.2527 74.867 87.2526C74.6858 87.2663 74.504 87.2402 74.3339 87.1761C74.1639 87.1119 74.0103 87.0113 73.8833 86.8813C73.7295 86.7533 73.6038 86.5948 73.5143 86.4158C73.4248 86.2369 73.3735 86.0413 73.3634 85.8415C73.3443 85.6415 73.3694 85.4396 73.4368 85.2503C73.5042 85.061 73.6121 84.8889 73.7532 84.7459C74.0187 84.4619 74.3861 84.295 74.7746 84.2817C74.9769 84.2692 75.1794 84.2973 75.3707 84.3643C75.562 84.4313 75.738 84.5358 75.8884 84.6717C76.0283 84.8262 76.1525 84.9941 76.2597 85.1729C76.4055 85.4565 76.536 85.7479 76.65 86.0457L77.6523 88.9609L76.3526 89.4065Z" fill="#231F20"/>
<path d="M80.8653 81.1062L71.3767 70.9308L73.0477 69.371L82.5363 79.5465L80.8653 81.1062ZM82.0163 80.0293L80.5865 78.5067L83.2603 76.0185C83.9183 75.4315 84.4113 74.6826 84.6901 73.846C84.9131 73.0568 84.9131 72.2213 84.6901 71.4321C84.4514 70.5809 84.0048 69.8024 83.3904 69.1667C82.8088 68.5025 82.0581 68.0085 81.218 67.7371C80.4288 67.514 79.5932 67.514 78.804 67.7371C77.9601 67.9504 77.1861 68.3791 76.5573 68.9811L73.8836 71.4878L72.4724 69.9652L75.1833 67.4213C75.8819 66.7625 76.7018 66.2454 77.5973 65.8987C78.4368 65.5711 79.3329 65.4134 80.2338 65.4345C81.1376 65.455 82.0278 65.6571 82.8518 66.0287C83.7085 66.4165 84.4787 66.9722 85.1171 67.6627C85.762 68.3474 86.2611 69.1561 86.5841 70.0395C86.9085 70.8791 87.0539 71.7771 87.0111 72.6762C86.976 73.5761 86.7616 74.46 86.3801 75.2758C85.9816 76.1414 85.4131 76.918 84.7086 77.5597L82.0163 80.0293Z" fill="#231F20"/>
<path d="M96.3696 67.7744C95.625 68.3709 94.7656 68.8071 93.8446 69.0557C92.9554 69.2957 92.0264 69.3526 91.1146 69.2228C90.1993 69.1168 89.3151 68.8262 88.5152 68.3686C87.6759 67.9062 86.9425 67.2738 86.3615 66.5118C85.765 65.7673 85.3285 64.9076 85.0799 63.9865C84.8363 63.1048 84.7671 62.1839 84.8759 61.2755C84.9689 60.3625 85.2468 59.4781 85.6928 58.676C86.1653 57.8491 86.7963 57.1234 87.5496 56.5406C88.2906 55.9428 89.1523 55.5121 90.0751 55.278C90.9565 55.0311 91.8792 54.9679 92.786 55.0922C93.6989 55.2096 94.5809 55.4995 95.3854 55.9464C96.2163 56.4209 96.948 57.0514 97.5396 57.8033C98.1325 58.5501 98.5682 59.409 98.8207 60.3285C99.0698 61.2156 99.1452 62.1424 99.0433 63.0581C98.9321 63.9639 98.6485 64.84 98.2078 65.6392C97.7533 66.4731 97.1267 67.2009 96.3696 67.7744ZM94.9956 66.0848C95.6904 65.5651 96.23 64.8651 96.5555 64.0608C96.8576 63.294 96.9409 62.4584 96.7966 61.6469C96.6255 60.7642 96.2435 59.936 95.6828 59.2331C95.2702 58.6865 94.7602 58.2207 94.1787 57.859C93.6407 57.543 93.049 57.3289 92.4333 57.2276C91.8121 57.142 91.1798 57.1863 90.5765 57.3576C89.9419 57.5375 89.3485 57.8403 88.8307 58.2489C88.1467 58.7672 87.6147 59.4598 87.2899 60.2543C86.9864 61.0143 86.9025 61.8443 87.0483 62.6496C87.2043 63.5336 87.5813 64.364 88.1439 65.0635C88.5717 65.6029 89.0864 66.0672 89.6667 66.4376C90.1999 66.7672 90.793 66.988 91.412 67.0874C92.0333 67.1715 92.6653 67.1272 93.2688 66.9574C93.9178 66.7952 94.5252 66.4979 95.0513 66.0848H94.9956Z" fill="#231F20"/>
<path d="M111.93 57.0234C111.112 57.5274 110.204 57.8679 109.256 58.026C108.359 58.1599 107.444 58.1158 106.564 57.896C105.676 57.675 104.842 57.2771 104.112 56.7262C103.366 56.151 102.736 55.4389 102.256 54.628C101.746 53.8155 101.394 52.9149 101.216 51.9727C101.049 51.0831 101.049 50.1701 101.216 49.2804C101.422 48.3896 101.793 47.5454 102.311 46.7922C102.874 46.0339 103.589 45.4014 104.41 44.9354C105.247 44.3877 106.189 44.0209 107.177 43.8584C108.063 43.7478 108.963 43.7981 109.832 44.007L109.33 46.1424C108.727 45.9722 108.093 45.9342 107.473 46.031C106.811 46.1626 106.181 46.4211 105.617 46.7922C105.063 47.1251 104.583 47.5674 104.205 48.092C103.856 48.5822 103.61 49.1381 103.481 49.7261C103.361 50.3391 103.361 50.9698 103.481 51.5829C103.633 52.2389 103.89 52.8659 104.243 53.4397C104.604 54.0211 105.062 54.5361 105.598 54.9623C106.089 55.3457 106.651 55.6294 107.251 55.7978C107.863 55.9293 108.496 55.9293 109.108 55.7978C109.766 55.6945 110.397 55.461 110.965 55.1108C111.601 54.7351 112.156 54.2365 112.598 53.6439C112.944 53.1334 113.184 52.5589 113.304 51.9543L115.439 52.4555C115.238 53.3478 114.866 54.1928 114.344 54.9437C113.694 55.7991 112.872 56.5077 111.93 57.0234Z" fill="#231F20"/>
<path d="M116.33 54.0525L115.049 39.0679L116.461 38.3438L127.88 48.1107L125.689 49.2434L116.572 41.259L117.315 40.869L118.485 52.9384L116.33 54.0525ZM117.612 50.3388L116.702 48.5749L123.256 45.1955L124.166 47.0523L117.612 50.3388Z" fill="#231F20"/>
<path d="M129.087 47.6091L123.684 34.7969L125.801 33.9057L131.204 46.7364L129.087 47.6091ZM128.251 41.5744L127.509 39.829L130.758 38.455C131.323 38.2617 131.789 37.8552 132.058 37.3223C132.172 37.0649 132.23 36.7866 132.23 36.5053C132.23 36.224 132.172 35.9457 132.058 35.6883C131.959 35.4363 131.812 35.2065 131.624 35.012C131.436 34.8176 131.211 34.6624 130.963 34.5555C130.681 34.4526 130.38 34.4078 130.081 34.4237C129.781 34.4397 129.487 34.5161 129.217 34.6485L125.967 36.0225L125.188 34.1657L128.549 32.7545C129.279 32.4358 130.075 32.2957 130.87 32.3459C131.579 32.4058 132.259 32.656 132.838 33.0701C133.423 33.5033 133.878 34.0875 134.156 34.7599C134.448 35.4378 134.557 36.1805 134.472 36.9137C134.356 37.6043 134.047 38.2481 133.581 38.7706C133.07 39.3548 132.436 39.8179 131.724 40.126L128.251 41.5744ZM136.125 44.6567L129.291 40.943L130.944 39.402L138.78 43.4869L136.125 44.6567Z" fill="#231F20"/>
<path d="M139.931 43.1529L135.438 29.988L137.591 29.2453L142.085 42.4103L139.931 43.1529ZM137.591 31.4549L136.923 29.4681L144.202 26.98L144.87 28.9668L137.591 31.4549ZM139.448 36.8584L138.798 35.0015L145.52 32.6989L146.17 34.5558L139.448 36.8584ZM141.472 42.6145L140.804 40.6463L148.231 38.121L148.9 40.1078L141.472 42.6145Z" fill="#231F20"/>
<path d="M154.173 38.4923L151.109 24.9187L152.65 24.5845L160.393 32.5874L159.372 32.8102L162.919 22.2634L164.478 21.9106L167.542 35.4656L165.314 35.9669L163.123 26.3299H163.661L161.025 34.1472L159.483 34.5L153.746 28.5767L154.21 28.3167L156.401 37.9723L154.173 38.4923Z" fill="#231F20"/>
<path d="M176.232 34.4812C175.281 34.6014 174.315 34.532 173.391 34.277C172.507 34.0252 171.68 33.6026 170.959 33.033C170.21 32.4676 169.579 31.761 169.102 30.9532C168.632 30.1225 168.329 29.2079 168.21 28.2609C168.074 27.3175 168.138 26.3559 168.396 25.4385C168.639 24.552 169.048 23.72 169.603 22.9874C170.144 22.2305 170.841 21.5975 171.646 21.1306C172.461 20.642 173.374 20.3379 174.32 20.2394C175.263 20.1032 176.225 20.1664 177.142 20.425C178.021 20.6801 178.846 21.0956 179.575 21.6506C180.324 22.2148 180.955 22.9216 181.431 23.7302C181.915 24.5562 182.225 25.4725 182.341 26.4226C182.467 27.3726 182.404 28.3381 182.155 29.2635C181.907 30.1511 181.491 30.983 180.93 31.7146C180.385 32.4611 179.697 33.0922 178.906 33.5714C178.088 34.0576 177.177 34.3675 176.232 34.4812ZM175.917 32.3088C176.782 32.2239 177.607 31.8956 178.293 31.3618C178.935 30.8508 179.429 30.1777 179.723 29.4121C180.03 28.5625 180.119 27.6498 179.983 26.7569C179.9 26.1067 179.699 25.4773 179.389 24.9C179.104 24.346 178.706 23.8587 178.219 23.4702C177.743 23.0841 177.193 22.7996 176.603 22.6346C175.965 22.483 175.305 22.4453 174.654 22.5232C173.796 22.6162 172.98 22.9439 172.296 23.4702C171.655 23.9437 171.16 24.5869 170.866 25.3271C170.544 26.1665 170.448 27.0756 170.587 27.9637C170.68 28.6116 170.881 29.2392 171.182 29.8206C171.468 30.3785 171.866 30.8716 172.351 31.2689C172.823 31.6566 173.375 31.9355 173.967 32.086C174.593 32.3012 175.258 32.3772 175.917 32.3088Z" fill="#231F20"/>
<path d="M184.941 33.3301L184.328 19.441L186.593 19.3296L187.224 33.2187L184.941 33.3301ZM186.241 27.3696V25.5128L189.75 25.3643C190.35 25.3725 190.93 25.1459 191.366 24.733C191.555 24.5266 191.699 24.2829 191.789 24.0175C191.878 23.7521 191.911 23.4707 191.885 23.1918C191.867 22.6425 191.633 22.1225 191.235 21.7435C191.01 21.5481 190.747 21.4011 190.463 21.3117C190.179 21.2223 189.879 21.1922 189.583 21.2235L186.055 21.3907V19.4039L189.769 19.2367C190.565 19.1894 191.362 19.336 192.09 19.6638C192.741 19.9531 193.295 20.4236 193.687 21.0193C194.084 21.622 194.308 22.322 194.336 23.0433C194.383 23.7844 194.222 24.5238 193.872 25.1786C193.532 25.797 193.023 26.3059 192.405 26.6456C191.699 27.0161 190.918 27.2193 190.121 27.2396L186.241 27.3696ZM192.572 32.9401L187.429 27.1282L189.527 26.2556L195.451 32.8101L192.572 32.9401Z" fill="#231F20"/>
<path d="M196.694 32.8847L197.028 18.9956H199.312L198.978 32.9033L196.694 32.8847ZM198.273 32.8847V30.8051L206.071 30.9907V33.0704L198.273 32.8847ZM198.402 26.7942V24.7889L205.514 24.956V26.9614L198.402 26.7942ZM198.533 21.0753V18.9771L206.22 19.1627V21.2423L198.533 21.0753Z" fill="#231F20"/>
<path d="M209.377 33.59C209.184 33.5805 208.995 33.5309 208.823 33.4446C208.65 33.3583 208.497 33.2371 208.374 33.0886C208.246 32.9423 208.15 32.771 208.093 32.5856C208.035 32.4001 208.017 32.2045 208.04 32.0116C208.064 31.6219 208.237 31.2563 208.522 30.9904C208.668 30.8617 208.839 30.7654 209.025 30.7078C209.21 30.6501 209.406 30.6326 209.599 30.6562C209.79 30.6655 209.977 30.7131 210.149 30.796C210.322 30.879 210.475 30.9956 210.602 31.139C210.731 31.2881 210.828 31.4627 210.885 31.6514C210.943 31.8401 210.96 32.0386 210.936 32.2345C210.927 32.4254 210.879 32.6126 210.796 32.7848C210.713 32.957 210.597 33.1108 210.453 33.2372C210.308 33.3682 210.138 33.4674 209.952 33.5281C209.767 33.5889 209.571 33.61 209.377 33.59Z" fill="#231F20"/>
</g>
<defs>
<clipPath id="clip0_1604_10904">
<rect width="394.41" height="394.41" fill="white"/>
</clipPath>
</defs>
</svg>
