<svg width="198" height="199" viewBox="0 0 198 199" fill="none" xmlns="http://www.w3.org/2000/svg">
<path d="M197.97 99.76C197.97 149.652 160.997 190.899 112.968 197.592C108.477 198.215 103.882 198.54 99.2182 198.54C93.8346 198.54 88.548 198.111 83.3997 197.281C36.3802 189.708 0.466797 148.925 0.466797 99.76C0.466797 45.2026 44.6838 0.972595 99.2251 0.972595C153.766 0.972595 197.983 45.2026 197.983 99.76H197.97Z" fill="black"/>
<path d="M112.968 80.296V101.816H139.581L135.367 130.804H112.968V197.592C108.477 198.215 103.882 198.54 99.2182 198.54C93.8347 198.54 88.548 198.111 83.3997 197.281V130.804H58.8555V101.816H83.3997V75.4854C83.3997 59.1501 96.6372 45.9018 112.975 45.9018V45.9157C113.023 45.9157 113.065 45.9018 113.113 45.9018H139.588V70.9724H122.289C117.147 70.9724 112.975 75.1463 112.975 80.2891L112.968 80.296Z" fill="white"/>
</svg>
