<svg width="24" height="24" viewBox="0 0 24 24" fill="none" xmlns="http://www.w3.org/2000/svg">
<path d="M12.0008 16.6435L12.3882 16.8778L16.5382 19.3878L16.5384 19.388C16.7278 19.5026 16.9598 19.3365 16.9096 19.1198L12.0008 16.6435ZM12.0008 16.6435L11.6131 16.8771L7.46306 19.3771L7.46172 19.378C7.27229 19.4926 7.04015 19.3263 7.09058 19.1095L8.1905 14.3898L8.29321 13.9491L7.95121 13.6528L4.28121 10.4728L4.28095 10.4725C4.11085 10.3253 4.20718 10.0541 4.41954 10.0372L4.41954 10.0372L4.42351 10.0369L9.25351 9.6269L9.70375 9.58868L9.88039 9.17277L11.7704 4.72278L11.7716 4.71986C11.8121 4.62345 11.8931 4.57208 12.0001 4.57208C12.107 4.57208 12.1881 4.62345 12.2285 4.71986L12.2295 4.72222L14.1195 9.18222L14.296 9.59864L14.7466 9.6369L19.5766 10.0469L19.5806 10.0472C19.793 10.0641 19.8893 10.3353 19.7192 10.4825L19.7189 10.4828L16.0489 13.6628L15.7069 13.9591L15.8096 14.3998L16.9096 19.1195L12.0008 16.6435Z" fill="#EBF490" stroke="black" stroke-width="1.5"/>
</svg>
