<svg width="198" height="199" viewBox="0 0 198 199" fill="none" xmlns="http://www.w3.org/2000/svg">
<path d="M99.2815 0.979553H98.8317C44.4151 0.979553 0.301758 45.1059 0.301758 99.5385V99.9884C0.301758 154.421 44.4151 198.547 98.8317 198.547H99.2815C153.698 198.547 197.811 154.421 197.811 99.9884V99.5385C197.811 45.1059 153.698 0.979553 99.2815 0.979553Z" fill="black"/>
<path d="M129.618 41.1743H68.5025C51.6184 41.1743 37.8828 54.914 37.8828 71.8031V127.731C37.8828 144.62 51.6184 158.36 68.5025 158.36H129.618C146.502 158.36 160.237 144.62 160.237 127.731V71.8031C160.237 54.914 146.502 41.1743 129.618 41.1743ZM48.6845 71.8031C48.6845 60.8736 57.5763 51.9791 68.5025 51.9791H129.618C140.544 51.9791 149.436 60.8736 149.436 71.8031V127.731C149.436 138.66 140.544 147.555 129.618 147.555H68.5025C57.5763 147.555 48.6845 138.66 48.6845 127.731V71.8031Z" fill="white"/>
<path d="M99.0602 128.25C114.761 128.25 127.542 115.472 127.542 99.76C127.542 84.0476 114.768 71.2701 99.0602 71.2701C83.3524 71.2701 70.5786 84.0476 70.5786 99.76C70.5786 115.472 83.3524 128.25 99.0602 128.25ZM99.0602 82.0818C108.81 82.0818 116.74 90.0142 116.74 99.7669C116.74 109.52 108.81 117.452 99.0602 117.452C89.3103 117.452 81.3803 109.52 81.3803 99.7669C81.3803 90.0142 89.3103 82.0818 99.0602 82.0818Z" fill="white"/>
<path d="M130.178 75.873C134.406 75.873 137.852 72.4329 137.852 68.1968C137.852 63.9607 134.413 60.5205 130.178 60.5205C125.943 60.5205 122.504 63.9607 122.504 68.1968C122.504 72.4329 125.943 75.873 130.178 75.873Z" fill="white"/>
</svg>
