<svg width="198" height="199" viewBox="0 0 198 199" fill="none" xmlns="http://www.w3.org/2000/svg">
<path d="M99.1236 0.650208H98.6738C44.2572 0.650208 0.143799 44.7766 0.143799 99.2092V99.6591C0.143799 154.092 44.2572 198.218 98.6738 198.218H99.1236C153.54 198.218 197.654 154.092 197.654 99.6591V99.2092C197.654 44.7766 153.54 0.650208 99.1236 0.650208Z" fill="black"/>
<path fillRule="evenodd" clipRule="evenodd" d="M89.8856 126.446C89.768 126.855 89.6573 127.201 89.5673 127.547C84.3429 148.021 83.7617 152.569 78.392 162.079C75.8317 166.599 72.9461 170.884 69.7562 174.982C69.3963 175.445 69.0572 176.041 68.3376 175.895C67.5487 175.729 67.4865 175.016 67.4034 174.386C66.5454 168.164 66.0679 161.927 66.2755 155.642C66.5454 147.461 67.5557 144.65 78.1013 100.296C78.2536 99.6175 78.0806 99.0569 77.8591 98.4478C75.3334 91.6368 74.8352 84.7219 77.0426 77.717C81.8172 62.5861 98.9643 61.4301 101.961 73.9101C103.808 81.6278 98.9228 91.7337 95.1723 106.671C92.0653 118.992 106.569 127.754 118.962 118.756C130.394 110.464 134.829 90.5846 133.985 76.4919C132.324 48.3964 101.525 42.3261 81.9902 51.3729C59.5911 61.7347 54.4982 89.5048 64.6148 102.199C65.895 103.812 68.3099 104.802 67.8878 106.435C67.2374 108.976 66.663 111.537 65.9572 114.063C65.4313 115.946 62.4351 116.631 60.5322 115.856C56.8024 114.347 53.6955 111.973 51.1767 108.844C42.5893 98.2054 40.1328 77.1634 51.4881 59.3467C64.0681 39.6128 87.4706 31.6251 108.839 34.0477C134.359 36.9479 150.489 54.3907 153.506 74.18C154.883 83.1922 153.893 105.418 141.244 121.13C126.692 139.182 103.102 140.38 92.2175 129.298C91.3803 128.447 90.7091 127.457 89.8856 126.439V126.446Z" fill="white"/>
</svg>
