<svg width="198" height="199" viewBox="0 0 198 199" fill="none" xmlns="http://www.w3.org/2000/svg">
<path d="M99.1236 0.979553H98.6738C44.2572 0.979553 0.143799 45.1059 0.143799 99.5385V99.9884C0.143799 154.421 44.2572 198.547 98.6738 198.547H99.1236C153.54 198.547 197.654 154.421 197.654 99.9884V99.5385C197.654 45.1059 153.54 0.979553 99.1236 0.979553Z" fill="black"/>
<path d="M146.641 72.4537V91.1078C143.382 90.7894 139.147 90.0488 134.462 88.3322C128.345 86.0896 123.792 83.0232 120.81 80.649V118.352L120.734 118.234C120.782 118.982 120.81 119.743 120.81 120.511C120.81 139.235 105.58 154.477 86.8548 154.477C68.13 154.477 52.8997 139.235 52.8997 120.511C52.8997 101.788 68.13 86.5395 86.8548 86.5395C88.6885 86.5395 90.4877 86.6848 92.2453 86.9686V105.353C90.5569 104.751 88.7439 104.425 86.8548 104.425C77.9906 104.425 70.7734 111.638 70.7734 120.511C70.7734 129.385 77.9906 136.598 86.8548 136.598C95.719 136.598 102.936 129.378 102.936 120.511C102.936 120.179 102.929 119.847 102.909 119.515V46.2479H121.543C121.613 47.826 121.675 49.4181 121.744 50.9962C121.869 54.1041 122.976 57.0873 124.906 59.5307C127.169 62.4033 130.511 65.7396 135.203 68.4044C139.597 70.8893 143.721 71.9622 146.641 72.4675V72.4537Z" fill="white"/>
</svg>
