<svg width="198" height="198" viewBox="0 0 198 198" fill="none" xmlns="http://www.w3.org/2000/svg">
<path d="M197.895 98.7669C197.895 44.3649 153.807 0.263306 99.4209 0.263306C45.0349 0.263306 0.946289 44.3649 0.946289 98.7669C0.946289 153.169 45.0349 197.27 99.4209 197.27C153.807 197.27 197.895 153.169 197.895 98.7669Z" fill="black"/>
<path d="M161.429 78.3546C160.654 70.8722 158.986 62.6007 152.848 58.2538C148.094 54.8829 141.846 54.7583 136.012 54.7652C123.681 54.7652 111.344 54.786 99.0127 54.7929C87.1523 54.8068 75.2918 54.8137 63.4314 54.8275C58.4769 54.8275 53.6608 54.4468 49.0592 56.5926C45.108 58.4338 42.0149 61.9362 40.1535 65.8331C37.5724 71.2529 37.0327 77.3925 36.7213 83.3867C36.147 94.3023 36.2093 105.246 36.8943 116.154C37.3994 124.114 38.6796 132.912 44.8312 137.986C50.284 142.478 57.9787 142.699 65.0506 142.706C87.4982 142.727 109.953 142.748 132.407 142.762C135.286 142.768 138.289 142.713 141.223 142.395C146.994 141.772 152.495 140.117 156.204 135.84C159.948 131.528 160.91 125.526 161.477 119.844C162.861 106.055 162.847 92.1358 161.429 78.3546ZM86.0313 118.092V79.4344L119.495 98.7599L86.0313 118.092Z" fill="white"/>
</svg>
