<svg width="138" height="35" viewBox="0 0 138 35" fill="none" xmlns="http://www.w3.org/2000/svg">
<g clip-path="url(#clip0_5128_9955)">
<mask id="mask0_5128_9955" style="mask-type:luminance" maskUnits="userSpaceOnUse" x="0" y="0" width="138" height="35">
<path d="M137.539 0H0.539062V35H137.539V0Z" fill="white"/>
</mask>
<g mask="url(#mask0_5128_9955)">
<path d="M53.2309 22.3577C50.8077 22.3577 49.0576 20.4645 49.0576 17.8952C49.0576 15.3258 50.8077 13.4327 53.2309 13.4327C55.2503 13.4327 56.8119 14.7308 57.2697 16.6781H60.1506C59.6121 13.2433 56.8658 10.8633 53.2309 10.8633C49.1922 10.8633 46.2305 13.8383 46.2305 17.8952C46.2305 21.952 49.1922 24.927 53.2309 24.927C56.8658 24.927 59.6121 22.547 60.1506 19.1122H57.2697C56.8119 21.0324 55.2503 22.3577 53.2309 22.3577Z" fill="#151531"/>
<path d="M63.9478 24.6594L65.0516 21.9549H72.1598L73.2638 24.6594H76.1716L70.6521 11.1367H66.6132L61.0938 24.6594H63.9478ZM66.0478 19.5208L68.4711 13.5708H68.7404L71.1635 19.5208H66.0478Z" fill="#151531"/>
<path d="M84.3802 22.3606C82.1993 22.3606 80.6107 20.6026 80.6107 18.1685V11.1367H77.918V18.1685C77.918 22.0631 80.6645 24.9299 84.3802 24.9299C88.0958 24.9299 90.8421 22.0631 90.8421 18.1685V11.1367H88.1497V18.1685C88.1497 20.6026 86.5611 22.3606 84.3802 22.3606Z" fill="#151531"/>
<path d="M100.399 22.4929C98.1378 22.4929 96.63 21.7356 96.63 20.5997H93.9375C93.9375 23.1961 96.5223 24.927 100.399 24.927C104.6 24.927 106.861 23.3854 106.861 20.5186C106.861 17.7599 104.977 16.5429 100.534 16.5429C97.9762 16.5429 96.8992 16.1372 96.8992 15.1095C96.8992 13.9195 98.1109 13.2974 100.399 13.2974C102.5 13.2974 103.9 14.0547 103.9 15.1906H106.592C106.592 12.5942 104.115 10.8633 100.399 10.8633C96.3607 10.8633 94.2067 12.3508 94.2067 15.1095C94.2067 17.8411 96.0376 18.977 100.292 18.977C102.984 18.977 104.169 19.4367 104.169 20.5186C104.169 21.7897 102.85 22.4929 100.399 22.4929Z" fill="#151531"/>
<path d="M111.471 24.6594L112.575 21.9549H119.683L120.787 24.6594H123.695L118.176 11.1367H114.137L108.617 24.6594H111.471ZM113.571 19.5208L115.995 13.5708H116.264L118.687 19.5208H113.571Z" fill="#151531"/>
<path d="M126.254 24.6594H137.024V22.2254H128.946V11.1367H126.254V24.6594Z" fill="#151531"/>
<path fill-rule="evenodd" clip-rule="evenodd" d="M17.961 35C27.5829 35 35.383 27.165 35.383 17.5C35.383 7.83501 27.5829 0 17.961 0C8.33914 0 0.539062 7.83501 0.539062 17.5C0.539062 27.165 8.33914 35 17.961 35ZM17.961 28.4579C23.9859 28.4579 28.8701 23.5519 28.8701 17.5C28.8701 11.4481 23.9859 6.54206 17.961 6.54206C11.9361 6.54206 7.05194 11.4481 7.05194 17.5C7.05194 23.5519 11.9361 28.4579 17.961 28.4579Z" fill="#151531"/>
</g>
</g>
<defs>
<clipPath id="clip0_5128_9955">
<rect width="138" height="35" fill="white"/>
</clipPath>
</defs>
</svg>
