<svg width="1720" height="1120" viewBox="0 0 1720 1120" fill="none" xmlns="http://www.w3.org/2000/svg">
<mask id="mask0_8728_195596" style="mask-type:alpha" maskUnits="userSpaceOnUse" x="0" y="0" width="1727" height="1120">
<rect width="1727" height="1120" fill="url(#paint0_radial_8728_195596)"/>
</mask>
<g mask="url(#mask0_8728_195596)">
<line y1="55.5" x2="1728" y2="55.5" stroke="#6868F7"/>
<line y1="111.5" x2="1728" y2="111.5" stroke="#6868F7"/>
<line y1="167.5" x2="1728" y2="167.5" stroke="#6868F7"/>
<line y1="223.5" x2="1728" y2="223.5" stroke="#6868F7"/>
<line y1="279.5" x2="1728" y2="279.5" stroke="#6868F7"/>
<line y1="335.5" x2="1728" y2="335.5" stroke="#6868F7"/>
<line y1="391.5" x2="1728" y2="391.5" stroke="#6868F7"/>
<line y1="447.5" x2="1728" y2="447.5" stroke="#6868F7"/>
<line y1="503.5" x2="1728" y2="503.5" stroke="#6868F7"/>
<line y1="559.5" x2="1728" y2="559.5" stroke="#6868F7"/>
<line y1="615.5" x2="1728" y2="615.5" stroke="#6868F7"/>
<line y1="671.5" x2="1728" y2="671.5" stroke="#6868F7"/>
<line y1="727.5" x2="1728" y2="727.5" stroke="#6868F7"/>
<line y1="783.5" x2="1728" y2="783.5" stroke="#6868F7"/>
<line y1="839.5" x2="1728" y2="839.5" stroke="#6868F7"/>
<line y1="895.5" x2="1728" y2="895.5" stroke="#6868F7"/>
<line y1="951.5" x2="1728" y2="951.5" stroke="#6868F7"/>
<line y1="1007.5" x2="1728" y2="1007.5" stroke="#6868F7"/>
<line y1="1063.5" x2="1728" y2="1063.5" stroke="#6868F7"/>
<line y1="1119.5" x2="1728" y2="1119.5" stroke="#6868F7"/>
<line x1="263.5" y1="3" x2="263.5" y2="1120" stroke="#6868F7"/>
<line x1="343.5" y1="3" x2="343.5" y2="1120" stroke="#6868F7"/>
<line x1="423.5" y1="3" x2="423.5" y2="1120" stroke="#6868F7"/>
<line x1="503.5" y1="3" x2="503.5" y2="1120" stroke="#6868F7"/>
<line x1="583.5" y1="3" x2="583.5" y2="1120" stroke="#6868F7"/>
<line x1="663.5" y1="3" x2="663.5" y2="1120" stroke="#6868F7"/>
<line x1="743.5" y1="3" x2="743.5" y2="1120" stroke="#6868F7"/>
<line x1="823.5" y1="3" x2="823.5" y2="1120" stroke="#6868F7"/>
<line x1="903.5" y1="3" x2="903.5" y2="1120" stroke="#6868F7"/>
<line x1="983.5" y1="3" x2="983.5" y2="1120" stroke="#6868F7"/>
<line x1="1063.5" y1="3" x2="1063.5" y2="1120" stroke="#6868F7"/>
<line x1="1143.5" y1="3" x2="1143.5" y2="1120" stroke="#6868F7"/>
<line x1="1223.5" y1="3" x2="1223.5" y2="1120" stroke="#6868F7"/>
<line x1="1303.5" y1="3" x2="1303.5" y2="1120" stroke="#6868F7"/>
<line x1="1383.5" y1="3" x2="1383.5" y2="1120" stroke="#6868F7"/>
<line x1="1463.5" y1="3" x2="1463.5" y2="1120" stroke="#6868F7"/>
<line x1="184.501" y1="3" x2="184.501" y2="1120" stroke="#6868F7"/>
<line x1="1704.5" y1="3" x2="1704.5" y2="1120" stroke="#6868F7"/>
<line x1="104.501" y1="3" x2="104.501" y2="1120" stroke="#6868F7"/>
<line x1="1624.5" y1="3" x2="1624.5" y2="1120" stroke="#6868F7"/>
<line x1="24.501" y1="3" x2="24.5009" y2="1120" stroke="#6868F7"/>
<line x1="1544.5" y1="3" x2="1544.5" y2="1120" stroke="#6868F7"/>
</g>
<defs>
<radialGradient id="paint0_radial_8728_195596" cx="0" cy="0" r="1" gradientUnits="userSpaceOnUse" gradientTransform="translate(864 512.5) rotate(90) scale(470 860.654)">
<stop stop-color="#C4C4C4"/>
<stop offset="1" stop-color="#C4C4C4" stop-opacity="0.03"/>
</radialGradient>
</defs>
</svg>
