<svg width="91" height="20" viewBox="0 0 91 20" fill="none" xmlns="http://www.w3.org/2000/svg">
<g clip-path="url(#clip0_5128_9911)">
<path d="M82.5429 6H84.9954V14.4516H90.6704V16.561H82.5429V6ZM76.7824 6L81.3454 16.561H78.7644L77.8374 14.3661H72.8612L71.9201 16.561H69.3963L73.9877 6H76.7824ZM73.731 12.3423H76.9679L75.3565 8.56541L73.731 12.3423ZM68.498 6V8.10934H62.0673V10.1332H67.671V12.1998H62.0673V14.4516H68.498V16.561H59.6433V6H68.498ZM51.2734 16.561L46.7249 6H49.3913L52.6565 13.7248L55.936 6H58.5169L53.9541 16.561H51.2734ZM45.9406 6V8.10934H39.4957V10.1332H45.0994V12.1998H39.4957V14.4516H45.9264V16.561H37.0859V6H45.9406ZM27.9603 16.561H25.5078V6H31.0972C33.564 6 35.161 7.19719 35.161 9.39204C35.161 10.9741 34.3055 12.0715 32.8511 12.5418L35.4462 16.5467H32.6372L30.2845 12.8126H27.9603V16.561ZM30.9689 10.803C32.1381 10.803 32.7512 10.29 32.7512 9.4348C32.7512 8.56541 32.1239 8.06658 30.9689 8.06658H27.9745V10.803H30.9689Z" fill="#151531"/>
<path d="M8.22444 1.52154V3.42805C5.53214 3.6847 3.42993 5.95784 3.42993 8.70759C3.42993 11.1274 5.05269 13.1622 7.28399 13.8038L1.51212 17.4335V8.68929C1.51212 4.89459 4.46259 1.77819 8.22444 1.52154ZM8.22444 18.4968H1.77029L8.22444 14.4088V18.4968ZM9.27554 14.4271L15.7297 18.5151H9.27554V14.4271ZM8.22444 12.9056C6.12224 12.6489 4.48103 10.8524 4.48103 8.68929C4.48103 6.52614 6.12224 4.72961 8.22444 4.47296V12.9056ZM9.27554 4.47296C11.3778 4.72961 13.019 6.52614 13.019 8.68929C13.019 10.8524 11.3778 12.6489 9.27554 12.9056V4.47296ZM15.9879 8.68929V17.4335L10.216 13.7855C12.4289 13.1439 14.0701 11.1091 14.0701 8.68929C14.0701 5.93949 11.9678 3.6847 9.27554 3.40972V1.52154C13.019 1.77819 15.9879 4.89459 15.9879 8.68929ZM8.74079 0C3.92782 0 0 3.90468 0 8.68929V20H17.5V8.68929C17.5 3.90468 13.5722 0 8.74079 0Z" fill="#151531"/>
</g>
<defs>
<clipPath id="clip0_5128_9911">
<rect width="91" height="20" fill="white"/>
</clipPath>
</defs>
</svg>
