<svg width="130" height="36" viewBox="0 0 130 36" fill="none" xmlns="http://www.w3.org/2000/svg">
<g clip-path="url(#clip0_13483_818)">
<path d="M2.00716 0.722315C1.17569 0.924715 0.472851 1.65152 0.298289 2.48872C0.224789 2.83372 0.224789 33.1201 0.298289 33.4651C0.477445 34.3253 1.21704 35.0659 2.07607 35.2453C2.4206 35.3189 32.6658 35.3189 33.0103 35.2453C33.8694 35.0659 34.609 34.3253 34.7881 33.4651C34.8616 33.1201 34.8616 2.83372 34.7881 2.48872C34.609 1.62852 33.8694 0.887915 33.0103 0.708517C32.6383 0.630316 2.33332 0.644114 2.00716 0.722315ZM30.5894 4.85312C30.8605 4.97732 30.8421 4.02052 30.8421 18.0919C30.8421 32.1633 30.8605 31.2065 30.5894 31.3307C30.4976 31.3721 27.4703 31.3859 17.5616 31.3859C3.51391 31.3859 4.46941 31.4043 4.34538 31.1329C4.2581 30.9489 4.26729 5.18892 4.35457 5.03252C4.49238 4.78872 3.65632 4.80252 17.5524 4.79792C27.4749 4.79792 30.4976 4.81172 30.5894 4.85312Z" fill="black"/>
<path d="M15.1309 10.939V13.078H13.9595H12.7881V14.274V15.47H13.9595H15.1263L15.1446 20.0332C15.1584 24.9598 15.163 24.9966 15.4111 25.7418C15.8934 27.1862 17.5334 27.7336 20.4596 27.43C20.7261 27.4024 20.9879 27.3702 21.0476 27.3564L21.1487 27.338V26.1144C21.1487 24.9644 21.1441 24.8908 21.0706 24.923C20.9236 24.9874 19.4214 25.0058 19.1826 24.9506C18.6864 24.8264 18.4246 24.4906 18.3465 23.8742C18.3235 23.6902 18.3006 21.7444 18.3006 19.5088V15.47L19.7154 15.4608L21.1257 15.447L21.1395 14.2602L21.1487 13.078H19.7246H18.3006V10.939V8.80005H16.7157H15.1309V10.939Z" fill="black"/>
<path d="M51.0086 8.24794V11.0999H49.4238H47.8389V12.6639V14.2279H49.4238H51.004L51.0224 20.2401C51.0362 26.1465 51.0362 26.2661 51.1373 26.8549C51.2705 27.6691 51.344 27.9405 51.5599 28.3729C52.0606 29.3987 53.0483 29.9829 54.6698 30.2175C55.4738 30.3371 56.9851 30.3279 58.1014 30.1991C58.5791 30.1439 58.9788 30.0979 58.9834 30.0979C58.9926 30.0979 59.0018 29.3619 59.0018 28.4603C59.0018 26.9331 58.9972 26.8227 58.9237 26.8503C58.7123 26.9331 58.0417 26.9791 57.2883 26.9607C56.5625 26.9423 56.4155 26.9239 56.1904 26.8365C55.6437 26.6249 55.3727 26.1971 55.2808 25.4151C55.2533 25.1713 55.2349 22.9219 55.2349 19.6191V14.2279H57.1183H59.0018V12.6639V11.0999H57.1183H55.2349V8.24794V5.39594H53.1218H51.0086V8.24794Z" fill="black"/>
<path d="M101.356 8.24794V11.0999H99.7713H98.1865V12.6639V14.2279H99.7713H101.351L101.37 20.2401C101.384 26.1925 101.384 26.2615 101.485 26.8871C101.54 27.2321 101.632 27.6599 101.682 27.8301C102.1 29.1963 103.148 29.9461 105.017 30.2175C105.821 30.3371 107.332 30.3279 108.449 30.1991C108.926 30.1439 109.326 30.0979 109.331 30.0979C109.34 30.0979 109.349 29.3619 109.349 28.4603C109.349 27.0757 109.34 26.8273 109.285 26.8457C109.064 26.9331 108.389 26.9791 107.64 26.9607C106.901 26.9423 106.767 26.9285 106.529 26.8319C105.986 26.6203 105.72 26.2017 105.628 25.4151C105.601 25.1713 105.582 22.9219 105.582 19.6191V14.2279H107.466H109.349V12.6639V11.0999H107.466H105.582V8.24794V5.39594H103.469H101.356V8.24794Z" fill="black"/>
<path d="M68.9006 10.5801C65.4185 10.6859 63.0711 11.7117 61.7343 13.7219C61.4174 14.1957 61.3117 14.4119 61.1096 15.0099C60.9764 15.4009 60.8202 16.1369 60.7742 16.6291L60.7467 16.8959H62.8506H64.9545L65.0372 16.4819C65.1796 15.7735 65.5425 15.1617 66.0387 14.7845C66.8701 14.1543 68.0507 13.8599 69.4978 13.9197C70.9953 13.9841 71.7809 14.2371 72.4194 14.8719C72.8834 15.3273 73.0579 15.7643 73.0579 16.4451C73.0579 17.1397 72.8971 17.5721 72.5021 17.9263C71.96 18.4139 71.2066 18.6439 69.4978 18.8279C69.043 18.8785 68.3631 18.9705 67.9818 19.0349C67.6051 19.0947 67.1182 19.1683 66.9023 19.1959C66.6864 19.2235 66.204 19.2971 65.8228 19.3615C63.5994 19.7387 62.3912 20.2585 61.4311 21.2475C60.4848 22.2273 60.0576 23.4095 60.0576 25.0609C60.0576 27.5909 61.4311 29.4171 63.9485 30.2359C64.8719 30.5395 65.4277 30.6177 66.5807 30.6223C67.7292 30.6223 68.2666 30.5579 69.4059 30.2727C70.8805 29.9047 71.9233 29.4033 72.8145 28.6351L73.1406 28.3545L73.2417 28.6857C73.5495 29.7023 74.1375 30.2451 75.24 30.5211C75.5891 30.6085 75.7728 30.6223 76.4114 30.6223C77.2015 30.6177 77.7298 30.5395 78.6761 30.2773L79.0298 30.1807V28.7225V27.2689L78.3453 27.2827C77.7206 27.2965 77.6471 27.2919 77.4725 27.1999C77.2336 27.0803 77.1188 26.8503 77.0545 26.3627C77.0315 26.1695 77.0085 23.8005 77.0085 20.7461C77.0085 15.5987 77.004 15.4515 76.9121 14.9961C76.7191 14.0301 76.3654 13.3907 75.612 12.6363C75.1021 12.1303 74.7025 11.8451 74.0318 11.5093C72.741 10.8745 70.807 10.5203 68.9006 10.5801ZM72.819 22.4481C72.7961 24.4859 72.7869 24.5457 72.4745 25.1437C72.2632 25.5393 71.7303 26.1143 71.3123 26.3949C70.4027 27.0021 69.36 27.2919 68.1013 27.2919C67.3892 27.2919 66.6818 27.1953 66.1903 27.0389C65.3312 26.7583 64.6835 26.2523 64.4125 25.6543C64.2747 25.3415 64.2425 24.5871 64.3482 24.0995C64.5779 23.0737 65.3542 22.3423 66.6037 21.9835C67.3525 21.7673 68.772 21.5235 70.1639 21.3809C71.271 21.2659 72.0427 21.0589 72.5756 20.7415C72.6766 20.6817 72.7777 20.6265 72.7961 20.6265C72.819 20.6219 72.8282 21.4453 72.819 22.4481Z" fill="black"/>
<path d="M88.3327 10.5986C84.4327 10.7964 81.511 13.0182 80.3167 16.6982C79.1452 20.3092 79.6138 24.4308 81.5018 27.108C81.8969 27.6646 82.834 28.6076 83.3945 29.0032C83.9641 29.4126 85.0344 29.9508 85.6776 30.1624C87.3727 30.7098 89.5639 30.8018 91.36 30.397C94.2081 29.753 96.1926 27.8992 97.1527 24.9736C97.3549 24.3618 97.6351 23.2256 97.6351 23.0186C97.6351 22.9818 97.0701 22.968 95.5266 22.968H93.4226L93.3905 23.2072C93.3032 23.8788 92.9081 24.9276 92.5314 25.4842C92.3109 25.8108 91.7689 26.3582 91.4611 26.5652C91.1166 26.8044 90.5286 27.0758 90.1473 27.177C89.6925 27.2966 88.4522 27.3242 87.9193 27.223C87.0878 27.0666 86.408 26.7078 85.7373 26.0684C84.4602 24.8448 83.8355 22.8622 83.9136 20.3C83.9595 18.9338 84.1065 18.0828 84.451 17.2042C85.0804 15.5896 86.1094 14.5546 87.4691 14.159C88.8656 13.7542 90.1748 13.8324 91.3187 14.389C92.1501 14.7938 92.6049 15.2446 92.9954 16.045C93.2021 16.4682 93.4088 17.1214 93.4088 17.3514C93.4088 17.448 93.4134 17.448 95.5266 17.448H97.6443L97.6121 17.1582C97.5019 16.1232 97.1619 15.079 96.6796 14.274C95.1545 11.7394 92.1318 10.41 88.3327 10.5986Z" fill="black"/>
<path d="M119.409 10.5985C117.93 10.6767 116.69 11.0033 115.413 11.6565C114.549 12.1027 114.025 12.4845 113.3 13.2159C112.537 13.9795 112.17 14.4901 111.692 15.4469C111.145 16.5463 110.833 17.5859 110.649 18.9199C110.543 19.7157 110.543 21.4821 110.649 22.2733C111.141 25.8199 112.822 28.3177 115.642 29.6793C116.57 30.1301 117.498 30.3969 118.697 30.5671C119.331 30.6591 121.146 30.6407 121.798 30.5441C124.66 30.1025 126.856 28.7133 128.262 26.4639C128.813 25.5761 129.268 24.3801 129.511 23.1703C129.823 21.6247 129.828 19.5731 129.516 18.0459C129.065 15.8287 128.036 14.0025 126.516 12.7237C124.651 11.1597 122.276 10.4467 119.409 10.5985ZM121.339 14.0209C122.942 14.3705 124.288 15.6079 124.968 17.3421C125.409 18.4691 125.62 19.9779 125.519 21.2889C125.367 23.2439 124.747 24.7941 123.682 25.8705C122.992 26.5697 122.184 27.0159 121.247 27.2091C120.645 27.3333 119.345 27.3057 118.789 27.1539C117.135 26.7077 115.789 25.3093 115.188 23.4233C114.416 20.9853 114.728 18.0045 115.95 16.1691C116.717 15.0099 117.907 14.2003 119.138 13.9979C119.327 13.9703 119.51 13.9381 119.547 13.9289C119.722 13.8829 121.026 13.9565 121.339 14.0209Z" fill="black"/>
</g>
<defs>
<clipPath id="clip0_13483_818">
<rect width="130" height="36" fill="white"/>
</clipPath>
</defs>
</svg>
