<svg width="119" height="35" viewBox="0 0 119 35" fill="none" xmlns="http://www.w3.org/2000/svg">
<g clip-path="url(#clip0_5128_9973)">
<mask id="mask0_5128_9973" style="mask-type:luminance" maskUnits="userSpaceOnUse" x="0" y="0" width="119" height="35">
<path d="M118.916 0H0.0117188V35H118.916V0Z" fill="white"/>
</mask>
<g mask="url(#mask0_5128_9973)">
<path d="M17.7073 31.9469C18.5857 31.9469 19.2977 32.6301 19.2977 33.4734C19.2977 34.3163 18.5857 35 17.7073 35C16.8285 35 16.1165 34.3163 16.1165 33.4734C16.1165 32.6301 16.8285 31.9469 17.7073 31.9469ZM23.2196 32.4742C23.3278 32.8813 23.27 33.3148 23.0587 33.6792C22.8474 34.0436 22.5 34.3092 22.0929 34.4175C21.6866 34.5271 21.2533 34.4709 20.8884 34.2611C20.5236 34.0513 20.257 33.7052 20.1473 33.2989C20.0392 32.8919 20.0971 32.4586 20.3084 32.0943C20.5197 31.73 20.867 31.4645 21.274 31.3562C21.6803 31.2465 22.1136 31.3028 22.4784 31.5125C22.8433 31.7223 23.1099 32.0679 23.2196 32.4742ZM13.6104 31.3562C14.0174 31.4645 14.3647 31.73 14.576 32.0943C14.7873 32.4586 14.8452 32.8919 14.7371 33.2989C14.6828 33.5002 14.5894 33.6888 14.4622 33.854C14.3349 34.0192 14.1764 34.1576 13.9956 34.2615C13.8148 34.3654 13.6154 34.4326 13.4086 34.4594C13.2018 34.4862 12.9918 34.4719 12.7906 34.4175C12.3837 34.3091 12.0365 34.0435 11.8253 33.6792C11.6141 33.3149 11.5562 32.8817 11.6643 32.4747C11.7186 32.2734 11.8121 32.0848 11.9393 31.9196C12.0665 31.7545 12.2251 31.616 12.4058 31.5121C12.5866 31.4082 12.7861 31.341 12.9929 31.3142C13.1996 31.2875 13.4091 31.3017 13.6104 31.3562ZM26.7719 30.4845C26.9814 30.8498 27.0375 31.2833 26.9276 31.6898C26.8177 32.0963 26.551 32.4426 26.186 32.6526C26.0057 32.7573 25.8066 32.8255 25.6 32.8532C25.3935 32.8809 25.1834 32.8676 24.982 32.814C24.7805 32.7605 24.5916 32.6678 24.426 32.5412C24.2604 32.4146 24.1214 32.2567 24.0169 32.0763C23.8072 31.711 23.7511 31.2774 23.861 30.8707C23.9708 30.4641 24.2377 30.1177 24.6028 29.9077C24.7831 29.8031 24.9822 29.7349 25.1888 29.7073C25.3954 29.6796 25.6055 29.6929 25.8069 29.7465C26.0084 29.8001 26.1973 29.8928 26.3628 30.0195C26.5284 30.1461 26.6674 30.3041 26.7719 30.4845ZM10.2816 29.9077C10.6467 30.1177 10.9136 30.4641 11.0234 30.8707C11.1333 31.2774 11.0772 31.711 10.8675 32.0763C10.763 32.2567 10.624 32.4146 10.4584 32.5412C10.2928 32.6678 10.1039 32.7605 9.90241 32.814C9.70096 32.8676 9.49094 32.8809 9.28435 32.8532C9.07776 32.8255 8.87866 32.7573 8.69843 32.6526C8.3334 32.4426 8.06666 32.0963 7.9568 31.6898C7.84694 31.2833 7.90296 30.8498 8.11254 30.4845C8.21699 30.3041 8.35598 30.1461 8.52156 30.0195C8.68713 29.8928 8.87605 29.8001 9.0775 29.7465C9.27895 29.6929 9.48898 29.6796 9.69559 29.7073C9.9022 29.7349 10.1013 29.8031 10.2816 29.9077ZM18.2376 27.0296V31.1745H16.9124V27.0478C17.354 27.072 17.7968 27.0659 18.2376 27.0296ZM20.549 26.5449L21.6508 30.6552L20.3707 30.9985L19.2684 26.8877C19.7028 26.8035 20.1307 26.6889 20.549 26.5449ZM14.3354 26.5449C14.7506 26.6877 15.1782 26.8028 15.6164 26.8877L14.5147 30.9985L13.2345 30.6552L14.3354 26.5449ZM7.42836 27.6045C7.72667 27.9018 7.89479 28.3053 7.89578 28.7265C7.89676 29.1476 7.73055 29.552 7.43364 29.8507C7.286 29.9977 7.11083 30.1143 6.91814 30.1936C6.72544 30.2729 6.51901 30.3135 6.31063 30.313C6.10224 30.3125 5.896 30.271 5.70368 30.1907C5.51137 30.1105 5.33675 29.9932 5.1898 29.8454C4.89149 29.5481 4.72338 29.1445 4.72239 28.7234C4.7214 28.3022 4.88762 27.8979 5.18453 27.5992C5.33213 27.4521 5.50728 27.3355 5.69996 27.2562C5.89263 27.1768 6.09906 27.1362 6.30744 27.1366C6.51582 27.1371 6.72207 27.1786 6.91441 27.2588C7.10674 27.3389 7.28139 27.4568 7.42836 27.6045ZM29.7008 27.5992C29.9977 27.8979 30.164 28.3022 30.163 28.7234C30.162 29.1445 29.9939 29.5481 29.6956 29.8454C29.5486 29.9931 29.3739 30.1104 29.1816 30.1906C28.9893 30.2708 28.783 30.3123 28.5746 30.3128C28.3663 30.3132 28.1598 30.2726 27.9671 30.1932C27.7745 30.1139 27.5993 29.9973 27.4517 29.8502C27.1549 29.5516 26.9887 29.1474 26.9896 28.7263C26.9905 28.3053 27.1584 27.9018 27.4565 27.6045C27.6035 27.4567 27.7781 27.3394 27.9704 27.2591C28.1627 27.1789 28.369 27.1373 28.5773 27.1368C28.7857 27.1364 28.9922 27.1769 29.1849 27.2563C29.3775 27.3356 29.5531 27.4521 29.7008 27.5992ZM22.7799 25.4297L24.9092 29.1181L23.7614 29.7812L21.6326 26.0942C22.03 25.8996 22.4134 25.6775 22.7799 25.4297ZM12.1049 25.4297C12.4703 25.6766 12.8534 25.8995 13.2523 26.0947L11.1235 29.7812L9.97569 29.1181L12.1049 25.4297ZM83.2681 14.444V19.6863C83.2681 20.4223 83.3985 21.0201 83.6603 21.4799C83.9216 21.9402 84.3919 22.1699 85.0704 22.1699C85.7493 22.1699 86.2474 21.9364 86.5658 21.4694C86.8836 21.0024 87.0428 20.3729 87.0428 19.5803V14.444H90.2873V24.9291C90.2873 25.7355 90.1602 26.436 89.9056 27.0305C89.6515 27.6251 89.3049 28.106 88.8667 28.4737C88.4141 28.8558 87.8804 29.1353 87.2653 29.3123C86.6506 29.4892 85.8974 29.5774 85.0071 29.5774C84.1728 29.5774 83.4484 29.4925 82.8332 29.3228C82.2181 29.1531 81.6845 28.8841 81.2319 28.5164C80.8146 28.1675 80.4722 27.7379 80.225 27.2535C79.9632 26.751 79.8323 26.1532 79.8323 25.4599H83.0773C83.1056 26.04 83.3069 26.4821 83.6814 26.7865C84.0563 27.0905 84.5123 27.2425 85.0493 27.2425C85.6716 27.2425 86.1592 27.0905 86.5125 26.7865C86.8659 26.4821 87.0428 25.9336 87.0428 25.1415V23.0401C86.7599 23.5919 86.3395 24.0162 85.7809 24.3135C85.2223 24.6108 84.5545 24.7594 83.7768 24.7594C83.0984 24.7594 82.5082 24.6462 82.0062 24.4199C81.5042 24.1931 81.112 23.8964 80.8291 23.5282C80.5104 23.1455 80.2918 22.6896 80.1929 22.2015C80.0941 21.7134 80.0443 21.1016 80.0443 20.3657V14.444H83.2681ZM10.2394 23.776C10.5295 24.1102 10.8421 24.4233 11.1758 24.7143L8.1624 27.7277L7.22508 26.7903L10.2394 23.776ZM24.645 23.776L27.6584 26.7899L26.7215 27.7272L23.7086 24.7143C24.042 24.4235 24.3549 24.11 24.645 23.776ZM32.0214 24.1706C32.3856 24.3822 32.6508 24.7297 32.7589 25.1368C32.867 25.5439 32.809 25.9772 32.5977 26.3416C32.494 26.5225 32.3557 26.6811 32.1907 26.8085C32.0257 26.9359 31.8372 27.0295 31.6359 27.0839C31.4347 27.1384 31.2247 27.1527 31.018 27.1259C30.8112 27.0991 30.6118 27.0319 30.431 26.9279C30.0669 26.7163 29.8018 26.3687 29.6938 25.9616C29.5858 25.5546 29.6439 25.1213 29.8552 24.757C29.9589 24.5762 30.0971 24.4176 30.2621 24.2902C30.4271 24.1629 30.6156 24.0693 30.8168 24.0148C31.0179 23.9604 31.2279 23.9461 31.4346 23.9728C31.6413 23.9996 31.8407 24.0668 32.0214 24.1706ZM5.02871 24.6016C5.24008 24.9659 5.29821 25.3991 5.19033 25.8062C5.08245 26.2133 4.81738 26.5609 4.45336 26.7726C4.27261 26.8766 4.07314 26.9439 3.86634 26.9707C3.65954 26.9975 3.44949 26.9833 3.2482 26.9288C3.04691 26.8744 2.85834 26.7807 2.69328 26.6533C2.52821 26.5259 2.38989 26.3672 2.28624 26.1862C2.07495 25.8219 2.01696 25.3885 2.12502 24.9815C2.23309 24.5744 2.49836 24.2269 2.86254 24.0153C3.04325 23.9114 3.24265 23.8442 3.44934 23.8175C3.65604 23.7908 3.86598 23.8051 4.06715 23.8595C4.26833 23.914 4.4568 24.0075 4.62179 24.1349C4.78678 24.2622 4.92505 24.4208 5.02871 24.6016ZM8.86288 21.6986C9.05754 22.0975 9.27953 22.4805 9.52549 22.8459L5.83466 24.9771L5.17206 23.8292L8.86288 21.6986ZM26.021 21.6986L29.7123 23.8292L29.0493 24.9771L25.3584 22.8459C25.6049 22.4805 25.8264 22.0975 26.021 21.6986ZM72.4943 14.1673C73.3003 14.1673 74.0247 14.2949 74.6682 14.5495C75.3116 14.804 75.863 15.144 76.3223 15.5683C76.7756 15.9841 77.1369 16.4902 77.3828 17.0541C77.6302 17.6199 77.7539 18.2144 77.7539 18.8372C77.7539 19.0491 77.7501 19.2754 77.7429 19.5161C77.7316 19.7941 77.6997 20.0708 77.6475 20.3441H70.2889C70.3032 20.6553 70.3493 20.9487 70.4269 21.2249C70.4993 21.4906 70.6296 21.737 70.8086 21.9464C70.9855 22.1516 71.2152 22.3142 71.4975 22.4345C71.7804 22.5549 72.1338 22.6153 72.5581 22.6153C73.1239 22.6153 73.551 22.5016 73.8411 22.2753C74.1307 22.049 74.3325 21.7734 74.4452 21.4478H77.6264C77.5552 21.93 77.3855 22.3924 77.1278 22.8061C76.8565 23.241 76.5037 23.6194 76.0888 23.9203C75.6578 24.2387 75.1491 24.4899 74.5622 24.674C73.9754 24.8577 73.3147 24.9497 72.5792 24.9497C71.6888 24.9497 70.9006 24.8188 70.2145 24.5571C69.5289 24.2953 68.9531 23.9242 68.4866 23.4428C68.0158 22.955 67.6542 22.3725 67.426 21.734C67.1858 21.0762 67.0655 20.3508 67.0655 19.5588C67.0655 18.8089 67.182 18.1084 67.4155 17.4573C67.6394 16.8217 67.9932 16.2398 68.4545 15.7486C68.9143 15.2605 69.4795 14.875 70.1512 14.5921C70.8225 14.3092 71.604 14.1673 72.4943 14.1673ZM113.232 14.1673C114.123 14.1673 114.918 14.3126 115.618 14.6027C116.318 14.8927 116.912 15.2816 117.399 15.7701C117.886 16.2571 118.269 16.8384 118.524 17.4784C118.785 18.1295 118.916 18.8228 118.916 19.5588C118.916 20.2942 118.785 20.9875 118.524 21.6386C118.269 22.2788 117.887 22.8603 117.399 23.3474C116.912 23.8355 116.318 24.2248 115.618 24.5149C114.918 24.8049 114.123 24.9497 113.232 24.9497C112.356 24.9497 111.568 24.8049 110.868 24.5149C110.168 24.2248 109.574 23.8355 109.087 23.3474C108.6 22.8602 108.217 22.2788 107.963 21.6386C107.699 20.9771 107.566 20.2709 107.57 19.5588C107.57 18.8228 107.701 18.1295 107.963 17.4784C108.217 16.8384 108.6 16.2572 109.087 15.7701C109.574 15.2816 110.168 14.8927 110.868 14.6027C111.568 14.3126 112.356 14.1673 113.232 14.1673ZM53.3661 9.8163V12.7879H49.9941V24.6736H46.5588V12.7879H43.208V9.8163H53.3661ZM58.2014 9.8163V15.9293C58.4843 15.3914 58.9081 14.9671 59.4734 14.6554C60.0391 14.3442 60.7175 14.1884 61.5096 14.1884C62.1741 14.1884 62.7322 14.291 63.1848 14.4962C63.6374 14.7014 64.0047 14.9882 64.2875 15.3559C64.6146 15.7562 64.8402 16.2296 64.9449 16.7358C65.058 17.2593 65.1146 17.8888 65.1146 18.6248V24.674H61.9761V19.4317C61.9761 18.6958 61.8452 18.0979 61.5834 17.6386C61.3221 17.1783 60.8523 16.9481 60.1738 16.9481C59.5088 16.9481 59.0141 17.1816 58.689 17.6486C58.3639 18.1156 58.2014 18.7456 58.2014 19.5377V24.6745H55.0624V9.8163H58.2014ZM98.4941 9.8163C99.7239 9.8163 100.816 10.0249 101.77 10.4425C102.724 10.8596 103.53 11.4153 104.188 12.1086C104.841 12.7946 105.352 13.6023 105.694 14.4857C106.038 15.3649 106.214 16.3008 106.213 17.2449C106.213 18.1933 106.044 19.1129 105.704 20.0042C105.369 20.8885 104.861 21.6969 104.209 22.3818C103.552 23.0751 102.742 23.6303 101.781 24.0479C100.819 24.465 99.7239 24.674 98.4941 24.674H93.0436V9.81582L98.4941 9.8163ZM3.59658 21.2613C3.7066 21.6678 3.65067 22.1014 3.44109 22.4667C3.23152 22.832 2.88545 23.0991 2.47898 23.2093C2.27747 23.2628 2.06739 23.2761 1.86075 23.2483C1.65411 23.2206 1.45496 23.1524 1.27467 23.0477C1.09439 22.943 0.93651 22.8038 0.810053 22.638C0.683596 22.4722 0.591041 22.2832 0.537678 22.0816C0.427825 21.6751 0.483891 21.2416 0.693551 20.8764C0.903212 20.5112 1.24931 20.2442 1.65576 20.1341C1.85721 20.0807 2.06721 20.0675 2.27377 20.0952C2.48033 20.1229 2.67941 20.1911 2.85963 20.2957C3.03985 20.4004 3.19769 20.5395 3.32414 20.7052C3.45059 20.8709 3.54316 21.0598 3.59658 21.2613ZM33.2286 19.9788C33.635 20.089 33.981 20.356 34.1905 20.7212C34.4001 21.0864 34.4561 21.5198 34.3462 21.9263C34.2929 22.1278 34.2003 22.3168 34.0739 22.4825C33.9475 22.6483 33.7897 22.7875 33.6094 22.8922C33.4292 22.9969 33.2301 23.0651 33.0235 23.0928C32.8169 23.1206 32.6069 23.1074 32.4054 23.054C31.9989 22.9439 31.6527 22.6768 31.443 22.3115C31.2333 21.9462 31.1773 21.5125 31.2873 21.106C31.3408 20.9045 31.4333 20.7154 31.5598 20.5497C31.6863 20.384 31.8442 20.2449 32.0245 20.1402C32.2047 20.0355 32.4039 19.9674 32.6105 19.9397C32.8171 19.912 33.0272 19.9253 33.2286 19.9788ZM113.232 16.9486C112.865 16.9486 112.532 17.0191 112.236 17.1605C111.947 17.2961 111.687 17.4872 111.472 17.7229C111.256 17.9636 111.09 18.2451 110.985 18.551C110.871 18.8748 110.813 19.2159 110.815 19.5592C110.815 19.927 110.872 20.2664 110.985 20.5781C111.094 20.8822 111.259 21.1629 111.472 21.4056C111.684 21.6463 111.939 21.8338 112.236 21.968C112.533 22.1023 112.865 22.1694 113.233 22.1694C113.6 22.1694 113.936 22.1023 114.24 21.968C114.536 21.8394 114.8 21.6474 115.014 21.4056C115.228 21.1617 115.397 20.8814 115.512 20.5781C115.635 20.2525 115.696 19.9071 115.692 19.5592C115.692 19.2054 115.633 18.8693 115.512 18.551C115.4 18.2458 115.231 17.9648 115.014 17.7229C114.796 17.4854 114.533 17.2942 114.24 17.1605C113.924 17.0166 113.579 16.9443 113.232 16.9486ZM8.07275 19.3349C8.15761 19.7736 8.2722 20.2012 8.4146 20.616L4.29802 21.7192L3.95521 20.439L8.07371 19.3353L8.07275 19.3349ZM26.8112 19.3349L30.9297 20.4386L30.5864 21.7187L26.4693 20.616C26.6117 20.2012 26.7263 19.7736 26.8112 19.3349ZM98.3243 12.7884H96.4794V21.7029H98.3243C99.0171 21.7029 99.6356 21.5792 100.18 21.3313C100.724 21.0839 101.184 20.7512 101.558 20.334C101.932 19.9183 102.223 19.4357 102.417 18.9115C102.615 18.3785 102.716 17.8141 102.714 17.2454C102.714 16.6797 102.615 16.1278 102.417 15.5899C102.225 15.0619 101.933 14.5756 101.558 14.1573C101.184 13.7401 100.724 13.4074 100.18 13.16C99.6356 12.9121 99.0171 12.7884 98.3243 12.7884ZM1.53734 15.7668C2.37925 15.7668 3.06199 16.4792 3.06199 17.3586C3.06199 18.2379 2.37925 18.9503 1.53734 18.9503C0.693979 18.9503 0.0117188 18.2384 0.0117188 17.3586C0.0117188 16.4792 0.694939 15.7668 1.53734 15.7668ZM33.3471 15.7668C34.1895 15.7668 34.8722 16.4792 34.8722 17.3586C34.8722 18.2379 34.1895 18.9503 33.3471 18.9503C32.5047 18.9503 31.8219 18.2379 31.8219 17.3586C31.8219 16.4792 32.5052 15.7668 33.3471 15.7668ZM72.4732 16.3325C71.837 16.3325 71.3139 16.5166 70.904 16.8849C70.4941 17.2526 70.2889 17.7834 70.2889 18.4766H74.5728C74.5728 17.8116 74.3786 17.2876 73.9897 16.906C73.6009 16.5238 73.0956 16.3325 72.4732 16.3325ZM3.77829 16.7156H7.93179C7.89547 17.1564 7.88938 17.5992 7.91357 18.0408H3.77829V16.7156ZM31.3708 16.7156V18.0408H26.9704C26.9946 17.5992 26.9887 17.1564 26.9526 16.7156H31.3708ZM4.29802 13.3029L8.41508 14.4061C8.27143 14.8243 8.1572 15.2521 8.07323 15.6862L3.95473 14.583L4.29802 13.3029ZM30.5869 13.3029L30.9301 14.583L26.8117 15.6867C26.7277 15.2524 26.6135 14.8245 26.4698 14.4061L30.5869 13.3029ZM2.47946 11.9652C2.88593 12.0754 3.232 12.3425 3.44157 12.7078C3.65115 13.0731 3.70708 13.5067 3.59706 13.9132C3.54369 14.1147 3.45116 14.3037 3.32473 14.4694C3.19831 14.6352 3.04047 14.7744 2.86024 14.8791C2.68002 14.9838 2.48092 15.052 2.27434 15.0798C2.06775 15.1075 1.85772 15.0943 1.65624 15.0409C1.24968 14.9308 0.903499 14.6637 0.693826 14.2984C0.484153 13.9331 0.428159 13.4995 0.538157 13.0929C0.591572 12.8914 0.684164 12.7024 0.810643 12.5367C0.937123 12.3709 1.09501 12.2318 1.27529 12.1271C1.45557 12.0224 1.6547 11.9543 1.86131 11.9266C2.06793 11.8989 2.27798 11.9117 2.47946 11.9652ZM34.3467 12.9375C34.4567 13.3441 34.4008 13.7776 34.1912 14.1429C33.9817 14.5082 33.6356 14.7753 33.2291 14.8855C33.0276 14.939 32.8175 14.9523 32.6109 14.9246C32.4042 14.8968 32.2051 14.8287 32.0248 14.724C31.8445 14.6192 31.6866 14.48 31.5602 14.3142C31.4337 14.1485 31.3412 13.9594 31.2878 13.7579C31.178 13.3514 31.234 12.9178 31.4437 12.5526C31.6534 12.1875 31.9994 11.9205 32.4059 11.8103C32.6074 11.7569 32.8173 11.7437 33.0239 11.7714C33.2305 11.7991 33.4295 11.8673 33.6098 11.972C33.79 12.0766 33.9478 12.2158 34.0743 12.3815C34.2007 12.5471 34.2933 12.7361 34.3467 12.9375ZM5.83466 10.0445L9.52549 12.1757C9.27829 12.5425 9.05689 12.926 8.86288 13.3235L5.17206 11.1923L5.83466 10.0445ZM29.0497 10.0445L29.7123 11.1923L26.021 13.3235C25.827 12.926 25.6056 12.5425 25.3584 12.1757L29.0497 10.0445ZM26.7215 7.29486L27.6584 8.23219L24.645 11.2455C24.3548 10.9118 24.042 10.5984 23.7086 10.3077L26.7215 7.29486ZM8.16288 7.29486L11.1758 10.3077C10.8424 10.5984 10.5296 10.9118 10.2394 11.2455L7.22555 8.23219L8.16288 7.29486ZM32.5977 8.83295C32.809 9.19729 32.867 9.63063 32.7589 10.0377C32.6508 10.4448 32.3856 10.7923 32.0214 11.0039C31.8407 11.1077 31.6413 11.1749 31.4346 11.2017C31.2279 11.2284 31.0179 11.2141 30.8168 11.1597C30.6156 11.1052 30.4271 11.0116 30.2621 10.8843C30.0971 10.757 29.9589 10.5983 29.8552 10.4175C29.6439 10.0532 29.5858 9.61995 29.6938 9.21288C29.8018 8.8058 30.0669 8.45824 30.431 8.24658C30.6118 8.14266 30.8112 8.0754 31.018 8.04863C31.2247 8.02186 31.4347 8.03612 31.6359 8.09058C31.8372 8.14504 32.0257 8.23864 32.1907 8.36602C32.3557 8.4934 32.494 8.65207 32.5977 8.83295ZM4.45288 8.24658C4.81698 8.45824 5.08215 8.8058 5.19013 9.21288C5.2981 9.61995 5.24004 10.0532 5.02871 10.4175C4.92505 10.5983 4.78678 10.757 4.62179 10.8843C4.4568 11.0116 4.26833 11.1052 4.06715 11.1597C3.86598 11.2141 3.65604 11.2284 3.44934 11.2017C3.24265 11.1749 3.04325 11.1077 2.86254 11.0039C2.49844 10.7922 2.23327 10.4447 2.1253 10.0376C2.01733 9.63053 2.07539 9.19724 2.28672 8.83295C2.39037 8.65213 2.52865 8.49352 2.69364 8.36618C2.85863 8.23884 3.0471 8.14527 3.24827 8.09081C3.44945 8.03635 3.65938 8.02208 3.86608 8.04881C4.07278 8.07553 4.27218 8.14274 4.45288 8.24658ZM11.123 5.24137L13.2518 8.9274C12.8544 9.12216 12.471 9.34436 12.1045 9.5924L9.97569 5.90397L11.123 5.24137ZM23.7614 5.24137L24.9087 5.90397L22.7799 9.5924C22.4132 9.34434 22.0297 9.12214 21.6321 8.9274L23.7614 5.24137ZM14.5137 4.0226L15.615 8.1339C15.1768 8.21877 14.7496 8.33384 14.3349 8.47671L13.2336 4.36589L14.5137 4.0226ZM20.3693 4.0226L21.6494 4.36589L20.5476 8.47623C20.1296 8.33238 19.702 8.21799 19.268 8.1339L20.3693 4.0226ZM18.2367 3.58151V7.99151C17.7959 7.95511 17.3531 7.94902 16.9114 7.97329V3.58151H18.2367ZM7.43364 5.16849C7.73061 5.46713 7.89691 5.87144 7.89601 6.2926C7.89512 6.71377 7.72709 7.11736 7.42884 7.41473C7.28186 7.56252 7.10718 7.67989 6.9148 7.76012C6.72243 7.84036 6.51612 7.88188 6.30768 7.88233C6.09924 7.88277 5.89276 7.84213 5.70004 7.76272C5.50732 7.6833 5.33214 7.56668 5.18453 7.41952C4.88755 7.12088 4.72125 6.71658 4.72215 6.29541C4.72305 5.87425 4.89107 5.47066 5.18932 5.17329C5.33631 5.0255 5.51098 4.90813 5.70336 4.82789C5.89574 4.74766 6.10205 4.70613 6.31049 4.70568C6.51892 4.70524 6.72541 4.74589 6.91813 4.8253C7.11085 4.90471 7.28602 5.02133 7.43364 5.16849ZM29.6956 5.17329C29.9938 5.47066 30.1618 5.87425 30.1627 6.29541C30.1636 6.71658 29.9973 7.12088 29.7004 7.41952C29.5527 7.56661 29.3776 7.68317 29.1849 7.76254C28.9922 7.84191 28.7858 7.88253 28.5774 7.88209C28.3691 7.88164 28.1628 7.84014 27.9705 7.75995C27.7781 7.67975 27.6035 7.56245 27.4565 7.41473C27.1583 7.11736 26.9902 6.71377 26.9893 6.2926C26.9884 5.87144 27.1547 5.46713 27.4517 5.16849C27.5993 5.0214 27.7745 4.90484 27.9671 4.82547C28.1598 4.7461 28.3663 4.70548 28.5746 4.70592C28.783 4.70637 28.9893 4.74788 29.1816 4.82807C29.3739 4.90826 29.5486 5.02557 29.6956 5.17329ZM10.867 2.94384C11.0766 3.30909 11.1326 3.7426 11.0227 4.14913C10.9129 4.55565 10.6461 4.90195 10.2811 5.11192C10.1009 5.21662 9.90177 5.28477 9.69518 5.31247C9.4886 5.34018 9.27858 5.32689 9.07713 5.27336C8.87568 5.21984 8.68676 5.12713 8.52117 5.00054C8.35557 4.87396 8.21655 4.71597 8.11206 4.53562C7.90233 4.17032 7.84623 3.73669 7.95609 3.33005C8.06596 2.92341 8.3328 2.57703 8.69795 2.36705C8.87819 2.26245 9.07728 2.19438 9.28384 2.16676C9.49039 2.13913 9.70037 2.15248 9.90176 2.20605C10.1032 2.25961 10.292 2.35234 10.4576 2.47894C10.6231 2.60553 10.7626 2.76351 10.867 2.94384ZM26.186 2.36705C26.5511 2.57703 26.818 2.92341 26.9278 3.33005C27.0377 3.73669 26.9816 4.17032 26.7719 4.53562C26.6674 4.71597 26.5283 4.87396 26.3628 5.00054C26.1972 5.12713 26.0082 5.21984 25.8068 5.27336C25.6053 5.32689 25.3953 5.34018 25.1887 5.31247C24.9821 5.28477 24.783 5.21662 24.6028 5.11192C24.2378 4.90195 23.971 4.55565 23.8612 4.14913C23.7513 3.7426 23.8073 3.30909 24.0169 2.94384C24.1214 2.76344 24.2604 2.60541 24.4259 2.47877C24.5915 2.35214 24.7804 2.25938 24.9819 2.20581C25.1833 2.15225 25.3934 2.13891 25.6 2.16658C25.8066 2.19425 26.0057 2.26237 26.186 2.36705ZM14.7367 1.72123C14.8448 2.1282 14.7869 2.56144 14.5757 2.92574C14.3645 3.29003 14.0173 3.55557 13.6104 3.66397C13.4092 3.71833 13.1992 3.7325 12.9924 3.70568C12.7857 3.67886 12.5863 3.61156 12.4055 3.50764C12.2248 3.40372 12.0663 3.26521 11.9391 3.10003C11.812 2.93484 11.7186 2.74622 11.6643 2.54493C11.5562 2.1379 11.6142 1.7046 11.8255 1.34029C12.0367 0.975985 12.3841 0.710495 12.791 0.602192C12.9923 0.547833 13.2023 0.533661 13.409 0.560484C13.6158 0.587308 13.8152 0.654602 13.9959 0.758522C14.1766 0.862442 14.3351 1.00095 14.4623 1.16614C14.5895 1.33132 14.6825 1.51995 14.7367 1.72123ZM22.0934 0.602192C22.5003 0.710495 22.8477 0.975985 23.0589 1.34029C23.2702 1.7046 23.3282 2.1379 23.2201 2.54493C23.1658 2.74627 23.0724 2.93494 22.9452 3.10017C22.818 3.26539 22.6595 3.40392 22.4787 3.50785C22.2979 3.61177 22.0984 3.67905 21.8916 3.70584C21.6848 3.73263 21.4748 3.7184 21.2735 3.66397C20.8665 3.55567 20.5192 3.29018 20.3079 2.92587C20.0966 2.56156 20.0387 2.12826 20.1468 1.72123C20.201 1.51989 20.2944 1.33122 20.4217 1.166C20.5489 1.00078 20.7074 0.862242 20.8882 0.758317C21.069 0.654391 21.2684 0.587112 21.4752 0.560323C21.682 0.533534 21.8921 0.547761 22.0934 0.602192ZM17.7073 0C18.5857 0 19.2977 0.683699 19.2977 1.52658C19.2977 2.36993 18.5857 3.05315 17.7073 3.05315C16.8285 3.05315 16.1165 2.36993 16.1165 1.52658C16.1165 0.683699 16.8285 0 17.7073 0Z" fill="#151531"/>
</g>
</g>
<defs>
<clipPath id="clip0_5128_9973">
<rect width="119" height="35" fill="white"/>
</clipPath>
</defs>
</svg>
