<svg width="242" height="136" viewBox="0 0 242 136" fill="none" xmlns="http://www.w3.org/2000/svg">
<g filter="url(#filter0_dd_781_34850)">
<rect x="0.999756" y="1.00195" width="240" height="132" rx="20" fill="white"/>
<g filter="url(#filter1_dd_781_34850)">
<rect x="20.9998" y="21.002" width="200" height="36" rx="8" fill="white"/>
<rect x="36.9998" y="31.002" width="30" height="16" rx="8" fill="#6868F7"/>
<g filter="url(#filter2_dd_781_34850)">
<circle cx="58.9998" cy="39.002" r="7" fill="white"/>
</g>
<path d="M77.4657 33.8201V44.002H76.2327V33.8201H77.4657ZM80.952 39.4082V44.002H79.7787V36.3656H80.9122V37.5588H81.0117C81.1906 37.171 81.4624 36.8594 81.827 36.6241C82.1916 36.3855 82.6622 36.2662 83.2389 36.2662C83.756 36.2662 84.2084 36.3722 84.5962 36.5843C84.984 36.7931 85.2856 37.1113 85.501 37.5389C85.7164 37.9631 85.8242 38.5001 85.8242 39.1497V44.002H84.6509V39.2292C84.6509 38.6293 84.4951 38.162 84.1835 37.8272C83.872 37.4892 83.4444 37.3201 82.9009 37.3201C82.5263 37.3201 82.1916 37.4013 81.8966 37.5637C81.6049 37.7261 81.3746 37.9631 81.2055 38.2747C81.0365 38.5862 80.952 38.9641 80.952 39.4082ZM91.0704 44.161C90.3545 44.161 89.738 43.992 89.221 43.6539C88.7039 43.3159 88.3062 42.8502 88.0278 42.2569C87.7494 41.6636 87.6102 40.9859 87.6102 40.2235C87.6102 39.448 87.7527 38.7636 88.0378 38.1703C88.3261 37.5737 88.7271 37.108 89.2409 36.7733C89.7579 36.4352 90.3611 36.2662 91.0505 36.2662C91.5875 36.2662 92.0714 36.3656 92.5022 36.5645C92.9331 36.7633 93.2861 37.0417 93.5612 37.3997C93.8363 37.7576 94.007 38.1752 94.0733 38.6525H92.9C92.8105 38.3045 92.6116 37.9963 92.3034 37.7278C91.9985 37.456 91.5875 37.3201 91.0704 37.3201C90.613 37.3201 90.212 37.4395 89.8673 37.6781C89.5259 37.9134 89.2591 38.2465 89.0669 38.6774C88.878 39.1049 88.7835 39.6071 88.7835 40.1838C88.7835 40.7737 88.8763 41.2875 89.0619 41.725C89.2508 42.1625 89.516 42.5022 89.8574 42.7441C90.2021 42.9861 90.6064 43.1071 91.0704 43.1071C91.3753 43.1071 91.6521 43.054 91.9007 42.948C92.1493 42.8419 92.3597 42.6895 92.5321 42.4906C92.7044 42.2917 92.8271 42.0531 92.9 41.7747H94.0733C94.007 42.2254 93.8429 42.6315 93.5811 42.9927C93.3226 43.3507 92.9795 43.6357 92.552 43.8478C92.1277 44.0566 91.6339 44.161 91.0704 44.161ZM96.9618 33.8201V44.002H95.7885V33.8201H96.9618ZM103.923 40.8798V36.3656H105.097V44.002H103.923V42.7093H103.844C103.665 43.0971 103.386 43.4269 103.008 43.6987C102.631 43.9672 102.153 44.1014 101.577 44.1014C101.099 44.1014 100.675 43.997 100.304 43.7882C99.9327 43.5761 99.641 43.2579 99.4289 42.8336C99.2168 42.4061 99.1107 41.8675 99.1107 41.2179V36.3656H100.284V41.1383C100.284 41.6951 100.44 42.1393 100.751 42.4707C101.066 42.8021 101.467 42.9679 101.954 42.9679C102.246 42.9679 102.543 42.8933 102.844 42.7441C103.149 42.595 103.405 42.3663 103.61 42.0581C103.819 41.7498 103.923 41.3571 103.923 40.8798ZM110.129 44.161C109.493 44.161 108.931 44.0003 108.444 43.6788C107.956 43.354 107.575 42.8966 107.3 42.3066C107.025 41.7134 106.888 41.0124 106.888 40.2037C106.888 39.4016 107.025 38.7056 107.3 38.1156C107.575 37.5256 107.958 37.0699 108.449 36.7484C108.939 36.4269 109.506 36.2662 110.149 36.2662C110.646 36.2662 111.039 36.349 111.327 36.5147C111.619 36.6771 111.841 36.8627 111.993 37.0716C112.149 37.277 112.27 37.4461 112.356 37.5787H112.456V33.8201H113.629V44.002H112.495V42.8287H112.356C112.27 42.9679 112.147 43.1435 111.988 43.3556C111.829 43.5645 111.602 43.7517 111.307 43.9174C111.012 44.0798 110.62 44.161 110.129 44.161ZM110.288 43.1071C110.759 43.1071 111.156 42.9844 111.481 42.7392C111.806 42.4906 112.053 42.1475 112.222 41.71C112.391 41.2692 112.476 40.7605 112.476 40.1838C112.476 39.6137 112.393 39.1149 112.227 38.6873C112.061 38.2565 111.816 37.9217 111.491 37.6831C111.166 37.4411 110.765 37.3201 110.288 37.3201C109.791 37.3201 109.377 37.4477 109.045 37.7029C108.717 37.9548 108.47 38.2979 108.304 38.7321C108.142 39.1629 108.061 39.6468 108.061 40.1838C108.061 40.7273 108.144 41.2212 108.309 41.6653C108.478 42.1061 108.727 42.4574 109.055 42.7193C109.387 42.9778 109.798 43.1071 110.288 43.1071ZM119.143 44.161C118.407 44.161 117.772 43.9986 117.238 43.6738C116.708 43.3457 116.299 42.8883 116.01 42.3017C115.725 41.7117 115.583 41.0256 115.583 40.2434C115.583 39.4612 115.725 38.7718 116.01 38.1752C116.299 37.5753 116.7 37.108 117.214 36.7733C117.731 36.4352 118.334 36.2662 119.023 36.2662C119.421 36.2662 119.814 36.3324 120.201 36.465C120.589 36.5976 120.942 36.813 121.26 37.1113C121.579 37.4063 121.832 37.7974 122.021 38.2846C122.21 38.7718 122.304 39.3717 122.304 40.0843V40.5815H116.418V39.5673H121.111C121.111 39.1364 121.025 38.752 120.853 38.4139C120.684 38.0758 120.442 37.809 120.127 37.6135C119.815 37.4179 119.447 37.3201 119.023 37.3201C118.556 37.3201 118.152 37.4361 117.81 37.6681C117.472 37.8968 117.212 38.1951 117.03 38.563C116.847 38.9309 116.756 39.3253 116.756 39.7463V40.4224C116.756 40.9991 116.856 41.488 117.054 41.889C117.257 42.2868 117.537 42.59 117.895 42.7988C118.253 43.0043 118.669 43.1071 119.143 43.1071C119.451 43.1071 119.729 43.064 119.978 42.9778C120.23 42.8883 120.447 42.7557 120.629 42.5801C120.811 42.4011 120.952 42.179 121.052 41.9139L122.185 42.2321C122.066 42.6165 121.865 42.9546 121.584 43.2463C121.302 43.5346 120.954 43.76 120.54 43.9224C120.125 44.0815 119.66 44.161 119.143 44.161ZM129.757 44.002L127.43 36.3656H128.663L130.314 42.2122H130.393L132.024 36.3656H133.277L134.888 42.1923H134.967L136.618 36.3656H137.851L135.524 44.002H134.37L132.7 38.1355H132.581L130.91 44.002H129.757ZM142.344 44.161C141.608 44.161 140.973 43.9986 140.44 43.6738C139.909 43.3457 139.5 42.8883 139.212 42.3017C138.927 41.7117 138.784 41.0256 138.784 40.2434C138.784 39.4612 138.927 38.7718 139.212 38.1752C139.5 37.5753 139.901 37.108 140.415 36.7733C140.932 36.4352 141.535 36.2662 142.224 36.2662C142.622 36.2662 143.015 36.3324 143.403 36.465C143.79 36.5976 144.143 36.813 144.462 37.1113C144.78 37.4063 145.033 37.7974 145.222 38.2846C145.411 38.7718 145.506 39.3717 145.506 40.0843V40.5815H139.619V39.5673H144.312C144.312 39.1364 144.226 38.752 144.054 38.4139C143.885 38.0758 143.643 37.809 143.328 37.6135C143.017 37.4179 142.649 37.3201 142.224 37.3201C141.757 37.3201 141.353 37.4361 141.011 37.6681C140.673 37.8968 140.413 38.1951 140.231 38.563C140.048 38.9309 139.957 39.3253 139.957 39.7463V40.4224C139.957 40.9991 140.057 41.488 140.256 41.889C140.458 42.2868 140.738 42.59 141.096 42.7988C141.454 43.0043 141.87 43.1071 142.344 43.1071C142.652 43.1071 142.93 43.064 143.179 42.9778C143.431 42.8883 143.648 42.7557 143.83 42.5801C144.012 42.4011 144.153 42.179 144.253 41.9139L145.386 42.2321C145.267 42.6165 145.066 42.9546 144.785 43.2463C144.503 43.5346 144.155 43.76 143.741 43.9224C143.326 44.0815 142.861 44.161 142.344 44.161ZM150.492 44.161C149.756 44.161 149.122 43.9986 148.588 43.6738C148.058 43.3457 147.648 42.8883 147.36 42.3017C147.075 41.7117 146.932 41.0256 146.932 40.2434C146.932 39.4612 147.075 38.7718 147.36 38.1752C147.648 37.5753 148.049 37.108 148.563 36.7733C149.08 36.4352 149.683 36.2662 150.373 36.2662C150.771 36.2662 151.163 36.3324 151.551 36.465C151.939 36.5976 152.292 36.813 152.61 37.1113C152.928 37.4063 153.182 37.7974 153.371 38.2846C153.56 38.7718 153.654 39.3717 153.654 40.0843V40.5815H147.768V39.5673H152.461C152.461 39.1364 152.375 38.752 152.202 38.4139C152.033 38.0758 151.791 37.809 151.476 37.6135C151.165 37.4179 150.797 37.3201 150.373 37.3201C149.905 37.3201 149.501 37.4361 149.16 37.6681C148.822 37.8968 148.561 38.1951 148.379 38.563C148.197 38.9309 148.106 39.3253 148.106 39.7463V40.4224C148.106 40.9991 148.205 41.488 148.404 41.889C148.606 42.2868 148.886 42.59 149.244 42.7988C149.602 43.0043 150.018 43.1071 150.492 43.1071C150.8 43.1071 151.079 43.064 151.327 42.9778C151.579 42.8883 151.796 42.7557 151.979 42.5801C152.161 42.4011 152.302 42.179 152.401 41.9139L153.535 42.2321C153.415 42.6165 153.215 42.9546 152.933 43.2463C152.651 43.5346 152.303 43.76 151.889 43.9224C151.475 44.0815 151.009 44.161 150.492 44.161ZM156.533 41.2179L156.513 39.7662H156.751L160.092 36.3656H161.544L157.984 39.965H157.885L156.533 41.2179ZM155.439 44.002V33.8201H156.612V44.002H155.439ZM160.291 44.002L157.308 40.2235L158.143 39.4082L161.783 44.002H160.291ZM165.941 44.161C165.206 44.161 164.571 43.9986 164.037 43.6738C163.507 43.3457 163.098 42.8883 162.809 42.3017C162.524 41.7117 162.382 41.0256 162.382 40.2434C162.382 39.4612 162.524 38.7718 162.809 38.1752C163.098 37.5753 163.499 37.108 164.012 36.7733C164.529 36.4352 165.133 36.2662 165.822 36.2662C166.22 36.2662 166.613 36.3324 167 36.465C167.388 36.5976 167.741 36.813 168.059 37.1113C168.377 37.4063 168.631 37.7974 168.82 38.2846C169.009 38.7718 169.103 39.3717 169.103 40.0843V40.5815H163.217V39.5673H167.91C167.91 39.1364 167.824 38.752 167.652 38.4139C167.483 38.0758 167.241 37.809 166.926 37.6135C166.614 37.4179 166.246 37.3201 165.822 37.3201C165.355 37.3201 164.95 37.4361 164.609 37.6681C164.271 37.8968 164.011 38.1951 163.828 38.563C163.646 38.9309 163.555 39.3253 163.555 39.7463V40.4224C163.555 40.9991 163.654 41.488 163.853 41.889C164.055 42.2868 164.336 42.59 164.693 42.7988C165.051 43.0043 165.467 43.1071 165.941 43.1071C166.25 43.1071 166.528 43.064 166.777 42.9778C167.028 42.8883 167.246 42.7557 167.428 42.5801C167.61 42.4011 167.751 42.179 167.85 41.9139L168.984 42.2321C168.865 42.6165 168.664 42.9546 168.382 43.2463C168.101 43.5346 167.753 43.76 167.338 43.9224C166.924 44.0815 166.458 44.161 165.941 44.161ZM172.061 39.4082V44.002H170.888V36.3656H172.022V37.5588H172.121C172.3 37.171 172.572 36.8594 172.936 36.6241C173.301 36.3855 173.772 36.2662 174.348 36.2662C174.865 36.2662 175.318 36.3722 175.706 36.5843C176.093 36.7931 176.395 37.1113 176.61 37.5389C176.826 37.9631 176.934 38.5001 176.934 39.1497V44.002H175.76V39.2292C175.76 38.6293 175.604 38.162 175.293 37.8272C174.981 37.4892 174.554 37.3201 174.01 37.3201C173.636 37.3201 173.301 37.4013 173.006 37.5637C172.714 37.7261 172.484 37.9631 172.315 38.2747C172.146 38.5862 172.061 38.9641 172.061 39.4082ZM181.961 44.161C181.325 44.161 180.763 44.0003 180.276 43.6788C179.788 43.354 179.407 42.8966 179.132 42.3066C178.857 41.7134 178.72 41.0124 178.72 40.2037C178.72 39.4016 178.857 38.7056 179.132 38.1156C179.407 37.5256 179.79 37.0699 180.281 36.7484C180.771 36.4269 181.338 36.2662 181.981 36.2662C182.478 36.2662 182.871 36.349 183.159 36.5147C183.451 36.6771 183.673 36.8627 183.825 37.0716C183.981 37.277 184.102 37.4461 184.188 37.5787H184.288V33.8201H185.461V44.002H184.328V42.8287H184.188C184.102 42.9679 183.98 43.1435 183.82 43.3556C183.661 43.5645 183.434 43.7517 183.139 43.9174C182.844 44.0798 182.452 44.161 181.961 44.161ZM182.12 43.1071C182.591 43.1071 182.989 42.9844 183.313 42.7392C183.638 42.4906 183.885 42.1475 184.054 41.71C184.223 41.2692 184.308 40.7605 184.308 40.1838C184.308 39.6137 184.225 39.1149 184.059 38.6873C183.893 38.2565 183.648 37.9217 183.323 37.6831C182.998 37.4411 182.597 37.3201 182.12 37.3201C181.623 37.3201 181.209 37.4477 180.877 37.7029C180.549 37.9548 180.302 38.2979 180.136 38.7321C179.974 39.1629 179.893 39.6468 179.893 40.1838C179.893 40.7273 179.976 41.2212 180.141 41.6653C180.31 42.1061 180.559 42.4574 180.887 42.7193C181.219 42.9778 181.63 43.1071 182.12 43.1071ZM193.182 38.0758L192.128 38.3741C192.062 38.1984 191.964 38.0278 191.835 37.862C191.709 37.693 191.536 37.5538 191.318 37.4444C191.099 37.335 190.819 37.2804 190.477 37.2804C190.01 37.2804 189.621 37.3881 189.309 37.6035C189.001 37.8156 188.847 38.0858 188.847 38.4139C188.847 38.7056 188.953 38.9359 189.165 39.1049C189.377 39.274 189.708 39.4148 190.159 39.5275L191.293 39.8059C191.975 39.9716 192.484 40.2252 192.819 40.5666C193.154 40.9047 193.321 41.3405 193.321 41.8741C193.321 42.3116 193.195 42.7027 192.943 43.0474C192.695 43.3921 192.347 43.6639 191.899 43.8627C191.452 44.0616 190.931 44.161 190.338 44.161C189.559 44.161 188.915 43.992 188.404 43.6539C187.894 43.3159 187.571 42.822 187.435 42.1724L188.548 41.894C188.654 42.305 188.855 42.6132 189.15 42.8187C189.448 43.0242 189.838 43.127 190.318 43.127C190.865 43.127 191.299 43.0109 191.621 42.7789C191.946 42.5436 192.108 42.2619 192.108 41.9338C192.108 41.6686 192.015 41.4466 191.83 41.2676C191.644 41.0853 191.359 40.9494 190.975 40.8599L189.702 40.5616C189.002 40.3959 188.489 40.139 188.161 39.791C187.836 39.4397 187.673 39.0005 187.673 38.4735C187.673 38.0427 187.794 37.6615 188.036 37.3301C188.282 36.9986 188.615 36.7385 189.036 36.5495C189.46 36.3606 189.94 36.2662 190.477 36.2662C191.233 36.2662 191.826 36.4319 192.257 36.7633C192.691 37.0948 193 37.5323 193.182 38.0758Z" fill="#0D131B"/>
</g>
<g filter="url(#filter3_dd_781_34850)">
<rect x="20.9998" y="77.002" width="200" height="36" rx="8" fill="white"/>
<rect x="36.9998" y="87.002" width="30" height="16" rx="8" fill="#E9ECEF"/>
<path d="M77.4657 89.8201V100.002H76.2327V89.8201H77.4657ZM80.952 95.4082V100.002H79.7787V92.3656H80.9122V93.5588H81.0117C81.1906 93.171 81.4624 92.8594 81.827 92.6241C82.1916 92.3855 82.6622 92.2662 83.2389 92.2662C83.756 92.2662 84.2084 92.3722 84.5962 92.5843C84.984 92.7931 85.2856 93.1113 85.501 93.5389C85.7164 93.9631 85.8242 94.5001 85.8242 95.1497V100.002H84.6509V95.2292C84.6509 94.6293 84.4951 94.162 84.1835 93.8272C83.872 93.4892 83.4444 93.3201 82.9009 93.3201C82.5263 93.3201 82.1916 93.4013 81.8966 93.5637C81.6049 93.7261 81.3746 93.9631 81.2055 94.2747C81.0365 94.5862 80.952 94.9641 80.952 95.4082ZM91.0704 100.161C90.3545 100.161 89.738 99.992 89.221 99.6539C88.7039 99.3159 88.3062 98.8502 88.0278 98.2569C87.7494 97.6636 87.6102 96.9859 87.6102 96.2235C87.6102 95.448 87.7527 94.7636 88.0378 94.1703C88.3261 93.5737 88.7271 93.108 89.2409 92.7733C89.7579 92.4352 90.3611 92.2662 91.0505 92.2662C91.5875 92.2662 92.0714 92.3656 92.5022 92.5645C92.9331 92.7633 93.2861 93.0417 93.5612 93.3997C93.8363 93.7576 94.007 94.1752 94.0733 94.6525H92.9C92.8105 94.3045 92.6116 93.9963 92.3034 93.7278C91.9985 93.456 91.5875 93.3201 91.0704 93.3201C90.613 93.3201 90.212 93.4395 89.8673 93.6781C89.5259 93.9134 89.2591 94.2465 89.0669 94.6774C88.878 95.1049 88.7835 95.6071 88.7835 96.1838C88.7835 96.7737 88.8763 97.2875 89.0619 97.725C89.2508 98.1625 89.516 98.5022 89.8574 98.7441C90.2021 98.9861 90.6064 99.1071 91.0704 99.1071C91.3753 99.1071 91.6521 99.054 91.9007 98.948C92.1493 98.8419 92.3597 98.6895 92.5321 98.4906C92.7044 98.2917 92.8271 98.0531 92.9 97.7747H94.0733C94.007 98.2254 93.8429 98.6315 93.5811 98.9927C93.3226 99.3507 92.9795 99.6357 92.552 99.8478C92.1277 100.057 91.6339 100.161 91.0704 100.161ZM96.9618 89.8201V100.002H95.7885V89.8201H96.9618ZM103.923 96.8798V92.3656H105.097V100.002H103.923V98.7093H103.844C103.665 99.0971 103.386 99.4269 103.008 99.6987C102.631 99.9672 102.153 100.101 101.577 100.101C101.099 100.101 100.675 99.997 100.304 99.7882C99.9327 99.5761 99.641 99.2579 99.4289 98.8336C99.2168 98.4061 99.1107 97.8675 99.1107 97.2179V92.3656H100.284V97.1383C100.284 97.6951 100.44 98.1393 100.751 98.4707C101.066 98.8021 101.467 98.9679 101.954 98.9679C102.246 98.9679 102.543 98.8933 102.844 98.7441C103.149 98.595 103.405 98.3663 103.61 98.0581C103.819 97.7498 103.923 97.3571 103.923 96.8798ZM110.129 100.161C109.493 100.161 108.931 100 108.444 99.6788C107.956 99.354 107.575 98.8966 107.3 98.3066C107.025 97.7134 106.888 97.0124 106.888 96.2037C106.888 95.4016 107.025 94.7056 107.3 94.1156C107.575 93.5256 107.958 93.0699 108.449 92.7484C108.939 92.4269 109.506 92.2662 110.149 92.2662C110.646 92.2662 111.039 92.349 111.327 92.5147C111.619 92.6771 111.841 92.8627 111.993 93.0716C112.149 93.277 112.27 93.4461 112.356 93.5787H112.456V89.8201H113.629V100.002H112.495V98.8287H112.356C112.27 98.9679 112.147 99.1435 111.988 99.3556C111.829 99.5645 111.602 99.7517 111.307 99.9174C111.012 100.08 110.62 100.161 110.129 100.161ZM110.288 99.1071C110.759 99.1071 111.156 98.9844 111.481 98.7392C111.806 98.4906 112.053 98.1475 112.222 97.71C112.391 97.2692 112.476 96.7605 112.476 96.1838C112.476 95.6137 112.393 95.1149 112.227 94.6873C112.061 94.2565 111.816 93.9217 111.491 93.6831C111.166 93.4411 110.765 93.3201 110.288 93.3201C109.791 93.3201 109.377 93.4477 109.045 93.7029C108.717 93.9548 108.47 94.2979 108.304 94.7321C108.142 95.1629 108.061 95.6468 108.061 96.1838C108.061 96.7273 108.144 97.2212 108.309 97.6653C108.478 98.1061 108.727 98.4574 109.055 98.7193C109.387 98.9778 109.798 99.1071 110.288 99.1071ZM119.143 100.161C118.407 100.161 117.772 99.9986 117.238 99.6738C116.708 99.3457 116.299 98.8883 116.01 98.3017C115.725 97.7117 115.583 97.0256 115.583 96.2434C115.583 95.4612 115.725 94.7718 116.01 94.1752C116.299 93.5753 116.7 93.108 117.214 92.7733C117.731 92.4352 118.334 92.2662 119.023 92.2662C119.421 92.2662 119.814 92.3324 120.201 92.465C120.589 92.5976 120.942 92.813 121.26 93.1113C121.579 93.4063 121.832 93.7974 122.021 94.2846C122.21 94.7718 122.304 95.3717 122.304 96.0843V96.5815H116.418V95.5673H121.111C121.111 95.1364 121.025 94.752 120.853 94.4139C120.684 94.0758 120.442 93.809 120.127 93.6135C119.815 93.4179 119.447 93.3201 119.023 93.3201C118.556 93.3201 118.152 93.4361 117.81 93.6681C117.472 93.8968 117.212 94.1951 117.03 94.563C116.847 94.9309 116.756 95.3253 116.756 95.7463V96.4224C116.756 96.9991 116.856 97.488 117.054 97.889C117.257 98.2868 117.537 98.59 117.895 98.7988C118.253 99.0043 118.669 99.1071 119.143 99.1071C119.451 99.1071 119.729 99.064 119.978 98.9778C120.23 98.8883 120.447 98.7557 120.629 98.5801C120.811 98.4011 120.952 98.179 121.052 97.9139L122.185 98.2321C122.066 98.6165 121.865 98.9546 121.584 99.2463C121.302 99.5346 120.954 99.76 120.54 99.9224C120.125 100.081 119.66 100.161 119.143 100.161ZM129.2 95.4082V100.002H128.027V92.3656H129.16V93.5588H129.26C129.439 93.171 129.71 92.8594 130.075 92.6241C130.44 92.3855 130.91 92.2662 131.487 92.2662C132.004 92.2662 132.456 92.3722 132.844 92.5843C133.232 92.7931 133.534 93.1113 133.749 93.5389C133.964 93.9631 134.072 94.5001 134.072 95.1497V100.002H132.899V95.2292C132.899 94.6293 132.743 94.162 132.432 93.8272C132.12 93.4892 131.692 93.3201 131.149 93.3201C130.774 93.3201 130.44 93.4013 130.145 93.5637C129.853 93.7261 129.623 93.9631 129.454 94.2747C129.285 94.5862 129.2 94.9641 129.2 95.4082ZM139.418 100.161C138.682 100.161 138.047 99.9986 137.514 99.6738C136.983 99.3457 136.574 98.8883 136.286 98.3017C136.001 97.7117 135.858 97.0256 135.858 96.2434C135.858 95.4612 136.001 94.7718 136.286 94.1752C136.574 93.5753 136.975 93.108 137.489 92.7733C138.006 92.4352 138.609 92.2662 139.299 92.2662C139.696 92.2662 140.089 92.3324 140.477 92.465C140.865 92.5976 141.218 92.813 141.536 93.1113C141.854 93.4063 142.108 93.7974 142.296 94.2846C142.485 94.7718 142.58 95.3717 142.58 96.0843V96.5815H136.693V95.5673H141.387C141.387 95.1364 141.3 94.752 141.128 94.4139C140.959 94.0758 140.717 93.809 140.402 93.6135C140.091 93.4179 139.723 93.3201 139.299 93.3201C138.831 93.3201 138.427 93.4361 138.086 93.6681C137.747 93.8968 137.487 94.1951 137.305 94.563C137.123 94.9309 137.032 95.3253 137.032 95.7463V96.4224C137.032 96.9991 137.131 97.488 137.33 97.889C137.532 98.2868 137.812 98.59 138.17 98.7988C138.528 99.0043 138.944 99.1071 139.418 99.1071C139.726 99.1071 140.005 99.064 140.253 98.9778C140.505 98.8883 140.722 98.7557 140.904 98.5801C141.087 98.4011 141.228 98.179 141.327 97.9139L142.461 98.2321C142.341 98.6165 142.141 98.9546 141.859 99.2463C141.577 99.5346 141.229 99.76 140.815 99.9224C140.401 100.081 139.935 100.161 139.418 100.161ZM146.095 100.002L143.768 92.3656H145.001L146.652 98.2122H146.731L148.362 92.3656H149.615L151.225 98.1923H151.305L152.956 92.3656H154.188L151.862 100.002H150.708L149.038 94.1355H148.919L147.248 100.002H146.095ZM164.49 96.8798V92.3656H165.663V100.002H164.49V98.7093H164.41C164.231 99.0971 163.953 99.4269 163.575 99.6987C163.197 99.9672 162.72 100.101 162.143 100.101C161.666 100.101 161.242 99.997 160.87 99.7882C160.499 99.5761 160.207 99.2579 159.995 98.8336C159.783 98.4061 159.677 97.8675 159.677 97.2179V92.3656H160.85V97.1383C160.85 97.6951 161.006 98.1393 161.318 98.4707C161.633 98.8021 162.034 98.9679 162.521 98.9679C162.813 98.9679 163.109 98.8933 163.411 98.7441C163.716 98.595 163.971 98.3663 164.176 98.0581C164.385 97.7498 164.49 97.3571 164.49 96.8798ZM173.221 94.0758L172.167 94.3741C172.101 94.1984 172.003 94.0278 171.874 93.862C171.748 93.693 171.575 93.5538 171.357 93.4444C171.138 93.335 170.858 93.2804 170.516 93.2804C170.049 93.2804 169.66 93.3881 169.348 93.6035C169.04 93.8156 168.886 94.0858 168.886 94.4139C168.886 94.7056 168.992 94.9359 169.204 95.1049C169.416 95.274 169.748 95.4148 170.198 95.5275L171.332 95.8059C172.015 95.9716 172.523 96.2252 172.858 96.5666C173.193 96.9047 173.36 97.3405 173.36 97.8741C173.36 98.3116 173.234 98.7027 172.982 99.0474C172.734 99.3921 172.386 99.6639 171.938 99.8627C171.491 100.062 170.971 100.161 170.377 100.161C169.598 100.161 168.954 99.992 168.443 99.6539C167.933 99.3159 167.61 98.822 167.474 98.1724L168.587 97.894C168.694 98.305 168.894 98.6132 169.189 98.8187C169.487 99.0242 169.877 99.127 170.357 99.127C170.904 99.127 171.338 99.0109 171.66 98.7789C171.985 98.5436 172.147 98.2619 172.147 97.9338C172.147 97.6686 172.054 97.4466 171.869 97.2676C171.683 97.0853 171.398 96.9494 171.014 96.8599L169.741 96.5616C169.042 96.3959 168.528 96.139 168.2 95.791C167.875 95.4397 167.712 95.0005 167.712 94.4735C167.712 94.0427 167.833 93.6615 168.075 93.3301C168.321 92.9986 168.654 92.7385 169.075 92.5495C169.499 92.3606 169.98 92.2662 170.516 92.2662C171.272 92.2662 171.865 92.4319 172.296 92.7633C172.73 93.0948 173.039 93.5323 173.221 94.0758ZM178.328 100.161C177.592 100.161 176.958 99.9986 176.424 99.6738C175.894 99.3457 175.484 98.8883 175.196 98.3017C174.911 97.7117 174.768 97.0256 174.768 96.2434C174.768 95.4612 174.911 94.7718 175.196 94.1752C175.484 93.5753 175.885 93.108 176.399 92.7733C176.916 92.4352 177.519 92.2662 178.209 92.2662C178.606 92.2662 178.999 92.3324 179.387 92.465C179.775 92.5976 180.128 92.813 180.446 93.1113C180.764 93.4063 181.018 93.7974 181.207 94.2846C181.396 94.7718 181.49 95.3717 181.49 96.0843V96.5815H175.604V95.5673H180.297C180.297 95.1364 180.211 94.752 180.038 94.4139C179.869 94.0758 179.627 93.809 179.312 93.6135C179.001 93.4179 178.633 93.3201 178.209 93.3201C177.741 93.3201 177.337 93.4361 176.996 93.6681C176.658 93.8968 176.397 94.1951 176.215 94.563C176.033 94.9309 175.942 95.3253 175.942 95.7463V96.4224C175.942 96.9991 176.041 97.488 176.24 97.889C176.442 98.2868 176.722 98.59 177.08 98.7988C177.438 99.0043 177.854 99.1071 178.328 99.1071C178.636 99.1071 178.915 99.064 179.163 98.9778C179.415 98.8883 179.632 98.7557 179.815 98.5801C179.997 98.4011 180.138 98.179 180.237 97.9139L181.371 98.2321C181.251 98.6165 181.051 98.9546 180.769 99.2463C180.487 99.5346 180.139 99.76 179.725 99.9224C179.311 100.081 178.845 100.161 178.328 100.161ZM183.275 100.002V92.3656H184.408V93.519H184.488C184.627 93.1412 184.879 92.8346 185.244 92.5993C185.608 92.3639 186.019 92.2463 186.476 92.2463C186.563 92.2463 186.67 92.2479 186.8 92.2512C186.929 92.2546 187.027 92.2595 187.093 92.2662V93.4593C187.053 93.4494 186.962 93.4345 186.82 93.4146C186.68 93.3914 186.533 93.3798 186.377 93.3798C186.006 93.3798 185.674 93.4577 185.383 93.6135C185.094 93.7659 184.866 93.978 184.697 94.2498C184.531 94.5183 184.448 94.8249 184.448 95.1696V100.002H183.275ZM193.893 94.0758L192.839 94.3741C192.773 94.1984 192.675 94.0278 192.546 93.862C192.42 93.693 192.247 93.5538 192.029 93.4444C191.81 93.335 191.53 93.2804 191.188 93.2804C190.721 93.2804 190.332 93.3881 190.02 93.6035C189.712 93.8156 189.558 94.0858 189.558 94.4139C189.558 94.7056 189.664 94.9359 189.876 95.1049C190.088 95.274 190.419 95.4148 190.87 95.5275L192.004 95.8059C192.686 95.9716 193.195 96.2252 193.53 96.5666C193.865 96.9047 194.032 97.3405 194.032 97.8741C194.032 98.3116 193.906 98.7027 193.654 99.0474C193.406 99.3921 193.058 99.6639 192.61 99.8627C192.163 100.062 191.642 100.161 191.049 100.161C190.27 100.161 189.626 99.992 189.115 99.6539C188.605 99.3159 188.282 98.822 188.146 98.1724L189.259 97.894C189.365 98.305 189.566 98.6132 189.861 98.8187C190.159 99.0242 190.549 99.127 191.029 99.127C191.576 99.127 192.01 99.0109 192.332 98.7789C192.657 98.5436 192.819 98.2619 192.819 97.9338C192.819 97.6686 192.726 97.4466 192.541 97.2676C192.355 97.0853 192.07 96.9494 191.685 96.8599L190.413 96.5616C189.713 96.3959 189.2 96.139 188.872 95.791C188.547 95.4397 188.384 95.0005 188.384 94.4735C188.384 94.0427 188.505 93.6615 188.747 93.3301C188.993 92.9986 189.326 92.7385 189.747 92.5495C190.171 92.3606 190.651 92.2662 191.188 92.2662C191.944 92.2662 192.537 92.4319 192.968 92.7633C193.402 93.0948 193.711 93.5323 193.893 94.0758Z" fill="#0D131B"/>
</g>
</g>
<defs>
<filter id="filter0_dd_781_34850" x="-0.000244141" y="0.00195312" width="242" height="136" filterUnits="userSpaceOnUse" color-interpolation-filters="sRGB">
<feFlood flood-opacity="0" result="BackgroundImageFix"/>
<feColorMatrix in="SourceAlpha" type="matrix" values="0 0 0 0 0 0 0 0 0 0 0 0 0 0 0 0 0 0 127 0" result="hardAlpha"/>
<feOffset/>
<feGaussianBlur stdDeviation="0.5"/>
<feColorMatrix type="matrix" values="0 0 0 0 0.0509804 0 0 0 0 0.0745098 0 0 0 0 0.105882 0 0 0 0.25 0"/>
<feBlend mode="normal" in2="BackgroundImageFix" result="effect1_dropShadow_781_34850"/>
<feColorMatrix in="SourceAlpha" type="matrix" values="0 0 0 0 0 0 0 0 0 0 0 0 0 0 0 0 0 0 127 0" result="hardAlpha"/>
<feOffset dy="2"/>
<feGaussianBlur stdDeviation="0.5"/>
<feColorMatrix type="matrix" values="0 0 0 0 0.0509804 0 0 0 0 0.0745098 0 0 0 0 0.105882 0 0 0 0.05 0"/>
<feBlend mode="normal" in2="effect1_dropShadow_781_34850" result="effect2_dropShadow_781_34850"/>
<feBlend mode="normal" in="SourceGraphic" in2="effect2_dropShadow_781_34850" result="shape"/>
</filter>
<filter id="filter1_dd_781_34850" x="19.9998" y="20.002" width="202" height="40" filterUnits="userSpaceOnUse" color-interpolation-filters="sRGB">
<feFlood flood-opacity="0" result="BackgroundImageFix"/>
<feColorMatrix in="SourceAlpha" type="matrix" values="0 0 0 0 0 0 0 0 0 0 0 0 0 0 0 0 0 0 127 0" result="hardAlpha"/>
<feOffset/>
<feGaussianBlur stdDeviation="0.5"/>
<feColorMatrix type="matrix" values="0 0 0 0 0.0509804 0 0 0 0 0.0745098 0 0 0 0 0.105882 0 0 0 0.25 0"/>
<feBlend mode="normal" in2="BackgroundImageFix" result="effect1_dropShadow_781_34850"/>
<feColorMatrix in="SourceAlpha" type="matrix" values="0 0 0 0 0 0 0 0 0 0 0 0 0 0 0 0 0 0 127 0" result="hardAlpha"/>
<feOffset dy="2"/>
<feGaussianBlur stdDeviation="0.5"/>
<feColorMatrix type="matrix" values="0 0 0 0 0.0509804 0 0 0 0 0.0745098 0 0 0 0 0.105882 0 0 0 0.05 0"/>
<feBlend mode="normal" in2="effect1_dropShadow_781_34850" result="effect2_dropShadow_781_34850"/>
<feBlend mode="normal" in="SourceGraphic" in2="effect2_dropShadow_781_34850" result="shape"/>
</filter>
<filter id="filter2_dd_781_34850" x="50.9998" y="31.002" width="16" height="18" filterUnits="userSpaceOnUse" color-interpolation-filters="sRGB">
<feFlood flood-opacity="0" result="BackgroundImageFix"/>
<feColorMatrix in="SourceAlpha" type="matrix" values="0 0 0 0 0 0 0 0 0 0 0 0 0 0 0 0 0 0 127 0" result="hardAlpha"/>
<feOffset/>
<feGaussianBlur stdDeviation="0.5"/>
<feColorMatrix type="matrix" values="0 0 0 0 0.0509804 0 0 0 0 0.0745098 0 0 0 0 0.105882 0 0 0 0.25 0"/>
<feBlend mode="normal" in2="BackgroundImageFix" result="effect1_dropShadow_781_34850"/>
<feColorMatrix in="SourceAlpha" type="matrix" values="0 0 0 0 0 0 0 0 0 0 0 0 0 0 0 0 0 0 127 0" result="hardAlpha"/>
<feOffset dy="2"/>
<feGaussianBlur stdDeviation="0.5"/>
<feColorMatrix type="matrix" values="0 0 0 0 0.0509804 0 0 0 0 0.0745098 0 0 0 0 0.105882 0 0 0 0.05 0"/>
<feBlend mode="normal" in2="effect1_dropShadow_781_34850" result="effect2_dropShadow_781_34850"/>
<feBlend mode="normal" in="SourceGraphic" in2="effect2_dropShadow_781_34850" result="shape"/>
</filter>
<filter id="filter3_dd_781_34850" x="19.9998" y="76.002" width="202" height="40" filterUnits="userSpaceOnUse" color-interpolation-filters="sRGB">
<feFlood flood-opacity="0" result="BackgroundImageFix"/>
<feColorMatrix in="SourceAlpha" type="matrix" values="0 0 0 0 0 0 0 0 0 0 0 0 0 0 0 0 0 0 127 0" result="hardAlpha"/>
<feOffset/>
<feGaussianBlur stdDeviation="0.5"/>
<feColorMatrix type="matrix" values="0 0 0 0 0.0509804 0 0 0 0 0.0745098 0 0 0 0 0.105882 0 0 0 0.25 0"/>
<feBlend mode="normal" in2="BackgroundImageFix" result="effect1_dropShadow_781_34850"/>
<feColorMatrix in="SourceAlpha" type="matrix" values="0 0 0 0 0 0 0 0 0 0 0 0 0 0 0 0 0 0 127 0" result="hardAlpha"/>
<feOffset dy="2"/>
<feGaussianBlur stdDeviation="0.5"/>
<feColorMatrix type="matrix" values="0 0 0 0 0.0509804 0 0 0 0 0.0745098 0 0 0 0 0.105882 0 0 0 0.05 0"/>
<feBlend mode="normal" in2="effect1_dropShadow_781_34850" result="effect2_dropShadow_781_34850"/>
<feBlend mode="normal" in="SourceGraphic" in2="effect2_dropShadow_781_34850" result="shape"/>
</filter>
</defs>
</svg>
