<svg width="242" height="136" viewBox="0 0 242 136" fill="none" xmlns="http://www.w3.org/2000/svg">
<g id="Group 4704">
<g id="Active users" filter="url(#filter0_dd_781_35166)">
<rect x="0.999756" y="1.00049" width="240" height="132" rx="20" fill="white"/>
<g id="Group 4663">
<g id="Frame 716" filter="url(#filter1_dd_781_35166)">
<rect x="20.9998" y="21.0005" width="200" height="36" rx="8" fill="white"/>
<g id="Audience component">
<g id="Frame 673">
<g id="Frame 715">
<g id="Switch">
<rect x="36.9998" y="31.0005" width="30" height="16" rx="8" fill="#6868F7"/>
<g id="Button" filter="url(#filter2_dd_781_35166)">
<circle cx="58.9998" cy="39.0005" r="7" fill="white"/>
</g>
</g>
<path id="Description" d="M76.2327 44.0005V33.8187H77.4657V42.9067H82.1986V44.0005H76.2327ZM86.1958 44.1795C85.7119 44.1795 85.2727 44.0883 84.8783 43.906C84.4839 43.7204 84.1707 43.4536 83.9387 43.1056C83.7067 42.7543 83.5907 42.33 83.5907 41.8329C83.5907 41.3954 83.6768 41.0407 83.8492 40.769C84.0215 40.4939 84.2519 40.2784 84.5402 40.1226C84.8286 39.9669 85.1468 39.8509 85.4948 39.7746C85.8461 39.6951 86.1991 39.6321 86.5537 39.5857C87.0177 39.5261 87.3939 39.4813 87.6823 39.4515C87.974 39.4183 88.1861 39.3637 88.3186 39.2874C88.4545 39.2112 88.5225 39.0786 88.5225 38.8897V38.8499C88.5225 38.3594 88.3883 37.9782 88.1198 37.7065C87.8546 37.4347 87.4519 37.2988 86.9117 37.2988C86.3516 37.2988 85.9124 37.4214 85.5942 37.6667C85.276 37.9119 85.0523 38.1738 84.9231 38.4522L83.8094 38.0545C84.0083 37.5905 84.2734 37.2292 84.6049 36.9707C84.9396 36.7088 85.3042 36.5265 85.6986 36.4238C86.0963 36.3177 86.4874 36.2647 86.8719 36.2647C87.1172 36.2647 87.3989 36.2945 87.7171 36.3542C88.0386 36.4105 88.3485 36.5282 88.6468 36.7072C88.9484 36.8861 89.1986 37.1563 89.3975 37.5175C89.5963 37.8788 89.6958 38.3627 89.6958 38.9692V44.0005H88.5225V42.9664H88.4628C88.3833 43.1321 88.2507 43.3094 88.0651 43.4984C87.8795 43.6873 87.6326 43.848 87.3243 43.9806C87.0161 44.1132 86.6399 44.1795 86.1958 44.1795ZM86.3748 43.1255C86.8388 43.1255 87.2299 43.0343 87.5481 42.8521C87.8695 42.6698 88.1115 42.4344 88.2739 42.1461C88.4396 41.8577 88.5225 41.5545 88.5225 41.2363V40.1624C88.4728 40.2221 88.3634 40.2768 88.1944 40.3265C88.0286 40.3729 87.8364 40.4143 87.6177 40.4508C87.4022 40.4839 87.1918 40.5137 86.9863 40.5403C86.7841 40.5635 86.62 40.5833 86.4941 40.5999C86.1891 40.6397 85.9041 40.7043 85.639 40.7938C85.3771 40.88 85.165 41.0109 85.0026 41.1866C84.8435 41.3589 84.764 41.5942 84.764 41.8925C84.764 42.3002 84.9148 42.6084 85.2164 42.8172C85.5213 43.0227 85.9074 43.1255 86.3748 43.1255ZM96.6498 40.8783V36.3641H97.8231V44.0005H96.6498V42.7079H96.5702C96.3913 43.0957 96.1129 43.4254 95.735 43.6972C95.3572 43.9657 94.8799 44.0999 94.3032 44.0999C93.8259 44.0999 93.4017 43.9955 93.0305 43.7867C92.6593 43.5746 92.3676 43.2564 92.1555 42.8322C91.9434 42.4046 91.8373 41.866 91.8373 41.2164V36.3641H93.0106V41.1369C93.0106 41.6937 93.1664 42.1378 93.4779 42.4692C93.7928 42.8007 94.1938 42.9664 94.681 42.9664C94.9727 42.9664 95.2693 42.8918 95.571 42.7427C95.8759 42.5935 96.1311 42.3648 96.3366 42.0566C96.5454 41.7484 96.6498 41.3556 96.6498 40.8783ZM101.145 39.4067V44.0005H99.9721V36.3641H101.106V37.5573H101.205C101.384 37.1695 101.656 36.858 102.02 36.6226C102.385 36.384 102.856 36.2647 103.432 36.2647C103.949 36.2647 104.402 36.3708 104.79 36.5829C105.177 36.7917 105.479 37.1099 105.694 37.5374C105.91 37.9617 106.018 38.4986 106.018 39.1482V44.0005H104.844V39.2278C104.844 38.6279 104.688 38.1605 104.377 37.8258C104.065 37.4877 103.638 37.3187 103.094 37.3187C102.72 37.3187 102.385 37.3999 102.09 37.5623C101.798 37.7247 101.568 37.9617 101.399 38.2732C101.23 38.5848 101.145 38.9626 101.145 39.4067ZM111.264 44.1596C110.548 44.1596 109.931 43.9905 109.414 43.6525C108.897 43.3144 108.5 42.8487 108.221 42.2555C107.943 41.6622 107.804 40.9844 107.804 40.2221C107.804 39.4465 107.946 38.7621 108.231 38.1688C108.519 37.5722 108.921 37.1065 109.434 36.7718C109.951 36.4337 110.555 36.2647 111.244 36.2647C111.781 36.2647 112.265 36.3641 112.696 36.563C113.126 36.7619 113.479 37.0403 113.755 37.3982C114.03 37.7562 114.2 38.1738 114.267 38.6511H113.093C113.004 38.303 112.805 37.9948 112.497 37.7263C112.192 37.4546 111.781 37.3187 111.264 37.3187C110.806 37.3187 110.405 37.438 110.061 37.6766C109.719 37.9119 109.452 38.245 109.26 38.6759C109.071 39.1035 108.977 39.6056 108.977 40.1823C108.977 40.7723 109.07 41.286 109.255 41.7235C109.444 42.161 109.709 42.5007 110.051 42.7427C110.395 42.9846 110.8 43.1056 111.264 43.1056C111.569 43.1056 111.845 43.0526 112.094 42.9465C112.343 42.8405 112.553 42.688 112.725 42.4891C112.898 42.2903 113.02 42.0516 113.093 41.7732H114.267C114.2 42.224 114.036 42.63 113.774 42.9913C113.516 43.3492 113.173 43.6342 112.745 43.8464C112.321 44.0552 111.827 44.1596 111.264 44.1596ZM117.155 39.4067V44.0005H115.982V33.8187H117.155V37.5573H117.255C117.434 37.1629 117.702 36.8497 118.06 36.6177C118.421 36.3824 118.902 36.2647 119.502 36.2647C120.022 36.2647 120.478 36.3691 120.869 36.5779C121.26 36.7834 121.563 37.0999 121.779 37.5275C121.997 37.9517 122.107 38.492 122.107 39.1482V44.0005H120.934V39.2278C120.934 38.6212 120.776 38.1522 120.461 37.8208C120.15 37.486 119.717 37.3187 119.164 37.3187C118.779 37.3187 118.434 37.3999 118.13 37.5623C117.828 37.7247 117.589 37.9617 117.414 38.2732C117.241 38.5848 117.155 38.9626 117.155 39.4067ZM128.191 44.0005V36.3641H129.324V37.5573H129.424C129.583 37.1496 129.84 36.8331 130.194 36.6077C130.549 36.379 130.975 36.2647 131.472 36.2647C131.976 36.2647 132.395 36.379 132.73 36.6077C133.068 36.8331 133.331 37.1496 133.52 37.5573H133.6C133.795 37.1629 134.089 36.8497 134.48 36.6177C134.871 36.3824 135.34 36.2647 135.887 36.2647C136.57 36.2647 137.128 36.4785 137.562 36.906C137.996 37.3303 138.214 37.9915 138.214 38.8897V44.0005H137.04V38.8897C137.04 38.3262 136.886 37.9235 136.578 37.6816C136.27 37.4396 135.907 37.3187 135.489 37.3187C134.952 37.3187 134.536 37.4811 134.241 37.8059C133.946 38.1274 133.799 38.5351 133.799 39.0289V44.0005H132.606V38.7704C132.606 38.3362 132.465 37.9865 132.183 37.7214C131.901 37.4529 131.538 37.3187 131.094 37.3187C130.789 37.3187 130.504 37.3999 130.239 37.5623C129.977 37.7247 129.765 37.9501 129.603 38.2384C129.444 38.5235 129.364 38.8532 129.364 39.2278V44.0005H128.191ZM143.461 44.1596C142.772 44.1596 142.167 43.9955 141.646 43.6674C141.129 43.3393 140.725 42.8802 140.433 42.2903C140.145 41.7003 140.001 41.0109 140.001 40.2221C140.001 39.4266 140.145 38.7323 140.433 38.139C140.725 37.5457 141.129 37.085 141.646 36.7569C142.167 36.4288 142.772 36.2647 143.461 36.2647C144.15 36.2647 144.754 36.4288 145.271 36.7569C145.791 37.085 146.195 37.5457 146.484 38.139C146.775 38.7323 146.921 39.4266 146.921 40.2221C146.921 41.0109 146.775 41.7003 146.484 42.2903C146.195 42.8802 145.791 43.3393 145.271 43.6674C144.754 43.9955 144.15 44.1596 143.461 44.1596ZM143.461 43.1056C143.985 43.1056 144.416 42.9714 144.754 42.7029C145.092 42.4344 145.342 42.0815 145.504 41.644C145.667 41.2065 145.748 40.7325 145.748 40.2221C145.748 39.7117 145.667 39.236 145.504 38.7952C145.342 38.3544 145.092 37.9981 144.754 37.7263C144.416 37.4546 143.985 37.3187 143.461 37.3187C142.937 37.3187 142.507 37.4546 142.168 37.7263C141.83 37.9981 141.58 38.3544 141.418 38.7952C141.255 39.236 141.174 39.7117 141.174 40.2221C141.174 40.7325 141.255 41.2065 141.418 41.644C141.58 42.0815 141.83 42.4344 142.168 42.7029C142.507 42.9714 142.937 43.1056 143.461 43.1056ZM151.596 44.1596C150.959 44.1596 150.398 43.9988 149.91 43.6773C149.423 43.3525 149.042 42.8951 148.767 42.3052C148.492 41.7119 148.354 41.0109 148.354 40.2022C148.354 39.4001 148.492 38.7041 148.767 38.1141C149.042 37.5242 149.425 37.0684 149.915 36.7469C150.406 36.4254 150.973 36.2647 151.616 36.2647C152.113 36.2647 152.506 36.3476 152.794 36.5133C153.086 36.6757 153.308 36.8613 153.46 37.0701C153.616 37.2756 153.737 37.4446 153.823 37.5772H153.923V33.8187H155.096V44.0005H153.962V42.8272H153.823C153.737 42.9664 153.614 43.1421 153.455 43.3542C153.296 43.563 153.069 43.7503 152.774 43.916C152.479 44.0784 152.086 44.1596 151.596 44.1596ZM151.755 43.1056C152.226 43.1056 152.623 42.983 152.948 42.7377C153.273 42.4891 153.52 42.1461 153.689 41.7086C153.858 41.2678 153.942 40.759 153.942 40.1823C153.942 39.6122 153.86 39.1134 153.694 38.6859C153.528 38.255 153.283 37.9202 152.958 37.6816C152.633 37.4396 152.232 37.3187 151.755 37.3187C151.258 37.3187 150.843 37.4463 150.512 37.7015C150.184 37.9534 149.937 38.2964 149.771 38.7306C149.609 39.1615 149.528 39.6454 149.528 40.1823C149.528 40.7259 149.61 41.2197 149.776 41.6638C149.945 42.1047 150.194 42.456 150.522 42.7178C150.853 42.9763 151.264 43.1056 151.755 43.1056ZM160.609 44.1596C159.874 44.1596 159.239 43.9972 158.705 43.6724C158.175 43.3442 157.766 42.8869 157.477 42.3002C157.192 41.7102 157.05 41.0242 157.05 40.242C157.05 39.4598 157.192 38.7704 157.477 38.1738C157.766 37.5739 158.167 37.1065 158.68 36.7718C159.197 36.4337 159.801 36.2647 160.49 36.2647C160.888 36.2647 161.28 36.331 161.668 36.4636C162.056 36.5961 162.409 36.8116 162.727 37.1099C163.045 37.4048 163.299 37.7959 163.488 38.2832C163.677 38.7704 163.771 39.3703 163.771 40.0829V40.58H157.885V39.5658H162.578C162.578 39.135 162.492 38.7505 162.32 38.4124C162.151 38.0744 161.909 37.8075 161.594 37.612C161.282 37.4164 160.914 37.3187 160.49 37.3187C160.023 37.3187 159.618 37.4347 159.277 37.6667C158.939 37.8954 158.679 38.1937 158.496 38.5616C158.314 38.9295 158.223 39.3239 158.223 39.7448V40.4209C158.223 40.9976 158.322 41.4865 158.521 41.8876C158.723 42.2853 159.003 42.5886 159.361 42.7974C159.719 43.0029 160.135 43.1056 160.609 43.1056C160.918 43.1056 161.196 43.0625 161.445 42.9763C161.696 42.8869 161.914 42.7543 162.096 42.5786C162.278 42.3996 162.419 42.1776 162.518 41.9124L163.652 42.2306C163.533 42.6151 163.332 42.9531 163.05 43.2448C162.769 43.5332 162.421 43.7585 162.006 43.9209C161.592 44.08 161.126 44.1596 160.609 44.1596Z" fill="#0D131B"/>
</g>
</g>
</g>
</g>
<g id="Frame 717" filter="url(#filter3_dd_781_35166)">
<rect x="20.9998" y="77.0005" width="200" height="36" rx="8" fill="white"/>
<g id="Audience component_2">
<g id="Frame 673_2">
<g id="Frame 715_2">
<g id="Switch_2">
<rect x="36.9998" y="87.0005" width="30" height="16" rx="8" fill="#E9ECEF"/>
</g>
<path id="Description_2" d="M76.9287 100.08C76.6835 100.08 76.473 99.9922 76.2973 99.8165C76.1217 99.6409 76.0338 99.4304 76.0338 99.1851C76.0338 98.9399 76.1217 98.7294 76.2973 98.5538C76.473 98.3781 76.6835 98.2903 76.9287 98.2903C77.174 98.2903 77.3845 98.3781 77.5601 98.5538C77.7358 98.7294 77.8236 98.9399 77.8236 99.1851C77.8236 99.3476 77.7822 99.4967 77.6993 99.6326C77.6198 99.7685 77.5121 99.8779 77.3762 99.9607C77.2436 100.04 77.0945 100.08 76.9287 100.08ZM80.7842 100.08C80.5389 100.08 80.3285 99.9922 80.1528 99.8165C79.9771 99.6409 79.8893 99.4304 79.8893 99.1851C79.8893 98.9399 79.9771 98.7294 80.1528 98.5538C80.3285 98.3781 80.5389 98.2903 80.7842 98.2903C81.0295 98.2903 81.2399 98.3781 81.4156 98.5538C81.5913 98.7294 81.6791 98.9399 81.6791 99.1851C81.6791 99.3476 81.6377 99.4967 81.5548 99.6326C81.4753 99.7685 81.3675 99.8779 81.2316 99.9607C81.0991 100.04 80.9499 100.08 80.7842 100.08ZM84.6397 100.08C84.3944 100.08 84.1839 99.9922 84.0083 99.8165C83.8326 99.6409 83.7448 99.4304 83.7448 99.1851C83.7448 98.9399 83.8326 98.7294 84.0083 98.5538C84.1839 98.3781 84.3944 98.2903 84.6397 98.2903C84.8849 98.2903 85.0954 98.3781 85.2711 98.5538C85.4467 98.7294 85.5346 98.9399 85.5346 99.1851C85.5346 99.3476 85.4931 99.4967 85.4103 99.6326C85.3307 99.7685 85.223 99.8779 85.0871 99.9607C84.9545 100.04 84.8054 100.08 84.6397 100.08Z" fill="#0D131B"/>
</g>
</g>
</g>
</g>
</g>
</g>
</g>
<defs>
<filter id="filter0_dd_781_35166" x="-0.000244141" y="0.000488281" width="242" height="136" filterUnits="userSpaceOnUse" color-interpolation-filters="sRGB">
<feFlood flood-opacity="0" result="BackgroundImageFix"/>
<feColorMatrix in="SourceAlpha" type="matrix" values="0 0 0 0 0 0 0 0 0 0 0 0 0 0 0 0 0 0 127 0" result="hardAlpha"/>
<feOffset/>
<feGaussianBlur stdDeviation="0.5"/>
<feColorMatrix type="matrix" values="0 0 0 0 0.0509804 0 0 0 0 0.0745098 0 0 0 0 0.105882 0 0 0 0.25 0"/>
<feBlend mode="normal" in2="BackgroundImageFix" result="effect1_dropShadow_781_35166"/>
<feColorMatrix in="SourceAlpha" type="matrix" values="0 0 0 0 0 0 0 0 0 0 0 0 0 0 0 0 0 0 127 0" result="hardAlpha"/>
<feOffset dy="2"/>
<feGaussianBlur stdDeviation="0.5"/>
<feColorMatrix type="matrix" values="0 0 0 0 0.0509804 0 0 0 0 0.0745098 0 0 0 0 0.105882 0 0 0 0.05 0"/>
<feBlend mode="normal" in2="effect1_dropShadow_781_35166" result="effect2_dropShadow_781_35166"/>
<feBlend mode="normal" in="SourceGraphic" in2="effect2_dropShadow_781_35166" result="shape"/>
</filter>
<filter id="filter1_dd_781_35166" x="19.9998" y="20.0005" width="202" height="40" filterUnits="userSpaceOnUse" color-interpolation-filters="sRGB">
<feFlood flood-opacity="0" result="BackgroundImageFix"/>
<feColorMatrix in="SourceAlpha" type="matrix" values="0 0 0 0 0 0 0 0 0 0 0 0 0 0 0 0 0 0 127 0" result="hardAlpha"/>
<feOffset/>
<feGaussianBlur stdDeviation="0.5"/>
<feColorMatrix type="matrix" values="0 0 0 0 0.0509804 0 0 0 0 0.0745098 0 0 0 0 0.105882 0 0 0 0.25 0"/>
<feBlend mode="normal" in2="BackgroundImageFix" result="effect1_dropShadow_781_35166"/>
<feColorMatrix in="SourceAlpha" type="matrix" values="0 0 0 0 0 0 0 0 0 0 0 0 0 0 0 0 0 0 127 0" result="hardAlpha"/>
<feOffset dy="2"/>
<feGaussianBlur stdDeviation="0.5"/>
<feColorMatrix type="matrix" values="0 0 0 0 0.0509804 0 0 0 0 0.0745098 0 0 0 0 0.105882 0 0 0 0.05 0"/>
<feBlend mode="normal" in2="effect1_dropShadow_781_35166" result="effect2_dropShadow_781_35166"/>
<feBlend mode="normal" in="SourceGraphic" in2="effect2_dropShadow_781_35166" result="shape"/>
</filter>
<filter id="filter2_dd_781_35166" x="50.9998" y="31.0005" width="16" height="18" filterUnits="userSpaceOnUse" color-interpolation-filters="sRGB">
<feFlood flood-opacity="0" result="BackgroundImageFix"/>
<feColorMatrix in="SourceAlpha" type="matrix" values="0 0 0 0 0 0 0 0 0 0 0 0 0 0 0 0 0 0 127 0" result="hardAlpha"/>
<feOffset/>
<feGaussianBlur stdDeviation="0.5"/>
<feColorMatrix type="matrix" values="0 0 0 0 0.0509804 0 0 0 0 0.0745098 0 0 0 0 0.105882 0 0 0 0.25 0"/>
<feBlend mode="normal" in2="BackgroundImageFix" result="effect1_dropShadow_781_35166"/>
<feColorMatrix in="SourceAlpha" type="matrix" values="0 0 0 0 0 0 0 0 0 0 0 0 0 0 0 0 0 0 127 0" result="hardAlpha"/>
<feOffset dy="2"/>
<feGaussianBlur stdDeviation="0.5"/>
<feColorMatrix type="matrix" values="0 0 0 0 0.0509804 0 0 0 0 0.0745098 0 0 0 0 0.105882 0 0 0 0.05 0"/>
<feBlend mode="normal" in2="effect1_dropShadow_781_35166" result="effect2_dropShadow_781_35166"/>
<feBlend mode="normal" in="SourceGraphic" in2="effect2_dropShadow_781_35166" result="shape"/>
</filter>
<filter id="filter3_dd_781_35166" x="19.9998" y="76.0005" width="202" height="40" filterUnits="userSpaceOnUse" color-interpolation-filters="sRGB">
<feFlood flood-opacity="0" result="BackgroundImageFix"/>
<feColorMatrix in="SourceAlpha" type="matrix" values="0 0 0 0 0 0 0 0 0 0 0 0 0 0 0 0 0 0 127 0" result="hardAlpha"/>
<feOffset/>
<feGaussianBlur stdDeviation="0.5"/>
<feColorMatrix type="matrix" values="0 0 0 0 0.0509804 0 0 0 0 0.0745098 0 0 0 0 0.105882 0 0 0 0.25 0"/>
<feBlend mode="normal" in2="BackgroundImageFix" result="effect1_dropShadow_781_35166"/>
<feColorMatrix in="SourceAlpha" type="matrix" values="0 0 0 0 0 0 0 0 0 0 0 0 0 0 0 0 0 0 127 0" result="hardAlpha"/>
<feOffset dy="2"/>
<feGaussianBlur stdDeviation="0.5"/>
<feColorMatrix type="matrix" values="0 0 0 0 0.0509804 0 0 0 0 0.0745098 0 0 0 0 0.105882 0 0 0 0.05 0"/>
<feBlend mode="normal" in2="effect1_dropShadow_781_35166" result="effect2_dropShadow_781_35166"/>
<feBlend mode="normal" in="SourceGraphic" in2="effect2_dropShadow_781_35166" result="shape"/>
</filter>
</defs>
</svg>
