<svg width="32" height="32" viewBox="0 0 32 32" fill="none" xmlns="http://www.w3.org/2000/svg">
<path d="M7.8001 4.66666C7.96701 4.46775 8.05 4.21171 8.03152 3.9527C8.01304 3.69369 7.89453 3.45203 7.70107 3.27883C7.5076 3.10563 7.25435 3.01447 6.99488 3.02464C6.73542 3.03482 6.49008 3.14552 6.31077 3.33333C4.67273 5.16033 3.58708 7.41486 3.1801 9.83466C3.14246 10.0934 3.20765 10.3566 3.36171 10.5679C3.51577 10.7791 3.74644 10.9216 4.00431 10.9649C4.26218 11.0081 4.52672 10.9486 4.74127 10.7992C4.95581 10.6497 5.10329 10.4222 5.1521 10.1653C5.49628 8.11868 6.41456 6.21183 7.8001 4.66666ZM25.6894 3.33333C25.6021 3.23458 25.4962 3.15406 25.3776 3.0964C25.2591 3.03875 25.1303 3.0051 24.9988 2.99738C24.8672 2.98967 24.7354 3.00804 24.6109 3.05145C24.4864 3.09486 24.3718 3.16245 24.2735 3.25032C24.1753 3.3382 24.0954 3.44463 24.0384 3.56349C23.9815 3.68236 23.9486 3.81131 23.9416 3.94294C23.9347 4.07457 23.9538 4.20627 23.9979 4.33048C24.0421 4.45468 24.1103 4.56893 24.1988 4.66666C25.5847 6.21171 26.5035 8.11856 26.8481 10.1653C26.892 10.427 27.038 10.6606 27.254 10.8146C27.361 10.8909 27.4819 10.9453 27.6099 10.9748C27.738 11.0044 27.8705 11.0084 28.0001 10.9867C28.1297 10.965 28.2537 10.9179 28.3651 10.8483C28.4765 10.7786 28.5731 10.6877 28.6494 10.5808C28.7256 10.4738 28.7801 10.3528 28.8096 10.2248C28.8391 10.0968 28.8431 9.96424 28.8214 9.83466C28.4136 7.41459 27.3284 5.16006 25.6894 3.33333Z" fill="#560059"/>
<path fillRule="evenodd" clipRule="evenodd" d="M16.0001 3C13.6131 3 11.3239 3.94821 9.63609 5.63604C7.94826 7.32387 7.00005 9.61305 7.00005 12V13C7.00416 15.7189 5.99713 18.3422 4.17472 20.36C4.06528 20.4814 3.98726 20.6278 3.94751 20.7863C3.90775 20.9449 3.90747 21.1108 3.94668 21.2694C3.98589 21.4281 4.0634 21.5748 4.17242 21.6966C4.28144 21.8183 4.41866 21.9115 4.57205 21.968C6.63072 22.728 8.78538 23.288 11.0134 23.6253C10.9632 24.3109 11.0549 24.9994 11.2828 25.6478C11.5107 26.2963 11.8698 26.8909 12.3378 27.3943C12.8057 27.8978 13.3725 28.2993 14.0026 28.5739C14.6327 28.8485 15.3127 28.9902 16.0001 28.9902C16.6874 28.9902 17.3674 28.8485 17.9975 28.5739C18.6276 28.2993 19.1944 27.8978 19.6623 27.3943C20.1303 26.8909 20.4894 26.2963 20.7173 25.6478C20.9452 24.9994 21.0369 24.3109 20.9867 23.6253C23.1841 23.2922 25.3418 22.7365 27.4267 21.9667C27.5799 21.9101 27.7169 21.8169 27.8257 21.6953C27.9345 21.5736 28.0119 21.4271 28.0511 21.2686C28.0903 21.1101 28.0901 20.9445 28.0505 20.7861C28.011 20.6277 27.9332 20.4814 27.824 20.36C26.0021 18.342 24.9956 15.7187 25 13V12C25 9.61305 24.0518 7.32387 22.364 5.63604C20.6762 3.94821 18.387 3 16.0001 3ZM13.0001 24C13.0001 23.9547 13.0001 23.9107 13.0027 23.8667C14.9969 24.0464 17.0032 24.0464 18.9974 23.8667L19 24C19 24.7957 18.684 25.5587 18.1214 26.1213C17.5588 26.6839 16.7957 27 16.0001 27C15.2044 27 14.4413 26.6839 13.8787 26.1213C13.3161 25.5587 13.0001 24.7957 13.0001 24Z" fill="#560059"/>
</svg>
