<svg width="32" height="32" viewBox="0 0 32 32" fill="none" xmlns="http://www.w3.org/2000/svg">
<path fillRule="evenodd" clipRule="evenodd" d="M17.284 3.048C17.2036 2.94032 17.1024 2.84994 16.9863 2.78225C16.8703 2.71456 16.7418 2.67095 16.6085 2.65402C16.4752 2.6371 16.3399 2.64721 16.2106 2.68374C16.0813 2.72028 15.9607 2.78249 15.856 2.86667C13.3007 4.9181 11.6152 7.85952 11.1373 11.1013C10.2615 10.4663 9.4939 9.69414 8.86397 8.81467C8.77841 8.69507 8.66753 8.59582 8.53922 8.52397C8.41091 8.45213 8.26834 8.40947 8.12166 8.39903C7.97498 8.38859 7.82781 8.41063 7.69062 8.46357C7.55343 8.51652 7.4296 8.59906 7.32797 8.70534C5.56706 10.5474 4.4383 12.9022 4.10518 15.4287C3.77206 17.9552 4.25189 20.5221 5.47516 22.7577C6.69843 24.9932 8.60162 26.7813 10.909 27.8629C13.2165 28.9445 15.8083 29.2634 18.3091 28.7735C20.8099 28.2836 23.0898 27.0103 24.8186 25.1381C26.5474 23.2658 27.6352 20.8918 27.9246 18.3599C28.214 15.8281 27.6898 13.2698 26.428 11.0558C25.1663 8.84173 23.2324 7.08685 20.9066 6.04534C19.4769 5.3501 18.2346 4.32227 17.284 3.048ZM21 19C20.9995 19.7232 20.8421 20.4378 20.5386 21.0943C20.2352 21.7508 19.793 22.3337 19.2424 22.8027C18.6919 23.2717 18.0461 23.6157 17.3497 23.8109C16.6533 24.0062 15.9229 24.048 15.2088 23.9336C14.4946 23.8191 13.8138 23.5511 13.2133 23.148C12.6128 22.7449 12.1069 22.2164 11.7305 21.5988C11.3541 20.9812 11.1161 20.2893 11.0331 19.5709C10.95 18.8524 11.0238 18.1245 11.2493 17.4373C12.0866 18.0573 13.0493 18.5173 14.0933 18.7707C14.3764 16.9453 15.2834 15.2744 16.66 14.0427C17.8613 14.2026 18.9637 14.7935 19.762 15.7054C20.5603 16.6173 21.0002 17.7881 21 19Z" fill="#003D5A"/>
</svg>
