<svg width="227" height="44" viewBox="0 0 227 44" fill="none" xmlns="http://www.w3.org/2000/svg">
<path d="M-4.84288e-07 21L18.1135 21L41 21" stroke="url(#paint0_linear_887_8928)" stroke-width="2"/>
<g filter="url(#filter0_dd_887_8928)">
<rect x="41" y="1" width="185" height="40" rx="20" fill="white"/>
<path d="M60.75 22.5L71.25 11.25L69 19.5H77.25L66.75 30.75L69 22.5H60.75Z" fill="#26A559" stroke="#26A559" stroke-linecap="round" stroke-linejoin="round"/>
<path d="M91.381 26H89.7504L93.4144 15.8182H95.1893L98.8533 26H97.2227L94.3441 17.6676H94.2646L91.381 26ZM91.6545 22.0128H96.9442V23.3054H91.6545V22.0128ZM103.298 26.1541C102.559 26.1541 101.922 25.9867 101.389 25.652C100.859 25.3139 100.451 24.8482 100.166 24.255C99.8808 23.6617 99.7383 22.9822 99.7383 22.2166C99.7383 21.4411 99.8841 20.7566 100.176 20.1634C100.467 19.5668 100.878 19.1011 101.409 18.7663C101.939 18.4316 102.564 18.2642 103.283 18.2642C103.863 18.2642 104.38 18.3719 104.834 18.5874C105.288 18.7995 105.654 19.0978 105.933 19.4822C106.215 19.8667 106.382 20.3158 106.435 20.8295H104.988C104.909 20.4716 104.726 20.1634 104.441 19.9048C104.16 19.6463 103.782 19.517 103.308 19.517C102.894 19.517 102.531 19.6264 102.219 19.8452C101.911 20.0606 101.671 20.3688 101.498 20.7699C101.326 21.1676 101.24 21.6383 101.24 22.1818C101.24 22.7386 101.324 23.2192 101.493 23.6236C101.662 24.0279 101.901 24.3411 102.209 24.5632C102.521 24.7853 102.887 24.8963 103.308 24.8963C103.59 24.8963 103.845 24.8449 104.074 24.7422C104.306 24.6361 104.499 24.4853 104.655 24.2898C104.814 24.0942 104.925 23.8589 104.988 23.5838H106.435C106.382 24.0777 106.221 24.5185 105.953 24.9062C105.684 25.294 105.325 25.599 104.874 25.821C104.426 26.0431 103.901 26.1541 103.298 26.1541ZM111.589 18.3636V19.5568H107.418V18.3636H111.589ZM108.537 16.5341H110.023V23.7578C110.023 24.0462 110.066 24.2633 110.153 24.4091C110.239 24.5516 110.35 24.6494 110.486 24.7024C110.625 24.7521 110.776 24.777 110.938 24.777C111.057 24.777 111.162 24.7687 111.251 24.7521C111.341 24.7356 111.41 24.7223 111.46 24.7124L111.729 25.9403C111.642 25.9735 111.52 26.0066 111.361 26.0398C111.202 26.0762 111.003 26.0961 110.764 26.0994C110.373 26.1061 110.008 26.0365 109.67 25.8906C109.332 25.7448 109.059 25.5194 108.85 25.2145C108.641 24.9096 108.537 24.5268 108.537 24.0661V16.5341ZM113.234 26V18.3636H114.72V26H113.234ZM113.984 17.1854C113.726 17.1854 113.504 17.0992 113.318 16.9268C113.136 16.7512 113.045 16.5424 113.045 16.3004C113.045 16.0552 113.136 15.8464 113.318 15.674C113.504 15.4983 113.726 15.4105 113.984 15.4105C114.243 15.4105 114.463 15.4983 114.646 15.674C114.831 15.8464 114.924 16.0552 114.924 16.3004C114.924 16.5424 114.831 16.7512 114.646 16.9268C114.463 17.0992 114.243 17.1854 113.984 17.1854ZM123.253 18.3636L120.483 26H118.893L116.118 18.3636H117.714L119.648 24.2401H119.728L121.657 18.3636H123.253ZM127.681 26.1541C126.929 26.1541 126.281 25.9934 125.737 25.6719C125.197 25.3471 124.779 24.8913 124.484 24.3047C124.193 23.7147 124.047 23.0237 124.047 22.2315C124.047 21.4493 124.193 20.7599 124.484 20.1634C124.779 19.5668 125.19 19.1011 125.717 18.7663C126.248 18.4316 126.867 18.2642 127.577 18.2642C128.008 18.2642 128.425 18.3355 128.83 18.478C129.234 18.6205 129.597 18.8442 129.918 19.1491C130.24 19.4541 130.493 19.8501 130.679 20.3374C130.865 20.8213 130.957 21.4096 130.957 22.1023V22.6293H124.887V21.5156H129.501C129.501 21.1245 129.421 20.7782 129.262 20.4766C129.103 20.1716 128.879 19.9313 128.591 19.7557C128.306 19.58 127.971 19.4922 127.587 19.4922C127.169 19.4922 126.804 19.5949 126.493 19.8004C126.185 20.0026 125.946 20.2678 125.777 20.5959C125.611 20.9207 125.528 21.2737 125.528 21.6548V22.5249C125.528 23.0353 125.618 23.4695 125.797 23.8274C125.979 24.1854 126.233 24.4588 126.558 24.6477C126.882 24.8333 127.262 24.9261 127.696 24.9261C127.978 24.9261 128.235 24.8864 128.467 24.8068C128.699 24.724 128.899 24.6013 129.068 24.4389C129.237 24.2765 129.366 24.076 129.456 23.8374L130.863 24.0909C130.75 24.5052 130.548 24.8681 130.256 25.1797C129.968 25.4879 129.605 25.7282 129.168 25.9006C128.733 26.0696 128.238 26.1541 127.681 26.1541ZM142.034 20.228L140.687 20.4666C140.63 20.2943 140.541 20.1302 140.418 19.9744C140.299 19.8187 140.137 19.6911 139.931 19.5916C139.726 19.4922 139.469 19.4425 139.161 19.4425C138.74 19.4425 138.388 19.5369 138.107 19.7259C137.825 19.9115 137.684 20.1518 137.684 20.4467C137.684 20.7019 137.778 20.9074 137.967 21.0632C138.156 21.219 138.461 21.3466 138.882 21.446L140.095 21.7244C140.798 21.8868 141.321 22.1371 141.666 22.4751C142.011 22.8132 142.183 23.2524 142.183 23.7926C142.183 24.25 142.051 24.6577 141.786 25.0156C141.524 25.3703 141.157 25.6487 140.687 25.8509C140.219 26.053 139.678 26.1541 139.061 26.1541C138.206 26.1541 137.508 25.9718 136.968 25.6072C136.428 25.2393 136.096 24.7173 135.974 24.0412L137.411 23.8224C137.5 24.197 137.684 24.4804 137.962 24.6726C138.241 24.8615 138.604 24.956 139.051 24.956C139.538 24.956 139.928 24.8549 140.219 24.6527C140.511 24.4472 140.657 24.197 140.657 23.902C140.657 23.6634 140.567 23.4628 140.388 23.3004C140.213 23.138 139.943 23.0154 139.578 22.9325L138.286 22.6491C137.573 22.4867 137.046 22.2282 136.705 21.8736C136.366 21.5189 136.197 21.0698 136.197 20.5263C136.197 20.0755 136.323 19.6811 136.575 19.343C136.827 19.005 137.175 18.7415 137.619 18.5526C138.063 18.3603 138.572 18.2642 139.146 18.2642C139.971 18.2642 140.621 18.4432 141.094 18.8011C141.568 19.1558 141.882 19.6314 142.034 20.228ZM147.109 26.1541C146.356 26.1541 145.709 25.9934 145.165 25.6719C144.625 25.3471 144.207 24.8913 143.912 24.3047C143.62 23.7147 143.475 23.0237 143.475 22.2315C143.475 21.4493 143.62 20.7599 143.912 20.1634C144.207 19.5668 144.618 19.1011 145.145 18.7663C145.675 18.4316 146.295 18.2642 147.004 18.2642C147.435 18.2642 147.853 18.3355 148.257 18.478C148.662 18.6205 149.025 18.8442 149.346 19.1491C149.668 19.4541 149.921 19.8501 150.107 20.3374C150.292 20.8213 150.385 21.4096 150.385 22.1023V22.6293H144.315V21.5156H148.928C148.928 21.1245 148.849 20.7782 148.69 20.4766C148.531 20.1716 148.307 19.9313 148.019 19.7557C147.734 19.58 147.399 19.4922 147.014 19.4922C146.597 19.4922 146.232 19.5949 145.921 19.8004C145.612 20.0026 145.374 20.2678 145.205 20.5959C145.039 20.9207 144.956 21.2737 144.956 21.6548V22.5249C144.956 23.0353 145.046 23.4695 145.225 23.8274C145.407 24.1854 145.66 24.4588 145.985 24.6477C146.31 24.8333 146.69 24.9261 147.124 24.9261C147.405 24.9261 147.662 24.8864 147.894 24.8068C148.126 24.724 148.327 24.6013 148.496 24.4389C148.665 24.2765 148.794 24.076 148.884 23.8374L150.291 24.0909C150.178 24.5052 149.976 24.8681 149.684 25.1797C149.396 25.4879 149.033 25.7282 148.595 25.9006C148.161 26.0696 147.666 26.1541 147.109 26.1541ZM154.257 26.169C153.773 26.169 153.335 26.0795 152.944 25.9006C152.553 25.7183 152.243 25.4548 152.015 25.1101C151.789 24.7654 151.676 24.3428 151.676 23.8423C151.676 23.4115 151.759 23.0568 151.925 22.7784C152.091 22.5 152.315 22.2796 152.596 22.1172C152.878 21.9548 153.193 21.8321 153.541 21.7493C153.889 21.6664 154.243 21.6035 154.605 21.5604C155.062 21.5073 155.433 21.4643 155.718 21.4311C156.003 21.3946 156.211 21.3366 156.34 21.2571C156.469 21.1776 156.534 21.0483 156.534 20.8693V20.8345C156.534 20.4003 156.411 20.0639 156.166 19.8253C155.924 19.5866 155.563 19.4673 155.082 19.4673C154.582 19.4673 154.187 19.5784 153.899 19.8004C153.614 20.0192 153.417 20.2628 153.307 20.5312L151.91 20.2131C152.076 19.7491 152.318 19.3745 152.636 19.0895C152.958 18.8011 153.327 18.5923 153.745 18.4631C154.162 18.3305 154.601 18.2642 155.062 18.2642C155.367 18.2642 155.69 18.3007 156.032 18.3736C156.376 18.4432 156.698 18.5724 156.996 18.7614C157.298 18.9503 157.545 19.2204 157.737 19.5717C157.929 19.9197 158.025 20.3722 158.025 20.929V26H156.574V24.956H156.514C156.418 25.1482 156.274 25.3371 156.081 25.5227C155.889 25.7083 155.642 25.8625 155.341 25.9851C155.039 26.1077 154.678 26.169 154.257 26.169ZM154.58 24.9759C154.991 24.9759 155.342 24.8946 155.634 24.7322C155.929 24.5698 156.153 24.3577 156.305 24.0959C156.461 23.8307 156.539 23.5473 156.539 23.2457V22.2614C156.486 22.3144 156.383 22.3641 156.23 22.4105C156.081 22.4536 155.911 22.4917 155.718 22.5249C155.526 22.5547 155.339 22.5829 155.157 22.6094C154.974 22.6326 154.822 22.6525 154.699 22.669C154.411 22.7055 154.147 22.7668 153.909 22.853C153.673 22.9392 153.484 23.0634 153.342 23.2259C153.203 23.3849 153.133 23.5971 153.133 23.8622C153.133 24.2301 153.269 24.5085 153.541 24.6974C153.813 24.883 154.159 24.9759 154.58 24.9759ZM163.57 18.3636V19.5568H159.399V18.3636H163.57ZM160.517 16.5341H162.004V23.7578C162.004 24.0462 162.047 24.2633 162.133 24.4091C162.219 24.5516 162.33 24.6494 162.466 24.7024C162.605 24.7521 162.756 24.777 162.919 24.777C163.038 24.777 163.142 24.7687 163.232 24.7521C163.321 24.7356 163.391 24.7223 163.441 24.7124L163.709 25.9403C163.623 25.9735 163.5 26.0066 163.341 26.0398C163.182 26.0762 162.983 26.0961 162.744 26.0994C162.353 26.1061 161.989 26.0365 161.651 25.8906C161.313 25.7448 161.039 25.5194 160.83 25.2145C160.622 24.9096 160.517 24.5268 160.517 24.0661V16.5341ZM170.813 20.228L169.466 20.4666C169.41 20.2943 169.32 20.1302 169.198 19.9744C169.078 19.8187 168.916 19.6911 168.71 19.5916C168.505 19.4922 168.248 19.4425 167.94 19.4425C167.519 19.4425 167.168 19.5369 166.886 19.7259C166.604 19.9115 166.463 20.1518 166.463 20.4467C166.463 20.7019 166.558 20.9074 166.747 21.0632C166.936 21.219 167.24 21.3466 167.661 21.446L168.874 21.7244C169.577 21.8868 170.101 22.1371 170.445 22.4751C170.79 22.8132 170.963 23.2524 170.963 23.7926C170.963 24.25 170.83 24.6577 170.565 25.0156C170.303 25.3703 169.937 25.6487 169.466 25.8509C168.999 26.053 168.457 26.1541 167.84 26.1541C166.985 26.1541 166.288 25.9718 165.747 25.6072C165.207 25.2393 164.876 24.7173 164.753 24.0412L166.19 23.8224C166.279 24.197 166.463 24.4804 166.742 24.6726C167.02 24.8615 167.383 24.956 167.83 24.956C168.318 24.956 168.707 24.8549 168.999 24.6527C169.29 24.4472 169.436 24.197 169.436 23.902C169.436 23.6634 169.347 23.4628 169.168 23.3004C168.992 23.138 168.722 23.0154 168.357 22.9325L167.065 22.6491C166.352 22.4867 165.825 22.2282 165.484 21.8736C165.146 21.5189 164.977 21.0698 164.977 20.5263C164.977 20.0755 165.103 19.6811 165.355 19.343C165.606 19.005 165.954 18.7415 166.399 18.5526C166.843 18.3603 167.352 18.2642 167.925 18.2642C168.75 18.2642 169.4 18.4432 169.874 18.8011C170.348 19.1558 170.661 19.6314 170.813 20.228Z" fill="#151531"/>
<rect x="180" y="9" width="38" height="24" rx="12" fill="#DAF9D4"/>
<path d="M191.393 26V24.8864L194.839 21.3168C195.207 20.929 195.51 20.5893 195.749 20.2976C195.991 20.0026 196.171 19.7225 196.29 19.4574C196.41 19.1922 196.469 18.9105 196.469 18.6122C196.469 18.2741 196.39 17.9825 196.231 17.7372C196.072 17.4886 195.855 17.2981 195.58 17.1655C195.304 17.0296 194.995 16.9616 194.65 16.9616C194.285 16.9616 193.967 17.0362 193.695 17.1854C193.424 17.3345 193.215 17.545 193.069 17.8168C192.923 18.0885 192.85 18.4067 192.85 18.7713H191.384C191.384 18.1515 191.526 17.6096 191.811 17.1456C192.096 16.6816 192.487 16.322 192.984 16.0668C193.482 15.8082 194.047 15.679 194.68 15.679C195.319 15.679 195.883 15.8066 196.37 16.0618C196.861 16.3137 197.243 16.6584 197.518 17.0959C197.794 17.5301 197.931 18.0206 197.931 18.5675C197.931 18.9453 197.86 19.3149 197.717 19.6761C197.578 20.0374 197.335 20.4401 196.987 20.8842C196.638 21.325 196.155 21.8603 195.535 22.4901L193.511 24.608V24.6825H198.095V26H191.393ZM199.979 26V24.8864L203.425 21.3168C203.793 20.929 204.096 20.5893 204.335 20.2976C204.576 20.0026 204.757 19.7225 204.876 19.4574C204.996 19.1922 205.055 18.9105 205.055 18.6122C205.055 18.2741 204.976 17.9825 204.817 17.7372C204.658 17.4886 204.441 17.2981 204.165 17.1655C203.89 17.0296 203.58 16.9616 203.236 16.9616C202.871 16.9616 202.553 17.0362 202.281 17.1854C202.009 17.3345 201.801 17.545 201.655 17.8168C201.509 18.0885 201.436 18.4067 201.436 18.7713H199.969C199.969 18.1515 200.112 17.6096 200.397 17.1456C200.682 16.6816 201.073 16.322 201.57 16.0668C202.067 15.8082 202.633 15.679 203.266 15.679C203.905 15.679 204.469 15.8066 204.956 16.0618C205.446 16.3137 205.829 16.6584 206.104 17.0959C206.379 17.5301 206.517 18.0206 206.517 18.5675C206.517 18.9453 206.446 19.3149 206.303 19.6761C206.164 20.0374 205.92 20.4401 205.572 20.8842C205.224 21.325 204.741 21.8603 204.121 22.4901L202.097 24.608V24.6825H206.681V26H199.979Z" fill="#005900"/>
</g>
<defs>
<filter id="filter0_dd_887_8928" x="40" y="0" width="187" height="44" filterUnits="userSpaceOnUse" color-interpolation-filters="sRGB">
<feFlood flood-opacity="0" result="BackgroundImageFix"/>
<feColorMatrix in="SourceAlpha" type="matrix" values="0 0 0 0 0 0 0 0 0 0 0 0 0 0 0 0 0 0 127 0" result="hardAlpha"/>
<feOffset/>
<feGaussianBlur stdDeviation="0.5"/>
<feColorMatrix type="matrix" values="0 0 0 0 0.0509804 0 0 0 0 0.0745098 0 0 0 0 0.105882 0 0 0 0.25 0"/>
<feBlend mode="normal" in2="BackgroundImageFix" result="effect1_dropShadow_887_8928"/>
<feColorMatrix in="SourceAlpha" type="matrix" values="0 0 0 0 0 0 0 0 0 0 0 0 0 0 0 0 0 0 127 0" result="hardAlpha"/>
<feOffset dy="2"/>
<feGaussianBlur stdDeviation="0.5"/>
<feColorMatrix type="matrix" values="0 0 0 0 0.0509804 0 0 0 0 0.0745098 0 0 0 0 0.105882 0 0 0 0.05 0"/>
<feBlend mode="normal" in2="effect1_dropShadow_887_8928" result="effect2_dropShadow_887_8928"/>
<feBlend mode="normal" in="SourceGraphic" in2="effect2_dropShadow_887_8928" result="shape"/>
</filter>
<linearGradient id="paint0_linear_887_8928" x1="41" y1="21" x2="-0.00150734" y2="21.1458" gradientUnits="userSpaceOnUse">
<stop stop-color="#26A559"/>
<stop offset="1" stop-color="#26A559" stop-opacity="0"/>
</linearGradient>
</defs>
</svg>
