<svg width="125" height="35" viewBox="0 0 125 35" fill="none" xmlns="http://www.w3.org/2000/svg">
<g clip-path="url(#clip0_2081_40045)">
<path d="M103.317 18.6133C103.312 18.3037 103.266 18.0361 103.26 17.7264C103.173 16.8814 102.922 16.0702 102.486 15.386C101.498 13.7824 99.5966 13.6607 98.4101 14.3009C97.7248 14.6639 97.1884 15.2824 96.9743 16.0294C96.3819 17.5781 96.4102 19.1985 96.8301 20.7811C96.997 21.4699 97.3594 22.1243 97.8642 22.6523C98.8408 23.5954 100.318 23.6522 101.341 23.1285C102.109 22.7331 102.562 22.1057 102.89 21.3257C103.184 20.474 103.323 19.5424 103.307 18.6135L103.317 18.6133ZM91.3745 32.9452L90.9873 10.7654L95.4253 10.6879L95.4718 13.3507C95.6281 13.4306 95.6679 13.3473 95.7382 13.2325C96.2574 12.222 96.9445 11.3634 98.009 10.839C98.5416 10.5922 99.117 10.4376 99.6943 10.3863C100.581 10.2985 101.511 10.3958 102.363 10.6907C103.765 11.1721 104.939 12.1531 105.653 13.4518C106.292 14.5556 106.654 15.7882 106.799 17.0246C106.984 18.7248 106.973 20.4595 106.465 22.1305C106.175 23.2196 105.614 24.2309 104.854 25.0494C103.831 26.1823 102.378 26.9097 100.83 26.9677C100.058 27.0637 99.3227 26.9527 98.5859 26.7384C97.4646 26.376 96.5215 25.5768 95.9661 24.5128L95.8484 24.2774C95.8484 24.2774 95.7749 24.2064 95.6916 24.1666L95.8431 32.8466L91.3645 32.966L91.3745 32.9452Z" fill="#151531"/>
<path d="M124.368 26.3092L119.858 26.388L119.688 16.6656C119.678 16.0876 119.513 15.5123 119.236 15.0113C118.874 14.3981 118.258 13.9856 117.595 13.8836C116.818 13.701 115.973 13.7984 115.288 14.1923C114.409 14.6723 113.958 15.4544 113.819 16.3757C113.782 16.6448 113.757 16.9549 113.762 17.2646L113.924 26.5225L109.444 26.6007L109.068 5.04007L113.424 4.96404L113.565 13.0661C113.565 13.0661 113.608 13.1376 113.639 13.1784C113.68 13.1364 113.752 13.1351 113.752 13.1041C113.821 12.9481 113.9 12.7505 113.97 12.5944C114.719 11.1876 115.862 10.4036 117.437 10.1387C118.436 9.96637 119.437 9.99019 120.413 10.2829C121.658 10.6122 122.715 11.4403 123.343 12.5444C123.822 13.3413 124.106 14.2655 124.164 15.1937C124.166 15.3485 124.21 15.4613 124.212 15.6161L124.358 26.2991L124.368 26.3092Z" fill="#151531"/>
<path d="M57.0507 18.9978C57.0507 18.9978 57.0082 18.9263 57.0075 18.885L55.9097 15.7346C55.3772 14.2056 54.8547 12.6661 54.3214 11.0958C54.2789 11.0243 54.2465 10.9422 54.1639 10.9437C54.0497 10.9044 54.0516 11.0179 54.0125 11.1425C53.945 11.4121 53.8258 11.6826 53.7582 11.9522C53.1031 14.0492 52.479 16.1456 51.8238 18.2425C51.757 18.5534 51.6378 18.8239 51.571 19.1348L57.0507 18.9978ZM58.2281 22.5701L50.6318 22.7027C50.5176 22.6634 50.4055 22.7479 50.4075 22.8614C49.928 24.3771 49.4595 25.9236 49.0213 27.4386C48.9828 27.5941 48.8705 27.6684 48.7564 27.6394L44.0913 27.7208C44.1987 27.3679 44.3068 27.0563 44.384 26.7452L46.1095 21.5014C46.8438 19.2069 47.6092 16.9223 48.3435 14.6278C48.971 12.7275 49.5876 10.7861 50.2151 8.88585C50.5093 7.99284 50.8034 7.09983 51.0976 6.20682C51.0963 6.13457 51.2084 6.05001 51.291 6.04857L56.8849 5.95093C56.9985 5.94894 57.0825 6.03008 57.1147 6.10179C57.5155 7.17883 57.8859 8.28736 58.2867 9.3644L60.8781 16.4635L62.6988 21.408C63.393 23.3265 64.1182 25.2445 64.8022 27.1631C64.8029 27.2044 64.8454 27.2759 64.8469 27.3585L60.1818 27.4399C60.069 27.4832 59.9122 27.3724 59.91 27.2485C59.3772 25.7092 58.855 24.18 58.3222 22.6407C58.2802 22.6001 58.2493 22.6007 58.2487 22.5697L58.2281 22.5701Z" fill="#151531"/>
<path d="M84.5342 17.2792C84.558 16.2773 84.1496 15.3553 83.3745 14.7184C81.8881 13.5467 79.6931 13.7812 78.5222 15.309C78.0265 15.8958 77.771 16.6333 77.7845 17.4073L84.5344 17.2895L84.5342 17.2792ZM88.6826 22.4927C88.5812 23.1862 88.2838 23.8935 87.8707 24.4788C86.964 25.7645 85.7073 26.5195 84.2491 26.9682C83.2526 27.254 82.2535 27.3851 81.2105 27.3723C80.0133 27.3932 78.8114 27.1457 77.6879 26.6595C76.3663 26.0631 75.2658 25.1221 74.552 23.8544C73.8713 22.71 73.5085 21.4464 73.4029 20.1268C73.2665 18.818 73.3579 17.5465 73.6864 16.2606C74.2693 14.165 75.4692 12.5231 77.423 11.4876C78.3033 11.0489 79.2275 10.7644 80.2279 10.7056C81.4231 10.5712 82.6644 10.7044 83.8263 11.0248C84.8335 11.3582 85.8131 11.878 86.5594 12.6393C87.505 13.5829 88.1446 14.7384 88.4661 16.0026C88.6757 16.7733 88.8033 17.5763 88.8168 18.3504L88.8444 19.9295L77.8525 20.1214C77.9004 20.5026 77.9375 20.8529 77.9849 21.2031C78.1105 21.8926 78.431 22.5065 78.9455 23.0034C79.5756 23.6119 80.3868 23.9487 81.2749 23.9642C81.8536 23.9954 82.4714 23.902 83.0049 23.7069C83.5794 23.5007 84.0372 23.1107 84.4103 22.5983C84.4508 22.5563 84.5226 22.5241 84.5631 22.4821L88.6502 22.4107C88.6515 22.483 88.6928 22.4822 88.6928 22.4822L88.6826 22.4927Z" fill="#151531"/>
<path d="M70.8283 5.70755L66.349 5.78574L66.7248 27.3154L71.2041 27.2372L70.8283 5.70755Z" fill="#151531"/>
<path d="M1.11385 29.6171C1.48158 21.7023 7.45983 15.228 15.3213 14.3165C16.0941 14.2307 16.7537 14.756 16.8498 15.5287L16.8505 15.57C16.9896 17.0336 16.7476 18.5451 16.1099 19.8674C15.9205 20.2527 15.5847 20.5373 15.1628 20.617C13.0131 21.0778 11.0614 22.2372 9.62467 23.9141C9.36172 24.2284 9.2878 24.7253 9.53203 25.1133C10.7676 27.2908 12.4623 29.1506 14.4916 30.6638L14.7634 30.8552C14.9202 30.966 14.9656 31.2027 14.8445 31.3596C14.8039 31.4016 14.7735 31.4331 14.6916 31.4759L14.384 31.5948C10.3217 33.0904 5.79568 32.8597 1.91243 31.0072C1.40057 30.6651 1.12358 30.1744 1.11403 29.6274L1.11385 29.6171Z" fill="#3173D9"/>
<path d="M16.0081 2.77226C12.4272 5.22997 9.98444 9.00995 9.24331 13.2765L9.17646 13.5874C9.13859 13.7842 9.25484 13.937 9.45148 13.9646C9.52372 13.9633 9.60628 13.9618 9.64685 13.9198L9.95449 13.8009C12.2496 12.8007 14.7179 12.2517 17.2271 12.2802C17.6503 12.2728 18.0472 12.5343 18.1991 12.955C18.9269 15.0277 18.9666 17.2984 18.3115 19.3953C18.1633 19.7798 18.254 20.2429 18.4872 20.5898C19.3242 21.8141 20.4976 22.7951 21.8501 23.3909C22.547 23.6885 23.3577 23.4059 23.6551 22.6986C26.77 15.4277 24.1963 6.9758 17.5141 2.69435C17.0862 2.43339 16.467 2.4442 16.0079 2.76194L16.0081 2.77226Z" fill="#3173D9"/>
<path d="M33.3364 29.0544C32.9925 24.7346 30.9506 20.7232 27.6193 17.9628L27.3888 17.7707C27.232 17.6598 27.0359 17.6633 26.8838 17.8208C26.8433 17.8628 26.8136 17.9356 26.815 18.0181C26.817 18.1317 26.7777 18.2459 26.7791 18.3285C26.5126 20.8006 25.7088 23.2512 24.4659 25.3893C24.2455 25.7751 23.8154 25.9788 23.3903 25.8727C21.2258 25.4872 19.2343 24.3656 17.781 22.7288C17.5073 22.4238 17.0807 22.2351 16.6582 22.2838C15.1939 22.3816 13.7372 22.9129 12.5547 23.7802C11.9428 24.2141 11.8028 25.0632 12.2375 25.7163C16.9835 32.0448 25.5868 34.0111 32.6161 30.3781C33.0759 30.1017 33.3767 29.5906 33.326 29.0546L33.3364 29.0544Z" fill="#3173D9"/>
</g>
<defs>
<clipPath id="clip0_2081_40045">
<rect width="123.871" height="32" fill="white" transform="translate(0.377563 2.79703) rotate(-1)"/>
</clipPath>
</defs>
</svg>
