<svg width="194" height="186" viewBox="0 0 194 186" fill="none" xmlns="http://www.w3.org/2000/svg">
<g clip-path="url(#clip0_576_35580)">
<path d="M116.801 66.3657C109.33 79.9979 111.054 96.9285 119.126 109.888C123.011 116.123 128.117 121.492 133.894 125.961C139.792 130.523 146.972 135.207 154.479 136.194C159.715 136.882 168.431 134.702 167.77 127.719C167.188 121.574 160.459 115.692 154.538 115.322C147.907 114.908 142.964 120.795 141.728 126.89C140.252 134.162 142.739 142.142 145.847 148.67C152.648 162.958 165.846 173.964 181.117 177.641C182.574 177.992 183.371 175.766 181.898 175.397C170.841 172.626 161.025 166.179 153.933 157.163C150.319 152.569 147.458 147.319 145.636 141.737C143.551 135.345 142.103 127.344 146.483 121.579C151.316 115.217 159.18 117.361 163.446 123.141C165.938 126.515 166.678 130.538 162.46 132.897C159.036 134.811 154.676 134.318 151.092 133.168C139.609 129.482 128.574 120.164 121.856 110.192C113.432 97.6867 110.841 80.9326 118.08 67.2485C118.545 66.371 117.287 65.48 116.801 66.3657Z" fill="#151531"/>
<path d="M168.941 164.384C175.941 169.586 182.969 174.753 189.911 180.035C190.075 179.216 190.239 178.398 190.402 177.579C186.517 178.858 182.636 180.105 178.667 181.098C175.016 182.013 170.949 182.289 167.478 183.734C166.381 184.191 166.807 185.894 167.914 185.968C171.789 186.232 176.027 184.783 179.75 183.802C183.643 182.776 187.505 181.584 191.265 180.131C192.231 179.757 192.204 178.32 191.426 177.788C184.234 172.871 177.122 167.834 169.986 162.834C169 162.143 167.982 163.671 168.941 164.384Z" fill="#151531"/>
</g>
<path d="M8.39138 59.2161C8.16028 59.2568 7.9585 59.2105 7.78605 59.0771C7.6136 58.9437 7.49171 58.6747 7.4204 58.2703C7.36692 57.967 7.37421 57.4593 7.44228 56.7474C7.52224 56.0184 7.64683 55.1624 7.81604 54.1795C7.9997 53.1939 8.21055 52.1515 8.44859 51.0521C8.69854 49.9357 8.9642 48.824 9.24557 47.717C9.52695 46.61 9.81512 45.5837 10.1101 44.6381C10.4025 43.6781 10.683 42.8617 10.9515 42.1888C11.2201 41.516 11.4678 41.0627 11.6947 40.8291C11.9598 40.559 12.2224 40.401 12.4824 40.3551C12.6268 40.3297 12.7738 40.3186 12.9233 40.3221C13.0729 40.3255 13.2045 40.3544 13.3184 40.4088C13.6064 40.5218 13.8927 40.8362 14.1772 41.352C14.4737 41.8507 14.7629 42.4774 15.0448 43.2319C15.3243 43.9719 15.585 44.7748 15.827 45.6406C16.0809 46.4894 16.3191 47.3336 16.5416 48.173C16.9647 48.0388 17.3182 47.9318 17.602 47.852C17.8858 47.7722 18.0926 47.7208 18.2226 47.6979C18.7137 47.6113 19.0357 47.6215 19.1886 47.7286C19.3416 47.8357 19.4405 47.9746 19.4855 48.1454C19.5603 48.4003 19.5288 48.6441 19.3911 48.8769C19.2534 49.1097 19.0346 49.3046 18.7347 49.4618C18.6387 49.5085 18.431 49.5972 18.1115 49.728C17.8039 49.8418 17.4339 49.9816 17.0014 50.1472C17.0922 50.5779 17.1708 50.9811 17.237 51.3566C17.3151 51.7152 17.3771 52.0245 17.4229 52.2844C17.6547 53.5988 17.7497 54.6022 17.708 55.2947C17.6637 55.9727 17.5464 56.4476 17.356 56.7194C17.1657 56.9913 16.9622 57.1463 16.7455 57.1845C16.4855 57.2304 16.2923 57.19 16.1657 57.0634C16.0366 56.9223 15.9465 56.7073 15.8956 56.4185L15.6244 54.8802C15.5301 54.3458 15.4159 53.7404 15.2818 53.0641C15.1595 52.3708 15.0237 51.6426 14.8743 50.8797C14.0476 51.1744 13.2051 51.4644 12.347 51.7498C11.5033 52.0326 10.7726 52.2805 10.1548 52.4937C9.98225 53.373 9.83898 54.1653 9.72504 54.8705C9.60854 55.5612 9.53753 56.0875 9.51199 56.4494C9.42267 57.2098 9.32319 57.7859 9.21353 58.1775C9.10133 58.5547 8.97597 58.8151 8.83747 58.9587C8.7134 59.0997 8.56471 59.1855 8.39138 59.2161ZM10.5515 50.4356C11.272 50.1298 11.959 49.8449 12.6123 49.5807C13.2802 49.314 13.8941 49.0792 14.454 48.8762C14.1814 47.5839 13.883 46.3557 13.5586 45.1917C13.2461 44.0107 12.9276 43.0914 12.6031 42.4337C12.4128 42.9588 12.1998 43.6516 11.9644 44.5122C11.7289 45.3729 11.4871 46.324 11.2388 47.3656C11.0025 48.3902 10.7734 49.4135 10.5515 50.4356ZM28.3152 56.1274C27.2031 56.3235 26.2655 56.1165 25.5027 55.5064C24.7517 54.8792 24.2603 53.9085 24.0286 52.5941C23.8859 51.7852 23.8274 50.8201 23.8531 49.6986C23.8906 48.5601 23.9758 47.3536 24.1085 46.0792C24.2531 44.7878 24.4291 43.5058 24.6366 42.2331C24.8441 40.9604 25.0524 39.7769 25.2616 38.6826C25.4826 37.5714 25.6837 36.6423 25.8648 35.8955C25.9693 35.475 26.1805 35.2367 26.4983 35.1807C26.9316 35.1043 27.1954 35.3333 27.2896 35.8677C27.3202 36.041 27.3031 36.4089 27.2385 36.9714C27.1738 37.5338 27.0815 38.2351 26.9616 39.0754C26.8392 39.9012 26.7103 40.8175 26.5751 41.8243C26.4399 42.831 26.3025 43.868 26.163 44.9351C26.0354 45.9852 25.9282 47.0243 25.8414 48.0523C25.7521 49.0659 25.7031 50.0128 25.6945 50.893C25.6858 51.7732 25.735 52.5166 25.842 53.1232C25.9108 53.5132 26.0666 53.8059 26.3096 54.0014C26.5644 54.1798 26.8724 54.2372 27.2335 54.1736C27.8979 54.0564 28.5394 53.8092 29.158 53.4321C29.7885 53.038 30.3799 52.5912 30.9322 52.0917C31.482 51.5777 31.9752 51.0812 32.412 50.6021C32.8607 50.1059 33.2426 49.6961 33.5579 49.3724C33.8706 49.0343 34.0992 48.8525 34.2436 48.827C34.5614 48.771 34.7508 48.9163 34.8119 49.263C34.8323 49.3785 34.755 49.6156 34.5799 49.9741C34.4023 50.3181 34.1554 50.734 33.8393 51.2216C33.5232 51.7093 33.1446 52.2228 32.7036 52.7623C32.2744 53.2847 31.8126 53.7906 31.318 54.2799C30.8354 54.7522 30.3328 55.1536 29.8102 55.484C29.3047 55.8263 28.8063 56.0408 28.3152 56.1274ZM38.3441 54.359C37.2319 54.5551 36.2944 54.3481 35.5315 53.738C34.7806 53.1109 34.2892 52.1401 34.0574 50.8257C33.9148 50.0169 33.8563 49.0517 33.882 47.9302C33.9195 46.7917 34.0046 45.5853 34.1374 44.3109C34.282 43.0195 34.458 41.7374 34.6655 40.4647C34.873 39.192 35.0813 38.0085 35.2905 36.9143C35.5115 35.803 35.7126 34.874 35.8937 34.1272C35.9982 33.7066 36.2094 33.4683 36.5272 33.4123C36.9605 33.3359 37.2242 33.5649 37.3185 34.0993C37.349 34.2727 37.332 34.6405 37.2673 35.203C37.2027 35.7654 37.1104 36.4668 36.9905 37.307C36.868 38.1328 36.7392 39.0491 36.604 40.0559C36.4687 41.0627 36.3314 42.0996 36.1919 43.1667C36.0643 44.2168 35.9571 45.2559 35.8703 46.2839C35.781 47.2975 35.732 48.2444 35.7234 49.1246C35.7147 50.0048 35.7639 50.7482 35.8709 51.3549C35.9396 51.7449 36.0955 52.0376 36.3385 52.233C36.5933 52.4115 36.9013 52.4689 37.2624 52.4052C37.9268 52.288 38.5683 52.0409 39.1869 51.6637C39.8174 51.2696 40.4088 50.8228 40.9611 50.3233C41.5108 49.8094 42.0041 49.3128 42.4409 48.8337C42.8896 48.3376 43.2715 47.9277 43.5868 47.604C43.8995 47.2659 44.1281 47.0841 44.2725 47.0587C44.5903 47.0026 44.7797 47.148 44.8408 47.4946C44.8612 47.6102 44.7838 47.8472 44.6088 48.2057C44.4312 48.5498 44.1843 48.9656 43.8682 49.4533C43.552 49.9409 43.1735 50.4544 42.7324 50.9939C42.3033 51.5163 41.8415 52.0222 41.3469 52.5115C40.8643 52.9839 40.3617 53.3852 39.8391 53.7157C39.3335 54.058 38.8352 54.2724 38.3441 54.359ZM61.1523 38.207C61.3768 37.1994 61.5745 36.1667 61.7454 35.109C61.9308 34.0487 62.0762 32.9731 62.1817 31.8822C62.2174 31.578 62.3067 31.324 62.4494 31.1201C62.6041 30.8993 62.8042 30.7672 63.0497 30.7239C63.2231 30.6933 63.379 30.7328 63.5174 30.8425C63.6704 30.9495 63.7659 31.1114 63.8041 31.3281C63.8525 31.6025 63.8282 32.0982 63.7313 32.8153C63.6488 33.5298 63.5403 34.4351 63.4059 35.5311C63.286 36.6245 63.1868 37.8781 63.1084 39.2918C63.042 40.6886 63.0443 42.2222 63.1154 43.8925C63.201 45.5603 63.4068 47.3187 63.7328 49.1675C63.8041 49.5719 63.776 49.9194 63.6486 50.2099C63.5236 50.5149 63.3384 50.6891 63.0928 50.7324C62.9484 50.7578 62.8048 50.7459 62.6621 50.6966C62.5193 50.6473 62.3732 50.4944 62.2237 50.2378C62.0912 49.9931 61.9464 49.5941 61.7893 49.041C61.6297 48.4735 61.4633 47.6986 61.2901 46.7164C61.1576 45.9653 61.0571 45.1416 60.9884 44.2452C60.5354 45.5612 59.9978 46.7358 59.3757 47.7688C58.7656 48.7849 58.1414 49.5949 57.5033 50.1989C56.8796 50.8003 56.3149 51.1456 55.8094 51.2348C55.1883 51.3443 54.6459 51.224 54.182 50.8739C53.7352 50.5357 53.4404 49.9621 53.2978 49.1533C53.173 48.4455 53.2105 47.6868 53.4103 46.8772C53.61 46.0675 53.9207 45.2532 54.3422 44.4342C54.7612 43.6008 55.2456 42.8005 55.7954 42.0334C56.3452 41.2663 56.909 40.5786 57.4869 39.9703C58.0766 39.3451 58.6361 38.8443 59.1655 38.468C59.6923 38.0773 60.1363 37.8501 60.4974 37.7864C60.6418 37.7609 60.7807 37.7886 60.9141 37.8693C61.0475 37.95 61.1269 38.0626 61.1523 38.207ZM60.9891 38.9283C60.9058 39.0473 60.8009 39.17 60.6743 39.2966C60.5477 39.4232 60.4079 39.5595 60.2549 39.7056C59.6984 40.2655 59.0895 40.909 58.4284 41.6361C57.7792 42.3463 57.1691 43.1092 56.598 43.9248C56.0389 44.7233 55.6088 45.5363 55.308 46.3638C55.0071 47.1913 54.9267 48.0023 55.0668 48.7967C55.1279 49.1433 55.3318 49.2861 55.6784 49.225C56.1551 49.1409 56.6356 48.8254 57.1199 48.2783C57.6162 47.7142 58.0963 46.9742 58.5603 46.0584C59.0218 45.1282 59.4591 44.0607 59.8722 42.856C60.2827 41.6368 60.655 40.3276 60.9891 38.9283ZM81.4821 46.6633C81.0633 46.7371 80.743 46.6521 80.5213 46.4083C80.2996 46.1644 80.1301 45.7102 80.013 45.0458C79.9187 44.5114 79.8666 43.8355 79.8565 43.0182C79.8609 42.1983 79.8801 41.2939 79.9142 40.3049C79.9458 39.3016 79.9795 38.268 80.0153 37.2043C79.3456 38.5585 78.54 39.6909 77.5985 40.6016C76.6689 41.4952 75.5805 42.1637 74.3332 42.6071C74.1547 43.3683 73.9213 44.0722 73.6332 44.7187C73.3451 45.3652 73.0005 45.9025 72.5994 46.3307C72.1984 46.7588 71.7451 47.0175 71.2395 47.1066C70.6184 47.2161 70.0467 47.0563 69.5242 46.6272C69.0162 46.1955 68.6769 45.4958 68.5062 44.5281C68.3891 43.8637 68.3713 43.2562 68.453 42.7056C68.5321 42.1407 68.6596 41.7235 68.8355 41.4542C68.539 40.9554 68.3297 40.3594 68.2074 39.6661C68.0572 38.8139 68.1197 38.0285 68.3951 37.3097C68.6679 36.5765 69.0975 35.9721 69.6838 35.4964C70.2675 35.0062 70.935 34.6949 71.686 34.5625C72.2927 34.4555 72.884 34.6417 73.46 35.121C74.0359 35.6002 74.4169 36.3671 74.6028 37.4215C74.776 38.4036 74.795 39.5247 74.6597 40.7847C75.4006 40.3413 76.1135 39.739 76.7984 38.9778C77.4978 38.2141 78.1466 37.3327 78.7448 36.3337C79.3431 35.3346 79.8526 34.2544 80.2733 33.093C80.3864 32.805 80.5873 32.6355 80.8762 32.5846C81.1362 32.5388 81.3524 32.5826 81.5249 32.716C81.7092 32.8324 81.8243 33.0206 81.8702 33.2806C81.8829 33.3528 81.8829 33.606 81.8701 34.0401C81.8717 34.4717 81.8648 35.024 81.8494 35.6969C81.8485 36.3672 81.8446 37.1051 81.8377 37.9106C81.8307 38.716 81.8251 39.5287 81.8208 40.3485C81.8308 41.1659 81.8524 41.9216 81.8854 42.6158C82.1056 41.9217 82.3589 41.1621 82.6453 40.3372C82.9317 39.5123 83.2279 38.7005 83.5339 37.9019C83.8518 37.0863 84.1595 36.3395 84.4569 35.6616C84.7688 34.9811 85.0518 34.4323 85.3059 34.0151C85.5719 33.581 85.7988 33.3474 85.9866 33.3143C86.3332 33.2532 86.6569 33.3152 86.9576 33.5005C87.2584 33.6858 87.4304 33.9012 87.4737 34.1467C87.5323 34.4789 87.5853 34.9908 87.6328 35.6824C87.6777 36.3596 87.7235 37.1259 87.7701 37.9815C87.8167 38.8371 87.8633 39.6926 87.9099 40.5482C87.9565 41.4038 88.0036 42.1774 88.0511 42.869C88.0986 43.5605 88.1516 44.0724 88.2102 44.4047C88.2484 44.6213 88.1889 44.8329 88.0317 45.0393C87.8744 45.2457 87.6803 45.3693 87.4492 45.4101C87.2903 45.4381 87.1442 45.4117 87.0108 45.331C86.8944 45.2622 86.7793 45.074 86.6655 44.7664C86.5517 44.4588 86.4362 43.9728 86.3191 43.3084C86.2045 42.6584 86.1013 41.9468 86.0097 41.1737C85.9155 40.3861 85.837 39.6031 85.7742 38.8249C85.7234 38.0296 85.6937 37.3126 85.6853 36.6736C85.4499 37.2811 85.183 38.0058 84.8847 38.8477C84.6008 39.6871 84.2991 40.5519 83.9795 41.4423C83.6599 42.3327 83.3458 43.1699 83.0373 43.9541C82.7288 44.7382 82.4394 45.3775 82.1692 45.872C81.8989 46.3664 81.6699 46.6302 81.4821 46.6633ZM72.8142 41.4675C72.8908 40.8881 72.9248 40.2789 72.9164 39.64C72.9199 38.9841 72.8656 38.3384 72.7536 37.7028C72.6874 37.3273 72.5617 37.0367 72.3765 36.8311C72.1913 36.6255 71.9759 36.5443 71.7304 36.5876C71.3548 36.6538 71.0056 36.8271 70.6827 37.1074C70.3573 37.3733 70.1049 37.7156 69.9256 38.1345C69.7607 38.5508 69.7241 39.0189 69.8158 39.5389C69.9304 40.1889 70.274 40.7017 70.8466 41.0773C71.4311 41.4359 72.0869 41.566 72.8142 41.4675ZM72.4928 43.0656C71.503 43.1954 70.6577 43.0466 69.9568 42.6192C69.961 42.8121 69.964 42.9977 69.9656 43.1761C69.9648 43.3401 69.9783 43.5015 70.0064 43.6604C70.0853 44.1082 70.2199 44.4493 70.4102 44.6838C70.6124 44.9014 70.8724 44.9821 71.1901 44.9261C71.4501 44.8802 71.6919 44.6887 71.9154 44.3514C72.1389 44.0141 72.3313 43.5855 72.4928 43.0656ZM100.352 32.9035C100.434 33.3657 100.369 33.8461 100.16 34.3448C99.9471 34.8291 99.6382 35.3155 99.2328 35.8039C98.8249 36.278 98.3627 36.7392 97.8461 37.1878C97.3294 37.6363 96.8052 38.0415 96.2732 38.4033C95.7413 38.7652 95.2511 39.0676 94.8024 39.3105C94.7862 39.8942 94.8163 40.4027 94.8927 40.836C94.9411 41.1105 95.0405 41.294 95.1908 41.3866C95.3412 41.4793 95.5536 41.5014 95.828 41.453C96.4347 41.346 97.0583 41.1244 97.699 40.788C98.3397 40.4516 98.9833 40.0477 99.6299 39.5763C100.277 39.1048 100.89 38.6168 101.472 38.1122C102.053 37.6076 102.58 37.1349 103.053 36.694C103.541 36.2506 103.946 35.8887 104.269 35.6084C104.592 35.328 104.811 35.1777 104.927 35.1573C105.1 35.1268 105.241 35.1616 105.348 35.2619C105.467 35.3452 105.539 35.459 105.564 35.6034C105.585 35.719 105.444 35.9747 105.141 36.3706C104.853 36.7639 104.452 37.2367 103.939 37.7889C103.423 38.3266 102.838 38.8915 102.183 39.4836C101.527 40.0757 100.838 40.644 100.115 41.1885C99.4066 41.7305 98.7056 42.1892 98.0123 42.5646C97.3334 42.9375 96.705 43.1749 96.1273 43.2767C95.3762 43.4092 94.7416 43.2307 94.2234 42.7412C93.7052 42.2518 93.3416 41.4148 93.1328 40.2304C92.9927 39.436 92.9525 38.6166 93.0121 37.772C93.0861 36.925 93.2387 36.1013 93.4699 35.301C93.713 34.4837 94.0075 33.7467 94.3534 33.09C94.7112 32.4163 95.1136 31.8688 95.5605 31.4474C96.0049 31.0116 96.4655 30.7517 96.9421 30.6677C97.8521 30.5072 98.6116 30.6339 99.2207 31.0478C99.8299 31.4616 100.207 32.0802 100.352 32.9035ZM94.9632 37.562C95.3626 37.2087 95.7739 36.8383 96.197 36.4509C96.6202 36.0635 97.006 35.6753 97.3544 35.2862C97.7028 34.8972 97.9692 34.5077 98.1536 34.1177C98.3499 33.7108 98.415 33.3195 98.3488 32.944C98.2545 32.4096 97.9185 32.1933 97.3408 32.2952C96.9797 32.3588 96.6377 32.6574 96.3147 33.1909C96.0037 33.7075 95.7313 34.3587 95.4976 35.1445C95.2638 35.9304 95.0857 36.7362 94.9632 37.562ZM116.433 41.6845C116.187 41.7278 115.977 41.6755 115.802 41.5277C115.627 41.3798 115.504 41.1037 115.433 40.6992C115.305 39.977 115.21 39.2268 115.148 38.4485C115.097 37.6533 115.013 36.9235 114.895 36.259C114.628 34.7424 114.271 33.5172 113.823 32.5835C113.387 31.6327 112.698 31.0616 111.756 30.8703C111.541 30.8338 111.383 30.7798 111.281 30.7084C111.164 30.6396 111.09 30.5113 111.056 30.3235C111.021 30.1213 111.071 29.9412 111.207 29.7832C111.328 29.6277 111.591 29.5143 111.996 29.443C112.328 29.3844 112.771 29.3212 113.325 29.2533C113.879 29.1854 114.476 29.1099 115.117 29.0267C115.282 27.3445 115.553 25.9265 115.931 24.7728C116.308 23.6191 116.775 22.6803 117.333 21.9565C117.905 21.2302 118.543 20.6708 119.249 20.2784C119.968 19.8834 120.74 19.6133 121.563 19.4681C121.924 19.4045 122.164 19.4143 122.283 19.4976C122.4 19.5664 122.474 19.6947 122.507 19.8825C122.548 20.1136 122.519 20.3718 122.421 20.6573C122.319 20.9283 122.051 21.1394 121.616 21.2906C120.665 21.6371 119.847 22.1089 119.163 22.7061C118.479 23.3033 117.933 24.0921 117.525 25.0725C117.114 26.0385 116.846 27.2623 116.72 28.744C118.102 28.4706 119.281 28.1883 120.257 27.897C121.231 27.5913 122.037 27.3076 122.676 27.046C123.327 26.7674 123.845 26.5419 124.232 26.3695C124.616 26.1827 124.916 26.0701 125.133 26.0319C125.379 25.9886 125.542 26.0269 125.622 26.1467C125.703 26.2665 125.756 26.3986 125.782 26.5431C125.83 26.8175 125.617 27.1306 125.143 27.4822C124.666 27.8195 124.02 28.1643 123.203 28.5168C122.399 28.8523 121.501 29.1669 120.51 29.4608C119.52 29.7546 118.533 29.9881 117.551 30.1613C117.392 30.1893 117.233 30.2173 117.074 30.2453C116.93 30.2708 116.778 30.2975 116.619 30.3256C116.608 30.4318 116.606 30.5439 116.612 30.662C116.615 31.5252 116.627 32.439 116.648 33.4033C116.681 34.3506 116.719 35.2822 116.761 36.1981C116.816 37.097 116.877 37.9127 116.947 38.6451C117.017 39.3774 117.09 39.9603 117.166 40.3936C117.23 40.7547 117.191 41.0444 117.051 41.2627C116.913 41.4955 116.707 41.6361 116.433 41.6845ZM115.001 30.5216C114.574 30.5521 114.174 30.5631 113.8 30.5546C114.026 30.7381 114.23 30.9629 114.411 31.2288C114.606 31.4922 114.784 31.7811 114.943 32.0955C114.95 31.5433 114.969 31.0186 115.001 30.5216ZM127.213 38.0189C126.361 38.1692 125.632 37.9626 125.026 37.3992C124.42 36.8359 124.026 36.0342 123.842 34.9942C123.776 34.6187 123.757 34.2126 123.784 33.7759C123.823 33.3222 123.899 32.9067 124.011 32.5295C123.892 32.4462 123.788 32.323 123.7 32.1599C123.609 31.9823 123.539 31.7563 123.491 31.4819C123.341 30.6297 123.348 29.8243 123.512 29.0656C123.676 28.3069 123.95 27.6255 124.335 27.0215C124.718 26.403 125.172 25.8984 125.699 25.5077C126.24 25.1144 126.814 24.8642 127.421 24.7573C128.418 24.5815 129.29 24.8 130.039 25.4127C130.784 26.0109 131.286 27.0395 131.543 28.4983C131.678 29.2638 131.7 30.0642 131.609 30.8993C131.533 31.7319 131.364 32.5509 131.104 33.3563C130.859 34.1592 130.534 34.8941 130.13 35.561C129.741 36.2253 129.295 36.7805 128.793 37.2265C128.303 37.6554 127.776 37.9196 127.213 38.0189ZM125.311 31.5408C125.418 31.641 125.488 31.785 125.521 31.9728C125.559 32.1895 125.554 32.4138 125.506 32.6457C125.472 32.8751 125.444 33.1852 125.424 33.576C125.404 33.9668 125.454 34.5089 125.577 35.2022C125.699 35.8955 126.035 36.1938 126.583 36.097C127.19 35.99 127.711 35.6524 128.147 35.0841C128.581 34.5013 128.932 33.7915 129.202 32.9546C129.471 32.1178 129.638 31.247 129.701 30.3421C129.777 29.4203 129.746 28.5694 129.609 27.7894C129.52 27.2839 129.363 26.9466 129.14 26.7775C128.914 26.5939 128.555 26.5455 128.064 26.632C127.559 26.7212 127.062 26.9875 126.574 27.4309C126.099 27.8573 125.731 28.3913 125.472 29.0327C125.213 29.6741 125.147 30.3559 125.274 31.0781C125.302 31.237 125.314 31.3912 125.311 31.5408ZM136.196 36.636C135.965 36.6767 135.753 36.6172 135.561 36.4575C135.369 36.2977 135.244 36.0517 135.186 35.7195C135.142 35.474 135.122 35.0606 135.123 34.4795C135.137 33.8814 135.141 33.1881 135.136 32.3996C135.146 31.6086 135.128 30.7926 135.084 29.9514C135.038 29.0959 134.947 28.2853 134.812 27.5198C134.746 27.1443 134.791 26.8533 134.949 26.6468C135.118 26.4234 135.325 26.2901 135.57 26.2468C135.802 26.206 136 26.3199 136.167 26.5884C136.333 26.8569 136.457 27.4308 136.537 28.3102C136.942 26.7198 137.463 25.4068 138.099 24.3712C138.748 23.3186 139.435 22.5272 140.16 21.9972C140.883 21.4527 141.563 21.1244 142.198 21.0123C142.617 20.9385 142.936 20.9717 143.154 21.1119C143.384 21.2351 143.517 21.3978 143.553 21.6C143.601 21.8745 143.524 22.1115 143.321 22.3111C143.13 22.4938 142.777 22.7346 142.264 23.0336C141.672 23.3912 141.138 23.7832 140.662 24.2097C140.198 24.6191 139.774 25.1259 139.389 25.7299C139.018 26.3314 138.68 27.076 138.375 27.9638C138.068 28.8372 137.793 29.8983 137.552 31.1472C137.31 32.3961 137.082 33.8884 136.867 35.6242C136.836 35.9572 136.76 36.2015 136.638 36.3569C136.531 36.5098 136.384 36.6029 136.196 36.636ZM160.008 37.754C159.286 37.8814 158.613 37.948 157.988 37.9538C157.381 37.9716 156.77 37.9303 156.157 37.8299C155.546 37.7441 154.874 37.6093 154.142 37.4257C153.922 37.3602 153.72 37.2693 153.535 37.1529C153.354 37.0509 153.247 36.9132 153.217 36.7399C153.179 36.5232 153.275 36.268 153.506 35.974C153.726 35.6971 153.951 35.5382 154.182 35.4975C154.427 35.4542 154.746 35.4874 155.138 35.597C155.544 35.7041 156.013 35.8299 156.545 35.9744C157.079 36.1334 157.658 36.2473 158.28 36.3162C158.917 36.3826 159.583 36.3546 160.276 36.2324C161.027 36.1 161.68 35.6646 162.235 34.9264C162.79 34.1881 163.174 33.1971 163.386 31.9533C163.601 30.7239 163.565 29.2932 163.277 27.661C163.191 27.1699 163.081 26.6308 162.947 26.0437C162.826 25.4396 162.685 24.8092 162.525 24.1524C162.31 24.9646 162.052 25.7772 161.748 26.5903C161.459 27.4008 161.136 28.1429 160.778 28.8166C160.435 29.4877 160.049 30.0471 159.622 30.4948C159.206 30.9255 158.753 31.1842 158.262 31.2708C157.641 31.3803 157.165 31.3004 156.835 31.031C156.504 30.7616 156.28 30.2947 156.163 29.6303C156.041 28.937 155.959 28.177 155.917 27.3503C155.876 26.5236 155.862 25.6846 155.876 24.8333C155.901 23.965 155.964 23.1349 156.062 22.3431C156.161 21.5513 156.292 20.858 156.455 20.2633C156.549 19.949 156.74 19.7663 157.029 19.7154C157.231 19.6797 157.445 19.7537 157.671 19.9372C157.909 20.1038 158.057 20.3532 158.116 20.6854C158.161 20.9454 158.169 21.3239 158.137 21.8209C158.106 22.3179 158.057 22.885 157.99 23.5222C157.924 24.1594 157.863 24.8255 157.806 25.5205C157.748 26.201 157.717 26.8693 157.713 27.5252C157.707 28.1666 157.75 28.7473 157.842 29.2673C157.88 29.484 158.043 29.5668 158.332 29.5159C158.491 29.4879 158.69 29.304 158.927 28.9642C159.177 28.6073 159.441 28.1588 159.718 27.6185C160.007 27.0612 160.288 26.4605 160.562 25.8165C160.847 25.1556 161.12 24.5044 161.379 23.863C161.636 23.2071 161.851 22.6107 162.024 22.0738C161.989 21.9608 161.963 21.8537 161.945 21.7526C161.927 21.6515 161.911 21.5576 161.895 21.4709C161.771 20.7632 161.765 20.3099 161.879 20.1111C162.005 19.8953 162.19 19.7658 162.436 19.7225C162.855 19.6486 163.167 19.6903 163.374 19.8475C163.58 20.0047 163.724 20.3144 163.806 20.7766C163.836 20.95 163.848 21.1416 163.84 21.3514C163.83 21.5468 163.806 21.834 163.769 22.2129C164.085 23.3336 164.36 24.3426 164.593 25.2398C164.84 26.1345 165.045 27.044 165.208 27.9684C165.516 29.7161 165.502 31.2824 165.165 32.6672C164.843 34.0495 164.239 35.1837 163.353 36.0697C162.481 36.9532 161.366 37.5146 160.008 37.754ZM172.364 30.0576C171.512 30.2078 170.783 30.0013 170.177 29.4379C169.571 28.8745 169.177 28.0728 168.993 27.0329C168.927 26.6573 168.908 26.2512 168.935 25.8145C168.974 25.3608 169.05 24.9454 169.162 24.5682C169.043 24.4849 168.939 24.3617 168.851 24.1985C168.76 24.021 168.691 23.7949 168.642 23.5205C168.492 22.6683 168.499 21.8629 168.663 21.1042C168.827 20.3455 169.101 19.6642 169.486 19.0601C169.869 18.4417 170.323 17.9371 170.85 17.5463C171.392 17.153 171.966 16.9029 172.572 16.7959C173.569 16.6202 174.441 16.8387 175.19 17.4513C175.936 18.0496 176.437 19.0781 176.694 20.5369C176.829 21.3025 176.851 22.1028 176.76 22.938C176.684 23.7706 176.515 24.5896 176.255 25.395C176.01 26.1978 175.685 26.9327 175.281 27.5996C174.892 28.2639 174.446 28.8191 173.944 29.2651C173.454 29.6941 172.927 29.9582 172.364 30.0576ZM170.462 23.5794C170.569 23.6797 170.639 23.8237 170.672 24.0114C170.71 24.2281 170.705 24.4524 170.657 24.6843C170.623 24.9137 170.596 25.2238 170.575 25.6147C170.555 26.0055 170.606 26.5475 170.728 27.2409C170.85 27.9342 171.186 28.2324 171.735 28.1356C172.341 28.0287 172.862 27.691 173.298 27.1227C173.732 26.5399 174.083 25.8301 174.353 24.9933C174.622 24.1564 174.789 23.2856 174.853 22.3808C174.928 21.4589 174.897 20.608 174.76 19.8281C174.671 19.3225 174.514 18.9852 174.291 18.8161C174.065 18.6326 173.707 18.5841 173.215 18.6707C172.71 18.7598 172.213 19.0261 171.726 19.4695C171.25 19.896 170.882 20.4299 170.623 21.0713C170.364 21.7128 170.298 22.3946 170.425 23.1168C170.453 23.2756 170.465 23.4299 170.462 23.5794ZM187.519 27.698C187.274 27.7413 187.045 27.6699 186.834 27.4838C186.622 27.2977 186.48 26.9952 186.406 26.5763C186.319 26.0852 186.268 25.372 186.252 24.4365C186.25 23.4986 186.269 22.2518 186.307 20.6961C186.08 21.6893 185.801 22.6395 185.469 23.5469C185.152 24.4517 184.78 25.2099 184.351 25.8216C183.923 26.4332 183.435 26.7875 182.886 26.8843C182.351 26.9785 181.838 26.8531 181.345 26.5081C180.867 26.1605 180.535 25.4595 180.349 24.4051C180.244 23.8129 180.178 23.1396 180.149 22.3851C180.118 21.6162 180.116 20.8495 180.145 20.0848C180.174 19.3202 180.217 18.6349 180.274 18.0292C180.329 17.409 180.397 16.9502 180.478 16.6528C180.539 16.4039 180.613 16.2344 180.702 16.1444C180.787 16.0399 180.917 15.9723 181.09 15.9418C181.292 15.9061 181.524 15.9546 181.786 16.0872C182.048 16.2197 182.214 16.4882 182.286 16.8927C182.303 16.9938 182.295 17.241 182.26 17.6344C182.237 18.0108 182.2 18.4789 182.15 19.0388C182.112 19.5817 182.074 20.1692 182.036 20.8013C181.999 21.4334 181.983 22.0617 181.989 22.6862C182.009 23.3081 182.064 23.8718 182.153 24.3774C182.202 24.6518 182.27 24.8706 182.358 25.0337C182.447 25.1969 182.606 25.258 182.837 25.2173C183.04 25.1816 183.257 24.9349 183.489 24.4769C183.735 24.0165 183.98 23.4222 184.224 22.6941C184.48 21.949 184.731 21.1305 184.975 20.2384C185.235 19.3438 185.476 18.4301 185.698 17.4972C185.936 16.5618 186.144 15.6761 186.324 14.8401C186.394 14.5598 186.489 14.3792 186.609 14.2985C186.726 14.2034 186.864 14.1418 187.023 14.1138C187.283 14.068 187.533 14.1355 187.774 14.3165C188.026 14.4806 188.181 14.7287 188.24 15.0609C188.278 15.2775 188.301 15.6607 188.309 16.2104C188.331 16.7576 188.333 17.405 188.316 18.1526C188.311 18.8833 188.292 19.6611 188.258 20.4861C188.239 21.3085 188.219 22.1237 188.198 22.9317C188.174 23.7253 188.146 24.4525 188.114 25.1135C188.096 25.772 188.078 26.3038 188.06 26.7091C188.051 27.0829 187.991 27.3319 187.879 27.4559C187.784 27.5918 187.664 27.6725 187.519 27.698Z" fill="#151531"/>
<defs>
<clipPath id="clip0_576_35580">
<rect width="120" height="80" fill="white" transform="translate(192 65.9998) rotate(90)"/>
</clipPath>
</defs>
</svg>
