<svg width="207" height="162" viewBox="0 0 207 162" fill="none" xmlns="http://www.w3.org/2000/svg">
<g clip-path="url(#clip0_887_8938)">
<path d="M56.0845 73.3157C60.4408 88.2382 73.6315 98.991 88.5031 102.446C95.6595 104.109 103.066 104.295 110.311 103.369C117.707 102.425 126.096 100.66 132.103 96.0496C136.292 92.8337 140.913 85.129 135.508 80.6585C130.752 76.725 121.834 77.3238 117.386 81.249C112.404 85.6451 113.072 93.3031 116.508 98.487C120.606 104.673 128.007 108.557 134.82 110.975C149.732 116.269 166.848 114.719 180.246 106.521C181.524 105.739 180.514 103.601 179.212 104.382C169.433 110.241 157.934 112.624 146.544 111.263C140.74 110.57 135.004 108.881 129.77 106.222C123.775 103.177 117.094 98.5433 116.114 91.3698C115.034 83.4531 122.11 79.4084 129.213 80.4786C133.361 81.1034 136.729 83.4242 135.414 88.0746C134.347 91.8497 130.916 94.5841 127.568 96.3044C116.841 101.818 102.45 103.033 90.6487 100.731C75.8493 97.8453 62.1699 87.831 57.6131 73.0355C57.321 72.0867 55.8013 72.3462 56.0845 73.3157Z" fill="#151531"/>
<path d="M162.262 105.757C170.89 104.485 179.514 103.169 188.157 101.995C187.694 101.301 187.231 100.606 186.768 99.9114C184.925 103.564 183.062 107.19 180.958 110.699C179.023 113.927 176.343 116.997 174.91 120.474C174.458 121.573 175.963 122.475 176.798 121.746C179.725 119.191 181.697 115.17 183.636 111.844C185.663 108.366 187.551 104.792 189.182 101.106C189.601 100.159 188.566 99.1621 187.64 99.336C179.077 100.944 170.486 102.412 161.905 103.922C160.72 104.131 161.08 105.931 162.262 105.757Z" fill="#151531"/>
</g>
<path d="M7.2383 61.4554C7.0072 61.4961 6.80542 61.4498 6.63297 61.3164C6.46052 61.183 6.33863 60.914 6.26732 60.5096C6.21384 60.2063 6.22113 59.6986 6.2892 58.9867C6.36917 58.2577 6.49375 57.4017 6.66296 56.4188C6.84662 55.4332 7.05747 54.3908 7.29552 53.2914C7.54546 52.175 7.81112 51.0634 8.0925 49.9563C8.37387 48.8493 8.66204 47.823 8.95699 46.8774C9.24939 45.9174 9.52988 45.101 9.79845 44.4281C10.067 43.7553 10.3147 43.302 10.5416 43.0684C10.8067 42.7983 11.0693 42.6403 11.3293 42.5944C11.4737 42.569 11.6207 42.5579 11.7702 42.5614C11.9198 42.5648 12.0515 42.5937 12.1653 42.6481C12.4533 42.7611 12.7396 43.0755 13.0241 43.5913C13.3206 44.09 13.6098 44.7167 13.8918 45.4712C14.1712 46.2112 14.4319 47.0141 14.6739 47.8799C14.9278 48.7287 15.166 49.5729 15.3885 50.4123C15.8116 50.2781 16.1651 50.1711 16.4489 50.0913C16.7327 50.0115 16.9396 49.9601 17.0696 49.9372C17.5606 49.8506 17.8827 49.8608 18.0356 49.9679C18.1885 50.075 18.2874 50.2139 18.3324 50.3847C18.4072 50.6396 18.3757 50.8834 18.238 51.1162C18.1004 51.349 17.8816 51.5439 17.5816 51.7011C17.4856 51.7478 17.2779 51.8365 16.9584 51.9673C16.6508 52.0811 16.2808 52.2209 15.8483 52.3865C15.9392 52.8172 16.0177 53.2204 16.0839 53.5959C16.162 53.9545 16.224 54.2638 16.2699 54.5237C16.5016 55.8381 16.5966 56.8415 16.5549 57.534C16.5106 58.212 16.3933 58.6869 16.203 58.9587C16.0126 59.2306 15.8091 59.3856 15.5924 59.4238C15.3325 59.4697 15.1392 59.4293 15.0126 59.3027C14.8835 59.1616 14.7935 58.9466 14.7425 58.6578L14.4713 57.1195C14.377 56.5851 14.2629 55.9797 14.1287 55.3034C14.0065 54.6101 13.8706 53.8819 13.7212 53.119C12.8945 53.4137 12.052 53.7037 11.1939 53.9891C10.3502 54.2719 9.61947 54.5198 9.00177 54.733C8.82918 55.6123 8.68591 56.4046 8.57196 57.1098C8.45546 57.8005 8.38445 58.3268 8.35891 58.6887C8.26959 59.4491 8.17011 60.0252 8.06045 60.4168C7.94825 60.794 7.8229 61.0544 7.68439 61.198C7.56032 61.339 7.41163 61.4248 7.2383 61.4554ZM9.3984 52.6749C10.1189 52.3691 10.8059 52.0842 11.4593 51.82C12.1271 51.5533 12.741 51.3185 13.3009 51.1155C13.0284 49.8232 12.7299 48.595 12.4055 47.431C12.093 46.25 11.7745 45.3307 11.4501 44.673C11.2597 45.1981 11.0468 45.8909 10.8113 46.7515C10.5758 47.6122 10.334 48.5633 10.0857 49.6049C9.84941 50.6295 9.6203 51.6528 9.3984 52.6749ZM27.1622 58.3667C26.05 58.5628 25.1125 58.3558 24.3496 57.7457C23.5986 57.1185 23.1072 56.1478 22.8755 54.8334C22.7329 54.0245 22.6744 53.0594 22.7 51.9379C22.7376 50.7994 22.8227 49.5929 22.9554 48.3185C23.1 47.0271 23.2761 45.7451 23.4835 44.4724C23.691 43.1997 23.8994 42.0162 24.1085 40.9219C24.3296 39.8107 24.5306 38.8816 24.7117 38.1348C24.8163 37.7143 25.0274 37.476 25.3452 37.42C25.7785 37.3436 26.0423 37.5726 26.1365 38.107C26.1671 38.2803 26.15 38.6482 26.0854 39.2107C26.0207 39.7731 25.9285 40.4744 25.8085 41.3147C25.6861 42.1405 25.5572 43.0568 25.422 44.0636C25.2868 45.0704 25.1494 46.1073 25.0099 47.1744C24.8823 48.2245 24.7751 49.2636 24.6883 50.2916C24.599 51.3052 24.55 52.2521 24.5414 53.1323C24.5328 54.0125 24.5819 54.7559 24.6889 55.3625C24.7577 55.7525 24.9135 56.0452 25.1565 56.2407C25.4114 56.4191 25.7193 56.4765 26.0804 56.4129C26.7449 56.2957 27.3864 56.0486 28.0049 55.6714C28.6354 55.2773 29.2268 54.8305 29.7791 54.331C30.3289 53.817 30.8222 53.3205 31.2589 52.8414C31.7076 52.3452 32.0896 51.9354 32.4048 51.6117C32.7175 51.2736 32.9461 51.0918 33.0905 51.0663C33.4083 51.0103 33.5977 51.1556 33.6589 51.5023C33.6792 51.6178 33.6019 51.8549 33.4268 52.2134C33.2492 52.5574 33.0023 52.9733 32.6862 53.4609C32.3701 53.9486 31.9915 54.4621 31.5505 55.0016C31.1213 55.524 30.6595 56.0299 30.165 56.5192C29.6823 56.9915 29.1797 57.3929 28.6571 57.7233C28.1516 58.0656 27.6532 58.2801 27.1622 58.3667ZM36.5832 56.3034C36.2654 56.3594 36.0033 56.3089 35.7969 56.1516C35.6074 56.0063 35.4923 55.8181 35.4516 55.587C35.4159 55.3848 35.4695 55.1818 35.6122 54.9779C35.7669 54.757 35.9904 54.5463 36.2827 54.3459C36.8069 53.9407 37.2951 53.5418 37.7472 53.1494C38.2137 52.7544 38.5752 52.3555 38.8319 51.9528C39.0885 51.5502 39.1824 51.1538 39.1137 50.7638C39.0551 50.4316 38.9022 50.198 38.655 50.0628C38.4052 49.9133 38.0926 49.8716 37.717 49.9378C37.5004 49.976 37.2047 50.0728 36.83 50.2283C36.4527 50.3692 36.0419 50.531 35.5975 50.7136C35.1651 50.8793 34.7398 51.0436 34.3218 51.2067C33.9012 51.3553 33.5392 51.4563 33.2359 51.5098C32.6871 51.6066 32.2525 51.5492 31.9322 51.3376C31.6094 51.1116 31.4072 50.7674 31.3257 50.3052C31.285 50.0741 31.3611 49.7033 31.554 49.1927C31.7469 48.6821 32.0176 48.1057 32.366 47.4634C32.7264 46.8042 33.13 46.1373 33.577 45.4627C34.024 44.7882 34.4859 44.1557 34.9626 43.5653C35.4538 42.9723 35.9181 42.4809 36.3558 42.091C36.8078 41.6985 37.1999 41.473 37.5321 41.4144C37.8643 41.3558 38.1362 41.4196 38.3477 41.6057C38.5593 41.7918 38.6943 42.051 38.7529 42.3832C38.7987 42.6431 38.7949 42.8747 38.7413 43.0777C38.6852 43.2663 38.5289 43.4354 38.2723 43.5849C38.0301 43.7318 37.6359 43.8609 37.0896 43.9721C36.6052 44.5192 36.0962 45.1377 35.5625 45.8275C35.0408 46.5003 34.5734 47.1859 34.1604 47.8842C33.7593 48.5656 33.4915 49.201 33.3572 49.7906C33.8059 49.5477 34.3594 49.3086 35.0179 49.0734C35.6883 48.8211 36.3774 48.6326 37.0851 48.5078C38.1973 48.3117 39.0651 48.4193 39.6887 48.8306C40.3242 49.2249 40.7132 49.8265 40.8558 50.6354C40.9475 51.1553 40.8769 51.7263 40.644 52.3482C40.4231 52.9531 40.0946 53.5397 39.6587 54.108C39.2227 54.6763 38.7341 55.1572 38.1929 55.5505C37.6542 55.9582 37.1176 56.2092 36.5832 56.3034ZM47.0134 54.1962C46.1612 54.3465 45.4323 54.1399 44.8266 53.5765C44.2209 53.0132 43.8263 52.2115 43.643 51.1715C43.5767 50.796 43.5573 50.3899 43.5845 49.9532C43.6237 49.4995 43.6993 49.084 43.8115 48.7068C43.6926 48.6235 43.589 48.5003 43.5006 48.3372C43.4097 48.1596 43.3401 47.9336 43.2917 47.6592C43.1415 46.807 43.1484 46.0015 43.3124 45.2429C43.4765 44.4842 43.751 43.8028 44.136 43.1988C44.5184 42.5803 44.973 42.0757 45.4999 41.685C46.0411 41.2917 46.6151 41.0415 47.2217 40.9346C48.2183 40.7588 49.0909 40.9773 49.8393 41.59C50.5852 42.1882 51.0867 43.2167 51.344 44.6756C51.4789 45.4411 51.5009 46.2414 51.4099 47.0766C51.3333 47.9092 51.165 48.7282 50.9049 49.5336C50.6592 50.3365 50.3346 51.0714 49.9309 51.7382C49.5417 52.4026 49.096 52.9578 48.5938 53.4037C48.1035 53.8327 47.5767 54.0969 47.0134 54.1962ZM45.1116 47.718C45.2186 47.8183 45.2887 47.9623 45.3218 48.1501C45.36 48.3668 45.3549 48.5911 45.3064 48.823C45.2724 49.0524 45.2452 49.3625 45.2247 49.7533C45.2043 50.1441 45.2552 50.6862 45.3774 51.3795C45.4997 52.0728 45.8352 52.3711 46.3841 52.2743C46.9907 52.1673 47.512 51.8297 47.948 51.2613C48.3814 50.6786 48.7328 49.9688 49.0022 49.1319C49.2717 48.2951 49.4383 47.4242 49.5022 46.5194C49.5779 45.5976 49.547 44.7467 49.4095 43.9667C49.3203 43.4612 49.1641 43.1239 48.9406 42.9548C48.7147 42.7712 48.3561 42.7227 47.865 42.8093C47.3595 42.8985 46.8629 43.1648 46.3751 43.6082C45.8993 44.0346 45.5317 44.5686 45.2725 45.21C45.0133 45.8514 44.9474 46.5332 45.0747 47.2554C45.1027 47.4143 45.115 47.5685 45.1116 47.718ZM72.7787 38.193C73.0031 37.1854 73.2008 36.1527 73.3717 35.0949C73.5571 34.0346 73.7025 32.959 73.808 31.8682C73.8438 31.564 73.933 31.31 74.0758 31.1061C74.2304 30.8852 74.4305 30.7531 74.6761 30.7098C74.8494 30.6793 75.0053 30.7188 75.1438 30.8284C75.2967 30.9355 75.3923 31.0973 75.4305 31.314C75.4788 31.5884 75.4546 32.0842 75.3576 32.8012C75.2751 33.5158 75.1666 34.421 75.0322 35.517C74.9123 36.6104 74.8131 37.864 74.7348 39.2778C74.6683 40.6746 74.6707 42.2081 74.7418 43.8785C74.8274 45.5463 75.0332 47.3046 75.3592 49.1534C75.4305 49.5578 75.4024 49.9053 75.2749 50.1959C75.15 50.5009 74.9647 50.675 74.7192 50.7183C74.5747 50.7438 74.4311 50.7319 74.2884 50.6826C74.1457 50.6333 73.9996 50.4803 73.8501 50.2237C73.7176 49.979 73.5728 49.5801 73.4157 49.027C73.256 48.4594 73.0896 47.6845 72.9164 46.7023C72.784 45.9513 72.6834 45.1275 72.6147 44.2312C72.1617 45.5472 71.6241 46.7217 71.0021 47.7548C70.3919 48.7708 69.7678 49.5808 69.1296 50.1848C68.5059 50.7863 67.9413 51.1316 67.4358 51.2207C66.8147 51.3302 66.2722 51.2099 65.8084 50.8598C65.3615 50.5216 65.0668 49.9481 64.9242 49.1392C64.7994 48.4315 64.8368 47.6728 65.0366 46.8631C65.2364 46.0534 65.547 45.2391 65.9686 44.4202C66.3875 43.5867 66.8719 42.7865 67.4217 42.0193C67.9716 41.2522 68.5354 40.5645 69.1132 39.9563C69.7029 39.331 70.2625 38.8303 70.7918 38.454C71.3186 38.0632 71.7626 37.836 72.1237 37.7723C72.2681 37.7469 72.407 37.7745 72.5404 37.8552C72.6738 37.936 72.7532 38.0485 72.7787 38.193ZM72.6155 38.9143C72.5322 39.0332 72.4272 39.156 72.3006 39.2826C72.174 39.4091 72.0342 39.5455 71.8813 39.6916C71.3247 40.2514 70.7159 40.8949 70.0548 41.6221C69.4056 42.3323 68.7954 43.0951 68.2244 43.9107C67.6652 44.7093 67.2352 45.5223 66.9343 46.3498C66.6334 47.1773 66.553 47.9882 66.6931 48.7826C66.7542 49.1293 66.9581 49.272 67.3048 49.2109C67.7814 49.1269 68.2619 48.8113 68.7463 48.2642C69.2425 47.7001 69.7227 46.9602 70.1867 46.0444C70.6482 45.1141 71.0854 44.0466 71.4985 42.8419C71.9091 41.6228 72.2814 40.3136 72.6155 38.9143ZM93.1085 46.6492C92.6896 46.7231 92.3693 46.6381 92.1476 46.3942C91.9259 46.1503 91.7565 45.6962 91.6393 45.0318C91.5451 44.4974 91.4929 43.8215 91.4828 43.0041C91.4872 42.1843 91.5064 41.2798 91.5406 40.2909C91.5721 39.2875 91.6058 38.2539 91.6417 37.1902C90.972 38.5444 90.1664 39.6769 89.2249 40.5875C88.2953 41.4812 87.2068 42.1497 85.9595 42.593C85.781 43.3542 85.5477 44.0581 85.2596 44.7046C84.9715 45.3512 84.6269 45.8885 84.2258 46.3166C83.8247 46.7448 83.3714 47.0034 82.8659 47.0926C82.2448 47.2021 81.673 47.0423 81.1506 46.6131C80.6425 46.1815 80.3032 45.4818 80.1326 44.514C80.0154 43.8496 79.9977 43.2421 80.0793 42.6916C80.1584 42.1266 80.2859 41.7095 80.4618 41.4402C80.1654 40.9414 79.956 40.3454 79.8338 39.6521C79.6835 38.7999 79.7461 38.0144 80.0214 37.2957C80.2943 36.5625 80.7238 35.958 81.3101 35.4823C81.8939 34.9922 82.5613 34.6809 83.3124 34.5485C83.919 34.4415 84.5103 34.6276 85.0863 35.1069C85.6623 35.5862 86.0432 36.353 86.2292 37.4074C86.4023 38.3896 86.4213 39.5107 86.286 40.7706C87.027 40.3272 87.7399 39.7249 88.4248 38.9638C89.1241 38.2001 89.7729 37.3187 90.3712 36.3196C90.9695 35.3206 91.479 34.2403 91.8997 33.079C92.0127 32.791 92.2137 32.6215 92.5026 32.5706C92.7625 32.5247 92.9788 32.5685 93.1512 32.7019C93.3356 32.8183 93.4507 33.0065 93.4965 33.2665C93.5092 33.3388 93.5092 33.5919 93.4964 34.0261C93.498 34.4577 93.4912 35.0099 93.4758 35.6828C93.4748 36.3532 93.4709 37.0911 93.464 37.8965C93.4571 38.702 93.4515 39.5146 93.4471 40.3345C93.4572 41.1518 93.4787 41.9076 93.5118 42.6017C93.7319 41.9076 93.9852 41.1481 94.2716 40.3231C94.5581 39.4982 94.8543 38.6864 95.1603 37.8878C95.4781 37.0722 95.7858 36.3255 96.0833 35.6475C96.3952 34.967 96.6782 34.4182 96.9323 34.0011C97.1982 33.567 97.4251 33.3333 97.6129 33.3002C97.9596 33.2391 98.2832 33.3012 98.584 33.4864C98.8847 33.6717 99.0567 33.8871 99.1 34.1326C99.1586 34.4649 99.2116 34.9768 99.2591 35.6684C99.3041 36.3455 99.3498 37.1119 99.3964 37.9674C99.4431 38.823 99.4897 39.6786 99.5363 40.5341C99.5829 41.3897 99.6299 42.1633 99.6774 42.8549C99.7249 43.5465 99.7779 44.0584 99.8365 44.3906C99.8747 44.6073 99.8152 44.8188 99.658 45.0252C99.5008 45.2317 99.3066 45.3553 99.0755 45.396C98.9166 45.424 98.7705 45.3977 98.6371 45.3169C98.5207 45.2481 98.4057 45.0599 98.2918 44.7523C98.178 44.4447 98.0626 43.9588 97.9454 43.2943C97.8308 42.6444 97.7277 41.9328 97.636 41.1596C97.5418 40.372 97.4633 39.5891 97.4006 38.8108C97.3497 38.0156 97.3201 37.2985 97.3117 36.6596C97.0762 37.267 96.8094 37.9917 96.511 38.8336C96.2271 39.673 95.9254 40.5379 95.6058 41.4282C95.2862 42.3186 94.9722 43.1559 94.6637 43.94C94.3551 44.7242 94.0658 45.3635 93.7955 45.8579C93.5253 46.3523 93.2963 46.6161 93.1085 46.6492ZM84.4406 41.4535C84.5171 40.874 84.5512 40.2649 84.5428 39.6259C84.5463 38.97 84.492 38.3243 84.3799 37.6888C84.3137 37.3133 84.188 37.0227 84.0028 36.817C83.8176 36.6114 83.6023 36.5302 83.3567 36.5735C82.9812 36.6397 82.632 36.813 82.3091 37.0933C81.9836 37.3592 81.7312 37.7016 81.5519 38.1204C81.387 38.5367 81.3504 39.0049 81.4421 39.5248C81.5567 40.1748 81.9003 40.6876 82.4729 41.0632C83.0574 41.4218 83.7133 41.5519 84.4406 41.4535ZM84.1192 43.0515C83.1294 43.1814 82.284 43.0326 81.5831 42.6051C81.5874 42.798 81.5903 42.9836 81.592 43.1621C81.5911 43.326 81.6047 43.4875 81.6327 43.6464C81.7117 44.0941 81.8463 44.4353 82.0366 44.6698C82.2387 44.8873 82.4987 44.9681 82.8165 44.912C83.0765 44.8662 83.3182 44.6746 83.5417 44.3374C83.7652 44.0001 83.9577 43.5715 84.1192 43.0515ZM111.979 32.8894C112.06 33.3516 111.996 33.8321 111.786 34.3308C111.573 34.815 111.264 35.3014 110.859 35.7899C110.451 36.2639 109.989 36.7252 109.472 37.1737C108.956 37.6222 108.431 38.0274 107.9 38.3893C107.368 38.7512 106.877 39.0535 106.429 39.2965C106.413 39.8802 106.443 40.3887 106.519 40.822C106.567 41.0964 106.667 41.2799 106.817 41.3726C106.968 41.4652 107.18 41.4873 107.454 41.4389C108.061 41.332 108.685 41.1103 109.325 40.7739C109.966 40.4376 110.61 40.0337 111.256 39.5622C111.903 39.0908 112.517 38.6028 113.098 38.0982C113.679 37.5936 114.206 37.1208 114.68 36.68C115.168 36.2365 115.573 35.8746 115.896 35.5943C116.219 35.314 116.438 35.1636 116.553 35.1433C116.727 35.1127 116.867 35.1475 116.974 35.2478C117.093 35.3311 117.165 35.445 117.191 35.5894C117.211 35.7049 117.07 35.9607 116.767 36.3565C116.479 36.7499 116.079 37.2226 115.565 37.7748C115.05 38.3125 114.464 38.8775 113.809 39.4696C113.154 40.0616 112.465 40.6299 111.742 41.1744C111.033 41.7164 110.332 42.1751 109.639 42.5505C108.96 42.9234 108.331 43.1608 107.754 43.2627C107.003 43.3951 106.368 43.2166 105.85 42.7272C105.332 42.2377 104.968 41.4008 104.759 40.2164C104.619 39.422 104.579 38.6025 104.638 37.758C104.712 36.9109 104.865 36.0873 105.096 35.2869C105.339 34.4696 105.634 33.7326 105.98 33.0759C106.338 32.4022 106.74 31.8547 107.187 31.4334C107.631 30.9976 108.092 30.7377 108.568 30.6536C109.478 30.4932 110.238 30.6199 110.847 31.0337C111.456 31.4476 111.833 32.0661 111.979 32.8894ZM106.59 37.548C106.989 37.1946 107.4 36.8242 107.823 36.4369C108.247 36.0495 108.632 35.6613 108.981 35.2722C109.329 34.8831 109.596 34.4936 109.78 34.1037C109.976 33.6967 110.041 33.3055 109.975 32.9299C109.881 32.3955 109.545 32.1792 108.967 32.2811C108.606 32.3448 108.264 32.6434 107.941 33.1769C107.63 33.6934 107.358 34.3446 107.124 35.1305C106.89 35.9163 106.712 36.7222 106.59 37.548ZM128.059 41.6704C127.814 41.7137 127.603 41.6615 127.428 41.5136C127.253 41.3657 127.13 41.0896 127.059 40.6852C126.932 39.963 126.837 39.2128 126.774 38.4345C126.723 37.6392 126.639 36.9094 126.522 36.245C126.254 34.7284 125.897 33.5032 125.449 32.5694C125.014 31.6186 124.325 31.0476 123.382 30.8563C123.167 30.8197 123.009 30.7657 122.907 30.6944C122.791 30.6255 122.716 30.4972 122.683 30.3095C122.647 30.1072 122.697 29.9271 122.833 29.7691C122.955 29.6137 123.218 29.5003 123.622 29.429C123.954 29.3704 124.397 29.3071 124.951 29.2393C125.505 29.1714 126.103 29.0958 126.743 29.0127C126.908 27.3304 127.18 25.9125 127.557 24.7587C127.934 23.605 128.402 22.6662 128.959 21.9424C129.531 21.2161 130.17 20.6567 130.875 20.2643C131.595 19.8693 132.366 19.5993 133.189 19.4541C133.551 19.3904 133.791 19.4002 133.909 19.4835C134.026 19.5523 134.101 19.6806 134.134 19.8684C134.174 20.0995 134.146 20.3578 134.047 20.6432C133.946 20.9143 133.678 21.1253 133.243 21.2765C132.291 21.623 131.473 22.0949 130.789 22.6921C130.105 23.2893 129.559 24.078 129.151 25.0584C128.741 26.0244 128.473 27.2482 128.347 28.73C129.728 28.4566 130.907 28.1742 131.883 27.883C132.857 27.5772 133.663 27.2936 134.302 27.032C134.953 26.7534 135.472 26.5279 135.858 26.3555C136.242 26.1686 136.543 26.0561 136.759 26.0179C137.005 25.9746 137.168 26.0128 137.249 26.1326C137.33 26.2524 137.383 26.3846 137.408 26.529C137.456 26.8034 137.244 27.1165 136.769 27.4682C136.293 27.8054 135.646 28.1503 134.83 28.5027C134.025 28.8382 133.127 29.1529 132.137 29.4467C131.146 29.7405 130.159 29.9741 129.177 30.1472C129.018 30.1753 128.86 30.2033 128.701 30.2313C128.556 30.2567 128.405 30.2835 128.246 30.3115C128.235 30.4177 128.232 30.5299 128.238 30.648C128.241 31.5112 128.253 32.4249 128.275 33.3892C128.308 34.3366 128.345 35.2682 128.388 36.1841C128.442 37.083 128.504 37.8986 128.573 38.631C128.643 39.3634 128.716 39.9462 128.792 40.3795C128.856 40.7406 128.818 41.0304 128.677 41.2487C128.54 41.4815 128.334 41.622 128.059 41.6704ZM126.627 30.5075C126.201 30.5381 125.8 30.5491 125.427 30.5405C125.653 30.7241 125.856 30.9488 126.037 31.2148C126.232 31.4782 126.41 31.7671 126.57 32.0815C126.576 31.5292 126.596 31.0046 126.627 30.5075ZM138.839 38.0049C137.987 38.1551 137.258 37.9486 136.652 37.3852C136.047 36.8218 135.652 36.0201 135.469 34.9802C135.402 34.6046 135.383 34.1985 135.41 33.7618C135.449 33.3081 135.525 32.8927 135.637 32.5155C135.518 32.4322 135.415 32.309 135.326 32.1458C135.235 31.9683 135.166 31.7423 135.117 31.4678C134.967 30.6156 134.974 29.8102 135.138 29.0515C135.302 28.2928 135.577 27.6115 135.962 27.0074C136.344 26.389 136.799 25.8844 137.325 25.4936C137.867 25.1003 138.441 24.8502 139.047 24.7432C140.044 24.5675 140.917 24.786 141.665 25.3986C142.411 25.9969 142.912 27.0254 143.17 28.4842C143.305 29.2498 143.327 30.0501 143.236 30.8853C143.159 31.7179 142.991 32.5369 142.731 33.3423C142.485 34.1451 142.16 34.88 141.757 35.5469C141.367 36.2113 140.922 36.7664 140.419 37.2124C139.929 37.6414 139.402 37.9055 138.839 38.0049ZM136.937 31.5267C137.044 31.627 137.114 31.771 137.147 31.9588C137.186 32.1754 137.181 32.3997 137.132 32.6317C137.098 32.861 137.071 33.1712 137.05 33.562C137.03 33.9528 137.081 34.4949 137.203 35.1882C137.325 35.8815 137.661 36.1797 138.21 36.0829C138.816 35.976 139.338 35.6383 139.774 35.07C140.207 34.4872 140.558 33.7774 140.828 32.9406C141.097 32.1037 141.264 31.2329 141.328 30.3281C141.404 29.4062 141.373 28.5554 141.235 27.7754C141.146 27.2699 140.99 26.9325 140.766 26.7634C140.54 26.5799 140.182 26.5314 139.691 26.618C139.185 26.7071 138.689 26.9734 138.201 27.4168C137.725 27.8433 137.357 28.3772 137.098 29.0186C136.839 29.6601 136.773 30.3419 136.9 31.0641C136.928 31.223 136.941 31.3772 136.937 31.5267ZM147.822 36.6219C147.591 36.6627 147.38 36.6032 147.188 36.4434C146.996 36.2837 146.87 36.0377 146.812 35.7055C146.769 35.4599 146.748 35.0466 146.75 34.4654C146.763 33.8673 146.768 33.174 146.763 32.3856C146.772 31.5946 146.755 30.7785 146.711 29.9374C146.664 29.0818 146.573 28.2713 146.438 27.5058C146.372 27.1302 146.418 26.8392 146.575 26.6328C146.744 26.4094 146.951 26.276 147.197 26.2327C147.428 26.192 147.627 26.3058 147.793 26.5743C147.96 26.8428 148.083 27.4168 148.164 28.2961C148.568 26.7057 149.089 25.3927 149.726 24.3571C150.374 23.3045 151.061 22.5132 151.787 21.9831C152.51 21.4386 153.189 21.1103 153.825 20.9983C154.243 20.9244 154.562 20.9576 154.78 21.0978C155.011 21.2211 155.144 21.3838 155.179 21.586C155.228 21.8604 155.15 22.0975 154.947 22.2971C154.756 22.4797 154.404 22.7205 153.891 23.0195C153.298 23.3771 152.764 23.7692 152.288 24.1956C151.825 24.6051 151.4 25.1118 151.015 25.7158C150.645 26.3173 150.307 27.0619 150.002 27.9497C149.694 28.8231 149.419 29.8842 149.178 31.1332C148.936 32.3821 148.708 33.8744 148.493 35.6101C148.462 35.9432 148.386 36.1874 148.265 36.3429C148.158 36.4958 148.01 36.5888 147.822 36.6219ZM171.635 37.74C170.912 37.8673 170.239 37.9339 169.615 37.9398C169.007 37.9575 168.397 37.9162 167.783 37.8159C167.172 37.73 166.501 37.5952 165.768 37.4116C165.548 37.3462 165.346 37.2552 165.162 37.1388C164.98 37.0368 164.874 36.8992 164.843 36.7259C164.805 36.5092 164.902 36.2539 165.133 35.96C165.352 35.683 165.577 35.5242 165.808 35.4834C166.054 35.4401 166.372 35.4733 166.764 35.583C167.17 35.6901 167.639 35.8159 168.171 35.9604C168.705 36.1193 169.284 36.2333 169.907 36.3022C170.544 36.3685 171.209 36.3406 171.902 36.2183C172.653 36.0859 173.306 35.6506 173.861 34.9123C174.416 34.1741 174.8 33.1831 175.013 31.9392C175.228 30.7099 175.191 29.2791 174.904 27.647C174.817 27.1559 174.707 26.6168 174.574 26.0297C174.452 25.4256 174.311 24.7951 174.151 24.1384C173.937 24.9506 173.678 25.7632 173.374 26.5762C173.085 27.3867 172.762 28.1288 172.404 28.8025C172.061 29.4737 171.676 30.0331 171.248 30.4808C170.833 30.9115 170.379 31.1701 169.888 31.2567C169.267 31.3662 168.791 31.2863 168.461 31.0169C168.13 30.7476 167.907 30.2807 167.789 29.6162C167.667 28.9229 167.585 28.1629 167.544 27.3363C167.502 26.5096 167.488 25.6706 167.502 24.8193C167.528 23.951 167.59 23.1209 167.689 22.3291C167.787 21.5372 167.918 20.844 168.081 20.2492C168.175 19.9349 168.366 19.7523 168.655 19.7013C168.857 19.6657 169.071 19.7396 169.297 19.9232C169.535 20.0897 169.683 20.3391 169.742 20.6713C169.788 20.9313 169.795 21.3098 169.763 21.8068C169.732 22.3039 169.683 22.871 169.617 23.5082C169.55 24.1454 169.489 24.8115 169.433 25.5064C169.374 26.187 169.343 26.8552 169.339 27.5111C169.333 28.1526 169.376 28.7333 169.468 29.2533C169.506 29.4699 169.67 29.5528 169.959 29.5018C170.117 29.4738 170.316 29.2899 170.554 28.9501C170.804 28.5933 171.067 28.1447 171.344 27.6044C171.633 27.0471 171.914 26.4465 172.188 25.8025C172.474 25.1415 172.746 24.4903 173.005 23.8489C173.262 23.193 173.477 22.5966 173.65 22.0597C173.616 21.9467 173.589 21.8396 173.571 21.7385C173.554 21.6374 173.537 21.5436 173.522 21.4569C173.397 20.7491 173.391 20.2959 173.505 20.0971C173.631 19.8813 173.817 19.7517 174.062 19.7085C174.481 19.6346 174.794 19.6763 175 19.8335C175.207 19.9907 175.351 20.3004 175.432 20.7626C175.463 20.9359 175.474 21.1275 175.466 21.3374C175.456 21.5328 175.432 21.8199 175.395 22.1989C175.712 23.3196 175.986 24.3285 176.219 25.2257C176.466 26.1204 176.671 27.03 176.834 27.9544C177.142 29.7021 177.128 31.2683 176.792 32.6532C176.469 34.0355 175.865 35.1696 174.979 36.0556C174.107 36.9391 172.992 37.5006 171.635 37.74ZM183.99 30.0435C183.138 30.1938 182.409 29.9872 181.803 29.4238C181.198 28.8605 180.803 28.0588 180.62 27.0188C180.554 26.6433 180.534 26.2372 180.561 25.8005C180.6 25.3468 180.676 24.9313 180.788 24.5541C180.669 24.4708 180.566 24.3476 180.477 24.1845C180.387 24.0069 180.317 23.7809 180.268 23.5065C180.118 22.6543 180.125 21.8488 180.289 21.0901C180.453 20.3315 180.728 19.6501 181.113 19.0461C181.495 18.4276 181.95 17.923 182.477 17.5323C183.018 17.139 183.592 16.8888 184.198 16.7819C185.195 16.6061 186.068 16.8246 186.816 17.4373C187.562 18.0355 188.064 19.064 188.321 20.5229C188.456 21.2884 188.478 22.0887 188.387 22.9239C188.31 23.7565 188.142 24.5755 187.882 25.3809C187.636 26.1838 187.311 26.9187 186.908 27.5855C186.518 28.2499 186.073 28.8051 185.571 29.251C185.08 29.68 184.553 29.9442 183.99 30.0435ZM182.088 23.5653C182.195 23.6656 182.265 23.8096 182.299 23.9974C182.337 24.2141 182.332 24.4383 182.283 24.6703C182.249 24.8997 182.222 25.2098 182.202 25.6006C182.181 25.9914 182.232 26.5335 182.354 27.2268C182.476 27.9201 182.812 28.2184 183.361 28.1216C183.968 28.0146 184.489 27.677 184.925 27.1086C185.358 26.5259 185.71 25.816 185.979 24.9792C186.248 24.1424 186.415 23.2715 186.479 22.3667C186.555 21.4449 186.524 20.594 186.386 19.814C186.297 19.3085 186.141 18.9712 185.917 18.8021C185.691 18.6185 185.333 18.57 184.842 18.6566C184.336 18.7458 183.84 19.0121 183.352 19.4555C182.876 19.8819 182.509 20.4159 182.249 21.0573C181.99 21.6987 181.924 22.3805 182.051 23.1027C182.079 23.2616 182.092 23.4158 182.088 23.5653ZM199.146 27.6839C198.9 27.7272 198.672 27.6558 198.46 27.4697C198.249 27.2836 198.106 26.9811 198.032 26.5623C197.945 26.0712 197.894 25.3579 197.878 24.4225C197.877 23.4845 197.895 22.2377 197.933 20.6821C197.706 21.6752 197.427 22.6255 197.096 23.5328C196.779 24.4376 196.406 25.1959 195.978 25.8075C195.549 26.4192 195.061 26.7734 194.512 26.8702C193.978 26.9644 193.464 26.839 192.971 26.494C192.493 26.1465 192.161 25.4455 191.975 24.3911C191.871 23.7989 191.804 23.1256 191.775 22.3711C191.744 21.6022 191.743 20.8354 191.772 20.0708C191.801 19.3061 191.844 18.6209 191.901 18.0151C191.955 17.3949 192.023 16.9361 192.105 16.6388C192.165 16.3898 192.24 16.2204 192.328 16.1303C192.414 16.0258 192.543 15.9583 192.717 15.9277C192.919 15.8921 193.151 15.9405 193.412 16.0731C193.674 16.2057 193.841 16.4742 193.912 16.8786C193.93 16.9797 193.921 17.227 193.886 17.6203C193.863 17.9967 193.827 18.4648 193.776 19.0247C193.738 19.5676 193.7 20.1551 193.663 20.7872C193.625 21.4194 193.61 22.0476 193.615 22.6721C193.636 23.294 193.69 23.8578 193.78 24.3633C193.828 24.6377 193.896 24.8565 193.985 25.0197C194.073 25.1828 194.233 25.244 194.464 25.2032C194.666 25.1676 194.883 24.9208 195.115 24.4629C195.362 24.0024 195.607 23.4082 195.851 22.6801C196.107 21.935 196.357 21.1164 196.602 20.2244C196.861 19.3297 197.102 18.416 197.325 17.4832C197.562 16.5478 197.771 15.6621 197.951 14.8261C198.021 14.5457 198.115 14.3652 198.235 14.2845C198.352 14.1893 198.49 14.1278 198.649 14.0998C198.909 14.0539 199.16 14.1215 199.4 14.3025C199.652 14.4665 199.808 14.7146 199.866 15.0468C199.904 15.2635 199.927 15.6467 199.935 16.1964C199.957 16.7435 199.959 17.3909 199.942 18.1386C199.937 18.8693 199.918 19.6471 199.885 20.4721C199.866 21.2945 199.846 22.1097 199.824 22.9177C199.8 23.7112 199.772 24.4385 199.74 25.0995C199.722 25.7579 199.704 26.2898 199.686 26.695C199.678 27.0689 199.617 27.3178 199.505 27.4418C199.41 27.5778 199.29 27.6585 199.146 27.6839Z" fill="#151531"/>
<defs>
<clipPath id="clip0_887_8938">
<rect width="120" height="80" fill="white" transform="translate(108.999 19.8834) rotate(45)"/>
</clipPath>
</defs>
</svg>
