<svg width="100" height="32" viewBox="0 0 100 32" fill="none" xmlns="http://www.w3.org/2000/svg">
<g clip-path="url(#clip0_1886_14227)">
<mask id="mask0_1886_14227" style="mask-type:luminance" maskUnits="userSpaceOnUse" x="0" y="0" width="100" height="32">
<path d="M99.2 0L0 0L0 32H99.2V0Z" fill="white"/>
</mask>
<g mask="url(#mask0_1886_14227)">
<path d="M53.474 12.5248C55.9044 12.5248 57.1892 14.1648 57.1892 17.2704V29.3904C57.1892 29.8048 57.522 30.1392 57.9332 30.1392H61.242C61.6532 30.1392 61.986 29.8048 61.986 29.3904V15.8096C61.986 13.5152 61.3012 11.56 60.002 10.1648C58.6964 8.76 56.8676 8.0192 54.7092 8.0192C52.1108 8.0192 49.9284 9.0048 48.0324 11.0352L47.9636 11.1104L47.9092 11.0256C46.6548 9.0608 44.69 8.0192 42.2356 8.0192C39.81 8.0192 37.8308 8.9344 36.3476 10.7392L36.2084 10.9104V9.1856C36.2084 8.7696 35.8756 8.4352 35.4644 8.4352H32.1556C31.7444 8.4352 31.4116 8.7696 31.4116 9.1856V29.3856C31.4116 29.8 31.7444 30.1344 32.1556 30.1344H35.4644C35.8756 30.1344 36.2084 29.8 36.2084 29.3856V17.3904C36.2084 15.5296 36.962 14.3952 37.5924 13.7648C38.3924 12.9728 39.466 12.5264 40.5876 12.52C43.018 12.52 44.3028 14.16 44.3028 17.2656V29.3856C44.3028 29.8 44.6356 30.1344 45.0468 30.1344H48.3556C48.7668 30.1344 49.0996 29.8 49.0996 29.3856V17.3904C49.0996 15.5296 49.8532 14.3952 50.4836 13.7648C51.2772 12.9792 52.3684 12.5248 53.474 12.5248ZM99.1268 18.7248C99.1268 15.72 98.258 13.0256 96.6852 11.1344C94.9892 9.0944 92.53 8.0192 89.578 8.0192C86.706 8.0192 84.0916 9.1744 82.2132 11.2752C80.3524 13.3504 79.33 16.2048 79.33 19.3104C79.33 25.9552 83.6308 30.6 89.786 30.6C93.7204 30.6 96.9636 28.6592 98.6308 25.3696C98.8388 24.9552 98.6596 24.4848 98.2276 24.32L95.5652 23.3056C95.1972 23.1648 94.7908 23.3392 94.6276 23.6992C93.7988 25.48 92.0436 26.5152 89.7908 26.5152C86.5476 26.5152 84.3012 24.1744 83.9284 20.4048L83.9188 20.3152H98.3876C98.7988 20.3152 99.1316 19.9792 99.1316 19.5648V18.7248H99.1268ZM84.1476 16.7248L84.1716 16.6256C84.9012 13.7296 86.8548 12.0656 89.538 12.0656C92.3748 12.0656 94.2404 13.8608 94.2852 16.64V16.72H84.1476V16.7248ZM27.5924 29.1248L16.978 0.884801C16.8692 0.595201 16.5924 0.400002 16.2836 0.400002H11.434C11.1252 0.400002 10.8484 0.595201 10.7396 0.884801L0.125163 29.1248C-0.0588375 29.6144 0.297962 30.1392 0.819562 30.1392H4.30116C4.61316 30.1392 4.89156 29.9456 5.00036 29.6496L6.89956 24.5152H20.7028L22.6324 29.6544C22.7428 29.9456 23.0196 30.1392 23.3268 30.1392H26.8932C27.138 30.1408 27.3684 30.0208 27.5076 29.8176C27.6484 29.6144 27.6788 29.3552 27.5924 29.1248ZM8.56676 20.0144L13.754 6.0048L19.0164 20.0144H8.56676ZM65.3236 9.1904V12.1792C65.3236 12.5952 65.6564 12.9296 66.0676 12.9296H69.738V29.3904C69.738 29.8048 70.0708 30.1408 70.482 30.1408H73.7908C74.202 30.1408 74.5348 29.8048 74.5348 29.3904V9.1904C74.5348 8.7744 74.202 8.44 73.7908 8.44H66.0628C65.6564 8.44 65.3236 8.7744 65.3236 9.1904ZM69.658 1.1504V4.6096C69.658 5.0256 69.9908 5.36 70.402 5.36H73.8804C74.2916 5.36 74.6244 5.0256 74.6244 4.6096V1.1504C74.6244 0.734401 74.2916 0.400002 73.8804 0.400002L70.402 0.400002C69.9908 0.400002 69.658 0.739201 69.658 1.1504Z" fill="#FFA1A5"/>
</g>
</g>
<defs>
<clipPath id="clip0_1886_14227">
<rect width="99.2" height="32" fill="white"/>
</clipPath>
</defs>
</svg>
