<svg width="89" height="31" viewBox="0 0 89 31" fill="none" xmlns="http://www.w3.org/2000/svg">
<g clip-path="url(#clip0_2081_40054)">
<mask id="mask0_2081_40054" style="mask-type:luminance" maskUnits="userSpaceOnUse" x="0" y="0" width="89" height="31">
<path d="M88.0636 2.47323L1.27686 0.958359L0.788188 28.9541L87.575 30.469L88.0636 2.47323Z" fill="white"/>
</mask>
<g mask="url(#mask0_2081_40054)">
<path d="M47.1237 12.7325C49.25 12.7696 50.349 14.224 50.3016 16.941L50.1165 27.5444C50.1101 27.9069 50.3962 28.2045 50.7559 28.2108L53.6507 28.2614C54.0104 28.2676 54.3067 27.9802 54.313 27.6176L54.5204 15.7362C54.5555 13.7289 53.9862 12.0079 52.8709 10.7675C51.7501 9.51853 50.1615 8.8425 48.2732 8.80954C45.9999 8.76986 44.0755 9.5988 42.3858 11.3462L42.3244 11.4109L42.2782 11.3359C41.2107 9.5978 39.5077 8.65654 37.3604 8.61906C35.2383 8.58202 33.4928 9.35247 32.1677 10.9088L32.0433 11.0564L32.0696 9.54746C32.076 9.18352 31.7899 8.88588 31.4302 8.8796L28.5354 8.82907C28.1757 8.82279 27.8794 9.11027 27.873 9.47421L27.5646 27.1465C27.5582 27.5091 27.8443 27.8067 28.204 27.813L31.0988 27.8635C31.4585 27.8698 31.7548 27.5823 31.7611 27.2198L31.9443 16.7256C31.9727 15.0976 32.6494 14.1167 33.2105 13.5748C33.9225 12.8941 34.8686 12.52 35.8499 12.5315C37.9762 12.5686 39.0752 14.023 39.0277 16.74L38.8427 27.3434C38.8363 27.7059 39.1224 28.0036 39.4821 28.0098L42.3769 28.0604C42.7366 28.0666 43.0329 27.7792 43.0392 27.4166L43.2224 16.9224C43.2508 15.2945 43.9274 14.3135 44.4886 13.7716C45.1949 13.0965 46.1565 12.7156 47.1237 12.7325ZM86.9691 18.8538C87.015 16.225 86.2961 13.8545 84.949 12.1759C83.4964 10.3653 81.3613 9.3871 78.7787 9.34202C76.2661 9.29816 73.9612 10.2689 72.2858 12.0781C70.6261 13.8652 69.6881 16.3468 69.6406 19.0638C69.5392 24.8771 73.2309 29.0064 78.6159 29.1004C82.0579 29.1605 84.9249 27.5121 86.4337 24.6595C86.622 24.3002 86.4725 23.8859 86.097 23.7351L83.7833 22.807C83.4635 22.6782 83.1053 22.8246 82.957 23.137C82.2047 24.6823 80.6533 25.5612 78.6824 25.5268C75.8451 25.4773 73.9155 23.3951 73.6469 20.0915L73.6399 20.013L86.2982 20.2339C86.6579 20.2402 86.9542 19.9513 86.9605 19.5888L86.9734 18.8539L86.9691 18.8538ZM73.8949 16.8753L73.9174 16.7889C74.5999 14.2664 76.3345 12.8405 78.6819 12.8815C81.1637 12.9248 82.7685 14.5238 82.7652 16.956L82.764 17.0259L73.895 16.8711L73.8949 16.8753ZM24.2273 26.86L15.3723 1.9917C15.2816 1.73668 15.0424 1.56168 14.7722 1.55696L10.5294 1.48291C10.2593 1.47819 10.0141 1.64474 9.91453 1.89644L0.197104 26.4406C0.0286515 26.8661 0.332789 27.3307 0.78912 27.3387L3.83505 27.3918C4.10801 27.3966 4.35453 27.2315 4.45424 26.9742L6.19419 22.5112L18.2702 22.722L19.8798 27.2476C19.972 27.5041 20.2112 27.6777 20.4799 27.6824L23.6001 27.7368C23.8142 27.742 24.0176 27.6405 24.1425 27.4648C24.2688 27.2892 24.2993 27.0629 24.2273 26.86ZM7.7215 18.5991L12.4735 6.42179L16.8635 18.7587L7.7215 18.5991ZM57.5415 9.99628L57.4958 12.6111C57.4895 12.975 57.7755 13.2727 58.1353 13.2789L61.3464 13.335L61.095 27.736C61.0887 28.0985 61.3747 28.3976 61.7344 28.4039L64.6292 28.4544C64.9889 28.4607 65.2852 28.1718 65.2916 27.8092L65.6 10.1369C65.6064 9.77299 65.3203 9.47536 64.9606 9.46908L58.1996 9.35106C57.8441 9.34486 57.5478 9.63233 57.5415 9.99628ZM61.4563 3.02854L61.4034 6.05488C61.3971 6.41882 61.6831 6.71646 62.0429 6.72274L65.086 6.77586C65.4458 6.78214 65.742 6.49466 65.7484 6.13072L65.8012 3.10438C65.8075 2.74043 65.5215 2.4428 65.1618 2.43652L62.1186 2.3834C61.7589 2.37712 61.4625 2.66879 61.4563 3.02854Z" fill="#FFA1A5"/>
</g>
</g>
<defs>
<clipPath id="clip0_2081_40054">
<rect width="86.8" height="28" fill="white" transform="translate(1.27686 0.958359) rotate(1)"/>
</clipPath>
</defs>
</svg>
