<svg width="41" height="42" viewBox="0 0 41 42" fill="none" xmlns="http://www.w3.org/2000/svg">
<g clip-path="url(#clip0_1030_46140)">
<mask id="mask0_1030_46140" style="mask-type:luminance" maskUnits="userSpaceOnUse" x="0" y="0" width="41" height="42">
<path d="M40.8709 1.08335L0.876953 0.385254L0.178857 40.3792L40.1728 41.0773L40.8709 1.08335Z" fill="white"/>
</mask>
<g mask="url(#mask0_1030_46140)">
<path fillRule="evenodd" clipRule="evenodd" d="M20.1758 40.7282C35.5049 40.9958 40.2542 36.4094 40.5218 21.0803C40.7894 5.75123 36.203 1.00187 20.8739 0.734302C5.54483 0.466732 0.795475 5.05313 0.527905 20.3822C0.260334 35.7113 4.84673 40.4606 20.1758 40.7282Z" fill="#151531"/>
<path fillRule="evenodd" clipRule="evenodd" d="M29.0175 29.0805C32.4557 29.1405 35.286 26.3431 35.3471 22.8408C35.4083 19.3385 32.6773 16.4442 29.2392 16.3842C25.8012 16.3242 22.9708 19.1214 22.9097 22.6237C22.8486 26.1261 25.5795 29.0204 29.0175 29.0805ZM29.0853 25.1964C27.7679 25.1734 26.7128 24.0551 26.7366 22.6905C26.7605 21.326 27.854 20.2451 29.1714 20.2681C30.4888 20.2911 31.5441 21.4095 31.5203 22.774C31.4964 24.1386 30.4027 25.2194 29.0853 25.1964Z" fill="#319CFC"/>
<path fillRule="evenodd" clipRule="evenodd" d="M9.04228 25.7264C8.95471 30.7429 12.8636 34.8854 17.7812 34.9712C19.5346 35.0018 21.2258 34.5102 22.6792 33.5736C23.5716 32.9984 23.836 31.7983 23.2697 30.8928C22.7034 29.9873 21.5209 29.7197 20.6284 30.2949C19.8027 30.8269 18.8469 31.105 17.849 31.0875C15.0522 31.0387 12.819 28.6719 12.8692 25.7932C12.8879 24.7207 12.0464 23.8363 10.9896 23.8178C9.93287 23.7994 9.061 24.6539 9.04228 25.7264Z" fill="#FFC310"/>
<path fillRule="evenodd" clipRule="evenodd" d="M18.6756 19.1555L25.5481 12.4381C26.497 11.5106 26.5237 9.98042 25.6078 9.02039C24.6918 8.06034 23.1801 8.03395 22.2312 8.96145L15.3587 15.6789C14.4098 16.6064 14.3831 18.1365 15.299 19.0966C16.215 20.0566 17.7267 20.083 18.6756 19.1555Z" fill="#FD5F49"/>
<path fillRule="evenodd" clipRule="evenodd" d="M10.3748 17.2305L17.2474 10.513C18.1962 9.58551 18.223 8.05537 17.307 7.09532C16.391 6.1353 14.8793 6.10891 13.9304 7.03638L7.05788 13.7538C6.10899 14.6813 6.08228 16.2115 6.99823 17.1715C7.91417 18.1316 9.42594 18.1579 10.3748 17.2305Z" fill="#FD5F49"/>
</g>
</g>
<defs>
<clipPath id="clip0_1030_46140">
<rect width="40" height="40" fill="white"/>
</clipPath>
</defs>
</svg>
