<svg width="123" height="125" viewBox="0 0 123 125" fill="none" xmlns="http://www.w3.org/2000/svg">
<g filter="url(#filter0_dd_843_32110)">
<rect x="1.05762" y="1.05795" width="120" height="120" rx="40" fill="white"/>
</g>
<g clip-path="url(#clip0_843_32110)">
<path d="M67.7789 70.0365H36.3966C34.9494 70.0365 33.7773 68.8546 33.7773 67.3953C33.7773 65.936 34.9494 64.754 36.3966 64.754H67.7789C69.226 64.754 70.3981 65.936 70.3981 67.3953C70.3981 68.8546 69.226 70.0365 67.7789 70.0365ZM85.7036 56.6177H54.3226C52.8755 56.6177 51.7033 55.4357 51.7033 53.9765C51.7033 52.5172 52.8755 51.3352 54.3226 51.3352H85.7036C87.1507 51.3352 88.3228 52.5172 88.3228 53.9765C88.3228 55.4357 87.1507 56.6177 85.7036 56.6177ZM79.2157 43.9113C79.2157 45.3701 78.0431 46.5526 76.5965 46.5526C75.1499 46.5526 73.9773 45.3701 73.9773 43.9113C73.9773 42.4526 75.1499 41.2701 76.5965 41.2701C78.0431 41.2701 79.2157 42.4526 79.2157 43.9113ZM48.1222 77.4643C48.1222 78.923 46.9495 80.1056 45.503 80.1056C44.0564 80.1056 42.8837 78.923 42.8837 77.4643C42.8837 76.0056 44.0564 74.8231 45.503 74.8231C46.9495 74.8231 48.1222 76.0056 48.1222 77.4643Z" fill="#93C8A2"/>
<path d="M61.0364 86.182C58.4813 86.182 55.9577 85.7992 53.5362 85.0422C52.1554 84.6107 51.3828 83.1323 51.8104 81.7398C52.2384 80.3406 53.7083 79.5619 55.086 79.9975C57.0049 80.598 59.0062 80.9016 61.0364 80.9016C69.9194 80.9016 77.6322 75.1533 80.2298 66.5936C80.4328 65.9242 80.8915 65.3637 81.5047 65.0356C82.1179 64.7076 82.8354 64.6389 83.4989 64.8447C84.8811 65.2671 85.6586 66.7454 85.2358 68.1379C81.9609 78.929 72.2355 86.182 61.0364 86.182ZM39.3409 56.5998C38.5106 56.5999 37.7295 56.2028 37.2357 55.5296C36.742 54.8564 36.5943 53.987 36.8376 53.1865C40.1132 42.3961 49.8385 35.1483 61.0364 35.1483C63.5933 35.1483 66.117 35.5311 68.5365 36.2888C69.1998 36.496 69.7542 36.9604 70.0779 37.5799C70.4015 38.1993 70.4679 38.9231 70.2623 39.5919C70.0575 40.2611 69.597 40.8206 68.9825 41.147C68.3679 41.4734 67.6499 41.5398 66.9867 41.3315C65.0692 40.7376 63.0665 40.434 61.0364 40.434C52.1553 40.434 44.4411 46.1823 41.8436 54.742C41.5065 55.8509 40.4917 56.6084 39.3415 56.6097L39.3409 56.5998Z" fill="#43AF79"/>
</g>
<defs>
<filter id="filter0_dd_843_32110" x="0.0576172" y="0.0579529" width="122" height="124" filterUnits="userSpaceOnUse" color-interpolation-filters="sRGB">
<feFlood flood-opacity="0" result="BackgroundImageFix"/>
<feColorMatrix in="SourceAlpha" type="matrix" values="0 0 0 0 0 0 0 0 0 0 0 0 0 0 0 0 0 0 127 0" result="hardAlpha"/>
<feOffset/>
<feGaussianBlur stdDeviation="0.5"/>
<feColorMatrix type="matrix" values="0 0 0 0 0.0509804 0 0 0 0 0.0745098 0 0 0 0 0.105882 0 0 0 0.25 0"/>
<feBlend mode="normal" in2="BackgroundImageFix" result="effect1_dropShadow_843_32110"/>
<feColorMatrix in="SourceAlpha" type="matrix" values="0 0 0 0 0 0 0 0 0 0 0 0 0 0 0 0 0 0 127 0" result="hardAlpha"/>
<feOffset dy="2"/>
<feGaussianBlur stdDeviation="0.5"/>
<feColorMatrix type="matrix" values="0 0 0 0 0.0509804 0 0 0 0 0.0745098 0 0 0 0 0.105882 0 0 0 0.05 0"/>
<feBlend mode="normal" in2="effect1_dropShadow_843_32110" result="effect2_dropShadow_843_32110"/>
<feBlend mode="normal" in="SourceGraphic" in2="effect2_dropShadow_843_32110" result="shape"/>
</filter>
<clipPath id="clip0_843_32110">
<rect width="54.5454" height="51.1364" fill="white" transform="translate(33.7773 35.1483)"/>
</clipPath>
</defs>
</svg>
