<svg width="35" height="35" viewBox="0 0 35 35" fill="none" xmlns="http://www.w3.org/2000/svg">
<g clip-path="url(#clip0_1146_32560)">
<path d="M32.1158 16.6255C31.3361 15.2945 30.2235 14.1893 28.8874 13.4184C27.8673 12.8256 26.8126 12.4491 25.6216 12.2862V8.02167C26.1992 7.78234 26.6916 7.37524 27.0354 6.85301C27.3791 6.33078 27.5582 5.71744 27.5496 5.09232C27.5517 4.67016 27.4704 4.25175 27.3103 3.86113C27.1502 3.4705 26.9145 3.11536 26.6167 2.8161C26.3189 2.51685 25.965 2.27938 25.5752 2.11734C25.1853 1.95531 24.7673 1.8719 24.3452 1.8719C23.4901 1.8719 22.6699 2.21085 22.0642 2.81449C21.4586 3.41813 21.1169 4.23723 21.1141 5.09232C21.1141 6.40078 21.8084 7.51698 23.002 8.02167V12.2621C22.0132 12.4052 21.0539 12.7064 20.1608 13.154L8.74512 4.51019C8.82523 4.20844 8.89466 3.89601 8.89466 3.56756C8.89466 1.59686 7.2978 0 5.3271 0C3.35639 0 1.76221 1.59686 1.76221 3.56756C1.76221 5.53826 3.35906 7.13512 5.32977 7.13512C6.00269 7.13512 6.62488 6.93751 7.16161 6.6144L7.9093 7.18051L18.15 14.564C17.6079 15.0607 17.1032 15.6268 16.7 16.2623C15.8829 17.5574 15.3836 18.9807 15.3836 20.5348V20.8553C15.3872 21.9092 15.577 22.9543 15.9443 23.9422C16.2541 24.786 16.708 25.555 17.2715 26.2493L13.8695 29.6593C12.8628 29.2855 11.7332 29.5338 10.9722 30.2949C10.4541 30.8103 10.1631 31.5126 10.1657 32.2442C10.1684 32.9759 10.4541 33.6728 10.9748 34.1936C11.4956 34.7143 12.1925 35.0027 12.9242 35.0027C13.6559 35.0027 14.3582 34.7143 14.8735 34.1936C15.3889 33.6728 15.6826 32.9759 15.68 32.2442C15.6798 31.9634 15.6365 31.6842 15.5518 31.4164L19.0659 27.9023C19.5466 28.2361 20.0673 28.5164 20.6281 28.7568C21.7806 29.2623 23.0252 29.5241 24.2838 29.5258H24.5241C25.9981 29.5258 27.3894 29.1787 28.6951 28.471C30.0374 27.7513 31.1651 26.689 31.9636 25.3922C32.7834 24.0837 33.232 22.6337 33.232 21.0395V20.9594C33.232 19.3919 32.8689 17.9473 32.1105 16.6228L32.1158 16.6255ZM27.8246 24.0009C26.8713 25.061 25.7738 25.7153 24.5348 25.7153H24.2998C23.5921 25.7153 22.8979 25.5203 22.2223 25.1625C21.4815 24.7773 20.8538 24.2058 20.4011 23.5042C19.9098 22.8099 19.6427 22.0516 19.6427 21.2478V21.0075C19.6427 20.2171 19.7949 19.4667 20.1768 18.7591C20.5854 17.958 21.1381 17.3838 21.8725 16.9059C22.6068 16.4279 23.3625 16.1982 24.2223 16.1982H24.3025C25.0769 16.1982 25.8165 16.3504 26.5108 16.7056C27.2142 17.0755 27.8116 17.6187 28.2465 18.2837C28.6772 18.9507 28.9435 19.7103 29.0236 20.5001L29.0423 20.9995C29.0423 22.0863 28.6257 23.093 27.7952 24.0063L27.8246 24.0009Z" fill="#FF5C36"/>
</g>
<defs>
<clipPath id="clip0_1146_32560">
<rect width="35" height="35" fill="white"/>
</clipPath>
</defs>
</svg>
