<svg width="33" height="27" viewBox="0 0 33 27" fill="none" xmlns="http://www.w3.org/2000/svg">
<path d="M32.5388 18.8168L29.7922 14.421C29.7922 14.421 29.782 14.4027 29.7759 14.3945L29.5592 14.0491C29.1505 13.3932 28.4434 13.0008 27.6709 12.9987L23.2466 12.9844L22.938 13.479L17.6512 21.9395L17.3589 22.4074L19.5742 25.9469C19.983 26.6051 20.69 26.9973 21.4686 26.9973H27.6689C28.4333 26.9973 29.1567 26.5948 29.5613 25.949L29.7799 25.5996C29.7799 25.5996 29.7881 25.5893 29.7902 25.5853L32.5408 21.1834C32.9924 20.464 32.9924 19.5341 32.5408 18.8168H32.5388ZM31.7009 20.6581L28.9502 25.06C28.938 25.0805 28.9236 25.0968 28.9114 25.1132C28.8154 25.2215 28.6907 25.2358 28.6356 25.2358C28.5721 25.2358 28.4169 25.2174 28.3167 25.058L25.5661 20.6561C25.5353 20.607 25.5088 20.556 25.4843 20.5007C25.4598 20.4476 25.4414 20.3946 25.425 20.3393C25.3638 20.1186 25.3638 19.8816 25.425 19.6609C25.4557 19.5526 25.5027 19.4442 25.564 19.3461L28.3106 14.9484C28.3106 14.9484 28.3147 14.9422 28.3167 14.9381C28.3821 14.84 28.4639 14.795 28.5354 14.7807C28.5641 14.7726 28.5885 14.7705 28.609 14.7665C28.6192 14.7665 28.6293 14.7665 28.6396 14.7665C28.7029 14.7665 28.8603 14.7868 28.9584 14.9463L31.705 19.3421C31.9564 19.7426 31.9564 20.2576 31.705 20.6581H31.7009Z" fill="#1D1E20"/>
<path d="M24.4108 8.18059C24.8604 7.45914 24.8604 6.53134 24.4108 5.81405L21.6642 1.41827L21.4353 1.04837C21.0245 0.392381 20.3175 0 19.5409 0L13.3406 0C12.5661 0 11.859 0.392381 11.4462 1.05042L0.343325 18.8195C0.120573 19.1751 0 19.5859 0 20.0028C0 20.4196 0.118529 20.8304 0.341282 21.1839L3.31881 25.9517C3.72957 26.6097 4.43666 27 5.21118 27H11.4114C12.1901 27 12.8972 26.6077 13.3058 25.9496L13.5328 25.5899C13.5328 25.5899 13.5328 25.5899 13.5328 25.5859L13.5368 25.5777L15.75 22.0382L22.3099 11.5402L24.4067 8.18255L24.4108 8.18059ZM23.763 6.99732C23.763 7.22413 23.6997 7.45302 23.5709 7.65533L12.6949 25.0627C12.5968 25.2201 12.4394 25.2384 12.3761 25.2384C12.3126 25.2384 12.1574 25.2201 12.0573 25.0627L9.3086 20.6588C9.05928 20.2603 9.05928 19.7473 9.3086 19.3447L20.1847 1.94142C20.2827 1.78202 20.4401 1.76364 20.5034 1.76364C20.5668 1.76364 20.7241 1.78202 20.8243 1.94347L23.5709 6.3393C23.6997 6.54162 23.763 6.7704 23.763 6.99732Z" fill="#1D1E20"/>
</svg>
