<svg width="123" height="125" viewBox="0 0 123 125" fill="none" xmlns="http://www.w3.org/2000/svg">
<g filter="url(#filter0_dd_843_32127)">
<rect x="1.03711" y="1.05743" width="120" height="120" rx="40" fill="white"/>
</g>
<path d="M50.0749 56.2293L56.7501 56.2293C55.0833 55.1865 54.4592 53.7251 53.6218 51.0156L51.1177 41.7337C49.9723 37.5627 49.0322 35.5799 44.4426 35.5799L36.1046 35.5799C35.4131 35.5799 34.8525 36.1405 34.8525 36.832C34.8525 37.5235 35.4131 38.0841 36.1046 38.0841L36.2113 38.0841C39.0235 38.0841 39.3395 39.1268 40.1768 42.255L42.365 50.3915C43.5104 54.3571 45.2878 56.2293 50.0829 56.2293L50.0749 56.2293ZM65.5185 56.2293L72.1857 56.2293C76.9807 56.2293 78.6475 54.3492 79.8009 50.3915L81.989 42.255C82.8263 39.1268 83.2371 38.0841 85.9546 38.0841L86.0612 38.0841C86.7527 38.0841 87.3133 37.5235 87.3133 36.832C87.3133 36.1405 86.7527 35.5799 86.0612 35.5799L77.826 35.5799C73.1337 35.5799 72.1936 37.46 71.1508 41.7337L68.6467 51.0156C67.8094 53.8278 67.1853 55.1865 65.5185 56.2293ZM56.7501 64.982L65.5187 64.982L65.5185 56.2293L56.7501 56.2293L56.7501 64.982ZM34.8525 84.3792C34.8525 85.0707 35.4131 85.6313 36.1046 85.6313L44.4426 85.6313C49.0322 85.6313 49.9723 83.6485 51.1177 79.4775L53.6218 70.1957C54.4592 67.4861 55.0833 66.0247 56.7501 64.982L50.0749 64.982C45.2799 64.982 43.5025 66.8621 42.3571 70.8197L40.1689 78.9562C39.3316 82.0844 39.0235 83.1272 36.2034 83.1272L36.1046 83.1272C35.4131 83.1272 34.8525 83.6877 34.8525 84.3792ZM77.8102 85.6313L86.0455 85.6313C86.7369 85.6313 87.2975 85.0707 87.2975 84.3792C87.2975 83.6877 86.7369 83.1272 86.0455 83.1272L85.9388 83.1272C83.2292 83.1272 82.8106 82.0844 81.9732 78.9562L79.7851 70.8197C78.6396 66.8541 76.9728 64.982 72.1699 64.982L65.5187 64.982C67.1855 66.0247 67.7856 67.3834 68.623 70.1957L71.1272 79.4775C72.1699 83.7512 73.1099 85.6313 77.8022 85.6313L77.8102 85.6313Z" fill="#7856FF"/>
<defs>
<filter id="filter0_dd_843_32127" x="0.0371094" y="0.0574341" width="122" height="124" filterUnits="userSpaceOnUse" color-interpolation-filters="sRGB">
<feFlood flood-opacity="0" result="BackgroundImageFix"/>
<feColorMatrix in="SourceAlpha" type="matrix" values="0 0 0 0 0 0 0 0 0 0 0 0 0 0 0 0 0 0 127 0" result="hardAlpha"/>
<feOffset/>
<feGaussianBlur stdDeviation="0.5"/>
<feColorMatrix type="matrix" values="0 0 0 0 0.0509804 0 0 0 0 0.0745098 0 0 0 0 0.105882 0 0 0 0.25 0"/>
<feBlend mode="normal" in2="BackgroundImageFix" result="effect1_dropShadow_843_32127"/>
<feColorMatrix in="SourceAlpha" type="matrix" values="0 0 0 0 0 0 0 0 0 0 0 0 0 0 0 0 0 0 127 0" result="hardAlpha"/>
<feOffset dy="2"/>
<feGaussianBlur stdDeviation="0.5"/>
<feColorMatrix type="matrix" values="0 0 0 0 0.0509804 0 0 0 0 0.0745098 0 0 0 0 0.105882 0 0 0 0.05 0"/>
<feBlend mode="normal" in2="effect1_dropShadow_843_32127" result="effect2_dropShadow_843_32127"/>
<feBlend mode="normal" in="SourceGraphic" in2="effect2_dropShadow_843_32127" result="shape"/>
</filter>
</defs>
</svg>
