<svg width="123" height="125" viewBox="0 0 123 125" fill="none" xmlns="http://www.w3.org/2000/svg">
<g filter="url(#filter0_dd_843_32118)">
<rect x="1.05713" y="1.86945" width="120" height="120" rx="40" fill="white"/>
</g>
<path fillRule="evenodd" clipRule="evenodd" d="M92.022 62.3206C92.022 61.2605 91.2752 60.377 90.269 60.1756C90.2632 60.1747 90.2574 60.1731 90.2508 60.1714C90.2392 60.1698 90.2276 60.1656 90.216 60.164L90.1753 60.1598C90.0684 60.1424 89.9598 60.1316 89.8488 60.13L89.5595 60.1026C82.6461 59.6078 75.5338 59.413 68.8616 59.2796L68.8483 59.2307C65.6009 47.05 61.5445 34.5966 56.075 34.5966C50.9784 34.6198 46.3841 42.8022 42.4164 58.9215C39.6133 58.8859 37.058 58.8469 34.6485 58.8055C34.5117 58.803 34.3891 58.8022 34.2797 58.8022C33.7658 58.8022 33.5146 58.8237 33.3903 58.8403C32.0335 59.0807 31.0488 60.2643 31.0488 61.6559C31.0488 63.0749 32.1081 64.2916 33.4881 64.4905L33.5163 64.5196L41.1168 64.5196C40.4115 67.7446 39.7931 70.934 39.2768 74.0065L39.0505 75.3592L39.048 75.4238C39.053 76.4673 39.9059 77.3161 40.9486 77.3161C41.61 77.3161 42.2092 76.9713 42.5515 76.4342L42.6054 76.4773L46.3419 64.5196L64.3394 64.5196C65.7145 69.7148 67.1409 75.079 69.0257 80.1134L69.0263 80.115C70.0345 82.808 72.3941 89.1106 76.3369 89.142L76.3817 89.142C82.4838 89.142 84.8629 79.2877 86.4386 72.7614L86.4397 72.7566C86.7779 71.3526 87.0705 70.1399 87.3465 69.2489L87.4567 68.8809L87.4559 68.8809C87.4824 68.7947 87.4965 68.7036 87.4965 68.6082C87.4965 68.0861 87.073 67.6625 86.5508 67.6625C86.1455 67.6625 85.8007 67.917 85.6656 68.275L85.6639 68.2742L85.5313 68.6406C85.0133 70.0745 84.5342 71.4305 84.1098 72.6323L84.0775 72.7226C81.436 80.2046 80.23 83.6195 77.8678 83.6203L77.8098 83.6194L77.7766 83.6244L77.7178 83.6228C74.6943 83.6228 71.8473 71.3321 70.7755 66.705L70.7754 66.7044L70.7346 66.5283C70.5648 65.7949 70.4083 65.1192 70.2632 64.5196L89.8148 64.5196C90.182 64.5196 90.5276 64.4275 90.831 64.2684C90.8326 64.2679 90.8339 64.2673 90.835 64.2668C90.8356 64.2665 90.8362 64.2662 90.8368 64.2659C90.859 64.2545 90.8803 64.2418 90.9017 64.2291L90.9018 64.229L90.9263 64.2145C90.9594 64.1955 90.9918 64.1764 91.0232 64.1557C91.0314 64.1505 91.0393 64.1452 91.0471 64.1397C91.0544 64.1346 91.0616 64.1294 91.0688 64.1242C91.1161 64.0919 91.1617 64.0579 91.2064 64.0214L91.211 64.0177L91.2155 64.014C91.7079 63.6103 92.022 62.9986 92.022 62.3206ZM55.7682 40.2511C56.0574 40.2511 56.3177 40.4094 56.5465 40.7111C57.1208 41.6021 58.113 43.6004 59.5809 48.0646C60.5854 51.1189 61.6812 54.9026 62.8407 59.317C58.442 59.249 53.992 59.1985 49.6828 59.1496L47.5004 59.1247C49.9654 49.4877 52.9733 42.174 55.1714 40.4475C55.3115 40.358 55.5295 40.2511 55.7682 40.2511Z" fill="#1E61F0"/>
<defs>
<filter id="filter0_dd_843_32118" x="0.0571289" y="0.869446" width="122" height="124" filterUnits="userSpaceOnUse" color-interpolation-filters="sRGB">
<feFlood flood-opacity="0" result="BackgroundImageFix"/>
<feColorMatrix in="SourceAlpha" type="matrix" values="0 0 0 0 0 0 0 0 0 0 0 0 0 0 0 0 0 0 127 0" result="hardAlpha"/>
<feOffset/>
<feGaussianBlur stdDeviation="0.5"/>
<feColorMatrix type="matrix" values="0 0 0 0 0.0509804 0 0 0 0 0.0745098 0 0 0 0 0.105882 0 0 0 0.25 0"/>
<feBlend mode="normal" in2="BackgroundImageFix" result="effect1_dropShadow_843_32118"/>
<feColorMatrix in="SourceAlpha" type="matrix" values="0 0 0 0 0 0 0 0 0 0 0 0 0 0 0 0 0 0 127 0" result="hardAlpha"/>
<feOffset dy="2"/>
<feGaussianBlur stdDeviation="0.5"/>
<feColorMatrix type="matrix" values="0 0 0 0 0.0509804 0 0 0 0 0.0745098 0 0 0 0 0.105882 0 0 0 0.05 0"/>
<feBlend mode="normal" in2="effect1_dropShadow_843_32118" result="effect2_dropShadow_843_32118"/>
<feBlend mode="normal" in="SourceGraphic" in2="effect2_dropShadow_843_32118" result="shape"/>
</filter>
</defs>
</svg>
