<svg width="126" height="33" viewBox="0 0 126 33" fill="none" xmlns="http://www.w3.org/2000/svg">
<g clip-path="url(#clip0_2086_44821)">
<path d="M48.1778 20.8069C45.9622 20.8069 44.3621 19.076 44.3621 16.7269C44.3621 14.3779 45.9622 12.6469 48.1778 12.6469C50.024 12.6469 51.4518 13.8339 51.8703 15.6142H54.5043C54.012 12.4739 51.5011 10.2979 48.1778 10.2979C44.4852 10.2979 41.7773 13.0179 41.7773 16.7269C41.7773 20.436 44.4852 23.156 48.1778 23.156C51.5011 23.156 54.012 20.98 54.5043 17.8397H51.8703C51.4518 19.5953 50.024 20.8069 48.1778 20.8069Z" fill="#151531"/>
<path d="M57.9746 22.9088L58.9839 20.4361H65.4828L66.4921 22.9088H69.1508L64.1043 10.5452H60.4117L55.3652 22.9088H57.9746ZM59.8948 18.2106L62.1103 12.7706H62.3565L64.572 18.2106H59.8948Z" fill="#151531"/>
<path d="M76.6564 20.807C74.6624 20.807 73.21 19.1997 73.21 16.9743V10.5452H70.748V16.9743C70.748 20.535 73.2592 23.1561 76.6564 23.1561C80.0535 23.1561 82.5644 20.535 82.5644 16.9743V10.5452H80.1027V16.9743C80.1027 19.1997 78.6503 20.807 76.6564 20.807Z" fill="#151531"/>
<path d="M91.3007 20.9306C89.2328 20.9306 87.8543 20.2382 87.8543 19.1997H85.3926C85.3926 21.5735 87.7558 23.156 91.3007 23.156C95.1409 23.156 97.2087 21.7466 97.2087 19.1255C97.2087 16.6033 95.4856 15.4906 91.4237 15.4906C89.0851 15.4906 88.1004 15.1197 88.1004 14.18C88.1004 13.092 89.2082 12.5233 91.3007 12.5233C93.2208 12.5233 94.5009 13.2157 94.5009 14.2542H96.9626C96.9626 11.8804 94.6978 10.2979 91.3007 10.2979C87.6081 10.2979 85.6387 11.6579 85.6387 14.18C85.6387 16.6775 87.3127 17.716 91.2022 17.716C93.6639 17.716 94.747 18.1364 94.747 19.1255C94.747 20.2877 93.5408 20.9306 91.3007 20.9306Z" fill="#151531"/>
<path d="M101.422 22.9088L102.431 20.4361H108.93L109.939 22.9088H112.598L107.552 10.5452H103.859L98.8125 22.9088H101.422ZM103.342 18.2106L105.558 12.7706H105.804L108.019 18.2106H103.342Z" fill="#151531"/>
<path d="M114.939 22.9088H124.786V20.6833H117.401V10.5452H114.939V22.9088Z" fill="#151531"/>
<path fillRule="evenodd" clipRule="evenodd" d="M15.9287 32.3633C24.7258 32.3633 31.8573 25.1999 31.8573 16.3633C31.8573 7.52672 24.7258 0.363281 15.9287 0.363281C7.1315 0.363281 0 7.52672 0 16.3633C0 25.1999 7.1315 32.3633 15.9287 32.3633ZM15.9287 26.382C21.4371 26.382 25.9027 21.8964 25.9027 16.3633C25.9027 10.8301 21.4371 6.3446 15.9287 6.3446C10.4202 6.3446 5.95463 10.8301 5.95463 16.3633C5.95463 21.8964 10.4202 26.382 15.9287 26.382Z" fill="#151531"/>
</g>
<defs>
<clipPath id="clip0_2086_44821">
<rect width="125.257" height="32" fill="white" transform="translate(0 0.363281)"/>
</clipPath>
</defs>
</svg>
