<svg width="138" height="38" viewBox="0 0 138 38" fill="none" xmlns="http://www.w3.org/2000/svg">
<g clip-path="url(#clip0_2081_40060)">
<path d="M53.1393 23.849C50.7165 23.8913 48.9336 22.029 48.8887 19.46C48.8439 16.8911 50.5607 14.9677 52.9836 14.9254C55.0026 14.8901 56.5867 16.1609 57.0783 18.0998L59.9588 18.0496C59.3605 14.6247 56.573 12.293 52.9387 12.3564C48.9006 12.4269 45.9913 15.4532 46.0621 19.5094C46.1329 23.5656 49.1461 26.4884 53.1842 26.4179C56.8185 26.3545 59.5229 23.9269 60.0013 20.4833L57.1208 20.5336C56.6967 22.4615 55.1584 23.8138 53.1393 23.849Z" fill="#151531"/>
<path d="M63.8947 25.9605L64.9512 23.2371L72.0583 23.113L73.2092 25.7979L76.1167 25.7472L70.3619 12.3228L66.3238 12.3933L61.0411 26.0103L63.8947 25.9605ZM65.9048 20.786L68.2238 14.7946L68.493 14.7899L71.0197 20.6967L65.9048 20.786Z" fill="#151531"/>
<path d="M84.2836 23.3054C82.103 23.3435 80.484 21.6135 80.4415 19.1798L80.3188 12.149L77.6265 12.196L77.7492 19.2268C77.8172 23.1207 80.6133 25.9392 84.3284 25.8743C88.0435 25.8095 90.7394 22.8952 90.6714 19.0012L90.5487 11.9705L87.8566 12.0174L87.9793 19.0482C88.0218 21.4819 86.4642 23.2673 84.2836 23.3054Z" fill="#151531"/>
<path d="M100.3 23.1611C98.0391 23.2005 96.5183 22.4697 96.4985 21.3339L93.8064 21.3809C93.8517 23.9769 96.4663 25.6624 100.343 25.5948C104.543 25.5215 106.777 23.9406 106.727 21.0743C106.679 18.316 104.773 17.1321 100.331 17.2096C97.7737 17.2543 96.6898 16.8674 96.6719 15.8399C96.6511 14.65 97.8517 14.0069 100.14 13.967C102.24 13.9303 103.653 14.6631 103.673 15.7988L106.365 15.7518C106.319 13.1558 103.813 11.4684 100.097 11.5333C96.0593 11.6038 93.9316 13.1286 93.9798 15.8868C94.0275 18.618 95.8779 19.7218 100.131 19.6476C102.823 19.6006 104.016 20.0396 104.035 21.1213C104.057 22.3922 102.75 23.1183 100.3 23.1611Z" fill="#151531"/>
<path d="M111.407 25.1312L112.464 22.4078L119.571 22.2837L120.722 24.9686L123.63 24.9178L117.875 11.4935L113.837 11.564L108.554 25.181L111.407 25.1312ZM113.418 19.9566L115.737 13.9653L116.006 13.9606L118.533 19.8674L113.418 19.9566Z" fill="#151531"/>
<path d="M126.19 24.8731L136.958 24.6852L136.916 22.2514L128.84 22.3924L128.646 11.3055L125.954 11.3524L126.19 24.8731Z" fill="#151531"/>
<path fillRule="evenodd" clipRule="evenodd" d="M18.0937 37.1024C27.7142 36.9345 35.3763 28.9646 35.2076 19.301C35.039 9.63753 27.1034 1.93984 17.4829 2.10776C7.86249 2.27569 0.200338 10.2456 0.369016 19.9092C0.537693 29.5727 8.47332 37.2704 18.0937 37.1024ZM17.9796 30.5614C24.0036 30.4562 28.8014 25.4657 28.6957 19.4147C28.5901 13.3637 23.6211 8.54368 17.5971 8.64883C11.5731 8.75398 6.77528 13.7445 6.8809 19.7955C6.98652 25.8465 11.9556 30.6665 17.9796 30.5614Z" fill="#C3D9F4"/>
</g>
<defs>
<clipPath id="clip0_2081_40060">
<rect width="137" height="35" fill="white" transform="translate(0.0635986 2.41182) rotate(-1)"/>
</clipPath>
</defs>
</svg>
