<svg width="24" height="24" viewBox="0 0 24 24" fill="none" xmlns="http://www.w3.org/2000/svg">
<path fillRule="evenodd" clipRule="evenodd" d="M19.9161 4.62594C20.0816 4.73628 20.1965 4.90783 20.2355 5.10287C20.2745 5.2979 20.2344 5.50044 20.1241 5.66594L11.1241 19.1659C11.0625 19.2582 10.9812 19.3356 10.8861 19.3927C10.791 19.4497 10.6844 19.485 10.5741 19.4959C10.4637 19.5068 10.3523 19.4931 10.2478 19.4557C10.1434 19.4184 10.0485 19.3584 9.97009 19.2799L3.97009 13.2799C3.83761 13.1378 3.76549 12.9497 3.76892 12.7554C3.77234 12.5611 3.85106 12.3757 3.98847 12.2383C4.12588 12.1009 4.31127 12.0222 4.50557 12.0188C4.69987 12.0153 4.88792 12.0875 5.03009 12.2199L10.3831 17.5729L18.8761 4.83394C18.9864 4.66845 19.158 4.55357 19.353 4.51457C19.5481 4.47556 19.7506 4.51562 19.9161 4.62594Z" fill="#151531" stroke="#151531" stroke-width="0.5"/>
</svg>
