<svg width="32" height="32" viewBox="0 0 32 32" fill="none" xmlns="http://www.w3.org/2000/svg">
<path fillRule="evenodd" clipRule="evenodd" d="M25.9321 11.264L21.8508 14.6667C22.0503 15.5453 22.0503 16.4574 21.8508 17.336L25.9321 20.736C26.6352 19.2564 27 17.6388 27 16.0007C27 14.3626 26.6352 12.745 25.9321 11.2654V11.264ZM20.7361 25.9334L17.3335 21.8507C16.4549 22.0502 15.5427 22.0502 14.6641 21.8507L11.2641 25.932C12.7437 26.6351 14.3613 26.9999 15.9995 26.9999C17.6376 26.9999 19.2552 26.6351 20.7348 25.932L20.7361 25.9334ZM6.06681 20.736L10.1495 17.3334C9.94995 16.4548 9.94995 15.5426 10.1495 14.664L6.06814 11.2667C5.36508 12.7463 5.0003 14.3639 5.0003 16.002C5.0003 17.6402 5.36508 19.2578 6.06814 20.7374L6.06681 20.736ZM11.2641 6.0667L14.6668 10.1494C15.5454 9.94983 16.4576 9.94983 17.3361 10.1494L20.7361 6.06803C19.2565 5.36496 17.639 5.00019 16.0008 5.00019C14.3627 5.00019 12.7451 5.36496 11.2655 6.06803L11.2641 6.0667ZM22.8068 4.92003C23.6733 5.4536 24.4743 6.0868 25.1935 6.8067C25.9127 7.52512 26.5455 8.32523 27.0788 9.1907C28.3353 11.239 29.0004 13.5951 29.0004 15.998C29.0004 18.401 28.3353 20.7571 27.0788 22.8054C26.5452 23.6718 25.912 24.4728 25.1921 25.192C24.4737 25.9113 23.6736 26.544 22.8081 27.0774C20.7597 28.3341 18.4034 28.9993 16.0001 28.9993C13.5969 28.9993 11.2406 28.3341 9.19214 27.0774C8.3266 26.5436 7.5265 25.9104 6.80814 25.1907C6.08841 24.4723 5.45522 23.6722 4.92148 22.8067C3.66473 20.7583 2.99951 18.4019 2.99951 15.9987C2.99951 13.5955 3.66473 11.2391 4.92148 9.1907C5.4552 8.32514 6.0884 7.52503 6.80814 6.8067C7.52648 6.08695 8.32659 5.45375 9.19214 4.92003C11.2404 3.66354 13.5965 2.99847 15.9995 2.99847C18.4024 2.99847 20.7585 3.66354 22.8068 4.92003ZM18.8281 13.1734C18.4107 12.7544 17.9051 12.4337 17.3481 12.2347C16.4763 11.9244 15.524 11.9244 14.6521 12.2347C14.0952 12.4337 13.5896 12.7544 13.1721 13.1734C12.7375 13.6067 12.4255 14.1134 12.2335 14.6534C11.9231 15.5252 11.9231 16.4775 12.2335 17.3494C12.4255 17.8894 12.7375 18.396 13.1721 18.8294C13.6055 19.264 14.1121 19.576 14.6521 19.768C15.5215 20.0787 16.4788 20.0787 17.3481 19.768C17.9051 19.569 18.4107 19.2483 18.8281 18.8294C19.2628 18.396 19.5748 17.8894 19.7668 17.3494C20.077 16.4775 20.077 15.5253 19.7668 14.6534C19.5678 14.0964 19.2471 13.5908 18.8281 13.1734Z" fill="#5F2700"/>
</svg>
