<svg width="159" height="32" viewBox="0 0 159 32" fill="none" xmlns="http://www.w3.org/2000/svg">
<g clip-path="url(#clip0_2086_44612)">
<path d="M24 0L8 0C3.58172 0 0 3.58172 0 8L0 24C0 28.4183 3.58172 32 8 32H24C28.4183 32 32 28.4183 32 24V8C32 3.58172 28.4183 0 24 0Z" fill="#151531"/>
<path fillRule="evenodd" clipRule="evenodd" d="M20.4075 14.0069C20.4553 13.9951 20.5002 13.9735 20.5393 13.9435C20.5785 13.9136 20.611 13.876 20.635 13.8329C20.659 13.7899 20.6739 13.7424 20.6788 13.6934C20.6837 13.6444 20.6785 13.5949 20.6635 13.5479C20.2454 12.3081 19.4357 11.2377 18.3565 10.4979C17.1688 9.68391 15.7301 9.31936 14.2981 9.46962C12.8661 9.61988 11.5344 10.2751 10.5415 11.3179C9.80092 12.0957 9.28154 13.0572 9.03711 14.1029C8.79268 15.1487 8.83207 16.2408 9.15122 17.2662C9.47036 18.2917 10.0577 19.2132 10.8524 19.9356C11.6471 20.6579 12.6204 21.1549 13.6715 21.375C14.711 21.5952 15.7901 21.5384 16.8007 21.2102C17.8113 20.882 18.7178 20.2939 19.4295 19.505L24.6565 21.524L24.6635 21.507C24.7674 21.5369 24.8788 21.5269 24.9756 21.4787C25.0725 21.4306 25.1477 21.3479 25.1865 21.247L25.6515 20.04C25.6879 19.9456 25.6899 19.8415 25.6572 19.7459C25.6245 19.6502 25.5591 19.5692 25.4725 19.517L25.4755 19.509L24.6455 19.193L20.1855 17.4839L20.1745 17.4799L18.9475 17.01C18.921 16.9999 18.8935 16.9925 18.8655 16.988L18.8515 16.983L18.8495 16.985C18.7519 16.9747 18.6534 16.9945 18.5673 17.0417C18.4812 17.0889 18.4115 17.1612 18.3675 17.249C18.0661 17.8258 17.6243 18.3176 17.0829 18.679C16.5415 19.0404 15.9179 19.2597 15.2696 19.3169C14.6212 19.3741 13.9688 19.2672 13.3725 19.0061C12.7763 18.7451 12.2553 18.3382 11.8575 17.823C11.2968 17.0936 11.0152 16.1879 11.0637 15.2692C11.1121 14.3505 11.4873 13.4793 12.1215 12.8129C12.5703 12.3411 13.1307 11.99 13.751 11.792C14.3713 11.594 15.0315 11.5555 15.6707 11.6801C16.3098 11.8047 16.9072 12.0883 17.4077 12.5048C17.9083 12.9212 18.2958 13.4571 18.5345 14.0629C18.6215 14.2839 18.8565 14.4219 19.0865 14.3599L20.4075 14.0069Z" fill="white"/>
<mask id="mask0_2086_44612" style="mask-type:luminance" maskUnits="userSpaceOnUse" x="8" y="9" width="18" height="13">
<path fillRule="evenodd" clipRule="evenodd" d="M20.4075 14.0069C20.4553 13.9951 20.5002 13.9735 20.5393 13.9435C20.5785 13.9136 20.611 13.876 20.635 13.8329C20.659 13.7899 20.6739 13.7424 20.6788 13.6934C20.6837 13.6444 20.6785 13.5949 20.6635 13.5479C20.2454 12.3081 19.4357 11.2377 18.3565 10.4979C17.1688 9.68391 15.7301 9.31936 14.2981 9.46962C12.8661 9.61988 11.5344 10.2751 10.5415 11.3179C9.80092 12.0957 9.28154 13.0572 9.03711 14.1029C8.79268 15.1487 8.83207 16.2408 9.15122 17.2662C9.47036 18.2917 10.0577 19.2132 10.8524 19.9356C11.6471 20.6579 12.6204 21.1549 13.6715 21.375C14.711 21.5952 15.7901 21.5384 16.8007 21.2102C17.8113 20.882 18.7178 20.2939 19.4295 19.505L24.6565 21.524L24.6635 21.507C24.7674 21.5369 24.8788 21.5269 24.9756 21.4787C25.0725 21.4306 25.1477 21.3479 25.1865 21.247L25.6515 20.04C25.6879 19.9456 25.6899 19.8415 25.6572 19.7459C25.6245 19.6502 25.5591 19.5692 25.4725 19.517L25.4755 19.509L24.6455 19.193L20.1855 17.4839L20.1745 17.4799L18.9475 17.01C18.921 16.9999 18.8935 16.9925 18.8655 16.988L18.8515 16.983L18.8495 16.985C18.7519 16.9747 18.6534 16.9945 18.5673 17.0417C18.4812 17.0889 18.4115 17.1612 18.3675 17.249C18.0661 17.8258 17.6243 18.3176 17.0829 18.679C16.5415 19.0404 15.9179 19.2597 15.2696 19.3169C14.6212 19.3741 13.9688 19.2672 13.3725 19.0061C12.7763 18.7451 12.2553 18.3382 11.8575 17.823C11.2968 17.0936 11.0152 16.1879 11.0637 15.2692C11.1121 14.3505 11.4873 13.4793 12.1215 12.8129C12.5703 12.3411 13.1307 11.99 13.751 11.792C14.3713 11.594 15.0315 11.5555 15.6707 11.6801C16.3098 11.8047 16.9072 12.0883 17.4077 12.5048C17.9083 12.9212 18.2958 13.4571 18.5345 14.0629C18.6215 14.2839 18.8565 14.4219 19.0865 14.3599L20.4075 14.0069Z" fill="white"/>
</mask>
<g mask="url(#mask0_2086_44612)">
<path d="M20.4082 14.0081L20.3682 13.8531L20.4082 14.0071V14.0081ZM14.2982 9.46906L14.2812 9.31006L14.2982 9.47006V9.46906ZM19.4302 19.5061L19.4882 19.3561L19.3852 19.3161L19.3112 19.3991L19.4302 19.5061ZM24.6572 21.5241L24.5992 21.6741L24.7462 21.7301L24.8052 21.5841L24.6572 21.5241ZM24.6642 21.5071L24.7082 21.3531L24.5702 21.3131L24.5152 21.4461L24.6642 21.5071ZM25.4732 19.5171L25.3252 19.4571L25.2732 19.5831L25.3902 19.6531L25.4732 19.5171ZM25.4762 19.5091L25.6242 19.5691L25.6862 19.4191L25.5332 19.3591L25.4762 19.5091ZM20.1862 17.4841L20.1262 17.6341H20.1282L20.1862 17.4841ZM20.1752 17.4801L20.2342 17.3311H20.2322L20.1752 17.4811V17.4801ZM18.8662 16.9881L18.8092 17.1381L18.8232 17.1431L18.8392 17.1451L18.8662 16.9881ZM18.8522 16.9831L18.9092 16.8331L18.7822 16.7851L18.7132 16.9021L18.8522 16.9831ZM18.8502 16.9851L18.8302 17.1441L18.9352 17.1581L18.9882 17.0661L18.8502 16.9851ZM11.0642 15.2701L10.9042 15.2611L11.0642 15.2691V15.2701ZM20.5132 13.6001C20.521 13.6262 20.5234 13.6537 20.5202 13.6808C20.517 13.7078 20.5083 13.734 20.4946 13.7576C20.4809 13.7812 20.4626 13.8018 20.4407 13.818C20.4187 13.8343 20.3937 13.8458 20.3672 13.8521L20.4502 14.1621C20.5191 14.1445 20.5837 14.113 20.64 14.0694C20.6963 14.0259 20.743 13.9712 20.7773 13.9089C20.8116 13.8466 20.8328 13.7779 20.8395 13.707C20.8461 13.6362 20.8382 13.5647 20.8162 13.4971L20.5132 13.6001ZM18.2662 10.6301C19.3173 11.3503 20.1059 12.3927 20.5132 13.6001L20.8162 13.4971C20.3867 12.2242 19.5553 11.1254 18.4472 10.3661L18.2672 10.6301H18.2662ZM14.3152 9.62806C15.7094 9.48208 17.11 9.83729 18.2662 10.6301L18.4472 10.3661C17.2281 9.53025 15.7512 9.15589 14.2812 9.31006L14.3152 9.62806ZM10.6582 11.4281C11.6244 10.4123 12.9209 9.77414 14.3152 9.62806L14.2812 9.31006C12.8115 9.464 11.4448 10.1365 10.4262 11.2071L10.6582 11.4271V11.4281ZM9.04917 15.1641C9.12303 13.7663 9.69404 12.4409 10.6592 11.4271L10.4262 11.2071C9.40887 12.2761 8.80702 13.6734 8.72917 15.1471L9.04917 15.1641ZM10.2582 19.0481C9.40481 17.939 8.97601 16.5615 9.04917 15.1641L8.72917 15.1471C8.652 16.6208 9.10421 18.0735 10.0042 19.2431L10.2582 19.0481ZM13.7062 21.2181C12.3353 20.9278 11.1129 20.1584 10.2582 19.0481L10.0042 19.2431C10.9051 20.4141 12.1939 21.2256 13.6392 21.5321L13.7062 21.2181ZM17.7412 20.6351C16.5083 21.3029 15.0778 21.509 13.7062 21.2181L13.6392 21.5321C15.0853 21.8386 16.5934 21.6202 17.8932 20.9161L17.7412 20.6351ZM19.3112 19.3991C18.8621 19.8975 18.3311 20.3156 17.7412 20.6351L17.8932 20.9161C18.5154 20.5793 19.0755 20.1386 19.5492 19.6131L19.3112 19.3991ZM19.3722 19.6551L24.5992 21.6741L24.7142 21.3751L19.4872 19.3571L19.3722 19.6551ZM24.8052 21.5841L24.8122 21.5671L24.5152 21.4471L24.5082 21.4641L24.8052 21.5841ZM25.0382 21.1901C25.0136 21.2536 24.966 21.3057 24.9049 21.3359C24.8438 21.366 24.7736 21.3722 24.7082 21.3531L24.6182 21.6601C24.7607 21.7019 24.9137 21.6886 25.0469 21.6228C25.1801 21.5571 25.2837 21.4437 25.3372 21.3051L25.0382 21.1901ZM25.5032 19.9821L25.0382 21.1901L25.3372 21.3051L25.8012 20.0971L25.5032 19.9821ZM25.3902 19.6531C25.4445 19.6858 25.4857 19.7375 25.5063 19.7975C25.527 19.8575 25.5259 19.9228 25.5032 19.9821L25.8012 20.0971C25.851 19.9678 25.8538 19.8251 25.809 19.694C25.7642 19.5629 25.6747 19.4518 25.5562 19.3801L25.3902 19.6531ZM25.6212 19.5771L25.6242 19.5691L25.3282 19.4491L25.3252 19.4561L25.6212 19.5771ZM25.5332 19.3601L24.7032 19.0441L24.5902 19.3431L25.4202 19.6591L25.5332 19.3591V19.3601ZM20.1282 17.6341L24.5902 19.3421L24.7032 19.0441L20.2432 17.3351L20.1282 17.6341ZM20.1162 17.6291L20.1262 17.6331L20.2452 17.3361L20.2342 17.3311L20.1162 17.6291ZM18.8912 17.1591L20.1162 17.6291L20.2322 17.3311L19.0062 16.8611L18.8912 17.1591ZM18.8392 17.1451C18.8569 17.1484 18.8744 17.1524 18.8912 17.1591L19.0062 16.8611C18.9696 16.847 18.9308 16.8366 18.8922 16.8301L18.8392 17.1451ZM18.9232 16.8381L18.9092 16.8331L18.7952 17.1321L18.8092 17.1371L18.9232 16.8381ZM18.7132 16.9021L18.7122 16.9051L18.9882 17.0661L18.9902 17.0631L18.7132 16.9021ZM18.5102 17.3221C18.5392 17.2635 18.5854 17.2151 18.6425 17.1833C18.6996 17.1516 18.7651 17.1379 18.8302 17.1441L18.8712 16.8271C18.741 16.8125 18.6095 16.838 18.4942 16.9002C18.379 16.9624 18.2854 17.0583 18.2262 17.1751L18.5102 17.3221ZM16.8542 19.0061C17.5621 18.6229 18.1389 18.0363 18.5102 17.3221L18.2262 17.1751C17.8845 17.8324 17.3536 18.3723 16.7022 18.7251L16.8542 19.0061ZM14.0922 19.4071C15.0311 19.6061 16.0103 19.4633 16.8542 19.0061L16.7022 18.7251C15.925 19.1455 15.0235 19.2766 14.1592 19.0931L14.0922 19.4071ZM11.7322 17.9211C12.3171 18.6813 13.1538 19.2081 14.0922 19.4071L14.1592 19.0931C13.2953 18.9104 12.5249 18.4257 11.9862 17.7261L11.7322 17.9211ZM10.9042 15.2611C10.8542 16.2181 11.1472 17.1611 11.7322 17.9211L11.9862 17.7261C11.4482 17.0271 11.1779 16.1588 11.2242 15.2781L10.9042 15.2611ZM12.0062 12.7021C11.3455 13.3964 10.9546 14.304 10.9042 15.2611L11.2242 15.2781C11.2705 14.3973 11.6301 13.562 12.2382 12.9231L12.0062 12.7031V12.7021ZM14.5092 11.4711C13.5542 11.5711 12.6672 12.0081 12.0062 12.7021L12.2382 12.9221C12.8471 12.2826 13.6639 11.8809 14.5422 11.7891L14.5092 11.4711ZM17.2142 12.1561C16.4225 11.6136 15.4636 11.3708 14.5092 11.4711L14.5422 11.7891C15.4208 11.697 16.3045 11.9207 17.0332 12.4201L17.2142 12.1561ZM18.6852 14.0041C18.391 13.2549 17.878 12.6112 17.2142 12.1561L17.0332 12.4201C17.6441 12.839 18.1154 13.4315 18.3862 14.1211L18.6852 14.0041ZM19.0462 14.2061C18.9042 14.2441 18.7472 14.1601 18.6852 14.0041L18.3862 14.1211C18.4992 14.4081 18.8092 14.6011 19.1292 14.5151L19.0462 14.2051V14.2061ZM20.3672 13.8521L19.0462 14.2061L19.1292 14.5151L20.4502 14.1621L20.3672 13.8521Z" fill="white"/>
</g>
<mask id="mask1_2086_44612" style="mask-type:luminance" maskUnits="userSpaceOnUse" x="8" y="9" width="18" height="13">
<path fillRule="evenodd" clipRule="evenodd" d="M20.4075 14.0069C20.4553 13.9951 20.5002 13.9735 20.5393 13.9435C20.5785 13.9136 20.611 13.876 20.635 13.8329C20.659 13.7899 20.6739 13.7424 20.6788 13.6934C20.6837 13.6444 20.6785 13.5949 20.6635 13.5479C20.2454 12.3081 19.4357 11.2377 18.3565 10.4979C17.1688 9.68391 15.7301 9.31936 14.2981 9.46962C12.8661 9.61988 11.5344 10.2751 10.5415 11.3179C9.80092 12.0957 9.28154 13.0572 9.03711 14.1029C8.79268 15.1487 8.83207 16.2408 9.15122 17.2662C9.47036 18.2917 10.0577 19.2132 10.8524 19.9356C11.6471 20.6579 12.6204 21.1549 13.6715 21.375C14.711 21.5952 15.7901 21.5384 16.8007 21.2102C17.8113 20.882 18.7178 20.2939 19.4295 19.505L24.6565 21.524L24.6635 21.507C24.7674 21.5369 24.8788 21.5269 24.9756 21.4787C25.0725 21.4306 25.1477 21.3479 25.1865 21.247L25.6515 20.04C25.6879 19.9456 25.6899 19.8415 25.6572 19.7459C25.6245 19.6502 25.5591 19.5692 25.4725 19.517L25.4755 19.509L24.6455 19.193L20.1855 17.4839L20.1745 17.4799L18.9475 17.01C18.921 16.9999 18.8935 16.9925 18.8655 16.988L18.8515 16.983L18.8495 16.985C18.7519 16.9747 18.6534 16.9945 18.5673 17.0417C18.4812 17.0889 18.4115 17.1612 18.3675 17.249C18.0661 17.8258 17.6243 18.3176 17.0829 18.679C16.5415 19.0404 15.9179 19.2597 15.2696 19.3169C14.6212 19.3741 13.9688 19.2672 13.3725 19.0061C12.7763 18.7451 12.2553 18.3382 11.8575 17.823C11.2968 17.0936 11.0152 16.1879 11.0637 15.2692C11.1121 14.3505 11.4873 13.4793 12.1215 12.8129C12.5703 12.3411 13.1307 11.99 13.751 11.792C14.3713 11.594 15.0315 11.5555 15.6707 11.6801C16.3098 11.8047 16.9072 12.0883 17.4077 12.5048C17.9083 12.9212 18.2958 13.4571 18.5345 14.0629C18.6215 14.2839 18.8565 14.4219 19.0865 14.3599L20.4075 14.0069Z" fill="white"/>
</mask>
<g mask="url(#mask1_2086_44612)">
<path d="M20.4082 14.0081L20.3682 13.8531L20.4082 14.0071V14.0081ZM14.2982 9.46906L14.2812 9.31006L14.2982 9.47006V9.46906ZM19.4302 19.5061L19.4882 19.3561L19.3852 19.3161L19.3112 19.3991L19.4302 19.5061ZM24.6572 21.5241L24.5992 21.6741L24.7462 21.7301L24.8052 21.5841L24.6572 21.5241ZM24.6642 21.5071L24.7082 21.3531L24.5702 21.3131L24.5152 21.4461L24.6642 21.5071ZM25.4732 19.5171L25.3252 19.4571L25.2732 19.5831L25.3902 19.6531L25.4732 19.5171ZM25.4762 19.5091L25.6242 19.5691L25.6862 19.4191L25.5332 19.3591L25.4762 19.5091ZM20.1862 17.4841L20.1262 17.6341H20.1282L20.1862 17.4841ZM20.1752 17.4801L20.2342 17.3311H20.2322L20.1752 17.4811V17.4801ZM18.8662 16.9881L18.8092 17.1381L18.8232 17.1431L18.8392 17.1451L18.8662 16.9881ZM18.8522 16.9831L18.9092 16.8331L18.7822 16.7851L18.7132 16.9021L18.8522 16.9831ZM18.8502 16.9851L18.8302 17.1441L18.9352 17.1581L18.9882 17.0661L18.8502 16.9851ZM11.0642 15.2701L10.9042 15.2611L11.0642 15.2691V15.2701ZM20.5132 13.6001C20.521 13.6262 20.5234 13.6537 20.5202 13.6808C20.517 13.7078 20.5083 13.734 20.4946 13.7576C20.4809 13.7812 20.4626 13.8018 20.4407 13.818C20.4187 13.8343 20.3937 13.8458 20.3672 13.8521L20.4502 14.1621C20.5191 14.1445 20.5837 14.113 20.64 14.0694C20.6963 14.0259 20.743 13.9712 20.7773 13.9089C20.8116 13.8466 20.8328 13.7779 20.8395 13.707C20.8461 13.6362 20.8382 13.5647 20.8162 13.4971L20.5132 13.6001ZM18.2662 10.6301C19.3173 11.3503 20.1059 12.3927 20.5132 13.6001L20.8162 13.4971C20.3867 12.2242 19.5553 11.1254 18.4472 10.3661L18.2672 10.6301H18.2662ZM14.3152 9.62806C15.7094 9.48208 17.11 9.83729 18.2662 10.6301L18.4472 10.3661C17.2281 9.53025 15.7512 9.15589 14.2812 9.31006L14.3152 9.62806ZM10.6582 11.4281C11.6244 10.4123 12.9209 9.77414 14.3152 9.62806L14.2812 9.31006C12.8115 9.464 11.4448 10.1365 10.4262 11.2071L10.6582 11.4271V11.4281ZM9.04917 15.1641C9.12303 13.7663 9.69404 12.4409 10.6592 11.4271L10.4262 11.2071C9.40887 12.2761 8.80702 13.6734 8.72917 15.1471L9.04917 15.1641ZM10.2582 19.0481C9.40481 17.939 8.97601 16.5615 9.04917 15.1641L8.72917 15.1471C8.652 16.6208 9.10421 18.0735 10.0042 19.2431L10.2582 19.0481ZM13.7062 21.2181C12.3353 20.9278 11.1129 20.1584 10.2582 19.0481L10.0042 19.2431C10.9051 20.4141 12.1939 21.2256 13.6392 21.5321L13.7062 21.2181ZM17.7412 20.6351C16.5083 21.3029 15.0778 21.509 13.7062 21.2181L13.6392 21.5321C15.0853 21.8386 16.5934 21.6202 17.8932 20.9161L17.7412 20.6351ZM19.3112 19.3991C18.8621 19.8975 18.3311 20.3156 17.7412 20.6351L17.8932 20.9161C18.5154 20.5793 19.0755 20.1386 19.5492 19.6131L19.3112 19.3991ZM19.3722 19.6551L24.5992 21.6741L24.7142 21.3751L19.4872 19.3571L19.3722 19.6551ZM24.8052 21.5841L24.8122 21.5671L24.5152 21.4471L24.5082 21.4641L24.8052 21.5841ZM25.0382 21.1901C25.0136 21.2536 24.966 21.3057 24.9049 21.3359C24.8438 21.366 24.7736 21.3722 24.7082 21.3531L24.6182 21.6601C24.7607 21.7019 24.9137 21.6886 25.0469 21.6228C25.1801 21.5571 25.2837 21.4437 25.3372 21.3051L25.0382 21.1901ZM25.5032 19.9821L25.0382 21.1901L25.3372 21.3051L25.8012 20.0971L25.5032 19.9821ZM25.3902 19.6531C25.4445 19.6858 25.4857 19.7375 25.5063 19.7975C25.527 19.8575 25.5259 19.9228 25.5032 19.9821L25.8012 20.0971C25.851 19.9678 25.8538 19.8251 25.809 19.694C25.7642 19.5629 25.6747 19.4518 25.5562 19.3801L25.3902 19.6531ZM25.6212 19.5771L25.6242 19.5691L25.3282 19.4491L25.3252 19.4561L25.6212 19.5771ZM25.5332 19.3601L24.7032 19.0441L24.5902 19.3431L25.4202 19.6591L25.5332 19.3591V19.3601ZM20.1282 17.6341L24.5902 19.3421L24.7032 19.0441L20.2432 17.3351L20.1282 17.6341ZM20.1162 17.6291L20.1262 17.6331L20.2452 17.3361L20.2342 17.3311L20.1162 17.6291ZM18.8912 17.1591L20.1162 17.6291L20.2322 17.3311L19.0062 16.8611L18.8912 17.1591ZM18.8392 17.1451C18.8569 17.1484 18.8744 17.1524 18.8912 17.1591L19.0062 16.8611C18.9696 16.847 18.9308 16.8366 18.8922 16.8301L18.8392 17.1451ZM18.9232 16.8381L18.9092 16.8331L18.7952 17.1321L18.8092 17.1371L18.9232 16.8381ZM18.7132 16.9021L18.7122 16.9051L18.9882 17.0661L18.9902 17.0631L18.7132 16.9021ZM18.5102 17.3221C18.5392 17.2635 18.5854 17.2151 18.6425 17.1833C18.6996 17.1516 18.7651 17.1379 18.8302 17.1441L18.8712 16.8271C18.741 16.8125 18.6095 16.838 18.4942 16.9002C18.379 16.9624 18.2854 17.0583 18.2262 17.1751L18.5102 17.3221ZM16.8542 19.0061C17.5621 18.6229 18.1389 18.0363 18.5102 17.3221L18.2262 17.1751C17.8845 17.8324 17.3536 18.3723 16.7022 18.7251L16.8542 19.0061ZM14.0922 19.4071C15.0311 19.6061 16.0103 19.4633 16.8542 19.0061L16.7022 18.7251C15.925 19.1455 15.0235 19.2766 14.1592 19.0931L14.0922 19.4071ZM11.7322 17.9211C12.3171 18.6813 13.1538 19.2081 14.0922 19.4071L14.1592 19.0931C13.2953 18.9104 12.5249 18.4257 11.9862 17.7261L11.7322 17.9211ZM10.9042 15.2611C10.8542 16.2181 11.1472 17.1611 11.7322 17.9211L11.9862 17.7261C11.4482 17.0271 11.1779 16.1588 11.2242 15.2781L10.9042 15.2611ZM12.0062 12.7021C11.3455 13.3964 10.9546 14.304 10.9042 15.2611L11.2242 15.2781C11.2705 14.3973 11.6301 13.562 12.2382 12.9231L12.0062 12.7031V12.7021ZM14.5092 11.4711C13.5542 11.5711 12.6672 12.0081 12.0062 12.7021L12.2382 12.9221C12.8471 12.2826 13.6639 11.8809 14.5422 11.7891L14.5092 11.4711ZM17.2142 12.1561C16.4225 11.6136 15.4636 11.3708 14.5092 11.4711L14.5422 11.7891C15.4208 11.697 16.3045 11.9207 17.0332 12.4201L17.2142 12.1561ZM18.6852 14.0041C18.391 13.2549 17.878 12.6112 17.2142 12.1561L17.0332 12.4201C17.6441 12.839 18.1154 13.4315 18.3862 14.1211L18.6852 14.0041ZM19.0462 14.2061C18.9042 14.2441 18.7472 14.1601 18.6852 14.0041L18.3862 14.1211C18.4992 14.4081 18.8092 14.6011 19.1292 14.5151L19.0462 14.2051V14.2061ZM20.3672 13.8521L19.0462 14.2061L19.1292 14.5151L20.4502 14.1621L20.3672 13.8521Z" fill="white"/>
</g>
<mask id="mask2_2086_44612" style="mask-type:luminance" maskUnits="userSpaceOnUse" x="8" y="9" width="18" height="13">
<path fillRule="evenodd" clipRule="evenodd" d="M20.4075 14.0069C20.4553 13.9951 20.5002 13.9735 20.5393 13.9435C20.5785 13.9136 20.611 13.876 20.635 13.8329C20.659 13.7899 20.6739 13.7424 20.6788 13.6934C20.6837 13.6444 20.6785 13.5949 20.6635 13.5479C20.2454 12.3081 19.4357 11.2377 18.3565 10.4979C17.1688 9.68391 15.7301 9.31936 14.2981 9.46962C12.8661 9.61988 11.5344 10.2751 10.5415 11.3179C9.80092 12.0957 9.28154 13.0572 9.03711 14.1029C8.79268 15.1487 8.83207 16.2408 9.15122 17.2662C9.47036 18.2917 10.0577 19.2132 10.8524 19.9356C11.6471 20.6579 12.6204 21.1549 13.6715 21.375C14.711 21.5952 15.7901 21.5384 16.8007 21.2102C17.8113 20.882 18.7178 20.2939 19.4295 19.505L24.6565 21.524L24.6635 21.507C24.7674 21.5369 24.8788 21.5269 24.9756 21.4787C25.0725 21.4306 25.1477 21.3479 25.1865 21.247L25.6515 20.04C25.6879 19.9456 25.6899 19.8415 25.6572 19.7459C25.6245 19.6502 25.5591 19.5692 25.4725 19.517L25.4755 19.509L24.6455 19.193L20.1855 17.4839L20.1745 17.4799L18.9475 17.01C18.921 16.9999 18.8935 16.9925 18.8655 16.988L18.8515 16.983L18.8495 16.985C18.7519 16.9747 18.6534 16.9945 18.5673 17.0417C18.4812 17.0889 18.4115 17.1612 18.3675 17.249C18.0661 17.8258 17.6243 18.3176 17.0829 18.679C16.5415 19.0404 15.9179 19.2597 15.2696 19.3169C14.6212 19.3741 13.9688 19.2672 13.3725 19.0061C12.7763 18.7451 12.2553 18.3382 11.8575 17.823C11.2968 17.0936 11.0152 16.1879 11.0637 15.2692C11.1121 14.3505 11.4873 13.4793 12.1215 12.8129C12.5703 12.3411 13.1307 11.99 13.751 11.792C14.3713 11.594 15.0315 11.5555 15.6707 11.6801C16.3098 11.8047 16.9072 12.0883 17.4077 12.5048C17.9083 12.9212 18.2958 13.4571 18.5345 14.0629C18.6215 14.2839 18.8565 14.4219 19.0865 14.3599L20.4075 14.0069Z" fill="white"/>
</mask>
<g mask="url(#mask2_2086_44612)">
<path d="M20.4082 14.0081L20.3682 13.8531L20.4082 14.0071V14.0081ZM14.2982 9.46906L14.2812 9.31006L14.2982 9.47006V9.46906ZM19.4302 19.5061L19.4882 19.3561L19.3852 19.3161L19.3112 19.3991L19.4302 19.5061ZM24.6572 21.5241L24.5992 21.6741L24.7462 21.7301L24.8052 21.5841L24.6572 21.5241ZM24.6642 21.5071L24.7082 21.3531L24.5702 21.3131L24.5152 21.4461L24.6642 21.5071ZM25.4732 19.5171L25.3252 19.4571L25.2732 19.5831L25.3902 19.6531L25.4732 19.5171ZM25.4762 19.5091L25.6242 19.5691L25.6862 19.4191L25.5332 19.3591L25.4762 19.5091ZM20.1862 17.4841L20.1262 17.6341H20.1282L20.1862 17.4841ZM20.1752 17.4801L20.2342 17.3311H20.2322L20.1752 17.4811V17.4801ZM18.8662 16.9881L18.8092 17.1381L18.8232 17.1431L18.8392 17.1451L18.8662 16.9881ZM18.8522 16.9831L18.9092 16.8331L18.7822 16.7851L18.7132 16.9021L18.8522 16.9831ZM18.8502 16.9851L18.8302 17.1441L18.9352 17.1581L18.9882 17.0661L18.8502 16.9851ZM11.0642 15.2701L10.9042 15.2611L11.0642 15.2691V15.2701ZM20.5132 13.6001C20.521 13.6262 20.5234 13.6537 20.5202 13.6808C20.517 13.7078 20.5083 13.734 20.4946 13.7576C20.4809 13.7812 20.4626 13.8018 20.4407 13.818C20.4187 13.8343 20.3937 13.8458 20.3672 13.8521L20.4502 14.1621C20.5191 14.1445 20.5837 14.113 20.64 14.0694C20.6963 14.0259 20.743 13.9712 20.7773 13.9089C20.8116 13.8466 20.8328 13.7779 20.8395 13.707C20.8461 13.6362 20.8382 13.5647 20.8162 13.4971L20.5132 13.6001ZM18.2662 10.6301C19.3173 11.3503 20.1059 12.3927 20.5132 13.6001L20.8162 13.4971C20.3867 12.2242 19.5553 11.1254 18.4472 10.3661L18.2672 10.6301H18.2662ZM14.3152 9.62806C15.7094 9.48208 17.11 9.83729 18.2662 10.6301L18.4472 10.3661C17.2281 9.53025 15.7512 9.15589 14.2812 9.31006L14.3152 9.62806ZM10.6582 11.4281C11.6244 10.4123 12.9209 9.77414 14.3152 9.62806L14.2812 9.31006C12.8115 9.464 11.4448 10.1365 10.4262 11.2071L10.6582 11.4271V11.4281ZM9.04917 15.1641C9.12303 13.7663 9.69404 12.4409 10.6592 11.4271L10.4262 11.2071C9.40887 12.2761 8.80702 13.6734 8.72917 15.1471L9.04917 15.1641ZM10.2582 19.0481C9.40481 17.939 8.97601 16.5615 9.04917 15.1641L8.72917 15.1471C8.652 16.6208 9.10421 18.0735 10.0042 19.2431L10.2582 19.0481ZM13.7062 21.2181C12.3353 20.9278 11.1129 20.1584 10.2582 19.0481L10.0042 19.2431C10.9051 20.4141 12.1939 21.2256 13.6392 21.5321L13.7062 21.2181ZM17.7412 20.6351C16.5083 21.3029 15.0778 21.509 13.7062 21.2181L13.6392 21.5321C15.0853 21.8386 16.5934 21.6202 17.8932 20.9161L17.7412 20.6351ZM19.3112 19.3991C18.8621 19.8975 18.3311 20.3156 17.7412 20.6351L17.8932 20.9161C18.5154 20.5793 19.0755 20.1386 19.5492 19.6131L19.3112 19.3991ZM19.3722 19.6551L24.5992 21.6741L24.7142 21.3751L19.4872 19.3571L19.3722 19.6551ZM24.8052 21.5841L24.8122 21.5671L24.5152 21.4471L24.5082 21.4641L24.8052 21.5841ZM25.0382 21.1901C25.0136 21.2536 24.966 21.3057 24.9049 21.3359C24.8438 21.366 24.7736 21.3722 24.7082 21.3531L24.6182 21.6601C24.7607 21.7019 24.9137 21.6886 25.0469 21.6228C25.1801 21.5571 25.2837 21.4437 25.3372 21.3051L25.0382 21.1901ZM25.5032 19.9821L25.0382 21.1901L25.3372 21.3051L25.8012 20.0971L25.5032 19.9821ZM25.3902 19.6531C25.4445 19.6858 25.4857 19.7375 25.5063 19.7975C25.527 19.8575 25.5259 19.9228 25.5032 19.9821L25.8012 20.0971C25.851 19.9678 25.8538 19.8251 25.809 19.694C25.7642 19.5629 25.6747 19.4518 25.5562 19.3801L25.3902 19.6531ZM25.6212 19.5771L25.6242 19.5691L25.3282 19.4491L25.3252 19.4561L25.6212 19.5771ZM25.5332 19.3601L24.7032 19.0441L24.5902 19.3431L25.4202 19.6591L25.5332 19.3591V19.3601ZM20.1282 17.6341L24.5902 19.3421L24.7032 19.0441L20.2432 17.3351L20.1282 17.6341ZM20.1162 17.6291L20.1262 17.6331L20.2452 17.3361L20.2342 17.3311L20.1162 17.6291ZM18.8912 17.1591L20.1162 17.6291L20.2322 17.3311L19.0062 16.8611L18.8912 17.1591ZM18.8392 17.1451C18.8569 17.1484 18.8744 17.1524 18.8912 17.1591L19.0062 16.8611C18.9696 16.847 18.9308 16.8366 18.8922 16.8301L18.8392 17.1451ZM18.9232 16.8381L18.9092 16.8331L18.7952 17.1321L18.8092 17.1371L18.9232 16.8381ZM18.7132 16.9021L18.7122 16.9051L18.9882 17.0661L18.9902 17.0631L18.7132 16.9021ZM18.5102 17.3221C18.5392 17.2635 18.5854 17.2151 18.6425 17.1833C18.6996 17.1516 18.7651 17.1379 18.8302 17.1441L18.8712 16.8271C18.741 16.8125 18.6095 16.838 18.4942 16.9002C18.379 16.9624 18.2854 17.0583 18.2262 17.1751L18.5102 17.3221ZM16.8542 19.0061C17.5621 18.6229 18.1389 18.0363 18.5102 17.3221L18.2262 17.1751C17.8845 17.8324 17.3536 18.3723 16.7022 18.7251L16.8542 19.0061ZM14.0922 19.4071C15.0311 19.6061 16.0103 19.4633 16.8542 19.0061L16.7022 18.7251C15.925 19.1455 15.0235 19.2766 14.1592 19.0931L14.0922 19.4071ZM11.7322 17.9211C12.3171 18.6813 13.1538 19.2081 14.0922 19.4071L14.1592 19.0931C13.2953 18.9104 12.5249 18.4257 11.9862 17.7261L11.7322 17.9211ZM10.9042 15.2611C10.8542 16.2181 11.1472 17.1611 11.7322 17.9211L11.9862 17.7261C11.4482 17.0271 11.1779 16.1588 11.2242 15.2781L10.9042 15.2611ZM12.0062 12.7021C11.3455 13.3964 10.9546 14.304 10.9042 15.2611L11.2242 15.2781C11.2705 14.3973 11.6301 13.562 12.2382 12.9231L12.0062 12.7031V12.7021ZM14.5092 11.4711C13.5542 11.5711 12.6672 12.0081 12.0062 12.7021L12.2382 12.9221C12.8471 12.2826 13.6639 11.8809 14.5422 11.7891L14.5092 11.4711ZM17.2142 12.1561C16.4225 11.6136 15.4636 11.3708 14.5092 11.4711L14.5422 11.7891C15.4208 11.697 16.3045 11.9207 17.0332 12.4201L17.2142 12.1561ZM18.6852 14.0041C18.391 13.2549 17.878 12.6112 17.2142 12.1561L17.0332 12.4201C17.6441 12.839 18.1154 13.4315 18.3862 14.1211L18.6852 14.0041ZM19.0462 14.2061C18.9042 14.2441 18.7472 14.1601 18.6852 14.0041L18.3862 14.1211C18.4992 14.4081 18.8092 14.6011 19.1292 14.5151L19.0462 14.2051V14.2061ZM20.3672 13.8521L19.0462 14.2061L19.1292 14.5151L20.4502 14.1621L20.3672 13.8521Z" fill="white"/>
</g>
<path d="M50.5958 18.2749L48.6638 17.6989C48.4168 19.9189 46.8338 21.3989 44.7158 21.3989C42.0428 21.3989 40.1108 19.2199 40.1108 16.1979C40.1108 13.1549 42.0018 10.9549 44.5928 10.9549C46.5458 10.9549 48.2108 12.4349 48.5398 14.4919L50.4318 13.8339C49.9378 11.1809 47.4918 9.26893 44.5918 9.26893C40.9118 9.26893 38.2598 12.1889 38.2598 16.1979C38.2598 20.2079 40.9738 23.1269 44.7158 23.1269C47.7588 23.1269 50.1028 21.1939 50.5958 18.2749ZM56.9258 23.1269C59.9068 23.1269 62.0658 20.8649 62.0658 17.7399C62.0658 14.6149 59.9068 12.3529 56.9258 12.3529C53.9448 12.3529 51.7858 14.6149 51.7858 17.7399C51.7858 20.8649 53.9448 23.1269 56.9258 23.1269ZM53.5128 17.7399C53.5128 15.5399 54.9528 13.9569 56.9258 13.9569C58.8998 13.9569 60.3388 15.5399 60.3388 17.7399C60.3388 19.9199 58.8988 21.4819 56.9258 21.4819C54.9518 21.4819 53.5128 19.9189 53.5128 17.7399ZM77.3308 16.7119V22.8799H78.9758V16.5479C78.9758 14.2449 77.5778 12.3529 75.3158 12.3529C73.7118 12.3529 72.2728 13.3199 71.8618 14.6969C71.2858 13.2789 70.0318 12.3529 68.4898 12.3529C67.0298 12.3529 65.7968 13.1759 65.3648 14.3889L65.0768 12.5999H63.7608V22.8799H65.4058V17.4109C65.4058 15.4579 66.6598 14.0389 68.2428 14.0389C69.6828 14.0389 70.6078 15.1909 70.6078 16.7939V22.8799H72.2318V17.4109C72.2318 15.4579 73.4658 14.0389 75.0278 14.0389C76.4058 14.0389 77.3308 15.1289 77.3308 16.7119ZM94.6328 16.7119V22.8799H96.2778V16.5479C96.2778 14.2449 94.8798 12.3529 92.6178 12.3529C91.0148 12.3529 89.5758 13.3199 89.1648 14.6969C88.5888 13.2789 87.3348 12.3529 85.7928 12.3529C84.3328 12.3529 83.0988 13.1759 82.6668 14.3889L82.3798 12.5999H81.0638V22.8799H82.7088V17.4109C82.7088 15.4579 83.9628 14.0389 85.5458 14.0389C86.9858 14.0389 87.9098 15.1909 87.9098 16.7939V22.8799H89.5348V17.4109C89.5348 15.4579 90.7678 14.0389 92.3308 14.0389C93.7078 14.0389 94.6328 15.1289 94.6328 16.7119ZM104.411 17.9459V18.6029C104.411 20.2479 103.033 21.5229 101.327 21.5229C100.176 21.5229 99.5168 20.9679 99.5168 20.1659C99.5168 19.4059 100.011 18.7889 100.998 18.6029L103.712 18.1099C104 18.0479 104.267 18.0069 104.411 17.9459ZM97.7078 20.1659C97.7078 21.8929 99.0238 23.1259 100.998 23.1259C102.643 23.1259 103.876 22.3859 104.473 21.1939L104.74 22.8799H106.097L106.056 20.8239V16.0539C106.056 13.8129 104.329 12.3539 102.108 12.3539C99.9078 12.3539 98.2428 13.8949 98.0378 16.0129L99.8468 16.3009C99.8868 14.8609 100.792 13.8339 102.149 13.8339C103.465 13.8339 104.411 14.7589 104.411 16.0539V16.1359C104.411 16.4239 104.144 16.6499 103.753 16.7119L100.587 17.2879C98.6948 17.6379 97.7078 18.6859 97.7078 20.1659ZM115.52 16.7529V22.8799H117.165V16.6299C117.165 14.1419 115.5 12.3529 113.176 12.3529C111.532 12.3529 110.318 13.2169 109.784 14.4919L109.558 12.5999H108.16V22.8799H109.804V17.3699C109.804 15.4169 111.223 13.9979 112.93 13.9979C114.472 13.9979 115.52 15.1489 115.52 16.7529ZM123.72 23.1269C125.262 23.1269 126.536 22.4269 127.318 21.2149L127.523 22.8799H128.921L128.88 20.8239V8.89893H127.235V14.1829C126.413 13.0319 125.159 12.3529 123.637 12.3529C120.821 12.3529 118.682 14.6769 118.682 17.6989C118.682 20.7419 120.882 23.1269 123.72 23.1269ZM120.409 17.7399C120.409 15.5399 121.828 13.9569 123.802 13.9569C125.817 13.9569 127.276 15.5399 127.276 17.7399C127.276 19.9399 125.878 21.4819 123.884 21.4819C121.869 21.4819 120.409 19.8989 120.409 17.7399ZM131.465 22.8799H137.715C139.935 22.8799 141.662 21.2969 141.662 19.2609C141.662 17.7399 140.675 16.4449 139.113 15.9309C140.388 15.3759 141.169 14.2449 141.169 12.9289C141.169 10.9759 139.462 9.51593 137.18 9.51593H131.465V22.8799ZM133.192 21.1939V16.8769H137.468C138.866 16.8769 139.894 17.7809 139.894 19.0349C139.894 20.2889 138.866 21.1949 137.468 21.1949L133.192 21.1939ZM133.192 15.2319V11.1599H137.139C138.476 11.1599 139.442 12.0229 139.442 13.1949C139.442 14.3669 138.476 15.2309 137.139 15.2309H133.192V15.2319ZM149.467 17.9459V18.6029C149.467 20.2479 148.09 21.5229 146.383 21.5229C145.232 21.5229 144.574 20.9679 144.574 20.1659C144.574 19.4059 145.067 18.7889 146.054 18.6029L148.768 18.1099C149.056 18.0479 149.323 18.0069 149.467 17.9459ZM142.765 20.1659C142.765 21.8929 144.08 23.1259 146.054 23.1259C147.699 23.1259 148.933 22.3859 149.529 21.1939L149.796 22.8799H151.153L151.112 20.8239V16.0539C151.112 13.8129 149.385 12.3539 147.164 12.3539C144.964 12.3539 143.299 13.8949 143.094 16.0129L144.903 16.3009C144.944 14.8609 145.849 13.8339 147.206 13.8339C148.521 13.8339 149.467 14.7589 149.467 16.0539V16.1359C149.467 16.4239 149.2 16.6499 148.809 16.7119L145.643 17.2879C143.751 17.6379 142.765 18.6859 142.765 20.1659ZM153.216 22.8799H154.861V16.9589C154.861 15.3549 155.889 14.2039 157.328 14.2039C157.657 14.2039 158.15 14.2859 158.561 14.5329L158.644 12.5999C158.28 12.4433 157.888 12.3594 157.492 12.3529C156.3 12.3529 155.313 13.1139 154.819 14.3069L154.614 12.5999H153.216V22.8799Z" fill="#151531"/>
</g>
<defs>
<clipPath id="clip0_2086_44612">
<rect width="159" height="32" fill="white"/>
</clipPath>
</defs>
</svg>
