<svg width="132" height="25" viewBox="0 0 132 25" fill="none" xmlns="http://www.w3.org/2000/svg">
<g clip-path="url(#clip0_2086_45066)">
<path d="M58.0909 1.18385C58.1977 1.2085 58.2805 1.29269 58.3035 1.39983L58.8834 4.10531C58.9169 4.26127 58.8146 4.41396 58.6576 4.44239L52.9968 5.46807C52.8092 5.50206 52.6426 5.34423 52.6663 5.15506L53.2636 0.388497C53.2844 0.222418 53.4443 0.110779 53.6074 0.148442L58.0909 1.18385Z" fill="#151531"/>
<path fillRule="evenodd" clipRule="evenodd" d="M89.7565 23.7827C91.7211 23.7827 93.4427 23.0538 94.493 21.7637C94.6695 21.547 95.0741 21.6366 95.103 21.9146L95.2288 23.1256C95.2438 23.2695 95.365 23.3789 95.5097 23.3789H98.452C98.608 23.3789 98.7344 23.2524 98.7344 23.0964V0.548527C98.7344 0.392554 98.608 0.266113 98.452 0.266113L95.2579 0.266113C95.102 0.266113 94.9755 0.392553 94.9755 0.548526V9.01499C94.9755 9.29792 94.5677 9.43047 94.3686 9.22941C93.322 8.17218 91.7315 7.56651 89.974 7.56651C89.1308 7.56651 88.3485 7.67989 87.6328 7.89428V12.1068C88.3582 11.3771 89.3656 10.9526 90.5953 10.9526C93.2359 10.9526 94.9445 12.8787 94.9445 15.6435C94.9445 18.4084 93.2359 20.3034 90.5953 20.3034C89.3656 20.3034 88.3582 19.8856 87.6328 19.1632V23.5061C88.2881 23.6876 88.9979 23.7827 89.7565 23.7827ZM108.617 23.7827C112.49 23.7827 115.231 21.8973 116 18.7432C116.042 18.5707 115.908 18.4084 115.731 18.4084H112.773C112.648 18.4084 112.54 18.4912 112.496 18.6082C111.999 19.942 110.664 20.6762 108.68 20.6762C106.262 20.6762 104.848 19.414 104.493 16.9172C104.469 16.7517 104.6 16.6062 104.767 16.6057L115.729 16.5763C115.885 16.5758 116.011 16.4495 116.011 16.2938V15.4261C116.011 10.642 113.091 7.56651 108.493 7.56651C103.989 7.56651 100.851 10.8905 100.851 15.7057C100.851 20.4587 104.051 23.7827 108.617 23.7827ZM108.524 10.6731C110.689 10.6731 112.118 11.9472 112.243 13.9007C112.253 14.0564 112.126 14.1835 111.97 14.1835H104.88C104.706 14.1835 104.573 14.0268 104.609 13.8566C105.055 11.7699 106.396 10.6731 108.524 10.6731ZM125.594 23.2051C125.551 23.3103 125.448 23.3789 125.334 23.3789H121.986C121.87 23.3789 121.766 23.3082 121.723 23.2006L115.859 8.41906C115.785 8.23366 115.922 8.03249 116.121 8.03249H119.549C119.666 8.03249 119.771 8.10509 119.813 8.21485L122.415 15.0844C122.826 16.238 123.187 17.2932 123.445 18.126C123.535 18.4141 124.031 18.4142 124.122 18.1267C124.399 17.2486 124.785 16.1797 125.211 15.0844L127.936 8.21082C127.979 8.10318 128.083 8.03249 128.199 8.03249H131.498C131.699 8.03249 131.836 8.23757 131.758 8.4236L125.594 23.2051Z" fill="#151531"/>
<path d="M0.78125 15.6745C0.78125 20.5518 3.82567 23.7826 8.4855 23.7826C12.3729 23.7826 15.2957 21.4733 15.8927 18.0739C15.9221 17.906 15.7901 17.7559 15.6196 17.7559H12.3427C12.2122 17.7559 12.0997 17.846 12.0621 17.971C11.5989 19.5129 10.2979 20.3654 8.4855 20.3654C6.06239 20.3654 4.57124 18.5636 4.57124 15.6745C4.57124 12.7854 6.18665 10.9525 8.60976 10.9525C10.3365 10.9525 11.5783 11.78 12.0616 13.3802C12.099 13.5042 12.2111 13.5931 12.3407 13.5931H15.5953C15.7634 13.5931 15.8947 13.4468 15.8697 13.2805C15.3424 9.76547 12.5289 7.56641 8.45443 7.56641C3.91887 7.56641 0.78125 10.9215 0.78125 15.6745Z" fill="#151531"/>
<path d="M27.4604 8.19089C27.4604 8.0613 27.3723 7.94779 27.2458 7.9196C26.7154 7.80136 26.2491 7.75293 25.7829 7.75293C24.1935 7.75293 22.9588 8.36895 22.1801 9.355C21.999 9.58432 21.5418 9.49445 21.5135 9.20361L21.4274 8.31867C21.4134 8.17397 21.2917 8.06359 21.1464 8.06359H18.1125C17.9565 8.06359 17.8301 8.19003 17.8301 8.346V23.0964C17.8301 23.2524 17.9565 23.3789 18.1125 23.3789H21.3377C21.4937 23.3789 21.6201 23.2524 21.6201 23.0964V15.9231C21.6201 12.9408 23.3287 11.4808 26.0625 11.4808H27.178C27.334 11.4808 27.4604 11.3543 27.4604 11.1983V8.19089Z" fill="#151531"/>
<path d="M27.6777 15.6747C27.6777 20.4588 31.126 23.7517 35.879 23.7517C40.6321 23.7517 44.0803 20.4588 44.0803 15.6747C44.0803 10.8906 40.6321 7.59766 35.879 7.59766C31.126 7.59766 27.6777 10.8906 27.6777 15.6747ZM31.4677 15.6747C31.4677 12.8788 33.2695 10.9838 35.879 10.9838C38.4886 10.9838 40.2903 12.8788 40.2903 15.6747C40.2903 18.4706 38.4886 20.3656 35.879 20.3656C33.2695 20.3656 31.4677 18.4706 31.4677 15.6747Z" fill="#151531"/>
<path d="M74.7638 23.7827C76.7284 23.7827 78.45 23.0538 79.5003 21.7637C79.6767 21.547 80.0814 21.6366 80.1103 21.9146L80.2361 23.1256C80.251 23.2695 80.3723 23.3789 80.517 23.3789H83.4593C83.6153 23.3789 83.7417 23.2524 83.7417 23.0964V0.548527C83.7417 0.392554 83.6153 0.266113 83.4593 0.266113H80.2652C80.1093 0.266113 79.9828 0.392554 79.9828 0.548527V9.01499C79.9828 9.29792 79.575 9.43047 79.376 9.22941C78.3293 8.17218 76.7388 7.56651 74.9813 7.56651C70.3525 7.56651 67.5566 10.9837 67.5566 15.7678C67.5566 20.5208 70.3214 23.7827 74.7638 23.7827ZM75.6026 20.3034C72.962 20.3034 71.3466 18.3773 71.3466 15.6435C71.3466 12.9098 72.962 10.9526 75.6026 10.9526C78.2432 10.9526 79.9517 12.8787 79.9517 15.6435C79.9517 18.4084 78.2432 20.3034 75.6026 20.3034Z" fill="#151531"/>
<path fillRule="evenodd" clipRule="evenodd" d="M45.2497 11.4399C45.0815 11.4704 44.9787 11.6421 45.0314 11.8048L48.7168 23.1837C48.7546 23.3001 48.8631 23.3791 48.9855 23.3791H52.2709C52.3937 23.3791 52.5023 23.2998 52.5398 23.1829L54.5894 16.7932C54.9838 15.5155 55.2499 14.6063 55.4367 13.9272C55.5196 13.6262 56.0356 13.6366 56.1095 13.9399C56.2922 14.6894 56.5484 15.6266 56.8882 16.731L58.9381 23.1822C58.9754 23.2994 59.0842 23.3791 59.2073 23.3791H62.341C62.4614 23.3791 62.5685 23.3028 62.6079 23.189L67.7247 8.40752C67.7882 8.22406 67.652 8.03271 67.4578 8.03271H64.0549C63.9312 8.03271 63.8219 8.11314 63.7851 8.23119L61.7966 14.6186C61.6141 15.247 61.3391 16.2458 61.1009 17.1833C61.0249 17.4828 60.5352 17.479 60.4613 17.179C60.21 16.1594 59.8999 15.0268 59.7774 14.6186L57.7888 8.23119C57.752 8.11314 57.6428 8.03271 57.5191 8.03271H54.0809C53.9581 8.03271 53.8495 8.11199 53.8119 8.22887L51.7625 14.6186C51.4425 15.5986 51.2126 16.3469 51.0148 17.1535C50.9407 17.4558 50.4732 17.4556 50.406 17.1517C50.2087 16.2598 49.9981 15.4125 49.7742 14.6186L48.6863 11.0703C48.6444 10.9335 48.5068 10.8497 48.3661 10.8752L45.2497 11.4399Z" fill="#151531"/>
</g>
<defs>
<clipPath id="clip0_2086_45066">
<rect width="131" height="24" fill="white" transform="translate(0.78125 0.141113)"/>
</clipPath>
</defs>
</svg>
