<svg width="24" height="24" viewBox="0 0 24 24" fill="none" xmlns="http://www.w3.org/2000/svg">
<path fillRule="evenodd" clipRule="evenodd" d="M6.27592 8.65219C6.44783 8.48679 6.67838 8.39641 6.91689 8.40091C7.1554 8.40541 7.38237 8.50442 7.54792 8.67619L11.9999 13.4018L16.4519 8.67619C16.5328 8.58697 16.6309 8.51491 16.7401 8.46427C16.8494 8.41363 16.9678 8.38544 17.0881 8.38137C17.2085 8.37731 17.3285 8.39744 17.4409 8.44059C17.5534 8.48374 17.6561 8.54902 17.7428 8.63257C17.8296 8.71612 17.8987 8.81623 17.946 8.92698C17.9934 9.03772 18.0181 9.15685 18.0185 9.2773C18.019 9.39775 17.9953 9.51706 17.9488 9.62818C17.9023 9.7393 17.834 9.83996 17.7479 9.92419L12.6479 15.3242C12.564 15.4113 12.4633 15.4806 12.352 15.5279C12.2406 15.5752 12.1209 15.5996 11.9999 15.5996C11.8789 15.5996 11.7592 15.5752 11.6479 15.5279C11.5365 15.4806 11.4359 15.4113 11.3519 15.3242L6.25192 9.92419C6.08653 9.75228 5.99615 9.52173 6.00065 9.28322C6.00515 9.04471 6.10416 8.81774 6.27592 8.65219Z" fill="#151531"/>
</svg>
