<svg width="312" height="126" viewBox="0 0 312 126" fill="none" xmlns="http://www.w3.org/2000/svg">
<g clip-path="url(#clip0_843_31979)">
<path d="M147.501 102.458C166.164 112.638 189.342 110.289 207.083 99.2902C215.62 93.9972 222.97 87.0404 229.088 79.1688C235.334 71.1333 241.746 61.3513 243.097 51.1222C244.04 43.9879 241.055 32.1126 231.494 33.0135C223.082 33.806 215.03 42.9739 214.523 51.0415C213.956 60.0769 222.016 66.811 230.36 68.4953C240.316 70.5063 251.24 67.1179 260.177 62.8839C279.737 53.6176 294.806 35.6345 299.839 14.8277C300.319 12.8434 297.272 11.7566 296.767 13.7635C292.973 28.8294 284.147 42.2037 271.805 51.8657C265.514 56.7899 258.327 60.6891 250.686 63.1703C241.935 66.0119 230.982 67.9849 223.089 62.0175C214.38 55.4313 217.315 44.7167 225.227 38.9042C229.847 35.5101 235.354 34.5011 238.583 40.2483C241.205 44.9133 240.53 50.854 238.954 55.7367C233.908 71.3833 221.152 86.4178 207.5 95.5707C190.38 107.049 167.443 110.58 148.71 100.715C147.508 100.083 146.288 101.797 147.501 102.458Z" fill="#151531"/>
<path d="M281.69 31.4182C288.811 21.8802 295.885 12.3045 303.116 2.84573C301.995 2.62333 300.875 2.39999 299.753 2.17665C301.505 7.47085 303.212 12.7588 304.572 18.1667C305.824 23.1414 306.201 28.6819 308.18 33.4116C308.806 34.9059 311.137 34.325 311.239 32.8176C311.599 27.5369 309.616 21.763 308.273 16.6906C306.869 11.3861 305.236 6.12421 303.247 1.00215C302.736 -0.314012 300.768 -0.27726 300.041 0.78227C293.309 10.5813 286.413 20.2716 279.568 29.9943C278.622 31.3374 280.714 32.7249 281.69 31.4182Z" fill="#151531"/>
</g>
<path d="M12.2966 79.6349C11.2567 79.8182 10.2886 79.6911 9.39227 79.2534C8.51043 78.8132 7.75649 78.127 7.13045 77.1949C6.51886 76.2602 6.09845 75.1429 5.86923 73.843C5.74953 73.1641 5.73349 72.4819 5.82109 71.7962C5.92059 71.0936 6.07829 70.4254 6.29418 69.7916C6.50753 69.1434 6.73955 68.5589 6.99026 68.0381C6.84415 67.8852 6.73926 67.6281 6.67559 67.267C6.61192 66.9059 6.69227 66.4748 6.91663 65.9735C7.141 65.4723 7.48347 64.9651 7.94403 64.452C8.4046 63.9389 8.96456 63.4827 9.62392 63.0835C10.2833 62.6843 11.0102 62.4146 11.8046 62.2746C13.119 62.0428 14.2808 62.1283 15.2901 62.5312C16.2994 62.9341 17.1166 63.5569 17.7418 64.3998C18.3789 65.2258 18.793 66.1804 18.984 67.2637C19.2591 68.8236 19.2669 70.3041 19.0076 71.705C18.7483 73.106 18.2863 74.3715 17.6218 75.5014C16.9716 76.6287 16.1822 77.5572 15.2535 78.2869C14.3367 78.9996 13.351 79.4489 12.2966 79.6349ZM9.51522 65.7611C9.58573 65.8231 9.62735 65.8902 9.64008 65.9624C9.65791 66.0635 9.63963 66.171 9.58524 66.2849C9.54529 66.3962 9.49345 66.5244 9.4297 66.6697C9.2164 67.0648 9.00052 67.572 8.78208 68.1913C8.57809 68.8081 8.39873 69.4801 8.244 70.2074C8.10371 70.9321 8.01057 71.6708 7.96459 72.4235C7.91606 73.1619 7.9491 73.856 8.0637 74.506C8.25981 75.6181 8.67176 76.4763 9.29954 77.0805C9.92477 77.6702 10.7357 77.8772 11.7323 77.7015C12.4834 77.569 13.1665 77.2624 13.7817 76.7816C14.4114 76.2983 14.9544 75.7036 15.4107 74.9976C15.8789 74.2747 16.2563 73.5007 16.5427 72.6758C16.8266 71.8364 17.0128 70.9919 17.1013 70.1423C17.1897 69.2927 17.169 68.4996 17.0391 67.763C16.9042 66.9974 16.6264 66.3092 16.206 65.6983C15.7855 65.0873 15.2507 64.6306 14.6017 64.328C13.9526 64.0255 13.2164 63.9468 12.3931 64.092C11.6998 64.2142 11.1208 64.4355 10.656 64.7557C10.2031 65.059 9.82283 65.3941 9.51522 65.7611ZM31.5533 76.3734C31.3078 76.4167 31.0793 76.3453 30.8677 76.1592C30.6562 75.9731 30.5135 75.6706 30.4396 75.2518C30.3531 74.7607 30.3018 74.0474 30.2857 73.112C30.2842 72.174 30.3026 70.9272 30.3411 69.3715C30.1141 70.3647 29.8348 71.315 29.5034 72.2223C29.1863 73.1271 28.8137 73.8853 28.3854 74.497C27.9571 75.1087 27.4685 75.4629 26.9196 75.5597C26.3852 75.6539 25.8716 75.5285 25.3789 75.1835C24.9006 74.8359 24.5685 74.135 24.3826 73.0806C24.2782 72.4884 24.2116 71.815 24.1828 71.0606C24.1515 70.2917 24.1503 69.5249 24.1793 68.7602C24.2083 67.9956 24.2513 67.3104 24.3083 66.7046C24.3628 66.0844 24.4308 65.6256 24.5124 65.3283C24.5728 65.0793 24.6471 64.9098 24.7355 64.8198C24.8213 64.7153 24.9509 64.6478 25.1242 64.6172C25.3264 64.5816 25.5584 64.63 25.82 64.7626C26.0817 64.8952 26.2482 65.1637 26.3195 65.5681C26.3373 65.6692 26.3288 65.9164 26.2939 66.3098C26.2709 66.6862 26.2343 67.1543 26.1841 67.7142C26.1458 68.2571 26.1079 68.8446 26.0704 69.4767C26.033 70.1088 26.0172 70.7371 26.023 71.3616C26.0433 71.9835 26.0981 72.5472 26.1872 73.0528C26.2356 73.3272 26.3039 73.546 26.3923 73.7091C26.4806 73.8723 26.6403 73.9335 26.8714 73.8927C27.0737 73.8571 27.2908 73.6103 27.5228 73.1524C27.7692 72.6919 28.0144 72.0976 28.2584 71.3696C28.5142 70.6245 28.7645 69.8059 29.0094 68.9138C29.2686 68.0192 29.5096 67.1055 29.7323 66.1727C29.9695 65.2373 30.1782 64.3516 30.3584 63.5156C30.4282 63.2352 30.5229 63.0547 30.6427 62.974C30.76 62.8788 30.8981 62.8173 31.0569 62.7892C31.3169 62.7434 31.5671 62.811 31.8075 62.992C32.0599 63.156 32.2153 63.4041 32.2739 63.7363C32.3121 63.953 32.335 64.3361 32.3425 64.8858C32.3645 65.433 32.367 66.0804 32.3499 66.8281C32.3447 67.5587 32.3255 68.3366 32.2922 69.1615C32.2734 69.984 32.2534 70.7992 32.232 71.6072C32.2081 72.4007 32.18 73.128 32.1476 73.789C32.1296 74.4474 32.1117 74.9793 32.0938 75.3845C32.0853 75.7584 32.0249 76.0073 31.9128 76.1313C31.8176 76.2672 31.6978 76.3479 31.5533 76.3734ZM38.0125 75.1228C37.7814 75.1635 37.5698 75.104 37.3778 74.9443C37.1858 74.7845 37.0606 74.5385 37.002 74.2063C36.9587 73.9608 36.9379 73.5475 36.9397 72.9663C36.9534 72.3682 36.9577 71.6749 36.9527 70.8865C36.9622 70.0955 36.9449 69.2794 36.9008 68.4383C36.8542 67.5827 36.7634 66.7722 36.6284 66.0066C36.5622 65.6311 36.6077 65.3401 36.7649 65.1337C36.934 64.9102 37.1414 64.7769 37.3869 64.7336C37.618 64.6928 37.8168 64.8067 37.9833 65.0752C38.1498 65.3437 38.2733 65.9177 38.3539 66.797C38.7585 65.2066 39.2791 63.8936 39.9156 62.858C40.564 61.8054 41.2511 61.0141 41.9767 60.484C42.6998 59.9395 43.3791 59.6112 44.0146 59.4992C44.4335 59.4253 44.7521 59.4585 44.9705 59.5987C45.2007 59.7219 45.3336 59.8847 45.3693 60.0869C45.4177 60.3613 45.3403 60.5983 45.1372 60.798C44.946 60.9806 44.5938 61.2214 44.0806 61.5204C43.4884 61.878 42.9544 62.27 42.4785 62.6965C42.0146 63.1059 41.5901 63.6127 41.2052 64.2167C40.8346 64.8182 40.4968 65.5628 40.1917 66.4506C39.884 67.324 39.6094 68.3851 39.368 69.634C39.1265 70.8829 38.8982 72.3753 38.683 74.111C38.6523 74.444 38.5763 74.6883 38.4547 74.8438C38.3477 74.9967 38.2002 75.0897 38.0125 75.1228ZM65.2194 60.2728C65.3009 60.735 65.2366 61.2154 65.0267 61.7141C64.8142 62.1984 64.5053 62.6847 64.1 63.1732C63.6921 63.6472 63.2299 64.1085 62.7132 64.557C62.1966 65.0056 61.6723 65.4108 61.1404 65.7726C60.6085 66.1345 60.1182 66.4369 59.6696 66.6798C59.6534 67.2635 59.6835 67.772 59.7599 68.2053C59.8083 68.4797 59.9077 68.6633 60.058 68.7559C60.2084 68.8485 60.4208 68.8706 60.6952 68.8223C61.3019 68.7153 61.9255 68.4936 62.5662 68.1573C63.2068 67.8209 63.8505 67.417 64.4971 66.9456C65.1437 66.4741 65.7576 65.9861 66.3389 65.4815C66.9201 64.9769 67.4473 64.5042 67.9206 64.0633C68.4084 63.6198 68.8137 63.258 69.1366 62.9776C69.4595 62.6973 69.6787 62.547 69.7942 62.5266C69.9676 62.496 70.1077 62.5309 70.2148 62.6311C70.3337 62.7144 70.4059 62.8283 70.4314 62.9727C70.4518 63.0883 70.3107 63.344 70.0082 63.7399C69.7201 64.1332 69.3194 64.606 68.8062 65.1581C68.2904 65.6959 67.7049 66.2608 67.0498 66.8529C66.3947 67.445 65.7055 68.0133 64.9824 68.5578C64.2738 69.0997 63.5728 69.5584 62.8794 69.9339C62.2005 70.3067 61.5722 70.5441 60.9945 70.646C60.2434 70.7784 59.6087 70.5999 59.0906 70.1105C58.5724 69.621 58.2088 68.7841 58 67.5997C57.8599 66.8053 57.8197 65.9858 57.8793 65.1413C57.9533 64.2943 58.1059 63.4706 58.3371 62.6703C58.5802 61.853 58.8747 61.116 59.2206 60.4593C59.5784 59.7856 59.9808 59.238 60.4277 58.8167C60.8721 58.3809 61.3327 58.121 61.8093 58.0369C62.7193 57.8765 63.4788 58.0032 64.0879 58.417C64.697 58.8309 65.0742 59.4495 65.2194 60.2728ZM59.8304 64.9313C60.2298 64.5779 60.6411 64.2076 61.0642 63.8202C61.4874 63.4328 61.8732 63.0446 62.2216 62.6555C62.57 62.2664 62.8364 61.8769 63.0208 61.487C63.2171 61.08 63.2822 60.6888 63.216 60.3133C63.1217 59.7788 62.7857 59.5626 62.208 59.6644C61.8469 59.7281 61.5049 60.0267 61.1819 60.5602C60.8709 61.0767 60.5985 61.7279 60.3648 62.5138C60.131 63.2997 59.9529 64.1055 59.8304 64.9313ZM71.4599 69.3815C70.911 69.4783 70.4114 69.3057 69.9612 68.8639C69.5229 68.405 69.2311 67.7639 69.0859 66.9406C68.951 66.1751 69.005 65.3837 69.2481 64.5664C69.5057 63.7466 69.8911 62.934 70.4044 62.1286C70.9176 61.3232 71.4989 60.5654 72.1481 59.8553C72.7948 59.1306 73.4554 58.4854 74.1301 57.9197C74.8192 57.3514 75.4599 56.8884 76.0521 56.5308C76.6444 56.1732 77.1282 55.9613 77.5038 55.8951C77.706 55.8594 77.8797 55.8735 78.025 55.9372C78.1677 55.9865 78.2569 56.1123 78.2926 56.3145C78.3155 56.4445 78.2866 56.5762 78.2059 56.7095C78.2203 56.707 78.2348 56.7044 78.2492 56.7019C78.567 56.6459 78.759 56.8056 78.8252 57.1812C78.8481 57.3112 78.8447 57.5873 78.8149 58.0095C78.7825 58.4174 78.7536 58.9288 78.728 59.5439C78.7024 60.1591 78.7028 60.8366 78.729 61.5766C78.7527 62.3022 78.8295 63.0333 78.9594 63.77C79.0689 64.3911 79.3619 64.6596 79.8386 64.5755C80.373 64.4813 80.893 64.263 81.3986 63.9207C81.9042 63.5784 82.3864 63.188 82.8452 62.7497C83.3015 62.2969 83.7158 61.859 84.088 61.4359C84.4576 60.9984 84.7724 60.6302 85.0325 60.3311C85.2925 60.0321 85.4875 59.8711 85.6175 59.8482C85.7331 59.8278 85.8405 59.8461 85.9399 59.9031C86.0393 59.96 86.103 60.0679 86.131 60.2268C86.1565 60.3712 86.0579 60.6567 85.8353 61.0832C85.6126 61.5096 85.305 62.0032 84.9124 62.5639C84.5198 63.1246 84.0668 63.681 83.5536 64.2332C83.0403 64.7854 82.4987 65.2607 81.9285 65.6591C81.3584 66.0575 80.7916 66.3063 80.2283 66.4057C79.795 66.4821 79.3749 66.4221 78.9679 66.2258C78.5729 66.0125 78.2097 65.5999 77.8785 64.9882C77.5616 64.3738 77.3026 63.4962 77.1014 62.3551L77.0059 61.8135C76.5045 63.1082 75.9491 64.3082 75.3398 65.4135C74.7449 66.5162 74.1156 67.4239 73.452 68.1367C72.8027 68.8468 72.1387 69.2618 71.4599 69.3815ZM77.3672 57.5276C77.3001 57.5692 77.2066 57.6304 77.0868 57.7111C76.4759 58.1316 75.8488 58.6293 75.2055 59.2045C74.5767 59.777 73.9713 60.3976 73.3892 61.0661C72.8216 61.7322 72.3228 62.4084 71.8928 63.0948C71.4628 63.7812 71.1424 64.4558 70.9316 65.1185C70.7208 65.7811 70.6663 66.4014 70.7682 66.9791C70.8013 67.1669 70.8629 67.3049 70.9529 67.3933C71.0574 67.4791 71.2107 67.5042 71.413 67.4686C71.7018 67.4176 72.0455 67.1709 72.4441 66.7283C72.8401 66.2712 73.259 65.691 73.7009 64.9876C74.1572 64.2816 74.6021 63.5107 75.0355 62.6747C75.469 61.8387 75.8722 61.0006 76.2453 60.1604C76.6329 59.3176 76.9584 58.5454 77.2219 57.8436C77.2618 57.7323 77.3103 57.627 77.3672 57.5276ZM88.7587 66.2419C88.441 66.2979 88.1789 66.2473 87.9724 66.0901C87.783 65.9448 87.6679 65.7566 87.6271 65.5255C87.5915 65.3233 87.645 65.1202 87.7878 64.9163C87.9425 64.6955 88.1659 64.4848 88.4582 64.2843C88.9825 63.8791 89.4707 63.4803 89.9227 63.0878C90.3892 62.6928 90.7508 62.294 91.0074 61.8913C91.2641 61.4886 91.358 61.0923 91.2892 60.7023C91.2307 60.3701 91.0778 60.1364 90.8305 60.0013C90.5808 59.8517 90.2681 59.8101 89.8926 59.8763C89.6759 59.9145 89.3802 60.0113 89.0055 60.1667C88.6283 60.3077 88.2175 60.4695 87.7731 60.6521C87.3406 60.8177 86.9154 60.9821 86.4973 61.1451C86.0768 61.2938 85.7148 61.3948 85.4115 61.4483C84.8626 61.5451 84.428 61.4877 84.1078 61.2761C83.785 61.05 83.5828 60.7059 83.5013 60.2437C83.4605 60.0126 83.5366 59.6417 83.7296 59.1312C83.9225 58.6206 84.1932 58.0441 84.5416 57.4019C84.9019 56.7426 85.3056 56.0757 85.7526 55.4012C86.1996 54.7267 86.6614 54.0942 87.1382 53.5038C87.6293 52.9108 88.0937 52.4194 88.5313 52.0294C88.9834 51.637 89.3755 51.4115 89.7077 51.3529C90.0399 51.2943 90.3118 51.3581 90.5233 51.5442C90.7348 51.7303 90.8699 51.9894 90.9285 52.3216C90.9743 52.5816 90.9705 52.8131 90.9169 53.0162C90.8608 53.2048 90.7045 53.3738 90.4478 53.5233C90.2057 53.6703 89.8114 53.7994 89.2651 53.9106C88.7808 54.4577 88.2718 55.0761 87.7381 55.766C87.2163 56.4388 86.749 57.1244 86.336 57.8227C85.9348 58.504 85.6671 59.1395 85.5328 59.7291C85.9814 59.4862 86.535 59.2471 87.1935 59.0118C87.8639 58.7596 88.5529 58.5711 89.2607 58.4463C90.3728 58.2502 91.2407 58.3578 91.8643 58.7691C92.4997 59.1634 92.8888 59.765 93.0314 60.5738C93.1231 61.0938 93.0525 61.6647 92.8196 62.2866C92.5986 62.8915 92.2702 63.4781 91.8342 64.0465C91.3983 64.6148 90.9097 65.0956 90.3684 65.4889C89.8297 65.8967 89.2932 66.1476 88.7587 66.2419ZM99.9725 69.5144C99.2503 69.6417 98.5769 69.7083 97.9525 69.7142C97.345 69.7319 96.7345 69.6906 96.1211 69.5903C95.5103 69.5044 94.8387 69.3696 94.1063 69.186C93.8863 69.1206 93.6841 69.0296 93.4997 68.9132C93.3179 68.8112 93.2117 68.6736 93.1812 68.5002C93.143 68.2836 93.2394 68.0283 93.4706 67.7343C93.6898 67.4574 93.915 67.2986 94.1461 67.2578C94.3916 67.2145 94.7102 67.2477 95.1019 67.3573C95.508 67.4645 95.977 67.5903 96.5088 67.7348C97.0432 67.8937 97.6218 68.0077 98.2445 68.0766C98.8817 68.1429 99.547 68.115 100.24 67.9927C100.991 67.8603 101.644 67.4249 102.199 66.6867C102.754 65.9485 103.138 64.9574 103.35 63.7136C103.566 62.4843 103.529 61.0535 103.241 59.4214C103.155 58.9303 103.045 58.3912 102.912 57.8041C102.79 57.2 102.649 56.5695 102.489 55.9128C102.275 56.725 102.016 57.5376 101.712 58.3506C101.423 59.1611 101.1 59.9032 100.742 60.5769C100.399 61.2481 100.013 61.8075 99.586 62.2552C99.1705 62.6859 98.7172 62.9445 98.2261 63.0311C97.605 63.1406 97.1293 63.0607 96.7988 62.7913C96.4683 62.5219 96.2445 62.055 96.1274 61.3906C96.0051 60.6973 95.9232 59.9373 95.8817 59.1106C95.8402 58.284 95.8263 57.445 95.84 56.5936C95.8656 55.7253 95.9278 54.8953 96.0264 54.1034C96.1251 53.3116 96.256 52.6183 96.4192 52.0236C96.5127 51.7093 96.7039 51.5266 96.9928 51.4757C97.195 51.4401 97.4091 51.514 97.6351 51.6976C97.873 51.8641 98.0212 52.1135 98.0798 52.4457C98.1256 52.7057 98.1328 53.0842 98.1013 53.5812C98.0698 54.0782 98.0208 54.6454 97.9545 55.2826C97.8881 55.9198 97.8268 56.5859 97.7707 57.2808C97.712 57.9614 97.6808 58.6296 97.6774 59.2855C97.6713 59.9269 97.7141 60.5077 97.8058 61.0276C97.844 61.2443 98.0076 61.3272 98.2965 61.2762C98.4553 61.2482 98.6537 61.0643 98.8917 60.7245C99.1415 60.3677 99.405 59.9191 99.682 59.3788C99.971 58.8215 100.252 58.2209 100.526 57.5769C100.812 56.9159 101.084 56.2647 101.343 55.6233C101.6 54.9674 101.815 54.371 101.988 53.8341C101.953 53.7211 101.927 53.614 101.909 53.5129C101.891 53.4118 101.875 53.3179 101.86 53.2313C101.735 52.5235 101.729 52.0703 101.843 51.8715C101.969 51.6557 102.155 51.5261 102.4 51.4828C102.819 51.409 103.132 51.4507 103.338 51.6079C103.545 51.7651 103.689 52.0748 103.77 52.537C103.801 52.7103 103.812 52.9019 103.804 53.1117C103.794 53.3072 103.77 53.5943 103.733 53.9733C104.05 55.0939 104.324 56.1029 104.557 57.0001C104.804 57.8948 105.009 58.8044 105.172 59.7288C105.48 61.4765 105.466 63.0427 105.129 64.4276C104.807 65.8098 104.203 66.944 103.317 67.83C102.445 68.7135 101.33 69.2749 99.9725 69.5144ZM116.966 53.6282C116.57 53.6681 116.345 53.4471 116.29 52.9654C116.284 52.8473 116.34 52.6961 116.456 52.5117C116.57 52.3129 116.719 52.1897 116.905 52.1422C117.345 52.0199 117.882 51.8581 118.517 51.6569C119.163 51.4386 119.872 51.1944 120.644 50.9244C120.664 50.1911 120.706 49.4167 120.77 48.6011C120.835 47.7855 120.925 46.9877 121.041 46.2078C121.154 45.4134 121.294 44.6887 121.462 44.0337C121.629 43.3786 121.834 42.851 122.076 42.4509C122.207 42.264 122.332 42.1302 122.452 42.0495C122.57 41.9544 122.679 41.8979 122.78 41.8801C122.982 41.8444 123.156 41.9031 123.302 42.056C123.463 42.2064 123.562 42.3899 123.6 42.6066C123.621 42.7221 123.62 42.8415 123.597 42.9647C123.45 43.8245 123.316 44.8759 123.192 46.1189C123.069 47.3618 122.943 48.717 122.814 50.1842C124.105 49.7333 125.393 49.2678 126.679 48.788C127.964 48.3081 129.066 47.8831 129.983 47.5128C130.237 47.3488 130.451 47.3335 130.623 47.467C130.81 47.5978 130.918 47.7427 130.946 47.9016C130.981 48.1038 130.95 48.2656 130.852 48.3871C130.769 48.5061 130.676 48.6118 130.573 48.7044L130.555 48.7299C130.287 48.8964 129.878 49.11 129.328 49.3708C128.776 49.6171 128.139 49.8931 127.419 50.1989C126.696 50.4902 125.922 50.7904 125.098 51.0996C124.288 51.4062 123.483 51.6971 122.683 51.9722C122.575 53.3019 122.466 54.6689 122.356 56.0733C122.258 57.4607 122.156 58.8264 122.051 60.1705C121.998 60.716 121.889 61.0702 121.724 61.2333C121.577 61.4083 121.402 61.5137 121.199 61.5493C120.968 61.5901 120.751 61.5391 120.547 61.3963C120.357 61.251 120.273 60.9009 120.295 60.3461L120.574 52.6792C119.73 52.962 118.981 53.1909 118.327 53.3658C117.687 53.5382 117.233 53.6257 116.966 53.6282ZM133.296 58.1207C132.443 58.271 131.715 58.0645 131.109 57.5011C130.503 56.9377 130.109 56.136 129.925 55.0961C129.859 54.7205 129.839 54.3144 129.867 53.8777C129.906 53.424 129.982 53.0086 130.094 52.6313C129.975 52.5481 129.871 52.4249 129.783 52.2617C129.692 52.0841 129.622 51.8581 129.574 51.5837C129.424 50.7315 129.431 49.9261 129.595 49.1674C129.759 48.4087 130.033 47.7273 130.418 47.1233C130.801 46.5049 131.255 46.0002 131.782 45.6095C132.323 45.2162 132.897 44.9661 133.504 44.8591C134.501 44.6834 135.373 44.9018 136.122 45.5145C136.867 46.1128 137.369 47.1413 137.626 48.6001C137.761 49.3656 137.783 50.166 137.692 51.0011C137.616 51.8338 137.447 52.6528 137.187 53.4582C136.941 54.261 136.617 54.9959 136.213 55.6628C135.824 56.3271 135.378 56.8823 134.876 57.3283C134.386 57.7573 133.859 58.0214 133.296 58.1207ZM131.394 51.6426C131.501 51.7428 131.571 51.8869 131.604 52.0746C131.642 52.2913 131.637 52.5156 131.589 52.7475C131.555 52.9769 131.527 53.287 131.507 53.6778C131.487 54.0687 131.537 54.6107 131.66 55.304C131.782 55.9973 132.117 56.2956 132.666 56.1988C133.273 56.0919 133.794 55.7542 134.23 55.1859C134.664 54.6031 135.015 53.8933 135.284 53.0565C135.554 52.2196 135.721 51.3488 135.784 50.444C135.86 49.5221 135.829 48.6712 135.692 47.8913C135.603 47.3857 135.446 47.0484 135.223 46.8793C134.997 46.6958 134.638 46.6473 134.147 46.7339C133.642 46.823 133.145 47.0893 132.657 47.5327C132.181 47.9592 131.814 48.4931 131.555 49.1345C131.296 49.776 131.23 50.4578 131.357 51.18C131.385 51.3388 131.397 51.493 131.394 51.6426ZM153.997 54.8279C153.448 54.9247 152.949 54.7522 152.498 54.3103C152.06 53.8515 151.768 53.2104 151.623 52.3871C151.488 51.6216 151.542 50.8302 151.785 50.0129C152.043 49.193 152.428 48.3804 152.942 47.575C153.455 46.7697 154.036 46.0119 154.685 45.3017C155.332 44.5771 155.993 43.9319 156.667 43.3661C157.356 42.7978 157.997 42.3349 158.589 41.9773C159.182 41.6197 159.666 41.4078 160.041 41.3415C160.243 41.3059 160.417 41.3199 160.562 41.3837C160.705 41.433 160.794 41.5587 160.83 41.7609C160.853 41.8909 160.824 42.0226 160.743 42.156C160.758 42.1534 160.772 42.1509 160.786 42.1484C161.104 42.0923 161.296 42.2521 161.362 42.6276C161.385 42.7576 161.382 43.0337 161.352 43.456C161.32 43.8638 161.291 44.3753 161.265 44.9904C161.24 45.6055 161.24 46.2831 161.266 47.0231C161.29 47.7487 161.367 48.4798 161.497 49.2164C161.606 49.8375 161.899 50.106 162.376 50.022C162.91 49.9277 163.43 49.7095 163.936 49.3671C164.441 49.0248 164.924 48.6345 165.382 48.1961C165.839 47.7434 166.253 47.3054 166.625 46.8824C166.995 46.4449 167.31 46.0766 167.57 45.7776C167.83 45.4786 168.025 45.3176 168.155 45.2947C168.27 45.2743 168.378 45.2926 168.477 45.3495C168.577 45.4064 168.64 45.5144 168.668 45.6732C168.694 45.8177 168.595 46.1031 168.373 46.5296C168.15 46.9561 167.842 47.4497 167.45 48.0104C167.057 48.5711 166.604 49.1275 166.091 49.6797C165.578 50.2319 165.036 50.7071 164.466 51.1055C163.896 51.5039 163.329 51.7528 162.766 51.8521C162.332 51.9285 161.912 51.8686 161.505 51.6722C161.11 51.4589 160.747 51.0464 160.416 50.4346C160.099 49.8203 159.84 48.9426 159.639 47.8015L159.543 47.2599C159.042 48.5546 158.486 49.7547 157.877 50.8599C157.282 51.9626 156.653 52.8704 155.989 53.5831C155.34 54.2933 154.676 54.7082 153.997 54.8279ZM159.904 42.9741C159.837 43.0157 159.744 43.0768 159.624 43.1575C159.013 43.578 158.386 44.0758 157.743 44.6509C157.114 45.2235 156.509 45.844 155.926 46.5126C155.359 47.1786 154.86 47.8548 154.43 48.5413C154 49.2277 153.68 49.9022 153.469 50.5649C153.258 51.2276 153.204 51.8478 153.305 52.4256C153.339 52.6133 153.4 52.7514 153.49 52.8398C153.595 52.9256 153.748 52.9507 153.95 52.915C154.239 52.8641 154.583 52.6173 154.981 52.1747C155.377 51.7177 155.796 51.1375 156.238 50.434C156.695 49.7281 157.139 48.9571 157.573 48.1211C158.006 47.2852 158.41 46.4471 158.783 45.6069C159.17 44.7641 159.496 43.9918 159.759 43.2901C159.799 43.1788 159.848 43.0735 159.904 42.9741ZM174.697 39.3605C174.921 38.3529 175.119 37.3202 175.29 36.2625C175.475 35.2022 175.62 34.1266 175.726 33.0357C175.762 32.7315 175.851 32.4775 175.994 32.2736C176.148 32.0527 176.349 31.9207 176.594 31.8774C176.767 31.8468 176.923 31.8863 177.062 31.9959C177.215 32.103 177.31 32.2649 177.348 32.4815C177.397 32.756 177.373 33.2517 177.276 33.9688C177.193 34.6833 177.085 35.5886 176.95 36.6845C176.83 37.778 176.731 39.0316 176.653 40.4453C176.586 41.8421 176.589 43.3757 176.66 45.046C176.745 46.7138 176.951 48.4721 177.277 50.3209C177.348 50.7254 177.32 51.0729 177.193 51.3634C177.068 51.6684 176.883 51.8426 176.637 51.8858C176.493 51.9113 176.349 51.8994 176.206 51.8501C176.064 51.8008 175.918 51.6479 175.768 51.3913C175.636 51.1465 175.491 50.7476 175.334 50.1945C175.174 49.6269 175.008 48.8521 174.834 47.8699C174.702 47.1188 174.601 46.2951 174.533 45.3987C174.08 46.7147 173.542 47.8892 172.92 48.9223C172.31 49.9383 171.686 50.7484 171.048 51.3524C170.424 51.9538 169.859 52.2991 169.354 52.3882C168.733 52.4977 168.19 52.3775 167.726 52.0273C167.279 51.6891 166.985 51.1156 166.842 50.3067C166.717 49.599 166.755 48.8403 166.955 48.0306C167.154 47.221 167.465 46.4067 167.887 45.5877C168.306 44.7543 168.79 43.954 169.34 43.1869C169.89 42.4197 170.453 41.7321 171.031 41.1238C171.621 40.4986 172.18 39.9978 172.71 39.6215C173.237 39.2308 173.681 39.0035 174.042 38.9399C174.186 38.9144 174.325 38.942 174.458 39.0228C174.592 39.1035 174.671 39.2161 174.697 39.3605ZM174.533 40.0818C174.45 40.2008 174.345 40.3235 174.219 40.4501C174.092 40.5767 173.952 40.713 173.799 40.8591C173.243 41.4189 172.634 42.0624 171.973 42.7896C171.324 43.4998 170.713 44.2627 170.142 45.0782C169.583 45.8768 169.153 46.6898 168.852 47.5173C168.551 48.3448 168.471 49.1557 168.611 49.9502C168.672 50.2968 168.876 50.4396 169.223 50.3784C169.699 50.2944 170.18 49.9788 170.664 49.4317C171.161 48.8677 171.641 48.1277 172.105 47.2119C172.566 46.2816 173.003 45.2141 173.416 44.0094C173.827 42.7903 174.199 41.4811 174.533 40.0818ZM188.217 36.9766C188.441 35.969 188.639 34.9363 188.81 33.8785C188.995 32.8182 189.14 31.7427 189.246 30.6518C189.282 30.3476 189.371 30.0936 189.514 29.8897C189.668 29.6688 189.868 29.5367 190.114 29.4934C190.287 29.4629 190.443 29.5024 190.582 29.612C190.735 29.7191 190.83 29.881 190.868 30.0976C190.917 30.372 190.892 30.8678 190.796 31.5849C190.713 32.2994 190.605 33.2046 190.47 34.3006C190.35 35.3941 190.251 36.6476 190.173 38.0614C190.106 39.4582 190.109 40.9917 190.18 42.6621C190.265 44.3299 190.471 46.0882 190.797 47.937C190.868 48.3414 190.84 48.6889 190.713 48.9795C190.588 49.2845 190.403 49.4586 190.157 49.5019C190.013 49.5274 189.869 49.5155 189.726 49.4662C189.584 49.4169 189.437 49.2639 189.288 49.0073C189.155 48.7626 189.011 48.3637 188.854 47.8106C188.694 47.243 188.528 46.4681 188.354 45.486C188.222 44.7349 188.121 43.9112 188.053 43.0148C187.6 44.3308 187.062 45.5053 186.44 46.5384C185.83 47.5544 185.206 48.3644 184.568 48.9684C183.944 49.5699 183.379 49.9152 182.874 50.0043C182.253 50.1138 181.71 49.9935 181.246 49.6434C180.799 49.3052 180.505 48.7317 180.362 47.9228C180.237 47.2151 180.275 46.4564 180.475 45.6467C180.674 44.837 180.985 44.0227 181.406 43.2038C181.825 42.3703 182.31 41.5701 182.86 40.8029C183.409 40.0358 183.973 39.3481 184.551 38.7399C185.141 38.1146 185.7 37.6139 186.23 37.2376C186.757 36.8468 187.201 36.6196 187.562 36.5559C187.706 36.5305 187.845 36.5581 187.978 36.6388C188.112 36.7196 188.191 36.8322 188.217 36.9766ZM188.053 37.6979C187.97 37.8168 187.865 37.9396 187.739 38.0662C187.612 38.1927 187.472 38.3291 187.319 38.4752C186.763 39.035 186.154 39.6785 185.493 40.4057C184.843 41.1159 184.233 41.8788 183.662 42.6943C183.103 43.4929 182.673 44.3059 182.372 45.1334C182.071 45.9609 181.991 46.7718 182.131 47.5662C182.192 47.9129 182.396 48.0556 182.743 47.9945C183.219 47.9105 183.7 47.5949 184.184 47.0478C184.68 46.4837 185.161 45.7438 185.625 44.828C186.086 43.8977 186.523 42.8302 186.936 41.6255C187.347 40.4064 187.719 39.0972 188.053 37.6979ZM15.985 115.629C15.6673 115.685 15.4052 115.635 15.1987 115.477C15.0093 115.332 14.8942 115.144 14.8534 114.913C14.8178 114.711 14.8713 114.508 15.0141 114.304C15.1688 114.083 15.3922 113.872 15.6845 113.672C16.2088 113.266 16.697 112.868 17.149 112.475C17.6155 112.08 17.9771 111.681 18.2337 111.279C18.4904 110.876 18.5843 110.48 18.5155 110.09C18.457 109.757 18.3041 109.524 18.0568 109.389C17.8071 109.239 17.4944 109.197 17.1189 109.264C16.9022 109.302 16.6065 109.399 16.2318 109.554C15.8546 109.695 15.4438 109.857 14.9994 110.039C14.5669 110.205 14.1417 110.369 13.7236 110.532C13.303 110.681 12.9411 110.782 12.6378 110.836C12.0889 110.932 11.6543 110.875 11.3341 110.663C11.0112 110.437 10.8091 110.093 10.7276 109.631C10.6868 109.4 10.7629 109.029 10.9559 108.518C11.1488 108.008 11.4195 107.431 11.7679 106.789C12.1282 106.13 12.5319 105.463 12.9789 104.789C13.4259 104.114 13.8877 103.482 14.3645 102.891C14.8556 102.298 15.32 101.807 15.7576 101.417C16.2097 101.024 16.6018 100.799 16.934 100.74C17.2662 100.682 17.5381 100.745 17.7496 100.931C17.9611 101.118 18.0962 101.377 18.1548 101.709C18.2006 101.969 18.1967 102.2 18.1432 102.404C18.0871 102.592 17.9307 102.761 17.6741 102.911C17.432 103.058 17.0377 103.187 16.4914 103.298C16.0071 103.845 15.498 104.463 14.9644 105.153C14.4426 105.826 13.9752 106.512 13.5622 107.21C13.1611 107.891 12.8934 108.527 12.7591 109.116C13.2077 108.874 13.7613 108.634 14.4198 108.399C15.0901 108.147 15.7792 107.958 16.487 107.834C17.5991 107.638 18.467 107.745 19.0906 108.156C19.726 108.551 20.1151 109.152 20.2577 109.961C20.3494 110.481 20.2788 111.052 20.0459 111.674C19.8249 112.279 19.4964 112.865 19.0605 113.434C18.6246 114.002 18.136 114.483 17.5947 114.876C17.056 115.284 16.5194 115.535 15.985 115.629ZM25.0568 113.024C24.6379 113.098 24.2203 112.926 23.8041 112.508C23.3878 112.09 23.1135 111.505 22.9811 110.754C22.8359 109.931 22.7889 109.031 22.84 108.054C22.9055 107.074 23.0191 106.071 23.1807 105.045C23.3397 104.004 23.4978 103.001 23.6552 102.035C23.6943 101.834 23.7712 101.679 23.8859 101.57C24.0125 101.443 24.2203 101.354 24.5091 101.303C25.0291 101.212 25.3337 101.419 25.4228 101.924C25.4432 102.04 25.4312 102.31 25.387 102.735C25.3428 103.159 25.279 103.685 25.1956 104.31C25.1267 104.933 25.0595 105.607 24.994 106.334C24.9259 107.046 24.8808 107.761 24.8586 108.48C24.8364 109.198 24.8486 109.859 24.8953 110.461C25.0831 110.175 25.2769 109.754 25.4766 109.197C25.6908 108.638 25.9152 108.01 26.1498 107.314C26.3818 106.603 26.6283 105.889 26.8892 105.173C27.1476 104.442 27.4162 103.769 27.6949 103.154C27.9856 102.522 28.2822 102.008 28.5847 101.612C28.8991 101.199 29.2152 100.965 29.533 100.909C29.9952 100.827 30.4106 100.903 30.7793 101.136C31.1599 101.352 31.4993 101.798 31.7974 102.476C32.1074 103.136 32.3745 104.101 32.5986 105.372C32.7183 106.051 32.8954 106.675 33.1298 107.245C33.3787 107.811 33.6866 108.249 34.0536 108.556C34.4325 108.847 34.8674 108.949 35.3585 108.862C36.0952 108.732 36.7294 108.486 37.2614 108.125C37.7907 107.748 38.2356 107.357 38.5958 106.951C38.968 106.528 39.2757 106.161 39.5187 105.85C39.7592 105.525 39.9589 105.348 40.1177 105.32C40.4499 105.261 40.6466 105.405 40.7077 105.752C40.7332 105.897 40.6656 106.147 40.505 106.503C40.3563 106.842 40.1285 107.239 39.8217 107.695C39.5269 108.135 39.1729 108.577 38.76 109.022C38.3589 109.45 37.9115 109.827 37.4178 110.152C36.9386 110.475 36.4318 110.684 35.8974 110.778C34.9007 110.953 34.0503 110.902 33.346 110.624C32.6561 110.344 32.0806 109.783 31.6194 108.941C31.1726 108.096 30.8168 106.923 30.5519 105.421C30.4067 104.597 30.2505 104.007 30.0831 103.649C29.9277 103.274 29.7158 103.044 29.4473 102.957C29.3275 103.291 29.18 103.764 29.0049 104.375C28.8272 104.973 28.6177 105.643 28.3763 106.385C28.1494 107.125 27.902 107.876 27.6343 108.638C27.3784 109.383 27.1065 110.079 26.8184 110.726C26.5302 111.372 26.2375 111.908 25.94 112.332C25.6401 112.743 25.3457 112.973 25.0568 113.024ZM40.8799 110.86C40.6055 110.908 40.3421 110.85 40.0898 110.686C39.8349 110.508 39.668 110.195 39.5891 109.747C39.533 109.429 39.4987 108.981 39.486 108.403C39.4708 107.809 39.4756 107.161 39.5003 106.456C39.525 105.752 39.5583 105.054 39.6 104.361C39.6536 103.652 39.72 103.015 39.7991 102.45C39.8782 101.885 39.9598 101.461 40.0439 101.178C40.1238 100.955 40.2092 100.806 40.3002 100.731C40.4055 100.652 40.5088 100.604 40.6099 100.587C40.8121 100.551 40.9969 100.585 41.1642 100.69C41.346 100.792 41.47 101.031 41.5363 101.406C41.5745 101.623 41.5948 101.992 41.5973 102.512C41.6117 103.016 41.6124 103.612 41.5996 104.299C41.5986 104.969 41.5871 105.664 41.5649 106.383C41.5546 107.085 41.5392 107.758 41.5187 108.402C41.4982 109.046 41.4888 109.583 41.4905 110.015C41.4734 110.256 41.4042 110.455 41.2826 110.61C41.173 110.749 41.0388 110.832 40.8799 110.86ZM40.8905 98.5042C40.5583 98.5628 40.2227 98.5177 39.8838 98.369C39.5592 98.2177 39.3575 97.9182 39.2785 97.4705C39.2123 97.0949 39.2455 96.7763 39.3781 96.5146C39.5251 96.2504 39.7125 96.0461 39.9402 95.9017C40.1798 95.7403 40.3935 95.6431 40.5812 95.61C40.769 95.5769 40.9861 95.5833 41.2325 95.6292C41.4908 95.6581 41.7257 95.7656 41.9372 95.9517C42.1462 96.1234 42.2863 96.4114 42.3576 96.8158C42.406 97.0903 42.3554 97.3524 42.2059 97.6021C42.0537 97.8375 41.8507 98.0371 41.5966 98.201C41.357 98.3624 41.1216 98.4635 40.8905 98.5042ZM47.3831 116.236C47.1375 116.28 46.9273 116.227 46.7523 116.079C46.5917 115.929 46.4681 115.608 46.3815 115.117C46.2567 114.409 46.1621 113.577 46.0977 112.62C46.0332 111.664 45.9947 110.643 45.9821 109.558C45.984 108.471 46.0003 107.38 46.031 106.288C46.0762 105.193 46.1375 104.147 46.215 103.15C46.3069 102.151 46.4106 101.262 46.5263 100.482C46.6394 99.6873 46.7589 99.0556 46.8847 98.5866C47.0249 98.1151 47.1745 97.8653 47.3334 97.8373C47.6078 97.7889 47.8385 97.8302 48.0254 97.961C48.2267 98.0894 48.3554 98.3124 48.4114 98.6302C48.4827 99.0346 48.4759 99.7134 48.3908 100.667C48.3031 101.606 48.1917 102.831 48.0564 104.345C48.3003 103.617 48.568 102.854 48.8596 102.058C49.1511 101.262 49.4681 100.484 49.8106 99.7238C50.1506 98.949 50.5032 98.2464 50.8687 97.6161C51.2485 96.9831 51.6331 96.4611 52.0222 96.05C52.4114 95.6388 52.8155 95.3963 53.2343 95.3224C53.6821 95.2435 54.1048 95.3179 54.5023 95.5456C54.8974 95.7589 55.2308 96.0874 55.5026 96.5309C55.7863 96.9574 55.9791 97.4596 56.081 98.0373C56.2924 99.2362 56.2952 100.435 56.0894 101.633C55.8811 102.816 55.4948 103.919 54.9305 104.942C54.3781 105.948 53.6639 106.796 52.7879 107.487C51.9262 108.175 50.9394 108.617 49.8272 108.813C49.4083 108.887 49.0289 108.931 48.6891 108.947C48.3493 108.962 48.0515 108.962 47.7957 108.948C47.7905 109.932 47.7976 110.943 47.817 111.982C47.8364 113.021 47.8672 114.125 47.9095 115.294C47.9197 115.605 47.8844 115.828 47.8037 115.961C47.7255 116.109 47.5853 116.201 47.3831 116.236ZM53.9146 96.9003C53.6113 96.9537 53.2808 97.1907 52.923 97.6112C52.5797 98.0292 52.2207 98.5691 51.8459 99.2309C51.4831 99.8757 51.1244 100.587 50.77 101.364C50.4131 102.127 50.0731 102.902 49.7502 103.689C49.4272 104.475 49.1314 105.205 48.8628 105.878C48.6087 106.548 48.4018 107.106 48.242 107.551C49.3635 107.324 50.3134 106.925 51.0918 106.356C51.8675 105.773 52.5002 105.095 52.9897 104.324C53.4766 103.538 53.8391 102.722 54.0771 101.876C54.327 101.012 54.4737 100.197 54.5171 99.4301C54.558 98.6484 54.53 97.9832 54.4333 97.4343C54.362 97.0299 54.1891 96.8519 53.9146 96.9003ZM61.1569 113.808C60.9114 113.851 60.7011 113.799 60.5261 113.651C60.3655 113.5 60.242 113.18 60.1554 112.688C60.0306 111.981 59.936 111.148 59.8715 110.192C59.8071 109.235 59.7686 108.214 59.756 107.129C59.7578 106.042 59.7741 104.952 59.8049 103.859C59.85 102.764 59.9114 101.718 59.9888 100.722C60.0807 99.7224 60.1845 98.8329 60.3001 98.0529C60.4133 97.2586 60.5327 96.6269 60.6585 96.1579C60.7988 95.6864 60.9483 95.4366 61.1072 95.4086C61.3817 95.3602 61.6123 95.4015 61.7992 95.5323C62.0006 95.6607 62.1293 95.8837 62.1853 96.2015C62.2566 96.6059 62.2497 97.2847 62.1646 98.238C62.077 99.1768 61.9655 100.403 61.8302 101.916C62.0741 101.188 62.3419 100.426 62.6334 99.6297C62.9249 98.8337 63.2419 98.0555 63.5844 97.2951C63.9244 96.5203 64.2771 95.8177 64.6425 95.1874C65.0224 94.5544 65.4069 94.0324 65.7961 93.6212C66.1853 93.2101 66.5893 92.9676 67.0082 92.8937C67.4559 92.8148 67.8786 92.8892 68.2762 93.1169C68.6712 93.3302 69.0047 93.6587 69.2765 94.1022C69.5602 94.5287 69.753 95.0309 69.8549 95.6086C70.0662 96.8075 70.0691 98.0059 69.8633 99.2038C69.655 100.387 69.2687 101.49 68.7044 102.513C68.152 103.519 67.4378 104.367 66.5617 105.058C65.7001 105.746 64.7132 106.188 63.601 106.384C63.1822 106.458 62.8028 106.503 62.4629 106.518C62.1231 106.533 61.8253 106.534 61.5696 106.519C61.5643 107.503 61.5714 108.514 61.5908 109.554C61.6102 110.593 61.6411 111.697 61.6834 112.866C61.6935 113.177 61.6582 113.399 61.5775 113.532C61.4993 113.68 61.3591 113.772 61.1569 113.808ZM67.6885 94.4716C67.3852 94.525 67.0546 94.762 66.6969 95.1825C66.3536 95.6005 65.9945 96.1404 65.6198 96.8022C65.2569 97.447 64.8983 98.1581 64.5439 98.9354C64.1869 99.6983 63.847 100.473 63.524 101.26C63.201 102.047 62.9053 102.776 62.6367 103.449C62.3826 104.119 62.1756 104.677 62.0158 105.122C63.1373 104.895 64.0873 104.497 64.8656 103.927C65.6414 103.344 66.274 102.666 66.7635 101.895C67.2504 101.109 67.6129 100.293 67.8509 99.4469C68.1008 98.5838 68.2475 97.7686 68.2909 97.0014C68.3318 96.2197 68.3039 95.5545 68.2071 95.0056C68.1358 94.6012 67.9629 94.4232 67.6885 94.4716ZM98.2833 90.2609C98.3139 90.4342 98.0955 90.6737 97.6281 90.9795C97.1753 91.2828 96.5503 91.6238 95.7533 92.0026C94.9538 92.367 94.0531 92.7492 93.0514 93.1492C92.0641 93.5467 91.0441 93.9276 89.9913 94.292C89.8382 95.704 89.6948 97.1292 89.5613 98.5676C89.4251 99.9916 89.3255 101.327 89.2625 102.574C89.2455 102.816 89.1592 103.002 89.0037 103.134C88.8652 103.277 88.6948 103.367 88.4926 103.403C88.2615 103.443 88.0551 103.413 87.8733 103.311C87.694 103.223 87.5865 103.078 87.5509 102.876C87.4872 102.515 87.4677 101.982 87.4925 101.278C87.5172 100.574 87.5662 99.7534 87.6394 98.8171C87.727 97.8783 87.8117 96.8805 87.8934 95.8235C87.4311 96.9178 86.8935 97.9657 86.2808 98.9673C85.6681 99.9689 85.0015 100.876 84.2809 101.688C83.5603 102.5 82.7926 103.172 81.9777 103.702C81.1773 104.231 80.3365 104.573 79.4555 104.728C78.0833 104.97 77.0158 104.786 76.2529 104.176C75.49 103.566 74.9813 102.538 74.7266 101.094C74.584 100.285 74.5352 99.4597 74.5804 98.6178C74.6374 97.7588 74.7671 96.9317 74.9694 96.1365C75.1862 95.3388 75.4543 94.6213 75.7739 93.9841C76.0909 93.3325 76.444 92.8011 76.8331 92.39C77.2368 91.9763 77.648 91.7325 78.0669 91.6586C78.8757 91.516 79.5146 91.6342 79.9836 92.0132C80.4525 92.3922 80.7456 92.9139 80.8627 93.5783C80.985 94.2716 80.942 94.9568 80.7337 95.6339C80.5255 96.3111 80.1987 96.9495 79.7534 97.5493C79.3081 98.149 78.7996 98.6855 78.2277 99.1586C77.6533 99.6174 77.067 99.9665 76.4688 100.206C76.4773 100.339 76.493 100.47 76.5159 100.6C76.6968 101.625 77.0093 102.3 77.4536 102.624C77.9098 102.93 78.5568 103.01 79.3946 102.862C80.2034 102.72 81.0123 102.324 81.8212 101.675C82.6446 101.023 83.4323 100.17 84.1844 99.1136C84.9509 98.0551 85.6473 96.8525 86.2737 95.506C85.6653 95.6877 85.0977 95.8474 84.571 95.9849C84.0561 96.1055 83.6036 96.2002 83.2137 96.2689C82.8092 96.3403 82.5174 96.3321 82.3381 96.2446C82.1733 96.1545 82.0667 95.9723 82.0183 95.6978C81.9979 95.5823 82.0447 95.4251 82.1586 95.2263C82.2869 95.025 82.4437 94.9005 82.6289 94.853C83.4539 94.633 84.2343 94.4135 84.9701 94.1944C85.7203 93.9728 86.4332 93.7503 87.1087 93.5269C87.3722 92.8252 87.6161 92.0971 87.8405 91.3427C88.0624 90.5738 88.26 89.7943 88.4334 89.0042C88.5372 87.988 88.6589 87.073 88.7983 86.2591C88.9522 85.4426 89.1426 84.791 89.3695 84.3042C89.6083 83.8004 89.9011 83.518 90.2477 83.4568C90.4066 83.4288 90.5566 83.4769 90.6976 83.6009C90.853 83.7224 90.9537 83.9132 90.9995 84.1732C91.0326 84.361 91.0156 84.8554 90.9484 85.6566C90.8786 86.4433 90.771 87.4378 90.6255 88.64C90.492 89.8252 90.3473 91.1166 90.1917 92.5142C92.4101 91.7507 94.115 91.115 95.3062 90.6071C96.4974 90.0992 97.2592 89.8159 97.5914 89.7574C97.7791 89.7242 97.935 89.7638 98.0591 89.8759C98.1805 89.9737 98.2553 90.102 98.2833 90.2609ZM76.4207 98.539C76.9305 98.1364 77.4034 97.6509 77.8393 97.0826C78.2752 96.5142 78.6134 95.9408 78.854 95.3622C79.1089 94.7811 79.1969 94.2667 79.118 93.8189C79.0467 93.4145 78.8233 93.2454 78.4477 93.3116C78.1444 93.3651 77.8457 93.6561 77.5517 94.1845C77.2695 94.6959 77.026 95.342 76.8212 96.1228C76.6163 96.9035 76.4828 97.709 76.4207 98.539Z" fill="#151531"/>
<defs>
<clipPath id="clip0_843_31979">
<rect width="164.282" height="109" fill="white" transform="translate(147)"/>
</clipPath>
</defs>
</svg>
