<svg width="525" height="183" viewBox="0 0 525 183" fill="none" xmlns="http://www.w3.org/2000/svg">
<g id="Group 2242">
<g id="Rectangle 7343" filter="url(#filter0_dd_792_13131)">
<path d="M10 24.0002C10 15.1637 17.1634 8.00024 26 8.00024H499C507.837 8.00024 515 15.1637 515 24.0002V183H10V24.0002Z" fill="white"/>
</g>
<g id="Group 4542">
<path id="Product Analytics that works for you" d="M63.3818 45C62.5469 45 62.0547 44.4902 62.0547 43.6113V33.6973C62.0547 32.8271 62.5469 32.3174 63.3818 32.3174H69.4111C70.1406 32.3174 70.6152 32.7305 70.6152 33.416C70.6152 34.1016 70.1318 34.5146 69.4111 34.5146H64.709V37.5645H69.1826C69.8418 37.5645 70.29 37.9512 70.29 38.584C70.29 39.2168 69.8506 39.6035 69.1826 39.6035H64.709V42.8027H69.4111C70.1318 42.8027 70.6152 43.2158 70.6152 43.9014C70.6152 44.5869 70.1406 45 69.4111 45H63.3818ZM73.4365 45.1846C72.6895 45.1846 72.1533 44.7275 72.1533 43.8486V36.6768C72.1533 35.877 72.6191 35.3848 73.3926 35.3848C74.166 35.3848 74.6758 35.877 74.6758 36.6855V37.2129H74.7285C75.2295 36.0439 76.1787 35.4023 77.6289 35.4023C79.7207 35.4023 80.8984 36.7207 80.8984 38.9268V43.8486C80.8984 44.7275 80.3623 45.1846 79.6152 45.1846C78.8594 45.1846 78.332 44.7275 78.332 43.8486V39.4629C78.332 38.2324 77.752 37.5293 76.6006 37.5293C75.4492 37.5293 74.7197 38.373 74.7197 39.5947V43.8486C74.7197 44.7275 74.1924 45.1846 73.4365 45.1846ZM83.8076 45.1846C83.0342 45.1846 82.5244 44.7012 82.5244 43.8486V36.6768C82.5244 35.8594 83.0254 35.3848 83.7637 35.3848C84.4844 35.3848 84.9766 35.8594 84.9766 36.6768V37.292H85.0293C85.2754 36.123 86.0488 35.4287 86.9893 35.4287C87.332 35.4287 87.6045 35.5078 87.7891 35.666C88.0352 35.8594 88.1582 36.1758 88.1582 36.6152C88.1582 37.0195 88.0352 37.3271 87.7891 37.5381C87.543 37.749 87.1738 37.8633 86.6729 37.8721C85.5039 37.8896 85.0908 38.5488 85.0908 39.665V43.8486C85.0908 44.7012 84.5898 45.1846 83.8076 45.1846ZM90.4082 34.4092C89.6348 34.4092 89.0371 33.8203 89.0371 33.082C89.0371 32.335 89.6348 31.7549 90.4082 31.7549C91.1816 31.7549 91.7793 32.335 91.7793 33.082C91.7793 33.8203 91.1816 34.4092 90.4082 34.4092ZM90.4082 45.1846C89.6084 45.1846 89.125 44.6836 89.125 43.8486V36.7295C89.125 35.8945 89.6084 35.3848 90.4082 35.3848C91.1992 35.3848 91.6914 35.8945 91.6914 36.7295V43.8486C91.6914 44.6836 91.1992 45.1846 90.4082 45.1846ZM97.7031 45.2021C94.8643 45.2021 93.0625 43.3389 93.0625 40.2891C93.0625 37.2744 94.8555 35.376 97.6855 35.376C99.5752 35.376 101.148 36.29 101.658 37.626C101.746 37.8457 101.799 38.0742 101.799 38.2588C101.799 38.8916 101.307 39.2607 100.7 39.2607C100.19 39.2607 99.8828 39.0586 99.6191 38.5928C99.1533 37.7666 98.582 37.3887 97.7646 37.3887C96.4639 37.3887 95.6641 38.4609 95.6641 40.2803C95.6641 42.1348 96.4639 43.1895 97.7471 43.1895C98.6436 43.1895 99.1973 42.75 99.5928 42.082C99.9355 41.5459 100.217 41.3262 100.762 41.3262C101.359 41.3262 101.843 41.7217 101.843 42.3545C101.843 42.5566 101.79 42.7676 101.676 43.0225C101.113 44.3057 99.5049 45.2021 97.7031 45.2021ZM104.559 45.1846C103.812 45.1846 103.275 44.7275 103.275 43.8486V33.4424C103.275 32.6162 103.75 32.124 104.541 32.124C105.332 32.124 105.798 32.6162 105.798 33.4424V37.2568H105.851C106.352 36.0703 107.38 35.4023 108.812 35.4023C110.904 35.4023 112.1 36.7559 112.1 38.9355V43.8486C112.1 44.7275 111.572 45.1846 110.816 45.1846C110.069 45.1846 109.533 44.7275 109.533 43.8486V39.4805C109.533 38.2676 108.936 37.5293 107.767 37.5293C106.554 37.5293 105.842 38.3818 105.842 39.6211V43.8486C105.842 44.7275 105.314 45.1846 104.559 45.1846ZM118.076 45.2021C115.132 45.2021 113.4 43.3828 113.4 40.333C113.4 37.3008 115.167 35.376 117.953 35.376C120.625 35.376 122.418 37.2041 122.418 39.7617C122.418 40.4736 122.014 40.8779 121.302 40.8779H115.923V40.9922C115.923 42.3896 116.767 43.3037 118.067 43.3037C119.008 43.3037 119.623 42.9873 120.317 42.1699C120.59 41.8887 120.818 41.792 121.152 41.792C121.706 41.792 122.154 42.1436 122.154 42.7324C122.154 42.9346 122.093 43.1455 121.979 43.3564C121.354 44.5166 119.896 45.2021 118.076 45.2021ZM115.949 39.3047H119.948C119.896 38.0742 119.104 37.2744 117.979 37.2744C116.854 37.2744 116.037 38.1006 115.949 39.3047ZM127.243 45.1494C124.888 45.1494 123.402 43.2861 123.402 40.2715C123.402 37.2832 124.896 35.4287 127.261 35.4287C128.623 35.4287 129.678 36.1494 130.135 37.1953H130.188V33.4688C130.188 32.5898 130.724 32.124 131.471 32.124C132.227 32.124 132.754 32.5898 132.754 33.4688V43.8838C132.754 44.7363 132.227 45.1846 131.479 45.1846C130.741 45.1846 130.188 44.7451 130.188 43.8838V43.3389H130.144C129.73 44.3936 128.693 45.1494 127.243 45.1494ZM128.113 43.084C129.388 43.084 130.205 42.0117 130.205 40.2891C130.205 38.5752 129.388 37.4854 128.113 37.4854C126.821 37.4854 126.03 38.5664 126.03 40.2891C126.03 42.0205 126.821 43.084 128.113 43.084ZM141.2 45.1846C140.312 45.1846 139.847 44.7715 139.574 43.8398L137.676 37.2744C137.579 36.9404 137.535 36.7295 137.535 36.4834C137.535 35.8418 138.054 35.3848 138.774 35.3848C139.416 35.3848 139.829 35.7715 139.979 36.4746L141.376 42.5654H141.429L142.888 36.5625C143.055 35.7979 143.556 35.3848 144.338 35.3848C145.103 35.3848 145.604 35.7979 145.771 36.5625L147.238 42.5654H147.291L148.697 36.457C148.838 35.7715 149.251 35.3848 149.884 35.3848C150.596 35.3848 151.097 35.833 151.097 36.4746C151.097 36.7119 151.053 36.9229 150.956 37.2568L149.058 43.8311C148.794 44.7627 148.302 45.1846 147.414 45.1846C146.474 45.1846 145.973 44.7803 145.753 43.8223L144.32 38.3379H144.268L142.844 43.8398C142.624 44.7715 142.114 45.1846 141.2 45.1846ZM153.584 34.4092C152.811 34.4092 152.213 33.8203 152.213 33.082C152.213 32.335 152.811 31.7549 153.584 31.7549C154.357 31.7549 154.955 32.335 154.955 33.082C154.955 33.8203 154.357 34.4092 153.584 34.4092ZM153.584 45.1846C152.784 45.1846 152.301 44.6836 152.301 43.8486V36.7295C152.301 35.8945 152.784 35.3848 153.584 35.3848C154.375 35.3848 154.867 35.8945 154.867 36.7295V43.8486C154.867 44.6836 154.375 45.1846 153.584 45.1846ZM157.267 42.5918V37.5117H156.774C156.168 37.5117 155.781 37.1426 155.781 36.5449C155.781 35.9473 156.168 35.5781 156.774 35.5781H157.267V34.5322C157.267 33.7061 157.75 33.1963 158.55 33.1963C159.35 33.1963 159.833 33.7061 159.833 34.5322V35.5781H160.738C161.345 35.5781 161.723 35.9561 161.723 36.5449C161.723 37.1338 161.345 37.5117 160.738 37.5117H159.833V42.0205C159.833 42.6885 160.062 42.9697 160.615 43.0137L160.782 43.0312C161.415 43.1016 161.758 43.3652 161.758 43.9629C161.758 44.7188 161.02 45.1055 159.938 45.1055H159.851C158.137 45.1055 157.267 44.2529 157.267 42.5918ZM164.324 45.1846C163.577 45.1846 163.041 44.7275 163.041 43.8486V33.4424C163.041 32.6162 163.516 32.124 164.307 32.124C165.098 32.124 165.563 32.6162 165.563 33.4424V37.2568H165.616C166.117 36.0703 167.146 35.4023 168.578 35.4023C170.67 35.4023 171.865 36.7559 171.865 38.9355V43.8486C171.865 44.7275 171.338 45.1846 170.582 45.1846C169.835 45.1846 169.299 44.7275 169.299 43.8486V39.4805C169.299 38.2676 168.701 37.5293 167.532 37.5293C166.319 37.5293 165.607 38.3818 165.607 39.6211V43.8486C165.607 44.7275 165.08 45.1846 164.324 45.1846ZM178.141 45.167C177.314 45.167 176.796 44.6836 176.796 43.9189C176.796 43.6992 176.857 43.4004 176.972 43.0752L180.435 33.6445C180.804 32.6162 181.428 32.1416 182.43 32.1416C183.467 32.1416 184.082 32.5986 184.46 33.6357L187.94 43.0752C188.063 43.418 188.107 43.6553 188.107 43.9189C188.107 44.6484 187.554 45.167 186.78 45.167C186.033 45.167 185.638 44.8242 185.4 43.998L184.732 41.9941H180.153L179.485 43.9717C179.239 44.8154 178.844 45.167 178.141 45.167ZM180.733 39.9375H184.117L182.438 34.7432H182.377L180.733 39.9375ZM191.052 45.167C190.217 45.167 189.725 44.6572 189.725 43.7871V33.5303C189.725 32.6514 190.217 32.1416 191.052 32.1416C191.887 32.1416 192.379 32.6514 192.379 33.5303V43.7871C192.379 44.6572 191.887 45.167 191.052 45.167Z" fill="url(#paint0_linear_792_13131)"/>
<g id="Frame">
<path id="Vector" fillRule="evenodd" clipRule="evenodd" d="M37.9999 31.5C38.1629 31.5 38.3214 31.5531 38.4515 31.6513C38.5816 31.7495 38.6762 31.8873 38.7209 32.044L39.5339 34.89C39.709 35.5029 40.0374 36.0611 40.4881 36.5118C40.9388 36.9626 41.497 37.2909 42.1099 37.466L44.9559 38.279C45.1125 38.3239 45.2503 38.4185 45.3483 38.5486C45.4464 38.6786 45.4994 38.8371 45.4994 39C45.4994 39.1629 45.4464 39.3214 45.3483 39.4514C45.2503 39.5815 45.1125 39.6761 44.9559 39.721L42.1099 40.534C41.497 40.7091 40.9388 41.0374 40.4881 41.4882C40.0374 41.9389 39.709 42.4971 39.5339 43.11L38.7209 45.956C38.6761 46.1126 38.5815 46.2503 38.4514 46.3484C38.3213 46.4464 38.1628 46.4995 37.9999 46.4995C37.8371 46.4995 37.6786 46.4464 37.5485 46.3484C37.4184 46.2503 37.3238 46.1126 37.2789 45.956L36.4659 43.11C36.2909 42.4971 35.9625 41.9389 35.5118 41.4882C35.061 41.0374 34.5029 40.7091 33.8899 40.534L31.0439 39.721C30.8874 39.6761 30.7496 39.5815 30.6516 39.4514C30.5535 39.3214 30.5005 39.1629 30.5005 39C30.5005 38.8371 30.5535 38.6786 30.6516 38.5486C30.7496 38.4185 30.8874 38.3239 31.0439 38.279L33.8899 37.466C34.5029 37.2909 35.061 36.9626 35.5118 36.5118C35.9625 36.0611 36.2909 35.5029 36.4659 34.89L37.2789 32.044C37.3237 31.8873 37.4183 31.7495 37.5484 31.6513C37.6785 31.5531 37.837 31.5 37.9999 31.5ZM46.9999 28.5C47.1673 28.4999 47.3298 28.5558 47.4617 28.6587C47.5936 28.7616 47.6873 28.9057 47.7279 29.068L47.9859 30.104C48.2219 31.044 48.9559 31.778 49.8959 32.014L50.9319 32.272C51.0946 32.3123 51.239 32.4059 51.3423 32.5378C51.4455 32.6697 51.5016 32.8325 51.5016 33C51.5016 33.1675 51.4455 33.3303 51.3423 33.4622C51.239 33.5941 51.0946 33.6877 50.9319 33.728L49.8959 33.986C48.9559 34.222 48.2219 34.956 47.9859 35.896L47.7279 36.932C47.6877 37.0946 47.5941 37.2391 47.4621 37.3423C47.3302 37.4456 47.1675 37.5017 46.9999 37.5017C46.8324 37.5017 46.6697 37.4456 46.5377 37.3423C46.4058 37.2391 46.3122 37.0946 46.2719 36.932L46.0139 35.896C45.8986 35.4344 45.6599 35.0129 45.3235 34.6765C44.987 34.3401 44.5655 34.1014 44.1039 33.986L43.0679 33.728C42.9053 33.6877 42.7609 33.5941 42.6576 33.4622C42.5544 33.3303 42.4983 33.1675 42.4983 33C42.4983 32.8325 42.5544 32.6697 42.6576 32.5378C42.7609 32.4059 42.9053 32.3123 43.0679 32.272L44.1039 32.014C44.5655 31.8986 44.987 31.6599 45.3235 31.3235C45.6599 30.9871 45.8986 30.5656 46.0139 30.104L46.2719 29.068C46.3125 28.9057 46.4063 28.7616 46.5382 28.6587C46.6701 28.5558 46.8326 28.4999 46.9999 28.5ZM45.4999 42C45.6575 41.9999 45.811 42.0494 45.9388 42.1415C46.0666 42.2336 46.1622 42.3636 46.2119 42.513L46.6059 43.696C46.7559 44.143 47.1059 44.495 47.5539 44.644L48.7369 45.039C48.8859 45.089 49.0154 45.1845 49.1071 45.3121C49.1989 45.4397 49.2482 45.5929 49.2482 45.75C49.2482 45.9071 49.1989 46.0603 49.1071 46.1879C49.0154 46.3155 48.8859 46.411 48.7369 46.461L47.5539 46.856C47.1069 47.006 46.7549 47.356 46.6059 47.804L46.2109 48.987C46.1609 49.136 46.0654 49.2655 45.9378 49.3572C45.8103 49.4489 45.6571 49.4983 45.4999 49.4983C45.3428 49.4983 45.1896 49.4489 45.0621 49.3572C44.9345 49.2655 44.839 49.136 44.7889 48.987L44.3939 47.804C44.3203 47.5833 44.1963 47.3827 44.0318 47.2182C43.8672 47.0537 43.6667 46.9297 43.4459 46.856L42.2629 46.461C42.114 46.411 41.9845 46.3155 41.8927 46.1879C41.801 46.0603 41.7516 45.9071 41.7516 45.75C41.7516 45.5929 41.801 45.4397 41.8927 45.3121C41.9845 45.1845 42.114 45.089 42.2629 45.039L43.4459 44.644C43.8929 44.494 44.2449 44.144 44.3939 43.696L44.7889 42.513C44.8387 42.3637 44.9341 42.2339 45.0617 42.1418C45.1893 42.0497 45.3426 42.0001 45.4999 42Z" fill="#C172FF"/>
</g>
</g>
<g id="Group 3524">
<g id="Group 3374">
<g id="Group 3372">
<g id="Group 1906">
<g id="Group 3371">
<path id="Website" d="M60.0824 87L57.2983 76.8182H58.5511L60.679 85.1108H60.7784L62.946 76.8182H64.3381L66.5057 85.1108H66.6051L68.733 76.8182H69.9858L67.2017 87H65.929L63.6818 78.8864H63.6023L61.3551 87H60.0824ZM73.8537 87.1591C73.1179 87.1591 72.4832 86.9967 71.9496 86.6719C71.4193 86.3438 71.0099 85.8864 70.7216 85.2997C70.4366 84.7098 70.294 84.0237 70.294 83.2415C70.294 82.4593 70.4366 81.7699 70.7216 81.1733C71.0099 80.5734 71.411 80.1061 71.9247 79.7713C72.4418 79.4332 73.045 79.2642 73.7344 79.2642C74.1321 79.2642 74.5249 79.3305 74.9126 79.4631C75.3004 79.5956 75.6534 79.8111 75.9716 80.1094C76.2898 80.4044 76.5433 80.7955 76.7322 81.2827C76.9212 81.7699 77.0156 82.3698 77.0156 83.0824V83.5795H71.1293V82.5653H75.8224C75.8224 82.1345 75.7363 81.75 75.5639 81.4119C75.3949 81.0739 75.1529 80.8071 74.8381 80.6115C74.5265 80.416 74.1586 80.3182 73.7344 80.3182C73.267 80.3182 72.8627 80.4342 72.5213 80.6662C72.1832 80.8949 71.9231 81.1932 71.7408 81.5611C71.5585 81.929 71.4673 82.3234 71.4673 82.7443V83.4205C71.4673 83.9972 71.5668 84.486 71.7656 84.8871C71.9678 85.2848 72.2479 85.5881 72.6058 85.7969C72.9638 86.0024 73.3797 86.1051 73.8537 86.1051C74.1619 86.1051 74.4403 86.062 74.6889 85.9759C74.9408 85.8864 75.1579 85.7538 75.3402 85.5781C75.5225 85.3991 75.6634 85.1771 75.7628 84.9119L76.8963 85.2301C76.777 85.6146 76.5765 85.9527 76.2947 86.2443C76.013 86.5327 75.665 86.758 75.2507 86.9205C74.8364 87.0795 74.3707 87.1591 73.8537 87.1591ZM78.9595 87V76.8182H80.1328V80.5767H80.2322C80.3184 80.4441 80.4377 80.2751 80.5902 80.0696C80.746 79.8608 80.968 79.6752 81.2564 79.5128C81.5481 79.3471 81.9425 79.2642 82.4396 79.2642C83.0826 79.2642 83.6494 79.425 84.1399 79.7464C84.6304 80.0679 85.0133 80.5237 85.2884 81.1136C85.5634 81.7036 85.701 82.3996 85.701 83.2017C85.701 84.0104 85.5634 84.7114 85.2884 85.3047C85.0133 85.8946 84.6321 86.352 84.1449 86.6768C83.6577 86.9983 83.0959 87.1591 82.4595 87.1591C81.969 87.1591 81.5762 87.0779 81.2812 86.9155C80.9863 86.7498 80.7592 86.5625 80.6001 86.3537C80.4411 86.1416 80.3184 85.9659 80.2322 85.8267H80.093V87H78.9595ZM80.1129 83.1818C80.1129 83.7585 80.1974 84.2673 80.3665 84.7081C80.5355 85.1456 80.7824 85.4886 81.1072 85.7372C81.4321 85.9825 81.8298 86.1051 82.3004 86.1051C82.791 86.1051 83.2003 85.9759 83.5284 85.7173C83.8598 85.4555 84.1084 85.1042 84.2741 84.6634C84.4432 84.2192 84.5277 83.7254 84.5277 83.1818C84.5277 82.6449 84.4448 82.161 84.2791 81.7301C84.1167 81.2959 83.8698 80.9529 83.5384 80.701C83.2102 80.4458 82.7976 80.3182 82.3004 80.3182C81.8232 80.3182 81.4221 80.4392 81.0973 80.6811C80.7725 80.9197 80.5272 81.2545 80.3615 81.6854C80.1958 82.1129 80.1129 82.6117 80.1129 83.1818ZM92.9048 81.0739L91.8509 81.3722C91.7846 81.1965 91.6868 81.0258 91.5575 80.8601C91.4316 80.6911 91.2592 80.5518 91.0405 80.4425C90.8217 80.3331 90.5417 80.2784 90.2003 80.2784C89.733 80.2784 89.3435 80.3861 89.032 80.6016C88.7237 80.8137 88.5696 81.0838 88.5696 81.4119C88.5696 81.7036 88.6757 81.9339 88.8878 82.103C89.0999 82.272 89.4313 82.4129 89.8821 82.5256L91.0156 82.804C91.6984 82.9697 92.2071 83.2232 92.5419 83.5646C92.8767 83.9027 93.044 84.3385 93.044 84.8722C93.044 85.3097 92.9181 85.7008 92.6662 86.0455C92.4176 86.3902 92.0696 86.6619 91.6222 86.8608C91.1747 87.0597 90.6544 87.1591 90.0611 87.1591C89.2822 87.1591 88.6375 86.9901 88.1271 86.652C87.6167 86.3139 87.2936 85.8201 87.1577 85.1705L88.2713 84.892C88.3774 85.303 88.5779 85.6113 88.8729 85.8168C89.1712 86.0223 89.5606 86.125 90.0412 86.125C90.5881 86.125 91.0223 86.009 91.3438 85.777C91.6686 85.5417 91.831 85.2599 91.831 84.9318C91.831 84.6667 91.7382 84.4446 91.5526 84.2656C91.367 84.0833 91.0819 83.9474 90.6974 83.858L89.4247 83.5597C88.7254 83.3939 88.2116 83.1371 87.8835 82.7891C87.5587 82.4377 87.3963 81.9986 87.3963 81.4716C87.3963 81.0407 87.5173 80.6596 87.7592 80.3281C88.0045 79.9967 88.3376 79.7365 88.7585 79.5476C89.1828 79.3587 89.6634 79.2642 90.2003 79.2642C90.956 79.2642 91.5492 79.4299 91.9801 79.7614C92.4143 80.0928 92.7225 80.5303 92.9048 81.0739ZM94.8102 87V79.3636H95.9835V87H94.8102ZM95.4068 78.0909C95.1781 78.0909 94.9809 78.013 94.8152 77.8572C94.6528 77.7015 94.5716 77.5142 94.5716 77.2955C94.5716 77.0767 94.6528 76.8894 94.8152 76.7337C94.9809 76.5779 95.1781 76.5 95.4068 76.5C95.6355 76.5 95.831 76.5779 95.9934 76.7337C96.1592 76.8894 96.242 77.0767 96.242 77.2955C96.242 77.5142 96.1592 77.7015 95.9934 77.8572C95.831 78.013 95.6355 78.0909 95.4068 78.0909ZM101.453 79.3636V80.358H97.4961V79.3636H101.453ZM98.6495 77.5341H99.8228V84.8125C99.8228 85.1439 99.8709 85.3925 99.967 85.5582C100.066 85.7206 100.192 85.83 100.345 85.8864C100.501 85.9394 100.665 85.9659 100.837 85.9659C100.966 85.9659 101.072 85.9593 101.155 85.946C101.238 85.9295 101.304 85.9162 101.354 85.9062L101.593 86.9602C101.513 86.9901 101.402 87.0199 101.26 87.0497C101.117 87.0829 100.936 87.0994 100.718 87.0994C100.386 87.0994 100.061 87.0282 99.7433 86.8857C99.4284 86.7431 99.1665 86.526 98.9577 86.2344C98.7522 85.9427 98.6495 85.5748 98.6495 85.1307V77.5341ZM106.338 87.1591C105.602 87.1591 104.968 86.9967 104.434 86.6719C103.904 86.3438 103.494 85.8864 103.206 85.2997C102.921 84.7098 102.778 84.0237 102.778 83.2415C102.778 82.4593 102.921 81.7699 103.206 81.1733C103.494 80.5734 103.895 80.1061 104.409 79.7713C104.926 79.4332 105.529 79.2642 106.219 79.2642C106.616 79.2642 107.009 79.3305 107.397 79.4631C107.785 79.5956 108.138 79.8111 108.456 80.1094C108.774 80.4044 109.028 80.7955 109.217 81.2827C109.406 81.7699 109.5 82.3698 109.5 83.0824V83.5795H103.614V82.5653H108.307C108.307 82.1345 108.221 81.75 108.048 81.4119C107.879 81.0739 107.637 80.8071 107.322 80.6115C107.011 80.416 106.643 80.3182 106.219 80.3182C105.751 80.3182 105.347 80.4342 105.006 80.6662C104.668 80.8949 104.407 81.1932 104.225 81.5611C104.043 81.929 103.952 82.3234 103.952 82.7443V83.4205C103.952 83.9972 104.051 84.486 104.25 84.8871C104.452 85.2848 104.732 85.5881 105.09 85.7969C105.448 86.0024 105.864 86.1051 106.338 86.1051C106.646 86.1051 106.925 86.062 107.173 85.9759C107.425 85.8864 107.642 85.7538 107.825 85.5781C108.007 85.3991 108.148 85.1771 108.247 84.9119L109.381 85.2301C109.261 85.6146 109.061 85.9527 108.779 86.2443C108.497 86.5327 108.149 86.758 107.735 86.9205C107.321 87.0795 106.855 87.1591 106.338 87.1591Z" fill="#868E96"/>
<g id="Frame_2">
<path id="Vector_2" d="M39 89.5C40.6625 89.4999 42.2779 88.9477 43.5925 87.93C44.9072 86.9124 45.8466 85.4869 46.2633 83.8775M39 89.5C37.3375 89.4999 35.7221 88.9477 34.4075 87.93C33.0928 86.9124 32.1534 85.4869 31.7367 83.8775M39 89.5C41.0708 89.5 42.75 86.1417 42.75 82C42.75 77.8583 41.0708 74.5 39 74.5M39 89.5C36.9292 89.5 35.25 86.1417 35.25 82C35.25 77.8583 36.9292 74.5 39 74.5M46.2633 83.8775C46.4175 83.2775 46.5 82.6483 46.5 82C46.5021 80.7101 46.1699 79.4417 45.5358 78.3183M46.2633 83.8775C44.041 85.1095 41.541 85.754 39 85.75C36.365 85.75 33.8892 85.0708 31.7367 83.8775M31.7367 83.8775C31.579 83.2641 31.4994 82.6333 31.5 82C31.5 80.6625 31.85 79.4058 32.4642 78.3183M39 74.5C40.3302 74.4994 41.6366 74.8528 42.7852 75.5238C43.9337 76.1948 44.8831 77.1593 45.5358 78.3183M39 74.5C37.6698 74.4994 36.3634 74.8528 35.2148 75.5238C34.0663 76.1948 33.1169 77.1593 32.4642 78.3183M45.5358 78.3183C43.7214 79.8899 41.4004 80.7535 39 80.75C36.5017 80.75 34.2167 79.8333 32.4642 78.3183" stroke="#868E96" stroke-width="1.25" stroke-linecap="round" stroke-linejoin="round"/>
</g>
<path id="intercom.io" d="M154.074 87V79.3636H155.247V87H154.074ZM154.67 78.0909C154.442 78.0909 154.245 78.013 154.079 77.8572C153.916 77.7015 153.835 77.5142 153.835 77.2955C153.835 77.0767 153.916 76.8894 154.079 76.7337C154.245 76.5779 154.442 76.5 154.67 76.5C154.899 76.5 155.095 76.5779 155.257 76.7337C155.423 76.8894 155.506 77.0767 155.506 77.2955C155.506 77.5142 155.423 77.7015 155.257 77.8572C155.095 78.013 154.899 78.0909 154.67 78.0909ZM158.569 82.4062V87H157.396V79.3636H158.53V80.5568H158.629C158.808 80.169 159.08 79.8575 159.444 79.6222C159.809 79.3835 160.28 79.2642 160.856 79.2642C161.373 79.2642 161.826 79.3703 162.214 79.5824C162.601 79.7912 162.903 80.1094 163.118 80.5369C163.334 80.9612 163.442 81.4981 163.442 82.1477V87H162.268V82.2273C162.268 81.6274 162.113 81.16 161.801 80.8253C161.489 80.4872 161.062 80.3182 160.518 80.3182C160.144 80.3182 159.809 80.3994 159.514 80.5618C159.222 80.7242 158.992 80.9612 158.823 81.2727C158.654 81.5843 158.569 81.9621 158.569 82.4062ZM168.907 79.3636V80.358H164.949V79.3636H168.907ZM166.103 77.5341H167.276V84.8125C167.276 85.1439 167.324 85.3925 167.42 85.5582C167.52 85.7206 167.645 85.83 167.798 85.8864C167.954 85.9394 168.118 85.9659 168.29 85.9659C168.419 85.9659 168.525 85.9593 168.608 85.946C168.691 85.9295 168.757 85.9162 168.807 85.9062L169.046 86.9602C168.966 86.9901 168.855 87.0199 168.713 87.0497C168.57 87.0829 168.39 87.0994 168.171 87.0994C167.839 87.0994 167.515 87.0282 167.196 86.8857C166.882 86.7431 166.62 86.526 166.411 86.2344C166.205 85.9427 166.103 85.5748 166.103 85.1307V77.5341ZM173.791 87.1591C173.055 87.1591 172.421 86.9967 171.887 86.6719C171.357 86.3438 170.947 85.8864 170.659 85.2997C170.374 84.7098 170.232 84.0237 170.232 83.2415C170.232 82.4593 170.374 81.7699 170.659 81.1733C170.947 80.5734 171.348 80.1061 171.862 79.7713C172.379 79.4332 172.982 79.2642 173.672 79.2642C174.07 79.2642 174.462 79.3305 174.85 79.4631C175.238 79.5956 175.591 79.8111 175.909 80.1094C176.227 80.4044 176.481 80.7955 176.67 81.2827C176.859 81.7699 176.953 82.3698 176.953 83.0824V83.5795H171.067V82.5653H175.76C175.76 82.1345 175.674 81.75 175.501 81.4119C175.332 81.0739 175.09 80.8071 174.776 80.6115C174.464 80.416 174.096 80.3182 173.672 80.3182C173.205 80.3182 172.8 80.4342 172.459 80.6662C172.121 80.8949 171.861 81.1932 171.678 81.5611C171.496 81.929 171.405 82.3234 171.405 82.7443V83.4205C171.405 83.9972 171.504 84.486 171.703 84.8871C171.905 85.2848 172.185 85.5881 172.543 85.7969C172.901 86.0024 173.317 86.1051 173.791 86.1051C174.099 86.1051 174.378 86.062 174.626 85.9759C174.878 85.8864 175.095 85.7538 175.278 85.5781C175.46 85.3991 175.601 85.1771 175.7 84.9119L176.834 85.2301C176.714 85.6146 176.514 85.9527 176.232 86.2443C175.951 86.5327 175.603 86.758 175.188 86.9205C174.774 87.0795 174.308 87.1591 173.791 87.1591ZM178.738 87V79.3636H179.871V80.517H179.951C180.09 80.1392 180.342 79.8326 180.707 79.5973C181.071 79.362 181.482 79.2443 181.94 79.2443C182.026 79.2443 182.134 79.246 182.263 79.2493C182.392 79.2526 182.49 79.2576 182.556 79.2642V80.4574C182.516 80.4474 182.425 80.4325 182.283 80.4126C182.143 80.3894 181.996 80.3778 181.84 80.3778C181.469 80.3778 181.138 80.4557 180.846 80.6115C180.558 80.764 180.329 80.9761 180.16 81.2479C179.994 81.5163 179.911 81.8229 179.911 82.1676V87H178.738ZM186.817 87.1591C186.101 87.1591 185.484 86.9901 184.967 86.652C184.45 86.3139 184.053 85.8482 183.774 85.255C183.496 84.6617 183.357 83.9839 183.357 83.2216C183.357 82.446 183.499 81.7616 183.784 81.1683C184.072 80.5717 184.473 80.1061 184.987 79.7713C185.504 79.4332 186.107 79.2642 186.797 79.2642C187.334 79.2642 187.818 79.3636 188.249 79.5625C188.679 79.7614 189.032 80.0398 189.308 80.3977C189.583 80.7557 189.753 81.1733 189.82 81.6506H188.646C188.557 81.3026 188.358 80.9943 188.05 80.7259C187.745 80.4541 187.334 80.3182 186.817 80.3182C186.359 80.3182 185.958 80.4375 185.614 80.6761C185.272 80.9115 185.005 81.2446 184.813 81.6754C184.624 82.103 184.53 82.6051 184.53 83.1818C184.53 83.7718 184.623 84.2855 184.808 84.723C184.997 85.1605 185.262 85.5002 185.604 85.7422C185.948 85.9841 186.353 86.1051 186.817 86.1051C187.122 86.1051 187.398 86.0521 187.647 85.946C187.896 85.84 188.106 85.6875 188.278 85.4886C188.451 85.2898 188.573 85.0511 188.646 84.7727H189.82C189.753 85.2235 189.589 85.6295 189.327 85.9908C189.069 86.3487 188.726 86.6338 188.298 86.8459C187.874 87.0547 187.38 87.1591 186.817 87.1591ZM194.637 87.1591C193.948 87.1591 193.343 86.995 192.822 86.6669C192.305 86.3388 191.901 85.8797 191.609 85.2898C191.321 84.6998 191.177 84.0104 191.177 83.2216C191.177 82.4261 191.321 81.7318 191.609 81.1385C191.901 80.5452 192.305 80.0845 192.822 79.7564C193.343 79.4283 193.948 79.2642 194.637 79.2642C195.326 79.2642 195.93 79.4283 196.447 79.7564C196.967 80.0845 197.371 80.5452 197.66 81.1385C197.951 81.7318 198.097 82.4261 198.097 83.2216C198.097 84.0104 197.951 84.6998 197.66 85.2898C197.371 85.8797 196.967 86.3388 196.447 86.6669C195.93 86.995 195.326 87.1591 194.637 87.1591ZM194.637 86.1051C195.161 86.1051 195.592 85.9709 195.93 85.7024C196.268 85.4339 196.518 85.081 196.68 84.6435C196.843 84.206 196.924 83.732 196.924 83.2216C196.924 82.7112 196.843 82.2356 196.68 81.7947C196.518 81.3539 196.268 80.9976 195.93 80.7259C195.592 80.4541 195.161 80.3182 194.637 80.3182C194.113 80.3182 193.683 80.4541 193.344 80.7259C193.006 80.9976 192.756 81.3539 192.594 81.7947C192.431 82.2356 192.35 82.7112 192.35 83.2216C192.35 83.732 192.431 84.206 192.594 84.6435C192.756 85.081 193.006 85.4339 193.344 85.7024C193.683 85.9709 194.113 86.1051 194.637 86.1051ZM199.888 87V79.3636H201.022V80.5568H201.121C201.28 80.1491 201.537 79.8326 201.892 79.6072C202.247 79.3786 202.672 79.2642 203.17 79.2642C203.673 79.2642 204.093 79.3786 204.427 79.6072C204.765 79.8326 205.029 80.1491 205.218 80.5568H205.297C205.493 80.1624 205.786 79.8492 206.177 79.6172C206.568 79.3819 207.037 79.2642 207.584 79.2642C208.267 79.2642 208.826 79.478 209.26 79.9055C209.694 80.3298 209.911 80.991 209.911 81.8892V87H208.738V81.8892C208.738 81.3258 208.584 80.9231 208.275 80.6811C207.967 80.4392 207.604 80.3182 207.187 80.3182C206.65 80.3182 206.234 80.4806 205.939 80.8054C205.644 81.1269 205.496 81.5346 205.496 82.0284V87H204.303V81.7699C204.303 81.3357 204.162 80.986 203.881 80.7209C203.599 80.4524 203.236 80.3182 202.792 80.3182C202.487 80.3182 202.202 80.3994 201.937 80.5618C201.675 80.7242 201.463 80.9496 201.3 81.2379C201.141 81.523 201.062 81.8527 201.062 82.2273V87H199.888ZM212.911 87.0795C212.666 87.0795 212.456 86.9917 212.28 86.8161C212.104 86.6404 212.017 86.4299 212.017 86.1847C212.017 85.9394 212.104 85.7289 212.28 85.5533C212.456 85.3776 212.666 85.2898 212.911 85.2898C213.157 85.2898 213.367 85.3776 213.543 85.5533C213.718 85.7289 213.806 85.9394 213.806 86.1847C213.806 86.3471 213.765 86.4962 213.682 86.6321C213.602 86.768 213.495 86.8774 213.359 86.9602C213.226 87.0398 213.077 87.0795 212.911 87.0795ZM215.912 87V79.3636H217.085V87H215.912ZM216.508 78.0909C216.28 78.0909 216.082 78.013 215.917 77.8572C215.754 77.7015 215.673 77.5142 215.673 77.2955C215.673 77.0767 215.754 76.8894 215.917 76.7337C216.082 76.5779 216.28 76.5 216.508 76.5C216.737 76.5 216.933 76.5779 217.095 76.7337C217.261 76.8894 217.344 77.0767 217.344 77.2955C217.344 77.5142 217.261 77.7015 217.095 77.8572C216.933 78.013 216.737 78.0909 216.508 78.0909ZM222.336 87.1591C221.647 87.1591 221.042 86.995 220.522 86.6669C220.005 86.3388 219.6 85.8797 219.309 85.2898C219.02 84.6998 218.876 84.0104 218.876 83.2216C218.876 82.4261 219.02 81.7318 219.309 81.1385C219.6 80.5452 220.005 80.0845 220.522 79.7564C221.042 79.4283 221.647 79.2642 222.336 79.2642C223.026 79.2642 223.629 79.4283 224.146 79.7564C224.666 80.0845 225.071 80.5452 225.359 81.1385C225.651 81.7318 225.797 82.4261 225.797 83.2216C225.797 84.0104 225.651 84.6998 225.359 85.2898C225.071 85.8797 224.666 86.3388 224.146 86.6669C223.629 86.995 223.026 87.1591 222.336 87.1591ZM222.336 86.1051C222.86 86.1051 223.291 85.9709 223.629 85.7024C223.967 85.4339 224.217 85.081 224.38 84.6435C224.542 84.206 224.623 83.732 224.623 83.2216C224.623 82.7112 224.542 82.2356 224.38 81.7947C224.217 81.3539 223.967 80.9976 223.629 80.7259C223.291 80.4541 222.86 80.3182 222.336 80.3182C221.813 80.3182 221.382 80.4541 221.044 80.7259C220.706 80.9976 220.455 81.3539 220.293 81.7947C220.131 82.2356 220.049 82.7112 220.049 83.2216C220.049 83.732 220.131 84.206 220.293 84.6435C220.455 85.081 220.706 85.4339 221.044 85.7024C221.382 85.9709 221.813 86.1051 222.336 86.1051Z" fill="#151531"/>
</g>
</g>
</g>
</g>
</g>
<g id="Group 3528">
<g id="Group 3374_2">
<g id="Group 3372_2">
<g id="Group 1906_2">
<g id="Group 3371_2">
<path id="Location" d="M292.233 87.0002V76.8184H293.466V85.9065H298.199V87.0002H292.233ZM303.051 87.1593C302.362 87.1593 301.757 86.9953 301.237 86.6671C300.719 86.339 300.315 85.88 300.023 85.29C299.735 84.7001 299.591 84.0107 299.591 83.2218C299.591 82.4264 299.735 81.732 300.023 81.1387C300.315 80.5455 300.719 80.0848 301.237 79.7566C301.757 79.4285 302.362 79.2644 303.051 79.2644C303.741 79.2644 304.344 79.4285 304.861 79.7566C305.381 80.0848 305.786 80.5455 306.074 81.1387C306.366 81.732 306.511 82.4264 306.511 83.2218C306.511 84.0107 306.366 84.7001 306.074 85.29C305.786 85.88 305.381 86.339 304.861 86.6671C304.344 86.9953 303.741 87.1593 303.051 87.1593ZM303.051 86.1054C303.575 86.1054 304.006 85.9711 304.344 85.7027C304.682 85.4342 304.932 85.0812 305.094 84.6437C305.257 84.2062 305.338 83.7323 305.338 83.2218C305.338 82.7114 305.257 82.2358 305.094 81.795C304.932 81.3542 304.682 80.9979 304.344 80.7261C304.006 80.4543 303.575 80.3184 303.051 80.3184C302.527 80.3184 302.097 80.4543 301.759 80.7261C301.42 80.9979 301.17 81.3542 301.008 81.795C300.845 82.2358 300.764 82.7114 300.764 83.2218C300.764 83.7323 300.845 84.2062 301.008 84.6437C301.17 85.0812 301.42 85.4342 301.759 85.7027C302.097 85.9711 302.527 86.1054 303.051 86.1054ZM311.405 87.1593C310.689 87.1593 310.072 86.9903 309.555 86.6522C309.038 86.3142 308.64 85.8485 308.362 85.2552C308.084 84.6619 307.944 83.9841 307.944 83.2218C307.944 82.4463 308.087 81.7618 308.372 81.1686C308.66 80.572 309.061 80.1063 309.575 79.7716C310.092 79.4335 310.695 79.2644 311.385 79.2644C311.922 79.2644 312.406 79.3639 312.836 79.5627C313.267 79.7616 313.62 80.04 313.895 80.398C314.171 80.7559 314.341 81.1735 314.407 81.6508H313.234C313.145 81.3028 312.946 80.9946 312.638 80.7261C312.333 80.4543 311.922 80.3184 311.405 80.3184C310.947 80.3184 310.546 80.4377 310.202 80.6764C309.86 80.9117 309.593 81.2448 309.401 81.6757C309.212 82.1032 309.118 82.6054 309.118 83.1821C309.118 83.772 309.211 84.2858 309.396 84.7233C309.585 85.1608 309.85 85.5005 310.192 85.7424C310.536 85.9844 310.941 86.1054 311.405 86.1054C311.71 86.1054 311.986 86.0523 312.235 85.9463C312.483 85.8402 312.694 85.6877 312.866 85.4889C313.039 85.29 313.161 85.0514 313.234 84.773H314.407C314.341 85.2237 314.177 85.6297 313.915 85.991C313.657 86.349 313.314 86.634 312.886 86.8461C312.462 87.0549 311.968 87.1593 311.405 87.1593ZM318.37 87.1792C317.886 87.1792 317.447 87.0881 317.052 86.9058C316.658 86.7202 316.345 86.4534 316.113 86.1054C315.881 85.754 315.765 85.3298 315.765 84.8326C315.765 84.3951 315.851 84.0405 316.023 83.7687C316.196 83.4936 316.426 83.2782 316.714 83.1224C317.003 82.9666 317.321 82.8506 317.669 82.7744C318.02 82.6948 318.373 82.6319 318.728 82.5855C319.192 82.5258 319.568 82.4811 319.856 82.4512C320.148 82.4181 320.36 82.3634 320.493 82.2872C320.629 82.2109 320.697 82.0784 320.697 81.8894V81.8497C320.697 81.3591 320.562 80.978 320.294 80.7062C320.029 80.4344 319.626 80.2985 319.086 80.2985C318.526 80.2985 318.086 80.4212 317.768 80.6664C317.45 80.9117 317.226 81.1735 317.097 81.4519L315.983 81.0542C316.182 80.5902 316.448 80.2289 316.779 79.9704C317.114 79.7086 317.478 79.5263 317.873 79.4235C318.27 79.3175 318.662 79.2644 319.046 79.2644C319.291 79.2644 319.573 79.2943 319.891 79.3539C320.213 79.4103 320.523 79.5279 320.821 79.7069C321.122 79.8859 321.373 80.156 321.572 80.5173C321.77 80.8786 321.87 81.3625 321.87 81.969V87.0002H320.697V85.9662H320.637C320.557 86.1319 320.425 86.3092 320.239 86.4981C320.054 86.687 319.807 86.8478 319.498 86.9804C319.19 87.1129 318.814 87.1792 318.37 87.1792ZM318.549 86.1252C319.013 86.1252 319.404 86.0341 319.722 85.8518C320.044 85.6695 320.286 85.4342 320.448 85.1458C320.614 84.8575 320.697 84.5542 320.697 84.236V83.1622C320.647 83.2218 320.537 83.2765 320.368 83.3262C320.203 83.3726 320.01 83.4141 319.792 83.4505C319.576 83.4837 319.366 83.5135 319.16 83.54C318.958 83.5632 318.794 83.5831 318.668 83.5997C318.363 83.6394 318.078 83.7041 317.813 83.7936C317.551 83.8797 317.339 84.0107 317.177 84.1863C317.018 84.3587 316.938 84.594 316.938 84.8923C316.938 85.3 317.089 85.6082 317.39 85.817C317.695 86.0225 318.081 86.1252 318.549 86.1252ZM327.332 79.3639V80.3582H323.375V79.3639H327.332ZM324.528 77.5343H325.702V84.8127C325.702 85.1442 325.75 85.3928 325.846 85.5585C325.945 85.7209 326.071 85.8303 326.224 85.8866C326.379 85.9396 326.544 85.9662 326.716 85.9662C326.845 85.9662 326.951 85.9595 327.034 85.9463C327.117 85.9297 327.183 85.9164 327.233 85.9065L327.472 86.9605C327.392 86.9903 327.281 87.0201 327.138 87.05C326.996 87.0831 326.815 87.0997 326.597 87.0997C326.265 87.0997 325.94 87.0284 325.622 86.8859C325.307 86.7434 325.045 86.5263 324.837 86.2346C324.631 85.943 324.528 85.5751 324.528 85.1309V77.5343ZM329.097 87.0002V79.3639H330.271V87.0002H329.097ZM329.694 78.0912C329.465 78.0912 329.268 78.0133 329.102 77.8575C328.94 77.7017 328.859 77.5144 328.859 77.2957C328.859 77.0769 328.94 76.8897 329.102 76.7339C329.268 76.5781 329.465 76.5002 329.694 76.5002C329.923 76.5002 330.118 76.5781 330.281 76.7339C330.446 76.8897 330.529 77.0769 330.529 77.2957C330.529 77.5144 330.446 77.7017 330.281 77.8575C330.118 78.0133 329.923 78.0912 329.694 78.0912ZM335.522 87.1593C334.832 87.1593 334.228 86.9953 333.707 86.6671C333.19 86.339 332.786 85.88 332.494 85.29C332.206 84.7001 332.062 84.0107 332.062 83.2218C332.062 82.4264 332.206 81.732 332.494 81.1387C332.786 80.5455 333.19 80.0848 333.707 79.7566C334.228 79.4285 334.832 79.2644 335.522 79.2644C336.211 79.2644 336.814 79.4285 337.331 79.7566C337.852 80.0848 338.256 80.5455 338.545 81.1387C338.836 81.732 338.982 82.4264 338.982 83.2218C338.982 84.0107 338.836 84.7001 338.545 85.29C338.256 85.88 337.852 86.339 337.331 86.6671C336.814 86.9953 336.211 87.1593 335.522 87.1593ZM335.522 86.1054C336.046 86.1054 336.476 85.9711 336.814 85.7027C337.153 85.4342 337.403 85.0812 337.565 84.6437C337.728 84.2062 337.809 83.7323 337.809 83.2218C337.809 82.7114 337.728 82.2358 337.565 81.795C337.403 81.3542 337.153 80.9979 336.814 80.7261C336.476 80.4543 336.046 80.3184 335.522 80.3184C334.998 80.3184 334.567 80.4543 334.229 80.7261C333.891 80.9979 333.641 81.3542 333.479 81.795C333.316 82.2358 333.235 82.7114 333.235 83.2218C333.235 83.7323 333.316 84.2062 333.479 84.6437C333.641 85.0812 333.891 85.4342 334.229 85.7027C334.567 85.9711 334.998 86.1054 335.522 86.1054ZM341.946 82.4065V87.0002H340.773V79.3639H341.907V80.5571H342.006C342.185 80.1693 342.457 79.8577 342.821 79.6224C343.186 79.3838 343.657 79.2644 344.233 79.2644C344.75 79.2644 345.203 79.3705 345.591 79.5826C345.978 79.7914 346.28 80.1096 346.495 80.5372C346.711 80.9614 346.819 81.4984 346.819 82.148V87.0002H345.645V82.2275C345.645 81.6276 345.489 81.1603 345.178 80.8255C344.866 80.4875 344.439 80.3184 343.895 80.3184C343.521 80.3184 343.186 80.3996 342.891 80.562C342.599 80.7244 342.369 80.9614 342.2 81.273C342.031 81.5845 341.946 81.9624 341.946 82.4065Z" fill="#868E96"/>
<g id="Frame_3">
<path id="Vector_3" d="M268.096 76.3253L268.361 77.9194C268.533 78.9476 269.021 79.8966 269.758 80.6336L271.125 82.0003L270.802 82.6461C270.621 83.0069 270.692 83.4428 270.977 83.7278L272.101 84.8511C272.276 85.0261 272.375 85.2653 272.375 85.5136V86.4211C272.375 86.7761 272.575 87.1003 272.893 87.2594L273.021 87.3228C273.381 87.5036 273.817 87.4328 274.102 87.1478L274.705 86.5453C275.634 85.616 276.293 84.4517 276.611 83.1769C276.653 83.0117 276.647 82.8381 276.594 82.6761C276.541 82.5141 276.444 82.3702 276.313 82.2611L275.205 81.3378C274.996 81.1628 274.72 81.0886 274.451 81.1336L273.476 81.2961C273.329 81.3206 273.178 81.3096 273.036 81.2641C272.894 81.2186 272.764 81.1399 272.659 81.0344L272.413 80.7886C272.326 80.7015 272.257 80.5982 272.21 80.4844C272.163 80.3707 272.139 80.2488 272.139 80.1257C272.139 80.0026 272.163 79.8806 272.21 79.7669C272.257 79.6532 272.326 79.5498 272.413 79.4628L272.521 79.3528C272.661 79.2135 272.84 79.1216 273.035 79.0902C273.229 79.0588 273.429 79.0894 273.605 79.1778L274.107 79.4294C274.234 79.493 274.377 79.5151 274.517 79.4925C274.657 79.4699 274.786 79.4038 274.887 79.3036C274.987 79.2035 275.053 79.0742 275.075 78.9344C275.098 78.7945 275.076 78.651 275.012 78.5244L274.875 78.2503L275.921 77.5528C276.464 77.1906 276.903 76.6931 277.195 76.1094L277.316 75.8661M268.096 76.3253C266.914 77.3463 266.081 78.7108 265.712 80.2282C265.343 81.7456 265.457 83.3404 266.038 84.7899C266.619 86.2395 267.638 87.4716 268.952 88.3143C270.267 89.1569 271.812 89.5682 273.372 89.4907C274.932 89.4132 276.428 88.8507 277.653 87.8818C278.878 86.9129 279.769 85.5858 280.204 84.0858C280.638 82.5858 280.593 80.9876 280.076 79.5142C279.558 78.0409 278.593 76.765 277.316 75.8661M268.096 76.3253C269.457 75.1456 271.199 74.4975 273 74.5003C274.607 74.5003 276.096 75.0053 277.316 75.8661" stroke="#868E96" stroke-width="1.25" stroke-linecap="round" stroke-linejoin="round"/>
</g>
<path id="Dublin, Ireland" d="M378.375 87.0002H375.233V76.8184H378.514C379.502 76.8184 380.347 77.0223 381.05 77.4299C381.752 77.8343 382.291 78.416 382.665 79.175C383.04 79.9306 383.227 80.8355 383.227 81.8894C383.227 82.9501 383.038 83.8632 382.661 84.6288C382.283 85.3911 381.732 85.9778 381.01 86.3887C380.287 86.7964 379.409 87.0002 378.375 87.0002ZM376.466 85.9065H378.295C379.137 85.9065 379.835 85.7441 380.388 85.4193C380.942 85.0945 381.355 84.6321 381.626 84.0322C381.898 83.4323 382.034 82.718 382.034 81.8894C382.034 81.0675 381.9 80.3599 381.631 79.7666C381.363 79.17 380.962 78.7126 380.428 78.3944C379.895 78.0729 379.23 77.9122 378.435 77.9122H376.466V85.9065ZM389.949 83.8781V79.3639H391.122V87.0002H389.949V85.7076H389.869C389.69 86.0954 389.412 86.4252 389.034 86.697C388.656 86.9654 388.179 87.0997 387.602 87.0997C387.125 87.0997 386.701 86.9953 386.33 86.7865C385.958 86.5743 385.667 86.2562 385.455 85.8319C385.242 85.4044 385.136 84.8658 385.136 84.2162V79.3639H386.31V84.1366C386.31 84.6934 386.465 85.1376 386.777 85.469C387.092 85.8004 387.493 85.9662 387.98 85.9662C388.272 85.9662 388.568 85.8916 388.87 85.7424C389.175 85.5933 389.43 85.3646 389.636 85.0564C389.844 84.7481 389.949 84.3554 389.949 83.8781ZM393.43 87.0002V76.8184H394.604V80.5769H394.703C394.789 80.4444 394.908 80.2753 395.061 80.0698C395.217 79.861 395.439 79.6754 395.727 79.513C396.019 79.3473 396.413 79.2644 396.91 79.2644C397.553 79.2644 398.12 79.4252 398.611 79.7467C399.101 80.0682 399.484 80.5239 399.759 81.1139C400.034 81.7038 400.172 82.3999 400.172 83.2019C400.172 84.0107 400.034 84.7117 399.759 85.3049C399.484 85.8949 399.103 86.3523 398.616 86.6771C398.128 86.9986 397.567 87.1593 396.93 87.1593C396.44 87.1593 396.047 87.0781 395.752 86.9157C395.457 86.75 395.23 86.5627 395.071 86.3539C394.912 86.1418 394.789 85.9662 394.703 85.8269H394.564V87.0002H393.43ZM394.584 83.1821C394.584 83.7588 394.668 84.2675 394.837 84.7083C395.006 85.1458 395.253 85.4889 395.578 85.7375C395.903 85.9827 396.3 86.1054 396.771 86.1054C397.262 86.1054 397.671 85.9761 397.999 85.7176C398.331 85.4557 398.579 85.1044 398.745 84.6636C398.914 84.2195 398.998 83.7256 398.998 83.1821C398.998 82.6451 398.916 82.1612 398.75 81.7304C398.587 81.2962 398.34 80.9531 398.009 80.7012C397.681 80.446 397.268 80.3184 396.771 80.3184C396.294 80.3184 395.893 80.4394 395.568 80.6814C395.243 80.92 394.998 81.2547 394.832 81.6856C394.666 82.1132 394.584 82.612 394.584 83.1821ZM403.14 76.8184V87.0002H401.966V76.8184H403.14ZM405.289 87.0002V79.3639H406.462V87.0002H405.289ZM405.885 78.0912C405.657 78.0912 405.459 78.0133 405.294 77.8575C405.131 77.7017 405.05 77.5144 405.05 77.2957C405.05 77.0769 405.131 76.8897 405.294 76.7339C405.459 76.5781 405.657 76.5002 405.885 76.5002C406.114 76.5002 406.31 76.5781 406.472 76.7339C406.638 76.8897 406.721 77.0769 406.721 77.2957C406.721 77.5144 406.638 77.7017 406.472 77.8575C406.31 78.0133 406.114 78.0912 405.885 78.0912ZM409.784 82.4065V87.0002H408.611V79.3639H409.744V80.5571H409.844C410.023 80.1693 410.295 79.8577 410.659 79.6224C411.024 79.3838 411.494 79.2644 412.071 79.2644C412.588 79.2644 413.041 79.3705 413.428 79.5826C413.816 79.7914 414.118 80.1096 414.333 80.5372C414.549 80.9614 414.656 81.4984 414.656 82.148V87.0002H413.483V82.2275C413.483 81.6276 413.327 81.1603 413.016 80.8255C412.704 80.4875 412.277 80.3184 411.733 80.3184C411.359 80.3184 411.024 80.3996 410.729 80.562C410.437 80.7244 410.207 80.9614 410.038 81.273C409.869 81.5845 409.784 81.9624 409.784 82.4065ZM418.55 85.6082L418.471 86.1451C418.415 86.523 418.328 86.9273 418.212 87.3582C418.1 87.7891 417.982 88.1951 417.859 88.5762C417.737 88.9574 417.636 89.2607 417.556 89.486H416.661C416.704 89.2739 416.761 88.9939 416.83 88.6458C416.9 88.2978 416.969 87.9084 417.039 87.4775C417.112 87.05 417.172 86.6125 417.218 86.165L417.278 85.6082H418.55ZM426.054 76.8184V87.0002H424.821V76.8184H426.054ZM428.367 87.0002V79.3639H429.5V80.5173H429.58C429.719 80.1394 429.971 79.8329 430.336 79.5975C430.7 79.3622 431.111 79.2446 431.569 79.2446C431.655 79.2446 431.762 79.2462 431.892 79.2495C432.021 79.2528 432.119 79.2578 432.185 79.2644V80.4576C432.145 80.4477 432.054 80.4328 431.912 80.4129C431.772 80.3897 431.625 80.3781 431.469 80.3781C431.098 80.3781 430.766 80.456 430.475 80.6117C430.186 80.7642 429.958 80.9763 429.789 81.2481C429.623 81.5166 429.54 81.8232 429.54 82.1679V87.0002H428.367ZM436.545 87.1593C435.809 87.1593 435.175 86.9969 434.641 86.6721C434.111 86.344 433.701 85.8866 433.413 85.3C433.128 84.71 432.985 84.0239 432.985 83.2417C432.985 82.4595 433.128 81.7701 433.413 81.1735C433.701 80.5736 434.102 80.1063 434.616 79.7716C435.133 79.4335 435.736 79.2644 436.426 79.2644C436.824 79.2644 437.216 79.3307 437.604 79.4633C437.992 79.5959 438.345 79.8113 438.663 80.1096C438.981 80.4046 439.235 80.7957 439.424 81.2829C439.613 81.7701 439.707 82.37 439.707 83.0826V83.5798H433.821V82.5656H438.514C438.514 82.1347 438.428 81.7502 438.255 81.4122C438.086 81.0741 437.844 80.8073 437.529 80.6117C437.218 80.4162 436.85 80.3184 436.426 80.3184C435.958 80.3184 435.554 80.4344 435.213 80.6664C434.875 80.8951 434.614 81.1934 434.432 81.5613C434.25 81.9292 434.159 82.3236 434.159 82.7446V83.4207C434.159 83.9974 434.258 84.4863 434.457 84.8873C434.659 85.285 434.939 85.5883 435.297 85.7971C435.655 86.0026 436.071 86.1054 436.545 86.1054C436.853 86.1054 437.132 86.0623 437.38 85.9761C437.632 85.8866 437.849 85.754 438.032 85.5784C438.214 85.3994 438.355 85.1773 438.454 84.9122L439.588 85.2304C439.468 85.6148 439.268 85.9529 438.986 86.2446C438.704 86.5329 438.356 86.7583 437.942 86.9207C437.528 87.0798 437.062 87.1593 436.545 87.1593ZM442.665 76.8184V87.0002H441.492V76.8184H442.665ZM447.061 87.1792C446.577 87.1792 446.138 87.0881 445.744 86.9058C445.349 86.7202 445.036 86.4534 444.804 86.1054C444.572 85.754 444.456 85.3298 444.456 84.8326C444.456 84.3951 444.542 84.0405 444.715 83.7687C444.887 83.4936 445.117 83.2782 445.406 83.1224C445.694 82.9666 446.012 82.8506 446.36 82.7744C446.712 82.6948 447.065 82.6319 447.419 82.5855C447.883 82.5258 448.259 82.4811 448.548 82.4512C448.839 82.4181 449.052 82.3634 449.184 82.2872C449.32 82.2109 449.388 82.0784 449.388 81.8894V81.8497C449.388 81.3591 449.254 80.978 448.985 80.7062C448.72 80.4344 448.317 80.2985 447.777 80.2985C447.217 80.2985 446.778 80.4212 446.46 80.6664C446.142 80.9117 445.918 81.1735 445.789 81.4519L444.675 81.0542C444.874 80.5902 445.139 80.2289 445.47 79.9704C445.805 79.7086 446.17 79.5263 446.564 79.4235C446.962 79.3175 447.353 79.2644 447.737 79.2644C447.983 79.2644 448.264 79.2943 448.583 79.3539C448.904 79.4103 449.214 79.5279 449.512 79.7069C449.814 79.8859 450.064 80.156 450.263 80.5173C450.462 80.8786 450.561 81.3625 450.561 81.969V87.0002H449.388V85.9662H449.328C449.249 86.1319 449.116 86.3092 448.931 86.4981C448.745 86.687 448.498 86.8478 448.19 86.9804C447.882 87.1129 447.505 87.1792 447.061 87.1792ZM447.24 86.1252C447.704 86.1252 448.095 86.0341 448.414 85.8518C448.735 85.6695 448.977 85.4342 449.139 85.1458C449.305 84.8575 449.388 84.5542 449.388 84.236V83.1622C449.338 83.2218 449.229 83.2765 449.06 83.3262C448.894 83.3726 448.702 83.4141 448.483 83.4505C448.268 83.4837 448.057 83.5135 447.852 83.54C447.65 83.5632 447.485 83.5831 447.36 83.5997C447.055 83.6394 446.77 83.7041 446.504 83.7936C446.243 83.8797 446.03 84.0107 445.868 84.1863C445.709 84.3587 445.629 84.594 445.629 84.8923C445.629 85.3 445.78 85.6082 446.082 85.817C446.387 86.0225 446.773 86.1252 447.24 86.1252ZM453.876 82.4065V87.0002H452.703V79.3639H453.836V80.5571H453.936C454.115 80.1693 454.386 79.8577 454.751 79.6224C455.116 79.3838 455.586 79.2644 456.163 79.2644C456.68 79.2644 457.132 79.3705 457.52 79.5826C457.908 79.7914 458.21 80.1096 458.425 80.5372C458.641 80.9614 458.748 81.4984 458.748 82.148V87.0002H457.575V82.2275C457.575 81.6276 457.419 81.1603 457.108 80.8255C456.796 80.4875 456.368 80.3184 455.825 80.3184C455.45 80.3184 455.116 80.3996 454.821 80.562C454.529 80.7244 454.299 80.9614 454.13 81.273C453.961 81.5845 453.876 81.9624 453.876 82.4065ZM463.776 87.1593C463.139 87.1593 462.578 86.9986 462.09 86.6771C461.603 86.3523 461.222 85.8949 460.947 85.3049C460.672 84.7117 460.534 84.0107 460.534 83.2019C460.534 82.3999 460.672 81.7038 460.947 81.1139C461.222 80.5239 461.605 80.0682 462.095 79.7467C462.586 79.4252 463.153 79.2644 463.796 79.2644C464.293 79.2644 464.686 79.3473 464.974 79.513C465.266 79.6754 465.488 79.861 465.64 80.0698C465.796 80.2753 465.917 80.4444 466.003 80.5769H466.102V76.8184H467.276V87.0002H466.142V85.8269H466.003C465.917 85.9662 465.794 86.1418 465.635 86.3539C465.476 86.5627 465.249 86.75 464.954 86.9157C464.659 87.0781 464.266 87.1593 463.776 87.1593ZM463.935 86.1054C464.405 86.1054 464.803 85.9827 465.128 85.7375C465.453 85.4889 465.7 85.1458 465.869 84.7083C466.038 84.2675 466.122 83.7588 466.122 83.1821C466.122 82.612 466.039 82.1132 465.874 81.6856C465.708 81.2547 465.463 80.92 465.138 80.6814C464.813 80.4394 464.412 80.3184 463.935 80.3184C463.438 80.3184 463.023 80.446 462.692 80.7012C462.364 80.9531 462.117 81.2962 461.951 81.7304C461.789 82.1612 461.708 82.6451 461.708 83.1821C461.708 83.7256 461.79 84.2195 461.956 84.6636C462.125 85.1044 462.374 85.4557 462.702 85.7176C463.033 85.9761 463.444 86.1054 463.935 86.1054Z" fill="#151531"/>
</g>
</g>
</g>
</g>
</g>
<g id="Group 3526">
<g id="Group 3374_3">
<g id="Group 3372_3">
<g id="Group 1906_3">
<g id="Group 3371_3">
<path id="Employees" d="M58.233 123V112.818H64.3778V113.912H59.4659V117.352H64.0597V118.446H59.4659V121.906H64.4574V123H58.233ZM66.4411 123V115.364H67.5746V116.557H67.674C67.8331 116.149 68.09 115.833 68.4446 115.607C68.7992 115.379 69.2251 115.264 69.7223 115.264C70.2261 115.264 70.6454 115.379 70.9801 115.607C71.3182 115.833 71.5817 116.149 71.7706 116.557H71.8501C72.0457 116.162 72.339 115.849 72.7301 115.617C73.1212 115.382 73.5902 115.264 74.1371 115.264C74.8198 115.264 75.3783 115.478 75.8125 115.906C76.2467 116.33 76.4638 116.991 76.4638 117.889V123H75.2905V117.889C75.2905 117.326 75.1364 116.923 74.8281 116.681C74.5199 116.439 74.157 116.318 73.7393 116.318C73.2024 116.318 72.7865 116.481 72.4915 116.805C72.1965 117.127 72.049 117.535 72.049 118.028V123H70.8558V117.77C70.8558 117.336 70.715 116.986 70.4332 116.721C70.1515 116.452 69.7886 116.318 69.3445 116.318C69.0395 116.318 68.7545 116.399 68.4893 116.562C68.2275 116.724 68.0154 116.95 67.853 117.238C67.6939 117.523 67.6143 117.853 67.6143 118.227V123H66.4411ZM78.609 125.864V115.364H79.7425V116.577H79.8817C79.9679 116.444 80.0872 116.275 80.2397 116.07C80.3955 115.861 80.6175 115.675 80.9059 115.513C81.1976 115.347 81.592 115.264 82.0891 115.264C82.7321 115.264 83.2989 115.425 83.7894 115.746C84.2799 116.068 84.6628 116.524 84.9379 117.114C85.2129 117.704 85.3505 118.4 85.3505 119.202C85.3505 120.01 85.2129 120.711 84.9379 121.305C84.6628 121.895 84.2816 122.352 83.7944 122.677C83.3072 122.998 82.7454 123.159 82.109 123.159C81.6185 123.159 81.2257 123.078 80.9308 122.915C80.6358 122.75 80.4087 122.562 80.2496 122.354C80.0906 122.142 79.9679 121.966 79.8817 121.827H79.7823V125.864H78.609ZM79.7624 119.182C79.7624 119.759 79.8469 120.267 80.016 120.708C80.185 121.146 80.4319 121.489 80.7567 121.737C81.0816 121.982 81.4793 122.105 81.9499 122.105C82.4405 122.105 82.8498 121.976 83.1779 121.717C83.5094 121.455 83.7579 121.104 83.9237 120.663C84.0927 120.219 84.1772 119.725 84.1772 119.182C84.1772 118.645 84.0943 118.161 83.9286 117.73C83.7662 117.296 83.5193 116.953 83.1879 116.701C82.8597 116.446 82.4471 116.318 81.9499 116.318C81.4727 116.318 81.0716 116.439 80.7468 116.681C80.422 116.92 80.1767 117.254 80.011 117.685C79.8453 118.113 79.7624 118.612 79.7624 119.182ZM88.3136 112.818V123H87.1403V112.818H88.3136ZM93.5648 123.159C92.8754 123.159 92.2705 122.995 91.7502 122.667C91.2331 122.339 90.8288 121.88 90.5371 121.29C90.2488 120.7 90.1046 120.01 90.1046 119.222C90.1046 118.426 90.2488 117.732 90.5371 117.138C90.8288 116.545 91.2331 116.085 91.7502 115.756C92.2705 115.428 92.8754 115.264 93.5648 115.264C94.2542 115.264 94.8574 115.428 95.3745 115.756C95.8948 116.085 96.2992 116.545 96.5875 117.138C96.8792 117.732 97.025 118.426 97.025 119.222C97.025 120.01 96.8792 120.7 96.5875 121.29C96.2992 121.88 95.8948 122.339 95.3745 122.667C94.8574 122.995 94.2542 123.159 93.5648 123.159ZM93.5648 122.105C94.0885 122.105 94.5194 121.971 94.8574 121.702C95.1955 121.434 95.4457 121.081 95.6081 120.643C95.7705 120.206 95.8517 119.732 95.8517 119.222C95.8517 118.711 95.7705 118.236 95.6081 117.795C95.4457 117.354 95.1955 116.998 94.8574 116.726C94.5194 116.454 94.0885 116.318 93.5648 116.318C93.0411 116.318 92.6103 116.454 92.2722 116.726C91.9341 116.998 91.6839 117.354 91.5215 117.795C91.3591 118.236 91.2779 118.711 91.2779 119.222C91.2779 119.732 91.3591 120.206 91.5215 120.643C91.6839 121.081 91.9341 121.434 92.2722 121.702C92.6103 121.971 93.0411 122.105 93.5648 122.105ZM99.2983 125.864C99.0994 125.864 98.9221 125.847 98.7663 125.814C98.6106 125.784 98.5028 125.754 98.4432 125.724L98.7415 124.69C99.0265 124.763 99.2784 124.79 99.4972 124.77C99.7159 124.75 99.9098 124.652 100.079 124.477C100.251 124.304 100.409 124.024 100.551 123.636L100.77 123.04L97.946 115.364H99.2188L101.327 121.449H101.406L103.514 115.364H104.787L101.545 124.114C101.4 124.508 101.219 124.835 101.004 125.093C100.788 125.355 100.538 125.549 100.253 125.675C99.9711 125.801 99.6529 125.864 99.2983 125.864ZM109.264 123.159C108.528 123.159 107.893 122.997 107.36 122.672C106.829 122.344 106.42 121.886 106.132 121.3C105.847 120.71 105.704 120.024 105.704 119.241C105.704 118.459 105.847 117.77 106.132 117.173C106.42 116.573 106.821 116.106 107.335 115.771C107.852 115.433 108.455 115.264 109.145 115.264C109.542 115.264 109.935 115.33 110.323 115.463C110.711 115.596 111.064 115.811 111.382 116.109C111.7 116.404 111.953 116.795 112.142 117.283C112.331 117.77 112.426 118.37 112.426 119.082V119.58H106.539V118.565H111.233C111.233 118.134 111.146 117.75 110.974 117.412C110.805 117.074 110.563 116.807 110.248 116.612C109.937 116.416 109.569 116.318 109.145 116.318C108.677 116.318 108.273 116.434 107.931 116.666C107.593 116.895 107.333 117.193 107.151 117.561C106.969 117.929 106.877 118.323 106.877 118.744V119.42C106.877 119.997 106.977 120.486 107.176 120.887C107.378 121.285 107.658 121.588 108.016 121.797C108.374 122.002 108.79 122.105 109.264 122.105C109.572 122.105 109.85 122.062 110.099 121.976C110.351 121.886 110.568 121.754 110.75 121.578C110.933 121.399 111.074 121.177 111.173 120.912L112.306 121.23C112.187 121.615 111.987 121.953 111.705 122.244C111.423 122.533 111.075 122.758 110.661 122.92C110.247 123.08 109.781 123.159 109.264 123.159ZM117.412 123.159C116.676 123.159 116.042 122.997 115.508 122.672C114.978 122.344 114.569 121.886 114.28 121.3C113.995 120.71 113.853 120.024 113.853 119.241C113.853 118.459 113.995 117.77 114.28 117.173C114.569 116.573 114.97 116.106 115.483 115.771C116 115.433 116.604 115.264 117.293 115.264C117.691 115.264 118.083 115.33 118.471 115.463C118.859 115.596 119.212 115.811 119.53 116.109C119.848 116.404 120.102 116.795 120.291 117.283C120.48 117.77 120.574 118.37 120.574 119.082V119.58H114.688V118.565H119.381C119.381 118.134 119.295 117.75 119.123 117.412C118.953 117.074 118.712 116.807 118.397 116.612C118.085 116.416 117.717 116.318 117.293 116.318C116.826 116.318 116.421 116.434 116.08 116.666C115.742 116.895 115.482 117.193 115.299 117.561C115.117 117.929 115.026 118.323 115.026 118.744V119.42C115.026 119.997 115.125 120.486 115.324 120.887C115.526 121.285 115.806 121.588 116.164 121.797C116.522 122.002 116.938 122.105 117.412 122.105C117.721 122.105 117.999 122.062 118.248 121.976C118.499 121.886 118.717 121.754 118.899 121.578C119.081 121.399 119.222 121.177 119.321 120.912L120.455 121.23C120.336 121.615 120.135 121.953 119.853 122.244C119.572 122.533 119.224 122.758 118.809 122.92C118.395 123.08 117.929 123.159 117.412 123.159ZM127.768 117.074L126.714 117.372C126.648 117.196 126.55 117.026 126.421 116.86C126.295 116.691 126.123 116.552 125.904 116.442C125.685 116.333 125.405 116.278 125.064 116.278C124.596 116.278 124.207 116.386 123.895 116.602C123.587 116.814 123.433 117.084 123.433 117.412C123.433 117.704 123.539 117.934 123.751 118.103C123.963 118.272 124.295 118.413 124.745 118.526L125.879 118.804C126.562 118.97 127.07 119.223 127.405 119.565C127.74 119.903 127.907 120.339 127.907 120.872C127.907 121.31 127.781 121.701 127.529 122.045C127.281 122.39 126.933 122.662 126.485 122.861C126.038 123.06 125.518 123.159 124.924 123.159C124.145 123.159 123.501 122.99 122.99 122.652C122.48 122.314 122.157 121.82 122.021 121.17L123.135 120.892C123.241 121.303 123.441 121.611 123.736 121.817C124.034 122.022 124.424 122.125 124.904 122.125C125.451 122.125 125.886 122.009 126.207 121.777C126.532 121.542 126.694 121.26 126.694 120.932C126.694 120.667 126.601 120.445 126.416 120.266C126.23 120.083 125.945 119.947 125.561 119.858L124.288 119.56C123.589 119.394 123.075 119.137 122.747 118.789C122.422 118.438 122.26 117.999 122.26 117.472C122.26 117.041 122.381 116.66 122.623 116.328C122.868 115.997 123.201 115.737 123.622 115.548C124.046 115.359 124.527 115.264 125.064 115.264C125.819 115.264 126.413 115.43 126.843 115.761C127.278 116.093 127.586 116.53 127.768 117.074Z" fill="#868E96"/>
<g id="Frame_4">
<path id="Vector_4" d="M41.4999 123.94C42.2107 124.146 42.9472 124.251 43.6874 124.25C44.8777 124.252 46.0526 123.98 47.1215 123.457C47.1531 122.71 46.9404 121.973 46.5155 121.358C46.0906 120.743 45.4768 120.283 44.7671 120.048C44.0574 119.813 43.2904 119.816 42.5825 120.056C41.8746 120.296 41.2642 120.761 40.844 121.379M41.4999 123.94V123.938C41.4999 123.01 41.2615 122.138 40.844 121.379M41.4999 123.94V124.028C39.8961 124.994 38.0587 125.503 36.1865 125.5C34.244 125.5 32.4265 124.963 30.8749 124.028L30.874 123.938C30.8734 122.758 31.2654 121.612 31.9882 120.679C32.711 119.747 33.7235 119.082 34.8661 118.789C36.0087 118.496 37.2164 118.591 38.2987 119.06C39.3811 119.529 40.2766 120.345 40.844 121.379M38.9999 113.313C38.9999 114.058 38.7035 114.774 38.1761 115.301C37.6486 115.829 36.9333 116.125 36.1874 116.125C35.4414 116.125 34.7261 115.829 34.1986 115.301C33.6712 114.774 33.3749 114.058 33.3749 113.313C33.3749 112.567 33.6712 111.851 34.1986 111.324C34.7261 110.796 35.4414 110.5 36.1874 110.5C36.9333 110.5 37.6486 110.796 38.1761 111.324C38.7035 111.851 38.9999 112.567 38.9999 113.313ZM45.8749 115.188C45.8749 115.768 45.6444 116.324 45.2342 116.734C44.8239 117.145 44.2675 117.375 43.6874 117.375C43.1072 117.375 42.5508 117.145 42.1406 116.734C41.7303 116.324 41.4999 115.768 41.4999 115.188C41.4999 114.607 41.7303 114.051 42.1406 113.641C42.5508 113.23 43.1072 113 43.6874 113C44.2675 113 44.8239 113.23 45.2342 113.641C45.6444 114.051 45.8749 114.607 45.8749 115.188Z" stroke="#868E96" stroke-width="1.25" stroke-linecap="round" stroke-linejoin="round"/>
</g>
<path id="800" d="M157.315 123.139C156.633 123.139 156.029 123.018 155.506 122.776C154.985 122.531 154.579 122.195 154.288 121.767C153.996 121.336 153.852 120.846 153.855 120.295C153.852 119.865 153.936 119.467 154.109 119.102C154.281 118.734 154.516 118.428 154.815 118.183C155.116 117.934 155.453 117.777 155.824 117.71V117.651C155.337 117.525 154.949 117.251 154.661 116.83C154.372 116.406 154.23 115.924 154.233 115.384C154.23 114.866 154.361 114.404 154.626 113.996C154.891 113.589 155.255 113.267 155.719 113.032C156.187 112.797 156.719 112.679 157.315 112.679C157.905 112.679 158.432 112.797 158.896 113.032C159.36 113.267 159.725 113.589 159.99 113.996C160.259 114.404 160.394 114.866 160.398 115.384C160.394 115.924 160.247 116.406 159.955 116.83C159.667 117.251 159.284 117.525 158.807 117.651V117.71C159.175 117.777 159.506 117.934 159.801 118.183C160.096 118.428 160.331 118.734 160.507 119.102C160.683 119.467 160.772 119.865 160.776 120.295C160.772 120.846 160.623 121.336 160.328 121.767C160.036 122.195 159.63 122.531 159.11 122.776C158.593 123.018 157.995 123.139 157.315 123.139ZM157.315 122.045C157.776 122.045 158.174 121.971 158.509 121.822C158.843 121.673 159.102 121.462 159.284 121.19C159.466 120.919 159.559 120.6 159.562 120.236C159.559 119.851 159.46 119.512 159.264 119.217C159.069 118.922 158.802 118.69 158.464 118.521C158.129 118.352 157.746 118.267 157.315 118.267C156.881 118.267 156.493 118.352 156.152 118.521C155.814 118.69 155.547 118.922 155.352 119.217C155.159 119.512 155.065 119.851 155.068 120.236C155.065 120.6 155.153 120.919 155.332 121.19C155.514 121.462 155.774 121.673 156.112 121.822C156.45 121.971 156.851 122.045 157.315 122.045ZM157.315 117.213C157.68 117.213 158.003 117.14 158.285 116.994C158.57 116.848 158.794 116.645 158.956 116.383C159.118 116.121 159.201 115.814 159.205 115.463C159.201 115.118 159.12 114.818 158.961 114.563C158.802 114.305 158.581 114.106 158.3 113.967C158.018 113.824 157.69 113.753 157.315 113.753C156.934 113.753 156.601 113.824 156.316 113.967C156.031 114.106 155.811 114.305 155.655 114.563C155.499 114.818 155.423 115.118 155.426 115.463C155.423 115.814 155.501 116.121 155.66 116.383C155.822 116.645 156.046 116.848 156.331 116.994C156.616 117.14 156.944 117.213 157.315 117.213ZM166.002 123.139C165.253 123.139 164.615 122.935 164.088 122.528C163.561 122.117 163.158 121.522 162.88 120.743C162.601 119.961 162.462 119.016 162.462 117.909C162.462 116.809 162.601 115.869 162.88 115.09C163.162 114.308 163.566 113.711 164.093 113.3C164.623 112.886 165.26 112.679 166.002 112.679C166.744 112.679 167.379 112.886 167.906 113.3C168.436 113.711 168.841 114.308 169.119 115.09C169.401 115.869 169.542 116.809 169.542 117.909C169.542 119.016 169.403 119.961 169.124 120.743C168.846 121.522 168.443 122.117 167.916 122.528C167.389 122.935 166.751 123.139 166.002 123.139ZM166.002 122.045C166.744 122.045 167.321 121.687 167.732 120.972C168.143 120.256 168.349 119.235 168.349 117.909C168.349 117.027 168.254 116.277 168.065 115.657C167.88 115.037 167.611 114.565 167.26 114.24C166.912 113.915 166.492 113.753 166.002 113.753C165.266 113.753 164.691 114.116 164.277 114.842C163.863 115.564 163.655 116.587 163.655 117.909C163.655 118.791 163.748 119.54 163.934 120.156C164.119 120.773 164.386 121.242 164.734 121.563C165.086 121.885 165.508 122.045 166.002 122.045ZM174.752 123.139C174.003 123.139 173.365 122.935 172.838 122.528C172.311 122.117 171.908 121.522 171.63 120.743C171.351 119.961 171.212 119.016 171.212 117.909C171.212 116.809 171.351 115.869 171.63 115.09C171.912 114.308 172.316 113.711 172.843 113.3C173.373 112.886 174.01 112.679 174.752 112.679C175.494 112.679 176.129 112.886 176.656 113.3C177.186 113.711 177.591 114.308 177.869 115.09C178.151 115.869 178.292 116.809 178.292 117.909C178.292 119.016 178.153 119.961 177.874 120.743C177.596 121.522 177.193 122.117 176.666 122.528C176.139 122.935 175.501 123.139 174.752 123.139ZM174.752 122.045C175.494 122.045 176.071 121.687 176.482 120.972C176.893 120.256 177.099 119.235 177.099 117.909C177.099 117.027 177.004 116.277 176.815 115.657C176.63 115.037 176.361 114.565 176.01 114.24C175.662 113.915 175.242 113.753 174.752 113.753C174.016 113.753 173.441 114.116 173.027 114.842C172.613 115.564 172.405 116.587 172.405 117.909C172.405 118.791 172.498 119.54 172.684 120.156C172.869 120.773 173.136 121.242 173.484 121.563C173.836 121.885 174.258 122.045 174.752 122.045Z" fill="#151531"/>
</g>
</g>
</g>
</g>
</g>
<g id="Group 3529">
<g id="Group 3374_4">
<g id="Group 3372_4">
<g id="Group 1906_4">
<g id="Group 3371_4">
<path id="Twitter" d="M291.676 113.912V112.818H299.312V113.912H296.111V123H294.878V113.912H291.676ZM301.911 123L299.585 115.364H300.818L302.468 121.21H302.548L304.178 115.364H305.431L307.042 121.191H307.122L308.772 115.364H310.005L307.678 123H306.525L304.855 117.134H304.735L303.065 123H301.911ZM311.556 123V115.364H312.73V123H311.556ZM312.153 114.091C311.924 114.091 311.727 114.013 311.561 113.857C311.399 113.702 311.318 113.514 311.318 113.296C311.318 113.077 311.399 112.89 311.561 112.734C311.727 112.578 311.924 112.5 312.153 112.5C312.382 112.5 312.577 112.578 312.74 112.734C312.905 112.89 312.988 113.077 312.988 113.296C312.988 113.514 312.905 113.702 312.74 113.857C312.577 114.013 312.382 114.091 312.153 114.091ZM318.2 115.364V116.358H314.242V115.364H318.2ZM315.396 113.534H316.569V120.813C316.569 121.144 316.617 121.393 316.713 121.558C316.813 121.721 316.938 121.83 317.091 121.887C317.247 121.94 317.411 121.966 317.583 121.966C317.712 121.966 317.818 121.96 317.901 121.946C317.984 121.93 318.05 121.916 318.1 121.906L318.339 122.96C318.259 122.99 318.148 123.02 318.006 123.05C317.863 123.083 317.683 123.1 317.464 123.1C317.132 123.1 316.808 123.028 316.489 122.886C316.174 122.743 315.913 122.526 315.704 122.235C315.498 121.943 315.396 121.575 315.396 121.131V113.534ZM323.286 115.364V116.358H319.328V115.364H323.286ZM320.482 113.534H321.655V120.813C321.655 121.144 321.703 121.393 321.799 121.558C321.898 121.721 322.024 121.83 322.177 121.887C322.333 121.94 322.497 121.966 322.669 121.966C322.798 121.966 322.904 121.96 322.987 121.946C323.07 121.93 323.136 121.916 323.186 121.906L323.425 122.96C323.345 122.99 323.234 123.02 323.092 123.05C322.949 123.083 322.768 123.1 322.55 123.1C322.218 123.1 321.893 123.028 321.575 122.886C321.26 122.743 320.999 122.526 320.79 122.235C320.584 121.943 320.482 121.575 320.482 121.131V113.534ZM328.17 123.159C327.434 123.159 326.8 122.997 326.266 122.672C325.736 122.344 325.326 121.887 325.038 121.3C324.753 120.71 324.61 120.024 324.61 119.242C324.61 118.46 324.753 117.77 325.038 117.174C325.326 116.574 325.727 116.106 326.241 115.772C326.758 115.433 327.361 115.264 328.051 115.264C328.449 115.264 328.841 115.331 329.229 115.463C329.617 115.596 329.97 115.811 330.288 116.11C330.606 116.405 330.86 116.796 331.049 117.283C331.238 117.77 331.332 118.37 331.332 119.083V119.58H325.446V118.566H330.139C330.139 118.135 330.053 117.75 329.88 117.412C329.711 117.074 329.469 116.807 329.154 116.612C328.843 116.416 328.475 116.318 328.051 116.318C327.583 116.318 327.179 116.434 326.838 116.666C326.5 116.895 326.239 117.193 326.057 117.561C325.875 117.929 325.784 118.324 325.784 118.745V119.421C325.784 119.997 325.883 120.486 326.082 120.887C326.284 121.285 326.564 121.588 326.922 121.797C327.28 122.003 327.696 122.105 328.17 122.105C328.478 122.105 328.757 122.062 329.005 121.976C329.257 121.887 329.474 121.754 329.657 121.578C329.839 121.399 329.98 121.177 330.079 120.912L331.213 121.23C331.093 121.615 330.893 121.953 330.611 122.245C330.329 122.533 329.981 122.758 329.567 122.921C329.153 123.08 328.687 123.159 328.17 123.159ZM333.117 123V115.364H334.25V116.517H334.33C334.469 116.139 334.721 115.833 335.086 115.598C335.45 115.362 335.861 115.245 336.319 115.245C336.405 115.245 336.512 115.246 336.642 115.25C336.771 115.253 336.869 115.258 336.935 115.264V116.458C336.895 116.448 336.804 116.433 336.662 116.413C336.522 116.39 336.375 116.378 336.219 116.378C335.848 116.378 335.516 116.456 335.225 116.612C334.936 116.764 334.708 116.976 334.539 117.248C334.373 117.517 334.29 117.823 334.29 118.168V123H333.117Z" fill="#868E96"/>
<g id="Frame_5">
<path id="Vector_5" d="M270.5 118.625L272.375 120.5L275.5 116.125M280.5 118C280.5 119.057 279.975 119.992 279.173 120.557C279.259 121.051 279.225 121.558 279.074 122.037C278.923 122.515 278.658 122.949 278.303 123.304C277.949 123.658 277.514 123.923 277.036 124.074C276.558 124.225 276.051 124.259 275.557 124.173C275.269 124.583 274.886 124.918 274.441 125.149C273.996 125.38 273.501 125.501 273 125.5C271.943 125.5 271.008 124.975 270.443 124.173C269.949 124.259 269.442 124.225 268.964 124.074C268.486 123.923 268.051 123.658 267.697 123.304C267.342 122.949 267.077 122.515 266.926 122.037C266.775 121.558 266.741 121.051 266.828 120.557C266.417 120.269 266.082 119.886 265.851 119.441C265.62 118.996 265.5 118.502 265.5 118C265.5 116.944 266.025 116.009 266.828 115.444C266.741 114.95 266.775 114.442 266.926 113.964C267.077 113.486 267.342 113.051 267.697 112.697C268.051 112.342 268.486 112.078 268.964 111.927C269.442 111.775 269.949 111.741 270.443 111.828C270.732 111.417 271.114 111.083 271.559 110.851C272.004 110.62 272.499 110.5 273 110.5C274.057 110.5 274.992 111.025 275.557 111.828C276.051 111.741 276.558 111.775 277.036 111.927C277.514 112.078 277.949 112.342 278.303 112.697C278.658 113.051 278.922 113.486 279.074 113.964C279.225 114.442 279.259 114.95 279.173 115.444C279.583 115.732 279.918 116.115 280.149 116.56C280.38 117.005 280.5 117.499 280.5 118Z" stroke="#868E96" stroke-width="1.5" stroke-linecap="round" stroke-linejoin="round"/>
</g>
<path id="@intercom" d="M380.94 125.685C379.926 125.685 379.03 125.546 378.251 125.267C377.472 124.992 376.817 124.586 376.287 124.049C375.757 123.512 375.356 122.854 375.084 122.076C374.812 121.297 374.676 120.405 374.676 119.401C374.676 118.43 374.814 117.561 375.089 116.796C375.367 116.03 375.77 115.38 376.297 114.847C376.827 114.31 377.47 113.901 378.226 113.619C378.985 113.337 379.843 113.196 380.801 113.196C381.732 113.196 382.548 113.349 383.247 113.654C383.95 113.955 384.536 114.365 385.007 114.882C385.481 115.395 385.836 115.974 386.071 116.617C386.31 117.26 386.429 117.923 386.429 118.605C386.429 119.086 386.406 119.573 386.359 120.067C386.313 120.561 386.215 121.015 386.066 121.429C385.917 121.84 385.687 122.172 385.375 122.424C385.067 122.675 384.649 122.801 384.122 122.801C383.89 122.801 383.635 122.765 383.357 122.692C383.078 122.619 382.831 122.498 382.616 122.329C382.4 122.16 382.273 121.933 382.233 121.648H382.173C382.094 121.84 381.971 122.022 381.805 122.195C381.643 122.367 381.429 122.505 381.164 122.607C380.902 122.71 380.582 122.755 380.205 122.742C379.774 122.725 379.394 122.629 379.066 122.453C378.738 122.274 378.463 122.032 378.241 121.728C378.022 121.419 377.856 121.063 377.744 120.659C377.634 120.251 377.58 119.812 377.58 119.341C377.58 118.894 377.646 118.484 377.778 118.113C377.911 117.742 378.095 117.417 378.33 117.139C378.569 116.86 378.847 116.638 379.165 116.473C379.487 116.304 379.833 116.199 380.205 116.159C380.536 116.126 380.838 116.141 381.109 116.204C381.381 116.264 381.605 116.355 381.781 116.478C381.956 116.597 382.067 116.729 382.114 116.875H382.173V116.318H383.227V120.813C383.227 121.091 383.305 121.336 383.461 121.549C383.617 121.761 383.844 121.867 384.142 121.867C384.48 121.867 384.739 121.751 384.918 121.519C385.1 121.287 385.224 120.929 385.29 120.445C385.36 119.961 385.395 119.341 385.395 118.585C385.395 118.141 385.334 117.704 385.211 117.273C385.092 116.839 384.909 116.433 384.664 116.055C384.422 115.677 384.116 115.344 383.744 115.056C383.373 114.767 382.937 114.542 382.437 114.38C381.94 114.214 381.375 114.131 380.741 114.131C379.963 114.131 379.265 114.252 378.648 114.494C378.035 114.732 377.513 115.082 377.082 115.543C376.655 116 376.328 116.557 376.103 117.213C375.881 117.866 375.77 118.609 375.77 119.441C375.77 120.286 375.881 121.036 376.103 121.693C376.328 122.349 376.66 122.902 377.097 123.353C377.538 123.804 378.083 124.145 378.733 124.377C379.383 124.613 380.132 124.73 380.98 124.73C381.345 124.73 381.704 124.696 382.059 124.626C382.414 124.556 382.727 124.48 382.999 124.397C383.27 124.314 383.466 124.253 383.585 124.213L383.864 125.128C383.658 125.214 383.39 125.3 383.058 125.387C382.73 125.473 382.379 125.544 382.004 125.6C381.633 125.657 381.278 125.685 380.94 125.685ZM380.364 121.728C380.808 121.728 381.167 121.638 381.442 121.459C381.718 121.28 381.918 121.01 382.044 120.649C382.17 120.287 382.233 119.832 382.233 119.281C382.233 118.725 382.163 118.29 382.024 117.979C381.885 117.667 381.679 117.449 381.408 117.323C381.136 117.197 380.801 117.134 380.403 117.134C380.026 117.134 379.702 117.233 379.434 117.432C379.169 117.628 378.965 117.889 378.822 118.218C378.683 118.542 378.614 118.897 378.614 119.281C378.614 119.706 378.67 120.105 378.783 120.48C378.895 120.851 379.079 121.152 379.335 121.384C379.59 121.613 379.933 121.728 380.364 121.728ZM388.185 123V115.364H389.358V123H388.185ZM388.782 114.091C388.553 114.091 388.356 114.013 388.19 113.857C388.028 113.702 387.947 113.514 387.947 113.296C387.947 113.077 388.028 112.89 388.19 112.734C388.356 112.578 388.553 112.5 388.782 112.5C389.01 112.5 389.206 112.578 389.368 112.734C389.534 112.89 389.617 113.077 389.617 113.296C389.617 113.514 389.534 113.702 389.368 113.857C389.206 114.013 389.01 114.091 388.782 114.091ZM392.681 118.406V123H391.507V115.364H392.641V116.557H392.74C392.919 116.169 393.191 115.858 393.556 115.622C393.92 115.384 394.391 115.264 394.968 115.264C395.485 115.264 395.937 115.371 396.325 115.583C396.713 115.791 397.014 116.11 397.23 116.537C397.445 116.961 397.553 117.498 397.553 118.148V123H396.38V118.228C396.38 117.628 396.224 117.16 395.912 116.826C395.601 116.487 395.173 116.318 394.63 116.318C394.255 116.318 393.92 116.4 393.625 116.562C393.334 116.724 393.103 116.961 392.934 117.273C392.765 117.585 392.681 117.962 392.681 118.406ZM403.018 115.364V116.358H399.061V115.364H403.018ZM400.214 113.534H401.387V120.813C401.387 121.144 401.435 121.393 401.531 121.558C401.631 121.721 401.757 121.83 401.909 121.887C402.065 121.94 402.229 121.966 402.401 121.966C402.531 121.966 402.637 121.96 402.72 121.946C402.802 121.93 402.869 121.916 402.919 121.906L403.157 122.96C403.078 122.99 402.967 123.02 402.824 123.05C402.682 123.083 402.501 123.1 402.282 123.1C401.951 123.1 401.626 123.028 401.308 122.886C400.993 122.743 400.731 122.526 400.522 122.235C400.317 121.943 400.214 121.575 400.214 121.131V113.534ZM407.903 123.159C407.167 123.159 406.532 122.997 405.998 122.672C405.468 122.344 405.059 121.887 404.77 121.3C404.485 120.71 404.343 120.024 404.343 119.242C404.343 118.46 404.485 117.77 404.77 117.174C405.059 116.574 405.46 116.106 405.974 115.772C406.491 115.433 407.094 115.264 407.783 115.264C408.181 115.264 408.574 115.331 408.961 115.463C409.349 115.596 409.702 115.811 410.02 116.11C410.339 116.405 410.592 116.796 410.781 117.283C410.97 117.77 411.064 118.37 411.064 119.083V119.58H405.178V118.566H409.871C409.871 118.135 409.785 117.75 409.613 117.412C409.444 117.074 409.202 116.807 408.887 116.612C408.575 116.416 408.207 116.318 407.783 116.318C407.316 116.318 406.912 116.434 406.57 116.666C406.232 116.895 405.972 117.193 405.79 117.561C405.607 117.929 405.516 118.324 405.516 118.745V119.421C405.516 119.997 405.616 120.486 405.814 120.887C406.017 121.285 406.297 121.588 406.655 121.797C407.013 122.003 407.429 122.105 407.903 122.105C408.211 122.105 408.489 122.062 408.738 121.976C408.99 121.887 409.207 121.754 409.389 121.578C409.571 121.399 409.712 121.177 409.812 120.912L410.945 121.23C410.826 121.615 410.625 121.953 410.344 122.245C410.062 122.533 409.714 122.758 409.3 122.921C408.885 123.08 408.42 123.159 407.903 123.159ZM412.849 123V115.364H413.983V116.517H414.062C414.202 116.139 414.453 115.833 414.818 115.598C415.183 115.362 415.594 115.245 416.051 115.245C416.137 115.245 416.245 115.246 416.374 115.25C416.503 115.253 416.601 115.258 416.667 115.264V116.458C416.628 116.448 416.537 116.433 416.394 116.413C416.255 116.39 416.107 116.378 415.952 116.378C415.58 116.378 415.249 116.456 414.957 116.612C414.669 116.764 414.44 116.976 414.271 117.248C414.105 117.517 414.023 117.823 414.023 118.168V123H412.849ZM420.928 123.159C420.212 123.159 419.596 122.99 419.079 122.652C418.562 122.314 418.164 121.848 417.885 121.255C417.607 120.662 417.468 119.984 417.468 119.222C417.468 118.446 417.61 117.762 417.895 117.169C418.184 116.572 418.585 116.106 419.099 115.772C419.616 115.433 420.219 115.264 420.908 115.264C421.445 115.264 421.929 115.364 422.36 115.563C422.791 115.762 423.144 116.04 423.419 116.398C423.694 116.756 423.865 117.174 423.931 117.651H422.758C422.668 117.303 422.469 116.995 422.161 116.726C421.856 116.454 421.445 116.318 420.928 116.318C420.471 116.318 420.07 116.438 419.725 116.676C419.384 116.912 419.117 117.245 418.925 117.676C418.736 118.103 418.641 118.605 418.641 119.182C418.641 119.772 418.734 120.286 418.92 120.723C419.108 121.161 419.374 121.5 419.715 121.742C420.06 121.984 420.464 122.105 420.928 122.105C421.233 122.105 421.51 122.052 421.758 121.946C422.007 121.84 422.217 121.688 422.39 121.489C422.562 121.29 422.685 121.051 422.758 120.773H423.931C423.865 121.224 423.701 121.63 423.439 121.991C423.18 122.349 422.837 122.634 422.41 122.846C421.985 123.055 421.492 123.159 420.928 123.159ZM428.748 123.159C428.059 123.159 427.454 122.995 426.934 122.667C426.417 122.339 426.012 121.88 425.721 121.29C425.432 120.7 425.288 120.011 425.288 119.222C425.288 118.426 425.432 117.732 425.721 117.139C426.012 116.545 426.417 116.085 426.934 115.757C427.454 115.429 428.059 115.264 428.748 115.264C429.438 115.264 430.041 115.429 430.558 115.757C431.078 116.085 431.483 116.545 431.771 117.139C432.063 117.732 432.209 118.426 432.209 119.222C432.209 120.011 432.063 120.7 431.771 121.29C431.483 121.88 431.078 122.339 430.558 122.667C430.041 122.995 429.438 123.159 428.748 123.159ZM428.748 122.105C429.272 122.105 429.703 121.971 430.041 121.703C430.379 121.434 430.629 121.081 430.792 120.644C430.954 120.206 431.035 119.732 431.035 119.222C431.035 118.711 430.954 118.236 430.792 117.795C430.629 117.354 430.379 116.998 430.041 116.726C429.703 116.454 429.272 116.318 428.748 116.318C428.225 116.318 427.794 116.454 427.456 116.726C427.118 116.998 426.867 117.354 426.705 117.795C426.543 118.236 426.461 118.711 426.461 119.222C426.461 119.732 426.543 120.206 426.705 120.644C426.867 121.081 427.118 121.434 427.456 121.703C427.794 121.971 428.225 122.105 428.748 122.105ZM434 123V115.364H435.133V116.557H435.233C435.392 116.149 435.649 115.833 436.003 115.607C436.358 115.379 436.784 115.264 437.281 115.264C437.785 115.264 438.204 115.379 438.539 115.607C438.877 115.833 439.14 116.149 439.329 116.557H439.409C439.604 116.163 439.898 115.849 440.289 115.617C440.68 115.382 441.149 115.264 441.696 115.264C442.378 115.264 442.937 115.478 443.371 115.906C443.805 116.33 444.022 116.991 444.022 117.889V123H442.849V117.889C442.849 117.326 442.695 116.923 442.387 116.681C442.078 116.439 441.716 116.318 441.298 116.318C440.761 116.318 440.345 116.481 440.05 116.806C439.755 117.127 439.608 117.535 439.608 118.029V123H438.414V117.77C438.414 117.336 438.274 116.986 437.992 116.721C437.71 116.453 437.347 116.318 436.903 116.318C436.598 116.318 436.313 116.4 436.048 116.562C435.786 116.724 435.574 116.95 435.412 117.238C435.252 117.523 435.173 117.853 435.173 118.228V123H434Z" fill="#151531"/>
</g>
</g>
</g>
</g>
</g>
<g id="Group 3530">
<g id="Group 3374_5">
<g id="Group 3372_5">
<g id="Group 1906_5">
<g id="Group 3371_5">
<path id="Qualified" d="M295.932 155.818H297.284L298.418 157.31L298.716 157.708L300.406 159.955H299.054L297.94 158.463L297.662 158.085L295.932 155.818ZM300.824 153.909C300.824 154.983 300.63 155.911 300.242 156.693C299.854 157.476 299.322 158.079 298.646 158.503C297.97 158.927 297.198 159.139 296.33 159.139C295.461 159.139 294.689 158.927 294.013 158.503C293.337 158.079 292.805 157.476 292.417 156.693C292.029 155.911 291.835 154.983 291.835 153.909C291.835 152.835 292.029 151.907 292.417 151.125C292.805 150.343 293.337 149.74 294.013 149.316C294.689 148.891 295.461 148.679 296.33 148.679C297.198 148.679 297.97 148.891 298.646 149.316C299.322 149.74 299.854 150.343 300.242 151.125C300.63 151.907 300.824 152.835 300.824 153.909ZM299.631 153.909C299.631 153.028 299.483 152.284 299.188 151.677C298.897 151.071 298.5 150.612 298 150.3C297.503 149.988 296.946 149.833 296.33 149.833C295.713 149.833 295.155 149.988 294.654 150.3C294.157 150.612 293.761 151.071 293.466 151.677C293.174 152.284 293.028 153.028 293.028 153.909C293.028 154.791 293.174 155.535 293.466 156.142C293.761 156.748 294.157 157.207 294.654 157.519C295.155 157.83 295.713 157.986 296.33 157.986C296.946 157.986 297.503 157.83 298 157.519C298.5 157.207 298.897 156.748 299.188 156.142C299.483 155.535 299.631 154.791 299.631 153.909ZM307.55 155.878V151.364H308.724V159H307.55V157.708H307.471C307.292 158.095 307.013 158.425 306.636 158.697C306.258 158.965 305.781 159.1 305.204 159.1C304.727 159.1 304.302 158.995 303.931 158.786C303.56 158.574 303.268 158.256 303.056 157.832C302.844 157.404 302.738 156.866 302.738 156.216V151.364H303.911V156.137C303.911 156.693 304.067 157.138 304.379 157.469C304.693 157.8 305.094 157.966 305.582 157.966C305.873 157.966 306.17 157.892 306.472 157.742C306.777 157.593 307.032 157.365 307.237 157.056C307.446 156.748 307.55 156.355 307.55 155.878ZM313.12 159.179C312.636 159.179 312.197 159.088 311.802 158.906C311.408 158.72 311.095 158.453 310.863 158.105C310.631 157.754 310.515 157.33 310.515 156.833C310.515 156.395 310.601 156.04 310.773 155.769C310.946 155.494 311.176 155.278 311.464 155.122C311.753 154.967 312.071 154.851 312.419 154.774C312.77 154.695 313.123 154.632 313.478 154.585C313.942 154.526 314.318 154.481 314.606 154.451C314.898 154.418 315.11 154.363 315.243 154.287C315.379 154.211 315.447 154.078 315.447 153.889V153.85C315.447 153.359 315.312 152.978 315.044 152.706C314.779 152.434 314.376 152.299 313.836 152.299C313.276 152.299 312.836 152.421 312.518 152.666C312.2 152.912 311.976 153.174 311.847 153.452L310.733 153.054C310.932 152.59 311.198 152.229 311.529 151.97C311.864 151.709 312.228 151.526 312.623 151.424C313.02 151.317 313.412 151.264 313.796 151.264C314.041 151.264 314.323 151.294 314.641 151.354C314.963 151.41 315.273 151.528 315.571 151.707C315.872 151.886 316.123 152.156 316.322 152.517C316.52 152.879 316.62 153.362 316.62 153.969V159H315.447V157.966H315.387C315.307 158.132 315.175 158.309 314.989 158.498C314.804 158.687 314.557 158.848 314.248 158.98C313.94 159.113 313.564 159.179 313.12 159.179ZM313.299 158.125C313.763 158.125 314.154 158.034 314.472 157.852C314.794 157.67 315.036 157.434 315.198 157.146C315.364 156.857 315.447 156.554 315.447 156.236V155.162C315.397 155.222 315.287 155.277 315.118 155.326C314.953 155.373 314.76 155.414 314.542 155.451C314.326 155.484 314.116 155.514 313.91 155.54C313.708 155.563 313.544 155.583 313.418 155.6C313.113 155.639 312.828 155.704 312.563 155.794C312.301 155.88 312.089 156.011 311.927 156.186C311.768 156.359 311.688 156.594 311.688 156.892C311.688 157.3 311.839 157.608 312.14 157.817C312.445 158.022 312.831 158.125 313.299 158.125ZM319.935 148.818V159H318.761V148.818H319.935ZM322.084 159V151.364H323.257V159H322.084ZM322.68 150.091C322.452 150.091 322.254 150.013 322.089 149.857C321.926 149.702 321.845 149.514 321.845 149.296C321.845 149.077 321.926 148.89 322.089 148.734C322.254 148.578 322.452 148.5 322.68 148.5C322.909 148.5 323.104 148.578 323.267 148.734C323.433 148.89 323.515 149.077 323.515 149.296C323.515 149.514 323.433 149.702 323.267 149.857C323.104 150.013 322.909 150.091 322.68 150.091ZM328.806 151.364V152.358H324.69V151.364H328.806ZM325.923 159V150.31C325.923 149.872 326.026 149.508 326.231 149.216C326.437 148.924 326.703 148.706 327.032 148.56C327.36 148.414 327.706 148.341 328.071 148.341C328.359 148.341 328.594 148.364 328.777 148.411C328.959 148.457 329.095 148.5 329.184 148.54L328.846 149.554C328.787 149.534 328.704 149.509 328.598 149.48C328.495 149.45 328.359 149.435 328.19 149.435C327.802 149.435 327.522 149.533 327.35 149.728C327.181 149.924 327.096 150.21 327.096 150.588V159H325.923ZM330.451 159V151.364H331.624V159H330.451ZM331.047 150.091C330.819 150.091 330.622 150.013 330.456 149.857C330.293 149.702 330.212 149.514 330.212 149.296C330.212 149.077 330.293 148.89 330.456 148.734C330.622 148.578 330.819 148.5 331.047 148.5C331.276 148.5 331.472 148.578 331.634 148.734C331.8 148.89 331.883 149.077 331.883 149.296C331.883 149.514 331.8 149.702 331.634 149.857C331.472 150.013 331.276 150.091 331.047 150.091ZM336.975 159.159C336.239 159.159 335.604 158.997 335.071 158.672C334.54 158.344 334.131 157.887 333.843 157.3C333.558 156.71 333.415 156.024 333.415 155.242C333.415 154.46 333.558 153.77 333.843 153.174C334.131 152.574 334.532 152.106 335.046 151.772C335.563 151.433 336.166 151.264 336.855 151.264C337.253 151.264 337.646 151.331 338.034 151.463C338.422 151.596 338.775 151.811 339.093 152.11C339.411 152.405 339.664 152.796 339.853 153.283C340.042 153.77 340.137 154.37 340.137 155.083V155.58H334.25V154.566H338.944C338.944 154.135 338.857 153.75 338.685 153.412C338.516 153.074 338.274 152.807 337.959 152.612C337.648 152.416 337.28 152.318 336.855 152.318C336.388 152.318 335.984 152.434 335.642 152.666C335.304 152.895 335.044 153.193 334.862 153.561C334.68 153.929 334.588 154.324 334.588 154.745V155.421C334.588 155.997 334.688 156.486 334.887 156.887C335.089 157.285 335.369 157.588 335.727 157.797C336.085 158.003 336.501 158.105 336.975 158.105C337.283 158.105 337.561 158.062 337.81 157.976C338.062 157.887 338.279 157.754 338.461 157.578C338.644 157.399 338.784 157.177 338.884 156.912L340.017 157.23C339.898 157.615 339.698 157.953 339.416 158.245C339.134 158.533 338.786 158.758 338.372 158.921C337.958 159.08 337.492 159.159 336.975 159.159ZM344.805 159.159C344.169 159.159 343.607 158.999 343.12 158.677C342.632 158.352 342.251 157.895 341.976 157.305C341.701 156.712 341.564 156.011 341.564 155.202C341.564 154.4 341.701 153.704 341.976 153.114C342.251 152.524 342.634 152.068 343.125 151.747C343.615 151.425 344.182 151.264 344.825 151.264C345.322 151.264 345.715 151.347 346.003 151.513C346.295 151.675 346.517 151.861 346.669 152.07C346.825 152.275 346.946 152.444 347.032 152.577H347.132V148.818H348.305V159H347.172V157.827H347.032C346.946 157.966 346.824 158.142 346.664 158.354C346.505 158.563 346.278 158.75 345.983 158.916C345.688 159.078 345.296 159.159 344.805 159.159ZM344.964 158.105C345.435 158.105 345.833 157.983 346.157 157.737C346.482 157.489 346.729 157.146 346.898 156.708C347.067 156.268 347.152 155.759 347.152 155.182C347.152 154.612 347.069 154.113 346.903 153.686C346.737 153.255 346.492 152.92 346.167 152.681C345.842 152.439 345.441 152.318 344.964 152.318C344.467 152.318 344.053 152.446 343.721 152.701C343.393 152.953 343.146 153.296 342.98 153.73C342.818 154.161 342.737 154.645 342.737 155.182C342.737 155.726 342.82 156.219 342.985 156.664C343.154 157.104 343.403 157.456 343.731 157.718C344.063 157.976 344.474 158.105 344.964 158.105Z" fill="#868E96"/>
<g id="Frame_6">
<path id="Vector_6" d="M270.5 154.125L272.375 156L275.5 151.625M280.5 153.5C280.5 154.485 280.306 155.46 279.929 156.37C279.552 157.28 279 158.107 278.303 158.804C277.607 159.5 276.78 160.052 275.87 160.429C274.96 160.806 273.985 161 273 161C272.015 161 271.04 160.806 270.13 160.429C269.22 160.052 268.393 159.5 267.697 158.804C267 158.107 266.448 157.28 266.071 156.37C265.694 155.46 265.5 154.485 265.5 153.5C265.5 151.511 266.29 149.603 267.697 148.197C269.103 146.79 271.011 146 273 146C274.989 146 276.897 146.79 278.303 148.197C279.71 149.603 280.5 151.511 280.5 153.5Z" stroke="#868E96" stroke-width="1.5" stroke-linecap="round" stroke-linejoin="round"/>
</g>
<path id="true" d="M378.395 151.364V152.358H374.438V151.364H378.395ZM375.591 149.534H376.764V156.813C376.764 157.144 376.812 157.393 376.908 157.558C377.008 157.721 377.134 157.83 377.286 157.887C377.442 157.94 377.606 157.966 377.778 157.966C377.908 157.966 378.014 157.96 378.097 157.946C378.179 157.93 378.246 157.916 378.295 157.906L378.534 158.96C378.455 158.99 378.344 159.02 378.201 159.05C378.058 159.083 377.878 159.1 377.659 159.1C377.328 159.1 377.003 159.028 376.685 158.886C376.37 158.743 376.108 158.526 375.899 158.235C375.694 157.943 375.591 157.575 375.591 157.131V149.534ZM380.16 159V151.364H381.293V152.517H381.373C381.512 152.139 381.764 151.833 382.129 151.598C382.493 151.362 382.904 151.245 383.362 151.245C383.448 151.245 383.555 151.246 383.685 151.25C383.814 151.253 383.912 151.258 383.978 151.264V152.458C383.938 152.448 383.847 152.433 383.705 152.413C383.565 152.39 383.418 152.378 383.262 152.378C382.891 152.378 382.559 152.456 382.268 152.612C381.979 152.764 381.751 152.976 381.582 153.248C381.416 153.517 381.333 153.823 381.333 154.168V159H380.16ZM390.181 155.878V151.364H391.355V159H390.181V157.708H390.102C389.923 158.095 389.644 158.425 389.267 158.697C388.889 158.965 388.411 159.1 387.835 159.1C387.357 159.1 386.933 158.995 386.562 158.786C386.191 158.574 385.899 158.256 385.687 157.832C385.475 157.404 385.369 156.866 385.369 156.216V151.364H386.542V156.137C386.542 156.693 386.698 157.138 387.009 157.469C387.324 157.8 387.725 157.966 388.213 157.966C388.504 157.966 388.801 157.892 389.102 157.742C389.407 157.593 389.663 157.365 389.868 157.056C390.077 156.748 390.181 156.355 390.181 155.878ZM396.705 159.159C395.969 159.159 395.335 158.997 394.801 158.672C394.271 158.344 393.862 157.887 393.573 157.3C393.288 156.71 393.146 156.024 393.146 155.242C393.146 154.46 393.288 153.77 393.573 153.174C393.862 152.574 394.263 152.106 394.776 151.772C395.293 151.433 395.897 151.264 396.586 151.264C396.984 151.264 397.376 151.331 397.764 151.463C398.152 151.596 398.505 151.811 398.823 152.11C399.141 152.405 399.395 152.796 399.584 153.283C399.773 153.77 399.867 154.37 399.867 155.083V155.58H393.981V154.566H398.674C398.674 154.135 398.588 153.75 398.415 153.412C398.246 153.074 398.004 152.807 397.69 152.612C397.378 152.416 397.01 152.318 396.586 152.318C396.119 152.318 395.714 152.434 395.373 152.666C395.035 152.895 394.775 153.193 394.592 153.561C394.41 153.929 394.319 154.324 394.319 154.745V155.421C394.319 155.997 394.418 156.486 394.617 156.887C394.819 157.285 395.099 157.588 395.457 157.797C395.815 158.003 396.231 158.105 396.705 158.105C397.013 158.105 397.292 158.062 397.54 157.976C397.792 157.887 398.009 157.754 398.192 157.578C398.374 157.399 398.515 157.177 398.614 156.912L399.748 157.23C399.629 157.615 399.428 157.953 399.146 158.245C398.865 158.533 398.517 158.758 398.102 158.921C397.688 159.08 397.222 159.159 396.705 159.159Z" fill="#26A559"/>
</g>
</g>
</g>
</g>
</g>
<g id="Group 3527">
<g id="Group 3374_6">
<g id="Group 3372_6">
<g id="Group 1906_6">
<g id="Group 3371_6">
<path id="Funding" d="M58.233 159V148.818H64.3381V149.912H59.4659V153.352H63.8807V154.446H59.4659V159H58.233ZM70.6246 155.878V151.364H71.7979V159H70.6246V157.707H70.5451C70.3661 158.095 70.0877 158.425 69.7099 158.697C69.332 158.965 68.8548 159.099 68.2781 159.099C67.8008 159.099 67.3765 158.995 67.0053 158.786C66.6341 158.574 66.3424 158.256 66.1303 157.832C65.9182 157.404 65.8121 156.866 65.8121 156.216V151.364H66.9854V156.136C66.9854 156.693 67.1412 157.137 67.4528 157.469C67.7676 157.8 68.1687 157.966 68.6559 157.966C68.9476 157.966 69.2442 157.891 69.5458 157.742C69.8507 157.593 70.1059 157.364 70.3114 157.056C70.5202 156.748 70.6246 156.355 70.6246 155.878ZM75.1202 154.406V159H73.9469V151.364H75.0804V152.557H75.1799C75.3588 152.169 75.6306 151.857 75.9952 151.622C76.3598 151.384 76.8304 151.264 77.4071 151.264C77.9242 151.264 78.3766 151.37 78.7644 151.582C79.1522 151.791 79.4538 152.109 79.6692 152.537C79.8846 152.961 79.9924 153.498 79.9924 154.148V159H78.8191V154.227C78.8191 153.627 78.6633 153.16 78.3517 152.825C78.0402 152.487 77.6126 152.318 77.0691 152.318C76.6945 152.318 76.3598 152.399 76.0648 152.562C75.7731 152.724 75.5428 152.961 75.3738 153.273C75.2047 153.584 75.1202 153.962 75.1202 154.406ZM85.0199 159.159C84.3835 159.159 83.8217 158.998 83.3345 158.677C82.8473 158.352 82.4661 157.895 82.1911 157.305C81.916 156.711 81.7784 156.01 81.7784 155.202C81.7784 154.4 81.916 153.704 82.1911 153.114C82.4661 152.524 82.849 152.068 83.3395 151.746C83.83 151.425 84.3968 151.264 85.0398 151.264C85.5369 151.264 85.9297 151.347 86.218 151.513C86.5097 151.675 86.7318 151.861 86.8842 152.07C87.04 152.275 87.161 152.444 87.2472 152.577H87.3466V148.818H88.5199V159H87.3864V157.827H87.2472C87.161 157.966 87.0384 158.142 86.8793 158.354C86.7202 158.562 86.4931 158.75 86.1982 158.915C85.9032 159.078 85.5104 159.159 85.0199 159.159ZM85.179 158.105C85.6496 158.105 86.0473 157.982 86.3722 157.737C86.697 157.489 86.9439 157.146 87.1129 156.708C87.282 156.267 87.3665 155.759 87.3665 155.182C87.3665 154.612 87.2836 154.113 87.1179 153.685C86.9522 153.254 86.7069 152.92 86.3821 152.681C86.0573 152.439 85.6563 152.318 85.179 152.318C84.6818 152.318 84.2675 152.446 83.9361 152.701C83.608 152.953 83.361 153.296 83.1953 153.73C83.0329 154.161 82.9517 154.645 82.9517 155.182C82.9517 155.725 83.0346 156.219 83.2003 156.663C83.3693 157.104 83.6179 157.455 83.946 157.717C84.2775 157.976 84.6884 158.105 85.179 158.105ZM90.8317 159V151.364H92.005V159H90.8317ZM91.4283 150.091C91.1996 150.091 91.0024 150.013 90.8366 149.857C90.6742 149.701 90.593 149.514 90.593 149.295C90.593 149.077 90.6742 148.889 90.8366 148.734C91.0024 148.578 91.1996 148.5 91.4283 148.5C91.657 148.5 91.8525 148.578 92.0149 148.734C92.1806 148.889 92.2635 149.077 92.2635 149.295C92.2635 149.514 92.1806 149.701 92.0149 149.857C91.8525 150.013 91.657 150.091 91.4283 150.091ZM95.3272 154.406V159H94.1539V151.364H95.2875V152.557H95.3869C95.5659 152.169 95.8377 151.857 96.2022 151.622C96.5668 151.384 97.0375 151.264 97.6142 151.264C98.1312 151.264 98.5836 151.37 98.9714 151.582C99.3592 151.791 99.6608 152.109 99.8762 152.537C100.092 152.961 100.199 153.498 100.199 154.148V159H99.0261V154.227C99.0261 153.627 98.8703 153.16 98.5588 152.825C98.2472 152.487 97.8197 152.318 97.2761 152.318C96.9016 152.318 96.5668 152.399 96.2718 152.562C95.9802 152.724 95.7498 152.961 95.5808 153.273C95.4118 153.584 95.3272 153.962 95.3272 154.406ZM105.426 162.023C104.859 162.023 104.372 161.95 103.964 161.804C103.556 161.661 103.217 161.473 102.945 161.237C102.676 161.005 102.463 160.757 102.304 160.491L103.238 159.835C103.344 159.974 103.479 160.134 103.641 160.312C103.803 160.495 104.025 160.652 104.307 160.785C104.592 160.921 104.965 160.989 105.426 160.989C106.042 160.989 106.551 160.839 106.952 160.541C107.353 160.243 107.554 159.776 107.554 159.139V157.588H107.454C107.368 157.727 107.245 157.9 107.086 158.105C106.931 158.307 106.705 158.488 106.41 158.647C106.118 158.803 105.724 158.881 105.227 158.881C104.61 158.881 104.057 158.735 103.566 158.443C103.079 158.152 102.693 157.727 102.408 157.17C102.126 156.614 101.985 155.937 101.985 155.142C101.985 154.36 102.123 153.679 102.398 153.099C102.673 152.515 103.056 152.065 103.547 151.746C104.037 151.425 104.604 151.264 105.247 151.264C105.744 151.264 106.138 151.347 106.43 151.513C106.725 151.675 106.95 151.861 107.106 152.07C107.265 152.275 107.388 152.444 107.474 152.577H107.593V151.364H108.727V159.219C108.727 159.875 108.578 160.409 108.279 160.82C107.984 161.234 107.587 161.537 107.086 161.729C106.589 161.925 106.036 162.023 105.426 162.023ZM105.386 157.827C105.857 157.827 106.254 157.719 106.579 157.504C106.904 157.288 107.151 156.978 107.32 156.574C107.489 156.17 107.574 155.686 107.574 155.122C107.574 154.572 107.491 154.086 107.325 153.665C107.159 153.245 106.914 152.915 106.589 152.676C106.264 152.437 105.863 152.318 105.386 152.318C104.889 152.318 104.475 152.444 104.143 152.696C103.815 152.948 103.568 153.286 103.402 153.71C103.24 154.134 103.159 154.605 103.159 155.122C103.159 155.652 103.242 156.121 103.407 156.529C103.576 156.933 103.825 157.252 104.153 157.484C104.484 157.712 104.895 157.827 105.386 157.827Z" fill="#868E96"/>
<g id="Frame_7">
<path id="Vector_7" d="M30.875 159.625C35.3213 159.621 39.7483 160.21 44.0392 161.376C44.645 161.541 45.25 161.091 45.25 160.463V159.625M32.125 147.75V148.375C32.125 148.541 32.0592 148.7 31.9419 148.817C31.8247 148.934 31.6658 149 31.5 149H30.875M30.875 149V148.688C30.875 148.17 31.295 147.75 31.8125 147.75H45.875M30.875 149V156.5M45.875 147.75V148.375C45.875 148.72 46.155 149 46.5 149H47.125M45.875 147.75H46.1875C46.705 147.75 47.125 148.17 47.125 148.688V156.813C47.125 157.33 46.705 157.75 46.1875 157.75H45.875M30.875 156.5V156.813C30.875 157.061 30.9738 157.3 31.1496 157.475C31.3254 157.651 31.5639 157.75 31.8125 157.75H32.125M30.875 156.5H31.5C31.6658 156.5 31.8247 156.566 31.9419 156.683C32.0592 156.8 32.125 156.959 32.125 157.125V157.75M45.875 157.75V157.125C45.875 156.959 45.9408 156.8 46.0581 156.683C46.1753 156.566 46.3342 156.5 46.5 156.5H47.125M45.875 157.75H32.125M41.5 152.75C41.5 153.413 41.2366 154.049 40.7678 154.518C40.2989 154.987 39.663 155.25 39 155.25C38.337 155.25 37.7011 154.987 37.2322 154.518C36.7634 154.049 36.5 153.413 36.5 152.75C36.5 152.087 36.7634 151.451 37.2322 150.982C37.7011 150.513 38.337 150.25 39 150.25C39.663 150.25 40.2989 150.513 40.7678 150.982C41.2366 151.451 41.5 152.087 41.5 152.75ZM44 152.75H44.0067V152.757H44V152.75ZM34 152.75H34.0067V152.757H34V152.75Z" stroke="#868E96" stroke-width="1.25" stroke-linecap="round" stroke-linejoin="round"/>
</g>
<path id="$33M" d="M157.057 160.273V147.545H157.872V160.273H157.057ZM159.801 151.364C159.741 150.86 159.5 150.469 159.075 150.19C158.651 149.912 158.131 149.773 157.514 149.773C157.063 149.773 156.669 149.846 156.331 149.991C155.996 150.137 155.734 150.338 155.545 150.593C155.36 150.848 155.267 151.138 155.267 151.463C155.267 151.735 155.332 151.969 155.461 152.164C155.594 152.356 155.763 152.517 155.968 152.646C156.174 152.772 156.389 152.877 156.614 152.96C156.84 153.039 157.047 153.104 157.236 153.153L158.27 153.432C158.535 153.501 158.83 153.598 159.155 153.72C159.483 153.843 159.796 154.01 160.094 154.222C160.396 154.431 160.645 154.7 160.84 155.028C161.036 155.356 161.134 155.759 161.134 156.236C161.134 156.786 160.989 157.283 160.701 157.727C160.416 158.171 159.998 158.524 159.448 158.786C158.901 159.048 158.237 159.179 157.455 159.179C156.725 159.179 156.094 159.061 155.56 158.826C155.03 158.591 154.612 158.263 154.308 157.842C154.006 157.421 153.835 156.932 153.795 156.375H155.068C155.101 156.759 155.231 157.078 155.456 157.33C155.685 157.578 155.973 157.764 156.321 157.886C156.672 158.006 157.05 158.065 157.455 158.065C157.925 158.065 158.348 157.989 158.722 157.837C159.097 157.681 159.393 157.465 159.612 157.19C159.831 156.912 159.94 156.587 159.94 156.216C159.94 155.878 159.846 155.603 159.657 155.391C159.468 155.179 159.219 155.006 158.911 154.874C158.603 154.741 158.27 154.625 157.912 154.526L156.659 154.168C155.864 153.939 155.234 153.612 154.77 153.188C154.306 152.764 154.074 152.209 154.074 151.523C154.074 150.953 154.228 150.455 154.536 150.031C154.848 149.604 155.265 149.272 155.789 149.037C156.316 148.798 156.904 148.679 157.554 148.679C158.21 148.679 158.794 148.797 159.304 149.032C159.814 149.264 160.219 149.582 160.517 149.987C160.819 150.391 160.978 150.85 160.994 151.364H159.801ZM166.422 159.139C165.766 159.139 165.181 159.027 164.667 158.801C164.157 158.576 163.751 158.263 163.449 157.862C163.151 157.457 162.988 156.988 162.962 156.455H164.215C164.241 156.783 164.354 157.066 164.553 157.305C164.752 157.54 165.012 157.722 165.333 157.852C165.655 157.981 166.011 158.045 166.402 158.045C166.84 158.045 167.227 157.969 167.566 157.817C167.904 157.664 168.169 157.452 168.361 157.18C168.553 156.909 168.649 156.594 168.649 156.236C168.649 155.861 168.557 155.531 168.371 155.246C168.185 154.958 167.914 154.733 167.556 154.57C167.198 154.408 166.76 154.327 166.243 154.327H165.428V153.233H166.243C166.647 153.233 167.002 153.16 167.307 153.014C167.615 152.868 167.856 152.663 168.028 152.398C168.204 152.133 168.291 151.821 168.291 151.463C168.291 151.118 168.215 150.818 168.063 150.563C167.91 150.308 167.695 150.109 167.416 149.967C167.141 149.824 166.816 149.753 166.442 149.753C166.091 149.753 165.759 149.817 165.448 149.947C165.139 150.073 164.887 150.257 164.692 150.499C164.496 150.737 164.39 151.026 164.374 151.364H163.181C163.2 150.83 163.361 150.363 163.663 149.962C163.964 149.557 164.359 149.242 164.846 149.017C165.337 148.792 165.875 148.679 166.462 148.679C167.092 148.679 167.632 148.807 168.083 149.062C168.533 149.314 168.88 149.647 169.122 150.061C169.364 150.475 169.485 150.923 169.485 151.403C169.485 151.977 169.334 152.466 169.032 152.87C168.734 153.274 168.328 153.554 167.814 153.71V153.79C168.457 153.896 168.959 154.169 169.32 154.61C169.682 155.048 169.862 155.589 169.862 156.236C169.862 156.789 169.712 157.286 169.41 157.727C169.112 158.165 168.704 158.509 168.187 158.761C167.67 159.013 167.082 159.139 166.422 159.139ZM175.336 159.139C174.68 159.139 174.095 159.027 173.581 158.801C173.071 158.576 172.665 158.263 172.363 157.862C172.065 157.457 171.902 156.988 171.876 156.455H173.129C173.155 156.783 173.268 157.066 173.467 157.305C173.666 157.54 173.926 157.722 174.247 157.852C174.569 157.981 174.925 158.045 175.316 158.045C175.754 158.045 176.142 157.969 176.48 157.817C176.818 157.664 177.083 157.452 177.275 157.18C177.467 156.909 177.563 156.594 177.563 156.236C177.563 155.861 177.471 155.531 177.285 155.246C177.099 154.958 176.828 154.733 176.47 154.57C176.112 154.408 175.674 154.327 175.157 154.327H174.342V153.233H175.157C175.561 153.233 175.916 153.16 176.221 153.014C176.529 152.868 176.77 152.663 176.942 152.398C177.118 152.133 177.205 151.821 177.205 151.463C177.205 151.118 177.129 150.818 176.977 150.563C176.824 150.308 176.609 150.109 176.33 149.967C176.055 149.824 175.731 149.753 175.356 149.753C175.005 149.753 174.673 149.817 174.362 149.947C174.053 150.073 173.802 150.257 173.606 150.499C173.41 150.737 173.304 151.026 173.288 151.364H172.095C172.115 150.83 172.275 150.363 172.577 149.962C172.878 149.557 173.273 149.242 173.76 149.017C174.251 148.792 174.789 148.679 175.376 148.679C176.006 148.679 176.546 148.807 176.997 149.062C177.447 149.314 177.794 149.647 178.036 150.061C178.278 150.475 178.399 150.923 178.399 151.403C178.399 151.977 178.248 152.466 177.946 152.87C177.648 153.274 177.242 153.554 176.728 153.71V153.79C177.371 153.896 177.873 154.169 178.235 154.61C178.596 155.048 178.776 155.589 178.776 156.236C178.776 156.789 178.626 157.286 178.324 157.727C178.026 158.165 177.618 158.509 177.101 158.761C176.584 159.013 175.996 159.139 175.336 159.139ZM180.989 148.818H182.46L185.921 157.27H186.04L189.5 148.818H190.972V159H189.818V151.264H189.719L186.537 159H185.423L182.242 151.264H182.142V159H180.989V148.818Z" fill="#151531"/>
</g>
</g>
</g>
</g>
</g>
</g>
<defs>
<filter id="filter0_dd_792_13131" x="0" y="0.000244141" width="525" height="195" filterUnits="userSpaceOnUse" color-interpolation-filters="sRGB">
<feFlood flood-opacity="0" result="BackgroundImageFix"/>
<feColorMatrix in="SourceAlpha" type="matrix" values="0 0 0 0 0 0 0 0 0 0 0 0 0 0 0 0 0 0 127 0" result="hardAlpha"/>
<feOffset dy="2"/>
<feGaussianBlur stdDeviation="5"/>
<feColorMatrix type="matrix" values="0 0 0 0 0.0509804 0 0 0 0 0.0745098 0 0 0 0 0.105882 0 0 0 0.1 0"/>
<feBlend mode="normal" in2="BackgroundImageFix" result="effect1_dropShadow_792_13131"/>
<feColorMatrix in="SourceAlpha" type="matrix" values="0 0 0 0 0 0 0 0 0 0 0 0 0 0 0 0 0 0 127 0" result="hardAlpha"/>
<feOffset/>
<feGaussianBlur stdDeviation="1"/>
<feColorMatrix type="matrix" values="0 0 0 0 0.0509804 0 0 0 0 0.0745098 0 0 0 0 0.105882 0 0 0 0.2 0"/>
<feBlend mode="normal" in2="effect1_dropShadow_792_13131" result="effect2_dropShadow_792_13131"/>
<feBlend mode="normal" in="SourceGraphic" in2="effect2_dropShadow_792_13131" result="shape"/>
</filter>
<linearGradient id="paint0_linear_792_13131" x1="61" y1="39" x2="194" y2="39" gradientUnits="userSpaceOnUse">
<stop stop-color="#C581FF"/>
<stop offset="1" stop-color="#008BE6"/>
</linearGradient>
</defs>
</svg>
