<svg width="90" height="32" viewBox="0 0 90 32" fill="none" xmlns="http://www.w3.org/2000/svg">
<path d="M33.7342 13.7771V27.3327H36.5906V13.7771H40.8751V11.4659H36.5906V9.79005C36.5906 7.95247 37.3221 6.78631 38.9244 6.78631C40.3177 6.78631 41.1886 7.7051 41.5718 8.90659L43.5573 8.19983C42.8606 5.86752 41.3976 4.66602 38.7851 4.66602C35.5804 4.66602 33.7342 6.82165 33.7342 10.1081V11.4659H31.4004V13.7771H33.7342Z" fill="#151531"/>
<path d="M45.6737 19.2051C45.6737 15.742 47.6017 13.339 50.667 13.339C53.7672 13.339 55.73 15.742 55.73 19.2051C55.73 22.6329 53.7672 25.0712 50.667 25.0712C47.6017 25.0712 45.6737 22.6329 45.6737 19.2051ZM58.6908 19.2051C58.6908 14.3991 55.1605 11.042 50.667 11.042C46.2084 11.042 42.7129 14.3991 42.7129 19.2051C42.7129 24.0111 46.2084 27.3329 50.667 27.3329C55.1605 27.3329 58.6908 24.0111 58.6908 19.2051Z" fill="#151531"/>
<path d="M61.6816 4.66602V27.3327H64.5727V4.66602H61.6816Z" fill="#151531"/>
<path d="M71.19 21.3252L73.3149 19.4169L79.3759 27.3327H82.7895L75.4745 17.7914L82.476 11.4659H78.8534L71.19 18.4628V4.66602H68.2988V27.3327H71.19V21.3252Z" fill="#151531"/>
<path d="M86.5156 27.3532H89.9989V23.8193H86.5156V27.3532Z" fill="#151531"/>
<path d="M13.4345 3.24414C20.4081 3.24414 26.0681 8.9264 26.0681 15.9441C26.0681 22.9619 20.4081 28.6441 13.4345 28.6441C6.46077 28.6441 0.800781 22.9619 0.800781 15.9441C0.800781 8.9264 6.46077 3.24414 13.4345 3.24414Z" stroke="#151531" stroke-width="1.6" stroke-miterlimit="4.13357"/>
<path d="M13.2656 24.2222H13.7113C18.0288 24.2222 21.5595 20.87 21.6701 16.4464C21.6763 16.2017 21.4844 16 21.2457 16H5.73125C5.49249 16 5.30067 16.2017 5.30678 16.4464C5.41745 20.87 8.94811 24.2222 13.2656 24.2222Z" fill="#151531"/>
</svg>
