<svg width="123" height="125" viewBox="0 0 123 125" fill="none" xmlns="http://www.w3.org/2000/svg">
<g filter="url(#filter0_dd_1690_49292)">
<rect x="1.05762" y="1.86951" width="120" height="120" rx="40" fill="white"/>
</g>
<path d="M61.0774 25.8695L62.2404 29.4724L66.0034 29.4725L62.9591 31.6993L64.1218 35.3022L61.0774 33.0756L58.0329 35.3022L59.1956 31.6993L56.1514 29.4724L59.9144 29.4723L61.0774 25.8695Z" fill="#FFCB00"/>
<path d="M61.0774 88.4368L62.2404 92.0396L66.0034 92.0397L62.9591 94.2666L64.1218 97.8696L61.0774 95.643L58.0329 97.8696L59.1956 94.2666L56.1514 92.0397L59.9144 92.0396L61.0774 88.4368Z" fill="#FFCB00"/>
<path d="M92.1311 57.1682L93.2941 60.7711L97.0571 60.7712L94.0129 62.998L95.1756 66.601L92.1311 64.3744L89.0866 66.601L90.2494 62.998L87.2051 60.7712L90.9681 60.7711L92.1311 57.1682Z" fill="#FFCB00"/>
<path d="M29.9836 57.1682L31.1466 60.7711L34.9097 60.7712L31.8654 62.998L33.0281 66.601L29.9836 64.3744L26.9392 66.601L28.1019 62.998L25.0576 60.7712L28.8206 60.7711L29.9836 57.1682Z" fill="#FFCB00"/>
<path d="M87.9944 41.4995L89.1574 45.1023L92.9204 45.1024L89.8761 47.3293L91.0388 50.9322L87.9944 48.7056L84.9499 50.9322L86.1126 47.3293L83.0684 45.1024L86.8314 45.1023L87.9944 41.4995Z" fill="#FFCB00"/>
<path d="M76.5862 30.0319L77.7492 33.6348L81.5122 33.6349L78.4679 35.8617L79.6306 39.4647L76.5862 37.2381L73.5417 39.4647L74.7044 35.8617L71.6602 33.6349L75.4232 33.6348L76.5862 30.0319Z" fill="#FFCB00"/>
<path d="M45.5061 84.2664L46.6691 87.8692L50.4321 87.8694L47.3878 90.0962L48.5506 93.6992L45.5061 91.4726L42.4616 93.6992L43.6244 90.0962L40.5801 87.8694L44.3431 87.8692L45.5061 84.2664Z" fill="#FFCB00"/>
<path d="M34.1174 72.7879L35.2804 76.3908L39.0435 76.3909L35.9992 78.6177L37.1619 82.2207L34.1174 79.9941L31.073 82.2207L32.2357 78.6177L29.1914 76.3909L32.9544 76.3908L34.1174 72.7879Z" fill="#FFCB00"/>
<path d="M34.1174 41.4995L35.2804 45.1023L39.0435 45.1024L35.9992 47.3293L37.1619 50.9322L34.1174 48.7056L31.073 50.9322L32.2357 47.3293L29.1914 45.1024L32.9544 45.1023L34.1174 41.4995Z" fill="#FFCB00"/>
<path d="M87.9944 72.7879L89.1574 76.3908L92.9204 76.3909L89.8761 78.6177L91.0388 82.2207L87.9944 79.9941L84.9499 82.2207L86.1126 78.6177L83.0684 76.3909L86.8314 76.3908L87.9944 72.7879Z" fill="#FFCB00"/>
<path d="M45.5061 30.0319L46.6691 33.6348L50.4321 33.6349L47.3878 35.8617L48.5506 39.4647L45.5061 37.2381L42.4616 39.4647L43.6244 35.8617L40.5801 33.6349L44.3431 33.6348L45.5061 30.0319Z" fill="#FFCB00"/>
<path d="M76.5862 84.2664L77.7492 87.8692L81.5122 87.8694L78.4679 90.0962L79.6306 93.6992L76.5862 91.4726L73.5417 93.6992L74.7044 90.0962L71.6602 87.8694L75.4232 87.8692L76.5862 84.2664Z" fill="#FFCB00"/>
<path d="M72.6636 57.2823H49.4169C47.4295 57.2823 45.8184 58.9042 45.8184 60.905V78.1779C45.8184 80.1787 47.4295 81.8006 49.4169 81.8006H72.6636C74.651 81.8006 76.2621 80.1787 76.2621 78.1779V60.905C76.2621 58.9042 74.651 57.2823 72.6636 57.2823ZM62.5968 69.8565C62.6256 69.9774 62.6413 70.1034 62.6413 70.2329V73.3316C62.6413 74.2238 61.9162 74.9538 61.03 74.9538C60.1437 74.9538 59.4186 74.2238 59.4186 73.3316V70.2329C59.4186 70.0996 59.4352 69.9699 59.4657 69.8457C58.5772 69.3073 57.9829 68.327 57.9829 67.207C57.9829 65.5071 59.3518 64.129 61.0403 64.129C62.7289 64.129 64.0978 65.507 64.0978 67.207C64.0977 68.3346 63.4953 69.3205 62.5968 69.8565Z" fill="#173F98"/>
<path d="M64.6517 42.5651C63.5021 42.144 62.3263 41.9541 61.1347 41.956C59.943 41.9541 58.6054 42.144 57.4557 42.5651C52.0991 44.5268 50.1535 49.3678 50.4215 55.7762H54.8682C54.6186 51.3601 55.7519 48.3844 58.522 47.1134C60.1269 46.3771 61.9804 46.3771 63.5853 47.1134C66.3554 48.3845 67.4888 51.3602 67.2391 55.7762H71.6858C71.954 49.3678 70.0083 44.5268 64.6517 42.5651Z" fill="#173F98"/>
<defs>
<filter id="filter0_dd_1690_49292" x="0.0576172" y="0.869507" width="122" height="124" filterUnits="userSpaceOnUse" color-interpolation-filters="sRGB">
<feFlood flood-opacity="0" result="BackgroundImageFix"/>
<feColorMatrix in="SourceAlpha" type="matrix" values="0 0 0 0 0 0 0 0 0 0 0 0 0 0 0 0 0 0 127 0" result="hardAlpha"/>
<feOffset/>
<feGaussianBlur stdDeviation="0.5"/>
<feColorMatrix type="matrix" values="0 0 0 0 0.0509804 0 0 0 0 0.0745098 0 0 0 0 0.105882 0 0 0 0.25 0"/>
<feBlend mode="normal" in2="BackgroundImageFix" result="effect1_dropShadow_1690_49292"/>
<feColorMatrix in="SourceAlpha" type="matrix" values="0 0 0 0 0 0 0 0 0 0 0 0 0 0 0 0 0 0 127 0" result="hardAlpha"/>
<feOffset dy="2"/>
<feGaussianBlur stdDeviation="0.5"/>
<feColorMatrix type="matrix" values="0 0 0 0 0.0509804 0 0 0 0 0.0745098 0 0 0 0 0.105882 0 0 0 0.05 0"/>
<feBlend mode="normal" in2="effect1_dropShadow_1690_49292" result="effect2_dropShadow_1690_49292"/>
<feBlend mode="normal" in="SourceGraphic" in2="effect2_dropShadow_1690_49292" result="shape"/>
</filter>
</defs>
</svg>
