<svg width="140" height="32" viewBox="0 0 140 32" fill="none" xmlns="http://www.w3.org/2000/svg">
<g clip-path="url(#clip0_2086_43540)">
<path d="M48.0255 11.092C48.0255 10.4262 47.5119 9.87988 46.793 9.87988C46.0741 9.87988 45.5605 10.4262 45.5605 11.092V20.9252C45.5605 21.5911 46.0741 22.1374 46.793 22.1374C47.529 22.1374 48.0255 21.5911 48.0255 20.9252V11.092Z" fill="#151531"/>
<path d="M60.1624 9.87988C59.4435 9.87988 58.947 10.4262 58.947 11.092V15.2916L59.0154 19.0474L57.5262 15.5305L55.5748 11.5358C54.9757 10.2896 54.2911 9.87988 53.3154 9.87988C51.8775 9.87988 51.2441 10.7847 51.2441 12.0821V20.9252C51.2441 21.5911 51.7405 22.1374 52.4596 22.1374C53.1785 22.1374 53.6748 21.5911 53.6748 20.9252L53.6577 16.7769L53.6064 12.526L55.1983 16.4183L57.1668 20.4813C57.7831 21.7788 58.4336 22.1545 59.4263 22.1545C60.7101 22.1545 61.3777 21.3691 61.3777 19.9181V11.092C61.3777 10.4262 60.8813 9.87988 60.1624 9.87988Z" fill="#151531"/>
<path d="M70.467 12.3891L73.2571 12.4574C73.9076 12.4744 74.4211 11.9794 74.4211 11.2624C74.4211 10.5454 73.9076 10.0503 73.2571 10.0503L65.1776 10.0332C64.5443 10.0332 64.0137 10.5283 64.0137 11.2453C64.0137 11.9623 64.5443 12.4574 65.1776 12.4403L67.9849 12.3891V20.9249C67.9849 21.5907 68.4983 22.1371 69.2174 22.1371C69.9534 22.1371 70.467 21.5907 70.467 20.9249V12.3891Z" fill="#151531"/>
<path d="M78.7377 21.9838H84.7458C85.3792 21.9838 85.8928 21.5058 85.8928 20.84C85.8928 20.1572 85.3792 19.6791 84.7458 19.6791L79.525 19.6962V16.8452H84.044C84.6603 16.8452 85.1566 16.3843 85.1566 15.7527C85.1566 15.1039 84.6603 14.643 84.044 14.643L79.525 14.6771V12.3213H84.7458C85.3792 12.3213 85.8928 11.8433 85.8928 11.1604C85.8928 10.4775 85.3792 10.0166 84.7458 10.0166L78.7547 10.0337C77.6591 10.0337 77.043 10.6482 77.043 11.7408V20.2767C77.043 21.3692 77.6591 21.9838 78.7377 21.9838Z" fill="#151531"/>
<path d="M95.6784 17.118C97.3045 16.6912 98.2632 15.4279 98.2632 13.7548C98.2632 11.894 97.0478 10.0332 94.1378 10.0332H90.3719C89.2765 10.0332 88.6602 10.6478 88.6602 11.7404V20.9249C88.6602 21.5907 89.1737 22.1371 89.9269 22.1371C90.6629 22.1371 91.1936 21.5907 91.1936 20.9249L91.1765 17.7154H93.2477L95.3531 21.5054C95.6955 22.0858 96.4144 22.3248 97.0821 21.9834C97.7496 21.6249 97.9379 20.9078 97.5784 20.3275L95.6784 17.118ZM91.1765 12.3037H94.1549C95.1648 12.3037 95.7982 12.9354 95.7982 13.8743C95.7982 14.7962 95.1991 15.4791 94.1892 15.4791H91.1765V12.3037Z" fill="#151531"/>
<path d="M105.824 22.205C108.323 22.205 109.932 21.0784 110.48 19.2517C110.771 18.2103 110.154 17.4592 109.23 17.4592C108.665 17.4592 108.289 17.7493 108.066 18.3811C107.724 19.3371 106.885 19.9346 105.687 19.9346C103.787 19.9346 102.965 18.6542 102.965 15.991C102.965 13.3791 103.804 12.1328 105.687 12.1328C106.868 12.1328 107.553 12.6279 107.981 13.7717C108.22 14.4205 108.614 14.7106 109.196 14.7106C110.086 14.7106 110.736 13.9936 110.463 13.0035C109.915 10.989 108.323 9.8623 105.755 9.8623C102.229 9.8623 100.432 12.0133 100.432 15.991C100.432 20.0028 102.229 22.205 105.824 22.205Z" fill="#151531"/>
<path d="M117.995 22.171C121.624 22.171 123.421 19.9515 123.421 15.9909C123.421 11.9962 121.573 9.79395 117.995 9.79395C114.4 9.79395 112.603 12.0303 112.586 15.9909C112.586 19.9686 114.418 22.171 117.995 22.171ZM117.995 19.8833C115.975 19.8833 115.102 18.603 115.102 15.9909C115.102 13.3448 115.992 12.0645 117.978 12.0645C119.981 12.0645 120.922 13.3448 120.905 15.9909C120.905 18.6199 120.015 19.8833 117.995 19.8833Z" fill="#151531"/>
<path d="M139.354 12.0133C139.354 10.6647 138.516 9.8623 137.215 9.8623C136.153 9.8623 135.349 10.4427 134.955 11.7743L133.637 16.0593L132.764 19.1492L131.926 16.0593L130.522 11.7743C130.128 10.5281 129.443 9.8623 128.245 9.8623C126.927 9.8623 126.105 10.6476 126.105 12.0133V20.9247C126.105 21.5906 126.585 22.1369 127.287 22.1369C127.988 22.1369 128.468 21.5906 128.468 20.9247L128.451 16.6227L128.331 12.0133L129.683 16.7251L131.121 20.8905C131.429 21.8124 132.011 22.1198 132.764 22.1198C133.466 22.1198 134.031 21.8636 134.322 20.9247L135.691 16.7251L137.146 11.9792L137.009 16.6227V20.9247C137.009 21.5906 137.506 22.1369 138.191 22.1369C138.892 22.1369 139.372 21.5906 139.372 20.9247L139.354 12.0133Z" fill="#151531"/>
<path d="M27.7076 17.6047C27.7076 17.8893 27.5955 18.1621 27.3959 18.3632C27.1963 18.5644 26.9255 18.6775 26.6432 18.6775C26.3609 18.6775 26.0902 18.5644 25.8906 18.3632C25.691 18.1621 25.5788 17.8893 25.5788 17.6047V8.02161C25.5788 7.73713 25.691 7.46429 25.8906 7.26313C26.0902 7.06195 26.3609 6.94894 26.6432 6.94894C26.9255 6.94894 27.1963 7.06195 27.3959 7.26313C27.5955 7.46429 27.7076 7.73713 27.7076 8.02161V17.6047ZM27.3381 24.2447C27.1974 24.3865 23.2392 27.7109 15.9824 27.7109C8.72568 27.7109 4.79384 24.4043 4.62672 24.2624C4.5214 24.1729 4.43465 24.0633 4.37143 23.94C4.30822 23.8165 4.26978 23.6819 4.25835 23.5434C4.24691 23.4052 4.26267 23.2659 4.30476 23.1336C4.34684 23.0015 4.41441 22.8788 4.50357 22.773C4.68728 22.5589 4.94756 22.4266 5.22768 22.4049C5.5078 22.3833 5.78502 22.4743 5.9989 22.6578C6.06048 22.7022 9.59648 25.5921 15.9736 25.5921C22.3507 25.5921 25.9131 22.6844 25.9484 22.6578C26.1646 22.4759 26.4428 22.3861 26.7236 22.4077C27.0045 22.4292 27.266 22.5603 27.4524 22.773C27.6319 22.9841 27.7214 23.258 27.7017 23.5352C27.682 23.8123 27.5545 24.0706 27.3469 24.2535L27.3381 24.2447ZM4.24849 8.02161C4.2644 7.73623 4.39176 7.46878 4.60273 7.27775C4.8137 7.08672 5.09113 6.98763 5.37439 7.00213C5.63697 7.01716 5.88474 7.12965 6.0699 7.3179C6.25507 7.50615 6.36452 7.75685 6.37713 8.02161V17.5871C6.37713 17.8715 6.265 18.1443 6.0654 18.3455C5.8658 18.5467 5.59509 18.6597 5.31281 18.6597C5.03054 18.6597 4.75983 18.5467 4.56022 18.3455C4.36063 18.1443 4.24849 17.8715 4.24849 17.5871V8.02161ZM9.58769 5.894C9.60359 5.6086 9.73096 5.34117 9.94193 5.15014C10.1529 4.9591 10.4303 4.86001 10.7136 4.87452C10.9762 4.88955 11.2239 5.00203 11.4091 5.19029C11.5943 5.37854 11.7037 5.62922 11.7163 5.894V20.0781C11.7163 20.3626 11.6042 20.6355 11.4046 20.8366C11.205 21.0377 10.9343 21.1507 10.652 21.1507C10.3697 21.1507 10.099 21.0377 9.89942 20.8366C9.69983 20.6355 9.58769 20.3626 9.58769 20.0781V5.894ZM14.9533 5.36209C14.9533 5.07761 15.0654 4.80477 15.265 4.60361C15.4646 4.40243 15.7353 4.28942 16.0175 4.28942C16.2999 4.28942 16.5706 4.40243 16.7702 4.60361C16.9698 4.80477 17.0819 5.07761 17.0819 5.36209V20.7873C17.0819 21.0718 16.9698 21.3446 16.7702 21.5459C16.5706 21.747 16.2999 21.86 16.0175 21.86C15.7353 21.86 15.4646 21.747 15.265 21.5459C15.0654 21.3446 14.9533 21.0718 14.9533 20.7873V5.36209ZM20.2309 5.894C20.2309 5.60951 20.3431 5.33667 20.5427 5.1355C20.7423 4.93434 21.013 4.82132 21.2952 4.82132C21.5775 4.82132 21.8482 4.93434 22.0478 5.1355C22.2474 5.33667 22.3595 5.60951 22.3595 5.894V20.0781C22.3595 20.3626 22.2474 20.6355 22.0478 20.8366C21.8482 21.0377 21.5775 21.1507 21.2952 21.1507C21.013 21.1507 20.7423 21.0377 20.5427 20.8366C20.3431 20.6355 20.2309 20.3626 20.2309 20.0781V5.894ZM27.9978 0.0430573L4.00219 0.0430573C3.47934 0.0395546 2.96094 0.140027 2.47668 0.33872C1.99241 0.537414 1.55178 0.830429 1.18002 1.20098C0.808269 1.57154 0.512685 2.01235 0.3102 2.49821C0.107714 2.98405 0.002302 3.50537 0 4.03234L0 27.9681C0.002302 28.4949 0.107714 29.0163 0.3102 29.5022C0.512685 29.9879 0.808269 30.4288 1.18002 30.7994C1.55178 31.1699 1.99241 31.463 2.47668 31.6616C2.96094 31.8604 3.47934 31.9607 4.00219 31.9572H27.9978C28.5199 31.9607 29.0376 31.8607 29.5213 31.6624C30.005 31.4644 30.4452 31.1721 30.8169 30.8024C31.1885 30.4329 31.4843 29.9931 31.6872 29.5082C31.8903 29.0235 31.9966 28.5031 31.9999 27.9769V4.03234C31.9977 3.50613 31.8926 2.98553 31.6906 2.50027C31.4887 2.015 31.194 1.57458 30.823 1.20413C30.4522 0.833694 30.0127 0.540495 29.5294 0.341277C29.0462 0.142059 28.5287 0.0407238 28.0066 0.0430573" fill="#151531"/>
</g>
<defs>
<clipPath id="clip0_2086_43540">
<rect width="139.556" height="32" fill="white"/>
</clipPath>
</defs>
</svg>
