<svg width="123" height="30" viewBox="0 0 123 30" fill="none" xmlns="http://www.w3.org/2000/svg">
<mask id="mask0_1_11" style="mask-type:luminance" maskUnits="userSpaceOnUse" x="5" y="1" width="112" height="27">
<path d="M116.931 1.61842H5.66447V27.5132H116.931V1.61842Z" fill="white"/>
</mask>
<g mask="url(#mask0_1_11)">
<path fillRule="evenodd" clipRule="evenodd" d="M111.022 12.1405L111.945 11.7289C112.9 11.3077 113.903 10.8895 114.928 10.5483L116.135 10.1366C116.274 10.0858 116.55 10.0641 116.633 9.95328H116.66C116.536 9.48329 116.459 8.93437 116.316 8.46159C115.987 7.37219 115.452 6.40498 114.607 5.8344C114.085 5.48195 113.182 5.28831 112.471 5.59662C111.841 5.87106 111.195 6.467 110.663 6.87776C110.098 7.31578 109.542 7.77072 108.973 8.1937L108.404 8.64204H108.367C108.355 8.51609 108.364 8.38892 108.394 8.26608C108.455 7.89947 108.443 7.53949 108.503 7.19545L108.575 6.4999C108.712 5.69906 108.796 4.89353 108.973 4.11997L109.226 2.89801C109.262 2.75984 109.341 2.55211 109.326 2.413C108.762 2.1298 108.17 1.90586 107.561 1.7447C107.165 1.64412 106.643 1.57457 106.196 1.6507C105.227 1.82084 104.513 1.96746 104.017 2.61133C103.805 2.88616 103.647 3.1999 103.553 3.5353C103.426 3.98366 103.498 4.60497 103.58 5.04579L103.706 6.06187L103.96 7.9653L104.095 8.89864C103.942 8.8808 103.807 8.71066 103.697 8.63358C103.419 8.43148 103.14 8.22469 102.862 8.02073C101.984 7.36935 101.191 6.64276 100.348 5.96133L99.2452 4.96402L99.191 4.95463L98.3057 5.59569C97.8319 5.97164 97.4427 6.48861 97.1295 7.02346C96.9535 7.34411 96.8172 7.68531 96.7233 8.03954C96.6222 8.3648 96.5914 8.70779 96.6303 9.04624C96.6812 9.35075 96.6946 9.5679 96.7925 9.80568C97.2764 10.9769 98.8151 11.3848 99.9747 11.883L101.376 12.4592L102.081 12.7412V12.7684C101.997 12.8728 101.794 12.9131 101.665 12.9695C101.32 13.12 100.975 13.277 100.616 13.4273C99.9658 13.6999 99.2881 13.9791 98.6173 14.2329L97.596 14.5807L96.2576 15.0506L96.4834 16.0573C96.8107 17.4428 97.3416 18.5566 98.3915 19.2061C98.8746 19.5041 99.698 19.7193 100.371 19.4439C100.859 19.2446 101.24 18.8969 101.637 18.598L103.689 16.9869L104.449 16.3647C104.5 16.4117 104.467 16.641 104.449 16.7585L104.331 17.9484C104.162 18.8752 104.098 19.803 103.905 20.6941L103.534 22.5974C103.655 22.6915 103.827 22.7357 103.977 22.7986C104.386 22.988 104.809 23.1451 105.243 23.2686C105.664 23.3757 106.275 23.4566 106.771 23.3626C107.204 23.277 107.56 23.2366 107.91 23.0881C108.734 22.7403 109.546 21.8201 109.321 20.4891L109.239 19.7757L109.053 18.3019L108.755 16.2152V16.1973C108.913 16.2293 109.052 16.3948 109.171 16.4793C109.498 16.7133 109.812 16.9559 110.13 17.1927C111.354 18.0988 112.523 19.0801 113.629 20.131C113.803 20.1038 114.389 19.5558 114.551 19.4261C115.378 18.7615 116.615 17.0884 116.123 15.4783C116.039 15.2113 115.911 14.9606 115.744 14.7367C115.399 14.2714 114.837 14.0561 114.27 13.8127L111.693 12.7149L110.699 12.3032V12.2938C110.798 12.2265 110.907 12.1749 111.022 12.1405Z" fill="#151531"/>
<path fillRule="evenodd" clipRule="evenodd" d="M31.8874 7.04964C26.3271 7.04964 23.482 9.84506 23.482 15.4744V27.1035H28.4303V14.4678C28.4675 12.4177 29.6375 11.411 31.8141 11.411C33.9906 11.411 35.1569 12.4177 35.2721 14.4678V24.6069C35.2721 26.1729 36.0818 26.9926 37.7021 27.1044H40.1368V15.4744C40.174 9.84506 37.4486 7.04964 31.8874 7.04964ZM49.6443 7.04964C45.1519 7.04964 42.6106 8.83557 42.0219 12.492H46.92C47.1782 11.5605 48.1355 11.1131 49.8664 11.1131C51.8914 11.1131 52.9232 11.6723 53.0336 12.7908C53.0336 13.8718 51.9659 14.5053 49.8664 14.7647C44.9318 15.2498 41.5437 16.5168 41.4332 21.2504C41.4332 25.6118 44.6737 27.8112 49.3509 27.4381C54.6169 27.0621 57.8577 24.6427 57.8577 19.1994V12.492C57.7461 8.83836 55.0211 7.04964 49.6443 7.04964ZM53.1061 18.9785C53.1061 21.774 51.4488 23.4141 48.7242 23.4141C47.1774 23.4141 46.3678 22.6688 46.2569 21.1028C46.2569 19.6487 47.2514 18.7172 49.2032 18.3441C50.5384 18.0741 51.8441 17.6747 53.1032 17.1513V18.9776L53.1061 18.9785ZM68.2468 11.4063C69.7936 11.4063 70.8245 12.1151 71.414 13.4563H76.7532C75.9064 9.16924 73.1077 7.04494 68.3961 7.04494C62.3938 7.15682 59.4102 10.5491 59.4102 17.296C59.5579 24.0806 62.5775 27.5096 68.4693 27.5096C72.9989 27.6214 75.8712 25.0497 76.7552 21.0239H73.0705C72.4442 21.0184 71.8441 21.2764 71.4128 21.7363C70.6032 22.6679 69.6087 23.1528 68.4665 23.1528C65.7415 23.1905 64.3808 21.2147 64.3808 17.3007C64.3808 13.3868 65.6691 11.4063 68.2468 11.4063ZM88.3035 15.3541L95.0733 7.23478H91.6989C91.2094 7.23361 90.7238 7.32481 90.2666 7.5036C89.5497 7.77971 88.9084 8.22506 88.3957 8.80263C87.8871 9.31773 83.1112 15.0533 83.1112 15.0533V4.14235C83.1112 2.83772 82.0434 1.71917 80.7544 1.71917H78.1859V27.1034H83.1075V19.8724C83.1075 19.3508 83.3657 19.0152 83.8811 18.9034C84.5067 18.9034 85.133 19.4626 85.7597 20.5812L89.2215 27.1044H95.113L88.3035 15.3541ZM22.5514 7.23478H19.1771C17.8362 7.23478 16.7841 7.88244 15.8751 8.80263C15.3662 9.31773 10.5905 15.0533 10.5905 15.0533V4.14235C10.5905 2.83772 9.52271 1.71917 8.23384 1.71917H5.66447V27.1035H10.5859V19.8725C10.5859 19.3508 10.8441 19.0152 11.3594 18.9034C11.9853 18.9034 12.6114 19.4626 13.2379 20.5812L16.6987 27.1035H22.5905L15.7785 15.3626L22.5514 7.23478Z" fill="#151531"/>
</g>
</svg>
