<svg width="209" height="64" viewBox="0 0 209 64" fill="none" xmlns="http://www.w3.org/2000/svg">
<g clip-path="url(#clip0_686_63412)">
<path d="M179.797 61.9785C172.567 64.7689 169.628 62.1253 169.628 60.4569C172.189 60.2417 178.308 59.8916 179.797 61.9785ZM188.972 59.6969C187.177 61.0121 184.971 61.6488 182.749 61.4934C180.526 61.3379 178.431 60.4004 176.838 58.8482C179.305 58.1651 186.041 57.3556 188.972 59.6969ZM176.742 54.2732C177.016 57.745 173.449 59.6969 169.598 59.9787C170.301 56.4864 173.897 54.9272 176.742 54.2732ZM183.649 51.0729C184.057 52.5569 183.497 56.5854 177.957 58.1839C178.195 55.4635 179.646 51.9216 183.649 51.0729ZM194.636 55.1117C193.215 56.5245 191.342 57.3958 189.344 57.574C187.345 57.7522 185.347 57.2259 183.697 56.0868C185.918 54.946 191.249 53.4057 194.636 55.1117ZM188.782 47.0751C189.541 48.5369 189.702 52.7021 184.797 55.209C184.513 52.5279 185.594 47.9426 188.782 47.0751ZM200.916 48.694C200.454 49.5996 199.813 50.4023 199.03 51.0531C198.248 51.7039 197.341 52.1894 196.364 52.4801C195.397 52.7631 194.381 52.8425 193.381 52.7132C192.381 52.5838 191.419 52.2485 190.557 51.7287C193.649 48.8306 198.583 47.7189 200.916 48.694ZM193.584 40.929C195.783 44.7543 193.459 49.1227 191.04 50.9175C189.964 47.362 190.952 43.4871 193.584 40.929ZM204.996 40.7633C205.262 46.7045 199.038 46.3818 196.116 46.421C197.036 45.1727 202.149 40.6472 204.996 40.7633ZM197.322 35.2132C198.478 36.482 200.213 41.3593 196.371 45.3383C195.167 42.4608 194.903 38.0429 197.322 35.2132ZM208.26 32.5799C208.459 37.3786 204.407 39.807 200.5 39.7694C201.675 37.4571 204.817 33 208.26 32.5799ZM200.063 29.2737C202.653 30.7936 202.358 35.7016 200.83 38.2564C199.114 35.8775 197.832 32.9214 200.063 29.2737ZM208.43 24.7772C209.711 29.1473 205.946 32.1034 203.686 32.3562C204.265 30.2693 205.022 26.5721 208.43 24.7772ZM200.537 23.324C203.393 24.7499 204.746 28.1603 203.677 31.2342C201.685 29.634 199.285 26.2493 200.537 23.324ZM208.563 18.0368C210.328 23.353 206.276 25.0898 204.769 25.5167C204.949 23.2557 206.391 18.7489 208.563 18.0368ZM200.65 16.6416C201.808 16.9746 205.11 19.6762 204.512 24.5142C202.339 23.2949 199.701 20.9724 200.65 16.6416ZM207.367 9.98145C209.341 16.5152 206.048 19.1981 204.967 19.7326C204.796 17.6662 204.587 12.8385 207.367 9.98145ZM200.063 10.1454C202.13 10.7209 204.74 14.5052 204.616 18.1444C202.567 17.2086 199.503 13.3167 200.063 10.1454ZM200.679 0.0117187C205.48 4.95731 206.153 8.85777 204.75 13.6667C202.576 11.7165 200.84 5.86411 200.679 0.0117187ZM29.2035 61.9785C36.4328 64.7689 39.3725 62.1253 39.3725 60.4569C36.8114 60.2417 30.6922 59.8916 29.2035 61.9785ZM20.0263 59.6969C21.8216 61.0121 24.0272 61.6488 26.2496 61.4934C28.4721 61.3379 30.5669 60.4004 32.1603 58.8482C29.6934 58.1651 22.9575 57.3556 20.0263 59.6969ZM32.2563 54.2732C31.9822 57.745 35.5489 59.6969 39.3999 59.9787C38.6976 56.4864 35.1017 54.9272 32.2563 54.2732ZM25.3507 51.0729C24.943 52.5569 25.5032 56.5854 31.0434 58.1839C30.8053 55.4635 29.3542 51.9216 25.3507 51.0729ZM14.3645 55.1117C15.7851 56.5245 17.6578 57.3958 19.6564 57.574C21.6551 57.7522 23.6532 57.2259 25.3027 56.0868C23.0825 54.946 17.7513 53.4057 14.3645 55.1117ZM20.2182 47.0751C19.4593 48.5369 19.2983 52.7021 24.2029 55.209C24.4873 52.5279 23.4063 47.9426 20.2182 47.0751ZM8.08421 48.694C8.54593 49.5996 9.18751 50.4023 9.96998 51.0531C10.7524 51.7039 11.6595 52.1894 12.636 52.4801C13.6033 52.7631 14.6192 52.8425 15.619 52.7132C16.6187 52.5838 17.5806 52.2485 18.4434 51.7287C15.3512 48.8306 10.4175 47.7189 8.08421 48.694ZM15.4163 40.929C13.2167 44.7543 15.5414 49.1227 17.9603 50.9175C19.0361 47.362 18.0494 43.4871 15.4181 40.929H15.4163ZM4.00357 40.7633C3.73804 46.7045 9.96178 46.3818 12.8844 46.421C11.9644 45.1727 6.85077 40.6472 4.00357 40.7633ZM11.6783 35.2132C10.522 36.482 8.78658 41.3593 12.6291 45.3383C13.8334 42.4608 14.0972 38.0429 11.6783 35.2132ZM0.741798 32.5799C0.543076 37.3786 4.59459 39.807 8.50221 39.7694C7.32701 37.4571 4.18516 33 0.741798 32.5799ZM8.93905 29.2737C6.34882 30.7936 6.64348 35.7016 8.17158 38.2564C9.88812 35.8775 11.1695 32.9214 8.93905 29.2737ZM0.570486 24.7772C-0.710924 29.1473 3.0545 32.1034 5.3141 32.3562C4.73507 30.2693 3.97616 26.5721 0.568773 24.7772H0.570486ZM8.46281 23.324C5.60704 24.7499 4.25368 28.1603 5.32267 31.2342C7.31502 29.634 9.71509 26.2493 8.46281 23.324ZM0.436863 18.0368C-1.32765 23.353 2.72387 25.0898 4.23141 25.5167C4.05154 23.2557 2.60909 18.7489 0.436863 18.0368ZM8.34974 16.6416C7.19168 16.9746 3.8905 19.6762 4.48838 24.5142C6.66061 23.2949 9.29881 20.9724 8.34974 16.6416ZM1.63262 9.98145C-0.340891 16.5152 2.95172 19.1981 4.03269 19.7326C4.204 17.6662 4.413 12.8385 1.63262 9.98145ZM8.93734 10.1454C6.86961 10.7209 4.26054 14.5052 4.38388 18.1444C6.43277 17.2086 9.49753 13.3167 8.93734 10.1454ZM8.32062 0.0117188C3.52047 4.95731 2.84722 8.85777 4.25026 13.6667C6.4242 11.7165 8.15958 5.86411 8.32062 0.0117188Z" fill="#151531"/>
</g>
<defs>
<clipPath id="clip0_686_63412">
<rect width="209" height="63.1861" fill="white" transform="translate(0 0.0117188)"/>
</clipPath>
</defs>
</svg>
