<svg width="131" height="24" viewBox="0 0 131 24" fill="none" xmlns="http://www.w3.org/2000/svg">
<g clip-path="url(#clip0_2086_43520)">
<path fillRule="evenodd" clipRule="evenodd" d="M2.25129 21.0941C-0.750469 18.1178 -0.750421 13.2923 2.25138 10.316L10.4044 2.23224C12.942 -0.283773 16.8124 -0.672891 19.7622 1.06489C20.6747 1.6024 20.6667 2.83544 19.9162 3.57952C19.1658 4.3236 17.9407 4.25956 16.9221 3.96416C15.6177 3.5859 14.1508 3.90678 13.1221 4.92679L4.96903 13.0105C3.46813 14.4987 3.46811 16.9114 4.96899 18.3996C6.4699 19.8878 8.9034 19.8878 10.4043 18.3996L26.7102 2.23234C29.7121 -0.743955 34.5789 -0.743968 37.5808 2.23231L45.7339 10.316C48.7357 13.2922 48.7357 18.1178 45.7339 21.0941C42.7321 24.0704 37.8652 24.0704 34.8633 21.0941L32.1457 18.3996L28.7486 21.7678C26.211 24.2838 22.3406 24.6729 19.3907 22.9351C18.4783 22.3976 18.4863 21.1646 19.2368 20.4205C19.9872 19.6764 21.2122 19.7404 22.2309 20.0358C23.5353 20.4141 25.0022 20.0932 26.0309 19.0732L29.5251 15.6088C30.9724 14.1738 33.3189 14.1738 34.7663 15.6088L37.581 18.3996C39.0819 19.8877 41.5153 19.8877 43.0162 18.3996C44.5171 16.9114 44.5171 14.4987 43.0162 13.0105L34.8631 4.92688C33.3622 3.43874 30.9288 3.43875 29.4279 4.9269L13.122 21.0942C10.1201 24.0705 5.25311 24.0705 2.25129 21.0941Z" fill="#151531"/>
<path d="M78.6875 4.31934C76.7987 4.31934 75.3677 4.9957 74.4233 6.34843C73.5934 4.9957 72.2769 4.31934 70.5312 4.31934C68.7282 4.31934 67.4117 4.93934 66.5531 6.20752V4.71389H62.8613V18.8048H66.5531V10.8857C66.5531 8.82843 67.612 7.70116 69.2433 7.70116C70.7601 7.70116 71.6473 8.68752 71.6473 10.3785V18.8048H75.3391V10.8857C75.3391 8.82843 76.3122 7.70116 78.0007 7.70116C79.5175 7.70116 80.4046 8.68752 80.4046 10.3785V18.8048H84.0965V10.1248C84.0965 6.60207 81.9787 4.31934 78.6875 4.31934Z" fill="#151531"/>
<path d="M97.8204 6.37661C96.7043 4.9957 95.1589 4.31934 93.1556 4.31934C91.2381 4.31934 89.6069 5.05207 88.2332 6.48934C86.8881 7.92661 86.2012 9.67389 86.2012 11.7594C86.2012 13.8448 86.8881 15.6203 88.2332 17.0576C89.6069 18.4948 91.2381 19.1994 93.1556 19.1994C95.1589 19.1994 96.7043 18.523 97.8204 17.1421V18.8048H101.512V4.71389H97.8204V6.37661ZM91.0092 14.6339C90.2651 13.873 89.893 12.9148 89.893 11.7594C89.893 10.6039 90.2651 9.6457 91.0092 8.91298C91.7533 8.15207 92.6977 7.7857 93.8424 7.7857C94.9872 7.7857 95.9316 8.15207 96.6757 8.91298C97.4484 9.6457 97.8204 10.6039 97.8204 11.7594C97.8204 12.9148 97.4484 13.873 96.6757 14.6339C95.9316 15.3667 94.9872 15.733 93.8424 15.733C92.6977 15.733 91.7533 15.3667 91.0092 14.6339Z" fill="#151531"/>
<path d="M115.134 7.1375V4.71387H104.402V8.12387H110.154L104.115 16.3811V18.8047H115.42V15.3947H109.066L115.134 7.1375Z" fill="#151531"/>
<path d="M130.856 13.253C130.942 12.7176 130.999 12.2385 130.999 11.7594C130.999 9.6457 130.313 7.89843 128.939 6.46116C127.594 5.02388 125.848 4.31934 123.759 4.31934C121.555 4.31934 119.724 5.02388 118.321 6.46116C116.919 7.87025 116.203 9.6457 116.203 11.7594C116.203 13.9012 116.919 15.6767 118.35 17.0857C119.781 18.4948 121.67 19.1994 124.045 19.1994C126.792 19.1994 128.882 18.1848 130.284 16.1839L127.308 14.493C126.592 15.423 125.505 15.9021 124.102 15.9021C121.899 15.9021 120.554 15.0285 120.067 13.253H130.856ZM120.01 10.4348C120.439 8.63116 121.784 7.58843 123.759 7.58843C125.447 7.58843 126.878 8.51843 127.308 10.4348H120.01Z" fill="#151531"/>
</g>
<defs>
<clipPath id="clip0_2086_43520">
<rect width="131" height="24" fill="white"/>
</clipPath>
</defs>
</svg>
