<svg width="148" height="36" viewBox="0 0 148 36" fill="none" xmlns="http://www.w3.org/2000/svg">
<path d="M54.3524 23.0045C54.3524 26.1715 51.0454 26.8454 48.4833 26.8454C46.2517 26.8454 43.9347 25.8433 43.1088 25.4484C42.9151 25.3565 42.7937 25.1618 42.7937 24.9474V21.5638C42.7937 21.2925 43.1012 21.1339 43.321 21.2925C45.8907 23.1609 49.7918 23.5964 49.7918 22.544C49.7918 21.4117 42.6668 21.6918 42.6668 16.7099C42.6668 13.986 45.0845 12.5616 48.3182 12.5616C52.7684 12.5616 53.9203 15.5492 54.0199 17.8794C54.0275 18.0675 53.8755 18.2239 53.6862 18.2239H49.5904C49.4066 18.2239 49.2568 18.0751 49.2568 17.8903V17.7667C49.2568 16.9298 48.9735 16.4791 48.328 16.4791C47.7351 16.4791 47.3993 16.979 47.3993 17.4079C47.3993 19.9699 54.3535 18.5204 54.3535 23.0034L54.3524 23.0045ZM34.9271 17.409C34.9271 16.9801 35.264 16.4802 35.8559 16.4802C36.5013 16.4802 36.7847 16.9309 36.7847 17.7678V17.8914C36.7847 18.0751 36.9335 18.2251 37.1183 18.2251H41.214C41.4022 18.2251 41.5554 18.0686 41.5478 17.8805C41.4482 15.5514 40.2962 12.5627 35.8461 12.5627C32.6123 12.5627 30.1947 13.9871 30.1947 16.711C30.1947 21.6929 37.3196 21.4128 37.3196 22.5451C37.3196 23.5974 33.4197 23.162 30.8488 21.2935C30.63 21.1339 30.3216 21.2935 30.3216 21.5649V24.9484C30.3216 25.1629 30.4441 25.3576 30.6366 25.4495C31.4625 25.8444 33.7796 26.8464 36.0112 26.8464C38.5743 26.8464 41.8803 26.1737 41.8803 23.0056C41.8803 18.5226 34.926 19.9721 34.926 17.41L34.9271 17.409ZM58.2403 6.29987C56.2493 6.29987 54.9497 7.33147 54.9497 9.03914C54.9497 10.7468 56.2504 11.7784 58.2403 11.7784C60.2302 11.7784 61.5309 10.7468 61.5309 9.03914C61.5309 7.33147 60.2302 6.29987 58.2403 6.29987ZM16.1079 19.6997C16.1079 24.3676 14.736 26.8454 11.9552 26.8454C10.6359 26.8454 9.44898 26.2885 8.71712 24.524L9.06936 30.0124C9.08142 30.2049 8.92935 30.3668 8.73681 30.3668H3.93327C3.74948 30.3668 3.59961 30.218 3.59961 30.0332V13.2957C3.59961 13.1119 3.74839 12.9621 3.93327 12.9621H7.15605C7.32124 12.9621 7.46126 13.0824 7.48532 13.2454L7.81132 15.5284C8.5399 13.6316 9.86577 12.5616 11.7736 12.5616C14.6639 12.5616 16.1079 15.0318 16.1079 19.6997ZM11.1698 19.704C11.1698 17.9144 10.8733 16.4802 9.88764 16.4802C8.902 16.4802 8.60554 17.9144 8.60554 19.704C8.60554 21.4938 8.902 22.9455 9.88764 22.9455C10.8733 22.9455 11.1698 21.4938 11.1698 19.704ZM29 18.3147V26.0993C29 26.283 28.8513 26.433 28.6664 26.433H25.4436C25.2785 26.433 25.1384 26.3127 25.1144 26.1497L24.8474 24.3939C24.0041 25.8915 22.444 26.8464 20.8108 26.8464C18.3877 26.8464 16.9895 25.6377 16.9895 22.9782C16.9895 18.9416 20.8721 18.2655 24.2545 18.33C23.9515 17.4264 23.3334 16.9637 22.0732 16.9637C20.359 16.9637 18.6666 17.9997 17.8374 18.5937C17.6164 18.7512 17.3112 18.5937 17.3112 18.3224V15.1455C17.3112 14.9717 17.3933 14.8075 17.5322 14.7025C18.2422 14.1632 20.5952 12.5638 23.5358 12.5638C27.0736 12.5638 29.0012 15.0416 29.0012 18.3158L29 18.3147ZM24.447 21.2859C24.4504 20.0454 24.3749 19.273 24.3749 19.273C23.7393 19.261 22.5163 19.9381 22.5119 21.4456C22.5086 22.3821 22.8236 23.092 23.5139 23.1051C24.1932 23.1183 24.4449 22.3186 24.447 21.2859ZM60.6514 12.9631H55.826C55.6422 12.9631 55.4924 13.1119 55.4924 13.2968L55.5011 26.0993C55.5011 26.283 55.6499 26.433 55.8347 26.433H60.6602C60.8439 26.433 60.9938 26.2842 60.9938 26.0993L60.9851 13.2968C60.9851 13.113 60.8363 12.9631 60.6514 12.9631ZM74.1748 19.6997C74.1748 24.7242 71.8688 26.8454 68.1504 26.8454C64.4321 26.8454 62.1261 24.7242 62.1261 19.6997C62.1261 14.6752 64.4321 12.554 68.1504 12.554C71.8688 12.554 74.1748 14.6752 74.1748 19.6997ZM69.4183 19.6997C69.4183 17.91 69.1252 16.4802 68.1504 16.4802C67.1757 16.4802 66.8826 17.91 66.8826 19.6997C66.8826 21.4894 67.1757 22.9411 68.1504 22.9411C69.1252 22.9411 69.4183 21.4894 69.4183 19.6997ZM120.238 19.6997C120.238 24.7242 117.932 26.8454 114.213 26.8454C110.495 26.8454 108.19 24.7242 108.19 19.6997C108.19 14.6752 110.495 12.554 114.213 12.554C117.932 12.554 120.238 14.6752 120.238 19.6997ZM115.481 19.6997C115.481 17.91 115.188 16.4802 114.212 16.4802C113.237 16.4802 112.943 17.91 112.943 19.6997C112.943 21.4894 113.237 22.9411 114.212 22.9411C115.188 22.9411 115.481 21.4894 115.481 19.6997ZM143.666 16.4802C143.849 16.4802 144 16.3314 144 16.1465V13.2946C144 13.1108 143.851 12.961 143.666 12.961H140.04V9.58499C140.04 9.40121 139.891 9.25136 139.706 9.25136H136.769C136.603 9.25136 136.46 9.37493 136.44 9.54017C136.162 11.6733 135.097 13.1119 133.683 13.4686C133.533 13.5057 133.426 13.6381 133.426 13.7923V16.1454C133.426 16.3292 133.575 16.4791 133.76 16.4791H134.533V22.9443C134.533 24.7669 135.813 26.8443 139.182 26.8443C141.839 26.8443 143.302 25.8499 143.801 25.4309C143.927 25.3248 143.999 25.1695 143.999 25.0053V22.206C143.999 21.9401 143.704 21.7826 143.48 21.928C142.989 22.2519 142.227 22.6665 141.553 22.6665C140.694 22.6665 140.039 22.3777 140.039 20.9348V16.478H143.665L143.666 16.4802ZM133.107 19.6997C133.107 24.7242 130.801 26.8454 127.082 26.8454C123.364 26.8454 121.059 24.7242 121.059 19.6997C121.059 14.6752 123.364 12.554 127.082 12.554C130.801 12.554 133.107 14.6752 133.107 19.6997ZM128.35 19.6997C128.35 17.91 128.057 16.4802 127.081 16.4802C126.106 16.4802 125.812 17.91 125.812 19.6997C125.812 21.4894 126.106 22.9411 127.081 22.9411C128.057 22.9411 128.35 21.4894 128.35 19.6997ZM84.0587 12.5616C82.0065 12.5616 80.3797 13.4674 79.5658 15.5438L79.2191 13.2465C79.1939 13.0835 79.0539 12.9631 78.8898 12.9631H75.667C75.4833 12.9631 75.3333 13.1119 75.3333 13.2968V26.0993C75.3333 26.283 75.4821 26.433 75.667 26.433H80.4957C80.6795 26.433 80.8293 26.2842 80.8293 26.0993L80.8348 17.6037C80.8348 16.8127 81.3687 16.4802 81.8325 16.4802C82.2963 16.4802 82.8203 16.7307 82.8203 17.5577V26.0982C82.8203 26.282 82.9691 26.4319 83.154 26.4319H87.9816C88.1654 26.4319 88.3153 26.2831 88.3153 26.0982V16.874C88.3153 14.2069 86.9117 12.5616 84.0598 12.5616H84.0587ZM108.941 13.5735L107.472 16.6388C107.383 16.8248 107.145 16.8893 106.977 16.7679C106.726 16.5852 106.506 16.4812 106.038 16.4802C105.345 16.478 104.21 16.874 104.21 18.3858V26.0993C104.21 26.283 104.06 26.433 103.876 26.433H99.0482C98.8646 26.433 98.7143 26.2842 98.7143 26.0993V13.2957C98.7143 13.1119 98.8628 12.9621 99.0482 12.9621H102.271C102.436 12.9621 102.576 13.0824 102.601 13.2454L102.959 15.5383C103.762 13.0922 105.172 12.5616 106.708 12.5616C107.812 12.5616 108.501 12.9117 108.826 13.1502C108.96 13.2486 109.014 13.4226 108.941 13.5735ZM103.215 18.5488C103.215 18.5488 103.207 18.5412 103.204 18.5379V18.5488H103.215ZM97.1591 11.4163C97.3796 11.5475 97.655 11.3856 97.655 11.1286V7.77124C97.655 7.55463 97.5245 7.35772 97.3274 7.26692C92.8292 5.18076 89.0461 6.69698 89.0461 9.64736C89.0461 12.0059 91.6277 12.9621 91.6277 12.9621H90.1238C89.9409 12.9631 89.7932 13.1119 89.7932 13.2957V26.0982C89.7932 26.282 89.942 26.4319 90.1265 26.4319H94.9523C95.1359 26.4319 95.2862 26.2831 95.2862 26.0982V16.4791H97.3238C97.5074 16.4791 97.6577 16.3303 97.6577 16.1454V13.2957C97.6577 13.1141 97.5092 12.9631 97.3274 12.9631C96.1412 12.9598 94.2368 12.53 94.2368 11.4305C94.2368 10.4285 95.8226 10.6231 97.1609 11.4163H97.1591Z" fill="#151531"/>
</svg>
