<svg width="199" height="52" viewBox="0 0 199 52" fill="none" xmlns="http://www.w3.org/2000/svg">
<path d="M73.6482 32.8381C73.7219 37.0602 69.3289 38.0354 65.9133 38.095C62.9383 38.147 59.8261 36.865 58.7159 36.3578C58.4555 36.2398 58.2891 35.9831 58.2842 35.6971L58.2054 31.1864C58.1991 30.8247 58.6053 30.6061 58.9021 30.8124C62.3713 33.2436 67.582 33.7333 67.5575 32.3303C67.5312 30.8208 58.0392 31.36 57.9233 24.7185C57.8599 21.0872 61.0498 19.1321 65.3608 19.0568C71.2935 18.9533 72.8987 22.9093 73.0856 26.0134C73.1002 26.264 72.9012 26.476 72.6489 26.4804L67.1886 26.5758C66.9436 26.58 66.7404 26.3852 66.7361 26.1387L66.7332 25.974C66.7137 24.8583 66.3255 24.264 65.465 24.279C64.6746 24.2928 64.2386 24.9672 64.2485 25.5389C64.3082 28.9544 73.5453 26.8601 73.6496 32.8367L73.6482 32.8381ZM47.6215 25.8305C47.6115 25.2588 48.0491 24.5845 48.8381 24.5707C49.6985 24.5557 50.0868 25.15 50.1063 26.2657L50.1091 26.4304C50.1134 26.6754 50.3152 26.8718 50.5617 26.8675L56.0218 26.7722C56.2727 26.7679 56.4733 26.5556 56.4587 26.3051C56.2718 23.2025 54.6665 19.2449 48.7339 19.3485C44.4228 19.4237 41.233 21.3788 41.2964 25.0102C41.4123 31.6517 50.9041 31.1125 50.9305 32.622C50.955 34.0249 45.7458 33.5352 42.275 31.1041C41.9796 30.8963 41.5722 31.1164 41.5785 31.4781L41.6572 35.9888C41.6622 36.2747 41.83 36.5314 42.0888 36.6494C43.1991 37.1567 46.3113 38.4386 49.2864 38.3867C52.7034 38.3271 57.095 37.3533 57.0213 33.1298C56.917 27.1534 47.6797 29.2475 47.6201 25.832L47.6215 25.8305ZM78.4426 10.4782C75.7883 10.5245 74.0798 11.93 74.1195 14.2065C74.1593 16.4831 75.9173 17.828 78.5701 17.7817C81.2229 17.7354 82.9328 16.3299 82.8931 14.0534C82.8534 11.7769 81.0954 10.4319 78.4426 10.4782ZM22.5864 29.3223C22.695 35.5452 20.9238 38.8803 17.2166 38.945C15.4578 38.9757 13.8625 38.261 12.8457 35.9257L13.443 43.2342C13.4636 43.4906 13.2646 43.71 13.008 43.7145L6.60421 43.8262C6.35919 43.8305 6.15594 43.6357 6.15164 43.3892L5.76216 21.076C5.75788 20.831 5.95274 20.6278 6.1992 20.6235L10.4956 20.5485C10.7158 20.5446 10.9053 20.7018 10.9412 20.9185L11.4289 23.9545C12.356 21.4088 14.0987 19.9516 16.6421 19.9072C20.4952 19.84 22.4777 23.0994 22.5864 29.3223ZM16.0033 29.443C15.9617 27.0572 15.5331 25.1521 14.219 25.175C12.905 25.1979 12.5432 27.1169 12.5848 29.5027C12.6265 31.8886 13.0555 33.817 14.3695 33.7941C15.6835 33.7712 16.045 31.829 16.0033 29.443ZM39.741 27.176L39.9222 37.5538C39.9265 37.7988 39.7316 38.0021 39.4852 38.0064L35.1888 38.0814C34.9686 38.0853 34.7791 37.9281 34.7433 37.7114L34.3465 35.3769C33.257 37.393 31.1995 38.7024 29.0222 38.7404C25.7919 38.7968 23.8999 37.2179 23.838 33.6725C23.7441 28.2911 28.9042 27.2995 33.415 27.3068C32.99 26.1092 32.1552 25.5068 30.4752 25.5361C28.1899 25.576 25.9579 26.9965 24.8663 27.8076C24.5753 28.0228 24.1648 27.8199 24.1585 27.4581L24.0845 23.223C24.0805 22.9912 24.1861 22.7705 24.3688 22.6272C25.3028 21.8918 28.4025 19.7048 32.3227 19.6364C37.039 19.5541 39.6664 22.8124 39.7426 27.1774L39.741 27.176ZM33.7404 31.2429C33.716 29.5891 33.5974 28.5611 33.5974 28.5611C32.7498 28.5599 31.1351 29.4911 31.1643 31.5009C31.1818 32.7493 31.6182 33.6884 32.5388 33.6899C33.4447 33.6916 33.7616 32.6197 33.7404 31.2429ZM81.812 19.3051L75.379 19.4174C75.134 19.4216 74.9377 19.6235 74.942 19.8699L75.2515 36.9371C75.2558 37.1821 75.4576 37.3785 75.7041 37.3742L82.137 37.2619C82.382 37.2577 82.5783 37.0558 82.574 36.8093L82.2645 19.7421C82.2602 19.4971 82.0584 19.3008 81.812 19.3051ZM99.9972 27.9711C100.114 34.6695 97.0892 37.5509 92.1321 37.6374C87.1752 37.7239 84.0515 34.9498 83.9346 28.2515C83.8177 21.5532 86.8426 18.6717 91.7995 18.5851C96.7566 18.4986 99.8802 21.2728 99.9972 27.9711ZM93.6561 28.0818C93.6145 25.6959 93.1904 23.7965 91.8909 23.8192C90.5915 23.8419 90.234 25.7549 90.2756 28.1408C90.3173 30.5267 90.7419 32.4551 92.0413 32.4325C93.3408 32.4098 93.6978 30.4677 93.6561 28.0818ZM161.405 26.8993C161.522 33.5976 158.498 36.479 153.54 36.5655C148.583 36.652 145.46 33.878 145.343 27.1796C145.226 20.4813 148.251 17.5998 153.207 17.5133C158.165 17.4267 161.288 20.2009 161.405 26.8993ZM155.064 27.0099C155.022 24.624 154.598 22.7247 153.297 22.7474C151.997 22.7701 151.639 24.683 151.681 27.069C151.722 29.4548 152.147 31.3833 153.448 31.3606C154.748 31.3379 155.106 29.3958 155.064 27.0099ZM192.563 22.062C192.807 22.0577 193.004 21.8559 193 21.6094L192.934 17.8075C192.929 17.5625 192.728 17.3661 192.481 17.3705L187.647 17.4548L187.568 12.9542C187.564 12.7092 187.362 12.5129 187.115 12.5172L183.2 12.5855C182.978 12.5894 182.792 12.7575 182.768 12.9782C182.447 15.8285 181.061 17.7711 179.184 18.2795C178.985 18.3325 178.846 18.5115 178.85 18.717L178.905 21.854C178.909 22.099 179.11 22.2954 179.357 22.291L180.388 22.2731L180.539 30.8921C180.581 33.3218 182.335 36.0614 186.826 35.9831C190.368 35.9212 192.296 34.5615 192.951 33.9914C193.116 33.847 193.209 33.6382 193.205 33.4194L193.14 29.6875C193.134 29.333 192.736 29.1299 192.442 29.329C191.795 29.7722 190.788 30.3427 189.889 30.3583C188.745 30.3783 187.865 30.0085 187.831 28.085L187.727 22.1435L192.561 22.0591L192.563 22.062ZM178.561 26.5998C178.678 33.2981 175.654 36.1795 170.696 36.2661C165.74 36.3526 162.616 33.5785 162.499 26.8802C162.382 20.1818 165.407 17.3003 170.364 17.2138C175.321 17.1273 178.444 19.9015 178.561 26.5998ZM172.22 26.7105C172.179 24.3245 171.754 22.4252 170.454 22.4479C169.153 22.4706 168.795 24.3836 168.837 26.7695C168.878 29.1554 169.303 31.0838 170.604 31.0611C171.905 31.0384 172.262 29.0963 172.22 26.7105ZM113.008 18.2251C110.272 18.2729 108.124 19.5183 107.087 22.3053L106.572 19.2507C106.534 19.034 106.345 18.8768 106.126 18.8807L101.83 18.9557C101.585 18.9599 101.388 19.1618 101.393 19.4082L101.69 36.4756C101.695 36.7206 101.897 36.917 102.143 36.9127L108.58 36.8004C108.825 36.7961 109.022 36.5943 109.017 36.3477L108.827 25.0219C108.809 23.9674 109.513 23.5116 110.131 23.5008C110.749 23.49 111.454 23.8119 111.473 24.9144L111.672 36.2999C111.676 36.5449 111.878 36.7414 112.124 36.7371L118.56 36.6247C118.805 36.6204 119.001 36.4186 118.997 36.1721L118.782 23.875C118.72 20.3195 116.811 18.1588 113.009 18.2251L113.008 18.2251ZM146.202 18.9951L144.316 23.1157C144.201 23.3657 143.885 23.4573 143.659 23.2993C143.32 23.0616 143.023 22.9281 142.4 22.9376C141.476 22.9508 139.972 23.5052 140.007 25.5206L140.187 35.8036C140.191 36.0486 139.995 36.252 139.749 36.2563L133.313 36.3686C133.069 36.3729 132.865 36.1781 132.86 35.9315L132.563 18.8627C132.558 18.6177 132.753 18.4145 133 18.4101L137.296 18.3351C137.516 18.3313 137.706 18.4885 137.742 18.7052L138.273 21.7536C139.286 18.474 141.154 17.7338 143.202 17.6981C144.673 17.6724 145.6 18.1231 146.039 18.4334C146.22 18.5615 146.296 18.7922 146.202 18.9951ZM138.685 25.761C138.685 25.761 138.674 25.751 138.669 25.7468L138.669 25.7613L138.685 25.761ZM130.445 16.3934C130.742 16.5632 131.106 16.341 131.1 15.9983L131.022 11.5225C131.017 11.2338 130.838 10.9743 130.573 10.8578C124.528 8.18137 119.52 10.2907 119.589 14.224C119.643 17.3682 123.107 18.5828 123.107 18.5828L121.102 18.6178C120.859 18.6235 120.665 18.8253 120.669 19.0703L120.967 36.1377C120.972 36.3827 121.174 36.5791 121.42 36.5748L127.853 36.4625C128.098 36.4582 128.295 36.2564 128.29 36.0099L128.066 23.1863L130.783 23.1389C131.028 23.1346 131.225 22.9328 131.22 22.6864L131.154 18.8873C131.15 18.6451 130.948 18.4474 130.706 18.4516C129.124 18.4748 126.576 17.9461 126.55 16.4804C126.527 15.1445 128.645 15.3671 130.448 16.3934L130.445 16.3934Z" fill="#151531"/>
</svg>
