<svg width="32" height="32" viewBox="0 0 32 32" fill="none" xmlns="http://www.w3.org/2000/svg">
<path d="M15.5267 27.88L15.5173 27.876L15.488 27.86C15.3164 27.7656 15.1461 27.6686 14.9773 27.5693C12.9477 26.3633 11.051 24.9466 9.31867 23.3426C6.25067 20.48 3 16.232 3 11C3 7.09597 6.28533 3.99997 10.2507 3.99997C11.353 3.99457 12.4424 4.23776 13.4378 4.71145C14.4331 5.18513 15.3089 5.87713 16 6.73597C16.6912 5.87695 17.5672 5.18485 18.5628 4.71116C19.5585 4.23746 20.6481 3.99437 21.7507 3.99997C25.7147 3.99997 29 7.09597 29 11C29 16.2333 25.7493 20.4813 22.6813 23.3413C20.949 24.9453 19.0523 26.362 17.0227 27.568C16.8539 27.6678 16.6836 27.7651 16.512 27.86L16.4827 27.876L16.4733 27.8813L16.4693 27.8826C16.3247 27.9592 16.1636 27.9993 16 27.9993C15.8364 27.9993 15.6753 27.9592 15.5307 27.8826L15.5267 27.88Z" fill="#005900"/>
</svg>
