<svg width="137" height="30" viewBox="0 0 137 30" fill="none" xmlns="http://www.w3.org/2000/svg">
<g clip-path="url(#clip0_2086_44126)">
<path d="M123.812 9.00195H127.491V21.6793H136.004V24.8434H123.812V9.00195ZM115.172 9.00195L122.016 24.8434H118.145L116.754 21.5511H109.29L107.878 24.8434H104.093L110.98 9.00195H115.172ZM110.595 18.5154H115.45L113.033 12.8501L110.595 18.5154ZM102.745 9.00195V12.166H93.099V15.2017H101.505V18.3016H93.099V21.6793H102.745V24.8434H89.463V9.00195H102.745ZM76.9082 24.8434L70.0854 9.00195H74.085L78.9828 20.5891L83.9021 9.00195H87.7734L80.9292 24.8434H76.9082ZM68.909 9.00195V12.166H59.2416V15.2017H67.6472V18.3016H59.2416V21.6793H68.8877V24.8434H55.6269V9.00195H68.909ZM41.9385 24.8434H38.2598V9.00195H46.6439C50.3441 9.00195 52.7396 10.7977 52.7396 14.09C52.7396 16.4631 51.4563 18.1092 49.2747 18.8146L53.1674 24.822H48.9539L45.4248 19.2208H41.9385V24.8434ZM46.4514 16.2064C48.2052 16.2064 49.1249 15.4369 49.1249 14.1542C49.1249 12.8501 48.1839 12.1018 46.4514 12.1018H41.9598V16.2064H46.4514Z" fill="#151531"/>
<path d="M12.3367 2.28231V5.14208C8.29821 5.52705 5.1449 8.93676 5.1449 13.0614C5.1449 16.6911 7.57903 19.7433 10.926 20.7057L2.26818 26.1502V13.0339C2.26818 7.34189 6.69388 2.66728 12.3367 2.28231ZM12.3367 27.7452H2.65544L12.3367 21.6132V27.7452ZM13.9133 21.6406L23.5946 27.7727H13.9133V21.6406ZM12.3367 19.3584C9.18336 18.9733 6.72155 16.2786 6.72155 13.0339C6.72155 9.78921 9.18336 7.09442 12.3367 6.70944V19.3584ZM13.9133 6.70944C17.0667 7.09442 19.5285 9.78921 19.5285 13.0339C19.5285 16.2786 17.0667 18.9733 13.9133 19.3584V6.70944ZM23.9818 13.0339V26.1502L15.324 20.6782C18.6433 19.7158 21.1052 16.6637 21.1052 13.0339C21.1052 8.90924 17.9517 5.52705 13.9133 5.11458V2.28231C19.5285 2.66728 23.9818 7.34189 23.9818 13.0339ZM13.1112 0C5.89173 0 0 5.85702 0 13.0339L0 30H26.25V13.0339C26.25 5.85702 20.3583 0 13.1112 0Z" fill="#7E64FF"/>
</g>
<defs>
<clipPath id="clip0_2086_44126">
<rect width="136.5" height="30" fill="white"/>
</clipPath>
</defs>
</svg>
