<svg width="147" height="35" viewBox="0 0 147 35" fill="none" xmlns="http://www.w3.org/2000/svg">
<g clip-path="url(#clip0_2081_40070)">
<path d="M132.698 12.3509L136.621 12.4194L136.385 25.9399L145.464 26.0983L145.405 29.4729L132.403 29.2459L132.698 12.3509ZM123.482 12.1901L130.487 29.2125L126.358 29.1404L124.937 25.6032L116.976 25.4643L115.409 28.9493L111.372 28.8788L119.012 12.112L123.482 12.1901ZM118.424 22.251L123.602 22.3413L121.13 16.2543L118.424 22.251ZM110.229 11.9587L110.171 15.3332L99.883 15.1536L99.8265 18.3912L108.791 18.5477L108.733 21.8538L99.7688 21.6973L99.7059 25.2996L109.993 25.4792L109.935 28.8537L95.7692 28.6065L96.0641 11.7115L110.229 11.9587ZM82.3794 28.3727L75.3978 11.3507L79.6634 11.4252L84.6712 23.8741L90.1333 11.6079L94.2621 11.68L86.6678 28.4476L82.3794 28.3727ZM74.1431 11.3288L74.0842 14.7033L63.7739 14.5233L63.7174 17.7609L72.6819 17.9174L72.6242 21.2235L63.6597 21.067L63.5968 24.6693L73.8844 24.8489L73.8255 28.2234L59.6828 27.9766L59.9777 11.0816L74.1431 11.3288ZM45.0841 27.7218L41.1607 27.6533L41.4556 10.7583L50.3972 10.9143C54.3435 10.9832 56.8649 12.943 56.8036 16.4543C56.7594 18.9851 55.3602 20.7168 53.0204 21.4286L57.0601 27.9079L52.5664 27.8295L48.9069 21.7901L45.1887 21.7252L45.0841 27.7218ZM50.0579 18.5944C51.9283 18.627 52.9234 17.8235 52.9473 16.4554C52.9716 15.0646 51.982 14.249 50.1343 14.2168L45.344 14.1332L45.2676 18.5107L50.0579 18.5944Z" fill="#151531"/>
<path d="M13.9344 3.10931L13.8812 6.15926C9.56701 6.49466 6.14051 10.0724 6.06373 14.4714C5.99616 18.3425 8.53536 21.643 12.087 22.7317L2.75204 28.3771L2.99621 14.3885C3.10217 8.31793 7.90923 3.41484 13.9344 3.10931ZM13.4604 30.2656L3.13536 30.0854L13.5746 23.7258L13.4604 30.2656ZM15.2556 23.7844L25.4665 30.5044L15.1414 30.3242L15.2556 23.7844ZM13.6165 21.321C10.2607 20.8517 7.68534 17.9319 7.74574 14.4714C7.80615 11.0109 10.4818 8.18274 13.852 7.83086L13.6165 21.321ZM15.5335 7.86021C18.8895 8.32949 21.4648 11.2493 21.4044 14.7098C21.344 18.1703 18.6683 20.9984 15.2981 21.3504L15.5335 7.86021ZM26.1539 14.7927L25.9098 28.7814L16.778 22.7843C20.336 21.8197 23.0183 18.6103 23.0859 14.7392C23.1627 10.3402 19.8625 6.67437 15.5632 6.15929L15.6159 3.13866C21.5974 3.65377 26.2599 8.72215 26.1539 14.7927ZM14.803 0.689633C7.10338 0.555237 0.710791 6.69209 0.577186 14.3463L0.261347 32.4407L28.2571 32.9294L28.5729 14.835C28.7065 7.18076 22.532 0.824545 14.803 0.689633Z" fill="#7E64FF"/>
</g>
<defs>
<clipPath id="clip0_2081_40070">
<rect width="145.6" height="32" fill="white" transform="translate(0.819824 0.445557) rotate(1)"/>
</clipPath>
</defs>
</svg>
