<svg width="40" height="40" viewBox="0 0 40 40" fill="none" xmlns="http://www.w3.org/2000/svg">
<path fillRule="evenodd" clipRule="evenodd" d="M20 3.75C11.025 3.75 3.75 11.025 3.75 20C3.75 28.975 11.025 36.25 20 36.25C28.975 36.25 36.25 28.975 36.25 20C36.25 11.025 28.975 3.75 20 3.75ZM27.1333 20.8833C27.3674 20.649 27.4989 20.3313 27.4989 20C27.4989 19.6687 27.3674 19.351 27.1333 19.1167L22.1333 14.1167C22.0189 13.9939 21.8809 13.8954 21.7276 13.827C21.5742 13.7587 21.4087 13.722 21.2409 13.719C21.073 13.7161 20.9063 13.7469 20.7507 13.8098C20.595 13.8727 20.4536 13.9662 20.3349 14.0849C20.2162 14.2036 20.1227 14.345 20.0598 14.5007C19.9969 14.6563 19.9661 14.823 19.969 14.9909C19.972 15.1587 20.0087 15.3242 20.077 15.4776C20.1454 15.6309 20.2439 15.7689 20.3667 15.8833L23.2333 18.75H13.75C13.4185 18.75 13.1005 18.8817 12.8661 19.1161C12.6317 19.3505 12.5 19.6685 12.5 20C12.5 20.3315 12.6317 20.6495 12.8661 20.8839C13.1005 21.1183 13.4185 21.25 13.75 21.25H23.2333L20.3667 24.1167C20.2439 24.2311 20.1454 24.3691 20.077 24.5224C20.0087 24.6758 19.972 24.8413 19.969 25.0091C19.9661 25.177 19.9969 25.3437 20.0598 25.4993C20.1227 25.655 20.2162 25.7964 20.3349 25.9151C20.4536 26.0338 20.595 26.1273 20.7507 26.1902C20.9063 26.2531 21.073 26.2839 21.2409 26.281C21.4087 26.278 21.5742 26.2413 21.7276 26.173C21.8809 26.1046 22.0189 26.0061 22.1333 25.8833L27.1333 20.8833Z" fill="white"/>
</svg>
