<svg width="136" height="36" viewBox="0 0 136 36" fill="none" xmlns="http://www.w3.org/2000/svg">
<path d="M13.7508 29.1074C13.7338 28.1357 13.3781 27.3499 12.647 26.7146C10.0512 24.4379 3.61056 24.6403 1.34727 24.9138L1.05262 22.4709C1.42989 22.4283 10.3043 21.4094 14.2525 24.8506C15.5136 25.9446 16.1683 27.3552 16.1978 29.0467" fill="#FBB041"/>
<path d="M14.1647 29.1002C14.1351 27.4087 14.7401 25.9761 15.9623 24.8387C19.788 21.2618 28.7106 21.9701 29.0711 21.9998L28.8616 24.4335C26.5902 24.2392 20.1464 24.2617 17.6316 26.6276C16.9231 27.288 16.595 28.0858 16.612 29.0575" fill="#FBB041"/>
<path d="M39.2517 14.3339C39.2168 12.3365 39.9068 10.6144 41.3219 9.18563C42.737 7.75689 44.4523 7.02493 46.4677 6.98975L49.3829 6.93887L49.4567 11.1677L47.1174 11.2085C46.0736 11.2267 45.2335 11.5654 44.6147 12.2062C43.9959 12.8471 43.7047 13.6982 43.7232 14.7599L43.9243 26.2767L39.4615 26.3546L39.2517 14.3339Z" fill="#FBB041"/>
<path d="M60.6986 6.56134C63.4159 6.51391 65.7359 7.42744 67.6584 9.28394C69.5808 11.1404 70.5754 13.4631 70.6237 16.2344C70.6724 19.0236 69.7598 21.3976 67.9037 23.338C66.0475 25.2785 63.7248 26.2731 60.9535 26.3214C58.2903 26.3679 55.988 25.4361 54.0469 23.5439C52.1058 21.6517 51.1112 19.329 51.0632 16.5758C51.0148 13.8046 51.928 11.4666 53.7842 9.52611C55.6587 7.60334 57.9634 6.60909 60.6986 6.56134ZM55.6538 16.6037C55.6792 18.0613 56.2234 19.3298 57.2686 20.4276C58.3314 21.5071 59.5648 22.0436 60.9685 22.0191C62.3181 21.9955 63.514 21.4166 64.5566 20.3004C65.5811 19.1845 66.098 17.8614 66.0716 16.3498C66.0456 14.8562 65.5014 13.5877 64.4742 12.4896C63.447 11.3915 62.1959 10.8733 60.7923 10.8978C59.3527 10.923 58.1388 11.5022 57.1323 12.6178C56.1257 13.7334 55.6271 15.0741 55.6538 16.6037Z" fill="#FBB041"/>
<path d="M81.7348 6.19415C84.452 6.14672 86.772 7.06025 88.6945 8.91675C90.6169 10.7732 91.6115 13.0959 91.6599 15.8672C91.7086 18.6564 90.796 21.0304 88.9398 22.9708C87.0836 24.9113 84.7609 25.9059 81.9897 25.9542C79.3264 26.0007 77.0241 25.0689 75.083 23.1767C73.1419 21.2846 72.1474 18.9618 72.0993 16.2086C72.0509 13.4374 72.9642 11.0994 74.8203 9.15892C76.6768 7.23647 78.9815 6.24221 81.7348 6.19415ZM76.6719 16.2368C76.6974 17.6944 77.2415 18.9629 78.3047 20.0604C79.3676 21.1399 80.601 21.6764 82.0046 21.6519C83.3542 21.6283 84.5501 21.0494 85.5927 19.9332C86.6172 18.8173 87.1342 17.4942 87.1078 15.9826C87.0817 14.4891 86.5375 13.2205 85.5104 12.1224C84.4655 11.0426 83.2321 10.5061 81.8285 10.5306C80.3889 10.5558 79.1749 11.135 78.1684 12.2506C77.1618 13.3662 76.6452 14.7072 76.6719 16.2368Z" fill="#FBB041"/>
<path d="M101.132 25.3501C99.0622 25.3862 97.3414 24.7683 95.9868 23.4779C94.6326 22.2055 93.9366 20.4896 93.8992 18.3482L93.6008 1.25291L98.0636 1.17502L98.1556 6.44755L101.683 6.38599L101.755 10.5068L98.2276 10.5684L98.3629 18.3243C98.3786 19.224 98.6791 19.9388 99.247 20.5049C99.8146 21.053 100.575 21.3277 101.493 21.3117L101.961 21.3035L102.031 25.3344L101.132 25.3501Z" fill="#FBB041"/>
<path d="M24.4863 9.92951C24.4863 9.92951 20.4174 8.8485 18.9624 11.088C17.4888 13.2917 21.6451 16.2793 24.4863 9.92951Z" fill="#FBB041"/>
<path d="M27.2562 15.9833C27.2562 15.9833 23.4625 14.1775 21.606 16.0999C19.7495 18.0224 23.2882 21.7227 27.2562 15.9833Z" fill="#FBB041"/>
<path d="M14.4986 4.9197C14.4986 4.9197 11.9468 8.25833 13.4433 10.4643C14.9399 12.6702 19.2848 9.96629 14.4986 4.9197Z" fill="#FBB041"/>
<path d="M14.7134 14.1322C14.7134 14.1322 12.0704 17.4004 13.4956 19.6436C14.9207 21.8868 19.3402 19.3256 14.7134 14.1322Z" fill="#FBB041"/>
<path d="M4.96177 10.2703C4.96177 10.2703 8.99055 9.04796 10.5228 11.2353C12.055 13.4226 8.02289 16.5171 4.96177 10.2703Z" fill="#FBB041"/>
<path d="M2.40505 16.4171C2.40505 16.4171 6.13334 14.48 8.0558 16.3365C9.97826 18.193 6.55287 22.0149 2.40505 16.4171Z" fill="#FBB041"/>
<path d="M110.22 18.0093C110.236 18.909 110.518 19.6421 111.086 20.1902C111.654 20.7563 112.396 21.0134 113.332 21.015L113.8 21.0069L113.835 25.0384L112.953 25.0538C110.883 25.0719 109.162 24.4359 107.826 23.1632C106.471 21.8728 105.793 20.1566 105.774 18.0149L105.584 0.935746L110.047 0.893838L110.22 18.0093Z" fill="#FBB041"/>
<path d="M114.542 5.74751C114.919 6.74895 115.311 7.49815 115.611 8.19492C117.584 12.9666 119.638 17.1969 121.611 21.9686C123.34 26.1145 122.026 27.1815 117.565 28.3934L116.106 33.495C120.717 33.6665 126.539 30.9908 128.403 26.4221C130.338 19.6742 132.654 12.1635 135.237 5.40429L133.329 5.43758C130 5.49569 129.332 8.47743 129.332 8.47743C128.262 12.1682 126.813 15.7576 125.354 19.8512C124.904 18.815 124.643 18.2616 124.435 17.7072C123.06 14.2031 122.19 11.8242 120.726 8.35765C120.726 8.35765 119.923 5.67159 116.864 5.72499L114.542 5.76551L114.542 5.74751Z" fill="#FBB041"/>
</svg>
