<svg width="123" height="125" viewBox="0 0 123 125" fill="none" xmlns="http://www.w3.org/2000/svg">
<g filter="url(#filter0_dd_1690_49279)">
<rect x="1.86963" y="1.05743" width="120" height="120" rx="40" fill="white"/>
</g>
<path d="M76.4987 34.5854C71.4068 31.8055 65.6541 30.5393 59.874 30.8972C54.0939 31.2825 48.5339 33.2918 43.8549 36.7047C39.0932 40.1453 35.4324 44.8796 33.313 50.3568C32.212 53.1919 31.5239 56.1645 31.3037 59.1922H38.9005C39.4234 53.5498 42.0107 48.2925 46.1669 44.4392C50.3231 40.5857 55.7453 38.3837 61.4153 38.3012C67.2229 38.1912 72.8656 40.283 77.2144 44.1638C81.5356 48.0448 84.2606 53.4121 84.811 59.1922H92.3803C91.8847 50.9074 87.2332 40.4757 76.4987 34.5854ZM64.0027 53.9074C63.5071 54.513 62.8466 54.9259 62.0758 55.146C61.3328 55.3662 60.5346 55.3387 59.7913 55.0635C59.241 54.9259 58.7454 54.6507 58.3325 54.2378C57.9197 53.8524 57.617 53.3571 57.4518 52.834C57.2866 52.3112 57.2591 51.7331 57.3693 51.1826C57.4793 50.6322 57.7272 50.1091 58.0849 49.6963C58.7454 48.9807 59.6538 48.5127 60.6447 48.4302C61.6355 48.3477 62.5989 48.6229 63.3696 49.2284C63.6173 49.4211 63.8375 49.6413 64.0577 49.8615C64.3329 49.6688 64.6082 49.4486 64.9384 49.2284C64.5807 48.7054 64.1127 48.265 63.5623 47.9623C62.5439 47.4118 61.3878 47.1916 60.2319 47.3568C59.6263 47.4118 59.0208 47.6044 58.4702 47.8796C57.9197 48.1825 57.4518 48.5679 57.0664 49.0357C56.6811 49.5036 56.4059 50.0266 56.2407 50.6045C56.0757 51.1826 56.048 51.7881 56.1307 52.3662C56.2132 53.1094 56.4886 53.8524 56.9289 54.458C57.3693 55.0635 57.9749 55.5589 58.6629 55.8618C59.4886 56.2471 60.4246 56.3846 61.3328 56.3021C62.4337 56.2746 63.5071 55.8343 64.3604 55.1185C64.5807 54.9259 64.7457 54.7057 64.9659 54.513L64.0302 53.8524C64.0302 53.8524 64.0302 53.8799 64.0027 53.9074ZM70.9662 56.1645H72.2875L73.6636 53.4121H77.3244L78.7282 56.1645H80.0218C78.508 53.1094 77.0217 50.0816 75.5077 47.0539C73.994 50.0816 72.4802 53.1094 70.9662 56.1645ZM74.2416 52.2837C74.6545 51.4302 75.0949 50.6045 75.5077 49.7513C75.9481 50.6045 76.361 51.4579 76.7739 52.2837H74.2416ZM43.7722 56.1645H45.0935C45.5614 55.2562 46.0292 54.3203 46.4696 53.4121H50.1304C50.5983 54.3203 51.0661 55.2562 51.5342 56.1645H52.8278L48.3137 47.0264C46.8 50.0816 45.286 53.1094 43.7722 56.1645ZM47.0201 52.2837C47.433 51.4302 47.8734 50.6045 48.3137 49.7238C48.7541 50.6045 49.167 51.4302 49.5798 52.2837H47.0201ZM72.0398 51.1276C72.2325 50.8249 72.37 50.467 72.3975 50.1091C72.425 49.7513 72.37 49.3661 72.2323 49.0357C72.0948 48.7054 71.8746 48.4027 71.5993 48.155C71.3241 47.9071 70.9939 47.7421 70.636 47.6594C70.2232 47.5494 69.7828 47.4943 69.3424 47.5219C68.4615 47.4943 67.5808 47.5219 66.6726 47.5219C66.6174 47.5219 66.5624 47.5219 66.5349 47.5219V56.1645H67.691V52.2837C67.9937 52.2837 68.2688 52.2837 68.5442 52.2837C69.0946 52.256 69.6726 52.256 70.2232 52.201C70.581 52.1735 70.9387 52.0635 71.2691 51.8983C71.5718 51.6781 71.8471 51.4302 72.0398 51.1276ZM71.1039 50.3018C71.0214 50.5495 70.8562 50.7422 70.636 50.8799C70.4159 51.0174 70.1682 51.1001 69.9203 51.1001C69.2048 51.1276 68.4615 51.1001 67.7185 51.1001V48.5679C68.489 48.5954 69.2323 48.5954 69.9755 48.6229C70.1682 48.6229 70.3607 48.6779 70.5259 48.7605C70.691 48.843 70.8562 48.9807 70.9662 49.1457C71.0764 49.3109 71.1314 49.5036 71.1589 49.6963C71.1864 49.9165 71.1589 50.1366 71.1039 50.3018ZM53.5158 56.137H54.6994V47.4943H53.5158V56.137Z" fill="#173F98"/>
<path d="M62.241 84.4828C57.3416 84.6203 52.4974 83.1341 48.5339 80.2715C43.3044 76.5282 40.1664 71.4638 39.038 65.1331H31.3862C32.9826 80.2165 46.4421 93.2355 63.7273 92.1621C79.6639 91.1987 90.9213 78.4275 92.2151 65.1331H84.5633C83.7101 70.4729 80.985 75.3173 76.9116 78.8404C72.8379 82.391 67.6358 84.3727 62.241 84.4828ZM59.351 76.0328C59.9565 76.2805 60.6171 76.4182 61.2776 76.3907C61.9382 76.3907 62.5989 76.2255 63.2045 75.9503C63.7548 75.7302 64.2504 75.3448 64.6632 74.9044C65.0484 74.4364 65.3513 73.886 65.489 73.3079C65.7367 72.372 65.7367 71.4088 65.4338 70.4729C65.2963 69.9775 65.0484 69.5096 64.7182 69.0968C64.3879 68.6839 63.975 68.3535 63.5071 68.1334C62.8191 67.7755 62.0484 67.6103 61.2776 67.638C61.1124 67.638 60.9474 67.638 60.7823 67.638C60.6721 67.638 60.5896 67.6655 60.4794 67.6655C59.8463 67.7205 59.2133 67.9682 58.6629 68.3261C58.1124 68.6839 57.672 69.1793 57.3691 69.7298C56.9288 70.5279 56.7636 71.4363 56.8188 72.317C56.9288 74.051 57.727 75.3448 59.351 76.0328ZM60.0942 69.1793C60.6446 68.9591 61.2776 68.9041 61.8557 69.0141C62.4337 69.1518 62.9841 69.4545 63.3695 69.9225C63.865 70.5831 64.1127 71.3813 64.0577 72.207C64.0025 73.0328 63.6448 73.8033 63.0393 74.3814C61.7457 75.5375 59.0206 75.2896 58.4427 72.8124C58.3876 72.5647 58.3601 72.317 58.3601 72.207C58.3051 70.8032 58.9656 69.6471 60.0942 69.1793ZM52.8553 75.0144C52.5249 75.0144 52.1671 74.9594 51.8644 74.7942C51.5615 74.629 51.3138 74.4089 51.1211 74.1337C50.7635 74.519 50.4056 74.9044 50.0477 75.2896C50.3229 75.62 50.6808 75.8676 51.0661 76.0328C51.8369 76.3632 52.6626 76.4457 53.4883 76.308C54.8369 76.0878 55.7177 75.2071 55.8004 73.9135C55.8554 73.4731 55.7729 73.0051 55.5527 72.6199C55.3325 72.2345 55.0021 71.9042 54.5893 71.7115C54.2314 71.5463 53.846 71.4088 53.4883 71.2711C53.0755 71.1334 52.6626 70.9407 52.2497 70.7482C52.0571 70.6381 51.9194 70.4729 51.8644 70.2802C51.8094 70.0875 51.8094 69.8673 51.8919 69.6746C51.9469 69.5371 52.0296 69.3995 52.1396 69.2893C52.2497 69.1793 52.3872 69.1243 52.5249 69.0691C52.8828 68.9316 53.2957 68.9041 53.681 69.0141C54.0662 69.1243 54.3966 69.317 54.6443 69.6196C55.0021 69.2343 55.36 68.8766 55.7177 68.4912C55.6352 68.4085 55.5802 68.3536 55.4975 68.3261C54.8369 67.8582 54.0387 67.6103 53.2405 67.638C52.5524 67.638 51.8644 67.8305 51.2588 68.1884C49.91 69.0141 49.7725 71.4088 51.479 72.1793C51.8919 72.372 52.3322 72.4822 52.7451 72.6474C53.103 72.7849 53.4608 72.9501 53.791 73.1428C53.9012 73.2254 54.0112 73.3354 54.0662 73.4731C54.1489 73.6106 54.1764 73.7483 54.1764 73.886C54.1764 74.0235 54.1489 74.1887 54.0939 74.3264C54.0387 74.4639 53.9287 74.574 53.8185 74.6842C53.6258 74.9044 53.2405 75.0144 52.8553 75.0144ZM67.6358 75.0694C69.0121 76.4182 70.6359 76.6659 72.425 76.1153C73.0856 75.8952 73.6361 75.4548 74.0215 74.9044L72.7829 74.0235C72.7279 74.0787 72.7002 74.1062 72.6727 74.1612C71.4616 75.62 69.535 75.0694 68.7367 74.051C68.4615 73.6933 68.2689 73.2804 68.1587 72.8124C68.0487 72.372 68.0212 71.9042 68.1037 71.4363C68.1864 70.7482 68.5165 70.115 69.0396 69.6472C69.8653 68.9041 71.5168 68.5462 72.5902 69.7298C72.6177 69.7573 72.6452 69.7848 72.6727 69.7848L73.8288 68.9316C73.5259 68.5462 73.1408 68.2434 72.7002 68.0232C71.9022 67.638 70.9937 67.5278 70.1405 67.6655C69.59 67.7205 69.0671 67.9132 68.5992 68.1884C68.1312 68.4637 67.7183 68.8214 67.3881 69.2618C66.7551 70.1427 66.4522 71.2161 66.5349 72.2895C66.5072 73.3354 66.9201 74.3264 67.6358 75.0694Z" fill="#173F98"/>
<path d="M95.4925 63.261V61.0574H28.2505V63.261H95.4925Z" fill="#173F98"/>
<defs>
<filter id="filter0_dd_1690_49279" x="0.869629" y="0.0574341" width="122" height="124" filterUnits="userSpaceOnUse" color-interpolation-filters="sRGB">
<feFlood flood-opacity="0" result="BackgroundImageFix"/>
<feColorMatrix in="SourceAlpha" type="matrix" values="0 0 0 0 0 0 0 0 0 0 0 0 0 0 0 0 0 0 127 0" result="hardAlpha"/>
<feOffset/>
<feGaussianBlur stdDeviation="0.5"/>
<feColorMatrix type="matrix" values="0 0 0 0 0.0509804 0 0 0 0 0.0745098 0 0 0 0 0.105882 0 0 0 0.25 0"/>
<feBlend mode="normal" in2="BackgroundImageFix" result="effect1_dropShadow_1690_49279"/>
<feColorMatrix in="SourceAlpha" type="matrix" values="0 0 0 0 0 0 0 0 0 0 0 0 0 0 0 0 0 0 127 0" result="hardAlpha"/>
<feOffset dy="2"/>
<feGaussianBlur stdDeviation="0.5"/>
<feColorMatrix type="matrix" values="0 0 0 0 0.0509804 0 0 0 0 0.0745098 0 0 0 0 0.105882 0 0 0 0.05 0"/>
<feBlend mode="normal" in2="effect1_dropShadow_1690_49279" result="effect2_dropShadow_1690_49279"/>
<feBlend mode="normal" in="SourceGraphic" in2="effect2_dropShadow_1690_49279" result="shape"/>
</filter>
</defs>
</svg>
