<svg width="24" height="24" viewBox="0 0 24 24" fill="none" xmlns="http://www.w3.org/2000/svg">
<path d="M12 7.5C11.4033 7.5 10.831 7.73705 10.409 8.15901C9.98705 8.58097 9.75 9.15326 9.75 9.75C9.75 10.3467 9.98705 10.919 10.409 11.341C10.831 11.7629 11.4033 12 12 12C12.5967 12 13.169 11.7629 13.591 11.341C14.0129 10.919 14.25 10.3467 14.25 9.75C14.25 9.15326 14.0129 8.58097 13.591 8.15901C13.169 7.73705 12.5967 7.5 12 7.5Z" fill="#005900"/>
<path fillRule="evenodd" clipRule="evenodd" d="M1.5 4.875C1.5 3.839 2.34 3 3.375 3H20.625C21.66 3 22.5 3.84 22.5 4.875V14.625C22.5 15.661 21.66 16.5 20.625 16.5H3.375C3.12877 16.5 2.88495 16.4515 2.65747 16.3573C2.42998 16.263 2.22328 16.1249 2.04917 15.9508C1.87506 15.7767 1.73695 15.57 1.64273 15.3425C1.5485 15.115 1.5 14.8712 1.5 14.625V4.875ZM8.25 9.75C8.25 8.75544 8.64509 7.80161 9.34835 7.09835C10.0516 6.39509 11.0054 6 12 6C12.9946 6 13.9484 6.39509 14.6517 7.09835C15.3549 7.80161 15.75 8.75544 15.75 9.75C15.75 10.7446 15.3549 11.6984 14.6517 12.4017C13.9484 13.1049 12.9946 13.5 12 13.5C11.0054 13.5 10.0516 13.1049 9.34835 12.4017C8.64509 11.6984 8.25 10.7446 8.25 9.75ZM18.75 9C18.5511 9 18.3603 9.07902 18.2197 9.21967C18.079 9.36032 18 9.55109 18 9.75V9.758C18 10.172 18.336 10.508 18.75 10.508H18.758C18.9569 10.508 19.1477 10.429 19.2883 10.2883C19.429 10.1477 19.508 9.95691 19.508 9.758V9.75C19.508 9.55109 19.429 9.36032 19.2883 9.21967C19.1477 9.07902 18.9569 9 18.758 9H18.75ZM4.5 9.75C4.5 9.55109 4.57902 9.36032 4.71967 9.21967C4.86032 9.07902 5.05109 9 5.25 9H5.258C5.45691 9 5.64768 9.07902 5.78833 9.21967C5.92898 9.36032 6.008 9.55109 6.008 9.75V9.758C6.008 9.95691 5.92898 10.1477 5.78833 10.2883C5.64768 10.429 5.45691 10.508 5.258 10.508H5.25C5.05109 10.508 4.86032 10.429 4.71967 10.2883C4.57902 10.1477 4.5 9.95691 4.5 9.758V9.75Z" fill="#005900"/>
<path d="M2.25 18C2.05109 18 1.86032 18.079 1.71967 18.2197C1.57902 18.3603 1.5 18.5511 1.5 18.75C1.5 18.9489 1.57902 19.1397 1.71967 19.2803C1.86032 19.421 2.05109 19.5 2.25 19.5C7.65 19.5 12.88 20.222 17.85 21.575C19.04 21.899 20.25 21.017 20.25 19.755V18.75C20.25 18.5511 20.171 18.3603 20.0303 18.2197C19.8897 18.079 19.6989 18 19.5 18H2.25Z" fill="#005900"/>
</svg>
