<svg width="88" height="48" viewBox="0 0 88 48" fill="none" xmlns="http://www.w3.org/2000/svg">
<g clip-path="url(#clip0_2086_45748)">
<path fillRule="evenodd" clipRule="evenodd" d="M4.69737 22.9416C4.60014 23.2702 4.58674 23.5316 4.67055 23.8568C4.68061 23.9172 4.7309 24.0815 4.7309 24.0815C5.85062 27.3232 19.1196 41.3533 22.2106 42.5569C22.2106 42.5569 22.3883 42.6138 22.452 42.6239C22.7303 42.6876 22.9783 42.7009 23.2733 42.644C23.3437 42.6339 23.5683 42.5669 23.5683 42.5669C25.2243 41.9649 29.5504 38.3551 33.6053 34.5151C37.326 38.413 41.1837 41.9764 42.6743 42.5569C42.6743 42.5569 42.852 42.6138 42.9157 42.6239C43.1939 42.6876 43.442 42.7009 43.737 42.644C43.8073 42.6339 44.032 42.5669 44.032 42.5669C45.6881 41.9648 50.015 38.3543 54.0704 34.5138C57.7914 38.4121 61.6498 41.9763 63.1406 42.5569C63.1406 42.5569 63.3182 42.6138 63.382 42.6239C63.6602 42.6876 63.9083 42.7009 64.2033 42.644C64.2737 42.6339 64.4984 42.5669 64.4984 42.5669C67.7905 41.3701 81.6362 28.2854 82.9235 25.1375C82.9235 25.1375 82.9872 24.9598 83.0006 24.8961C83.0944 24.5742 83.1012 24.3161 83.024 23.9977C83.0139 23.9406 82.9603 23.7697 82.9603 23.7697C81.8339 20.5312 68.6788 6.61179 65.5209 5.31439C65.5209 5.31439 65.3465 5.25069 65.2896 5.23728C64.961 5.14341 64.7029 5.13 64.381 5.21382C64.324 5.22387 64.1564 5.27751 64.1564 5.27751C62.5234 5.84274 58.1669 9.47479 54.0858 13.34C50.3962 9.47415 46.5717 5.93768 45.0545 5.31439C45.0545 5.31439 44.8801 5.25069 44.8232 5.23728C44.4947 5.14341 44.2365 5.13 43.9147 5.21382C43.8577 5.22387 43.69 5.27751 43.69 5.27751C42.0572 5.84267 37.7016 9.47387 33.6209 13.3386C29.9316 9.47332 26.1079 5.93761 24.5908 5.31439C24.5908 5.31439 24.4165 5.25069 24.3595 5.23728C24.031 5.14341 23.7729 5.13 23.451 5.21382C23.394 5.22387 23.2264 5.27751 23.2264 5.27751C19.9913 6.39723 6.06852 19.5523 4.77112 22.7137C4.77112 22.7137 4.70742 22.8879 4.69737 22.9416Z" fill="#151531"/>
<mask id="mask0_2086_45748" style="mask-type:luminance" maskUnits="userSpaceOnUse" x="0" y="0" width="89" height="48">
<path d="M0 0.542969L88.6154 0.542969V47.6199H0L0 0.542969Z" fill="white"/>
<path fillRule="evenodd" clipRule="evenodd" d="M4.69737 22.9416C4.60014 23.2702 4.58674 23.5316 4.67055 23.8568C4.68061 23.9172 4.7309 24.0815 4.7309 24.0815C5.85062 27.3232 19.1196 41.3533 22.2106 42.5569C22.2106 42.5569 22.3883 42.6138 22.452 42.6239C22.7303 42.6876 22.9783 42.7009 23.2733 42.644C23.3437 42.6339 23.5683 42.5669 23.5683 42.5669C25.2243 41.9649 29.5504 38.3551 33.6053 34.5151C37.326 38.413 41.1837 41.9764 42.6743 42.5569C42.6743 42.5569 42.852 42.6138 42.9157 42.6239C43.1939 42.6876 43.442 42.7009 43.737 42.644C43.8073 42.6339 44.032 42.5669 44.032 42.5669C45.6881 41.9648 50.015 38.3543 54.0704 34.5138C57.7914 38.4121 61.6498 41.9763 63.1406 42.5569C63.1406 42.5569 63.3182 42.6138 63.382 42.6239C63.6602 42.6876 63.9083 42.7009 64.2033 42.644C64.2737 42.6339 64.4984 42.5669 64.4984 42.5669C67.7905 41.3701 81.6362 28.2854 82.9235 25.1375C82.9235 25.1375 82.9872 24.9598 83.0006 24.8961C83.0944 24.5742 83.1012 24.3161 83.024 23.9977C83.0139 23.9406 82.9603 23.7697 82.9603 23.7697C81.8339 20.5312 68.6788 6.61179 65.5209 5.31439C65.5209 5.31439 65.3465 5.25069 65.2896 5.23728C64.961 5.14341 64.7029 5.13 64.381 5.21382C64.324 5.22387 64.1564 5.27751 64.1564 5.27751C62.5234 5.84274 58.1669 9.47479 54.0858 13.34C50.3962 9.47415 46.5717 5.93768 45.0545 5.31439C45.0545 5.31439 44.8801 5.25069 44.8232 5.23728C44.4947 5.14341 44.2365 5.13 43.9147 5.21382C43.8577 5.22387 43.69 5.27751 43.69 5.27751C42.0572 5.84267 37.7016 9.47387 33.6209 13.3386C29.9316 9.47332 26.1079 5.93761 24.5908 5.31439C24.5908 5.31439 24.4165 5.25069 24.3595 5.23728C24.031 5.14341 23.7729 5.13 23.451 5.21382C23.394 5.22387 23.2264 5.27751 23.2264 5.27751C19.9913 6.39723 6.06852 19.5523 4.77112 22.7137C4.77112 22.7137 4.70742 22.8879 4.69737 22.9416Z" fill="black"/>
</mask>
<g mask="url(#mask0_2086_45748)">
<path d="M4.67075 23.857L9.22334 23.0982L9.19028 22.8999L9.14009 22.7051L4.67075 23.857ZM4.69758 22.9418L9.12325 24.2514L9.19034 24.0247L9.23387 23.7924L4.69758 22.9418ZM4.7311 24.0817L0.317865 25.4326L0.341851 25.511L0.368603 25.5884L4.7311 24.0817ZM22.2108 42.5571L20.5362 46.8579L20.6672 46.9089L20.8011 46.9518L22.2108 42.5571ZM22.4522 42.6241L23.482 38.1251L23.3281 38.0898L23.172 38.0652L22.4522 42.6241ZM23.2735 42.6442L22.6206 38.0753L22.5089 38.0912L22.3982 38.1126L23.2735 42.6442ZM23.5685 42.5671L24.8887 46.9897L25.0183 46.9509L25.1455 46.9048L23.5685 42.5671ZM33.6055 34.5153L36.9441 31.3286L33.7699 28.0031L30.432 31.1642L33.6055 34.5153ZM42.6745 42.5571L40.9998 46.8579L41.1309 46.9089L41.2648 46.9518L42.6745 42.5571ZM42.9159 42.6241L43.9457 38.1251L43.7917 38.0898L43.6356 38.0652L42.9159 42.6241ZM43.7372 42.6442L43.0843 38.0753L42.9726 38.0912L42.8618 38.1126L43.7372 42.6442ZM44.0322 42.5671L45.3523 46.9897L45.482 46.9509L45.6091 46.9048L44.0322 42.5671ZM54.0706 34.514L57.4093 31.3273L54.235 28.0017L50.897 31.1629L54.0706 34.514ZM63.1409 42.5571L61.4662 46.8579L61.5972 46.9089L61.7311 46.9518L63.1409 42.5571ZM63.3823 42.6241L64.4121 38.1251L64.2581 38.0898L64.102 38.0652L63.3823 42.6241ZM64.2035 42.6442L63.5507 38.0753L63.4389 38.0912L63.3282 38.1126L64.2035 42.6442ZM64.4986 42.5671L65.8187 46.9897L65.9483 46.9509L66.0755 46.9048L64.4986 42.5671ZM82.9237 25.1377L87.1956 26.8847L87.2341 26.7907L87.2684 26.6951L82.9237 25.1377ZM83.0008 24.8963L78.57 23.6039L78.5207 23.7731L78.4844 23.9455L83.0008 24.8963ZM83.0242 23.9979L78.4791 24.7998L78.5043 24.9428L78.5385 25.0839L83.0242 23.9979ZM82.9605 23.7699L87.3643 22.3882L87.343 22.3205L87.3198 22.2536L82.9605 23.7699ZM65.5211 5.3146L67.275 1.04545L67.1907 1.0108L67.105 0.979521L65.5211 5.3146ZM65.2898 5.23749L64.0219 9.67531L64.1265 9.70522L64.2326 9.73014L65.2898 5.23749ZM64.3812 5.21403L65.1833 9.75922L65.3654 9.72701L65.5444 9.68048L64.3812 5.21403ZM64.1566 5.27772L62.7499 0.881925L62.6983 0.898454L62.647 0.916191L64.1566 5.27772ZM54.086 13.3402L50.7473 16.5268L53.9216 19.8528L57.2598 16.6912L54.086 13.3402ZM45.0547 5.3146L46.8086 1.04545L46.7243 1.01081L46.6387 0.97953L45.0547 5.3146ZM44.8234 5.23749L43.5555 9.67531L43.6602 9.70522L43.7663 9.73014L44.8234 5.23749ZM43.9149 5.21403L44.717 9.75922L44.8991 9.72701L45.078 9.68048L43.9149 5.21403ZM43.6902 5.27772L42.2837 0.881916L42.232 0.898448L42.1806 0.916191L43.6902 5.27772ZM33.6211 13.3388L30.2824 16.5255L33.4567 19.8513L36.7948 16.6899L33.6211 13.3388ZM24.591 5.3146L26.345 1.04545L26.2607 1.01081L26.175 0.97953L24.591 5.3146ZM24.3597 5.23749L23.0918 9.67531L23.1965 9.70522L23.3026 9.73014L24.3597 5.23749ZM23.4512 5.21403L24.2533 9.75922L24.4354 9.72701L24.6144 9.68048L23.4512 5.21403ZM23.2266 5.27772L21.8199 0.881916L21.7683 0.898449L21.717 0.916191L23.2266 5.27772ZM4.77133 22.7139L0.50152 20.9616L0.46724 21.045L0.436253 21.1299L4.77133 22.7139ZM9.14009 22.7051C9.19241 22.9082 9.24107 23.2048 9.22897 23.5584C9.21731 23.8992 9.15386 24.1481 9.12325 24.2514L0.271894 21.6322C-0.0318103 22.6585 -0.116404 23.7758 0.20142 25.0089L9.14009 22.7051ZM4.7311 24.0817C9.14434 22.7307 9.14436 22.7308 9.14439 22.7309C9.14447 22.7311 9.14472 22.732 9.1448 22.7321C9.14494 22.7326 9.14507 22.7331 9.1452 22.7335C9.14545 22.7344 9.14567 22.735 9.14584 22.7357C9.1462 22.7368 9.14642 22.7375 9.14653 22.7379C9.14675 22.7386 9.14657 22.7381 9.14615 22.7366C9.14573 22.7352 9.14532 22.7339 9.1448 22.7321C9.14426 22.7303 9.1439 22.7289 9.14395 22.7291C9.14399 22.7292 9.14405 22.7297 9.14439 22.7309C9.14473 22.7321 9.14576 22.735 9.14653 22.7379C9.14789 22.7428 9.15071 22.7537 9.15501 22.7705C9.15889 22.7857 9.1668 22.8171 9.17646 22.8594C9.18423 22.8936 9.20387 22.9814 9.22334 23.0982L0.118165 24.6158C0.155438 24.8394 0.203261 25.0234 0.213849 25.0647C0.233682 25.1419 0.252717 25.2101 0.265451 25.2548C0.279094 25.3028 0.291393 25.3445 0.30001 25.3734C0.304465 25.3884 0.308304 25.4011 0.311299 25.411C0.312805 25.416 0.31412 25.4203 0.315219 25.4239C0.315768 25.4258 0.316265 25.4274 0.316707 25.4288C0.316927 25.4296 0.317135 25.4302 0.317328 25.4309C0.317425 25.4312 0.317776 25.4323 0.317865 25.4326C0.317896 25.4327 0.317865 25.4326 4.7311 24.0817ZM23.8854 38.2562C24.1549 38.361 24.0526 38.3665 23.4212 37.8838C22.8985 37.4843 22.2255 36.9164 21.4303 36.1965C19.8461 34.7627 17.9497 32.8835 16.0847 30.912C14.2199 28.9408 12.4426 26.9362 11.0867 25.262C10.4062 24.4218 9.86748 23.7086 9.48689 23.152C9.03645 22.4932 9.017 22.353 9.09359 22.5749L0.368603 25.5884C0.725132 26.6207 1.36528 27.6281 1.86688 28.3618C2.43834 29.1977 3.14412 30.1218 3.91339 31.0717C5.45689 32.9774 7.39997 35.1635 9.3788 37.2554C11.3574 39.3471 13.4278 41.4037 15.2358 43.0402C16.1366 43.8557 17.0163 44.6067 17.8153 45.2174C18.5055 45.745 19.4941 46.4521 20.5362 46.8579L23.8854 38.2562ZM23.172 38.0652C23.3127 38.0873 23.4184 38.1113 23.4586 38.1205C23.5091 38.1321 23.5466 38.1418 23.5648 38.1466C23.5851 38.152 23.5994 38.156 23.6058 38.1578C23.6128 38.1598 23.6169 38.161 23.6175 38.1612C23.6183 38.1614 23.616 38.1607 23.6125 38.1596C23.6114 38.1593 23.6115 38.1593 23.6125 38.1596C23.613 38.1597 23.6135 38.16 23.6149 38.1604C23.6155 38.1606 23.6166 38.1608 23.6175 38.1612C23.618 38.1613 23.6182 38.1615 23.6187 38.1617C23.6189 38.1617 23.6199 38.162 23.62 38.162C23.6202 38.162 23.6205 38.1622 22.2108 42.5571C20.8011 46.9518 20.801 46.9518 20.8011 46.9518C20.8013 46.9519 20.802 46.9521 20.8021 46.9522C20.8024 46.9523 20.8028 46.9524 20.8031 46.9525C20.8038 46.9528 20.8046 46.9529 20.8054 46.9532C20.807 46.9538 20.8088 46.9543 20.8108 46.955C20.8148 46.9563 20.8196 46.9577 20.8251 46.9595C20.8361 46.963 20.8502 46.9674 20.8667 46.9725C20.8984 46.9825 20.9446 46.9967 20.9977 47.0124C21.047 47.027 21.1233 47.0491 21.2103 47.0721C21.2529 47.0833 21.4688 47.1413 21.7324 47.183L23.172 38.0652ZM22.3982 38.1126C22.5652 38.0803 22.7718 38.0591 23.0012 38.0663C23.2248 38.0733 23.3945 38.1051 23.482 38.1251L21.4223 47.1231C22.2363 47.3094 23.1386 47.371 24.149 47.1758L22.3982 38.1126ZM23.5685 42.5671C22.2484 38.1446 22.2485 38.1445 22.2486 38.1445C22.2484 38.1446 22.2487 38.1445 22.2486 38.1445C22.2488 38.1444 22.2496 38.1442 22.2498 38.1441C22.2502 38.144 22.2507 38.1438 22.2509 38.1437C22.2516 38.1436 22.2521 38.1435 22.2524 38.1434C22.253 38.1433 22.2531 38.1432 22.2524 38.1434C22.2512 38.1437 22.2482 38.1446 22.2436 38.1459C22.2337 38.1488 22.2225 38.152 22.2136 38.1545C22.2009 38.158 22.2101 38.1553 22.2352 38.149C22.248 38.1459 22.2809 38.1377 22.3273 38.1277C22.3595 38.1207 22.4708 38.0967 22.6206 38.0753L23.9264 47.2132C24.2006 47.174 24.4311 47.1149 24.4635 47.1068C24.5505 47.0851 24.6291 47.0638 24.6813 47.0493C24.7373 47.0337 24.7868 47.0195 24.8211 47.0095C24.8387 47.0045 24.8536 47 24.8651 46.9967C24.8708 46.9949 24.8757 46.9936 24.8797 46.9924C24.8816 46.9917 24.8834 46.9913 24.8849 46.9908C24.8857 46.9905 24.8863 46.9903 24.887 46.9902C24.8873 46.9901 24.8884 46.9898 24.8887 46.9897C24.8885 46.9897 24.8889 46.9897 24.8887 46.9897C24.8888 46.9897 24.8887 46.9897 23.5685 42.5671ZM30.432 31.1642C28.4651 33.0268 26.4597 34.8072 24.7783 36.1723C23.9348 36.8572 23.2147 37.4033 22.6483 37.7933C21.9891 38.247 21.8163 38.2932 21.9916 38.2294L25.1455 46.9048C26.1487 46.5401 27.1378 45.9092 27.8822 45.3968C28.7193 44.8205 29.6446 44.1114 30.5966 43.3385C32.506 41.7883 34.6911 39.8439 36.7791 37.8665L30.432 31.1642ZM44.3491 38.2562C44.6172 38.3606 44.5302 38.3728 43.938 37.9242C43.4478 37.5532 42.814 37.0231 42.0595 36.3459C40.5569 34.9968 38.7496 33.22 36.9441 31.3286L30.2669 37.7021C32.1821 39.7085 34.1639 41.6623 35.893 43.2147C36.7544 43.988 37.5969 44.7013 38.3656 45.2834C39.0322 45.788 39.9864 46.4633 40.9998 46.8579L44.3491 38.2562ZM43.6356 38.0652C43.7764 38.0873 43.8821 38.1113 43.9222 38.1205C43.9727 38.1321 44.0102 38.1418 44.0285 38.1466C44.0488 38.152 44.063 38.156 44.0694 38.1578C44.0765 38.1598 44.0806 38.161 44.0813 38.1612C44.082 38.1614 44.0797 38.1607 44.0762 38.1596C44.075 38.1593 44.0752 38.1593 44.0762 38.1596C44.0766 38.1597 44.0771 38.16 44.0785 38.1604C44.0792 38.1606 44.0803 38.1609 44.0813 38.1612C44.0817 38.1613 44.0819 38.1615 44.0825 38.1617C44.0826 38.1617 44.0836 38.162 44.0837 38.162C44.0838 38.1621 44.0842 38.1622 42.6745 42.5571C41.2648 46.9518 41.2646 46.9518 41.2648 46.9518C41.2649 46.9518 41.2656 46.9521 41.2657 46.9522L41.2668 46.9525C41.2674 46.9528 41.2682 46.9529 41.269 46.9532C41.2707 46.9538 41.2724 46.9543 41.2745 46.955C41.2785 46.9563 41.2833 46.9577 41.2888 46.9595C41.2997 46.963 41.3138 46.9674 41.3303 46.9725C41.3621 46.9825 41.4082 46.9966 41.4613 47.0124C41.5106 47.027 41.5869 47.0491 41.674 47.0721C41.7166 47.0833 41.9324 47.1413 42.1961 47.183L43.6356 38.0652ZM42.8618 38.1126C43.0289 38.0803 43.2355 38.0591 43.4649 38.0663C43.6884 38.0733 43.8581 38.1051 43.9457 38.1251L41.886 47.1231C42.6999 47.3094 43.6022 47.371 44.6126 47.1758L42.8618 38.1126ZM44.0322 42.5671C42.7121 38.1446 42.7121 38.1445 42.7122 38.1445C42.7125 38.1444 42.7133 38.1442 42.7134 38.1441C42.7139 38.144 42.7143 38.1438 42.7146 38.1437C42.7153 38.1436 42.7157 38.1435 42.716 38.1434C42.7166 38.1433 42.7167 38.1432 42.716 38.1434C42.7148 38.1437 42.7119 38.1446 42.7073 38.1459C42.6973 38.1488 42.6862 38.152 42.6773 38.1545C42.6646 38.158 42.6737 38.1553 42.6989 38.149C42.7116 38.1459 42.7445 38.1377 42.7909 38.1277C42.8232 38.1207 42.9345 38.0967 43.0843 38.0753L44.3901 47.2132C44.6643 47.174 44.8948 47.1149 44.9271 47.1068C45.0141 47.0851 45.0927 47.0638 45.1449 47.0493C45.2009 47.0337 45.2504 47.0195 45.2847 47.0095C45.3024 47.0045 45.3173 47 45.3287 46.9967C45.3344 46.9949 45.3393 46.9936 45.3433 46.9924C45.3453 46.9917 45.3471 46.9913 45.3485 46.9908C45.3493 46.9905 45.35 46.9903 45.3507 46.9902C45.3509 46.9901 45.352 46.9898 45.3523 46.9897C45.3522 46.9897 45.3524 46.9897 45.3523 46.9897C45.3524 46.9897 45.3523 46.9897 44.0322 42.5671ZM50.897 31.1629C48.9299 33.0257 46.9241 34.8065 45.2425 36.1719C44.3989 36.8568 43.6786 37.4032 43.1121 37.7931C42.4528 38.2469 42.2801 38.2932 42.4552 38.2294L45.6091 46.9048C46.6124 46.54 47.6016 45.909 48.3461 45.3966C49.1834 44.8203 50.1089 44.1111 51.0609 43.338C52.9706 41.7875 55.156 39.8428 57.2442 37.8651L50.897 31.1629ZM50.7319 37.7007C52.6474 39.7074 54.6294 41.6616 56.3587 43.2141C57.2202 43.9876 58.0629 44.701 58.8318 45.2831C59.4983 45.7879 60.4527 46.4633 61.4662 46.8579L64.8154 38.2562C65.0836 38.3606 64.9966 38.3728 64.4042 37.9241C63.914 37.5529 63.2799 37.0228 62.5254 36.3454C61.0225 34.9961 59.2148 33.2189 57.4093 31.3273L50.7319 37.7007ZM63.1409 42.5571C61.7311 46.9518 61.7311 46.9518 61.7311 46.9518C61.7311 46.9518 61.7312 46.9518 61.7311 46.9518C61.7313 46.9518 61.7319 46.9521 61.7321 46.9522C61.7324 46.9523 61.7327 46.9524 61.7331 46.9525C61.7338 46.9528 61.7346 46.9529 61.7354 46.9532C61.737 46.9538 61.7388 46.9543 61.7408 46.955C61.7448 46.9563 61.7496 46.9577 61.7551 46.9595C61.7661 46.963 61.7802 46.9674 61.7967 46.9725C61.8284 46.9825 61.8746 46.9966 61.9277 47.0124C61.977 47.027 62.0533 47.0491 62.1404 47.0721C62.183 47.0833 62.3988 47.1413 62.6624 47.183L64.102 38.0652C64.2427 38.0873 64.3484 38.1113 64.3886 38.1205C64.4391 38.1321 64.4766 38.1418 64.4949 38.1466C64.5152 38.152 64.5294 38.156 64.5358 38.1578C64.5428 38.1598 64.5469 38.161 64.5476 38.1612C64.5483 38.1614 64.5461 38.1607 64.5426 38.1596C64.5414 38.1593 64.5416 38.1593 64.5426 38.1596C64.5431 38.1597 64.5435 38.16 64.5449 38.1604C64.5455 38.1606 64.5467 38.1609 64.5476 38.1612C64.5482 38.1613 64.5483 38.1615 64.5488 38.1617C64.5489 38.1617 64.5499 38.162 64.55 38.162C64.5501 38.1621 64.5505 38.1622 63.1409 42.5571ZM62.3523 47.1231C63.1663 47.3094 64.0686 47.371 65.079 47.1758L63.3282 38.1126C63.4952 38.0803 63.7018 38.0591 63.9312 38.0663C64.1548 38.0733 64.3245 38.1051 64.4121 38.1251L62.3523 47.1231ZM64.8564 47.2132C65.1307 47.174 65.3611 47.1149 65.3935 47.1068C65.4805 47.0851 65.5591 47.0638 65.6113 47.0493C65.6673 47.0337 65.7168 47.0195 65.7511 47.0095C65.7688 47.0045 65.7837 47 65.7951 46.9967C65.8008 46.9949 65.8057 46.9936 65.8097 46.9924C65.8116 46.9917 65.8134 46.9913 65.8149 46.9908C65.8157 46.9905 65.8163 46.9903 65.817 46.9902C65.8173 46.9901 65.8184 46.9898 65.8187 46.9897C65.8185 46.9897 65.8189 46.9897 65.8187 46.9897C65.8188 46.9897 65.8187 46.9897 64.4986 42.5671C63.1784 38.1446 63.1785 38.1445 63.1786 38.1445C63.1785 38.1446 63.1787 38.1445 63.1786 38.1445C63.1788 38.1444 63.1796 38.1442 63.1798 38.1441C63.1803 38.144 63.1807 38.1438 63.1809 38.1437C63.1816 38.1436 63.1821 38.1435 63.1824 38.1434C63.183 38.1433 63.1831 38.1432 63.1824 38.1434C63.1812 38.1437 63.1782 38.1446 63.1737 38.1459C63.1637 38.1488 63.1526 38.152 63.1436 38.1545C63.1309 38.158 63.1401 38.1553 63.1652 38.149C63.178 38.1459 63.2109 38.1377 63.2573 38.1277C63.2895 38.1207 63.4009 38.0967 63.5507 38.0753L64.8564 47.2132ZM66.0755 46.9048C67.0739 46.5417 68.057 45.9158 68.7968 45.4073C69.6286 44.8357 70.5473 44.1327 71.4921 43.3665C73.3874 41.8298 75.5568 39.9017 77.6339 37.9376C79.7108 35.9739 81.753 33.9197 83.3839 32.1209C84.1967 31.2244 84.9455 30.3494 85.5571 29.5535C86.0939 28.8548 86.7841 27.8911 87.1956 26.8847L78.6517 23.3907C78.7414 23.1713 78.7173 23.305 78.2377 23.9291C77.8328 24.456 77.263 25.1291 76.5453 25.9206C75.1152 27.498 73.2489 29.38 71.2919 31.2305C69.3352 33.0807 67.3454 34.8449 65.6785 36.1965C64.8423 36.8745 64.1291 37.4147 63.5684 37.8C62.916 38.2484 62.7463 38.2932 62.9216 38.2294L66.0755 46.9048ZM82.9237 25.1377C87.2684 26.6951 87.2683 26.6952 87.2684 26.6951C87.2685 26.6948 87.2689 26.6937 87.269 26.6933C87.2692 26.6927 87.2695 26.6921 87.2697 26.6913C87.2702 26.6898 87.2709 26.6882 87.2715 26.6863C87.2728 26.6826 87.2744 26.6782 87.2762 26.6731C87.2798 26.6629 87.2845 26.6497 87.29 26.6341C87.3005 26.604 87.3155 26.5606 87.3322 26.5108C87.3478 26.4643 87.3712 26.3939 87.3956 26.3143C87.4079 26.274 87.4678 26.0813 87.5172 25.8471L78.4844 23.9455C78.5441 23.6621 78.6221 23.4522 78.5822 23.5709C78.5813 23.5735 78.5796 23.5785 78.5778 23.5837C78.577 23.5858 78.5766 23.587 78.5767 23.5867C78.5768 23.5865 78.5769 23.586 78.5773 23.585C78.5775 23.5844 78.5775 23.5844 78.5778 23.5837C78.5779 23.5832 78.5783 23.5822 78.5785 23.5817C78.5785 23.582 78.5786 23.5815 78.5785 23.5817C78.5786 23.5817 78.5788 23.5807 78.5789 23.5806C78.5789 23.5805 78.5791 23.5803 82.9237 25.1377ZM87.4316 26.1887C87.7461 25.1106 87.7814 24.0324 87.51 22.9118L78.5385 25.0839C78.4997 24.9235 78.4542 24.6575 78.4628 24.3255C78.4714 23.9961 78.5297 23.7424 78.57 23.6039L87.4316 26.1887ZM87.5695 23.1958C87.5289 22.966 87.4766 22.7752 87.4681 22.7435C87.4483 22.6693 87.4292 22.6033 87.4164 22.5601C87.4028 22.5137 87.3905 22.473 87.3818 22.4449C87.3774 22.4304 87.3736 22.418 87.3706 22.4085C87.3692 22.4037 87.3679 22.3996 87.3668 22.3962C87.3663 22.3945 87.3657 22.393 87.3654 22.3916C87.3652 22.391 87.365 22.3903 87.3648 22.3898C87.3647 22.3897 87.3643 22.3883 87.3643 22.3882C87.3643 22.3881 87.3643 22.3882 82.9605 23.7699C78.5568 25.1515 78.5568 25.1514 78.5568 25.1513C78.5568 25.1513 78.5568 25.1515 78.5568 25.1513C78.5567 25.1512 78.5564 25.1504 78.5564 25.1502C78.5563 25.1498 78.5562 25.1494 78.5561 25.149C78.5559 25.1484 78.5557 25.1478 78.5555 25.1474C78.5553 25.1465 78.5552 25.1462 78.5552 25.1462C78.5552 25.1463 78.5557 25.1478 78.5564 25.1502C78.5582 25.156 78.5598 25.1614 78.5608 25.1648C78.5973 25.2888 78.528 25.0773 78.4791 24.7998L87.5695 23.1958ZM87.3198 22.2536C86.9634 21.2289 86.3282 20.2282 85.8278 19.496C85.259 18.6638 84.5572 17.7441 83.7922 16.799C82.2575 14.9026 80.3262 12.7278 78.3572 10.6443C76.3882 8.56075 74.3266 6.51022 72.5214 4.87215C71.6216 4.05572 70.7437 3.3037 69.9458 2.6896C69.2449 2.15023 68.2804 1.45851 67.275 1.04545L63.7672 9.58374C63.5513 9.49504 63.6887 9.52208 64.3161 10.0049C64.8463 10.413 65.5232 10.9866 66.3185 11.7082C67.9031 13.1461 69.7928 15.021 71.6481 16.9843C73.5035 18.9476 75.2695 20.941 76.6168 22.606C77.2929 23.4413 77.8283 24.1506 78.2069 24.7046C78.6538 25.3585 78.6762 25.5012 78.6013 25.2861L87.3198 22.2536ZM65.5211 5.3146C67.105 0.979521 67.1051 0.979558 67.105 0.979521C67.1048 0.979438 67.1039 0.979096 67.1036 0.979004C67.1031 0.97881 67.1025 0.978607 67.1019 0.978386C67.1007 0.977933 67.0993 0.977426 67.0977 0.976844C67.0945 0.97569 67.0906 0.974269 67.0861 0.972616C67.077 0.96934 67.0652 0.965047 67.0511 0.960026C67.024 0.950278 66.9847 0.936339 66.9403 0.920882C66.8987 0.906464 66.8363 0.885091 66.7669 0.862698C66.7378 0.853316 66.56 0.794955 66.3469 0.74481L64.2326 9.73014C63.9807 9.67088 63.792 9.59916 63.9133 9.64125C63.9195 9.64337 63.9275 9.64624 63.9348 9.64882C63.938 9.65002 63.9402 9.65076 63.9409 9.65104C63.9413 9.65113 63.9415 9.65122 63.9409 9.65104C63.9406 9.65085 63.9398 9.65067 63.9392 9.65048C63.939 9.6503 63.9387 9.65021 63.9383 9.65011L63.9373 9.64974C63.9372 9.64974 63.9371 9.64965 65.5211 5.3146ZM66.5576 0.79968C65.5619 0.51519 64.4563 0.42517 63.2181 0.747603L65.5444 9.68048C65.3361 9.73467 65.0384 9.78331 64.6872 9.77224C64.3518 9.76162 64.1105 9.70061 64.0219 9.67531L66.5576 0.79968ZM63.5792 0.668859C63.3421 0.710703 63.1463 0.764986 63.1127 0.774102C63.0363 0.794861 62.9686 0.814749 62.9248 0.827871C62.8775 0.842006 62.8363 0.854754 62.8078 0.863649C62.7931 0.86825 62.7805 0.872205 62.7708 0.875273C62.766 0.876817 62.7618 0.878158 62.7583 0.879271C62.7565 0.879828 62.7549 0.880329 62.7536 0.880773C62.7529 0.880994 62.7522 0.881201 62.7516 0.881393C62.7513 0.881489 62.7519 0.881304 62.7516 0.881393C62.7514 0.881438 62.7501 0.881883 62.7499 0.881925C62.7499 0.881946 62.7499 0.881915 62.7499 0.881925C62.7499 0.881956 62.7499 0.881925 64.1566 5.27772C65.5633 9.67356 65.5632 9.67356 65.5631 9.67356C65.563 9.67356 65.5632 9.67356 65.5631 9.67356C65.5629 9.67365 65.5621 9.67393 65.5619 9.67393C65.5615 9.67411 65.5611 9.6742 65.5607 9.67439C65.5599 9.67457 65.5593 9.67476 65.5588 9.67494C65.5635 9.67347 65.5686 9.67199 65.5703 9.67144C65.6936 9.63451 65.4726 9.70817 65.1833 9.75922L63.5792 0.668859ZM62.647 0.916191C61.612 1.27444 60.5999 1.91807 59.8612 2.42373C59.02 2.99949 58.0895 3.71072 57.133 4.48605C55.2139 6.04164 53.0137 7.99898 50.9123 9.98925L57.2598 16.6912C59.2395 14.8162 61.258 13.0249 62.9456 11.6569C63.7926 10.9704 64.5125 10.4261 65.0749 10.041C65.7399 9.58596 65.8847 9.56362 65.6662 9.63922L62.647 0.916191ZM43.3008 9.58374C43.0852 9.49513 43.205 9.5135 43.7901 9.95934C44.2847 10.3361 44.9189 10.8682 45.6694 11.5432C47.1648 12.8881 48.9572 14.6513 50.7473 16.5268L57.4248 10.1536C55.5252 8.16334 53.5605 6.22537 51.842 4.67979C50.9855 3.90945 50.1485 3.19895 49.384 2.61653C48.71 2.10313 47.7829 1.44569 46.8086 1.04545L43.3008 9.58374ZM43.7663 9.73014C43.5143 9.67088 43.3256 9.59916 43.447 9.64125C43.4531 9.64337 43.4611 9.64624 43.4684 9.64882C43.4717 9.65002 43.4738 9.65076 43.4745 9.65104C43.4748 9.65113 43.4751 9.65122 43.4745 9.65104C43.4742 9.65085 43.4734 9.65067 43.4729 9.65039C43.4726 9.6503 43.4723 9.65021 43.4719 9.65011L43.4709 9.64974C43.4708 9.64965 43.4707 9.64965 45.0547 5.3146C46.6387 0.97953 46.6388 0.979558 46.6387 0.97953C46.6385 0.979447 46.6375 0.979106 46.6373 0.979013C46.6368 0.97882 46.6362 0.978616 46.6356 0.978395C46.6344 0.977943 46.6329 0.977435 46.6313 0.976853C46.6282 0.9757 46.6242 0.974278 46.6197 0.972626C46.6107 0.969349 46.5988 0.965056 46.5847 0.960026C46.5576 0.950287 46.5185 0.936349 46.4739 0.920886C46.4323 0.906467 46.3699 0.885091 46.3005 0.862695C46.2714 0.853311 46.0937 0.794944 45.8805 0.744795L43.7663 9.73014ZM45.078 9.68048C44.8697 9.73467 44.5721 9.78331 44.2208 9.77224C43.8854 9.76162 43.6441 9.70061 43.5555 9.67531L46.0913 0.799687C45.0956 0.515187 43.9899 0.425172 42.7517 0.747603L45.078 9.68048ZM43.6902 5.27772C45.0969 9.67356 45.0968 9.67356 45.0967 9.67356C45.0966 9.67356 45.0968 9.67356 45.0967 9.67356C45.0965 9.67365 45.0957 9.67393 45.0955 9.67402C45.0951 9.67411 45.0947 9.6742 45.0943 9.67439C45.0935 9.67457 45.0929 9.67485 45.0924 9.67494C45.0971 9.67347 45.1022 9.67199 45.1039 9.67144C45.2272 9.63451 45.0062 9.70817 44.717 9.75922L43.1128 0.668868C42.8757 0.710711 42.6799 0.76499 42.6463 0.774104C42.5699 0.794861 42.5023 0.814747 42.4585 0.827868C42.4112 0.842001 42.37 0.854749 42.3415 0.863643C42.3268 0.868242 42.3142 0.872198 42.3045 0.875266C42.2996 0.876808 42.2954 0.878151 42.292 0.879263C42.2902 0.87982 42.2886 0.880322 42.2873 0.880764C42.2865 0.880985 42.2859 0.881192 42.2853 0.881385C42.2849 0.881481 42.2839 0.881827 42.2837 0.881916C42.2836 0.881946 42.2837 0.881916 43.6902 5.27772ZM36.7948 16.6899C38.7743 14.8151 40.7924 13.0241 42.4799 11.6564C43.3266 10.97 44.0464 10.4259 44.6088 10.0409C45.2735 9.58596 45.4184 9.56362 45.1998 9.63922L42.1806 0.916191C41.1457 1.27441 40.1338 1.91794 39.3951 2.42353C38.554 2.9992 37.6237 3.71031 36.6674 4.48551C34.7486 6.04083 32.5486 7.99784 30.4474 9.98777L36.7948 16.6899ZM22.8372 9.58374C22.6215 9.49513 22.7413 9.5135 23.3263 9.95916C23.8208 10.3359 24.4549 10.8678 25.2052 11.5427C26.7003 12.8873 28.4925 14.6502 30.2824 16.5255L36.9598 10.1522C35.0605 8.16221 33.0961 6.22456 31.3778 4.67924C30.5213 3.90903 29.6845 3.19865 28.9201 2.61633C28.2462 2.10299 27.3191 1.44566 26.345 1.04545L22.8372 9.58374ZM23.3026 9.73014C23.0507 9.67088 22.862 9.59916 22.9833 9.64125C22.9895 9.64337 22.9974 9.64624 23.0047 9.64882C23.0079 9.65002 23.0102 9.65076 23.0109 9.65104C23.0112 9.65113 23.0115 9.65122 23.0109 9.65104C23.0106 9.65085 23.0098 9.65067 23.0092 9.65039C23.0089 9.6503 23.0086 9.65021 23.0082 9.65011L23.0072 9.64974C23.0072 9.64965 23.0071 9.64965 24.591 5.3146C26.175 0.97953 26.1751 0.979558 26.175 0.97953C26.1747 0.979447 26.1739 0.979106 26.1736 0.979013C26.1731 0.97882 26.1725 0.978616 26.1719 0.978395C26.1707 0.977943 26.1693 0.977435 26.1677 0.976853C26.1645 0.9757 26.1606 0.974278 26.1561 0.972626C26.147 0.969349 26.1351 0.965056 26.1211 0.960026C26.094 0.950287 26.0547 0.936349 26.0103 0.920886C25.9687 0.906467 25.9063 0.885091 25.8369 0.862695C25.8078 0.853311 25.6299 0.794944 25.4168 0.744795L23.3026 9.73014ZM24.6144 9.68048C24.406 9.73467 24.1084 9.78331 23.7571 9.77224C23.4217 9.76162 23.1804 9.70061 23.0918 9.67531L25.6277 0.799687C24.6319 0.515187 23.5263 0.425172 22.2881 0.747603L24.6144 9.68048ZM23.2266 5.27772C24.6333 9.67356 24.6332 9.67356 24.6331 9.67356C24.6329 9.67356 24.6332 9.67356 24.6331 9.67356C24.6328 9.67365 24.6321 9.67393 24.6318 9.67402C24.6315 9.67411 24.631 9.6742 24.6306 9.67439C24.6299 9.67457 24.6292 9.67485 24.6288 9.67494C24.6336 9.67347 24.6386 9.67199 24.6403 9.67144C24.7635 9.63451 24.5426 9.70817 24.2533 9.75922L22.6491 0.668868C22.412 0.710711 22.2162 0.76499 22.1827 0.774104C22.1063 0.794861 22.0386 0.814747 21.9948 0.827868C21.9475 0.842001 21.9063 0.854749 21.8778 0.863643C21.8631 0.868242 21.8506 0.872198 21.8409 0.875266C21.836 0.876808 21.8318 0.878151 21.8283 0.879263C21.8265 0.87982 21.8249 0.880322 21.8235 0.880764C21.8229 0.880984 21.8223 0.881191 21.8216 0.881385C21.8213 0.881481 21.8219 0.881296 21.8216 0.881385C21.8214 0.881429 21.8201 0.881874 21.8199 0.881916C21.8199 0.881905 21.8199 0.881938 21.8199 0.881916C21.8199 0.881946 21.8199 0.881916 23.2266 5.27772ZM9.04114 24.4661C8.95248 24.6821 8.97947 24.5447 9.46224 23.9172C9.87024 23.3868 10.4438 22.7099 11.1654 21.9146C12.6035 20.3297 14.4786 18.44 16.442 16.585C18.4054 14.73 20.3987 12.9647 22.0632 11.6184C22.8984 10.9428 23.6072 10.4081 24.1604 10.0304C24.8144 9.58393 24.9547 9.56362 24.7362 9.63922L21.717 0.916191C20.6896 1.27177 19.6873 1.90745 18.9555 2.40705C18.1231 2.97542 17.2033 3.67693 16.258 4.44148C14.3616 5.97543 12.1865 7.90648 10.1027 9.87534C8.01877 11.8442 5.96778 13.9061 4.32928 15.7119C3.51264 16.6119 2.76038 17.4901 2.14605 18.2886C1.60644 18.99 0.914523 19.9552 0.50152 20.9616L9.04114 24.4661ZM9.23387 23.7924C9.20152 23.9651 9.1664 24.0943 9.15591 24.1327C9.14087 24.1878 9.12845 24.2285 9.12275 24.247C9.11627 24.268 9.11149 24.2825 9.10944 24.2888C9.10715 24.2957 9.10584 24.2996 9.10572 24.2999C9.10571 24.3 9.10678 24.2969 9.10833 24.2925C9.10811 24.2931 9.10775 24.2941 9.10745 24.2949C9.10729 24.2954 9.10714 24.2958 9.10696 24.2963C9.10688 24.2965 9.10705 24.296 9.10696 24.2963C9.10692 24.2964 9.1066 24.2973 9.10655 24.2974C9.10653 24.2975 9.10655 24.2974 9.10655 24.2974C9.10651 24.2975 9.10641 24.2978 4.77133 22.7139C0.436253 21.1299 0.43629 21.1298 0.436253 21.1299C0.436145 21.1302 0.435719 21.1313 0.435602 21.1317C0.435366 21.1323 0.435113 21.133 0.434844 21.1337C0.434304 21.1352 0.433693 21.1369 0.433015 21.1387C0.431664 21.1425 0.430037 21.1469 0.428169 21.1521C0.424455 21.1625 0.419671 21.1757 0.414112 21.1913C0.403404 21.2213 0.387911 21.2652 0.37072 21.3155C0.354985 21.3616 0.330068 21.4356 0.303935 21.5201C0.297394 21.5413 0.217805 21.7896 0.161237 22.0913L9.23387 23.7924Z" fill="white"/>
</g>
<path fillRule="evenodd" clipRule="evenodd" d="M4.69737 22.9416C4.60014 23.2702 4.58674 23.5316 4.67055 23.8568C4.68061 23.9172 4.7309 24.0815 4.7309 24.0815C5.85062 27.3232 19.1196 41.3533 22.2106 42.5569C22.2106 42.5569 22.3883 42.6138 22.452 42.6239C22.7303 42.6876 22.9783 42.7009 23.2733 42.644C23.3437 42.6339 23.5683 42.5669 23.5683 42.5669C25.2243 41.9649 29.5504 38.3551 33.6053 34.5151C37.326 38.413 41.1837 41.9764 42.6743 42.5569C42.6743 42.5569 42.852 42.6138 42.9157 42.6239C43.1939 42.6876 43.442 42.7009 43.737 42.644C43.8073 42.6339 44.032 42.5669 44.032 42.5669C45.6881 41.9648 50.015 38.3543 54.0704 34.5138C57.7914 38.4121 61.6498 41.9763 63.1406 42.5569C63.1406 42.5569 63.3182 42.6138 63.382 42.6239C63.6602 42.6876 63.9083 42.7009 64.2033 42.644C64.2737 42.6339 64.4984 42.5669 64.4984 42.5669C67.7905 41.3701 81.6362 28.2854 82.9235 25.1375C82.9235 25.1375 82.9872 24.9598 83.0006 24.8961C83.0944 24.5742 83.1012 24.3161 83.024 23.9977C83.0139 23.9406 82.9603 23.7697 82.9603 23.7697C81.8339 20.5312 68.6788 6.61179 65.5209 5.31439C65.5209 5.31439 65.3465 5.25069 65.2896 5.23728C64.961 5.14341 64.7029 5.13 64.381 5.21382C64.324 5.22387 64.1564 5.27751 64.1564 5.27751C62.5234 5.84274 58.1669 9.47479 54.0858 13.34C50.3962 9.47415 46.5717 5.93768 45.0545 5.31439C45.0545 5.31439 44.8801 5.25069 44.8232 5.23728C44.4947 5.14341 44.2365 5.13 43.9147 5.21382C43.8577 5.22387 43.69 5.27751 43.69 5.27751C42.0572 5.84267 37.7016 9.47387 33.6209 13.3386C29.9316 9.47332 26.1079 5.93761 24.5908 5.31439C24.5908 5.31439 24.4165 5.25069 24.3595 5.23728C24.031 5.14341 23.7729 5.13 23.451 5.21382C23.394 5.22387 23.2264 5.27751 23.2264 5.27751C19.9913 6.39723 6.06852 19.5523 4.77112 22.7137C4.77112 22.7137 4.70742 22.8879 4.69737 22.9416Z" fill="url(#paint0_linear_2086_45748)"/>
<mask id="mask1_2086_45748" style="mask-type:luminance" maskUnits="userSpaceOnUse" x="2" y="3" width="84" height="42">
<path d="M2.76953 3.31152L85.8465 3.31152V44.85H2.76953V3.31152Z" fill="white"/>
<path fillRule="evenodd" clipRule="evenodd" d="M4.69737 22.9406C4.60014 23.2692 4.58674 23.5306 4.67055 23.8558C4.68061 23.9162 4.7309 24.0805 4.7309 24.0805C5.85062 27.3222 19.1196 41.3523 22.2106 42.5559C22.2106 42.5559 22.3883 42.6128 22.452 42.6229C22.7303 42.6866 22.9783 42.7 23.2733 42.643C23.3437 42.633 23.5683 42.5659 23.5683 42.5659C25.2243 41.9639 29.5504 38.3541 33.6053 34.5141C37.326 38.412 41.1837 41.9754 42.6743 42.5559C42.6743 42.5559 42.852 42.6128 42.9157 42.6229C43.1939 42.6866 43.442 42.7 43.737 42.643C43.8073 42.633 44.032 42.5659 44.032 42.5659C45.6881 41.9638 50.015 38.3533 54.0704 34.5128C57.7914 38.4112 61.6498 41.9754 63.1406 42.5559C63.1406 42.5559 63.3182 42.6128 63.382 42.6229C63.6602 42.6866 63.9083 42.7 64.2033 42.643C64.2737 42.633 64.4984 42.5659 64.4984 42.5659C67.7905 41.3691 81.6362 28.2845 82.9235 25.1365C82.9235 25.1365 82.9872 24.9588 83.0006 24.8951C83.0944 24.5732 83.1012 24.3151 83.024 23.9967C83.0139 23.9396 82.9603 23.7687 82.9603 23.7687C81.8339 20.5302 68.6788 6.61081 65.5209 5.31341C65.5209 5.31341 65.3465 5.24972 65.2896 5.23631C64.961 5.14244 64.7029 5.12903 64.381 5.21284C64.324 5.22289 64.1564 5.27653 64.1564 5.27653C62.5234 5.84176 58.1669 9.47382 54.0858 13.339C50.3962 9.47317 46.5717 5.93671 45.0545 5.31341C45.0545 5.31341 44.8801 5.24972 44.8232 5.23631C44.4947 5.14244 44.2365 5.12903 43.9147 5.21284C43.8577 5.22289 43.69 5.27653 43.69 5.27653C42.0572 5.8417 37.7016 9.4729 33.6209 13.3376C29.9316 9.47234 26.1079 5.93663 24.5908 5.31341C24.5908 5.31341 24.4165 5.24972 24.3595 5.23631C24.031 5.14244 23.7729 5.12903 23.451 5.21284C23.394 5.22289 23.2264 5.27653 23.2264 5.27653C19.9913 6.39625 6.06852 19.5513 4.77112 22.7127C4.77112 22.7127 4.70742 22.887 4.69737 22.9406Z" fill="black"/>
</mask>
<g mask="url(#mask1_2086_45748)">
<path d="M4.67101 23.8563L6.49205 23.5528L6.47882 23.4735L6.45875 23.3956L4.67101 23.8563ZM4.69784 22.9411L6.46811 23.4649L6.49494 23.3743L6.51237 23.2813L4.69784 22.9411ZM4.73136 24.081L2.96607 24.6213L2.97566 24.6526L2.98636 24.6836L4.73136 24.081ZM22.211 42.5563L21.5413 44.2767L21.5937 44.2971L21.6472 44.3143L22.211 42.5563ZM22.4524 42.6234L22.8644 40.8237L22.8028 40.8096L22.7403 40.7998L22.4524 42.6234ZM23.2738 42.6435L23.0126 40.8159L22.968 40.8223L22.9237 40.8308L23.2738 42.6435ZM23.5688 42.5664L24.0969 44.3354L24.1488 44.3199L24.1996 44.3014L23.5688 42.5664ZM33.6058 34.5146L34.9412 33.2399L33.6716 31.9098L32.3364 33.1741L33.6058 34.5146ZM42.6747 42.5563L42.0049 44.2767L42.0573 44.2971L42.1108 44.3143L42.6747 42.5563ZM42.9161 42.6234L43.3281 40.8237L43.2664 40.8096L43.204 40.7998L42.9161 42.6234ZM43.7375 42.6435L43.4763 40.8159L43.4316 40.8223L43.3873 40.8308L43.7375 42.6435ZM44.0325 42.5664L44.5605 44.3354L44.6124 44.3199L44.6632 44.3014L44.0325 42.5664ZM54.0709 34.5133L55.4063 33.2385L54.1366 31.9084L52.8015 33.1728L54.0709 34.5133ZM63.1411 42.5563L62.4712 44.2767L62.5237 44.2971L62.5772 44.3143L63.1411 42.5563ZM63.3825 42.6234L63.7944 40.8237L63.7328 40.8096L63.6703 40.7998L63.3825 42.6234ZM64.2038 42.6435L63.9426 40.8159L63.898 40.8223L63.8536 40.8308L64.2038 42.6435ZM64.4989 42.5664L65.0269 44.3354L65.0788 44.3199L65.1296 44.3014L64.4989 42.5664ZM82.924 25.137L84.6328 25.8357L84.6481 25.7982L84.6618 25.7599L82.924 25.137ZM83.001 24.8956L81.2287 24.3787L81.209 24.4463L81.1945 24.5153L83.001 24.8956ZM83.0245 23.9971L81.2065 24.3179L81.2166 24.3751L81.2302 24.4315L83.0245 23.9971ZM82.9608 23.7691L84.7223 23.2165L84.7138 23.1895L84.7045 23.1627L82.9608 23.7691ZM65.5214 5.31388L66.2229 3.60623L66.1891 3.59236L66.1549 3.57985L65.5214 5.31388ZM65.29 5.23678L64.7828 7.0119L64.8247 7.02387L64.8672 7.03385L65.29 5.23678ZM64.3815 5.21331L64.7023 7.03138L64.7752 7.01852L64.8468 6.99988L64.3815 5.21331ZM64.1569 5.277L63.5942 3.51869L63.5736 3.5253L63.5531 3.5324L64.1569 5.277ZM54.0863 13.3395L52.7508 14.6141L54.0206 15.9445L55.3558 14.6799L54.0863 13.3395ZM45.055 5.31388L45.7565 3.60623L45.7228 3.59237L45.6886 3.57985L45.055 5.31388ZM44.8237 5.23678L44.3164 7.0119L44.3583 7.02387L44.4008 7.03385L44.8237 5.23678ZM43.9152 5.21331L44.2359 7.03137L44.3088 7.01852L44.3804 6.99988L43.9152 5.21331ZM43.6905 5.277L43.1279 3.51868L43.1072 3.5253L43.0867 3.5324L43.6905 5.277ZM33.6214 13.3381L32.2859 14.6128L33.5556 15.9431L34.8908 14.6785L33.6214 13.3381ZM24.5913 5.31388L25.2929 3.60623L25.2591 3.59237L25.2249 3.57985L24.5913 5.31388ZM24.36 5.23678L23.8528 7.0119L23.8947 7.02387L23.9372 7.03385L24.36 5.23678ZM23.4515 5.21331L23.7723 7.03137L23.8452 7.01852L23.9167 6.99988L23.4515 5.21331ZM23.2269 5.277L22.6642 3.51868L22.6435 3.5253L22.623 3.5324L23.2269 5.277ZM4.77159 22.7131L3.06367 22.0122L3.04995 22.0456L3.03756 22.0795L4.77159 22.7131ZM6.45875 23.3956C6.45579 23.384 6.45745 23.3878 6.45928 23.4032C6.46123 23.4195 6.46239 23.4404 6.46162 23.4631C6.46085 23.4853 6.45854 23.4999 6.4579 23.5035C6.45746 23.5059 6.45932 23.4946 6.46811 23.4649L2.92756 22.4172C2.74775 23.0249 2.70587 23.6287 2.88328 24.3171L6.45875 23.3956ZM4.73136 24.081C6.49666 23.5405 6.49667 23.5406 6.49668 23.5406C6.49667 23.5406 6.49669 23.5406 6.49668 23.5406C6.4966 23.5403 6.4966 23.5403 6.49622 23.5391C6.49548 23.5366 6.4942 23.5324 6.49258 23.5269C6.4892 23.5157 6.48488 23.5009 6.48066 23.4861C6.46004 23.4136 6.47684 23.4616 6.49205 23.5528L2.84999 24.1598C2.87525 24.3115 2.92223 24.4717 2.92926 24.4964C2.93887 24.5301 2.94775 24.5603 2.95412 24.5816C2.95736 24.5925 2.9601 24.6017 2.96213 24.6084C2.96315 24.6117 2.964 24.6146 2.96467 24.6167C2.965 24.6178 2.96529 24.6187 2.96552 24.6195C2.96564 24.6199 2.96598 24.621 2.96607 24.6213C2.96603 24.6212 2.96612 24.6214 2.96607 24.6213C2.96608 24.6213 2.96607 24.6213 4.73136 24.081ZM22.8809 40.836C22.7569 40.7876 22.3887 40.5793 21.7396 40.0831C21.1341 39.6202 20.3992 38.9974 19.5722 38.2489C17.9209 36.7543 15.9722 34.8219 14.0732 32.8143C12.1742 30.8069 10.3472 28.7479 8.93493 27.0042C8.22784 26.1311 7.63899 25.3546 7.20115 24.7142C6.73536 24.033 6.5297 23.6326 6.47636 23.4782L2.98636 24.6836C3.21296 25.3397 3.66689 26.087 4.15314 26.7981C4.66734 27.5503 5.323 28.4111 6.06564 29.328C7.55286 31.1644 9.44626 33.2959 11.3908 35.3516C13.3354 37.4072 15.3535 39.4107 17.0944 40.9864C17.9636 41.7731 18.7813 42.4692 19.4973 43.0166C20.1699 43.5307 20.8925 44.024 21.5413 44.2767L22.8809 40.836ZM22.7403 40.7998C22.7918 40.8079 22.8283 40.8163 22.8378 40.8185C22.8452 40.8201 22.8505 40.8214 22.8535 40.8223C22.8566 40.823 22.8584 40.8235 22.8588 40.8235C22.8592 40.8236 22.8568 40.823 22.8513 40.8215C22.846 40.8199 22.8395 40.8181 22.8319 40.8158C22.8164 40.8113 22.801 40.8066 22.789 40.8028C22.7833 40.801 22.7788 40.7996 22.7762 40.7988C22.7749 40.7983 22.7741 40.7981 22.7739 40.7981C22.7737 40.798 22.7737 40.798 22.7739 40.7981L22.7749 40.7983C22.7749 40.7983 22.7749 40.7983 22.211 42.5563C21.6472 44.3143 21.6471 44.3143 21.6472 44.3143C21.647 44.3142 21.6474 44.3143 21.6472 44.3143C21.6476 44.3143 21.6488 44.3147 21.6493 44.3149C21.6501 44.3152 21.6511 44.3155 21.6523 44.3159C21.6547 44.3167 21.6577 44.3176 21.6614 44.3188C21.6688 44.3211 21.6788 44.3242 21.6907 44.3279C21.714 44.3352 21.7469 44.3454 21.7839 44.3563C21.8062 44.3629 21.9895 44.4193 22.1645 44.4469L22.7403 40.7998ZM22.9237 40.8308C22.9108 40.8333 22.9057 40.8336 22.9068 40.8336C22.9079 40.8334 22.9111 40.8333 22.9147 40.8334C22.9181 40.8335 22.9176 40.8338 22.9112 40.8329C22.9043 40.8319 22.8896 40.8295 22.8644 40.8237L22.0405 44.423C22.533 44.5357 23.0428 44.5684 23.624 44.4561L22.9237 40.8308ZM23.5688 42.5664L23.0408 40.7973C23.0401 40.7975 23.0386 40.798 23.0365 40.7986C23.0323 40.7998 23.0256 40.8019 23.0172 40.8043C22.9998 40.8093 22.9772 40.8158 22.9542 40.8222C22.9296 40.829 22.9125 40.8335 22.904 40.8356C22.8735 40.8432 22.9276 40.8281 23.0126 40.8159L23.5349 44.4711C23.7135 44.4455 23.915 44.3874 23.9413 44.3801C23.9832 44.3685 24.0211 44.3575 24.0481 44.3497C24.0618 44.3457 24.0733 44.3424 24.0816 44.3399C24.0857 44.3387 24.0891 44.3377 24.0917 44.337C24.093 44.3365 24.0941 44.3362 24.0949 44.3359C24.0954 44.3358 24.0966 44.3355 24.0969 44.3354C24.097 44.3354 24.0969 44.3354 23.5688 42.5664ZM32.3364 33.1741C30.3331 35.0712 28.2738 36.9008 26.524 38.3215C25.648 39.0327 24.8664 39.6278 24.2187 40.0736C23.5339 40.545 23.1163 40.7665 22.9381 40.8313L24.1996 44.3014C24.8493 44.0652 25.5934 43.6099 26.3123 43.115C27.0682 42.5947 27.932 41.9345 28.8514 41.188C30.6924 39.6932 32.8235 37.7981 34.8752 35.8551L32.3364 33.1741ZM43.3446 40.836C43.2282 40.7907 42.8811 40.5967 42.2666 40.1312C41.6929 39.6968 40.9963 39.1119 40.2099 38.4057C38.6393 36.9957 36.7796 35.1658 34.9412 33.2399L32.2704 35.7893C34.1526 37.7612 36.0821 39.6619 37.7432 41.1533C38.5725 41.8978 39.3525 42.5561 40.0376 43.0749C40.6818 43.5628 41.3759 44.0318 42.0049 44.2767L43.3446 40.836ZM43.204 40.7998C43.2555 40.8079 43.292 40.8163 43.3014 40.8185C43.3088 40.8201 43.3142 40.8214 43.3172 40.8223C43.3203 40.823 43.3221 40.8235 43.3225 40.8235C43.3228 40.8236 43.3204 40.823 43.3149 40.8215C43.3096 40.8199 43.3031 40.8181 43.2955 40.8158C43.2801 40.8113 43.2647 40.8066 43.2527 40.8028C43.2469 40.801 43.2424 40.7996 43.2399 40.7988C43.2386 40.7983 43.2378 40.7982 43.2375 40.7981C43.2374 40.798 43.2375 40.798 43.2375 40.7981C43.2376 40.7981 43.2384 40.7983 43.2385 40.7983C43.2385 40.7983 43.2387 40.7983 42.6747 42.5563C42.1108 44.3143 42.1108 44.3143 42.1108 44.3143C42.1109 44.3143 42.1116 44.3144 42.1118 44.3145C42.112 44.3146 42.1124 44.3147 42.1129 44.3149C42.1137 44.3152 42.1147 44.3155 42.1159 44.3158C42.1183 44.3167 42.1215 44.3176 42.1251 44.3188C42.1324 44.3211 42.1424 44.3242 42.1543 44.3279C42.1777 44.3352 42.2106 44.3454 42.2475 44.3563C42.2699 44.3629 42.4532 44.4193 42.6282 44.4469L43.204 40.7998ZM43.3873 40.8308C43.3745 40.8333 43.3695 40.8336 43.3704 40.8336C43.3716 40.8334 43.3747 40.8333 43.3783 40.8334C43.3818 40.8335 43.3813 40.8338 43.3748 40.8329C43.368 40.8319 43.3532 40.8295 43.3281 40.8237L42.5042 44.423C42.9967 44.5357 43.5064 44.5684 44.0876 44.4561L43.3873 40.8308ZM44.0325 42.5664C43.5044 40.7973 43.5045 40.7973 43.5045 40.7973C43.5038 40.7975 43.5023 40.798 43.5002 40.7986C43.4959 40.7998 43.4893 40.8019 43.4808 40.8043C43.4635 40.8093 43.4409 40.8158 43.4178 40.8222C43.3933 40.829 43.3761 40.8335 43.3676 40.8356C43.3372 40.8432 43.3912 40.8281 43.4763 40.8159L43.9986 44.4711C44.1771 44.4455 44.3787 44.3874 44.4049 44.3801C44.4468 44.3685 44.4847 44.3575 44.5118 44.3497C44.5255 44.3457 44.5369 44.3424 44.5452 44.3399C44.5494 44.3387 44.5528 44.3377 44.5554 44.337C44.5567 44.3365 44.5577 44.3362 44.5587 44.3359L44.5605 44.3354C44.5603 44.3355 44.5607 44.3353 44.5605 44.3354L44.0325 42.5664ZM52.8015 33.1728C50.798 35.0701 48.7383 36.9001 46.9883 38.321C46.1122 39.0323 45.3303 39.6276 44.6826 40.0735C43.9977 40.5449 43.58 40.7665 43.4017 40.8313L44.6632 44.3014C45.313 44.0652 46.0573 43.6098 46.7762 43.1148C47.5323 42.5944 48.3962 41.934 49.3156 41.1874C51.1569 39.6925 53.2884 37.797 55.3403 35.8537L52.8015 33.1728ZM52.7355 35.788C54.6179 37.7601 56.5476 39.6612 58.209 41.1528C59.0384 41.8975 59.8185 42.5559 60.5037 43.0747C61.1481 43.5626 61.8422 44.0317 62.4712 44.2767L63.8109 40.836C63.6946 40.7907 63.3473 40.5966 62.7327 40.1311C62.1589 39.6967 61.4623 39.1115 60.6757 38.4053C59.1049 36.995 57.2449 35.1648 55.4063 33.2385L52.7355 35.788ZM63.1411 42.5563C62.5772 44.3143 62.5771 44.3143 62.5772 44.3143C62.5771 44.3142 62.5774 44.3143 62.5772 44.3143C62.5776 44.3143 62.5788 44.3147 62.5792 44.3149C62.5801 44.3152 62.5811 44.3155 62.5823 44.3158C62.5847 44.3167 62.5877 44.3176 62.5914 44.3188C62.5988 44.3211 62.6088 44.3242 62.6207 44.3279C62.644 44.3352 62.677 44.3454 62.7139 44.3563C62.7363 44.3629 62.9196 44.4193 63.0946 44.4469L63.6703 40.7998C63.7219 40.8079 63.7584 40.8163 63.7678 40.8185C63.7752 40.8201 63.7805 40.8214 63.7835 40.8223C63.7866 40.823 63.7885 40.8235 63.7888 40.8235C63.7892 40.8236 63.7868 40.823 63.7813 40.8215C63.776 40.8199 63.7695 40.8181 63.7619 40.8158C63.7465 40.8113 63.731 40.8066 63.7191 40.8028C63.7132 40.801 63.7088 40.7996 63.7062 40.7988C63.7049 40.7983 63.7042 40.7982 63.7039 40.7981C63.7037 40.798 63.7038 40.798 63.7039 40.7981L63.7048 40.7983C63.7049 40.7983 63.7049 40.7983 63.1411 42.5563ZM62.9705 44.423C63.463 44.5357 63.9728 44.5684 64.554 44.4561L63.8536 40.8308C63.8409 40.8333 63.8358 40.8336 63.8368 40.8336C63.8379 40.8334 63.8411 40.8333 63.8447 40.8334C63.8482 40.8335 63.8476 40.8338 63.8412 40.8329C63.8344 40.8319 63.8196 40.8295 63.7944 40.8237L62.9705 44.423ZM64.465 44.4711C64.6435 44.4455 64.845 44.3874 64.8713 44.3801C64.9132 44.3685 64.9511 44.3575 64.9781 44.3497C64.9918 44.3457 65.0033 44.3424 65.0116 44.3399C65.0157 44.3387 65.0191 44.3377 65.0217 44.337C65.023 44.3365 65.0241 44.3362 65.0249 44.3359C65.0254 44.3358 65.0265 44.3355 65.0269 44.3354C65.027 44.3354 65.0269 44.3354 64.4989 42.5664C63.9708 40.7973 63.9708 40.7973 63.9709 40.7973C63.9708 40.7973 63.971 40.7973 63.9709 40.7973C63.9701 40.7975 63.9687 40.798 63.9665 40.7986C63.9623 40.7998 63.9557 40.8019 63.9472 40.8043C63.9299 40.8093 63.9073 40.8158 63.8842 40.8222C63.8596 40.829 63.8425 40.8335 63.834 40.8356C63.8035 40.8432 63.8576 40.8281 63.9426 40.8159L64.465 44.4711ZM65.1296 44.3014C65.7759 44.0665 66.515 43.6148 67.2286 43.1244C67.979 42.6087 68.8361 41.9545 69.7483 41.2147C71.5751 39.7336 73.6906 37.8547 75.7316 35.9248C77.7725 33.995 79.762 31.9924 81.3326 30.26C82.1168 29.395 82.812 28.5807 83.3615 27.8655C83.8812 27.1891 84.3715 26.4744 84.6328 25.8357L81.2152 24.4381C81.1545 24.5864 80.9306 24.9692 80.4338 25.6157C79.9669 26.2233 79.3434 26.957 78.5972 27.78C77.1068 29.4238 75.1877 31.3574 73.1947 33.2419C71.2019 35.1262 69.1583 36.9396 67.4228 38.3468C66.554 39.0512 65.7792 39.6403 65.1373 40.0815C64.4585 40.5479 64.0448 40.7671 63.868 40.8313L65.1296 44.3014ZM82.924 25.137C84.6618 25.7599 84.6618 25.7599 84.6618 25.7599C84.6619 25.7597 84.6623 25.7585 84.6625 25.7581C84.6628 25.7573 84.6631 25.7563 84.6635 25.7552C84.6643 25.7529 84.6654 25.75 84.6666 25.7465C84.6691 25.7394 84.6726 25.7298 84.6765 25.7182C84.6845 25.6956 84.6955 25.6638 84.7075 25.6281C84.7162 25.6023 84.7744 25.4338 84.8076 25.2759L81.1945 24.5153C81.2143 24.421 81.234 24.3733 81.2074 24.4521C81.2018 24.4689 81.1962 24.4855 81.1916 24.4981C81.1895 24.5043 81.1878 24.509 81.1868 24.5119C81.1863 24.5133 81.186 24.5143 81.1858 24.5146C81.1858 24.5145 81.1861 24.514 82.924 25.137ZM84.7734 25.4125C84.9555 24.7882 84.9737 24.2021 84.8189 23.5627L81.2302 24.4315C81.2346 24.4496 81.2343 24.4523 81.2332 24.4433C81.2321 24.4333 81.2309 24.417 81.2314 24.3969C81.2319 24.377 81.2338 24.3622 81.235 24.3555C81.236 24.3497 81.2353 24.3561 81.2287 24.3787L84.7734 25.4125ZM84.8426 23.6763C84.816 23.5255 84.766 23.3611 84.7601 23.3408C84.7502 23.3072 84.7411 23.2771 84.7345 23.2557C84.7311 23.2448 84.7283 23.2357 84.7263 23.2291C84.7252 23.2257 84.7243 23.223 84.7237 23.2208C84.7233 23.2198 84.723 23.2189 84.7229 23.2182C84.7227 23.2178 84.7224 23.2168 84.7223 23.2165C84.7223 23.2164 84.7224 23.2167 84.7223 23.2165C84.7223 23.2164 84.7223 23.2165 82.9608 23.7691C81.1993 24.3218 81.1993 24.3218 81.1993 24.3217C81.1994 24.3221 81.1996 24.3227 81.2 24.3241C81.201 24.3271 81.2024 24.3318 81.2043 24.3378C81.2081 24.3502 81.2129 24.3664 81.2178 24.3827C81.2411 24.4622 81.223 24.4118 81.2065 24.3179L84.8426 23.6763ZM84.7045 23.1627C84.4774 22.5099 84.0261 21.7666 83.5418 21.0579C83.03 20.3091 82.3782 19.4526 81.6399 18.5404C80.1614 16.7134 78.2796 14.593 76.3447 12.5456C74.4099 10.4982 72.3998 8.50027 70.6607 6.92224C69.7924 6.13427 68.9748 5.43578 68.2571 4.88348C67.5783 4.36108 66.862 3.86875 66.2229 3.60623L64.8197 7.02155C64.9703 7.08336 65.3558 7.30982 66.0052 7.80962C66.6159 8.27951 67.3529 8.90663 68.1796 9.65669C69.8304 11.1547 71.7717 13.0822 73.6612 15.0816C75.5505 17.081 77.3661 19.1287 78.7698 20.8631C79.4725 21.7315 80.0578 22.5039 80.4934 23.1413C80.9564 23.8187 81.162 24.2183 81.2166 24.3751L84.7045 23.1627ZM65.5214 5.31388C66.1549 3.57985 66.1549 3.57987 66.1549 3.57985C66.1547 3.57976 66.1537 3.57941 66.1534 3.57929C66.1527 3.57903 66.1518 3.57872 66.1508 3.57835C66.1488 3.57761 66.146 3.57662 66.1428 3.57543C66.1362 3.57306 66.1273 3.56982 66.1165 3.56595C66.0952 3.55835 66.0654 3.54775 66.0324 3.53628C66.01 3.52848 65.8536 3.4728 65.7129 3.4397L64.8672 7.03385C64.7835 7.01416 64.7428 6.99703 64.8217 7.02443C64.8393 7.03057 64.8567 7.03673 64.87 7.04148C64.8764 7.0438 64.8815 7.04565 64.8847 7.0468C64.8863 7.04738 64.8874 7.04778 64.888 7.04797C64.8879 7.04796 64.8878 7.04791 65.5214 5.31388ZM65.7972 3.46165C65.2018 3.29154 64.6046 3.24748 63.9162 3.42674L64.8468 6.99988C64.8568 6.99724 64.852 6.99911 64.8357 7.0011C64.8184 7.00319 64.7972 7.00435 64.7749 7.00365C64.7531 7.00295 64.7395 7.00077 64.7377 7.00045C64.7371 7.00035 64.7504 7.00264 64.7828 7.0119L65.7972 3.46165ZM64.0607 3.39525C63.9051 3.4227 63.7381 3.47443 63.7187 3.48022C63.6851 3.49028 63.655 3.49958 63.6336 3.50626C63.6227 3.50965 63.6137 3.51252 63.607 3.51463C63.6036 3.5157 63.6008 3.51658 63.5987 3.51726C63.5976 3.5176 63.5967 3.5179 63.5959 3.51814C63.5956 3.51826 63.5945 3.5186 63.5942 3.51869C63.5942 3.5187 63.5942 3.51869 64.1569 5.277C64.7196 7.03533 64.7195 7.03534 64.7195 7.03535C64.7195 7.03534 64.7195 7.03535 64.7195 7.03535C64.7199 7.03523 64.7201 7.03515 64.7214 7.03473C64.7241 7.03388 64.7286 7.03247 64.7344 7.03068C64.7462 7.02697 64.7615 7.02225 64.7769 7.01764C64.8556 6.99409 64.8009 7.01398 64.7023 7.03138L64.0607 3.39525ZM63.5531 3.5324C62.894 3.76048 62.1422 4.21772 61.4256 4.70821C60.668 5.22674 59.8007 5.88791 58.8771 6.63658C57.0274 8.1359 54.8817 10.0435 52.8168 11.9991L55.3558 14.6799C57.372 12.7703 59.445 10.9292 61.2021 9.50494C62.0819 8.79177 62.8649 8.19737 63.5111 7.75513C64.1981 7.28487 64.6032 7.07615 64.7608 7.02162L63.5531 3.5324ZM44.3535 7.02155C44.4948 7.0796 44.8567 7.28968 45.4685 7.75576C46.0442 8.19423 46.7391 8.77986 47.5215 9.48343C49.0838 10.8885 50.9279 12.7041 52.7508 14.6141L55.4218 12.0648C53.5551 10.109 51.6421 8.22347 49.9905 6.73808C49.1658 5.99636 48.3896 5.33938 47.7061 4.81865C47.0588 4.32552 46.3738 3.85981 45.7565 3.60623L44.3535 7.02155ZM44.4008 7.03385C44.3171 7.01416 44.2764 6.99703 44.3553 7.02443C44.373 7.03056 44.3903 7.03673 44.4036 7.04148C44.41 7.0438 44.4151 7.04564 44.4183 7.0468C44.4199 7.04738 44.421 7.04778 44.4216 7.04797C44.4216 7.04799 44.4219 7.04807 44.4216 7.04797C44.4215 7.04796 44.4214 7.04791 45.055 5.31388C45.6886 3.57985 45.6886 3.57986 45.6886 3.57985C45.6886 3.57984 45.6887 3.57986 45.6886 3.57985C45.6883 3.57976 45.6874 3.57942 45.687 3.57929C45.6864 3.57904 45.6855 3.57873 45.6844 3.57836C45.6824 3.57761 45.6797 3.57663 45.6764 3.57544C45.6699 3.57306 45.6609 3.56982 45.6501 3.56596C45.6289 3.55836 45.5991 3.54775 45.5661 3.53628C45.5436 3.52849 45.3872 3.4728 45.2465 3.4397L44.4008 7.03385ZM44.3804 6.99988C44.3906 6.99724 44.3857 6.99911 44.3693 7.0011C44.3521 7.00319 44.3308 7.00435 44.3086 7.00365C44.2867 7.00295 44.2731 7.00077 44.2713 7.00045C44.2707 7.00035 44.2841 7.00264 44.3164 7.0119L45.3308 3.46165C44.7354 3.29153 44.1383 3.24748 43.4499 3.42674L44.3804 6.99988ZM43.6905 5.277C44.2532 7.03533 44.2531 7.03534 44.2531 7.03535C44.2531 7.03535 44.2532 7.03534 44.2531 7.03535C44.2534 7.03523 44.2538 7.03515 44.2551 7.03474C44.2577 7.03388 44.2623 7.03247 44.268 7.03068C44.2798 7.02698 44.2951 7.02226 44.3105 7.01764C44.3893 6.99409 44.3345 7.01397 44.2359 7.03137L43.5943 3.39525C43.4387 3.4227 43.2717 3.47443 43.2523 3.48022C43.2187 3.49027 43.1886 3.49958 43.1673 3.50625C43.1564 3.50964 43.1473 3.51251 43.1406 3.51463C43.1373 3.51569 43.1344 3.51658 43.1323 3.51726C43.1313 3.5176 43.1304 3.5179 43.1296 3.51813C43.1292 3.51825 43.1282 3.51859 43.1279 3.51868C43.1277 3.51873 43.1281 3.51864 43.1279 3.51868C43.1278 3.51869 43.1279 3.51868 43.6905 5.277ZM34.8908 14.6785C36.9068 12.7692 38.9796 10.9284 40.7364 9.50438C41.616 8.79141 42.3989 8.19712 43.0449 7.75499C43.7319 7.28482 44.1368 7.07614 44.2944 7.02162L43.0867 3.5324C42.4277 3.76045 41.676 4.21762 40.9595 4.70803C40.202 5.22647 39.3349 5.88752 38.4113 6.63606C36.5619 8.13511 34.4165 10.0424 32.3519 11.9977L34.8908 14.6785ZM23.8897 7.02155C24.0311 7.07959 24.393 7.28963 25.0047 7.75561C25.5802 8.19399 26.2751 8.77951 27.0572 9.48297C28.6193 10.8878 30.4632 12.7031 32.2859 14.6128L34.9568 12.0635C33.0903 10.1079 31.1776 8.22268 29.5262 6.73755C28.7017 5.99597 27.9256 5.33911 27.2422 4.81847C26.595 4.32543 25.9101 3.8598 25.2929 3.60623L23.8897 7.02155ZM23.9372 7.03385C23.8535 7.01416 23.8127 6.99703 23.8917 7.02443C23.9093 7.03056 23.9267 7.03673 23.94 7.04148C23.9464 7.0438 23.9515 7.04564 23.9546 7.0468C23.9563 7.04738 23.9574 7.04778 23.9579 7.04797C23.9579 7.04796 23.9578 7.04791 24.5913 5.31388C25.2249 3.57985 25.2249 3.57986 25.2249 3.57985C25.2248 3.57984 25.2249 3.57986 25.2249 3.57985C25.2247 3.57976 25.2237 3.57942 25.2234 3.57929C25.2227 3.57904 25.2218 3.57873 25.2208 3.57836C25.2188 3.57761 25.216 3.57663 25.2128 3.57544C25.2062 3.57306 25.1972 3.56982 25.1865 3.56596C25.1653 3.55836 25.1354 3.54775 25.1024 3.53628C25.08 3.52849 24.9235 3.4728 24.7828 3.4397L23.9372 7.03385ZM23.9167 6.99988C23.9269 6.99724 23.9221 6.99911 23.9056 7.0011C23.8885 7.00319 23.8672 7.00435 23.8449 7.00365C23.8231 7.00295 23.8095 7.00077 23.8077 7.00045C23.8071 7.00035 23.8204 7.00264 23.8528 7.0119L24.8672 3.46165C24.2717 3.29153 23.6746 3.24748 22.9862 3.42674L23.9167 6.99988ZM23.2269 5.277C23.7895 7.03533 23.7895 7.03534 23.7895 7.03535C23.7894 7.03535 23.7895 7.03534 23.7895 7.03535C23.7899 7.03523 23.7901 7.03515 23.7914 7.03474C23.7941 7.03388 23.7985 7.03247 23.8043 7.03068C23.8162 7.02698 23.8315 7.02226 23.8469 7.01764C23.9257 6.99409 23.8709 7.01397 23.7723 7.03137L23.1306 3.39525C22.9751 3.4227 22.8081 3.47443 22.7887 3.48022C22.7551 3.49027 22.725 3.49958 22.7036 3.50625C22.6927 3.50964 22.6837 3.51251 22.6769 3.51463C22.6736 3.51569 22.6708 3.51658 22.6687 3.51726C22.6676 3.5176 22.6667 3.5179 22.6659 3.51813C22.6656 3.51825 22.6645 3.51859 22.6642 3.51868C22.6641 3.51873 22.6643 3.51864 22.6642 3.51868C22.6642 3.51869 22.6642 3.51868 23.2269 5.277ZM6.47952 23.414C6.54135 23.2633 6.76782 22.8775 7.26763 22.2279C7.73756 21.6171 8.36475 20.8797 9.11487 20.053C10.613 18.4019 12.541 16.4606 14.5404 14.5713C16.54 12.6822 18.5878 10.8672 20.3219 9.4646C21.1901 8.76231 21.9623 8.17763 22.5992 7.74271C23.2765 7.28028 23.6755 7.07533 23.8307 7.02162L22.623 3.5324C21.9695 3.75861 21.2257 4.20969 20.5173 4.69335C19.7686 5.20452 18.9121 5.85597 17.9999 6.59383C16.173 8.0715 14.0524 9.95281 12.0048 11.8875C9.957 13.8223 7.95875 15.8324 6.3804 17.572C5.59226 18.4406 4.8936 19.2583 4.34116 19.9765C3.81861 20.6557 3.32617 21.3726 3.06367 22.0122L6.47952 23.414ZM6.51237 23.2813C6.50017 23.3464 6.48738 23.3929 6.48481 23.4023C6.48041 23.4185 6.47743 23.428 6.47737 23.4283C6.47726 23.4286 6.47976 23.4207 6.48549 23.4039C6.49064 23.3888 6.49602 23.3735 6.50032 23.3614C6.50239 23.3557 6.50402 23.3512 6.50499 23.3484C6.50548 23.3471 6.5058 23.3462 6.50591 23.3459C6.50595 23.3458 6.50597 23.3457 6.50591 23.3459C6.50589 23.3459 6.50562 23.3467 4.77159 22.7131C3.03756 22.0795 3.03758 22.0795 3.03756 22.0795C3.03745 22.0799 3.03703 22.081 3.03689 22.0814C3.03659 22.0821 3.03624 22.0831 3.03584 22.0843C3.03502 22.0866 3.03395 22.0894 3.03267 22.093C3.03013 22.1 3.0267 22.1095 3.02264 22.1209C3.01468 22.1432 3.00351 22.1749 2.99148 22.2101C2.98968 22.2153 2.91829 22.4143 2.8833 22.6009L6.51237 23.2813Z" fill="#151531"/>
</g>
<path d="M33.1436 29.7675V29.3104C33.1436 29.2247 33.0788 29.1533 32.9924 29.139L32.6758 29.0961C32.4959 29.0676 32.352 29.0319 32.2441 28.9819C32.1361 28.9319 32.0497 28.8247 31.9993 28.6462C31.9489 28.4677 31.9129 28.1891 31.8986 27.8035C31.877 27.4179 31.877 26.8751 31.877 26.1752V22.7971C31.877 21.9259 31.7115 21.226 31.3876 20.7046C31.0566 20.1833 30.6393 19.8119 30.1211 19.5906C29.6029 19.3692 29.0488 19.2549 28.466 19.2549C27.5161 19.2549 26.7316 19.4834 26.1128 19.9405C25.8969 20.1047 24.9397 20.9404 24.8822 20.9974L24.5583 21.3188C24.5008 21.376 24.4072 21.4474 24.4072 21.4474H24.3928C24.364 21.4331 24.2993 21.376 24.2417 21.3188C24.1913 21.276 24.1482 21.2189 24.1266 21.1903C24.1194 21.1831 24.1194 21.1688 24.1194 21.1688V21.1546C24.1338 21.1189 24.2129 21.0403 24.2849 20.9689L24.5655 20.6904C24.6231 20.6404 24.6375 20.6261 24.6519 20.5975C24.6591 20.5832 24.6591 20.5618 24.6591 20.5618C24.6591 20.5371 24.6641 20.3047 24.6709 19.9865C24.6859 19.2942 24.7095 18.1952 24.7095 17.9408C24.7167 17.4338 24.7238 16.9267 24.7382 16.4125C24.7439 16.2329 24.7483 16.0629 24.7525 15.9021C24.7593 15.6475 24.7655 15.4157 24.7742 15.2056C24.7742 15.1341 24.7454 15.0627 24.6951 15.0127C24.6303 14.9485 24.5368 14.927 24.4504 14.9485C23.8028 15.1056 23.1407 15.2056 22.4642 15.2413C21.8022 15.2841 20.9818 15.3055 20.0247 15.3055C19.8807 15.3055 19.7656 15.4198 19.7656 15.5626V15.8483C19.7656 15.9769 19.8664 16.084 19.9959 16.1126H20.075C20.3053 16.1411 20.4853 16.1911 20.6148 16.2554C20.7444 16.3196 20.8451 16.4696 20.9027 16.691C20.9674 16.9195 21.0034 17.2767 21.0178 17.7765C21.0394 18.2765 21.0394 18.9763 21.0394 19.8834V26.2038C21.0394 26.8893 21.0322 27.425 21.0178 27.8035C21.0034 28.182 20.9674 28.4605 20.9171 28.6319C20.8595 28.8033 20.7803 28.9176 20.6796 28.9747C20.5789 29.0319 20.4277 29.0676 20.2405 29.0961L19.9095 29.1533C19.8232 29.1676 19.7656 29.2318 19.7656 29.3176V29.7675C19.7656 29.8675 19.8448 29.9389 19.9455 29.9389C21.8454 29.8317 23.7236 29.8317 25.5803 29.9389C25.681 29.9389 25.7602 29.8675 25.7602 29.7675V29.3176C25.7602 29.239 25.7026 29.1676 25.6234 29.1533L25.4364 29.1175C25.2565 29.0818 25.1197 29.039 25.0261 28.9891C24.9325 28.939 24.8606 28.8319 24.8102 28.6533C24.7598 28.482 24.731 28.2034 24.7167 27.825C24.6951 27.4464 24.6951 26.9036 24.6951 26.2038V22.1901C24.9685 21.9759 25.2708 21.8116 25.5947 21.6974C25.9617 21.5688 26.3646 21.5046 26.7748 21.5046C27.185 21.5046 27.5233 21.6403 27.7967 21.9187C28.0702 22.1972 28.2069 22.6543 28.2069 23.3042V26.1967C28.2069 26.8822 28.1997 27.4179 28.1853 27.7963C28.1709 28.1749 28.1421 28.4463 28.0918 28.6176C28.0414 28.789 27.9694 28.9033 27.8687 28.9533C27.768 29.0105 27.6312 29.0462 27.4513 29.0747L27.2857 29.1104C27.2066 29.1247 27.149 29.1961 27.149 29.2747V29.7675C27.149 29.8675 27.2282 29.9389 27.3289 29.9389C29.1928 29.8317 31.071 29.8317 32.9637 29.9389C33.0644 29.9389 33.1436 29.8675 33.1436 29.7675Z" fill="#151531"/>
<path d="M19.5079 27.4531C19.3423 27.6031 19.1552 27.7245 18.9394 27.8245C18.7235 27.9244 18.486 27.9745 18.227 27.9745C17.8743 27.9745 17.6153 27.8388 17.4498 27.5603C17.2843 27.2817 17.2051 26.7961 17.2051 26.0891V20.6971H19.5439C19.6662 20.6971 19.7598 20.5971 19.7598 20.4829V19.9187C19.7598 19.7972 19.659 19.7044 19.5439 19.7044V19.6972H17.2051V16.812C17.2051 16.6478 17.0971 16.5121 16.9388 16.4692C16.7877 16.4263 16.6221 16.4907 16.543 16.6263C16.3127 17.012 16.0321 17.4048 15.7155 17.8047C15.3341 18.2832 14.8735 18.6975 14.3265 19.0474C13.8372 19.3616 13.2543 19.583 12.585 19.7044C12.4627 19.7259 12.3691 19.8401 12.3691 19.9615V20.4257C12.3691 20.5685 12.4914 20.6899 12.6354 20.6899H13.535V26.2819C13.535 27.196 13.6429 27.9531 13.8516 28.5387C14.0603 29.1243 14.3841 29.5599 14.8231 29.8313C15.2549 30.1098 15.809 30.2455 16.4782 30.2455C17.2411 30.2455 17.86 30.0527 18.3421 29.667C18.8242 29.2814 19.3279 28.66 19.839 27.796L19.5151 27.4531H19.5079Z" fill="#151531"/>
<path fillRule="evenodd" clipRule="evenodd" d="M42.9107 26.4538C42.8316 26.3895 42.7164 26.3895 42.6373 26.4538C42.2559 26.7394 41.8744 26.9608 41.4786 27.1108C41.0397 27.2822 40.5287 27.3608 39.9603 27.3608C39.2693 27.3608 38.6505 27.175 38.1036 26.8108C37.5567 26.4466 37.132 25.9467 36.8154 25.304C36.6571 24.9754 36.5348 24.6255 36.4556 24.2398H42.6876C42.7164 24.0755 42.7308 23.9184 42.738 23.7542C42.738 23.6659 42.7401 23.5837 42.742 23.5078C42.7436 23.4425 42.7452 23.3818 42.7452 23.3257C42.7452 22.6401 42.5869 21.983 42.2631 21.3689C41.9464 20.7547 41.4642 20.2547 40.8382 19.862C40.2049 19.4692 39.4133 19.2764 38.4634 19.2764C37.5135 19.2764 36.5995 19.512 35.7576 19.9762C34.9228 20.4405 34.2463 21.0903 33.7354 21.9117C33.2245 22.7329 32.9727 23.6971 32.9727 24.804C32.9727 25.911 33.2029 26.818 33.6563 27.6393C34.1096 28.4606 34.7285 29.1034 35.5129 29.5604C36.2973 30.0175 37.1752 30.246 38.154 30.246C39.2981 30.246 40.2553 29.9317 41.0397 29.3033C41.788 28.7034 42.443 27.8535 43.0115 26.7609C43.0618 26.668 43.0331 26.5537 42.9539 26.4895L42.9035 26.4466L42.9107 26.4538ZM36.3477 23.0614C36.3477 22.4401 36.4196 21.926 36.5492 21.5117C36.6859 21.0975 36.873 20.7833 37.1176 20.569C37.3624 20.3547 37.6503 20.2476 37.9741 20.2476C38.449 20.2476 38.8304 20.5618 39.1182 21.1904C39.3485 21.7045 39.5068 22.3687 39.586 23.1971L36.3549 23.4899C36.3477 23.3542 36.3405 23.2114 36.3405 23.0686L36.3477 23.0614Z" fill="#151531"/>
<path d="M54.114 20.1761V19.8119L54.1212 19.8333C54.1212 19.7048 54.0132 19.6049 53.8837 19.612C52.8834 19.6762 51.7968 19.6762 50.6237 19.612C50.4942 19.6049 50.3863 19.7048 50.3863 19.8333V20.2119C50.3863 20.3047 50.4438 20.3904 50.5374 20.419L50.7533 20.4904C50.962 20.5618 51.1132 20.6618 51.2139 20.8047C51.3146 20.9475 51.3434 21.1831 51.2931 21.5117C51.2427 21.8473 51.0916 22.3258 50.8325 22.9614L49.494 26.3609L47.7956 22.2544C47.5509 21.6902 47.4358 21.276 47.4358 21.0189C47.4358 20.7617 47.6085 20.5832 47.9323 20.4904L48.2202 20.4118C48.3209 20.3833 48.3857 20.2975 48.3857 20.1976V19.8262C48.3857 19.6976 48.2849 19.6049 48.1554 19.6049C47.1264 19.6548 46.1549 19.6762 45.2481 19.6762C44.3414 19.6762 43.3843 19.6477 42.384 19.6049C42.2545 19.5977 42.1465 19.6976 42.1465 19.8262V20.1833C42.1465 20.2833 42.2185 20.3761 42.3193 20.3976C42.4991 20.4404 42.6431 20.4976 42.7582 20.5832C42.9021 20.6904 43.0532 20.876 43.2044 21.1403C43.3483 21.4045 43.5426 21.7973 43.7729 22.3258L46.9465 29.2675C47.0616 29.5318 47.3279 29.696 47.6157 29.696H48.177L48.1626 29.7389C47.9035 30.4102 47.5437 30.9101 47.0904 31.2244C46.6299 31.5386 46.0901 31.7528 45.4568 31.8528C44.8236 31.9528 44.0968 32.0099 43.2835 32.0242L43.1396 32.367C43.154 32.7027 43.2044 33.0383 43.2835 33.3668C43.3699 33.6953 43.5282 33.9739 43.7657 34.1882C44.0032 34.4024 44.3486 34.5095 44.7948 34.5095C45.133 34.5095 45.4568 34.4453 45.7662 34.3167C46.0685 34.1882 46.3852 33.9453 46.7018 33.5954C47.0256 33.2454 47.371 32.7455 47.7452 32.0957C48.1122 31.4457 48.5297 30.5959 48.9758 29.546L51.6457 23.3685C51.9983 22.5544 52.3005 21.9545 52.5452 21.5545C52.7898 21.1546 53.0129 20.8832 53.2073 20.7332C53.4088 20.5832 53.6103 20.4833 53.8118 20.4261L53.9485 20.3904C54.0492 20.3619 54.114 20.2761 54.114 20.1761Z" fill="#151531"/>
<path fillRule="evenodd" clipRule="evenodd" d="M75.186 21.7977C74.7254 20.9836 74.0778 20.355 73.2574 19.9265C72.437 19.4909 71.4799 19.2767 70.3932 19.2767C69.3066 19.2767 68.328 19.498 67.414 19.9337C66.5001 20.3693 65.766 21.005 65.2119 21.8262C64.6506 22.6476 64.3772 23.6332 64.3772 24.7829C64.3772 25.6328 64.5067 26.3969 64.7729 27.0683C65.0392 27.7396 65.4134 28.318 65.8956 28.7894C66.3777 29.2608 66.9534 29.625 67.6299 29.8749C68.3064 30.1249 69.0476 30.2464 69.8607 30.2464C70.933 30.2464 71.9261 30.0249 72.84 29.575C73.7539 29.1322 74.4879 28.4966 75.042 27.6682C75.6034 26.8468 75.8769 25.8613 75.8769 24.7115C75.8769 23.5617 75.6466 22.6047 75.186 21.7834V21.7977ZM71.7246 28.418C71.5015 28.9894 71.1777 29.2822 70.7531 29.2822C70.4004 29.2822 70.0694 29.1179 69.7672 28.7966C69.4577 28.4752 69.1915 28.0396 68.954 27.4896C68.7165 26.9397 68.5295 26.3398 68.3927 25.6756C68.256 25.0115 68.1912 24.3401 68.1912 23.6546C68.1912 22.5333 68.3064 21.6905 68.5367 21.1121C68.7669 20.5408 69.0979 20.2551 69.5369 20.2551C69.8895 20.2551 70.2205 20.4194 70.5156 20.7479C70.8107 21.0764 71.0841 21.512 71.3216 22.0548C71.5591 22.5976 71.7462 23.1975 71.8757 23.8545C72.0052 24.5187 72.07 25.1828 72.07 25.8613C72.07 26.9968 71.9548 27.8467 71.7318 28.4252L71.7246 28.418ZM64.1541 28.5894C63.9094 28.5608 63.7295 28.4966 63.6216 28.3966C63.5136 28.2966 63.4416 28.0752 63.4056 27.7396C63.3696 27.4038 63.3552 26.8754 63.3552 26.1612V19.2338C63.3552 18.8838 63.3552 18.4553 63.3624 17.9483C63.3624 17.4484 63.3765 16.9483 63.3906 16.4416L63.3912 16.42C63.3955 16.2795 63.3997 16.1451 63.4037 16.0166C63.4134 15.7076 63.4222 15.4314 63.4272 15.1844C63.4272 15.1345 63.4128 15.0844 63.3696 15.0487L63.3192 14.9988C63.2761 14.9559 63.2041 14.9344 63.1465 14.9488C62.4701 15.1131 61.7937 15.213 61.1172 15.2488C60.4407 15.2844 59.606 15.3059 58.6057 15.3059C58.5049 15.3059 58.4186 15.3916 58.4186 15.4915V15.8986C58.4186 15.9986 58.4905 16.0771 58.5913 16.0843C58.6697 16.0843 58.7582 16.0943 58.8611 16.106C58.8809 16.1082 58.9013 16.1105 58.9223 16.1128C59.0879 16.1343 59.2678 16.1629 59.4549 16.2057C59.5053 16.2128 59.5484 16.2271 59.5916 16.2414C59.5916 16.2414 59.5988 16.5199 59.6132 16.9056L59.6348 16.8771C59.6348 17.0627 59.6492 17.6983 59.6636 18.2982C59.6636 18.5268 59.6708 18.741 59.678 18.9339V19.0552C59.6799 19.105 59.6818 19.1518 59.6836 19.1951C59.6885 19.3132 59.6924 19.4068 59.6924 19.4694V19.5052C59.6924 19.5123 59.6924 19.5266 59.6995 19.5409C59.7139 19.5694 59.7283 19.5837 59.7859 19.6408L60.0665 19.9193C60.1385 19.9908 60.2177 20.0693 60.2321 20.1051V20.1194C60.2321 20.1194 60.2321 20.1337 60.2249 20.1408C60.2033 20.1693 60.1601 20.2264 60.1097 20.2694C60.0522 20.3336 59.9874 20.3836 59.9586 20.3979H59.9442C59.9442 20.3979 59.8507 20.3264 59.7931 20.2694L59.4693 19.948C59.4117 19.8908 58.6272 19.2909 57.8429 19.2909C57.2096 19.3123 56.7419 19.4266 56.1301 19.6408C55.4465 19.8765 54.8349 20.2336 54.2951 20.7121C53.7482 21.1906 53.3164 21.7834 52.9998 22.4904C52.6832 23.1975 52.5176 24.033 52.5176 24.99C52.5176 25.9469 52.6976 26.8396 53.0574 27.6324C53.4172 28.4251 53.9353 29.0536 54.5974 29.525C55.2666 29.9963 56.0438 30.232 56.9434 30.232C57.6198 30.232 58.2171 30.0534 58.7208 29.6964C59.1383 29.4036 59.4837 29.025 59.7571 28.5679C59.7715 28.7179 59.7859 28.8608 59.8075 29.0036C59.8651 29.4178 59.9226 29.7677 59.9802 30.0391C60.0018 30.1463 60.1097 30.2105 60.2177 30.182C60.8797 29.982 61.5634 29.8178 62.2686 29.6892C62.9882 29.5607 63.7151 29.4607 64.4635 29.4107C64.5642 29.4036 64.6362 29.325 64.6362 29.225V28.7965C64.6362 28.6965 64.5642 28.618 64.4635 28.6108L64.1685 28.5822L64.1541 28.5894ZM59.4189 28.1466C59.2822 28.2038 59.1239 28.2252 58.9511 28.2252C58.1451 28.2252 57.5047 27.8181 57.0153 27.004C56.526 26.1898 56.2813 25.0043 56.2813 23.4473C56.2813 22.2904 56.454 21.4406 56.7923 20.9049C57.1305 20.3693 57.5335 20.1051 57.994 20.1051C58.5121 20.1051 58.9224 20.3122 59.2246 20.7193C59.534 21.1335 59.6852 21.6762 59.6852 22.3476V27.2255C59.6852 27.4826 59.6852 27.7324 59.6995 27.9681C59.5988 28.0467 59.5053 28.0966 59.4189 28.1323V28.1466Z" fill="#151531"/>
</g>
<defs>
<linearGradient id="paint0_linear_2086_45748" x1="4.61523" y1="23.9191" x2="83.0769" y2="23.9191" gradientUnits="userSpaceOnUse">
<stop stop-color="#FFA470"/>
<stop offset="0.328125" stop-color="#F8AAD6"/>
<stop offset="0.572917" stop-color="#B2A5FD"/>
<stop offset="0.828125" stop-color="#A5B7FD"/>
<stop offset="1" stop-color="#8CE3AD"/>
</linearGradient>
<clipPath id="clip0_2086_45748">
<rect width="87.6924" height="48" fill="white"/>
</clipPath>
</defs>
</svg>
