<svg width="139" height="36" viewBox="0 0 139 36" fill="none" xmlns="http://www.w3.org/2000/svg">
<g clip-path="url(#clip0_1_33)">
<path fillRule="evenodd" clipRule="evenodd" d="M27.8345 13.1268C29.4445 13.1268 30.7482 11.8212 30.7482 10.2129C30.7482 8.6047 29.4427 7.29913 27.8345 7.29913C26.2262 7.29913 24.9206 8.6047 24.9206 10.2129C24.9206 11.8212 26.2262 13.1268 27.8345 13.1268ZM38.0475 10.2129C38.0475 15.8528 33.4742 20.4259 27.8345 20.4259C22.1946 20.4259 17.6215 15.8528 17.6215 10.2129C17.6215 4.57312 22.1946 0 27.8345 0C33.4742 0 38.0475 4.57312 38.0475 10.2129ZM84.4222 10.2129C84.4222 11.823 83.1167 13.1268 81.5085 13.1268C79.9002 13.1268 78.5947 11.8212 78.5947 10.2129C78.5947 8.6047 79.9002 7.29913 81.5085 7.29913C83.1167 7.29913 84.4222 8.6047 84.4222 10.2129ZM81.5085 20.4259C87.1485 20.4259 91.7215 15.8528 91.7215 10.2129C91.7215 4.57312 87.1485 0 81.5085 0C75.8687 0 71.2955 4.57312 71.2955 10.2129C71.2955 15.8528 75.867 20.4259 81.5085 20.4259ZM131.652 10.2129C131.652 11.823 130.347 13.1268 128.739 13.1268C127.131 13.1268 125.825 11.8212 125.825 10.2129C125.825 8.6047 127.131 7.29913 128.739 7.29913C130.347 7.29913 131.652 8.6047 131.652 10.2129ZM128.739 20.4259C134.379 20.4259 138.952 15.8528 138.952 10.2129C138.952 4.57312 134.378 0 128.737 0C123.095 0 118.524 4.57312 118.524 10.2129C118.524 15.8528 123.097 20.4259 128.737 20.4259H128.739ZM67.0178 2.726C65.4188 0.979175 63.216 0.479558 61.192 0.479558H57.412V3.9878C57.175 3.55202 56.8797 3.12715 56.5112 2.726C54.9122 0.979175 52.7095 0.479558 50.6855 0.479558H47.6203V0.475913H40.0057V19.8953H47.6203V8.09415H50.6855C50.6965 8.09415 50.7075 8.09415 50.7165 8.09415V19.8953H58.331V8.09415H61.203H61.2212V19.8953H68.8357V8.04675C68.8357 6.50048 68.5513 4.40538 67.0143 2.726H67.0178ZM95.3083 2.83905C96.9073 1.09223 99.11 0.59261 101.134 0.59261H104.912V8.2072H101.116H101.101V20.0084H93.4865V8.1598C93.4865 6.61352 93.771 4.51843 95.3063 2.83905H95.3083ZM113.666 0.59261C111.642 0.59261 109.44 1.0904 107.84 2.83905C106.303 4.51843 106.019 6.61352 106.019 8.1598V20.0084H113.633V8.20903C113.644 8.20903 113.655 8.20903 113.664 8.20903H117.445V0.59261H113.664H113.666ZM12.0911 8.14338V19.8114H4.4765V8.14338H0V0.52879H4.47468V0.525145H12.0892V0.52879H16.5658V8.14338H12.0892H12.0911Z" fill="#273F2B"/>
<path d="M74.992 32.51C72.598 32.51 71.156 31.068 71.156 28.842C71.156 26.602 72.626 25.146 74.852 25.146C77.008 25.146 78.464 26.49 78.492 28.604C78.492 28.814 78.478 29.052 78.436 29.276H73.214V29.374C73.256 30.396 73.914 31.012 74.908 31.012C75.706 31.012 76.266 30.662 76.434 29.99H78.38C78.156 31.39 76.91 32.51 74.992 32.51ZM73.256 27.988H76.504C76.364 27.106 75.762 26.616 74.866 26.616C74.012 26.616 73.368 27.134 73.256 27.988ZM78.4735 32.426L81.1478 28.758L78.5997 25.23H80.8538L82.3378 27.358L83.8637 25.23H85.9918L83.4577 28.758L86.1318 32.426H83.8777L82.2258 30.172L80.5878 32.426H78.4735ZM96.3808 32.426H90.3887V22.6259H92.4887V30.62H96.3808V32.426ZM100.682 32.51C98.2875 32.51 96.8455 31.068 96.8455 28.842C96.8455 26.602 98.3155 25.146 100.541 25.146C102.697 25.146 104.154 26.49 104.182 28.604C104.182 28.814 104.168 29.052 104.126 29.276H98.9035V29.374C98.9455 30.396 99.6035 31.012 100.598 31.012C101.396 31.012 101.955 30.662 102.123 29.99H104.07C103.846 31.39 102.6 32.51 100.682 32.51ZM98.9455 27.988H102.193C102.053 27.106 101.451 26.616 100.555 26.616C99.7015 26.616 99.0575 27.134 98.9455 27.988ZM108.816 32.51C106.422 32.51 104.98 31.068 104.98 28.842C104.98 26.602 106.45 25.146 108.676 25.146C110.832 25.146 112.288 26.49 112.316 28.604C112.316 28.814 112.302 29.052 112.26 29.276H107.038V29.374C107.08 30.396 107.738 31.012 108.732 31.012C109.53 31.012 110.09 30.662 110.258 29.99H112.204C111.98 31.39 110.734 32.51 108.816 32.51ZM107.08 27.988H110.328C110.188 27.106 109.586 26.616 108.69 26.616C107.836 26.616 107.192 27.134 107.08 27.988ZM114.801 32.426L112.449 25.23H114.535L115.977 30.298L117.335 25.23H119.113L120.429 30.312L121.899 25.23H123.915L121.549 32.426H119.449L118.189 28.086L116.901 32.426H114.801ZM131.138 30.76H131.362V32.426H130.354C129.332 32.426 129.01 31.936 129.024 31.25C128.52 32.048 127.792 32.51 126.672 32.51C125.118 32.51 123.998 31.768 123.998 30.396C123.998 28.87 125.146 28.002 127.302 28.002H128.73V27.652C128.73 27.008 128.268 26.588 127.442 26.588C126.672 26.588 126.154 26.938 126.07 27.47H124.166C124.306 26.07 125.594 25.146 127.498 25.146C129.514 25.146 130.676 26.042 130.676 27.764V30.312C130.676 30.69 130.83 30.76 131.138 30.76ZM128.73 29.458V29.318H127.288C126.462 29.318 125.986 29.654 125.986 30.256C125.986 30.76 126.392 31.082 127.05 31.082C128.086 31.082 128.716 30.438 128.73 29.458ZM133.869 32.468L131.097 25.23H133.197L134.947 30.354L136.655 25.23H138.769L135.577 33.448C135.129 34.638 134.765 35.226 133.645 35.226H131.727V33.56H132.819C133.323 33.56 133.491 33.434 133.687 32.944L133.869 32.468Z" fill="#273F2B"/>
</g>
<defs>
<clipPath id="clip0_1_33">
<rect width="139" height="35.5" fill="white"/>
</clipPath>
</defs>
</svg>
