<svg width="139" height="28" viewBox="0 0 139 28" fill="none" xmlns="http://www.w3.org/2000/svg">
<path d="M128.993 26.5498C128.545 26.5498 128.126 26.5139 127.733 26.4421C127.347 26.3758 127.026 26.2902 126.772 26.1852L127.568 23.5503C127.982 23.6773 128.355 23.7464 128.686 23.7574C129.023 23.7685 129.313 23.6911 129.556 23.5254C129.805 23.3597 130.006 23.078 130.161 22.6803L130.368 22.1417L125.803 9.0498H129.515L132.15 18.3964H132.282L134.942 9.0498H138.679L133.732 23.1526C133.495 23.8375 133.172 24.4341 132.763 24.9423C132.36 25.4561 131.849 25.851 131.23 26.1272C130.611 26.4089 129.866 26.5498 128.993 26.5498Z" fill="#151531"/>
<path d="M123.983 4.80859V21.7783H120.453V4.80859H123.983Z" fill="#151531"/>
<path d="M117.629 4.80859V21.7783H114.1V4.80859H117.629Z" fill="#151531"/>
<path d="M107.744 16.358V9.0498H111.274V21.7771H107.885V19.4653H107.752C107.465 20.211 106.987 20.8104 106.319 21.2633C105.656 21.7163 104.846 21.9428 103.891 21.9428C103.04 21.9428 102.292 21.7495 101.645 21.3628C100.999 20.9761 100.493 20.4265 100.129 19.7139C99.7698 19.0013 99.5876 18.1478 99.582 17.1535V9.0498H103.112V16.5238C103.117 17.275 103.319 17.8689 103.717 18.3052C104.114 18.7416 104.648 18.9598 105.316 18.9598C105.741 18.9598 106.139 18.8632 106.509 18.6698C106.879 18.471 107.178 18.1782 107.404 17.7915C107.636 17.4048 107.749 16.927 107.744 16.358Z" fill="#151531"/>
<path d="M97.4293 9.0496V11.7011H89.5742V9.0496H97.4293ZM91.3723 21.7769V8.12985C91.3723 7.20735 91.5518 6.44227 91.9109 5.83464C92.2755 5.227 92.7726 4.77127 93.4023 4.46745C94.0321 4.16363 94.7474 4.01172 95.5484 4.01172C96.0898 4.01172 96.5842 4.05315 97.0316 4.13601C97.4846 4.21887 97.8215 4.29344 98.0425 4.35973L97.4128 7.01125C97.2747 6.96705 97.1034 6.92562 96.899 6.88696C96.7002 6.84829 96.4958 6.82895 96.2859 6.82895C95.7666 6.82895 95.4048 6.95048 95.2004 7.19354C94.996 7.43107 94.8938 7.76527 94.8938 8.19614V21.7769H91.3723Z" fill="#151531"/>
<path d="M82.435 22.0254C81.1258 22.0254 79.9989 21.7602 79.0543 21.2299C78.1153 20.6941 77.3916 19.9373 76.8834 18.9595C76.3752 17.9763 76.1211 16.8135 76.1211 15.4711C76.1211 14.162 76.3752 13.013 76.8834 12.0242C77.3916 11.0354 78.107 10.2648 79.0295 9.71239C79.9575 9.15999 81.0457 8.88379 82.2942 8.88379C83.1338 8.88379 83.9154 9.01913 84.6391 9.2898C85.3683 9.55495 86.0035 9.95544 86.5449 10.4913C87.0917 11.0271 87.5171 11.701 87.8209 12.5131C88.1247 13.3196 88.2766 14.2642 88.2766 15.3469V16.3163H77.5297V14.1288H84.954C84.954 13.6206 84.8435 13.1704 84.6225 12.7782C84.4016 12.386 84.095 12.0794 83.7028 11.8585C83.3161 11.632 82.8659 11.5187 82.3522 11.5187C81.8163 11.5187 81.3413 11.643 80.927 11.8916C80.5182 12.1347 80.1978 12.4633 79.9658 12.8776C79.7338 13.2864 79.615 13.7421 79.6095 14.2448V16.3246C79.6095 16.9543 79.7255 17.4984 79.9575 17.9569C80.195 18.4154 80.5292 18.769 80.9601 19.0175C81.391 19.2661 81.9019 19.3904 82.493 19.3904C82.8852 19.3904 83.2443 19.3352 83.5702 19.2247C83.8961 19.1142 84.1751 18.9485 84.4071 18.7275C84.6391 18.5066 84.8159 18.2359 84.9374 17.9155L88.2021 18.1309C88.0363 18.9154 87.6966 19.6003 87.1829 20.1859C86.6747 20.7659 86.0173 21.2189 85.2108 21.5448C84.4098 21.8652 83.4846 22.0254 82.435 22.0254Z" fill="#151531"/>
<path d="M61.873 26.5495V9.04951H65.3532V11.1873H65.5106C65.6653 10.8448 65.889 10.4968 66.1818 10.1433C66.4801 9.7842 66.8667 9.4859 67.3418 9.24837C67.8224 9.00532 68.419 8.88379 69.1316 8.88379C70.0596 8.88379 70.9158 9.12684 71.7002 9.61296C72.4846 10.0935 73.1116 10.8199 73.5811 11.7922C74.0507 12.7589 74.2855 13.9714 74.2855 15.4297C74.2855 16.8494 74.0562 18.0481 73.5977 19.0258C73.1447 19.9981 72.5261 20.7355 71.7417 21.2382C70.9628 21.7354 70.09 21.9839 69.1233 21.9839C68.4383 21.9839 67.8555 21.8707 67.3749 21.6442C66.8999 21.4177 66.5104 21.1332 66.2066 20.7907C65.9028 20.4427 65.6708 20.092 65.5106 19.7384H65.4029V26.5495H61.873ZM65.3283 15.4131C65.3283 16.1699 65.4333 16.83 65.6432 17.3935C65.8531 17.9569 66.1569 18.3961 66.5546 18.711C66.9524 19.0203 67.4357 19.175 68.0047 19.175C68.5792 19.175 69.0653 19.0175 69.463 18.7027C69.8607 18.3823 70.1618 17.9404 70.3662 17.3769C70.5761 16.808 70.6811 16.1534 70.6811 15.4131C70.6811 14.6785 70.5789 14.0321 70.3745 13.4742C70.1701 12.9163 69.869 12.4799 69.4713 12.165C69.0736 11.8502 68.5847 11.6927 68.0047 11.6927C67.4302 11.6927 66.9441 11.8446 66.5463 12.1485C66.1541 12.4523 65.8531 12.8832 65.6432 13.4411C65.4333 13.999 65.3283 14.6564 65.3283 15.4131Z" fill="#151531"/>
<path d="M50.3815 26.5498C49.9341 26.5498 49.5142 26.5139 49.122 26.4421C48.7354 26.3758 48.415 26.2902 48.1609 26.1852L48.9563 23.5503C49.3706 23.6773 49.7435 23.7464 50.0749 23.7574C50.4119 23.7685 50.7019 23.6911 50.945 23.5254C51.1935 23.3597 51.3952 23.078 51.5498 22.6803L51.757 22.1417L47.1914 9.0498H50.9035L53.5385 18.3964H53.671L56.3308 9.0498H60.0678L55.1211 23.1526C54.8836 23.8375 54.5604 24.4341 54.1516 24.9423C53.7484 25.4561 53.2374 25.851 52.6187 26.1272C52 26.4089 51.2543 26.5498 50.3815 26.5498Z" fill="#151531"/>
<path d="M33.4922 7.76669V4.80859H47.4292V7.76669H42.2339V21.7783H38.6875V7.76669H33.4922Z" fill="#151531"/>
<g clip-path="url(#clip0_2086_44131)">
<path fillRule="evenodd" clipRule="evenodd" d="M18.021 15.6595C18.1389 15.3316 18.0431 15.2285 17.7079 15.3353V15.3316C16.5328 15.7074 14.4957 16.2231 12.1528 15.7626C11.6629 15.6632 11.6924 15.2874 12.1897 15.2617C14.0463 15.1696 16.949 14.7496 18.5146 13.1398C19.6553 11.9668 20.2648 10.1726 20.9434 8.17523C21.7309 5.85731 22.6114 3.2657 24.5228 1.05354C24.5685 1.00031 24.6228 0.943644 24.6787 0.885272C25.064 0.483147 25.5268 0 23.8155 0C15.1731 0 12.0392 6.97657 6.7723 18.7013C5.84083 20.7748 4.84267 22.9968 3.73552 25.355C3.64108 25.5554 3.54639 25.7466 3.45701 25.927C3.20128 26.4434 2.98911 26.8718 2.95089 27.1748C2.92142 27.4253 3.07246 27.6316 3.37084 27.6316C4.40262 27.6214 5.44486 25.7969 6.41113 24.1054C6.84893 23.339 7.27118 22.5998 7.66973 22.0692C8.18177 21.3877 8.68275 21.0709 9.31636 20.9051C9.81483 20.7723 10.369 20.7098 10.9575 20.6433C11.6257 20.5679 12.3379 20.4875 13.0627 20.2936C15.9249 19.5274 17.4058 17.3982 18.021 15.6595ZM23.5024 25.0345C23.5024 26.4638 22.342 27.6242 20.9128 27.6242C19.4835 27.6242 18.3231 26.4638 18.3231 25.0345C18.3231 23.6053 19.4835 22.4449 20.9128 22.4449C22.342 22.4449 23.5024 23.6053 23.5024 25.0345Z" fill="#151531"/>
</g>
<defs>
<clipPath id="clip0_2086_44131">
<rect width="28" height="28" fill="white"/>
</clipPath>
</defs>
</svg>
